<svg width="148" height="120" viewBox="0 0 148 120" fill="none" xmlns="http://www.w3.org/2000/svg">
<path d="M0.197373 17.7816C0.183753 18.1456 0.197373 18.5096 0.176943 18.8736C0.156513 19.2376 0.136083 19.6016 0.108844 19.9657C0.0816041 20.3297 0.224612 20.7006 0.204183 21.0646C0.183753 21.4286 0.0816041 21.7857 0.0679843 22.1497C0.0543645 22.5137 -0.000114898 22.8777 -0.000114898 23.2418C-0.000114898 23.592 0.0271248 23.9492 0.0271248 24.2995C0.0271248 24.6497 -0.0137347 25.0069 -0.00692482 25.3571C-0.000114897 25.7074 0.136083 26.0577 0.149703 26.4148C0.163323 26.772 0.0679843 27.1223 0.0747942 27.4725C0.0816041 27.8228 0.136083 28.1799 0.149703 28.5302C0.163323 28.8805 0.095224 29.2376 0.102034 29.5879C0.108844 29.9382 0.231422 30.2885 0.245042 30.6456C0.258662 31.0027 0.170133 31.353 0.176943 31.7033C0.183753 32.0536 0.388051 32.4038 0.39486 32.761C0.39486 33.0838 0.388051 33.4066 0.39486 33.7294C0.40167 34.0522 0.265472 34.375 0.265472 34.6978C0.265472 35.0206 0.265472 35.3434 0.265472 35.6662C0.265472 35.989 0.190563 36.3118 0.190563 36.6346C0.190563 36.9574 0.44253 37.2802 0.44253 37.603C0.44253 37.9258 0.43572 38.2418 0.43572 38.5714C0.43572 38.9011 0.217803 39.217 0.217803 39.5467C0.217803 39.8764 0.43572 40.1923 0.43572 40.5151C0.44253 40.8448 0.326761 41.2019 0.333571 41.5659C0.347191 41.9025 0.44934 42.2527 0.46296 42.6099C0.47658 42.967 0.517439 43.3036 0.524249 43.6607C0.531059 44.0179 0.347191 44.3681 0.354001 44.7184C0.354001 45.0824 0.381241 45.4464 0.388051 45.8104C0.39486 46.1744 0.333571 46.5385 0.333571 46.9025C0.333571 47.2665 0.476579 47.6305 0.476579 47.9945C0.476579 48.3585 0.347191 48.7294 0.354001 49.0934C0.360811 49.4574 0.39486 49.8214 0.41529 50.1854C0.42891 50.522 0.381241 50.8654 0.388051 51.2019C0.39486 51.5385 0.599158 51.875 0.612778 52.2115C0.626398 52.5481 0.653637 52.8846 0.660447 53.228C0.667257 53.5714 0.640018 53.9011 0.646828 54.2445C0.653637 54.5879 0.490199 54.9244 0.490199 55.261C0.490199 55.5975 0.571918 55.9341 0.578728 56.2706C0.585538 56.6071 0.694497 56.9437 0.701307 57.2802C0.708117 57.6168 0.503819 57.9602 0.510629 58.2967C0.517439 58.6332 0.674067 58.9698 0.687687 59.3063C0.701307 59.6429 0.762596 59.9794 0.783026 60.3159C0.803456 60.6525 0.680877 61.0027 0.708117 61.3393C0.735356 61.669 0.891985 61.9849 0.905604 62.3146C0.919224 62.6442 0.932844 62.9739 0.939654 63.3036C0.946464 63.6332 0.817076 63.9629 0.823885 64.2926C0.830695 64.6223 0.823885 64.9519 0.823885 65.2816C0.823885 65.6113 0.796646 65.9409 0.796646 66.2706C0.796646 66.6003 0.851125 66.9299 0.851125 67.2596C0.851125 67.5893 1.02137 67.919 1.02137 68.2486C1.02137 68.5783 0.966894 68.908 0.966894 69.2376C0.966894 69.581 0.932844 69.9176 0.939654 70.261C0.946464 70.6044 0.857935 70.9409 0.857935 71.2843C0.857935 71.6277 1.08266 71.9643 1.08947 72.3077C1.09628 72.6511 1.06904 72.9876 1.06904 73.331C1.06904 73.6744 0.844315 74.0179 0.844315 74.3544C0.844315 74.6909 1.01456 75.0343 1.02137 75.3777C1.02818 75.7212 0.926034 76.0577 0.932844 76.4011C0.939654 76.7445 1.06223 77.081 1.06904 77.4245C1.07585 77.7679 1.16438 78.1044 1.16438 78.4478C1.16438 78.7912 1.14395 79.1277 1.15076 79.4712C1.15757 79.8146 1.01456 80.158 1.02137 80.4945C1.02818 80.831 1.17119 81.1745 1.17119 81.5179C1.17119 81.8613 1.0418 82.2047 1.0418 82.5412C1.0418 82.8777 0.966894 83.228 0.973704 83.5646C0.980514 83.9011 1.12352 84.2445 1.13033 84.5879C1.13714 84.9313 0.994133 85.2747 1.00094 85.6181C1.00775 85.9615 1.19843 86.2981 1.21205 86.6346C1.22567 86.9712 1.19843 87.3146 1.21205 87.658C1.22567 88.0014 1.34144 88.3379 1.35506 88.6744C1.36868 89.011 1.12352 89.3681 1.13714 89.7047C1.15076 90.0343 1.36187 90.364 1.37549 90.6937C1.38911 91.0234 1.30739 91.3599 1.32101 91.6964C1.33463 92.033 1.21886 92.3695 1.23248 92.6992C1.2461 93.0288 1.37549 93.3585 1.38911 93.6882C1.40273 94.0179 1.52531 94.3475 1.53893 94.6772C1.55255 95.0069 1.49126 95.3434 1.50488 95.6731C1.5185 96.0027 1.6547 96.3324 1.66151 96.6621C1.66832 96.9918 1.63427 97.3283 1.64108 97.658C1.64789 97.9876 1.60703 98.3242 1.61384 98.6538C1.62065 98.9835 1.7296 99.3201 1.73641 99.6497C1.74322 99.9794 1.67513 100.316 1.67513 100.646C1.67513 100.975 1.70237 101.312 1.70237 101.641C1.70237 101.971 1.50488 102.308 1.49807 102.637C1.49807 102.995 1.54574 103.352 1.55255 103.709C1.55936 104.066 1.55255 104.423 1.56617 104.78C1.57979 105.137 1.59341 105.494 1.61384 105.852C1.63427 106.209 1.83856 106.545 1.87261 106.902C1.90666 107.26 1.85899 107.617 1.89304 107.974C1.92709 108.331 2.04286 108.674 2.09053 109.025C2.1382 109.375 2.11096 109.739 2.15863 110.089C2.2063 110.44 2.40379 110.769 2.45827 111.126C2.51275 111.484 2.39698 111.854 2.45827 112.205C2.51956 112.555 2.61489 112.898 2.67618 113.249C2.73747 113.599 2.76471 113.956 2.826 114.306C2.88048 114.636 3.00306 114.952 3.0984 115.275C3.20736 115.639 3.29589 115.989 3.46613 116.271C3.65681 116.587 3.93602 116.813 4.1948 117.04C4.45357 117.266 4.78045 117.376 5.11414 117.514C5.42739 117.637 5.73384 117.775 6.10157 117.823C6.40802 117.864 6.71447 117.871 7.02091 117.905C7.32736 117.94 7.627 118.029 7.93344 118.063C8.28075 118.098 8.63486 118.152 8.98217 118.187C9.32948 118.221 9.67678 118.283 10.0309 118.324C10.385 118.365 10.7323 118.407 11.0796 118.448C11.4269 118.489 11.7879 118.468 12.1352 118.503C12.4825 118.537 12.823 118.723 13.1703 118.75C13.5176 118.777 13.8717 118.826 14.2258 118.839C14.5799 118.853 14.934 118.832 15.2882 118.839C15.6287 118.839 15.9691 118.839 16.3096 118.839C16.6501 118.839 16.9906 118.88 17.3311 118.887C17.6716 118.894 18.0121 118.784 18.3526 118.784C18.6931 118.784 19.0336 118.832 19.3741 118.839C19.7146 118.846 20.0551 118.716 20.3956 118.723C20.7361 118.729 21.0766 118.729 21.4171 118.736C21.7576 118.743 22.0981 118.736 22.4386 118.736C22.7791 118.736 23.1128 118.942 23.4532 118.956C23.7937 118.97 24.1411 118.777 24.4815 118.791C24.822 118.805 25.1625 118.86 25.503 118.88C25.8435 118.901 26.1908 118.832 26.5313 118.853C26.8786 118.874 27.2191 119.011 27.5664 119.032C27.9137 119.052 28.2679 118.963 28.6152 118.977C28.9625 118.99 29.303 119.155 29.6503 119.169C29.9976 119.183 30.3449 119.251 30.6922 119.265C31.0395 119.279 31.3868 119.361 31.7341 119.375C32.0814 119.389 32.4287 119.313 32.776 119.327C33.1233 119.341 33.4706 119.361 33.8179 119.375C34.1653 119.389 34.5126 119.348 34.8599 119.361C35.2072 119.375 35.5545 119.409 35.9018 119.416C36.2491 119.423 36.5964 119.396 36.9437 119.402C37.291 119.409 37.6383 119.354 37.9856 119.361C38.3329 119.368 38.6802 119.409 39.0275 119.416C39.3748 119.423 39.7221 119.416 40.0695 119.43C40.4168 119.444 40.7641 119.54 41.1114 119.547C41.4519 119.547 41.7924 119.512 42.1329 119.519C42.4734 119.526 42.8139 119.437 43.1543 119.444C43.4948 119.451 43.8353 119.402 44.1758 119.409C44.5163 119.416 44.8568 119.485 45.1973 119.485C45.5378 119.485 45.8783 119.663 46.2188 119.663C46.5593 119.663 46.8998 119.396 47.2403 119.396C47.5808 119.396 47.9213 119.54 48.2618 119.54C48.6023 119.54 48.9428 119.382 49.2833 119.382C49.6238 119.382 49.9643 119.464 50.3048 119.464C50.6453 119.464 50.9858 119.56 51.3263 119.56C51.6668 119.56 52.0072 119.423 52.3477 119.423C52.6882 119.423 53.0287 119.457 53.3692 119.457C53.7097 119.457 54.0502 119.471 54.3907 119.471C54.7312 119.471 55.0717 119.402 55.4122 119.402C55.7527 119.402 56.0932 119.65 56.4337 119.65C56.7742 119.65 57.1147 119.595 57.4552 119.595C57.7957 119.595 58.1362 119.471 58.4767 119.471C58.8172 119.471 59.1577 119.402 59.4982 119.402C59.8387 119.402 60.1791 119.409 60.5196 119.409C60.8533 119.409 61.187 119.437 61.5207 119.437C61.8544 119.437 62.1881 119.505 62.5218 119.505C62.8554 119.505 63.1891 119.567 63.5228 119.567C63.8565 119.567 64.1902 119.478 64.5239 119.478C64.8576 119.478 65.1913 119.396 65.5249 119.396C65.8586 119.396 66.1923 119.478 66.526 119.478C66.8597 119.478 67.1934 119.602 67.5271 119.595C67.8607 119.588 68.1944 119.389 68.5281 119.389C68.8618 119.389 69.1955 119.505 69.5292 119.505C69.8629 119.505 70.1965 119.451 70.5302 119.444C70.8639 119.437 71.1976 119.512 71.5313 119.512C71.865 119.512 72.1987 119.396 72.5323 119.389C72.866 119.382 73.1997 119.306 73.5334 119.306C73.8671 119.306 74.2008 119.306 74.5345 119.306C74.8681 119.306 75.2018 119.478 75.5355 119.471C75.8692 119.464 76.2029 119.519 76.5366 119.512C76.8703 119.505 77.2039 119.409 77.5376 119.402C77.8918 119.402 78.2459 119.492 78.6 119.485C78.9541 119.478 79.3014 119.313 79.6555 119.299C80.0096 119.286 80.3638 119.224 80.7179 119.217C81.072 119.21 81.4329 119.382 81.787 119.368C82.1411 119.354 82.4884 119.1 82.8426 119.093C83.1967 119.087 83.5576 119.299 83.9049 119.293C84.2522 119.286 84.6131 119.348 84.9673 119.348C85.3214 119.348 85.6755 119.107 86.0296 119.114C86.3837 119.114 86.7446 119.1 87.0988 119.1C87.4529 119.1 87.807 119.313 88.1679 119.32C88.5288 119.327 88.883 119.258 89.2371 119.265C89.5912 119.272 89.9521 119.265 90.3062 119.279C90.6604 119.293 91.0213 119.217 91.3822 119.231C91.7431 119.245 92.0904 119.327 92.4514 119.341C92.8123 119.354 93.1732 119.272 93.5273 119.286C93.8814 119.299 94.2288 119.588 94.5829 119.609C94.937 119.629 95.3047 119.54 95.6588 119.567C96.0129 119.595 96.3739 119.554 96.7348 119.581C97.0753 119.609 97.4158 119.581 97.7563 119.588C98.0968 119.595 98.4373 119.67 98.7846 119.657C99.1319 119.643 99.4656 119.622 99.8061 119.602C100.147 119.581 100.494 119.705 100.841 119.684C101.188 119.663 101.509 119.444 101.856 119.43C102.203 119.416 102.544 119.56 102.884 119.56C103.225 119.56 103.572 119.334 103.912 119.354C104.26 119.375 104.6 119.505 104.948 119.526C105.295 119.547 105.642 119.595 105.983 119.609C106.323 119.622 106.677 119.519 107.025 119.533C107.372 119.547 107.712 119.691 108.06 119.705C108.407 119.718 108.754 119.636 109.102 119.643C109.449 119.65 109.796 119.794 110.144 119.801C110.491 119.808 110.838 119.705 111.185 119.705C111.533 119.705 111.88 119.821 112.227 119.821C112.575 119.821 112.922 119.712 113.269 119.698C113.617 119.684 113.964 119.609 114.304 119.595C114.645 119.581 115.006 119.725 115.353 119.705C115.7 119.684 116.034 119.499 116.381 119.471C116.729 119.444 117.076 119.437 117.417 119.409C117.757 119.382 118.132 119.554 118.472 119.519C118.772 119.485 119.099 119.409 119.473 119.396C119.793 119.396 120.134 119.238 120.488 119.244C120.815 119.244 121.148 119.464 121.496 119.478C121.843 119.492 122.17 119.423 122.51 119.444C122.851 119.464 123.191 119.409 123.532 119.43C123.872 119.451 124.213 119.451 124.547 119.471C124.88 119.492 125.228 119.629 125.554 119.643C125.908 119.657 126.256 119.609 126.576 119.615C126.944 119.622 127.291 119.732 127.591 119.725C127.931 119.712 128.258 119.65 128.578 119.643C128.918 119.629 129.245 119.499 129.565 119.492C129.906 119.478 130.24 119.65 130.56 119.643C130.9 119.636 131.22 119.402 131.547 119.396C131.874 119.389 132.214 119.471 132.541 119.464C132.868 119.457 133.202 119.602 133.529 119.602C133.856 119.602 134.183 119.512 134.516 119.519C134.85 119.526 135.17 119.533 135.504 119.54C135.837 119.547 136.157 119.409 136.498 119.43C136.818 119.444 137.145 119.451 137.485 119.471C137.805 119.492 138.139 119.505 138.48 119.526C138.8 119.547 139.113 119.808 139.453 119.835C139.808 119.863 140.168 119.924 140.523 119.938C140.877 119.952 141.238 119.863 141.599 119.869C141.959 119.876 142.314 119.986 142.668 119.986C143.022 119.986 143.383 119.801 143.737 119.808C144.091 119.815 144.445 119.979 144.806 119.986C145.119 119.986 145.412 119.842 145.684 119.732C145.957 119.622 146.27 119.512 146.488 119.306C146.706 119.1 146.883 118.832 147.033 118.565C147.21 118.235 147.333 117.857 147.448 117.5C147.564 117.143 147.646 116.765 147.693 116.387C147.741 116.01 147.639 115.639 147.625 115.254C147.612 114.897 147.741 114.54 147.748 114.176C147.755 113.812 147.707 113.462 147.721 113.104C147.734 112.747 147.605 112.383 147.619 112.026C147.625 111.648 147.734 111.271 147.748 110.893C147.762 110.515 147.748 110.137 147.755 109.76C147.762 109.382 147.727 109.004 147.741 108.626C147.755 108.249 147.816 107.871 147.823 107.493C147.83 107.115 147.857 106.738 147.864 106.36C147.864 105.989 148.013 105.618 148.007 105.24C148 104.863 147.741 104.505 147.727 104.135C147.714 103.764 147.714 103.393 147.707 103.022C147.7 102.651 147.68 102.273 147.68 101.902C147.68 101.566 147.748 101.229 147.748 100.886C147.748 100.543 147.925 100.213 147.925 99.8695C147.925 99.5261 147.775 99.1964 147.775 98.853C147.775 98.5096 147.802 98.1799 147.809 97.8365C147.816 97.4931 147.87 97.1635 147.87 96.8201C147.87 96.4766 147.939 96.147 147.939 95.8036C147.939 95.4602 147.932 95.1305 147.932 94.7871C147.932 94.4437 147.857 94.114 147.857 93.7706C147.857 93.4272 147.775 93.0975 147.775 92.7541C147.775 92.4107 147.823 92.081 147.823 91.7376C147.823 91.3942 147.721 91.0646 147.721 90.7212C147.721 90.3777 147.87 90.0481 147.87 89.7047C147.87 89.3613 147.748 89.0316 147.748 88.6882C147.748 88.3448 147.945 88.0082 147.945 87.6717C147.945 87.3352 147.727 86.9986 147.721 86.6621C147.714 86.3255 147.87 85.9821 147.864 85.6456C147.857 85.3091 147.939 84.9657 147.932 84.6291C147.925 84.2926 147.741 83.956 147.734 83.6195C147.727 83.283 147.721 82.9464 147.714 82.603C147.707 82.2596 147.612 81.9299 147.605 81.5934C147.598 81.2569 147.721 80.9135 147.714 80.5769C147.707 80.2404 147.734 79.9038 147.727 79.5604C147.721 79.217 147.591 78.8874 147.584 78.5508C147.578 78.2143 147.625 77.8709 147.619 77.5343C147.612 77.1978 147.51 76.8613 147.51 76.5247C147.51 76.1882 147.523 75.8516 147.516 75.5082C147.51 75.1648 147.55 74.8352 147.55 74.4918C147.55 74.1484 147.646 73.8187 147.646 73.4753C147.646 73.125 147.632 72.7747 147.632 72.4176C147.632 72.0604 147.666 71.717 147.673 71.3668C147.68 71.0165 147.707 70.6662 147.714 70.3159C147.721 69.9657 147.768 69.6154 147.775 69.2651C147.782 68.9148 147.612 68.5577 147.619 68.2074C147.625 67.8571 147.727 67.5069 147.734 67.1566C147.741 66.8063 147.809 66.456 147.816 66.1058C147.823 65.7555 147.639 65.3984 147.646 65.0481C147.653 64.6978 147.707 64.3475 147.707 63.9973C147.707 63.647 147.762 63.2967 147.768 62.9464C147.775 62.5962 147.796 62.2459 147.802 61.8956C147.809 61.5453 147.85 61.1951 147.857 60.8448C147.864 60.4945 147.727 60.1374 147.734 59.7871C147.741 59.4368 147.986 59.0865 147.993 58.7363C148 58.386 147.884 58.0288 147.891 57.6786C147.898 57.3283 147.85 56.978 147.85 56.6209C147.85 56.2637 147.796 55.9203 147.802 55.5632C147.809 55.206 148.054 54.8626 148.054 54.5124C148.054 54.1621 147.979 53.8118 147.979 53.4547C147.979 53.0975 147.905 52.7541 147.911 52.397C147.911 52.0604 148.068 51.7239 148.068 51.3805C148.068 51.0371 148.068 50.7006 148.068 50.364C148.068 50.0275 147.782 49.6909 147.775 49.3544C147.768 49.0179 148.027 48.6744 148.027 48.3379C148.027 48.0014 147.884 47.6648 147.884 47.3283C147.884 46.9918 147.768 46.6552 147.762 46.3187C147.755 45.9821 147.986 45.6387 147.979 45.3022C147.973 44.9657 147.986 44.6291 147.979 44.2857C147.973 43.9423 147.959 43.6126 147.952 43.2692C147.945 42.9258 147.782 42.5962 147.775 42.2596C147.768 41.9231 147.891 41.5797 147.884 41.2431C147.877 40.9066 147.707 40.5701 147.707 40.2335C147.707 39.897 147.666 39.5604 147.659 39.217C147.653 38.8736 147.714 38.5371 147.707 38.2005C147.7 37.864 147.816 37.5206 147.809 37.1841C147.809 36.875 147.653 36.5591 147.659 36.25C147.666 35.9409 147.857 35.6319 147.87 35.3228C147.884 35.0137 147.925 34.6978 147.932 34.3887C147.939 34.0797 147.925 33.7569 147.905 33.4478C147.884 33.1387 147.693 32.8434 147.653 32.5343C147.605 32.2047 147.721 31.8613 147.687 31.5316C147.653 31.2019 147.659 30.8723 147.639 30.5426C147.619 30.2129 147.455 29.8901 147.441 29.5604C147.428 29.2308 147.414 28.9011 147.414 28.5646C147.414 28.228 147.394 27.9052 147.394 27.5687C147.394 27.2321 147.537 26.9093 147.544 26.5797C147.55 26.25 147.544 25.9203 147.557 25.5907C147.571 25.261 147.367 24.9176 147.38 24.5879C147.394 24.2582 147.407 23.9286 147.421 23.5989C147.435 23.2692 147.482 22.9396 147.496 22.6099C147.51 22.2733 147.51 21.9368 147.516 21.6003C147.523 21.2637 147.612 20.9272 147.612 20.5907C147.612 20.2541 147.7 19.9176 147.7 19.581C147.7 19.2445 147.666 18.908 147.659 18.5714C147.653 18.2349 147.564 17.8984 147.544 17.5618C147.523 17.2253 147.544 16.8887 147.516 16.5522C147.489 16.2157 147.537 15.8723 147.503 15.5357C147.469 15.1992 147.387 14.8695 147.36 14.533C147.333 14.1964 147.217 13.8668 147.183 13.5371C147.149 13.2074 147.081 12.8709 147.046 12.5343C147.012 12.1978 147.074 11.8544 147.046 11.5179C147.019 11.1813 146.972 10.8448 146.944 10.5082C146.917 10.1717 146.835 9.84203 146.808 9.50549C146.781 9.16896 146.897 8.81868 146.876 8.48901C146.856 8.15934 146.91 7.81593 146.89 7.4794C146.869 7.14286 146.624 6.81319 146.617 6.47665C146.617 6.33929 146.658 6.20879 146.638 6.0783C146.583 5.69368 146.604 5.31593 146.515 4.98626C146.413 4.60852 146.338 4.2239 146.175 3.92857C145.991 3.5989 145.678 3.35165 145.412 3.11813C145.147 2.88462 144.806 2.77473 144.452 2.63049C144.145 2.50687 143.825 2.29396 143.444 2.22527C143.097 2.16346 142.729 2.23214 142.382 2.1772C142.034 2.12225 141.694 2.01923 141.347 1.95742C140.999 1.8956 140.659 1.77198 140.311 1.71703C139.964 1.66209 139.624 1.53846 139.276 1.49038C138.929 1.44231 138.555 1.60714 138.2 1.5728C137.846 1.53846 137.513 1.32555 137.165 1.29808C136.818 1.2706 136.457 1.31181 136.103 1.29808C135.769 1.28434 135.429 1.28434 135.095 1.2706C134.761 1.25687 134.421 1.27747 134.087 1.2706C133.754 1.26374 133.413 1.31181 133.073 1.30494C132.732 1.29808 132.405 1.12637 132.065 1.11264C131.724 1.0989 131.39 1.20879 131.05 1.20192C130.709 1.19505 130.376 1.2294 130.042 1.21566C129.708 1.20192 129.375 1.09203 129.034 1.08516C128.694 1.0783 128.353 1.24313 128.02 1.2294C127.686 1.21566 127.352 1.03709 127.012 1.03022C126.671 1.02335 126.338 1.14011 125.997 1.12637C125.657 1.11264 125.323 1.04396 124.989 1.03709C124.655 1.03022 124.315 1.12637 123.974 1.11951C123.634 1.11264 123.307 0.906593 122.967 0.899725C122.626 0.892857 122.292 0.899725 121.959 0.899725C121.625 0.899725 121.285 0.982143 120.944 0.975275C120.604 0.968407 120.27 1.01648 119.929 1.00962C119.589 1.00275 119.262 0.81044 118.922 0.803571C118.567 0.796703 118.206 0.940934 117.852 0.934066C117.498 0.927198 117.144 0.947802 116.783 0.940934C116.422 0.934066 116.075 0.824176 115.721 0.824176C115.367 0.824176 115.013 0.728022 114.652 0.721154C114.291 0.714286 113.937 0.879121 113.583 0.872253C113.228 0.865385 112.868 0.899725 112.513 0.892857C112.159 0.885989 111.805 0.872253 111.444 0.858516C111.083 0.84478 110.736 0.714286 110.382 0.707418C110.028 0.700549 109.674 0.638736 109.32 0.625C108.979 0.611264 108.625 0.796703 108.284 0.782967C107.944 0.769231 107.61 0.51511 107.263 0.494505C106.916 0.473901 106.575 0.432692 106.235 0.418956C105.894 0.40522 105.54 0.501374 105.2 0.480769C104.859 0.460165 104.512 0.480769 104.171 0.460165C103.831 0.43956 103.483 0.460165 103.143 0.43956C102.802 0.418956 102.455 0.377747 102.115 0.357143C101.774 0.336538 101.427 0.398352 101.08 0.377747C100.732 0.357143 100.399 0.274725 100.051 0.260989C99.7039 0.247253 99.3702 0.0412088 99.0297 0.0343407C98.6892 0.0274725 98.3351 0.199176 97.9946 0.18544C97.6541 0.171703 97.3068 0.144231 96.9663 0.137363C96.6258 0.137363 96.2853 0.199176 95.9448 0.192308C95.6044 0.18544 95.2639 0.206044 94.9234 0.206044C94.5829 0.206044 94.2424 0.0480769 93.9019 0.0412088C93.5614 0.0343407 93.1732 0 92.8327 0C92.4922 0 92.1517 0.151099 91.8112 0.151099C91.4707 0.151099 91.1302 0.0480769 90.7897 0.0480769C90.4492 0.0480769 90.1087 0.18544 89.7683 0.192308C89.4278 0.199176 89.0873 0.0343407 88.7468 0.0412088C88.4063 0.0480769 88.0658 0.144231 87.7253 0.151099C87.3848 0.157967 87.0443 0.0618132 86.7038 0.0686813C86.3633 0.0755495 86.0296 0.350275 85.6891 0.364011C85.3486 0.377747 85.0013 0.164835 84.6608 0.178571C84.3203 0.192308 83.9866 0.418956 83.6461 0.432692C83.3056 0.446429 82.9651 0.350275 82.6246 0.364011C82.2841 0.377747 81.9437 0.377747 81.6032 0.391484C81.2627 0.40522 80.929 0.473901 80.5885 0.487637C80.248 0.501374 79.9007 0.336538 79.5602 0.357143C79.2197 0.377747 78.8792 0.357143 78.5387 0.384615C78.1982 0.412088 77.8645 0.467033 77.524 0.487637C77.1835 0.508242 76.8498 0.570055 76.5093 0.590659C76.1688 0.611264 75.8352 0.666209 75.4947 0.686813C75.1405 0.707418 74.7796 0.638736 74.4255 0.659341C74.0714 0.679945 73.7173 0.796703 73.3632 0.803571C73.009 0.81044 72.6481 0.693681 72.294 0.700549C71.9399 0.707418 71.5858 0.700549 71.2317 0.700549C70.8775 0.700549 70.5234 0.831044 70.1693 0.831044C69.8152 0.831044 69.4611 0.817308 69.107 0.81044C68.7528 0.803571 68.3987 0.947802 68.0446 0.947802C67.6905 0.947802 67.3364 0.947802 66.9754 0.947802C66.6145 0.947802 66.2672 0.934066 65.9063 0.947802C65.5794 0.95467 65.2525 0.872253 64.9257 0.879121C64.5988 0.885989 64.2719 0.755494 63.945 0.762363C63.6182 0.769231 63.2981 0.885989 62.9712 0.892857C62.6443 0.899725 62.3175 0.975275 61.9906 0.975275C61.6637 0.975275 61.3368 0.892857 61.01 0.892857C60.6831 0.892857 60.3562 0.968407 60.0293 0.968407C59.7025 0.968407 59.3756 0.837912 59.0487 0.837912C58.7218 0.837912 58.3949 1.03709 58.0681 1.03709C57.7412 1.03709 57.4143 1.08516 57.0874 1.08516C56.7606 1.08516 56.4337 0.906593 56.1068 0.906593C55.7595 0.906593 55.4122 1.0783 55.0649 1.0783C54.7176 1.0783 54.3703 1.02335 54.023 1.02335C53.6757 1.02335 53.3284 0.906593 52.9811 0.906593C52.6338 0.906593 52.2864 0.995879 51.9391 0.989011C51.5918 0.982143 51.2445 0.872253 50.8972 0.865385C50.5499 0.858516 50.2026 1.05082 49.8553 1.05082C49.508 1.05082 49.1607 0.927198 48.8134 0.92033C48.4661 0.913462 48.1188 0.982143 47.7715 0.982143C47.4242 0.982143 47.0769 0.961538 46.7296 0.961538C46.3823 0.961538 46.0349 1.02335 45.6876 1.01648C45.3403 1.00962 44.993 0.968407 44.6457 0.961538C44.2984 0.95467 43.9511 1.00962 43.6038 1.00962C43.2565 1.00962 42.9092 0.934066 42.5619 0.927198C42.2146 0.92033 41.8673 0.755495 41.52 0.748626C41.2135 0.748626 40.8866 0.968407 40.5598 0.961538C40.2329 0.95467 39.9333 0.666209 39.6132 0.652472C39.2931 0.638736 38.9731 0.652473 38.6598 0.625C38.3465 0.597528 38.0129 0.618132 37.7064 0.563187C37.4068 0.51511 37.0935 0.309066 36.7939 0.315934C36.4602 0.315934 36.1265 0.391483 35.7928 0.398352C35.4591 0.40522 35.1255 0.473901 34.7918 0.480769C34.4581 0.487637 34.1176 0.391483 33.7839 0.398352C33.4502 0.40522 33.1165 0.611264 32.7828 0.611264C32.4492 0.611264 32.1155 0.570055 31.775 0.576923C31.4345 0.583791 31.1008 0.391483 30.7671 0.398352C30.4334 0.40522 30.1065 0.679945 29.7729 0.693681C29.4392 0.707418 29.0987 0.576923 28.765 0.590659C28.4313 0.604396 28.0976 0.652473 27.7639 0.673077C27.4439 0.693681 27.117 0.714286 26.7969 0.741758C26.4769 0.769231 26.1636 0.892857 25.8435 0.927198C25.5235 0.961538 25.1762 0.73489 24.8493 0.769231C24.5224 0.803571 24.2296 1.0989 23.9095 1.13324C23.5894 1.16758 23.2558 1.11951 22.9357 1.14011C22.6156 1.16071 22.2819 1.02335 21.9619 1.03022C21.6418 1.03709 21.3217 1.04396 21.0017 1.04396C20.6816 1.04396 20.3615 1.09203 20.0347 1.06456C19.6669 1.03709 19.2992 1.27747 18.9247 1.28434C18.5773 1.28434 18.2369 1.28434 17.8964 1.29808C17.5559 1.31181 17.2017 1.26374 16.8612 1.29808C16.5208 1.33242 16.1666 1.32555 15.8261 1.37363C15.4856 1.4217 15.1724 1.65522 14.8319 1.71016C14.4914 1.76511 14.1305 1.68269 13.79 1.73077C13.4495 1.77885 13.1158 1.88187 12.7753 1.93681C12.4348 1.99176 12.1011 2.11538 11.7606 2.15659C11.4201 2.1978 11.0524 2.00549 10.7051 2.03297C10.3578 2.06044 10.0241 2.11538 9.67678 2.12912C9.32948 2.14286 8.98898 2.33516 8.64167 2.3283C8.36928 2.3283 8.10369 2.31456 7.82448 2.3489C7.54528 2.38324 7.24564 2.28022 6.98005 2.3489C6.60551 2.43819 6.26501 2.73352 5.88366 2.81593C5.5023 2.89835 5.09371 2.87088 4.71916 2.98077C4.34461 3.09066 4.02455 3.31731 3.67724 3.49588C3.36399 3.65385 3.03711 3.7706 2.7579 3.95604C2.4787 4.14148 2.12458 4.27885 1.87261 4.51236C1.62065 4.74588 1.54574 5.13049 1.34825 5.42582C1.15076 5.72115 0.755786 5.89286 0.633208 6.2294C0.524249 6.53846 0.544679 6.92308 0.497009 7.28709C0.45615 7.60989 0.537869 7.96016 0.551489 8.33104C0.565108 8.68132 0.388051 9.03159 0.39486 9.38187C0.40167 9.73214 0.626398 10.0755 0.619588 10.4258C0.612778 10.7761 0.544679 11.1264 0.531059 11.4698C0.517439 11.8132 0.46977 12.1635 0.44253 12.5137C0.41529 12.864 0.313141 13.2005 0.272282 13.544C0.231422 13.8874 0.265472 14.2445 0.210993 14.5879C0.170133 14.8489 0.251852 15.1168 0.265472 15.3915C0.279092 15.6662 0.190563 15.9341 0.197373 16.2019C0.197373 16.4698 0.340381 16.7239 0.354001 16.9918C0.367621 17.2596 0.183753 17.5206 0.170133 17.7885L0.197373 17.7816Z" fill="#E33500"/>
</svg>
