<svg width="300" height="93" viewBox="0 0 300 93" fill="none" xmlns="http://www.w3.org/2000/svg">
<path d="M226.154 2.67336C227.579 3.73405 231.662 7.9485 232.103 9.53797C232.511 11.0015 231.687 11.6877 232.996 13.2866C233.128 13.4471 233.516 13.3905 233.535 13.4156C233.992 14.1238 232.993 14.0955 232.946 14.1679C232.457 14.9075 233.62 17.095 233.723 17.8599C233.782 18.2848 233.35 18.4831 233.316 18.7821C233.272 19.1566 233.538 19.5091 233.516 19.7106C233.5 19.8459 231.727 21.5361 232.178 21.9862C232.529 22.3355 240.418 19.6445 241.649 19.3234C253.2 16.3019 265.29 13.5006 276.837 10.4224C283.006 8.77629 292.01 9.86531 296.057 15.3702C296.825 16.412 296.117 15.877 297.301 16.9251C297.921 17.4759 299.632 22.7447 299.604 23.7488C299.585 24.3688 299.14 27.2865 299.008 27.9349C298.902 28.4542 298.185 28.9011 298.141 29.4142C298.1 29.88 298.836 30.2829 298.783 31.0446C298.761 31.3625 297.765 33.1911 297.498 33.5688C292.542 40.6003 283.275 41.5634 275.274 43.4928C263.498 46.3318 251.518 49.218 239.954 52.6078C236.173 53.7157 231.715 54.7764 228.078 56.1739C220.007 59.2741 211.195 61.8928 202.742 64.628C196.013 66.806 188.98 68.9809 182.319 71.2125C178.181 72.6005 174.042 73.4755 170.013 74.5991C169.026 74.8761 167.347 76.5033 166.016 76.7898C162.322 77.5861 159.136 79.2574 156.094 79.8585C151.686 80.7304 146.68 82.1562 142.197 82.3765C137.955 82.5842 133.494 81.5645 129.471 80.3716C128.306 80.0253 122.864 75.4143 122.61 74.2057C122.522 73.7902 122.908 73.2331 122.836 73.1324C122.754 73.016 122.222 72.9971 122.052 72.7673C121.958 72.6383 122.059 71.9804 121.294 70.9009C120.862 70.2903 121.676 69.7237 119.634 69.9912C118.528 70.136 117.322 71.2188 116.153 71.6437C107.622 74.7282 98.5152 77.6144 90.5641 81.618C87.9231 82.9462 77.3152 86.3455 74.5677 86.1535C73.0326 86.0464 66.7168 83.3207 65.3979 82.2884C64.5802 81.6463 61.6698 78.2093 61.1372 77.3217C60.7142 76.6198 59.7587 73.0411 59.5426 73.0978C58.8565 73.2803 56.9548 74.6149 56.0244 75.0524C54.223 75.899 51.0713 76.8527 49.5582 77.7875C48.5494 78.4107 47.7223 79.613 46.2373 80.3149C38.8187 83.8086 31.0367 88.8792 23.1701 91.4475C16.7384 93.55 9.74272 92.184 4.73956 87.3149C4.07539 86.6696 3.82789 85.9331 3.53967 85.0896C3.32351 84.457 2.66874 81.1521 2.53716 80.9727C2.3022 80.6548 1.50645 80.6674 1.13991 80.296C0.773363 79.9246 0.381756 78.354 0.400553 77.7844C0.422483 77.1265 1.54718 72.0339 1.81974 71.3856C2.44004 69.9251 4.74582 66.1576 5.7452 65.0371C7.58419 62.9787 7.34922 63.86 9.16941 63.3407C9.94636 63.1172 10.3693 62.2359 11.1274 61.8676C12.296 61.3011 14.4984 61.0682 15.6544 60.5835C26.5191 56.048 36.043 48.9064 46.7323 44.1097C53.8846 40.8993 60.9993 37.4182 68.1328 34.0535C69.3672 33.4713 72.3591 31.6017 73.3553 31.3971C76.178 30.818 76.46 30.9124 79.2357 29.4929C90.091 23.9313 101.397 19.4714 112.901 14.5298C117.128 12.7138 121.181 10.8095 125.608 9.45299C128.522 8.55911 132.585 5.41165 135.63 4.08342C141.933 1.33884 148.224 1.11222 153.917 5.4085C155.192 6.37162 154.794 7.212 155.032 7.5236C155.129 7.64949 156.36 7.68726 156.893 8.23807C157.425 8.78887 157.263 9.4404 157.582 9.96288C157.767 10.265 158.318 10.2808 158.519 10.7403C159.402 12.7389 158.08 12.7452 158.086 12.8711C158.149 14.3567 159.246 13.9979 159.459 14.2969C160.48 15.7322 159.869 18.6184 159.944 20.2708C163.046 18.9772 166.251 17.8315 169.421 16.7236C181.436 12.5249 193.303 7.89814 205.534 3.63019C211.088 1.69135 212.075 0.485874 218.363 0.671574C218.538 0.677869 218.463 0.123916 218.726 0.0483765C219.775 -0.256927 224.302 0.957993 225.33 1.58748C225.816 1.88649 225.831 2.42786 226.151 2.66706L226.154 2.67336Z" fill="#E63500"/>
</svg>
