<svg width="41" height="59" viewBox="0 0 41 59" fill="none" xmlns="http://www.w3.org/2000/svg">
<path d="M40.9395 19.9533C40.9395 19.7657 40.9395 19.2833 39.2511 18.2649C38.849 18.0237 38.179 17.6484 37.4018 17.3536C38.0584 16.831 38.581 16.2816 38.8758 15.9198C40.1623 14.4323 40.0149 13.9633 39.9479 13.7891C39.8943 13.6015 39.7603 13.2263 38.1924 12.7975C37.71 12.6635 36.8122 12.4625 35.7803 12.4089C36.2359 11.712 36.5576 11.0152 36.7452 10.5864C37.509 8.77732 37.2142 8.37531 37.107 8.2279C36.9462 8.01349 36.6514 7.81249 35.5793 7.81249C34.8289 7.81249 33.7569 7.91969 32.7116 8.2011C32.9395 7.39707 33.0332 6.63324 33.0734 6.16423C33.2342 4.20775 32.8456 3.91294 32.6848 3.80574C32.5508 3.71194 32.3766 3.65833 32.1756 3.65833C31.4788 3.65833 29.8573 4.24796 28.5039 5.13239C28.4637 4.30156 28.3163 3.53773 28.2091 3.08211C27.7668 1.16584 27.2978 1.01844 27.1102 0.964835C27.0432 0.938034 26.9628 0.924634 26.8824 0.924634C26.3196 0.924634 25.4084 1.66166 24.9125 2.10388C24.5775 2.39869 24.0415 2.89451 23.5457 3.52433C23.2509 2.7471 22.8891 2.07708 22.6344 1.67506C21.616 1.59746e-07 21.1336 0 20.946 0C20.7584 0 20.276 1.59746e-07 19.2575 1.67506C19.0163 2.07708 18.6411 2.7471 18.3463 3.52433C17.2341 2.14408 15.6796 0.938034 15.0096 0.938034C14.9292 0.938034 14.8622 0.938034 14.7818 0.978236C14.6076 1.03184 14.1386 1.17924 13.6963 3.09551C13.5891 3.55113 13.4417 4.30156 13.4015 5.14579C12.0481 4.26136 10.4266 3.67174 9.72977 3.67174C9.51536 3.67174 9.35459 3.72534 9.22058 3.81914C9.07318 3.92634 8.67116 4.20775 8.84537 6.17763C8.88557 6.64664 8.97935 7.39707 9.19376 8.2145C8.16192 7.93309 7.08987 7.82589 6.33945 7.82589C5.26741 7.82589 4.97262 8.02689 4.81181 8.2413C4.70461 8.38871 4.40978 8.79072 5.17361 10.5998C5.36122 11.0286 5.68283 11.7254 6.13845 12.4223C5.10661 12.4625 4.20879 12.6769 3.72637 12.7975C2.15852 13.2263 2.03791 13.6149 1.97091 13.7891C1.91731 13.9633 1.75649 14.4323 3.04294 15.9198C3.35115 16.2816 3.87377 16.831 4.517 17.3536C3.73977 17.6484 3.06974 18.0237 2.66772 18.2649C0.979261 19.2833 0.979248 19.7791 0.979248 19.9667C0.979248 20.1543 0.979261 20.6368 2.66772 21.6552C3.06974 21.8964 3.73977 22.2716 4.517 22.5664C3.86037 23.089 3.33775 23.6519 3.04294 24.0003C1.75649 25.4877 1.91731 25.9568 1.97091 26.131C2.03791 26.3186 2.15852 26.7072 3.72637 27.1226C4.20879 27.2566 5.10661 27.4576 6.13845 27.5112C5.68283 28.208 5.36122 28.9049 5.17361 29.3337C4.40978 31.1427 4.70461 31.5448 4.81181 31.6922C4.97262 31.9066 5.26741 32.1076 6.33945 32.1076C7.08987 32.1076 8.16193 32.0004 9.20717 31.719C8.99276 32.523 8.89897 33.2868 8.84537 33.7558C8.68457 35.7123 9.07315 36.0071 9.23396 36.1143C9.36796 36.2081 9.54217 36.2617 9.74318 36.2617C10.44 36.2617 12.0615 35.6587 13.4149 34.7877C13.4551 35.6185 13.6025 36.3689 13.7097 36.838C14.1519 38.7542 14.6209 38.9016 14.7952 38.9552C14.8622 38.982 14.9426 38.9954 15.023 38.9954C15.5858 38.9954 16.497 38.2584 17.0063 37.8162C17.3413 37.5214 17.8639 37.0256 18.3731 36.4091C18.6679 37.1864 19.0297 37.8564 19.2843 38.2584C20.3028 39.9335 20.7986 39.9335 20.9728 39.9335C21.147 39.9335 21.6428 39.9335 22.6613 38.2584C22.9025 37.8564 23.2777 37.1864 23.5725 36.4091C24.6847 37.7894 26.2392 38.9954 26.9092 38.9954C26.9896 38.9954 27.0566 38.9954 27.137 38.9552C27.3112 38.9016 27.7803 38.7408 28.2225 36.838C28.3297 36.3823 28.4771 35.6319 28.5173 34.7877C29.8707 35.6721 31.4922 36.2617 32.189 36.2617C32.4034 36.2617 32.5642 36.2081 32.6982 36.1143C32.8456 36.0071 33.2477 35.7123 33.0734 33.7558C33.0332 33.2868 32.9394 32.523 32.725 31.719C33.7569 32.0004 34.8289 32.1076 35.5793 32.1076C36.6514 32.1076 36.9462 31.9066 37.107 31.6922C37.2142 31.5448 37.509 31.1427 36.7452 29.3337C36.5576 28.9049 36.2359 28.208 35.7803 27.5112C36.8122 27.4576 37.71 27.2566 38.1924 27.1226C39.7603 26.6938 39.8809 26.3052 39.9479 26.131C40.0015 25.9568 40.1623 25.4877 38.8758 24.0003C38.5676 23.6385 38.045 23.089 37.4018 22.5664C38.179 22.2716 38.849 21.9098 39.2511 21.6552C40.9395 20.6368 40.9395 20.1409 40.9395 19.9667M10.3328 27.1896H10.239C9.87718 26.6536 9.55557 26.0774 9.27416 25.4877H10.3462V27.1896H10.3328ZM10.3328 24.6301H8.89894C8.68454 24.0807 8.51035 23.5045 8.37635 22.9282H10.3328V24.6301ZM10.3328 22.0706H8.20213C8.10833 21.5078 8.05473 20.945 8.04133 20.3687H10.3328V22.0706ZM10.3328 19.5111H8.04133C8.05473 18.9349 8.12174 18.3587 8.21555 17.8093H10.3328V19.5111ZM10.3328 16.9516H8.37635C8.51035 16.362 8.69795 15.7992 8.91236 15.2498H10.3328V16.9516ZM10.3328 14.3921H9.28757C9.56898 13.8025 9.89061 13.2263 10.2658 12.6903H10.3462V14.3921H10.3328ZM12.8923 29.7491H12.5037C12.0347 29.3471 11.5925 28.9049 11.1905 28.4358V28.0472H12.8923V29.7491ZM12.8923 27.1896H11.1905V25.4877H12.8923V27.1896ZM12.8923 24.6301H11.1905V22.9282H12.8923V24.6301ZM12.8923 22.0706H11.1905V20.3687H12.8923V22.0706ZM12.8923 19.5111H11.1905V17.8093H12.8923V19.5111ZM12.8923 16.9516H11.1905V15.2498H12.8923V16.9516ZM12.8923 14.3921H11.1905V12.6903H12.8923V14.3921ZM12.8923 11.846H11.1905V11.4842C11.6059 11.0018 12.0615 10.5462 12.5439 10.1442H12.9057V11.846H12.8923ZM15.4518 31.6654C14.8622 31.3839 14.2859 31.0623 13.7499 30.7005V30.5933H15.4518V31.6654ZM15.4518 29.7491H13.7499V28.0472H15.4518V29.7491ZM15.4518 27.1896H13.7499V25.4877H15.4518V27.1896ZM15.4518 24.6301H13.7499V22.9282H15.4518V24.6301ZM15.4518 22.0706H13.7499V20.3687H15.4518V22.0706ZM15.4518 19.5111H13.7499V17.8093H15.4518V19.5111ZM15.4518 16.9516H13.7499V15.2498H15.4518V16.9516ZM15.4518 14.3921H13.7499V12.6903H15.4518V14.3921ZM15.4518 11.846H13.7499V10.1442H15.4518V11.846ZM15.4518 9.28654H13.7499V9.20614C14.2859 8.84433 14.8622 8.50931 15.4518 8.2413V9.28654ZM18.0113 32.5632C17.4217 32.4292 16.8588 32.255 16.3094 32.0272V30.5933H18.0113V32.5632ZM18.0113 29.7491H16.3094V28.0472H18.0113V29.7491ZM18.0113 27.1896H16.3094V25.4877H18.0113V27.1896ZM18.0113 24.6301H16.3094V22.9282H18.0113V24.6301ZM18.0113 22.0706H16.3094V20.3687H18.0113V22.0706ZM18.0113 19.5111H16.3094V17.8093H18.0113V19.5111ZM18.0113 16.9516H16.3094V15.2498H18.0113V16.9516ZM18.0113 14.3921H16.3094V12.6903H18.0113V14.3921ZM18.0113 11.846H16.3094V10.1442H18.0113V11.846ZM18.0113 9.28654H16.3094V7.87949C16.8588 7.66508 17.4217 7.49087 18.0113 7.34347V9.28654ZM20.5708 32.8982C19.9946 32.8714 19.4183 32.8178 18.8689 32.7374V30.5933H20.5708V32.8982ZM20.5708 29.7491H18.8689V28.0472H20.5708V29.7491ZM20.5708 27.1896H18.8689V25.4877H20.5708V27.1896ZM20.5708 24.6301H18.8689V22.9282H20.5708V24.6301ZM20.5708 22.0706H18.8689V20.3687H20.5708V22.0706ZM20.5708 19.5111H18.8689V17.8093H20.5708V19.5111ZM20.5708 16.9516H18.8689V15.2498H20.5708V16.9516ZM20.5708 14.3921H18.8689V12.6903H20.5708V14.3921ZM20.5708 11.846H18.8689V10.1442H20.5708V11.846ZM20.5708 9.28654H18.8689V7.16926C19.4317 7.07546 19.9946 7.02186 20.5708 7.00846V9.28654ZM23.1303 32.7374C22.5808 32.8312 22.0046 32.8848 21.4284 32.8982V30.5933H23.1303V32.7374ZM23.1303 29.7491H21.4284V28.0472H23.1303V29.7491ZM23.1303 27.1896H21.4284V25.4877H23.1303V27.1896ZM23.1303 24.6301H21.4284V22.9282H23.1303V24.6301ZM23.1303 22.0706H21.4284V20.3687H23.1303V22.0706ZM23.1303 19.5111H21.4284V17.8093H23.1303V19.5111ZM23.1303 16.9516H21.4284V15.2498H23.1303V16.9516ZM23.1303 14.3921H21.4284V12.6903H23.1303V14.3921ZM23.1303 11.846H21.4284V10.1442H23.1303V11.846ZM23.1303 9.28654H21.4284V7.00846C22.0046 7.02186 22.5808 7.08886 23.1303 7.16926V9.28654ZM25.6898 32.0406C25.1403 32.255 24.5641 32.4292 23.9879 32.5766V30.6067H25.6898V32.0406ZM25.6898 29.7491H23.9879V28.0472H25.6898V29.7491ZM25.6898 27.1896H23.9879V25.4877H25.6898V27.1896ZM25.6898 24.6301H23.9879V22.9282H25.6898V24.6301ZM25.6898 22.0706H23.9879V20.3687H25.6898V22.0706ZM25.6898 19.5111H23.9879V17.8093H25.6898V19.5111ZM25.6898 16.9516H23.9879V15.2498H25.6898V16.9516ZM25.6898 14.3921H23.9879V12.6903H25.6898V14.3921ZM25.6898 11.846H23.9879V10.1442H25.6898V11.846ZM25.6898 9.28654H23.9879V7.34347C24.5775 7.47747 25.1403 7.65168 25.6898 7.87949V9.28654ZM28.2359 30.7005C27.6999 31.0623 27.1236 31.3974 26.534 31.6654V30.5933H28.2359V30.7005ZM28.2359 29.7491H26.534V28.0472H28.2359V29.7491ZM28.2359 27.1896H26.534V25.4877H28.2359V27.1896ZM28.2359 24.6301H26.534V22.9282H28.2359V24.6301ZM28.2359 22.0706H26.534V20.3687H28.2359V22.0706ZM28.2359 19.5111H26.534V17.8093H28.2359V19.5111ZM28.2359 16.9516H26.534V15.2498H28.2359V16.9516ZM28.2359 14.3921H26.534V12.6903H28.2359V14.3921ZM28.2359 11.846H26.534V10.1442H28.2359V11.846ZM28.2359 9.28654H26.534V8.2413C27.1236 8.52271 27.6999 8.84433 28.2359 9.20614V9.28654ZM31.653 12.6903H31.7334C32.0952 13.2263 32.4302 13.8025 32.7116 14.3921H31.653V12.6903ZM31.653 15.2498H33.0734C33.2879 15.7992 33.4621 16.3754 33.6095 16.9516H31.653V15.2498ZM31.653 17.8093H33.7703C33.8641 18.3721 33.9177 18.9349 33.9445 19.5111H31.653V17.8093ZM30.7953 28.4224C30.3933 28.8915 29.9511 29.3337 29.4821 29.7357H29.0935V28.0338H30.7953V28.4224ZM30.7953 27.1896H29.0935V25.4877H30.7953V27.1896ZM30.7953 24.6301H29.0935V22.9282H30.7953V24.6301ZM30.7953 22.0706H29.0935V20.3687H30.7953V22.0706ZM30.7953 19.5111H29.0935V17.8093H30.7953V19.5111ZM30.7953 16.9516H29.0935V15.2498H30.7953V16.9516ZM30.7953 14.3921H29.0935V12.6903H30.7953V14.3921ZM30.7953 11.846H29.0935V10.1442H29.4553C29.9377 10.5596 30.3799 11.0152 30.8088 11.4842V11.846H30.7953ZM31.7468 27.1896H31.653V25.4877H32.725C32.4436 26.0774 32.122 26.6536 31.7602 27.1896M33.0869 24.6301H31.653V22.9282H33.6095C33.4755 23.5179 33.3013 24.0807 33.0869 24.6301ZM33.7837 22.0706H31.653V20.3687H33.9445C33.9311 20.945 33.8641 21.5078 33.7837 22.0706Z" fill="#FFD400"/>
<path d="M14.5672 49.4339C17.9709 52.8376 18.4132 57.9164 17.8369 58.4926C17.2875 59.0421 12.1819 58.6266 8.77818 55.2229C5.37446 51.8192 5.13325 46.5394 5.50846 46.1642C5.92388 45.7488 11.1635 46.0302 14.5672 49.4339Z" fill="#FFD400"/>
<path d="M27.4318 49.4339C24.028 52.8376 23.5858 57.9164 24.162 58.4926C24.7115 59.0421 29.817 58.6266 33.2342 55.2229C36.6379 51.8192 36.8791 46.5394 36.5039 46.1642C36.0885 45.7488 30.8489 46.0302 27.4318 49.4339Z" fill="#FFD400"/>
<path d="M19.5254 40.7906V57.3268C19.5254 58.1443 20.182 58.8009 20.9994 58.8009C21.8168 58.8009 22.4735 58.1443 22.4735 57.3268V40.7772" fill="#FFD400"/>
</svg>
