<svg width="49" height="50" viewBox="0 0 49 50" fill="none" xmlns="http://www.w3.org/2000/svg">
<path d="M41.0108 2.11541C36.7625 0.0941838 31.3346 0.671987 27.8174 3.50179C25.002 5.753 22.931 10.5037 22.2961 12.0874C20.7471 11.3722 15.9791 9.34134 12.3865 9.63853C7.88653 9.99709 3.55003 13.3191 1.8444 17.6915C0.288824 21.6881 0.816374 26.4038 3.26641 30.305C6.80114 35.9713 13.4362 39.0568 19.4527 41.3399C20.3536 41.6805 21.2689 42.0154 22.1698 42.356C27.3114 44.2383 32.6136 46.1899 36.7185 49.5661C36.8676 49.6898 37.0599 49.7132 37.2323 49.6446C37.4047 49.576 37.5228 49.4126 37.5518 49.2347C38.217 43.9615 40.7308 38.9015 43.1754 34.0023C43.6107 33.1303 44.046 32.2583 44.4669 31.392C47.2722 25.6005 49.9761 18.801 48.654 12.2547C47.7414 7.74215 44.8862 3.95213 41.0252 2.1097" fill="#FF8A95"/>
</svg>
