<svg width="89" height="96" viewBox="0 0 89 96" fill="none" xmlns="http://www.w3.org/2000/svg">
<path d="M52.4171 27.9326C52.4171 27.9326 45.7082 17.4417 30.465 22.5167C30.465 22.5167 9.76048 26.847 9.96704 55.082C9.96704 55.082 7.07672 71.8056 28.9555 83.0112C28.9555 83.0112 52.3711 92.0736 63.7904 78.3087C63.7904 78.3087 80.137 62.0702 75.1406 44.3249C75.1406 44.3249 69.6391 27.0002 52.4171 27.9326Z" fill="#E63500"/>
<path d="M49.4694 26.1757C49.4694 26.1757 54.4494 15.3717 57.3465 15.0783C57.3465 15.0783 59.6714 14.495 60.7161 16.0402C60.7724 16.1304 60.8409 16.2482 60.8896 16.3583C61.8006 18.308 59.6242 18.0361 59.6242 18.0361L58.5322 18.6174L56.9622 20.6108L55.0747 23.8959L52.5651 28.7884" fill="#E63500"/>
<path d="M58.3831 22.8944C58.3831 22.8944 70.2852 11.3014 83.2685 23.1483C83.2685 23.1483 63.3723 37.5339 58.3831 22.8944Z" fill="#E63500"/>
</svg>
