<svg width="45" height="34" viewBox="0 0 45 34" fill="none" xmlns="http://www.w3.org/2000/svg">
<path d="M41.9134 4.52063C34.6608 -1.13757 24.5229 1.56508 24.5229 1.56508C24.5229 1.56508 25.6048 5.73168 23.2896 8.68957C22.8391 9.27312 22.335 9.77319 21.825 10.2181L14.3945 3.7314L15.5244 7.51367C15.5898 7.70741 15.5106 7.90547 15.3437 8.01257C15.1767 8.11966 14.9636 8.10904 14.8148 7.96885L11.8483 5.36462L14.6455 14.8233C14.0284 15.1012 13.3637 15.3508 12.6454 15.517C8.97068 16.4012 5.65566 13.667 5.65566 13.667C5.65566 13.667 -1.0284 21.7543 1.08996 30.7057C1.71157 33.2822 2.0939 33.8324 2.0939 33.8324C2.0939 33.8324 3.2928 29.823 6.8672 28.0016C9.41461 26.6917 12.1206 27.6956 12.1206 27.6956C12.1206 27.6956 13.6124 24.2348 16.6367 22.7958C20.126 21.1173 25.4847 24.1902 25.8659 24.4171C25.8321 23.9969 25.2737 17.8449 28.2409 15.3525C30.8234 13.2247 34.5776 13.2911 34.5776 13.2911C34.5776 13.2911 34.7936 10.413 37.0465 8.64395C40.1717 6.16809 44.3366 6.73694 44.3366 6.73694C44.3366 6.73694 44.0169 6.14665 41.9134 4.52063Z" fill="#082C4C"/>
</svg>
