<svg width="84" height="82" viewBox="0 0 84 82" fill="none" xmlns="http://www.w3.org/2000/svg">
<path d="M54.8019 27.2641C57.5063 18.7078 54.5253 13.0194 52.6917 10.5642L49.624 14.4387L49.2116 9.75783C46.1844 10.8724 40.9151 13.9206 38.342 22.0616C34.6159 33.8505 41.6742 40.1589 41.6742 40.1589C41.6742 40.1589 51.0806 39.0381 54.8019 27.2641Z" fill="#FF8A95"/>
<path d="M19.8348 47.9519C12.6042 53.2834 11.6902 59.6328 11.7285 62.7112L16.4884 61.3776L14.0725 65.4092C17.1702 66.2904 23.23 66.9336 30.1006 61.8634C40.0394 54.5173 38.0405 45.2574 38.0405 45.2574C38.0405 45.2574 29.7836 40.6253 19.8301 47.9667" fill="#FF8A95"/>
<path d="M38.0095 41.382C38.0095 41.382 39.8563 32.0817 29.794 24.9054C22.4919 19.678 16.1593 20.7753 13.2578 21.7503L16.0026 25.8635L11.4267 24.8087C11.5508 28.0284 12.8145 33.9896 19.7583 38.957C29.8159 46.1482 38.0095 41.382 38.0095 41.382Z" fill="#FF8A95"/>
<path d="M41.7079 46.3999C41.7079 46.3999 34.7503 52.8289 38.6616 64.5526C41.5147 73.0711 47.2547 75.9129 50.1955 76.8261L50.4036 71.8846L53.4787 75.4173C55.2715 72.7382 57.7471 67.176 55.0532 59.0829C51.1419 47.3592 41.7079 46.3999 41.7079 46.3999Z" fill="#FF8A95"/>
<path d="M70.8738 42.8803L75.1882 41.0471C73.2009 38.5107 68.6663 34.4352 60.1289 34.5096C47.7653 34.6142 43.9362 43.2715 43.9362 43.2715C43.9362 43.2715 47.9022 51.881 60.2658 51.7764C69.2411 51.7099 73.7287 47.1099 75.4995 44.6033L70.8738 42.8803Z" fill="#FF8A95"/>
</svg>
