<svg width="121" height="78" viewBox="0 0 121 78" fill="none" xmlns="http://www.w3.org/2000/svg">
<path d="M35.1607 48.72C27.1944 48.72 20.759 55.1812 20.759 63.1216C20.759 71.062 27.2203 77.5233 35.1607 77.5233C43.1011 77.5233 49.5624 71.088 49.5624 63.1216C49.5624 55.1553 43.1011 48.72 35.1607 48.72ZM35.1607 68.1557C32.3842 68.1557 30.1266 65.8982 30.1266 63.1216C30.1266 60.3451 32.3842 58.0875 35.1607 58.0875C37.9373 58.0875 40.1948 60.3451 40.1948 63.1216C40.1948 65.8982 37.9373 68.1557 35.1607 68.1557Z" fill="#0096D8"/>
<path d="M93.8575 48.72C85.8912 48.72 79.4558 55.1812 79.4558 63.1216C79.4558 71.062 85.9171 77.5233 93.8575 77.5233C101.798 77.5233 108.259 71.088 108.259 63.1216C108.259 55.1553 101.798 48.72 93.8575 48.72ZM93.8575 68.1557C91.081 68.1557 88.8234 65.8982 88.8234 63.1216C88.8234 60.3451 91.081 58.0875 93.8575 58.0875C96.634 58.0875 98.8916 60.3451 98.8916 63.1216C98.8916 65.8982 96.634 68.1557 93.8575 68.1557Z" fill="#0096D8"/>
<path d="M114.746 7.95402C114.746 0.117432 104.6 0.584523 104.6 0.584523H48.1353C43.9835 0.584523 41.7519 2.08955 40.5323 3.59459L39.9614 4.39902C39.8317 4.60661 26.935 28.0126 26.935 28.0126L7.60305 32.398C2.07592 32.398 0 39.5339 0 39.5339V56.5824C0 65.7943 5.9942 66.0278 5.9942 66.0278H18.8909C18.7611 65.1974 18.7092 64.3411 18.7092 63.4848C18.7092 54.3767 26.0787 47.0332 35.1868 47.0332C44.2949 47.0332 51.6644 54.4027 51.6644 63.4848C51.6644 64.3411 51.5865 65.1974 51.4568 66.0278H77.6133C77.4836 65.1974 77.4057 64.3411 77.4057 63.4848C77.4057 54.3767 84.7753 47.0332 93.8833 47.0332C102.991 47.0332 110.361 54.4027 110.361 63.4848C110.361 64.3411 110.283 65.1974 110.153 66.0278C119.858 65.95 121 60.2671 121 60.2671V32.8391L114.772 7.95402H114.746ZM56.6725 20.7469C56.6725 22.4335 54.7264 23.8088 52.3391 23.8088H33.5001L41.4924 9.17362H52.3391C54.7264 9.17362 56.6725 10.5489 56.6725 12.2356V20.7209V20.7469ZM99.644 21.0323C99.644 22.7449 97.9314 24.1202 95.8554 24.1202H77.8469C75.745 24.1202 74.0583 22.7449 74.0583 21.0323V12.547C74.0583 10.8344 75.745 9.45906 77.8469 9.45906H95.8554C97.9573 9.45906 99.644 10.8344 99.644 12.547V21.0323Z" fill="#0096D8"/>
</svg>
