<svg width="55" height="54" viewBox="0 0 55 54" fill="none" xmlns="http://www.w3.org/2000/svg">
<path d="M42.0564 41.1361L44.4904 41.2961L45.3505 40.1505L44.6565 38.9071L39.8079 38.5938L38.0896 36.6387L42.8355 36.9387L43.8639 35.5498L43.0235 34.0424L35.362 33.5479L31.9447 29.6442L32.7271 27.3354L37.8137 26.3138L44.1972 30.5792L45.7809 29.8934L45.8088 28.1654L41.8584 25.5182L44.4114 25.0106L48.4514 27.7097L49.7583 27.1445L49.7719 25.712L47.7423 24.3592L54.1341 23.0936L54.7654 21.4843L53.5574 20.2384L47.1656 21.504L48.5184 19.4744L47.9532 18.1675L46.5207 18.1538L43.8216 22.1939L41.2687 22.7015L43.9159 18.7511L43.2301 17.1673L41.5021 17.1394L37.2367 23.5228L32.1501 24.5445L30.5404 22.712L32.2031 17.8059L39.0811 14.4099L39.276 12.6956L37.7964 11.8081L33.5203 13.9195L34.3614 11.4376L38.7148 9.28804L38.8762 7.8627L37.6464 7.12419L35.4568 8.20531L37.5434 2.04865L36.4581 0.694151L34.7921 1.11622L32.7056 7.27289L31.6244 5.08328L30.1991 4.92196L29.4606 6.1517L31.6101 10.5051L30.769 12.987L28.6576 8.71088L26.9434 8.516L26.0559 9.99552L29.4519 16.8735L27.7891 21.7795L25.397 22.2558L21.9797 18.3521L22.4741 10.6906L21.0853 9.66225L19.5779 10.5027L19.2778 15.2486L17.5596 13.2935L17.8729 8.44484L16.7273 7.58472L15.4775 8.29796L15.3175 10.7319L11.0315 5.84738L9.31493 6.10216L8.83767 7.76361L13.1237 12.6481L10.6898 12.4882L9.82966 13.6338L10.5237 14.8771L15.353 15.1839L17.0713 17.139L12.3254 16.839L11.297 18.2279L12.1375 19.7354L19.7989 20.2299L23.2162 24.1335L22.4338 26.4423L17.3472 27.4639L10.9638 23.1985L9.38002 23.8844L9.3521 25.6123L13.3025 28.2595L10.7496 28.7671L6.72878 26.0745L5.42182 26.6397L5.40822 28.0722L7.43789 29.425L1.06526 30.6972L0.434045 32.3065L1.64197 33.5524L8.03386 32.2868L6.68106 34.3164L7.24626 35.6233L8.67873 35.6369L11.3713 31.6161L13.9242 31.1085L11.2769 35.0589L11.9628 36.6427L13.6908 36.6706L17.9562 30.2872L23.0428 29.2655L24.6525 31.098L22.9898 36.0041L16.1118 39.4001L15.9169 41.1144L17.3965 42.0019L21.6726 39.8905L20.838 42.3532L16.4846 44.5027L16.3232 45.9281L17.553 46.6666L19.7426 45.5854L17.656 51.7421L18.7221 53.0901L20.4073 52.6745L22.4938 46.5179L23.575 48.7075L25.0003 48.8688L25.7388 47.6391L23.5893 43.2856L24.4239 40.823L26.5353 45.0991L28.2495 45.294L29.1371 43.8145L25.741 36.9365L27.4037 32.0305L29.7959 31.5542L33.2132 35.4579L32.7188 43.1194L34.1076 44.1478L35.6151 43.3073L35.9151 38.5614L37.6334 40.5165L37.3265 45.3459L38.4721 46.2061L39.7154 45.5121L39.8754 43.0781L44.1807 47.9692L45.8972 47.7144L46.3745 46.0529L42.0884 41.1684L42.0564 41.1361ZM25.9166 24.9629L28.3988 24.4743L30.0724 26.3714L29.2573 28.7763L26.7752 29.2649L25.1016 27.3679L25.9101 24.9822L25.9166 24.9629Z" fill="white"/>
</svg>
