<svg width="60" height="61" viewBox="0 0 60 61" fill="none" xmlns="http://www.w3.org/2000/svg">
<path d="M30.2027 0.0509374C29.4088 0.0509374 28.6655 0.526349 28.3108 1.27343C28.3108 1.27343 20.9122 16.8432 20.0338 18.7109C18.0912 18.9995 1.82432 21.3596 1.82432 21.3596C1.03041 21.4784 0.371621 22.0557 0.118243 22.8707C0.0506752 23.0914 0.0168919 23.3291 0 23.5499C0 24.1441 0.202701 24.7214 0.624998 25.1459C0.624998 25.1459 12.2635 37.4217 13.6655 38.8819C13.3108 40.9364 10.3885 58.1021 10.3885 58.1021C10.3716 58.221 10.3547 58.3568 10.3547 58.4757C10.3547 59.1888 10.6588 59.851 11.1993 60.2755C11.8412 60.7848 12.7027 60.8527 13.4122 60.4622C13.4122 60.4622 28.0068 52.4821 29.7635 51.5143C31.5034 52.4991 45.9628 60.7339 45.9628 60.7339C46.6723 61.1414 47.5169 61.0735 48.1757 60.5811C48.7331 60.1566 49.0541 59.4944 49.0541 58.7813C49.0541 58.6624 49.0541 58.5266 49.0203 58.4078C49.0203 58.4078 46.3851 41.208 46.0811 39.1366C47.5 37.6934 59.3581 25.6213 59.3581 25.6213C59.7804 25.1968 60 24.6196 60 24.0253C60 23.7876 59.9662 23.5669 59.8987 23.3291C59.6622 22.5311 59.0034 21.9199 58.2095 21.801C58.2095 21.801 41.9932 19.1523 40.0507 18.8297C39.1892 16.945 32.0608 1.25645 32.0608 1.25645C31.7061 0.492391 30.9797 0 30.1858 0" fill="#FFD400"/>
</svg>
