<svg width="108" height="245" viewBox="0 0 108 245" fill="none" xmlns="http://www.w3.org/2000/svg">
<path d="M59.5438 181.129C59.8238 180.799 60.1038 180.459 60.3438 180.129C60.5838 179.799 60.9438 179.509 61.1638 179.159C61.3838 178.809 61.6838 178.469 61.8738 178.099C62.0638 177.729 61.9338 177.199 62.0938 176.819C62.2538 176.439 62.7138 176.149 62.8438 175.759C62.9738 175.369 62.8938 174.889 63.0038 174.489C63.1138 174.089 62.9538 173.629 63.0438 173.219C63.1338 172.809 63.5638 172.469 63.6238 172.049C63.6638 171.759 63.3838 171.359 63.0338 170.869C62.8238 170.579 62.5138 170.429 62.2638 170.009C62.0338 170.469 61.8238 170.769 61.6138 171.159C61.3638 171.609 60.9438 171.919 60.7438 172.309C60.5138 172.749 60.3738 173.219 60.2538 173.669C60.1438 174.089 60.0838 174.509 59.9438 174.909C59.8038 175.309 59.5138 175.649 59.3338 176.039C59.1538 176.429 59.2438 176.959 59.0338 177.329C58.8238 177.699 58.5938 178.079 58.3438 178.429C58.0938 178.779 57.6538 178.969 57.3638 179.289C57.0738 179.609 56.7638 179.869 56.4438 180.169C56.1238 180.469 55.7638 180.659 55.4238 180.919C55.0838 181.179 54.8938 181.619 54.5338 181.859C54.1838 182.089 53.8838 182.399 53.5938 182.729C53.3138 183.049 53.1738 183.469 52.9338 183.839C52.6938 184.209 52.1538 184.389 51.9438 184.769C51.7338 185.149 51.9038 185.739 51.7238 186.109C51.5238 186.519 51.3838 186.949 51.2038 187.369C51.0238 187.789 50.3938 188.019 50.2238 188.439C50.0538 188.859 50.0538 189.359 49.8838 189.789C49.7138 190.219 49.6238 190.669 49.4538 191.099C49.2838 191.529 49.2138 191.989 49.0338 192.409C48.8538 192.829 48.3338 193.099 48.1438 193.519C47.9538 193.939 47.9938 194.459 47.7938 194.869C47.5838 195.279 47.2838 195.629 47.0938 196.039C46.9038 196.449 46.7838 196.889 46.6138 197.309C46.4438 197.729 46.0638 198.079 45.9238 198.509C45.7838 198.939 46.0238 199.499 45.9038 199.929C45.7838 200.359 45.6238 200.789 45.5238 201.219C45.4238 201.649 45.0238 202.049 44.9438 202.489C44.8638 202.929 44.7638 203.389 44.7238 203.839C44.6838 204.289 44.7938 204.759 44.7738 205.209C44.7538 205.659 44.7238 206.119 44.7438 206.569C44.7638 207.019 44.9938 207.459 45.0338 207.909C45.0738 208.359 45.1838 208.789 45.2538 209.239C45.3238 209.689 45.2038 210.169 45.3138 210.609C45.4138 211.039 45.5838 211.459 45.6838 211.889C45.7838 212.319 46.0838 212.709 46.1738 213.139C46.2638 213.569 46.4238 213.989 46.5238 214.429C46.6238 214.869 46.3338 215.379 46.4238 215.809C46.5138 216.239 46.5938 216.679 46.6838 217.109C46.7738 217.539 47.1838 217.909 47.2738 218.339C47.3638 218.769 47.2138 219.259 47.3138 219.689C47.4138 220.159 47.7138 220.559 47.7838 220.959C47.8638 221.449 47.9638 221.909 47.9838 222.299C48.0038 222.809 47.5738 223.199 47.4738 223.579C47.3538 224.029 47.2938 224.419 46.9738 224.739C46.6938 225.009 46.3138 225.179 45.8438 225.379C45.4838 225.539 45.1238 225.829 44.6438 225.959C44.2538 226.069 43.8338 226.219 43.3538 226.329C42.9038 226.429 42.4738 226.639 42.0238 226.729C41.5738 226.819 41.0738 226.619 40.6138 226.689C40.1538 226.759 39.7238 227.009 39.2638 227.059C38.8038 227.109 38.3238 226.769 37.8638 226.779C37.4038 226.789 36.9638 226.859 36.5038 226.829C36.0438 226.799 35.5738 226.979 35.1138 226.909C34.6538 226.839 34.1738 226.909 33.7138 226.789C33.2538 226.669 32.8338 226.439 32.4738 226.249C32.0738 226.039 31.8138 225.629 31.5138 225.319C31.2138 225.009 31.1638 224.569 30.9538 224.159C30.7738 223.789 30.5638 223.449 30.4438 222.989C30.3338 222.579 30.0238 222.219 29.9038 221.809C29.7838 221.399 29.5738 221.019 29.4538 220.609C29.3338 220.199 29.2338 219.789 29.1038 219.379C28.9738 218.969 28.7038 218.619 28.5638 218.219C28.4238 217.819 28.5938 217.299 28.4438 216.909C28.2938 216.519 28.2838 216.059 28.1238 215.659C27.9638 215.259 27.3538 215.049 27.1938 214.659C27.0238 214.259 27.0138 213.789 26.8738 213.379C26.7338 212.969 26.5138 212.579 26.3838 212.169C26.2538 211.759 26.2338 211.309 26.1238 210.889C26.0138 210.469 26.1638 209.989 26.0738 209.569C25.9838 209.149 25.5338 208.789 25.4638 208.369C25.3938 207.949 25.5138 207.479 25.4638 207.059C25.4138 206.639 25.1638 206.219 25.1238 205.789C25.0838 205.359 25.1938 204.909 25.1538 204.479C25.1138 204.049 25.3638 203.599 25.3438 203.169C25.3238 202.739 24.7938 202.329 24.7838 201.889C24.7738 201.429 24.8838 200.979 24.8538 200.529C24.8238 200.079 24.7438 199.629 24.6938 199.179C24.6438 198.729 24.9538 198.229 24.8938 197.779C24.8338 197.329 24.7638 196.869 24.6838 196.429C24.6038 195.989 24.5238 195.529 24.4338 195.079C24.3438 194.629 24.1938 194.199 24.0838 193.759C23.9738 193.319 23.9138 192.859 23.7938 192.419C23.6738 191.979 23.3338 191.609 23.2038 191.169C23.0738 190.729 22.9538 190.299 22.8038 189.869C22.6538 189.439 22.6238 188.969 22.4638 188.539C22.3038 188.129 22.0938 187.729 21.9438 187.319C21.7938 186.909 21.5338 186.519 21.4038 186.099C21.2738 185.679 21.1138 185.259 20.9838 184.829C20.8538 184.399 20.7338 183.979 20.6238 183.549C20.5138 183.119 20.2838 182.709 20.1938 182.279C20.1038 181.849 19.9538 181.419 19.8638 180.979C19.7738 180.539 20.1338 180.019 20.0538 179.589C19.9738 179.159 19.6838 178.749 19.6138 178.319C19.5438 177.889 19.7038 177.409 19.6438 176.969C19.5838 176.529 19.4238 176.109 19.3638 175.669C19.3038 175.229 19.0738 174.809 19.0338 174.369C18.9938 173.929 19.0338 173.479 19.0038 173.039C18.9638 172.599 18.7438 172.169 18.7038 171.729C18.6638 171.289 19.0638 170.809 19.0238 170.359C18.9838 169.909 18.4738 169.519 18.4338 169.079C18.3938 168.639 18.6938 168.169 18.6638 167.719C18.6338 167.269 18.7338 166.829 18.7038 166.389C18.6738 165.949 18.6338 165.509 18.6138 165.069C18.5938 164.629 18.1838 164.189 18.1838 163.749C18.1838 163.309 18.5538 162.869 18.5738 162.419C18.5938 161.969 18.2038 161.509 18.2338 161.069C18.2638 160.629 18.7438 160.229 18.8038 159.789C18.8638 159.349 18.9538 158.929 19.0338 158.489C19.1138 158.049 18.8138 157.539 18.9238 157.109C19.0338 156.679 19.5038 156.349 19.6338 155.929C19.7538 155.529 19.4538 154.989 19.5938 154.639C19.7538 154.259 20.2138 154.049 20.4838 153.759C20.7438 153.489 21.0138 153.209 21.4438 153.079C21.7738 152.979 21.9638 152.879 22.4338 152.869C22.1438 152.399 22.1138 152.039 21.9038 151.669C21.6338 151.209 21.2738 150.899 20.9838 150.549C20.6938 150.199 20.3438 149.899 20.0838 149.549C19.8238 149.199 19.6938 148.719 19.4638 148.349C19.2338 147.979 19.0538 147.549 18.8538 147.159C18.6538 146.769 18.6838 146.269 18.5238 145.859C18.3638 145.449 18.0838 145.089 17.9538 144.669C17.8238 144.249 17.5838 143.849 17.4938 143.419C17.4038 142.989 17.5638 142.519 17.5138 142.079C17.4638 141.639 17.1138 141.219 17.1138 140.769C17.1138 140.319 17.4838 139.909 17.5238 139.459C17.5638 139.009 17.4638 138.579 17.5338 138.129C17.6038 137.679 17.6138 137.249 17.7238 136.809C17.8338 136.389 18.1438 136.019 18.2138 135.609C18.2838 135.199 18.3838 134.739 18.3938 134.329C18.4038 133.919 18.0238 133.489 17.9838 133.069C17.9438 132.649 18.1038 132.199 17.9938 131.779C17.8838 131.359 17.5738 131.039 17.4038 130.639C17.2438 130.259 16.9738 129.949 16.7538 129.569C16.5038 129.149 16.5638 128.599 16.4438 128.169C16.3138 127.709 16.4138 127.269 16.4038 126.809C16.3938 126.349 15.9338 125.839 16.0338 125.379C16.1338 124.919 16.7138 124.609 16.8838 124.159C17.0538 123.709 17.2138 123.319 17.4338 122.899C17.6338 122.499 17.8238 122.079 18.0238 121.669C18.2238 121.259 18.3538 120.819 18.5438 120.409C18.7338 119.999 18.8638 119.559 19.0438 119.149C19.2238 118.739 19.1038 118.199 19.2738 117.779C19.4438 117.359 20.0438 117.109 20.2038 116.679C20.3638 116.249 20.2738 115.739 20.4238 115.319C20.5738 114.899 20.7138 114.459 20.8438 114.029C20.9738 113.599 20.9938 113.129 21.1038 112.699C21.2138 112.269 21.2838 111.819 21.3938 111.379C21.5038 110.939 21.7938 110.549 21.8838 110.099C21.9738 109.649 22.1338 109.229 22.2138 108.779C22.2938 108.329 22.1538 107.859 22.2138 107.409C22.2738 106.959 22.4138 106.529 22.4538 106.069C22.4938 105.649 22.6438 105.239 22.6638 104.809C22.6838 104.379 22.7138 103.969 22.7238 103.549C22.7338 103.129 22.6438 102.709 22.6538 102.289C22.6638 101.869 22.5538 101.449 22.5738 101.029C22.5938 100.609 22.4838 100.169 22.5238 99.7593C22.5738 99.2893 22.9038 98.9194 23.0138 98.5594C23.1538 98.1094 23.4238 97.8494 23.6638 97.5494C23.9338 97.2194 24.0238 96.6294 24.4338 96.4894C24.7938 96.3594 25.2738 96.4493 25.7438 96.4493C26.1238 96.4493 26.5638 96.4293 27.0138 96.5093C27.4338 96.5793 27.8738 96.5593 28.2938 96.6293C28.7138 96.6993 29.1238 96.8393 29.5538 96.9093C29.9838 96.9793 30.4138 96.9794 30.8338 97.0494C31.2538 97.1194 31.6638 97.2994 32.0838 97.3694C32.5038 97.4394 32.9438 97.4194 33.3638 97.4894C33.7838 97.5594 34.1938 97.7494 34.6138 97.8094C35.0338 97.8694 35.4638 97.8894 35.8938 97.9594C36.3238 98.0294 36.6938 98.3893 37.1238 98.4493C37.5638 98.5093 38.0138 98.5394 38.4538 98.5894C38.8938 98.6394 39.3538 98.5594 39.8038 98.5594C40.2538 98.5594 40.6838 98.3594 41.1138 98.2994C41.5338 98.2394 41.9738 98.3294 42.4038 98.2994C42.8338 98.2694 43.2438 97.9893 43.6638 97.9693C44.0838 97.9493 44.5238 98.2293 44.9438 98.2293C45.3638 98.2293 45.7938 98.2594 46.2138 98.2794C46.6338 98.2994 47.0638 98.2394 47.4938 98.2794C47.9238 98.3194 48.3338 98.4394 48.7538 98.4894C49.1738 98.5394 49.5738 98.7593 49.9938 98.8193C50.4138 98.8793 50.8538 98.8194 51.2738 98.8694C51.6938 98.9194 52.1338 98.8693 52.5538 98.9093C52.9738 98.9493 53.4138 98.7794 53.8338 98.8094C54.2538 98.8394 54.6638 99.1593 55.0938 99.1693C55.5238 99.1793 55.9438 99.0594 56.3738 99.0594C56.8038 99.0594 57.2238 99.0193 57.6438 99.0093C58.0638 98.9993 58.4938 99.1093 58.9238 99.0993C59.3538 99.0893 59.7738 99.1193 60.2038 99.0993C60.6338 99.0793 61.0338 98.7393 61.4538 98.7193C61.8738 98.6993 62.3238 99.0093 62.7538 98.9693C63.1838 98.9293 63.5938 98.8394 64.0238 98.7994C64.4538 98.7594 64.8538 98.5994 65.2838 98.5494C65.7138 98.4994 66.1238 98.4593 66.5538 98.4093C66.9838 98.3593 67.4138 98.4093 67.8338 98.3493C68.2538 98.2893 68.6738 98.2394 69.0938 98.1794C69.5138 98.1194 69.9338 98.0594 70.3538 97.9994C70.7738 97.9394 71.2038 97.9294 71.6238 97.8694C72.0438 97.8094 72.4438 97.5993 72.8638 97.5393C73.2938 97.4793 73.7238 97.4694 74.4138 97.3994C74.6438 97.7994 74.7938 98.2393 75.0338 98.6393C75.2738 99.0393 75.5638 99.3994 75.7938 99.7994C76.0238 100.199 76.2438 100.609 76.4638 101.019C76.6838 101.429 76.7138 101.909 76.8938 102.339C77.0538 102.729 77.5538 102.979 77.7238 103.369C77.8938 103.759 77.9038 104.229 78.0838 104.609C78.2638 104.989 78.7638 105.209 78.9638 105.589C79.1638 105.969 78.9338 106.569 79.1438 106.939C79.3538 107.309 79.6538 107.639 79.8738 107.999C80.0938 108.359 80.6038 108.549 80.8338 108.899C81.0638 109.249 81.2138 109.659 81.4538 110.009C81.6938 110.359 81.7038 110.879 81.9638 111.219C82.2238 111.559 82.6638 111.749 82.9338 112.079C83.2038 112.409 83.5938 112.629 83.8638 112.959C84.1338 113.289 84.4038 113.599 84.6938 113.919C84.9838 114.239 85.1738 114.629 85.4738 114.929C85.7438 115.209 85.7738 115.689 86.0338 115.989C86.2938 116.289 86.7238 116.419 86.9838 116.709C87.3038 117.059 87.5938 117.409 87.7838 117.779C88.0038 118.199 88.0238 118.649 88.0638 119.069C88.1038 119.489 87.9538 119.879 87.8138 120.309C87.6838 120.699 87.5138 121.039 87.2138 121.419C86.9538 121.759 86.9238 122.229 86.7638 122.559C86.5838 122.939 86.6738 123.349 86.6038 123.719C86.5338 124.089 86.3238 124.459 86.3438 124.859C86.3638 125.259 86.2438 125.679 86.3438 126.069C86.4338 126.449 86.9038 126.709 87.0438 127.099C87.2038 127.539 87.0638 128.079 87.2238 128.519C87.3838 128.959 87.6738 129.339 87.8438 129.779C88.0138 130.219 88.3238 130.589 88.4838 131.029C88.6438 131.469 88.4338 132.049 88.5938 132.479C88.7538 132.909 88.8838 133.369 89.0638 133.799C89.2338 134.229 89.7738 134.519 89.8638 134.939C89.9538 135.379 89.9238 135.869 89.9038 136.299C89.8838 136.729 89.7038 137.169 89.5538 137.589C89.4138 137.989 89.4038 138.509 89.1438 138.899C88.9038 139.249 88.6238 139.529 88.4438 139.889C88.2538 140.259 87.9838 140.579 87.8438 140.959C87.7038 141.339 87.7138 141.759 87.6338 142.159C87.5538 142.559 87.1538 142.929 87.1338 143.339C87.1138 143.749 87.4938 144.159 87.5238 144.569C87.5538 144.979 87.5938 145.359 87.6538 145.769C87.7138 146.179 87.4038 146.639 87.5038 147.049C87.6038 147.459 87.7538 147.829 87.8738 148.239C87.9938 148.659 88.0338 149.089 88.1538 149.509C88.2738 149.929 88.3538 150.349 88.4638 150.769C88.5738 151.189 88.9438 151.529 89.0538 151.949C89.1638 152.369 89.5238 152.719 89.6338 153.129C89.7438 153.539 89.8738 153.959 89.9838 154.379C90.0938 154.799 90.0638 155.249 90.1738 155.669C90.2838 156.089 90.2038 156.549 90.3138 156.969C90.4238 157.389 90.3938 157.839 90.4938 158.259C90.5938 158.679 90.8838 159.049 90.9938 159.469C91.1038 159.889 91.1038 160.329 91.2038 160.749C91.3038 161.169 91.3438 161.599 91.4438 162.019C91.5438 162.439 91.9438 162.789 92.0438 163.209C92.1438 163.629 92.1538 164.069 92.2438 164.489C92.3338 164.909 92.2338 165.379 92.3238 165.799C92.4138 166.219 92.4538 166.649 92.5338 167.079C92.6138 167.509 92.8838 167.889 92.9738 168.309C93.0638 168.729 93.2838 169.129 93.3638 169.559C93.4438 169.989 93.4538 170.419 93.5338 170.849C93.6138 171.279 93.4038 171.749 93.4738 172.169C93.5438 172.589 94.0738 172.949 94.1438 173.369C94.2138 173.819 93.8138 174.329 93.8738 174.779C93.9338 175.229 94.0338 175.669 94.0638 176.119C94.0938 176.569 94.3338 177.009 94.3538 177.459C94.3738 177.909 94.3538 178.369 94.3738 178.819C94.3938 179.269 94.5838 179.719 94.5838 180.179C94.5838 180.639 94.3238 181.079 94.3138 181.539C94.3038 181.999 94.3738 182.449 94.3638 182.899C94.3538 183.349 94.4138 183.809 94.3938 184.259C94.3738 184.709 94.3938 185.169 94.3838 185.619C94.3738 186.069 94.1138 186.519 94.0938 186.969C94.0738 187.419 94.2038 187.879 94.1838 188.339C94.1638 188.799 94.0538 189.239 94.0338 189.689C94.0138 190.129 93.8438 190.549 93.8138 190.989C93.7838 191.429 93.7638 191.859 93.7438 192.289C93.7238 192.719 93.8338 193.169 93.7938 193.599C93.7538 194.029 93.9338 194.489 93.8938 194.919C93.8538 195.349 93.6538 195.779 93.6138 196.209C93.5738 196.639 93.6138 197.089 93.5738 197.519C93.5338 197.949 93.4438 198.379 93.4038 198.819C93.3638 199.259 93.3738 199.689 93.3238 200.129C93.2738 200.569 93.0538 200.979 93.0138 201.409C92.9738 201.839 92.9938 202.279 92.9538 202.719C92.9138 203.159 92.9238 203.589 92.8738 204.029C92.8238 204.469 92.5238 204.869 92.4738 205.299C92.4238 205.729 92.3538 206.159 92.3038 206.599C92.2538 207.039 92.6538 207.509 92.6138 207.939C92.5738 208.369 92.4638 208.799 92.4238 209.229C92.3738 209.699 92.2338 210.159 92.1638 210.629C92.0938 211.099 92.0638 211.569 91.9838 212.029C91.9038 212.489 91.8038 212.949 91.7238 213.419C91.6438 213.889 91.7038 214.369 91.6238 214.839C91.5538 215.269 91.2738 215.649 91.1438 216.029C91.0038 216.439 90.9738 216.919 90.7538 217.259C90.5338 217.599 90.0338 217.759 89.7138 218.039C89.3938 218.319 89.2038 218.759 88.8138 218.969C88.4638 219.149 87.9738 219.069 87.5438 219.199C87.1438 219.319 86.8038 219.659 86.4038 219.769C86.0038 219.879 85.5238 219.679 85.1238 219.769C84.7238 219.859 84.3738 220.259 83.9638 220.329C83.5538 220.399 83.0838 220.099 82.6738 220.159C82.2638 220.219 81.8938 220.549 81.4738 220.589C81.0538 220.629 80.6338 220.489 80.2238 220.509C79.8138 220.529 79.4038 220.629 78.9838 220.639C78.5638 220.649 78.1438 220.899 77.7338 220.879C77.3138 220.859 76.9438 220.449 76.5638 220.379C76.1538 220.299 75.7138 220.389 75.3538 220.249C74.9738 220.099 74.5138 220.029 74.1838 219.799C73.8538 219.569 73.8438 218.989 73.5738 218.679C73.3238 218.389 72.9838 218.159 72.7838 217.789C72.6038 217.449 72.5438 217.049 72.4038 216.649C72.2538 216.229 71.9138 215.879 71.7738 215.459C71.6338 215.039 71.4138 214.639 71.2938 214.209C71.1738 213.779 71.1038 213.339 70.9938 212.909C70.8838 212.479 70.7838 212.039 70.6938 211.609C70.6038 211.179 70.5838 210.719 70.5138 210.289C70.4438 209.859 70.5138 209.389 70.4638 208.949C70.4138 208.509 70.1738 208.089 70.1438 207.639C70.1138 207.189 70.0538 206.749 70.0438 206.309C70.0338 205.869 70.3038 205.419 70.3138 204.979C70.3238 204.539 70.0438 204.079 70.0838 203.639C70.1238 203.199 70.1438 202.749 70.2038 202.309C70.2538 201.889 70.3938 201.509 70.4038 201.109C70.4138 200.689 70.2238 200.309 70.1838 199.909C70.1438 199.509 70.1438 199.109 70.0538 198.719C69.9638 198.329 70.0338 197.889 69.9038 197.499C69.7738 197.109 69.4338 196.829 69.2538 196.459C69.0738 196.089 69.1838 195.579 68.9638 195.229C68.7438 194.879 68.3438 194.669 68.1038 194.329C67.8538 193.979 67.7738 193.499 67.5238 193.149C67.2738 192.799 67.0238 192.449 66.7738 192.099C66.5238 191.749 66.2638 191.409 66.0138 191.049C65.7638 190.689 65.3938 190.429 65.1538 190.079C64.9138 189.729 64.7838 189.289 64.5438 188.929C64.3038 188.569 63.8638 188.349 63.6238 187.999C63.3838 187.649 62.9938 187.379 62.7538 187.029C62.5138 186.679 62.3638 186.249 62.1238 185.889C61.8838 185.529 61.5938 185.209 61.3538 184.849C61.1038 184.479 61.0038 184.009 60.7938 183.609C60.5838 183.209 60.4538 182.789 60.2638 182.379C60.0738 181.969 59.8338 181.569 59.6238 181.159L59.5438 181.129ZM47.6738 161.519C47.2338 161.489 46.8338 161.469 46.3938 161.449C45.9538 161.429 45.5238 161.259 45.0838 161.239C44.6438 161.219 44.2138 161.089 43.7738 161.059C43.3338 161.029 42.8738 161.349 42.4438 161.319C42.0138 161.289 41.5838 160.939 41.1438 160.909C40.7038 160.879 40.2538 161.069 39.8238 161.049C39.3938 161.029 38.9338 161.249 38.5038 161.219C38.0738 161.189 37.6438 160.799 37.2138 160.769C36.7838 160.739 36.3338 160.739 35.9038 160.719C35.4738 160.699 35.0138 160.889 34.5838 160.869C34.1538 160.849 33.7238 160.719 33.2838 160.689C32.7938 160.659 32.3538 160.439 31.9638 160.469C31.4538 160.499 31.0038 160.649 30.6538 160.799C30.2438 160.989 29.9438 161.349 29.7238 161.759C29.5538 162.089 29.2838 162.499 29.2138 162.999C29.1638 163.379 29.4638 163.839 29.4538 164.329C29.4538 164.759 29.4838 165.169 29.5338 165.579C29.5838 165.989 29.4238 166.459 29.5338 166.869C29.6438 167.279 29.7238 167.719 29.8738 168.109C30.0238 168.499 30.1438 168.949 30.3538 169.309C30.5638 169.669 31.0138 169.899 31.2838 170.229C31.5538 170.559 31.8438 170.849 32.1538 171.139C32.4638 171.429 32.8538 171.579 33.2038 171.839C33.5538 172.099 33.6838 172.639 34.0538 172.859C34.4238 173.079 34.9738 172.889 35.3638 173.069C35.7538 173.249 36.1338 173.329 36.5438 173.469C36.9538 173.609 37.2038 174.189 37.6238 174.299C38.0538 174.409 38.5238 174.299 38.9238 174.329C39.3638 174.369 39.7838 174.269 40.1838 174.209C40.6138 174.149 40.9538 173.929 41.3438 173.759C41.7338 173.589 42.2838 173.679 42.6138 173.399C42.9238 173.139 43.0238 172.639 43.2838 172.279C43.5338 171.919 43.8738 171.629 44.1038 171.259C44.3338 170.889 44.5038 170.479 44.7138 170.099C44.9238 169.719 45.3338 169.429 45.5138 169.039C45.6938 168.649 45.5138 168.079 45.6738 167.679C45.8338 167.279 46.0338 166.899 46.1838 166.479C46.3338 166.059 46.7738 165.759 46.9038 165.339C47.0338 164.919 47.2038 164.509 47.3138 164.089C47.4238 163.669 47.3938 163.209 47.4938 162.779C47.5938 162.349 47.5538 161.949 47.6438 161.509L47.6738 161.519ZM70.1838 161.969C69.8438 162.339 69.5838 162.679 69.3638 163.069C69.1238 163.499 68.8138 163.889 68.7038 164.329C68.5938 164.769 68.4338 165.279 68.4338 165.749C68.4338 166.219 68.8138 166.659 68.9038 167.129C68.9938 167.599 68.7838 168.119 68.9338 168.579C69.0638 168.999 69.4438 169.339 69.6538 169.739C69.8638 170.139 70.3038 170.339 70.5738 170.699C70.8438 171.059 70.8438 171.619 71.1638 171.939C71.4838 172.259 71.8338 172.529 72.1838 172.809C72.5338 173.089 73.0238 173.149 73.4038 173.389C73.7838 173.629 74.1238 173.909 74.5138 174.099C74.9038 174.289 75.2538 174.649 75.6738 174.799C76.0938 174.949 76.5538 175.019 76.9838 175.109C77.4138 175.199 77.8838 175.189 78.3238 175.219C78.8138 175.249 79.2738 175.399 79.7038 175.389C80.1938 175.369 80.6238 175.009 81.0438 174.939C81.5338 174.859 81.9338 174.729 82.3338 174.559C82.7738 174.369 83.2738 174.319 83.5938 174.009C83.9138 173.699 84.2538 173.339 84.4738 172.919C84.6738 172.539 84.9238 172.109 85.0438 171.629C85.1438 171.219 84.9838 170.709 85.0438 170.219C85.0938 169.789 85.0938 169.339 85.1038 168.849C85.1238 168.299 84.9738 167.749 84.9538 167.189C84.9338 166.629 85.2938 166.129 85.2538 165.739C85.1838 165.119 84.6938 164.859 84.4438 164.569C84.1738 164.269 83.9038 164.239 83.2838 164.169C82.9038 164.129 82.4638 163.629 81.8938 163.629C81.4538 163.629 81.0038 163.819 80.5638 163.809C80.1238 163.799 79.6738 163.879 79.2338 163.859C78.7938 163.839 78.3338 163.929 77.8938 163.899C77.4538 163.869 77.0438 163.449 76.6038 163.399C76.1638 163.349 75.6938 163.549 75.2538 163.479C74.8138 163.409 74.4038 163.209 73.9738 163.109C73.5438 163.009 73.1038 162.959 72.6738 162.839C72.2438 162.719 71.9038 162.359 71.4838 162.209C71.0638 162.059 70.5938 162.159 70.1838 161.979V161.969Z" fill="#007257"/>
<path d="M83.9938 31.9994C84.1138 32.2794 84.1838 32.6994 84.1938 33.2494C84.1938 33.6194 84.2238 34.0494 84.1838 34.5194C84.1538 34.9094 84.1838 35.3494 84.1338 35.8094C84.0738 36.2094 84.0438 36.6394 83.9638 37.0794C83.8938 37.4794 83.6738 37.8794 83.5938 38.3094C83.5138 38.7194 83.5438 39.1594 83.4438 39.5894C83.3438 40.0194 83.1938 40.3994 83.0938 40.8194C82.9938 41.2394 82.8538 41.6294 82.7438 42.0494C82.6338 42.4694 82.5738 42.8794 82.4638 43.2994C82.3538 43.7194 82.0938 44.0794 81.9838 44.4894C81.8738 44.8994 81.9538 45.3694 81.8338 45.7794C81.7138 46.1894 81.4938 46.5794 81.3738 46.9894C81.2538 47.3994 81.2338 47.8494 81.1138 48.2594C80.9938 48.6694 80.8638 49.0794 80.7338 49.4894C80.6038 49.8994 80.3238 50.2594 80.1838 50.6594C80.0438 51.0594 80.0238 51.5194 79.8838 51.9094C79.7338 52.3294 79.4538 52.6794 79.3138 53.0694C79.1638 53.4894 79.1238 53.9394 78.9738 54.3194C78.8038 54.7394 78.5338 55.0894 78.3838 55.4594C78.1938 55.8894 78.1738 56.3494 78.0038 56.6894C77.7738 57.1594 77.4138 57.4494 77.2238 57.7094C76.9538 58.0694 76.8438 58.5394 76.6138 58.9594C76.3838 59.3794 76.0538 59.7194 75.8738 60.1494C75.6938 60.5794 75.5038 61.0094 75.3538 61.4494C75.2038 61.8894 75.0838 62.3594 74.9638 62.7994C74.8338 63.2694 74.7838 63.7394 74.6838 64.1694C74.5638 64.6694 74.5138 65.1394 74.4338 65.5394C74.2838 66.3694 74.6638 66.3894 74.1138 66.8094C73.6038 67.1994 73.5438 67.0194 72.9338 67.2394C72.3238 67.4594 72.4038 67.8394 71.7538 67.7994C71.0538 67.7494 71.8038 67.2593 71.8738 66.3793C71.9038 65.9793 72.1038 65.5194 72.0938 64.9794C72.0938 64.5494 72.0338 64.0694 71.9838 63.5594C71.9338 63.1194 71.8938 62.6394 71.8038 62.1494C71.7138 61.7094 71.4438 61.3394 71.3138 60.8694C70.8538 60.4494 71.4038 61.1594 71.3138 62.0394C71.2738 62.3694 71.1638 62.7694 71.0838 63.2694C71.0238 63.6294 70.9938 64.0494 70.9138 64.4994C70.8438 64.8794 70.6638 65.2594 70.5638 65.6994C70.4838 66.0794 70.3938 66.4894 70.2938 66.9194C70.2038 67.2994 70.3138 67.7994 70.2038 68.2294C69.8938 68.5594 69.4038 68.7594 68.9938 68.9994C68.5838 69.2394 68.2238 69.5494 67.7938 69.7094C67.3638 69.8694 66.8738 69.9794 66.4438 70.0794C65.9538 70.1994 65.4538 70.0993 65.0438 70.1593C64.2338 70.2693 64.2438 70.7794 63.6638 70.4194C63.8338 70.1594 64.0538 69.7094 64.1838 69.2094C64.2838 68.8394 64.2538 68.3994 64.3238 67.9494C64.3938 67.5394 64.6438 67.1493 64.6938 66.7193C64.7438 66.2893 64.6838 65.8494 64.7238 65.4494C64.7638 64.9894 64.6938 64.5494 64.7238 64.1794C64.7738 63.4294 65.1338 63.5094 64.8538 62.9494C64.7938 63.3794 64.7438 63.7794 64.6638 64.1894C64.5838 64.6194 64.4338 65.0194 64.3338 65.4094C64.2238 65.8394 64.2638 66.2894 64.1338 66.6694C63.9938 67.0894 63.7338 67.4493 63.5838 67.8194C63.4138 68.2393 63.1338 68.5794 62.9638 68.9194C62.7538 69.3494 62.6038 69.7494 62.4238 70.0494C62.0238 70.7394 62.3738 70.8694 61.8238 71.1794C61.3938 71.2294 60.9338 71.1794 60.5238 71.2294C60.1138 71.2794 59.6738 71.4394 59.2638 71.4794C58.8538 71.5194 58.4038 71.5394 57.9838 71.5794C57.5638 71.6194 57.1138 71.4994 56.6938 71.5294C56.2738 71.5594 55.8438 71.8194 55.4338 71.8493C55.0238 71.8793 54.5538 71.6294 54.1438 71.6394C53.7338 71.6494 53.2838 71.7694 52.8638 71.7794C52.4238 71.7894 51.9938 71.7794 51.5838 71.7894C51.1438 71.7894 50.7138 71.9494 50.3038 71.9494C49.8638 71.9494 49.4438 71.6794 49.0338 71.6694C48.5938 71.6594 48.1738 71.6493 47.7638 71.6293C47.3238 71.6094 46.8938 71.5794 46.4938 71.5494C46.0438 71.5194 45.6138 71.5994 45.2138 71.5494C44.7638 71.5094 44.3438 71.4194 43.9438 71.3694C43.4938 71.3094 43.0838 71.1794 42.6938 71.1194C42.2338 71.0494 41.8138 70.9694 41.4438 70.8894C40.9538 70.7894 40.5138 70.8094 40.1738 70.7294C39.3538 70.5194 39.2638 70.9293 38.9038 70.4093C38.5338 69.8593 38.7738 69.7194 38.5038 69.1094C38.2338 68.4994 38.1238 68.5493 37.8538 67.9393C37.5838 67.3293 37.5038 67.3694 37.2338 66.7594C36.9638 66.1494 37.1538 66.0594 36.8838 65.4494C36.6138 64.8394 36.4938 64.8894 36.2238 64.2794C35.9538 63.6694 36.0438 63.6294 35.6538 63.0794C35.6638 63.5394 35.8438 63.9594 35.9038 64.4294C35.9638 64.8994 36.0638 65.3594 36.1438 65.8094C36.2338 66.2894 36.2838 66.7593 36.3938 67.1893C36.5138 67.6893 36.5338 68.1794 36.6438 68.5694C36.8838 69.3894 37.7838 69.7294 37.1138 69.9194C36.4438 70.1094 36.4038 69.8093 35.7038 69.7193C35.0038 69.6293 34.9838 69.7494 34.2838 69.6694C33.5838 69.5894 33.6038 69.3394 32.9038 69.2594C32.2038 69.1794 32.1838 69.2894 31.4938 69.1494C31.2838 68.9994 30.9138 68.7594 30.6038 68.2594C30.4038 67.9394 30.2238 67.5294 30.0038 67.1194C29.8038 66.7594 29.5838 66.3894 29.3838 65.9894C29.1838 65.5894 28.9638 65.2294 28.7738 64.8494C28.5838 64.4694 28.5638 63.9694 28.3938 63.5994C28.1938 63.1694 28.0138 62.7694 27.8538 62.4294C27.5338 61.7294 27.8938 61.4494 27.2938 61.2294C27.2938 61.6194 27.4038 62.0894 27.4638 62.5394C27.5238 62.9394 27.5138 63.3794 27.6138 63.7994C27.7138 64.2194 27.8938 64.6094 28.0238 65.0094C28.1538 65.4094 28.2438 65.8494 28.3738 66.2294C28.5238 66.6694 28.7638 67.0494 28.8938 67.3894C29.1738 68.0994 29.8438 68.3594 29.2238 68.4894C28.6038 68.6194 28.5838 68.6194 27.9438 68.5194C27.3038 68.4194 27.3338 68.2194 26.6938 68.1094C26.0538 67.9994 26.0538 67.9594 25.4138 67.8493C24.7738 67.7393 24.7438 67.8994 24.1138 67.7094C23.7738 67.4494 23.5038 67.1194 23.1838 66.8194C22.8638 66.5193 22.4738 66.2993 22.1938 65.9693C21.9138 65.6393 21.6738 65.2794 21.4138 64.9194C21.1538 64.5594 20.9938 64.1594 20.7638 63.7894C20.5338 63.4194 20.2138 63.1094 20.0038 62.7294C19.7938 62.3494 19.5538 61.9794 19.3638 61.5894C19.1738 61.1994 19.0238 60.7794 18.8538 60.3894C18.6838 59.9994 18.6338 59.5294 18.4838 59.1394C18.3238 58.7194 17.9238 58.3994 17.7938 58.0094C17.6438 57.5694 17.7638 57.0694 17.6438 56.6894C17.5038 56.2194 17.1638 55.8594 17.0638 55.5094C16.8538 54.7294 16.9538 54.8694 16.8038 54.2394C16.6838 53.8394 16.6638 53.4094 16.5538 53.0094C16.4438 52.6094 16.3838 52.1894 16.2738 51.7794C16.1638 51.3694 15.9338 50.9994 15.8438 50.5894C15.7538 50.1794 15.7438 49.7494 15.6838 49.3394C15.6238 48.9294 15.5438 48.5094 15.5138 48.0994C15.4638 47.6694 15.3238 47.2494 15.2838 46.8294C15.2438 46.4094 15.2838 45.9594 15.2538 45.5294C15.2238 45.0994 15.1338 44.6694 15.1038 44.2494C15.0738 43.8294 15.1138 43.3794 15.0938 42.9594C15.0738 42.5394 15.1638 42.0894 15.1538 41.6694C15.1438 41.2494 14.8838 40.8094 14.8838 40.3794C14.8838 39.9494 14.9638 39.5094 14.9638 39.0894C14.9638 38.6694 14.8638 38.2194 14.8738 37.7894C14.8838 37.3594 15.1238 36.9294 15.1538 36.5094C15.1838 36.0894 15.0938 35.6394 15.1238 35.2094C15.1538 34.7794 15.3538 34.3594 15.3938 33.9294C15.4338 33.4994 15.2538 33.0394 15.3138 32.6194C15.3738 32.1994 15.5938 31.7794 15.6538 31.3594C15.7138 30.9394 15.7438 30.4994 15.8238 30.0794C15.9038 29.6594 15.8238 29.1994 15.9038 28.7794C15.9838 28.3594 16.2138 27.9594 16.3138 27.5494C16.4138 27.1394 16.6338 26.7394 16.7438 26.3294C16.8538 25.9194 16.9638 25.4894 17.0738 25.0794C17.1838 24.6694 17.1238 24.1894 17.2538 23.7794C17.3838 23.3694 17.7138 23.0194 17.8638 22.6194C18.0138 22.2194 17.9838 21.7394 18.1338 21.3394C18.2838 20.9394 18.4538 20.5294 18.6238 20.1394C18.7938 19.7494 19.1938 19.4394 19.3738 19.0594C19.5538 18.6794 19.5338 18.1694 19.7238 17.7994C19.9238 17.4094 20.2838 17.1094 20.4838 16.7394C20.6938 16.3494 20.7338 15.8794 20.9538 15.5194C21.1838 15.1394 21.6138 14.8994 21.8438 14.5494C22.0838 14.1694 22.2938 13.7994 22.5238 13.4594C22.7838 13.0894 23.0738 12.7694 23.3138 12.4494C23.5838 12.0794 23.8138 11.7194 24.0638 11.4094C24.3538 11.0494 24.6538 10.7394 24.9138 10.4494C25.2438 10.0794 25.5238 9.75936 25.7738 9.49936C26.2738 8.97936 26.5638 8.62935 26.6238 8.53935C26.8838 8.14935 27.1338 7.75935 27.4238 7.39935C27.7138 7.03935 28.0738 6.74937 28.4038 6.42937C28.7338 6.10937 29.0938 5.82936 29.4638 5.55936C29.8338 5.28936 30.1738 4.96935 30.5938 4.75935C31.0138 4.54935 31.4338 4.41936 31.8938 4.27936C32.3338 4.14936 32.7438 3.95937 33.1838 3.81937C33.6238 3.67937 34.0138 3.43935 34.4538 3.28935C34.8938 3.13935 35.3138 2.99936 35.7538 2.85936C36.1938 2.71936 36.6338 2.62936 37.0738 2.48936C37.5138 2.34936 37.9938 2.35937 38.4238 2.20937C38.8538 2.05937 39.2938 1.92936 39.7238 1.77936C40.1538 1.62936 40.5738 1.43936 41.0038 1.29936C41.4338 1.15936 41.8038 0.819358 42.2338 0.669358C42.7538 0.499358 43.3538 0.589366 43.8938 0.599366C44.2938 0.599366 44.7138 0.489356 45.1338 0.449356C45.5538 0.409356 45.9438 0.279355 46.3538 0.229355C46.7638 0.179355 47.1738 0.049354 47.5738 0.00935396C47.9738 -0.030646 48.4238 0.0693558 48.8138 0.0893558C49.2438 0.0993558 49.6238 0.24936 50.0038 0.35936C50.3838 0.46936 50.8638 0.469355 51.1938 0.729355C51.4838 0.969355 51.7038 1.34936 51.9238 1.73936C52.1038 2.05937 52.2438 2.42935 52.3738 2.86935C52.7838 2.70935 53.2138 2.63936 53.6638 2.51936C54.1138 2.39936 54.5338 2.36935 54.9838 2.28935C55.4338 2.20935 55.8438 1.97936 56.3038 1.93936C56.7638 1.89936 57.2138 2.05936 57.6638 2.04936C58.1138 2.03936 58.5638 1.92936 59.0138 1.94936C59.4638 1.96936 59.9338 1.86936 60.3738 1.91936C60.8138 1.96936 61.2538 2.23937 61.6838 2.31937C62.1438 2.39937 62.5838 2.48937 63.0038 2.59937C63.4638 2.71937 63.9338 2.74935 64.3338 2.89935C64.7938 3.07935 65.1838 3.32936 65.5238 3.54936C65.9538 3.81936 66.2438 4.22936 66.4538 4.54936C67.0238 4.85936 66.9538 4.57935 67.7438 4.78935C68.0938 4.88935 68.5138 4.97936 68.9838 5.15936C69.3538 5.29936 69.7138 5.53937 70.1338 5.73937C70.5038 5.90937 70.9638 5.95937 71.3638 6.17937C71.7238 6.37937 72.0938 6.60936 72.4738 6.85936C72.8138 7.08936 73.0938 7.44936 73.4438 7.71936C73.7738 7.97936 74.0838 8.26937 74.4138 8.56937C74.7238 8.84937 75.0038 9.17936 75.3138 9.49936C75.6038 9.79936 76.0038 10.0194 76.2938 10.3594C76.5738 10.6794 76.8538 10.9994 77.1338 11.3494C77.3938 11.6794 77.7038 11.9894 77.9638 12.3494C78.2238 12.7094 78.2638 13.1694 78.4938 13.5494C78.7238 13.9294 79.1238 14.1694 79.3438 14.5494C79.5638 14.9294 79.7838 15.2894 79.9738 15.6894C80.1638 16.0894 80.1038 16.5694 80.2938 16.9794C80.4838 17.3894 80.7338 17.7194 80.9038 18.1294C81.0738 18.5394 81.2638 18.9094 81.4138 19.3194C81.5638 19.7294 81.7638 20.1094 81.8938 20.5294C82.0238 20.9494 81.9538 21.4094 82.0838 21.8294C82.2138 22.2494 82.4538 22.6194 82.5638 23.0394C82.6738 23.4594 82.7138 23.8894 82.8038 24.3194C82.8938 24.7494 83.0238 25.1494 83.1038 25.5794C83.1838 26.0094 83.1438 26.4494 83.2238 26.8794C83.3038 27.3094 83.5938 27.6894 83.6538 28.1294C83.7138 28.5694 83.7538 28.9894 83.8138 29.4194C83.8738 29.8494 83.7438 30.2994 83.7938 30.7294C83.8438 31.1594 83.9538 31.5794 83.9938 32.0194V31.9994ZM50.0438 33.6394C49.6738 33.4394 49.3438 33.2094 48.9838 32.9694C48.6238 32.7294 48.2538 32.5494 47.8538 32.3694C47.4838 32.2094 47.0738 32.1794 46.6238 32.1594C46.2438 32.1394 45.9738 32.0894 45.5038 32.2094C45.8938 32.5194 46.1138 32.8094 46.4538 33.0994C46.8338 33.4294 47.2538 33.6394 47.6138 33.9194C47.9938 34.2194 48.3338 34.5294 48.7338 34.7494C49.3238 35.0594 49.7138 35.0894 49.9238 34.8294C50.1138 34.5894 50.0938 34.1294 49.8938 33.5394C50.2338 33.8394 50.5338 34.1994 50.8338 34.3894C51.2138 34.6194 51.6538 34.5794 52.0238 34.6294C52.3938 34.6794 52.7838 34.7394 53.1938 34.5794C53.5238 34.4594 53.8038 34.1694 54.1738 33.8994C54.4638 33.6894 54.7638 33.4394 55.0938 33.1394C55.3638 32.8894 55.7738 32.6894 56.0838 32.3794C55.6538 32.3294 55.2038 32.4094 54.8038 32.4194C54.3738 32.4294 53.9538 32.3194 53.5538 32.3894C53.1538 32.4594 52.7638 32.6794 52.3738 32.7994C51.9838 32.9194 51.5438 32.9494 51.1638 33.1094C50.7838 33.2694 50.4238 33.4594 50.0538 33.6394H50.0438ZM54.3738 38.0394C54.0938 37.6994 53.8438 37.3494 53.5938 37.0594C53.3038 36.7294 52.9938 36.4694 52.6838 36.2494C52.3538 36.0194 51.9938 35.9594 51.5638 35.9194C51.2138 35.8894 50.9538 35.8794 50.4938 36.0094C50.7338 36.3494 50.8538 36.5994 51.1138 36.8594C51.4038 37.1394 51.7638 37.2694 52.1138 37.4494C52.4438 37.6194 52.7638 37.7994 53.1838 37.8794C53.5338 37.9494 53.9438 38.0494 54.3838 38.0494L54.3738 38.0394Z" fill="#082C4C"/>
<path d="M103.184 33.9893C103.164 34.4093 102.954 34.8493 102.934 35.2593C102.914 35.6693 103.184 36.1093 103.164 36.5293C103.144 36.9493 103.024 37.3693 103.004 37.7893C102.984 38.2093 103.004 38.6293 102.984 39.0493C102.964 39.4693 102.854 39.8793 102.834 40.2993C102.814 40.7193 102.854 41.1393 102.834 41.5593C102.814 41.9793 102.714 42.3893 102.694 42.8093C102.674 43.2293 102.754 43.6493 102.724 44.0593C102.694 44.4693 102.514 44.8793 102.484 45.2993C102.454 45.7193 102.624 46.1393 102.594 46.5593C102.564 46.9893 102.654 47.4193 102.614 47.8493C102.574 48.2793 102.354 48.6793 102.314 49.1093C102.274 49.5393 102.104 49.9493 102.064 50.3693C102.024 50.7893 102.214 51.2393 102.174 51.6693C102.134 52.0993 102.124 52.5193 102.084 52.9493C102.044 53.3793 102.084 53.8093 102.034 54.2293C101.984 54.6493 101.774 55.0593 101.734 55.4893C101.694 55.9193 101.564 56.3293 101.524 56.7493C101.484 57.1693 101.564 57.6093 101.524 58.0393C101.484 58.4693 101.254 58.8693 101.204 59.2893C101.154 59.7093 101.114 60.1393 101.074 60.5593C101.034 60.9793 101.124 61.4193 101.074 61.8493C101.024 62.2793 100.994 62.6993 100.954 63.1193C100.914 63.5393 101.014 63.9793 100.954 64.4093C100.904 64.8393 100.564 65.2293 100.514 65.6593C100.464 66.0893 100.634 66.5393 100.584 66.9693C100.534 67.3993 100.394 67.8093 100.344 68.2393C100.294 68.6693 100.194 69.0893 100.134 69.5093C100.074 69.9293 99.8838 70.3393 99.8138 70.7693C99.7438 71.1993 99.7138 71.6193 99.6438 72.0493C99.5738 72.4793 99.4938 72.8893 99.4138 73.3193C99.3338 73.7493 99.2938 74.1693 99.2138 74.5893C99.1338 75.0093 99.2638 75.4793 99.1838 75.8993C99.1038 76.3193 98.8738 76.7093 98.7838 77.1293C98.6938 77.5493 98.4838 77.9393 98.3838 78.3593C98.2838 78.7793 98.2838 79.2193 98.1838 79.6393C98.0838 80.0593 98.0238 80.4893 97.9138 80.8993C97.8038 81.3093 97.7138 81.7393 97.6038 82.1493C97.4938 82.5593 97.4338 82.9993 97.3038 83.4093C97.1738 83.8193 96.8338 84.1593 96.7038 84.5693C96.5738 84.9793 96.7038 85.4693 96.5538 85.8793C96.4038 86.2893 96.1138 86.6393 95.9638 87.0393C95.8238 87.4193 95.6938 87.8093 95.5838 88.2093C95.4738 88.6093 95.3838 89.0093 95.3238 89.4093C95.2638 89.8093 95.3838 90.2393 95.3738 90.6393C95.3638 91.0393 95.1238 91.4693 95.1538 91.8693C95.1938 92.2893 95.3938 92.7093 95.4138 93.1393C95.4338 93.5693 95.5038 93.9993 95.5038 94.4293C95.5038 94.8593 95.4838 95.2893 95.4638 95.7193C95.4438 96.1493 95.4238 96.5793 95.3838 97.0093C95.3438 97.4393 95.1638 97.8493 95.1138 98.2693C95.0638 98.6893 95.1338 99.1393 95.0638 99.5593C94.9938 99.9793 94.6538 100.349 94.5638 100.769C94.4738 101.189 94.5538 101.639 94.4538 102.059C94.3538 102.479 94.3038 102.909 94.1938 103.319C94.0838 103.729 93.9038 104.129 93.7738 104.539C93.6438 104.949 93.5938 105.379 93.4438 105.789C93.2938 106.199 92.9738 106.529 92.8138 106.919C92.6538 107.309 92.5638 107.739 92.3938 108.129C92.2238 108.519 91.9338 108.859 91.7438 109.239C91.5538 109.619 91.5838 110.119 91.3838 110.499C91.1838 110.879 90.8038 111.159 90.5938 111.529C90.3838 111.899 90.2638 112.329 90.0338 112.689C89.8038 113.049 89.4038 113.299 89.1638 113.649C88.9238 113.999 88.7938 114.489 88.5338 114.829C88.1638 114.589 87.8738 114.179 87.5438 113.909C87.2138 113.639 86.7538 113.489 86.4438 113.189C86.1338 112.889 85.9438 112.469 85.6638 112.139C85.3838 111.809 85.1138 111.479 84.8638 111.119C84.6138 110.759 84.3538 110.419 84.1338 110.049C83.9138 109.679 83.6538 109.319 83.4538 108.939C83.2438 108.539 82.9138 108.189 82.7138 107.789C82.5138 107.389 82.3138 106.969 82.1038 106.569C81.8938 106.169 81.9138 105.649 81.7138 105.239C81.5138 104.829 81.3238 104.419 81.1238 104.009C80.9238 103.599 80.6938 103.209 80.5038 102.799C80.3138 102.389 80.2138 101.929 80.0238 101.519C79.8338 101.109 79.4438 100.789 79.2538 100.379C79.0638 99.9693 78.8638 99.5593 78.6738 99.1493C78.4838 98.7393 78.2438 98.3493 78.0538 97.9393C77.9038 97.6193 78.0038 97.1393 77.8638 96.7793C77.7138 96.3793 77.3938 96.1093 77.1038 95.9393C76.7238 95.7193 76.5138 95.4093 76.3538 95.1393C76.1638 94.8093 76.2338 94.4593 76.2138 94.0893C76.1938 93.7193 76.1238 93.3693 76.1238 92.9993C76.1238 92.5793 76.1438 92.1693 76.1438 91.7493C76.1438 91.3293 76.1938 90.9193 76.2038 90.4993C76.2138 90.0793 76.0438 89.6693 76.0538 89.2493C76.0638 88.8293 76.1238 88.4193 76.1238 87.9993C76.1238 87.5793 76.1338 87.1693 76.1438 86.7493C76.1538 86.3293 76.1238 85.9193 76.1238 85.4993C76.1238 85.0793 76.1538 84.6693 76.1538 84.2493C76.1538 83.8293 76.2038 83.4193 76.1838 82.9993C76.1738 82.5793 76.0338 82.1593 76.0138 81.7393C75.9938 81.3193 76.1738 80.8893 76.1638 80.4693C76.1538 80.0493 75.9938 79.6293 75.9838 79.2093C75.9738 78.7893 75.9638 78.3693 75.9538 77.9393C75.9438 77.5093 76.0238 77.0893 76.0138 76.6693C76.0038 76.2493 75.7138 75.8393 75.7038 75.4193C75.6938 74.9993 75.9538 74.5593 75.9238 74.1393C75.8938 73.7193 75.7838 73.2993 75.7538 72.8793C75.7238 72.4593 75.5738 72.0493 75.5438 71.6293C75.5138 71.2093 75.6738 70.7693 75.6338 70.3493C75.5938 69.9293 75.4238 69.5193 75.3738 69.0993C75.3238 68.6793 75.4138 68.2793 75.4138 67.8893C75.4138 67.4693 75.1438 67.0493 75.2038 66.6493C75.2638 66.2493 75.5038 65.8693 75.6138 65.4793C75.7238 65.0893 75.7038 64.6393 75.8538 64.2693C76.0038 63.8993 76.3338 63.5993 76.5238 63.2293C76.7138 62.8593 76.8838 62.5093 77.0938 62.1593C77.3038 61.8093 77.6338 61.5493 77.8638 61.2093C78.1238 60.8193 78.1738 60.2693 78.4638 59.8993C78.7538 59.5293 79.2738 59.3493 79.5738 58.9793C79.8738 58.6093 79.9738 58.0993 80.2538 57.7293C80.5338 57.3593 80.8538 57.0093 81.0838 56.5993C81.2838 56.2493 81.5238 55.9093 81.6938 55.5393C81.8638 55.1693 82.0138 54.7893 82.1638 54.4093C82.3138 54.0293 82.3838 53.6193 82.4938 53.2293C82.6038 52.8393 82.5938 52.4193 82.6738 52.0193C82.7538 51.6293 82.7838 51.2393 82.8338 50.8493C82.8838 50.4593 83.0938 50.0793 83.1338 49.6893C83.1738 49.2993 83.0638 48.8893 83.0938 48.4893C83.1238 48.0893 83.2338 47.6993 83.2738 47.3093C83.3138 46.9193 83.4038 46.5193 83.4538 46.1293C83.5038 45.7493 83.5238 45.3493 83.6138 44.9793C83.7038 44.6093 84.0138 44.3093 84.1938 43.9793C84.4038 43.5993 84.4138 43.0893 84.6238 42.7093C84.8338 42.3293 85.1538 41.9993 85.3738 41.6193C85.5938 41.2393 85.6838 40.7893 85.9038 40.3993C86.1238 40.0093 86.3238 39.6293 86.5438 39.2493C86.7638 38.8693 87.1338 38.5793 87.3538 38.1893C87.5738 37.7993 87.6638 37.3493 87.8838 36.9693C88.1038 36.5893 88.4738 36.2893 88.6938 35.9093C88.9138 35.5293 89.0038 35.0693 89.2238 34.6893C89.4438 34.3093 89.7838 33.9893 89.9938 33.6093C90.2038 33.2293 90.2638 32.7493 90.4838 32.3693C90.7238 31.9593 91.1338 31.7093 91.4438 31.4293C91.7838 31.1193 92.1138 30.7593 92.5538 30.6993C92.9338 30.6393 93.3638 30.8693 93.8538 31.0293C94.2938 31.1793 94.7238 31.3593 95.1638 31.5093C95.6038 31.6593 96.0538 31.7793 96.4938 31.9293C96.9338 32.0793 97.4038 32.1493 97.8438 32.2993C98.2838 32.4493 98.7438 32.5593 99.1838 32.6993C99.6238 32.8393 100.014 33.1493 100.454 33.2993C100.894 33.4493 101.344 33.5793 101.784 33.7293C102.224 33.8793 102.734 33.8893 103.184 34.0393V33.9893Z" fill="#E33500"/>
<path d="M25.4638 73.9694C25.5138 74.3794 25.6438 74.7494 25.6638 75.2394C25.6838 75.6694 25.7238 76.1194 25.7338 76.5894C25.7338 77.0194 25.5738 77.4794 25.5738 77.9394C25.5738 78.3794 25.6038 78.8294 25.5938 79.2894C25.5838 79.7494 25.7138 80.1894 25.7038 80.6394C25.6938 81.0894 25.4538 81.5294 25.4338 81.9794C25.4138 82.4294 25.4038 82.8794 25.3838 83.3294C25.3638 83.7794 25.4738 84.2394 25.4638 84.6894C25.4538 85.1394 25.3438 85.5894 25.3238 86.0394C25.3038 86.4894 25.2838 86.9494 25.2738 87.3894C25.2638 87.8294 25.4638 88.3094 25.4538 88.7494C25.4438 89.1894 25.3738 89.6594 25.3638 90.0994C25.3638 90.5694 25.4238 91.0194 25.4338 91.4494C25.4338 91.9294 25.4338 92.3794 25.4638 92.7994C25.4838 93.2894 25.3238 93.7094 25.3738 94.1094C25.0738 94.3494 25.0038 94.5194 24.8138 94.5694C24.3738 94.6994 23.9738 94.8194 23.6038 94.9294C23.1538 95.0594 22.7438 95.1694 22.3838 95.2894C21.9238 95.4494 21.5738 95.7094 21.2538 95.8694C20.8238 96.0894 20.5538 96.3694 20.3238 96.6694C20.0938 96.9694 19.9638 97.3194 19.8638 97.7894C19.7938 98.1394 19.7638 98.5394 19.7338 99.0194C19.7138 99.3894 19.6438 99.8094 19.6438 100.279C19.6438 100.669 19.4838 101.089 19.4838 101.549C19.4838 101.999 19.6438 102.459 19.6238 102.899C19.6038 103.339 19.4338 103.789 19.3938 104.239C19.3538 104.689 19.4238 105.149 19.3738 105.589C19.3238 106.029 19.2838 106.489 19.2138 106.929C19.1438 107.369 18.9138 107.789 18.8238 108.229C18.7338 108.669 18.7438 109.129 18.6438 109.569C18.5438 110.009 18.3438 110.419 18.2338 110.859C18.1238 111.299 18.0238 111.729 17.8938 112.159C17.7638 112.589 17.6638 113.029 17.5338 113.459C17.4038 113.889 17.3538 114.349 17.2038 114.769C17.0538 115.189 16.7738 115.569 16.6138 115.989C16.4538 116.409 16.3438 116.849 16.1738 117.269C16.0038 117.689 15.8138 118.089 15.6338 118.509C15.4538 118.929 15.2438 119.319 15.0638 119.729C14.8838 120.139 14.8638 120.629 14.6738 121.039C14.4738 121.459 14.1238 121.819 13.9738 122.239C13.8238 122.659 13.8738 123.169 13.7638 123.609C13.6538 124.049 13.4138 124.479 13.3538 124.919C13.2938 125.359 13.4238 125.839 13.4338 126.289C13.4438 126.739 13.4438 127.189 13.5238 127.649C13.6038 128.109 13.6138 128.559 13.7538 128.999C13.8938 129.419 14.0038 129.879 14.2038 130.309C14.4038 130.739 14.6138 131.129 14.7238 131.559C14.8338 131.989 14.8338 132.449 14.8538 132.899C14.8738 133.349 14.9838 133.799 14.9238 134.259C14.8638 134.719 14.6638 135.109 14.5338 135.569C14.4138 135.989 14.3938 136.519 14.2038 136.959C13.7738 136.859 13.2838 136.749 12.8538 136.659C12.4238 136.569 11.9838 136.489 11.5438 136.409C11.1038 136.329 10.6638 136.269 10.2338 136.189C9.80383 136.109 9.39382 135.849 8.96382 135.759C8.53382 135.669 8.10383 135.579 7.67383 135.469C7.24383 135.359 6.77383 135.409 6.34383 135.289C5.91383 135.169 5.48383 135.069 5.06383 134.919C4.64383 134.769 4.24382 134.569 3.83382 134.389C3.42382 134.209 3.08382 133.909 2.69382 133.699C2.28382 133.489 1.94382 133.289 1.63382 133.109C1.22382 132.859 0.863821 132.699 0.633821 132.449C0.333821 132.139 0.113825 131.819 0.0438245 131.409C-0.00617547 131.079 -0.026181 130.669 0.053819 130.189C0.113819 129.849 0.263826 129.459 0.373826 129.019C0.473826 128.599 0.483828 128.159 0.593828 127.739C0.703828 127.319 0.843828 126.909 0.953828 126.499C1.06383 126.089 1.26383 125.689 1.37383 125.269C1.48383 124.849 1.55383 124.429 1.67383 124.009C1.79383 123.589 1.88383 123.169 2.01383 122.759C2.14383 122.349 2.24383 121.929 2.37383 121.509C2.50383 121.089 2.76383 120.729 2.89383 120.319C3.02383 119.909 3.02382 119.449 3.16382 119.049C3.30382 118.649 3.46383 118.239 3.61383 117.829C3.76383 117.419 4.01382 117.059 4.16382 116.649C4.31382 116.229 4.52382 115.839 4.68382 115.429C4.84382 115.019 4.99383 114.599 5.15383 114.189C5.31383 113.779 5.34383 113.309 5.50383 112.899C5.66383 112.489 5.76383 112.049 5.92383 111.639C6.08383 111.229 6.42383 110.889 6.59383 110.479C6.76383 110.069 6.73383 109.579 6.90383 109.169C7.07383 108.759 7.31383 108.379 7.48383 107.969C7.65383 107.559 7.80382 107.149 7.97382 106.739C8.14382 106.329 8.29382 105.909 8.46382 105.499C8.63382 105.089 8.88382 104.709 9.05382 104.309C9.22382 103.909 9.39383 103.489 9.56383 103.089C9.73383 102.689 9.90382 102.269 10.0738 101.859C10.2438 101.449 10.4638 101.059 10.6338 100.659C10.8038 100.259 10.9638 99.8394 11.1338 99.4294C11.2938 99.0594 11.4138 98.6194 11.5938 98.1694C11.7538 97.7794 11.9938 97.3894 12.1638 96.9594C12.3238 96.5594 12.4038 96.1094 12.5738 95.6794C12.7338 95.2794 13.0338 94.9194 13.2038 94.4894C13.3738 94.0594 13.3338 93.5894 13.4938 93.1594C13.6538 92.7294 13.8938 92.3594 14.0638 91.9394C14.2338 91.5194 14.3738 91.1094 14.5438 90.6894C14.7138 90.2694 14.9438 89.8894 15.1138 89.4694C15.2838 89.0494 15.4238 88.6294 15.5938 88.2094C15.7638 87.7894 16.0038 87.4094 16.1838 86.9994C16.3638 86.5894 16.4738 86.1494 16.6538 85.7394C16.8338 85.3294 17.1438 84.9694 17.3238 84.5694C17.5038 84.1694 17.5738 83.6794 17.7738 83.2894C17.9738 82.8994 18.1038 82.4294 18.3038 82.0494C18.5238 81.6394 18.8638 81.3094 19.0838 80.9394C19.3238 80.5294 19.6438 80.2094 19.8738 79.8494C20.1438 79.4494 20.2638 78.9894 20.5238 78.6694C20.8338 78.2994 21.1338 77.9494 21.4438 77.6394C21.7838 77.3094 22.0838 76.9694 22.4338 76.6694C22.7838 76.3694 23.2138 76.1794 23.5638 75.8694C23.8938 75.5794 24.2638 75.3094 24.6038 74.9594C24.9038 74.6494 25.1338 74.3194 25.4438 73.9294L25.4638 73.9694Z" fill="#E33500"/>
<path d="M51.5938 96.2094C51.8738 95.9094 52.1638 95.6193 52.4438 95.3193C52.7238 95.0193 53.0138 94.7393 53.2938 94.4493C53.5738 94.1593 53.8738 93.8794 54.1538 93.5894C54.4338 93.2994 54.6638 92.9493 54.9438 92.6593C55.2238 92.3693 55.5738 92.1394 55.8538 91.8394C56.1338 91.5394 56.3538 91.1993 56.6238 90.8893C56.8938 90.5793 57.1638 90.2893 57.4238 89.9693C57.7038 89.6293 58.0038 89.3193 58.2738 88.9793C58.5438 88.6393 58.7438 88.2393 59.0038 87.8893C59.2638 87.5393 59.5738 87.2294 59.8238 86.8694C60.0738 86.5094 60.3238 86.1593 60.5738 85.7993C60.8238 85.4393 61.0438 85.0694 61.2838 84.7094C61.5238 84.3494 61.7738 83.9894 62.0038 83.6194C62.2338 83.2494 62.4238 82.8493 62.6438 82.4793C62.8638 82.1093 63.1438 81.7593 63.3638 81.3893C63.5838 81.0193 63.7738 80.6193 63.9838 80.2393C64.1938 79.8593 64.3838 79.4693 64.5738 79.0793C64.7638 78.6893 64.9338 78.2893 65.1238 77.8893C65.3138 77.4893 65.5638 77.1293 65.7338 76.7293C65.9038 76.3293 66.1038 75.9393 66.2638 75.5393C66.4238 75.1393 66.5938 74.7293 66.7438 74.3193C66.8938 73.9093 66.9738 73.4794 67.1138 73.0594C67.3038 72.4994 67.8138 71.9393 68.3038 71.5793C68.6238 71.3493 68.9438 71.1393 69.2838 70.9193C69.6238 70.6993 69.9338 70.5093 70.2738 70.2993C70.5938 70.0993 70.9638 69.9493 71.3138 69.7293C71.6338 69.5293 71.9438 69.3093 72.2938 69.0793C72.3638 69.4893 72.4538 69.8894 72.5338 70.2794C72.6138 70.6694 72.7238 71.0793 72.8138 71.4693C72.9038 71.8593 72.9538 72.2794 73.0338 72.6794C73.1138 73.0794 73.1438 73.4893 73.1938 73.8893C73.2438 74.2893 73.2838 74.6993 73.2938 75.0993C73.2938 75.5293 73.2938 75.9694 73.2938 76.3994C73.2938 76.8294 73.3238 77.2693 73.3338 77.6993C73.3438 78.1293 73.3238 78.5694 73.3238 78.9994C73.3238 79.4294 73.3338 79.8693 73.3338 80.2993C73.3338 80.7293 73.3338 81.1693 73.3338 81.5993C73.3338 82.0293 73.3038 82.4694 73.2938 82.8994C73.2838 83.3294 73.3338 83.7693 73.3338 84.1993C73.3338 84.6293 73.3338 85.0694 73.3338 85.4994C73.3338 85.9294 73.2938 86.3693 73.2938 86.7993C73.2938 87.2293 73.3138 87.6693 73.3038 88.0993C73.2938 88.5293 73.2238 88.9694 73.2238 89.3994C73.2238 89.8294 73.2338 90.2693 73.2238 90.6993C73.2138 91.1293 73.2538 91.5694 73.2538 91.9994C73.2538 92.4494 73.2438 92.8393 73.1938 93.1693C73.1338 93.6393 73.0038 93.9893 72.8238 94.2693C72.6238 94.5793 72.3438 94.8193 71.9238 94.9793C71.6238 95.0993 71.2338 95.1294 70.7738 95.2094C70.3338 95.2894 69.9038 95.3594 69.4638 95.4294C69.0238 95.4994 68.5938 95.5993 68.1538 95.6593C67.7138 95.7193 67.2738 95.7693 66.8338 95.8293C66.3938 95.8893 65.9638 96.0193 65.5238 96.0693C65.0838 96.1193 64.6438 96.1793 64.2038 96.2293C63.7638 96.2793 63.3138 96.2394 62.8738 96.2794C62.4338 96.3194 61.9938 96.3694 61.5538 96.3994C61.1138 96.4294 60.6738 96.5193 60.2338 96.5493C59.7938 96.5793 59.3438 96.4993 58.9038 96.5093C58.4638 96.5193 58.0238 96.5393 57.5738 96.5493C57.1238 96.5593 56.6938 96.6193 56.2438 96.6293C55.7938 96.6393 55.3538 96.5894 54.9138 96.5894C54.4738 96.5894 54.0338 96.5694 53.5838 96.5594C53.1338 96.5494 52.6938 96.6293 52.2538 96.6093C52.0838 96.6093 51.9038 96.3393 51.6138 96.1293L51.5938 96.2094Z" fill="#007257"/>
<path d="M74.8638 223.379C75.2938 223.329 75.7038 223.249 76.1138 223.199C76.5538 223.149 76.9738 223.099 77.3838 223.059C77.8238 223.009 78.2438 222.979 78.6538 222.929C79.0938 222.879 79.5138 222.829 79.9238 222.779C80.3638 222.729 80.7938 222.729 81.2038 222.679C81.6438 222.629 82.0638 222.529 82.4638 222.479C82.9038 222.419 83.3338 222.389 83.7238 222.329C84.1738 222.269 84.5938 222.209 84.9838 222.149C85.4338 222.079 85.8438 221.969 86.2338 221.899C86.6838 221.819 87.1038 221.749 87.4838 221.659C87.9338 221.559 88.3438 221.459 88.7138 221.339C89.1538 221.209 89.5438 221.069 89.9138 220.909C90.3138 220.729 90.6738 220.529 91.0338 220.309C91.3938 220.089 91.7238 219.849 92.0738 219.589C92.3938 219.349 92.7238 219.109 93.0738 218.819C93.4638 219.139 93.8338 219.459 94.1338 219.819C94.4338 220.179 94.6638 220.639 94.8838 221.069C95.1038 221.499 95.3238 221.939 95.4438 222.419C95.5638 222.879 95.5638 223.369 95.5938 223.869C95.6138 224.289 95.7138 224.699 95.7538 225.119C95.7938 225.539 95.8038 225.959 95.8438 226.379C95.8838 226.799 96.0038 227.209 96.0438 227.619C96.0838 228.029 96.1138 228.459 96.1438 228.879C96.1738 229.299 96.1438 229.719 96.1438 230.139C96.1438 230.569 96.0538 230.989 96.0038 231.389C95.9438 231.819 95.8838 232.229 95.7838 232.629C95.6838 233.029 95.5838 233.459 95.4238 233.839C95.2638 234.219 95.0238 234.589 94.8138 234.939C94.6038 235.289 94.4138 235.679 94.1438 236.009C93.8738 236.339 93.5638 236.619 93.2538 236.899C92.9438 237.179 92.5938 237.409 92.2338 237.639C91.8738 237.869 91.5038 238.049 91.1138 238.219C90.7238 238.389 90.3638 238.589 89.9538 238.719C89.5438 238.849 89.1438 238.909 88.7238 238.989C88.2938 239.069 87.8538 239.129 87.4138 239.189C86.9738 239.249 86.5338 239.259 86.0938 239.289C85.6538 239.319 85.2138 239.399 84.7738 239.409C84.3338 239.419 83.8838 239.409 83.4438 239.409C83.0038 239.409 82.5538 239.399 82.1138 239.389C81.6638 239.389 81.2538 239.309 80.8538 239.219C80.4238 239.119 80.0138 239.009 79.6338 238.829C79.2538 238.649 78.9038 238.389 78.5638 238.119C78.2238 237.849 77.8938 237.589 77.6038 237.279C77.3138 236.969 77.0738 236.609 76.8238 236.259C76.5738 235.909 76.3438 235.549 76.1438 235.179C75.9238 234.779 75.7438 234.369 75.5738 233.959C75.4038 233.549 75.2738 233.109 75.1538 232.679C75.0338 232.249 74.9638 231.809 74.8838 231.369C74.8038 230.929 74.7038 230.489 74.6638 230.039C74.6238 229.589 74.6938 229.139 74.6838 228.689C74.6738 228.239 74.6338 227.799 74.6438 227.349C74.6538 226.899 74.6938 226.459 74.7138 226.009C74.7338 225.559 74.7938 225.119 74.8138 224.669C74.8338 224.219 74.8338 223.789 74.8538 223.339L74.8638 223.379ZM76.4738 232.559C76.8038 233.039 77.1038 233.419 77.3338 233.729C77.7338 234.279 77.9938 234.589 78.2738 234.779C78.6238 235.009 78.9738 235.049 79.6338 235.079C80.0538 235.089 80.4738 235.099 80.8938 235.119C81.3138 235.139 81.7338 235.199 82.1538 235.209C82.5738 235.219 82.9938 235.189 83.4238 235.189C83.8538 235.189 84.2638 235.219 84.6938 235.209C85.1238 235.199 85.5338 235.199 85.9538 235.179C86.3738 235.159 86.7938 235.089 87.2138 235.049C87.6738 235.009 88.1438 234.949 88.6038 234.859C89.0638 234.769 89.5138 234.669 89.9638 234.539C90.4138 234.409 90.8638 234.279 91.3038 234.129C91.7438 233.979 92.1838 233.799 92.6138 233.629C93.0338 233.469 93.4938 233.259 93.8638 232.959C94.2138 232.679 94.4938 232.299 94.5738 231.769C94.6338 231.389 94.5738 230.959 94.3838 230.399C93.9938 230.609 93.6238 230.759 93.2338 230.949C92.8438 231.139 92.4538 231.359 92.0538 231.519C91.6538 231.679 91.2038 231.759 90.7938 231.889C90.3838 232.019 89.9738 232.189 89.5438 232.299C89.1138 232.409 88.6838 232.449 88.2538 232.529C87.8238 232.609 87.4038 232.739 86.9738 232.789C86.5438 232.839 86.1038 232.889 85.6638 232.919C85.2238 232.949 84.7938 232.949 84.3538 232.959C83.9138 232.969 83.4838 232.939 83.0438 232.939C82.6038 232.939 82.1738 232.939 81.7338 232.939C81.2938 232.939 80.8638 232.939 80.4238 232.919C79.9838 232.899 79.5638 232.809 79.1238 232.779C78.6838 232.749 78.2538 232.779 77.8138 232.729C77.3738 232.679 76.9238 232.609 76.4938 232.559H76.4738Z" fill="#FFD100"/>
<path d="M63.7438 74.0794C63.5538 74.4694 63.3738 74.8994 63.1738 75.2894C62.9738 75.6794 62.7438 76.0594 62.5438 76.4494C62.3438 76.8394 62.1638 77.2394 61.9538 77.6294C61.7438 78.0194 61.5338 78.3994 61.3238 78.7794C61.1138 79.1594 60.8438 79.5094 60.6238 79.8894C60.4038 80.2694 60.2138 80.6594 59.9838 81.0394C59.7538 81.4194 59.5538 81.7994 59.3238 82.1794C59.0938 82.5594 58.8238 82.8994 58.5938 83.2694C58.3638 83.6394 58.1838 84.0494 57.9338 84.4094C57.6838 84.7694 57.4038 85.1094 57.1538 85.4694C56.9038 85.8294 56.6238 86.1594 56.3638 86.5194C56.1038 86.8794 55.8938 87.2594 55.6238 87.6094C55.3538 87.9594 55.0638 88.2894 54.7838 88.6194C54.5038 88.9494 54.1738 89.2494 53.8838 89.5794C53.5938 89.9094 53.2938 90.2294 52.9938 90.5494C52.6938 90.8694 52.4338 91.2294 52.1238 91.5394C51.8138 91.8494 51.4838 92.1394 51.1638 92.4394C50.8438 92.7394 50.4738 92.9794 50.1438 93.2694C49.8138 93.5594 49.5338 93.8994 49.1938 94.1794C48.8538 94.4594 48.4938 94.7094 48.1438 94.9794C47.8938 94.6194 47.6538 94.2594 47.4138 93.9094C47.1738 93.5594 46.9738 93.1694 46.7438 92.8094C46.5138 92.4494 46.2038 92.1394 45.9738 91.7794C45.7438 91.4194 45.5438 91.0394 45.3238 90.6694C45.1038 90.2994 44.8738 89.9394 44.6538 89.5694C44.4338 89.1994 44.2538 88.8094 44.0438 88.4394C43.8338 88.0694 43.5738 87.7194 43.3738 87.3494C43.1738 86.9794 43.0138 86.5694 42.8138 86.1894C42.6138 85.8094 42.4138 85.4294 42.2138 85.0494C42.0138 84.6694 41.8438 84.2794 41.6538 83.8894C41.4638 83.4994 41.2738 83.1194 41.0938 82.7294C40.9138 82.3394 40.6938 81.9694 40.5238 81.5794C40.3538 81.1894 40.2038 80.7894 40.0338 80.3894C39.8638 79.9894 39.6938 79.6094 39.5338 79.2094C39.3738 78.8094 39.2238 78.4094 39.0738 78.0094C38.9238 77.6094 38.7938 77.1994 38.6438 76.7994C38.4938 76.3994 38.2938 76.0194 38.1538 75.6194C38.0138 75.2194 37.8638 74.8194 37.7238 74.4094C37.5838 73.9994 37.5338 73.5894 37.4038 73.1794C37.5738 73.2694 37.9938 73.3594 38.6538 73.4994C39.0238 73.5794 39.4538 73.7394 39.9338 73.8294C40.3338 73.9094 40.7838 73.9594 41.2438 74.0394C41.6638 74.1094 42.1038 74.1794 42.5538 74.2594C42.9838 74.3294 43.4238 74.3594 43.8738 74.4294C44.3238 74.4994 44.7438 74.5394 45.1938 74.5994C45.6438 74.6594 46.0738 74.7094 46.5138 74.7694C46.9538 74.8294 47.3938 74.9194 47.8338 74.9794C48.2738 75.0394 48.7238 75.1194 49.1538 75.1694C49.6138 75.2194 50.0638 75.2094 50.4838 75.2394C50.8838 75.2694 51.2738 75.2794 51.6738 75.2594C52.0738 75.2394 52.4638 75.2294 52.8638 75.1794C53.2638 75.1294 53.6538 75.0594 54.0438 74.9994C54.4338 74.9394 54.8438 74.9394 55.2338 74.8894C55.6238 74.8394 56.0138 74.7394 56.4138 74.6994C56.8138 74.6694 57.2238 74.6594 57.6338 74.6294C58.0438 74.5994 58.4438 74.5694 58.8538 74.5394C59.2638 74.5094 59.6538 74.4294 60.0638 74.3994C60.4738 74.3694 60.8638 74.3494 61.2838 74.3194C61.7038 74.2894 62.0938 74.2594 62.5038 74.2294C62.9138 74.1994 63.3338 74.1394 63.7538 74.1094L63.7438 74.0794Z" fill="#E33500"/>
<path d="M30.0338 71.3094C30.4538 71.4094 30.8738 71.5194 31.2738 71.6094C31.7138 71.7094 32.1438 71.7594 32.5338 71.8494C32.9938 71.9594 33.4138 72.0794 33.7738 72.1594C33.9538 72.5494 34.0938 72.9694 34.2738 73.3594C34.4538 73.7494 34.6738 74.1294 34.8538 74.5194C35.0338 74.9094 35.2238 75.2994 35.4038 75.6894C35.5838 76.0794 35.7938 76.4694 35.9738 76.8594C36.1538 77.2494 36.3138 77.6594 36.4938 78.0494C36.6738 78.4394 36.8938 78.8194 37.0738 79.2094C37.2538 79.5994 37.3638 80.0294 37.5438 80.4194C37.7238 80.8094 37.9438 81.1894 38.1238 81.5794C38.3038 81.9694 38.4938 82.3594 38.6738 82.7594C38.8538 83.1594 39.0738 83.5294 39.2538 83.9194C39.4338 84.3094 39.5438 84.7394 39.7238 85.1294C39.9038 85.5194 40.1538 85.8794 40.3338 86.2694C40.5138 86.6594 40.6538 87.0694 40.8338 87.4594C41.0138 87.8494 41.2238 88.2294 41.4138 88.6194C41.6038 89.0094 41.7938 89.3994 41.9738 89.7894C42.1538 90.1794 42.3338 90.5694 42.5138 90.9594C42.6938 91.3494 42.8538 91.7494 43.0338 92.1394C43.2138 92.5294 43.4038 92.9194 43.5838 93.3094C43.7638 93.6994 43.9038 94.1194 44.0838 94.5094C44.2638 94.8994 44.4438 95.2694 44.6238 95.6694C44.3238 95.7294 44.0438 95.8794 43.6938 95.9494C43.3738 96.0194 43.0238 96.0794 42.6938 96.0694C42.2438 96.0494 41.7838 95.9894 41.3338 95.9694C40.8838 95.9494 40.4238 95.9694 39.9738 95.9494C39.5238 95.9294 39.0638 95.8494 38.6138 95.8294C38.1638 95.8094 37.7038 95.7794 37.2538 95.7494C36.8038 95.7194 36.3438 95.7494 35.8938 95.7294C35.4438 95.7094 34.9838 95.6794 34.5338 95.6494C34.0838 95.6194 33.6338 95.5294 33.1738 95.4994C32.7138 95.4694 32.2638 95.4594 31.8138 95.4294C31.3638 95.3994 30.9038 95.3794 30.4538 95.3394C29.9538 95.2894 29.5438 95.2394 29.2138 95.1694C28.6938 95.0594 28.3538 94.8694 28.1238 94.5894C27.8938 94.3094 27.8238 93.9494 27.7238 93.4294C27.6638 93.0894 27.5238 92.6894 27.4738 92.1994C27.4238 91.7494 27.4438 91.2894 27.3838 90.8394C27.3238 90.3894 27.2738 89.9394 27.2238 89.4894C27.1738 89.0394 27.0738 88.5894 27.0238 88.1394C26.9738 87.6894 27.0238 87.2294 26.9838 86.7794C26.9438 86.3294 26.8538 85.8794 26.8238 85.4294C26.7938 84.9794 26.7638 84.5194 26.7538 84.0694C26.7438 83.6194 26.7738 83.1594 26.7838 82.7094C26.7938 82.2594 26.7838 81.7994 26.8138 81.3494C26.8438 80.8994 26.8838 80.4494 26.9338 79.9994C26.9838 79.5494 27.1038 79.1094 27.1738 78.6594C27.2438 78.2094 27.3138 77.7694 27.4038 77.3194C27.5038 76.8794 27.5838 76.4394 27.6938 76.0094C27.8038 75.5794 27.9638 75.1594 28.1038 74.7394C28.2438 74.3194 28.3338 73.8694 28.5238 73.4694C28.7138 73.0694 28.9538 72.6894 29.2038 72.3094C29.4538 71.9294 29.7138 71.5894 30.0238 71.2494L30.0338 71.3094Z" fill="#007257"/>
<path d="M27.7638 224.179C27.9138 224.589 28.1038 224.949 28.3038 225.299C28.5138 225.679 28.7438 226.019 29.0038 226.329C29.2838 226.659 29.5438 226.979 29.8638 227.239C30.1838 227.499 30.5438 227.729 30.9138 227.929C31.2838 228.129 31.6838 228.239 32.0838 228.369C32.4838 228.499 32.8738 228.599 33.2838 228.689C33.6938 228.779 34.0938 228.869 34.5138 228.909C34.9338 228.949 35.3438 228.929 35.7638 228.939C36.2038 228.939 36.6538 228.999 37.0938 228.989C37.5338 228.979 37.9838 228.909 38.4238 228.879C38.8638 228.849 39.3138 228.849 39.7538 228.819C40.1938 228.789 40.6338 228.719 41.0738 228.679C41.5138 228.639 41.9638 228.639 42.4038 228.599C42.8438 228.559 43.2838 228.499 43.7338 228.449C44.1838 228.399 44.6138 228.379 45.0538 228.339C45.4938 228.299 45.9338 228.229 46.3838 228.179C46.8338 228.129 47.2838 228.069 47.7238 228.029C47.9638 228.379 48.1838 228.769 48.4038 229.139C48.6238 229.509 48.8638 229.859 49.0538 230.249C49.2438 230.639 49.3538 231.049 49.5138 231.449C49.6738 231.849 49.8538 232.239 49.9738 232.649C50.0938 233.059 50.0938 233.489 50.1638 233.919C50.2338 234.349 50.3738 234.749 50.3938 235.189C50.4138 235.629 50.3638 236.039 50.3438 236.479C50.3238 236.919 50.2938 237.319 50.2338 237.759C50.1738 238.209 50.0438 238.629 49.9238 239.049C49.8038 239.469 49.6638 239.899 49.4738 240.289C49.2838 240.679 49.0738 241.089 48.8138 241.439C48.5538 241.789 48.2638 242.139 47.9338 242.429C47.6038 242.719 47.2338 242.969 46.8438 243.189C46.4538 243.409 46.0738 243.599 45.6438 243.749C45.2338 243.889 44.8038 243.959 44.3538 244.029C43.9538 244.089 43.5638 244.219 43.1638 244.259C42.7638 244.299 42.3638 244.339 41.9538 244.359C41.5438 244.379 41.1438 244.299 40.7438 244.309C40.3438 244.319 39.9438 244.309 39.5338 244.299C39.1238 244.289 38.7238 244.319 38.3238 244.289C37.9238 244.259 37.5138 244.249 37.1138 244.209C36.6538 244.159 36.2338 243.989 35.8238 243.869C35.3838 243.739 34.9838 243.589 34.5938 243.379C34.2038 243.169 33.7938 242.979 33.4538 242.699C33.1138 242.419 32.8238 242.079 32.5438 241.729C32.2638 241.379 31.9838 241.059 31.7538 240.659C31.5438 240.289 31.3938 239.859 31.2338 239.429C31.0938 239.059 30.9038 238.699 30.7038 238.339C30.5038 237.979 30.3038 237.629 30.0738 237.299C29.8438 236.969 29.5838 236.649 29.3238 236.339C29.0238 235.989 28.7638 235.639 28.5238 235.279C28.2638 234.909 27.9938 234.549 27.7838 234.169C27.5738 233.789 27.4038 233.359 27.2538 232.949C27.1038 232.539 27.0238 232.099 26.9238 231.669C26.8238 231.239 26.7438 230.809 26.7138 230.359C26.6838 229.909 26.6838 229.479 26.7238 229.029C26.7638 228.579 26.8038 228.159 26.9038 227.709C26.9938 227.289 27.1438 226.869 27.2938 226.439C27.4138 226.069 27.4538 225.679 27.5238 225.289C27.5938 224.899 27.7138 224.529 27.7838 224.149C27.7838 224.139 27.7238 224.149 27.7338 224.199L27.7638 224.179ZM49.1238 239.019C48.4338 238.419 48.2938 238.199 48.1238 238.199C47.5838 238.199 47.0438 238.229 46.5138 238.329C46.0738 238.409 45.6338 238.439 45.1938 238.529C44.7538 238.619 44.3238 238.689 43.8838 238.759C43.4438 238.829 43.0138 238.949 42.5738 239.009C42.1338 239.069 41.6938 239.109 41.2438 239.139C40.7938 239.169 40.3538 239.139 39.9138 239.129C39.4738 239.119 39.0238 239.129 38.5838 239.059C38.1438 238.989 37.7238 238.859 37.2938 238.739C36.8638 238.619 36.4338 238.529 36.0238 238.349C35.6138 238.169 35.2438 237.959 34.8538 237.719C34.5638 237.549 33.9838 237.929 33.4338 238.069C33.6938 238.449 33.9138 238.779 34.1738 239.089C34.4638 239.429 34.7838 239.719 35.1038 239.979C35.4438 240.249 35.7938 240.499 36.1838 240.689C36.5738 240.879 36.9738 240.979 37.4138 241.079C37.8038 241.169 38.2238 241.199 38.6838 241.229C39.0838 241.259 39.5138 241.309 39.9738 241.299C40.4338 241.299 40.8938 241.239 41.3638 241.239C41.8338 241.239 42.2838 241.289 42.7538 241.269C43.2238 241.249 43.6738 241.159 44.1338 241.109C44.5938 241.059 45.0638 241.059 45.5138 240.959C45.9638 240.859 46.3738 240.629 46.8038 240.459C47.2338 240.289 47.6638 240.139 48.0638 239.889C48.4438 239.649 48.7738 239.369 49.1338 239.049L49.1238 239.019Z" fill="#FFD100"/>
<path d="M103.184 17.8394C103.694 18.0494 104.034 18.2594 104.264 18.4794C104.654 18.8394 104.764 19.1694 104.844 19.5494C105.024 19.3894 105.474 19.5494 105.884 19.7894C106.294 20.0294 106.634 20.3394 106.544 20.6094C107.094 20.6694 107.394 20.9494 107.564 21.3294C107.714 21.6694 107.794 22.1094 107.714 22.6294C107.664 23.0194 107.554 23.4594 107.394 23.9194C107.264 24.3094 107.064 24.7194 106.884 25.1394C106.714 25.5294 106.544 25.9394 106.334 26.3494C106.124 26.7594 105.894 27.1194 105.684 27.5094C105.474 27.8994 105.254 28.2894 105.024 28.6594C104.794 29.0294 104.574 29.4394 104.354 29.8094C104.104 30.2094 103.874 30.5894 103.644 30.9294C103.374 31.3394 103.134 31.7494 102.924 32.0694C102.494 31.9294 102.044 31.7794 101.614 31.6394C101.184 31.4994 100.744 31.3794 100.324 31.2394C99.9039 31.0994 99.4739 30.9194 99.0539 30.7894C98.6339 30.6594 98.2039 30.4894 97.7739 30.3494C97.3439 30.2094 96.9038 30.1194 96.4738 29.9894C96.0438 29.8594 95.6139 29.7394 95.1839 29.5994C94.7639 29.4694 94.2738 29.3194 94.0338 29.0294C93.7638 28.6894 93.4139 28.3994 93.1439 28.0594C92.8739 27.7194 92.6739 27.3194 92.4039 26.9794C92.1339 26.6394 91.8739 26.2894 91.6039 25.9394C91.3339 25.5894 91.0539 25.2594 90.7839 24.9094C90.5139 24.5594 90.2539 24.2094 89.9939 23.8694C89.7339 23.5294 89.4739 23.1694 89.2039 22.8194C89.2039 22.2694 89.2539 21.8094 89.3939 21.4594C89.5739 21.0194 89.8738 20.7694 90.4738 20.8094C90.8238 20.8294 91.2538 20.9494 91.8038 21.1894C92.1738 21.3394 92.5739 21.5694 93.0439 21.8394C93.4139 22.0394 93.8339 22.2294 94.2739 22.5094C94.3139 22.0494 94.3938 21.5994 94.4738 21.1494C94.5538 20.6994 94.6139 20.2394 94.7139 19.7894C94.8139 19.3394 94.9639 18.8994 95.0839 18.4494C95.2039 17.9994 95.2739 17.5394 95.3939 17.0994C95.5139 16.6594 95.6739 16.2194 95.7939 15.7694C95.9139 15.3194 95.9938 14.8694 96.0938 14.4194C96.1938 13.9694 96.3339 13.5194 96.3939 13.0694C96.4539 12.6094 96.4239 12.1394 96.4639 11.6894C96.5039 11.2394 96.6138 10.7694 96.6638 10.3294C96.7138 9.83937 96.7438 9.37937 96.8138 8.96937C96.8938 8.44937 97.0138 7.99936 97.1538 7.63936C97.3638 7.10936 97.6338 6.72937 98.0638 6.68937C98.5338 6.64937 98.9338 6.83937 99.2538 7.15937C99.5138 7.41937 99.6938 7.79936 99.8138 8.30936C99.9038 8.67936 100.004 9.09937 99.9939 9.59937C99.9939 9.99937 99.9139 10.4294 99.8539 10.9094C99.9039 11.4494 99.9239 11.8694 99.9639 12.1994C100.034 12.8594 100.144 13.1594 100.174 13.4694C100.204 13.7794 100.214 14.0894 100.224 14.7594C100.224 15.0894 100.174 15.4994 100.174 16.0494C100.174 16.4494 100.224 16.8194 100.304 17.1594C100.404 17.5994 100.534 17.9694 100.624 18.2194C100.714 18.4694 100.964 17.9294 101.824 17.7794C102.164 17.7194 102.604 17.7694 103.154 17.8794L103.184 17.8394Z" fill="#FF8792"/>
<path d="M7.0738 137.869C7.4738 137.969 7.85379 138.059 8.24379 138.149C8.63379 138.239 9.0338 138.329 9.4338 138.419C9.8338 138.509 10.2238 138.589 10.6138 138.689C11.0038 138.789 11.3938 138.869 11.7938 138.969C12.1938 139.069 12.5838 139.149 12.9738 139.239C13.3638 139.329 13.7338 139.469 14.1338 139.559C14.0838 140.019 14.0638 140.459 14.0738 140.899C14.0838 141.339 14.1638 141.799 14.2338 142.239C14.3038 142.679 14.3538 143.139 14.4738 143.569C14.5938 143.999 14.7438 144.429 14.9138 144.849C15.0838 145.269 15.2838 145.669 15.4838 146.069C15.6838 146.469 15.8838 146.879 16.1038 147.269C16.3238 147.659 16.5438 148.049 16.7838 148.439C17.0238 148.829 17.2938 149.189 17.5338 149.569C17.7738 149.949 18.0138 150.329 18.2438 150.709C18.1738 151.209 18.0938 151.679 17.9438 152.089C17.7738 152.559 17.5338 152.969 17.2638 153.329C16.9738 153.709 16.6038 153.989 16.2038 154.249C15.8038 154.509 15.4038 154.709 14.9438 154.849C14.5138 154.979 14.0638 155.119 13.5738 155.169C13.1038 155.219 12.6638 155.169 12.2438 155.109C11.7938 155.039 11.3638 154.929 10.9738 154.739C10.5838 154.549 10.2138 154.299 9.8738 154.009C9.5338 153.719 9.2338 153.419 8.9538 153.059C8.6738 152.699 8.44379 152.349 8.22379 151.949C8.00379 151.559 7.8138 151.149 7.6238 150.759C7.4338 150.369 7.2538 149.949 7.0938 149.539C6.9338 149.129 6.73379 148.719 6.60379 148.299C6.47379 147.879 6.4038 147.429 6.3138 146.999C6.2238 146.569 6.1238 146.129 6.0638 145.689C6.0038 145.249 5.9538 144.809 5.9338 144.359C5.9138 143.909 5.95379 143.479 5.97379 143.029C5.99379 142.579 5.9738 142.139 6.0338 141.699C6.0938 141.259 6.2238 140.839 6.3238 140.399C6.4238 139.959 6.5138 139.539 6.6438 139.109C6.7738 138.679 6.9138 138.279 7.0738 137.859V137.869Z" fill="#FF8792"/>
<path d="M32.0438 162.989C32.4638 163.019 32.8738 163.059 33.2938 163.089C33.7138 163.119 34.1338 163.129 34.5538 163.159C34.9738 163.189 35.3938 163.219 35.8138 163.249C36.2338 163.279 36.6538 163.269 37.0738 163.299C37.4938 163.329 37.9138 163.359 38.3338 163.389C38.7538 163.419 39.1738 163.469 39.5938 163.489C40.0138 163.509 40.4338 163.539 40.8638 163.569C41.2938 163.599 41.7038 163.629 42.1238 163.649C42.5438 163.669 42.9638 163.729 43.3938 163.749C43.8238 163.769 44.2138 163.819 44.6438 163.849C44.4538 164.219 44.2938 164.569 44.1138 164.929C43.9338 165.289 43.7338 165.659 43.5638 166.019C43.3938 166.379 43.1838 166.749 43.0038 167.099C42.8238 167.449 42.6538 167.839 42.4638 168.189C42.2738 168.539 42.0838 168.909 41.8838 169.249C41.6838 169.589 41.4538 169.939 41.2338 170.269C40.9338 170.709 40.6138 171.049 40.2838 171.309C39.8938 171.629 39.4638 171.809 39.0238 171.909C38.5838 172.009 38.1238 172.009 37.6238 171.929C37.1938 171.859 36.7438 171.749 36.2638 171.569C35.8438 171.409 35.4638 171.189 35.1038 170.959C34.7438 170.729 34.3538 170.489 34.0338 170.199C33.7138 169.909 33.4038 169.579 33.1438 169.229C32.8838 168.879 32.6838 168.479 32.4938 168.089C32.3038 167.699 32.1538 167.289 32.0438 166.859C31.9338 166.429 31.8538 166.009 31.8138 165.569C31.7738 165.129 31.7738 164.699 31.8138 164.259C31.8538 163.819 31.9538 163.409 32.0638 162.979L32.0438 162.989Z" fill="#FFD100"/>
<path d="M82.0238 166.249C82.1438 166.699 82.3438 167.219 82.3838 167.759C82.4138 168.229 82.4538 168.649 82.4438 169.039C82.4238 169.519 82.3738 169.939 82.2838 170.319C82.1738 170.779 81.9938 171.169 81.7638 171.479C81.5038 171.819 81.1738 172.089 80.7638 172.269C80.4138 172.429 79.9938 172.509 79.5238 172.559C79.1438 172.599 78.7138 172.589 78.2438 172.559C77.8438 172.539 77.4238 172.519 76.9638 172.459C76.5138 172.399 76.0838 172.299 75.6838 172.179C75.2538 172.049 74.8638 171.859 74.4938 171.659C74.1038 171.449 73.7538 171.199 73.4338 170.909C73.1138 170.619 72.7938 170.319 72.5438 169.959C72.2938 169.599 72.0838 169.219 71.9238 168.809C71.7638 168.399 71.6438 167.989 71.5638 167.559C71.4838 167.129 71.4338 166.709 71.4338 166.259C71.4338 165.839 71.4638 165.389 71.5338 164.939C71.9738 164.989 72.4238 165.049 72.8538 165.109C73.2838 165.169 73.7238 165.209 74.1638 165.259C74.6038 165.309 75.0338 165.369 75.4738 165.429C75.9138 165.489 76.3438 165.549 76.7838 165.599C77.2238 165.649 77.6538 165.709 78.0938 165.769C78.5338 165.829 78.9638 165.889 79.4038 165.939C79.8438 165.989 80.2738 166.029 80.7138 166.089C81.1538 166.149 81.6038 166.189 82.0438 166.239L82.0238 166.249Z" fill="#FFD100"/>
</svg>
