<svg width="70" height="52" viewBox="0 0 70 52" fill="none" xmlns="http://www.w3.org/2000/svg">
<path d="M70 44.7157C69.9843 44.5347 69.941 44.342 69.9213 44.1335C69.9056 43.9487 69.9371 43.748 69.9213 43.5474C69.9056 43.3586 69.9292 43.158 69.9135 42.9613C69.8977 42.7647 69.8348 42.5798 69.8151 42.3792C69.7955 42.1786 69.7168 41.9976 69.6971 41.801C69.6775 41.6043 69.7837 41.3998 69.7679 41.2031C69.7522 41.0064 69.7404 40.8097 69.7247 40.617C69.7089 40.4243 69.6263 40.2315 69.6067 40.0388C69.587 39.846 69.5949 39.6415 69.5791 39.4527C69.5595 39.2521 69.5123 39.0593 69.4926 38.8705C69.4729 38.666 69.5083 38.4654 69.4887 38.2845C69.469 38.0839 69.4415 37.8872 69.4218 37.6866C69.4021 37.486 69.4139 37.2854 69.3982 37.0847C69.3824 36.8841 69.2802 36.6914 69.2605 36.4908C69.2408 36.2902 69.1897 36.0935 69.174 35.8929C69.1582 35.6923 69.174 35.4917 69.1582 35.2911C69.1425 35.0905 69.1386 34.8899 69.1189 34.6893C69.0992 34.4887 69.0206 34.2959 69.0048 34.0953C68.9891 33.8947 69.0206 33.6902 69.0048 33.4896C68.9852 33.2968 69.0402 33.0923 69.0245 32.8995C69.0088 32.7068 68.9419 32.5141 68.9222 32.3213C68.9026 32.1286 68.9183 31.928 68.8986 31.7352C68.879 31.5425 68.7924 31.3537 68.7728 31.157C68.7531 30.9603 68.7413 30.7676 68.7216 30.5749C68.702 30.3821 68.7374 30.1815 68.7177 29.9848C68.698 29.7882 68.702 29.5954 68.6823 29.3987C68.6626 29.2021 68.6312 29.0093 68.6154 28.8166C68.5997 28.6239 68.5643 28.4272 68.5446 28.2344C68.5249 28.0417 68.521 27.845 68.5053 27.6484C68.4896 27.4517 68.4699 27.2589 68.4502 27.0662C68.4305 26.8735 68.2929 26.6886 68.2771 26.4959C68.2575 26.2952 68.2417 26.0986 68.2221 25.898C68.2024 25.6974 68.1788 25.5007 68.1591 25.304C68.1395 25.1073 68.2142 24.8989 68.1945 24.6983C68.1749 24.4976 68.0647 24.3088 68.0451 24.1122C68.0254 23.9155 68.1316 23.7031 68.1159 23.5025C68.1001 23.3019 68.0647 23.1052 68.049 22.9085C68.0333 22.7119 67.9664 22.5152 67.9467 22.3185C67.9271 22.1218 67.9035 21.9212 67.8838 21.7246C67.8641 21.5279 67.8248 21.3273 67.8051 21.1306C67.7855 20.9339 67.7579 20.7333 67.7383 20.5366C67.7186 20.34 67.6753 20.1433 67.6596 19.9427C67.6439 19.7421 67.6793 19.5415 67.6596 19.3409C67.6399 19.1403 67.636 18.9436 67.6203 18.743C67.6045 18.5424 67.5652 18.3457 67.5495 18.149C67.5337 17.9524 67.5219 17.7517 67.5062 17.5511C67.4904 17.3505 67.4354 17.1499 67.4196 16.9493C67.4039 16.7487 67.4826 16.5363 67.4669 16.3357C67.4511 16.1351 67.3252 15.9424 67.3095 15.7378C67.2938 15.5333 67.282 15.3327 67.2662 15.1321C67.2505 14.9315 67.3134 14.723 67.2977 14.5224C67.282 14.3218 67.2308 14.1212 67.2151 13.9206C67.1994 13.7199 67.1994 13.5154 67.1836 13.3148C67.1679 13.1142 67.1522 12.9096 67.1364 12.709C67.1207 12.5084 67.1522 12.3039 67.1364 12.0994C67.1207 11.8948 67.0184 11.7021 67.0027 11.5015C66.987 11.3009 67.0892 11.0885 67.0735 10.8878C67.0578 10.6872 66.9988 10.4866 66.983 10.286C66.9673 10.0854 66.928 9.88481 66.9122 9.68421C66.8965 9.4836 66.9319 9.27513 66.9162 9.07452C66.9004 8.87391 66.8218 8.67724 66.806 8.4727C66.7903 8.26816 66.751 8.07148 66.7392 7.87088C66.7274 7.67027 66.7942 7.4618 66.7785 7.25726C66.7628 7.05272 66.747 6.85211 66.7313 6.6515C66.7156 6.45876 66.6133 6.27389 66.5976 6.07722C66.5818 5.88054 66.5543 5.69174 66.5346 5.499C66.5149 5.30626 66.4795 5.11745 66.4559 4.92471C66.4324 4.73197 66.4796 4.53136 66.4441 4.33862C66.4087 4.14588 66.3419 3.96494 66.2947 3.77614C66.2475 3.58733 66.1491 3.41819 66.0862 3.23332C66.0233 3.04845 65.9761 2.86751 65.8974 2.68657C65.7873 2.43482 65.7007 2.21848 65.5276 2.07688C65.3546 1.93527 65.1422 1.82514 64.859 1.8094C64.6544 1.7976 64.4459 1.77794 64.2414 1.75827C64.0369 1.7386 63.8284 1.7268 63.6239 1.70713C63.4193 1.68747 63.2069 1.74253 63.0024 1.72287C62.7978 1.7032 62.5933 1.6442 62.3887 1.6324C62.1881 1.62453 61.9875 1.67566 61.7869 1.6678C61.5863 1.65993 61.3936 1.53013 61.193 1.52226C60.9924 1.51439 60.7878 1.62453 60.5872 1.61666C60.3866 1.6088 60.1939 1.46326 59.9933 1.45539C59.7927 1.44752 59.5881 1.55766 59.3875 1.54979C59.1869 1.54193 58.9863 1.52226 58.7857 1.51439C58.5851 1.50653 58.3845 1.51439 58.1839 1.50653C57.9833 1.49866 57.7866 1.37672 57.586 1.37279C57.3854 1.36885 57.1808 1.47899 56.9802 1.47112C56.7796 1.46326 56.5829 1.32165 56.3823 1.31772C56.1817 1.31379 55.9811 1.31772 55.7805 1.30985C55.5799 1.30199 55.3754 1.41606 55.1748 1.40819C54.9742 1.40032 54.7775 1.29412 54.5769 1.29019C54.3841 1.29019 54.1914 1.32165 54.0026 1.31772C53.8138 1.31379 53.6171 1.38852 53.4283 1.38852C53.2395 1.38852 53.0468 1.25478 52.854 1.25478C52.6613 1.25478 52.4685 1.29019 52.2797 1.29019C52.0909 1.29019 51.8942 1.32952 51.7054 1.32952C51.5166 1.32952 51.3239 1.30199 51.1312 1.30199C50.9384 1.30199 50.7496 1.26265 50.5569 1.26265C50.3641 1.26265 50.1714 1.34525 49.9826 1.34525C49.7938 1.34525 49.601 1.29805 49.4083 1.29805C49.2156 1.29805 49.0228 1.32165 48.834 1.32165C48.6452 1.32165 48.4485 1.35705 48.2597 1.35312C48.0709 1.34919 47.8782 1.25872 47.6854 1.25872C47.4927 1.25872 47.3039 1.25872 47.1112 1.25872C46.9184 1.25872 46.7257 1.28625 46.5369 1.28232C46.3481 1.27838 46.1553 1.25478 45.9626 1.25085C45.7698 1.24692 45.581 1.22725 45.3883 1.22332C45.1956 1.21938 44.9989 1.24692 44.8022 1.24298C44.6055 1.23905 44.4128 1.23118 44.2201 1.23118C44.0273 1.23118 43.8306 1.23905 43.6379 1.23905C43.4452 1.23905 43.2485 1.27445 43.0557 1.27052C42.863 1.26658 42.6663 1.22332 42.4736 1.22332C42.2808 1.22332 42.0842 1.27445 41.8914 1.27445C41.6987 1.27445 41.502 1.18398 41.3093 1.18398C41.1165 1.18398 40.9199 1.18398 40.7271 1.18398C40.5344 1.18398 40.3377 1.20758 40.145 1.20758C39.9522 1.20758 39.7556 1.28232 39.5628 1.28232C39.3701 1.28232 39.1734 1.21545 38.9807 1.21545C38.7879 1.21545 38.5913 1.16038 38.3985 1.16038C38.2058 1.16038 38.0091 1.23905 37.8164 1.23905C37.6236 1.23905 37.427 1.24298 37.2342 1.23905C37.0415 1.23512 36.8448 1.27838 36.6521 1.27445C36.4593 1.27052 36.2666 1.13678 36.0699 1.13285C35.8732 1.12891 35.6805 1.14071 35.4878 1.13285C35.295 1.12498 35.0983 1.21938 34.9017 1.21545C34.705 1.21152 34.5162 1.14071 34.3195 1.13678C34.1228 1.12891 33.9301 1.08564 33.7374 1.07778C33.5446 1.06991 33.3479 1.04238 33.1552 1.03844C32.9625 1.03451 32.7658 1.03844 32.5691 1.03451C32.3724 1.03058 32.1797 1.01484 31.983 1.01091C31.7864 1.00698 31.5897 1.12498 31.393 1.12105C31.1963 1.11711 31.0036 1.08171 30.8109 1.07778C30.6181 1.07384 30.4214 0.999109 30.2287 0.995175C30.036 0.991242 29.8354 1.04631 29.6426 1.04238C29.4499 1.03844 29.2532 0.999109 29.0605 0.995175C28.8677 0.991242 28.6711 0.975508 28.4744 0.971575C28.2777 0.967641 28.085 0.991242 27.8883 0.983375C27.6916 0.975508 27.4989 0.928306 27.3061 0.924373C27.1134 0.920439 26.9128 0.995175 26.7201 0.991242C26.5273 0.987308 26.3346 0.892905 26.1379 0.888972C25.9491 0.881105 25.7603 0.857504 25.5715 0.857504C25.3827 0.857504 25.1939 0.892905 25.0051 0.892905C24.8163 0.892905 24.6274 0.900772 24.4426 0.900772C24.2577 0.900772 24.065 0.845703 23.8762 0.845703C23.6873 0.845703 23.5025 0.877171 23.3137 0.881104C23.1249 0.885038 22.94 0.94404 22.7512 0.947973C22.5584 0.951907 22.3657 0.904705 22.169 0.908639C21.9724 0.912572 21.7835 0.924373 21.5908 0.924373C21.3981 0.924373 21.2053 0.987308 21.0126 0.991242C20.8198 0.995175 20.6271 1.01091 20.4344 1.01484C20.2416 1.01878 20.0489 1.00698 19.8561 1.01091C19.6634 1.01484 19.4707 0.904705 19.274 0.908639C19.0773 0.912572 18.8885 1.01878 18.6958 1.01878C18.503 1.01878 18.3103 1.04238 18.1176 1.04631C17.9248 1.05024 17.7321 0.999109 17.5393 1.00304C17.3466 1.00698 17.1539 1.05811 16.9611 1.05811C16.7684 1.05811 16.5717 0.963708 16.379 0.967641C16.1862 0.971575 15.9935 1.05418 15.8007 1.05418C15.608 1.05418 15.4113 0.963708 15.2186 0.967641C15.0259 0.971575 14.8331 1.00304 14.6404 1.00698C14.4476 1.01091 14.2549 0.995176 14.0622 1.00304C13.8694 1.01091 13.6767 0.995176 13.4839 1.00304C13.2912 1.01091 13.0984 1.08958 12.9057 1.09351C12.713 1.10138 12.5163 1.09351 12.3196 1.09351C12.1229 1.09351 11.9302 1.09745 11.7335 1.09745C11.5369 1.09745 11.3441 1.08958 11.1474 1.08564C10.9508 1.08171 10.758 1.15645 10.5614 1.15645C10.3647 1.15645 10.1719 1.15645 9.97528 1.15645C9.7786 1.15645 9.58193 1.08958 9.38525 1.09351C9.18858 1.09745 8.99191 1.08565 8.79917 1.09351C8.60643 1.10138 8.40976 1.12498 8.21308 1.14071C8.00854 1.15251 7.804 1.10531 7.59946 1.10925C7.39492 1.11318 7.19038 1.12498 6.98977 1.12498C6.78917 1.12498 6.58463 1.23512 6.38009 1.23905C6.17555 1.24298 5.97494 1.21152 5.7704 1.22332C5.56586 1.23512 5.37312 1.30592 5.16858 1.33345C4.96797 1.36099 4.80276 1.39639 4.64936 1.45539C4.46449 1.52619 4.28355 1.55766 4.15768 1.67567C4.03181 1.79367 3.98854 1.97068 3.9138 2.15162C3.85087 2.30502 3.72893 2.45843 3.70139 2.65903C3.67386 2.84784 3.64632 3.03665 3.62272 3.22545C3.59912 3.41426 3.57159 3.60307 3.54406 3.79187C3.51652 3.98068 3.47719 4.16555 3.44965 4.35436C3.42212 4.54316 3.50079 4.7477 3.47325 4.93651C3.44572 5.12532 3.38278 5.31019 3.35525 5.499C3.32771 5.6878 3.27658 5.87268 3.24905 6.06148C3.22151 6.25029 3.22938 6.44303 3.20184 6.63183C3.17431 6.82064 3.08384 7.00158 3.06024 7.19039C3.03664 7.37919 3.00124 7.568 2.97764 7.75681C2.95403 7.94561 3.0209 8.14622 2.9973 8.33503C2.9737 8.52383 2.97764 8.71657 2.95403 8.90538C2.93043 9.10205 2.81243 9.29086 2.79276 9.49147C2.7731 9.69207 2.81636 9.89661 2.79276 10.0933C2.76916 10.29 2.72589 10.4866 2.70623 10.6872C2.68656 10.8878 2.69443 11.0885 2.67476 11.2851C2.65509 11.4818 2.65509 11.6863 2.63149 11.883C2.60789 12.0797 2.52922 12.2724 2.50955 12.473C2.48989 12.6736 2.42695 12.8664 2.40335 13.0631C2.37975 13.2597 2.33255 13.4564 2.31288 13.657C2.29321 13.8576 2.32468 14.0582 2.30501 14.2588C2.28534 14.4594 2.31288 14.66 2.29321 14.8607C2.27354 15.0613 2.22241 15.254 2.20274 15.4546C2.18308 15.6552 2.14374 15.8519 2.12407 16.0486C2.10441 16.2452 2.05327 16.4419 2.0336 16.6425C2.01394 16.8431 1.9746 17.0359 1.951 17.2365C1.9274 17.4371 1.91167 17.6337 1.88806 17.8344C1.86446 18.035 1.93527 18.2395 1.9156 18.4401C1.89593 18.6407 1.80546 18.8295 1.78579 19.0301C1.76613 19.2307 1.72679 19.4274 1.70713 19.6241C1.68746 19.8208 1.68746 20.0253 1.66779 20.222C1.64812 20.4186 1.67566 20.6232 1.65599 20.8238C1.63632 21.0244 1.59305 21.2171 1.57339 21.4177C1.55372 21.6105 1.51832 21.7993 1.49865 21.992C1.47898 22.1848 1.47898 22.3775 1.46325 22.5702C1.44752 22.763 1.41605 22.9518 1.39638 23.1445C1.37671 23.3373 1.33345 23.5261 1.31378 23.7188C1.29411 23.9116 1.25871 24.1004 1.24298 24.2931C1.22724 24.4858 1.28231 24.6825 1.26658 24.8753C1.25084 25.068 1.14464 25.2529 1.13284 25.4456C1.12104 25.6384 1.09744 25.8311 1.08564 26.0238C1.0699 26.2284 1.13284 26.4408 1.12104 26.6493C1.10924 26.8577 1.1171 27.0623 1.10137 27.2707C1.08564 27.4792 1.05024 27.6838 1.0345 27.8883C1.01877 28.0928 1.01877 28.3013 1.00697 28.5098C0.995167 28.7183 0.947966 28.9189 0.936165 29.1273C0.924365 29.3358 0.936166 29.5404 0.920432 29.7488C0.904698 29.9573 0.928299 30.1658 0.916498 30.3703C0.904698 30.5749 0.849629 30.7794 0.837828 30.9879C0.826028 31.1963 0.751292 31.397 0.735558 31.6015C0.719824 31.806 0.802428 32.0224 0.786694 32.2269C0.774893 32.4236 0.660822 32.6124 0.645089 32.8091C0.629355 33.0057 0.652955 33.2063 0.637221 33.403C0.621488 33.5997 0.664756 33.8003 0.652956 33.997C0.641155 34.1936 0.578219 34.3864 0.566419 34.5831C0.554619 34.7797 0.491683 34.9725 0.479883 35.1691C0.468082 35.3658 0.566419 35.5704 0.554619 35.767C0.542819 35.9637 0.519217 36.1604 0.503483 36.3571C0.48775 36.5537 0.393346 36.7465 0.377613 36.9431C0.361879 37.1398 0.420881 37.3404 0.40908 37.5371C0.39728 37.7338 0.287143 37.9226 0.271409 38.1192C0.255675 38.3159 0.287143 38.5165 0.271409 38.7132C0.255675 38.9099 0.306811 39.1105 0.29501 39.3072C0.28321 39.5038 0.247809 39.7005 0.232075 39.8972C0.216341 40.0938 0.20454 40.2905 0.19274 40.4872C0.180939 40.6839 0.184872 40.8805 0.173072 41.0772C0.161272 41.2739 0.0590016 41.4666 0.0472012 41.6633C0.0354008 41.86 0.141605 42.0645 0.129804 42.2612C0.118004 42.4579 0.0944029 42.6545 0.0826025 42.8512C0.0708021 43.0321 0 43.217 0 43.4019C0 43.5868 0.0865364 43.7638 0.10227 43.9486C0.118004 44.1335 0.0157335 44.3341 0.0472012 44.5151C0.078669 44.696 0.121937 44.8848 0.177006 45.0618C0.239941 45.2703 0.381546 45.4473 0.444482 45.6361C0.515284 45.8406 0.515284 46.0649 0.59002 46.2537C0.664756 46.4543 0.767026 46.6391 0.845696 46.8319C0.924365 47.0246 1.03844 47.2056 1.12104 47.3983C1.20364 47.591 1.26264 47.7916 1.34525 47.9844C1.42785 48.1771 1.50258 48.3659 1.58519 48.5626C1.66779 48.7593 1.75433 48.9363 1.833 49.1408C1.9038 49.3296 2.0454 49.5027 2.11621 49.7072C2.18307 49.9039 2.23028 50.0888 2.34828 50.2304C2.47415 50.3838 2.59609 50.5569 2.76523 50.6513C2.93437 50.7457 3.13104 50.8243 3.32771 50.8597C3.53619 50.8991 3.7604 50.8598 3.9728 50.8873C4.18521 50.9148 4.39762 50.9856 4.61002 50.9935C4.82243 51.0014 5.03877 50.9188 5.25118 50.9148C5.35738 50.9148 5.56192 50.9502 5.83727 50.9424C6.00641 50.9384 6.19915 50.8755 6.41942 50.8676C6.60036 50.8597 6.79703 50.9542 7.00944 50.9463C7.19431 50.9384 7.39099 50.9148 7.59553 50.907C7.78433 50.8991 7.97707 50.8361 8.18161 50.8283C8.37042 50.8204 8.56709 50.8204 8.7677 50.8125C8.96831 50.8047 9.15318 50.785 9.35379 50.7811C9.55439 50.7771 9.7432 50.8362 9.93987 50.8322C10.1365 50.8283 10.3254 50.7339 10.522 50.7299C10.7187 50.726 10.9154 50.8322 11.1081 50.8243C11.3009 50.8165 11.4975 50.8047 11.6942 50.7968C11.8909 50.7889 12.0836 50.7378 12.2803 50.7339C12.477 50.7299 12.6736 50.7496 12.8703 50.7457C13.067 50.7417 13.2637 50.667 13.4564 50.6631C13.6491 50.6591 13.8497 50.7496 14.0464 50.7496C14.2431 50.7496 14.4398 50.7614 14.6325 50.7575C14.8252 50.7535 15.0259 50.6513 15.2186 50.6473C15.4113 50.6434 15.6159 50.6827 15.8047 50.6827C16.0092 50.6827 16.202 50.7299 16.3908 50.7299C16.5953 50.7299 16.792 50.6395 16.9768 50.6395C17.1853 50.6395 17.382 50.7142 17.559 50.7221C17.7596 50.7299 17.9642 50.6788 18.1648 50.6867C18.3654 50.6945 18.566 50.6788 18.7666 50.6867C18.9672 50.6945 19.1639 50.8008 19.3645 50.8086C19.5651 50.8165 19.7657 50.8479 19.9663 50.8558C20.1669 50.8637 20.3714 50.8047 20.572 50.8125C20.7726 50.8204 20.9733 50.844 21.1739 50.8479C21.3745 50.8519 21.5751 50.8598 21.7757 50.8637C21.9763 50.8676 22.1769 50.8598 22.3775 50.8637C22.5781 50.8676 22.7787 50.8794 22.9793 50.8833C23.1799 50.8873 23.3805 50.8558 23.5811 50.8597C23.7817 50.8637 23.9824 50.9266 24.183 50.9345C24.3836 50.9424 24.5842 50.8873 24.7887 50.8912C24.9933 50.8951 25.1899 50.8912 25.3905 50.8951C25.5911 50.8991 25.7917 50.9896 25.9924 50.9896C26.193 50.9896 26.3936 50.9463 26.5942 50.9463C26.7948 50.9463 26.9954 50.9699 27.196 50.9699C27.3966 50.9699 27.5972 50.8912 27.7978 50.8912C27.9984 50.8912 28.199 50.962 28.3996 50.9581C28.5963 50.9581 28.7969 50.907 28.9936 50.907C29.1903 50.907 29.3909 50.9266 29.5876 50.9266C29.7842 50.9266 29.9848 50.9502 30.1815 50.9502C30.3782 50.9502 30.5788 50.8794 30.7755 50.8794C30.9721 50.8794 31.1727 50.9266 31.3694 50.9266C31.5661 50.9266 31.7667 50.8676 31.9634 50.8715C32.16 50.8755 32.3606 50.8951 32.5573 50.8951C32.754 50.8951 32.9546 50.9896 33.1513 50.9896C33.3479 50.9896 33.5486 50.9227 33.7452 50.9227C33.9419 50.9227 34.1425 50.9227 34.3392 50.9227C34.5359 50.9227 34.7365 50.8991 34.9331 50.903C35.1298 50.907 35.3304 50.9148 35.5271 50.9188C35.7238 50.9227 35.9244 50.9424 36.121 50.9424C36.3177 50.9424 36.5183 51.0171 36.715 51.0171C36.9117 51.0171 37.1123 51.0053 37.3089 51.0053C37.5017 51.0053 37.6944 50.9109 37.8832 50.9109C38.072 50.9109 38.2648 50.9109 38.4575 50.9109C38.6503 50.9109 38.8391 50.9581 39.0318 50.9581C39.2245 50.9581 39.4134 50.9227 39.6061 50.9227C39.7988 50.9227 39.9876 50.9581 40.1804 50.9581C40.3731 50.9581 40.5659 51.0171 40.7547 51.0132C40.9435 51.0092 41.1362 50.9227 41.329 50.9188C41.5217 50.9148 41.7144 50.9856 41.9072 50.9817C42.1117 50.9738 42.3123 50.9345 42.5169 50.9227C42.7214 50.9109 42.9181 50.8361 43.1226 50.8243C43.3272 50.8125 43.5317 50.8322 43.7323 50.8243C43.9329 50.8165 44.1453 50.9069 44.3459 50.8951C44.5465 50.8833 44.7432 50.7378 44.9477 50.7299C45.1523 50.7221 45.3529 50.7103 45.5574 50.6985C45.762 50.6867 45.9665 50.7299 46.1711 50.7181C46.3756 50.7063 46.5762 50.7024 46.7807 50.6945C46.9853 50.6867 47.1859 50.6749 47.3904 50.667C47.595 50.6591 47.7995 50.6985 48.0001 50.6906C48.2007 50.6827 48.4053 50.6788 48.6098 50.6749C48.8065 50.6709 49.0032 50.6709 49.1998 50.667C49.3965 50.6631 49.5892 50.5883 49.7859 50.5844C49.9826 50.5805 50.1793 50.608 50.3759 50.6041C50.5726 50.6001 50.7653 50.5175 50.962 50.5136C51.1587 50.5097 51.3554 50.6355 51.552 50.6316C51.7487 50.6277 51.9454 50.6237 52.1421 50.6198C52.3387 50.6159 52.5354 50.5923 52.7321 50.5883C52.9287 50.5844 53.1254 50.5687 53.3221 50.5687C53.5188 50.5687 53.7154 50.5293 53.9121 50.5293C54.1088 50.5293 54.3055 50.549 54.5021 50.5451C54.6988 50.5411 54.8955 50.5529 55.0922 50.5529C55.2888 50.5529 55.4855 50.5333 55.6822 50.5293C55.8789 50.5254 56.0755 50.5687 56.2722 50.5647C56.4689 50.5608 56.6616 50.4625 56.8583 50.4585C57.055 50.4546 57.2516 50.4625 57.4483 50.4585C57.645 50.4546 57.8417 50.5411 58.0383 50.5372C58.235 50.5333 58.4277 50.4546 58.6244 50.4507C58.8211 50.4467 59.0178 50.4428 59.2144 50.4389C59.4111 50.4349 59.6078 50.4939 59.8045 50.49C60.0011 50.4861 60.1939 50.4113 60.3905 50.4074C60.5951 50.4035 60.7878 50.4782 60.9727 50.4821C61.1772 50.4861 61.3739 50.4153 61.5588 50.4271C61.7555 50.4389 61.9482 50.4389 62.1409 50.4507C62.3337 50.4625 62.5225 50.4507 62.7192 50.4585C62.908 50.4625 63.0968 50.5569 63.3013 50.549C63.4862 50.5451 63.6789 50.5097 63.8835 50.4939C64.0526 50.4821 64.2414 50.4939 64.442 50.49C64.619 50.49 64.8118 50.49 65.0045 50.49C65.1972 50.49 65.3782 50.4743 65.567 50.4625C65.7558 50.4507 65.9328 50.3405 66.1137 50.313C66.3065 50.2815 66.511 50.3366 66.6802 50.2776C66.865 50.2147 67.042 50.1321 67.1915 50.0259C67.341 49.9197 67.3921 49.719 67.4905 49.5538C67.5613 49.428 67.7225 49.2785 67.8523 49.0622C67.9467 48.9048 68.0569 48.7317 68.167 48.5429C68.2653 48.3777 68.4227 48.2322 68.5289 48.0513C68.6312 47.8821 68.702 47.6854 68.8003 47.5084C68.8986 47.3314 68.9852 47.1466 69.0835 46.9695C69.1818 46.7925 69.3353 46.6352 69.4257 46.4621C69.5241 46.2733 69.5673 46.0649 69.646 45.8957C69.7404 45.6951 69.8663 45.522 69.9292 45.3529C70.0236 45.1012 70 44.8809 69.9882 44.7511L70 44.7157Z" fill="white"/>
<path d="M66.7431 13.4249C66.7116 13.244 66.633 13.0512 66.6054 12.8349C66.5818 12.6461 66.6487 12.4376 66.6251 12.2252C66.6054 12.0325 66.5897 11.8319 66.57 11.6234C66.5543 11.4267 66.515 11.23 66.4992 11.0216C66.4835 10.8131 66.393 10.6282 66.3812 10.4237C66.3694 10.2191 66.4166 10.0185 66.4009 9.81399C66.3852 9.60945 66.4284 9.40884 66.4127 9.20823C66.397 9.00763 66.3026 8.81489 66.2908 8.61035C66.279 8.40581 66.2554 8.20913 66.2396 8.00852C66.2239 7.80792 66.1649 7.60731 66.1492 7.4067C66.1334 7.2061 66.2436 6.98976 66.2239 6.78915C66.2042 6.58854 66.1728 6.38794 66.1492 6.18733C66.1256 5.98672 66.0115 5.79398 65.9879 5.59731C65.9643 5.3967 66.0076 5.20003 65.9879 5.01909C65.9722 4.81455 65.9958 4.62181 65.9879 4.44087C65.9761 4.2324 65.9879 4.04359 65.984 3.86658C65.9761 3.65024 65.9564 3.4575 65.9446 3.2923C65.9328 3.04842 65.9131 2.84388 65.8699 2.71408C65.8109 2.541 65.6103 2.3168 65.5237 2.305C65.2995 2.27353 65.2759 2.28533 65.0321 2.40727C64.7646 2.54494 64.7724 2.45447 64.4578 2.60001C64.2926 2.67868 64.1274 2.82028 63.9386 2.91075C63.7497 3.00122 63.5491 3.06022 63.38 3.14283C63.1401 3.2569 62.9394 3.3513 62.8372 3.40637C62.668 3.50077 62.5068 3.62664 62.3258 3.73285C62.1567 3.83118 61.96 3.89805 61.783 4.00426C61.606 4.11046 61.4801 4.2796 61.3071 4.38973C61.134 4.49987 60.9216 4.52741 60.7446 4.63361C60.5676 4.73981 60.3906 4.83028 60.2175 4.93649C60.0444 5.04269 59.8949 5.1843 59.7219 5.2905C59.5488 5.3967 59.3836 5.51077 59.2105 5.62091C59.0374 5.73105 58.8329 5.78612 58.6638 5.89625C58.4946 6.00639 58.3334 6.13619 58.1603 6.24633C57.9872 6.35647 57.8417 6.50987 57.6725 6.61608C57.5034 6.72228 57.3028 6.79308 57.1337 6.89929C56.9645 7.00549 56.7914 7.1235 56.6223 7.2297C56.4532 7.3359 56.3037 7.49718 56.1385 7.59945C55.9615 7.70958 55.7963 7.83152 55.6311 7.92986C55.4659 8.02819 55.2967 8.1226 55.1354 8.22093C54.9742 8.31927 54.7539 8.33107 54.5887 8.43334C54.4235 8.53561 54.3173 8.72442 54.156 8.82669C53.9947 8.92896 53.8413 9.05089 53.6801 9.15316C53.5188 9.25543 53.33 9.31837 53.1687 9.42064C53.0074 9.52291 52.8737 9.66845 52.7085 9.77072C52.5433 9.87299 52.3309 9.89659 52.1735 9.99886C52.0162 10.1011 51.8943 10.2742 51.733 10.3765C51.5717 10.4787 51.3593 10.5063 51.1981 10.6085C51.0368 10.7108 50.8912 10.8406 50.73 10.9429C50.5687 11.0452 50.3996 11.1356 50.2383 11.2418C50.077 11.348 49.9039 11.4346 49.7427 11.5368C49.5814 11.6391 49.4595 11.8043 49.2982 11.9105C49.1369 12.0167 48.9678 12.1072 48.8065 12.2095C48.6452 12.3117 48.484 12.414 48.3187 12.5163C48.1535 12.6186 47.9883 12.713 47.8271 12.8152C47.6619 12.9175 47.5321 13.0827 47.3669 13.1889C47.2016 13.2951 47.0325 13.3974 46.8673 13.4996C46.7021 13.6019 46.4976 13.6491 46.3323 13.7553C46.1671 13.8615 45.9941 13.952 45.8249 14.0543C45.6558 14.1565 45.5024 14.2745 45.3332 14.3807C45.1641 14.4869 44.9714 14.542 44.8062 14.6443C44.641 14.7466 44.4757 14.8567 44.3105 14.9629C44.1453 15.0691 44.0313 15.2579 43.8661 15.3602C43.7009 15.4624 43.5121 15.5332 43.3468 15.6395C43.1816 15.7457 43.04 15.8873 42.8748 15.9935C42.7096 16.0997 42.5405 16.198 42.3753 16.3042C42.2101 16.4104 42.0095 16.4576 41.8403 16.5599C41.6712 16.6622 41.5375 16.8156 41.3722 16.9178C41.207 17.0201 40.9946 17.0516 40.8294 17.1578C40.6642 17.264 40.4951 17.3623 40.3299 17.4685C40.1647 17.5747 39.9955 17.677 39.8303 17.7793C39.6651 17.8815 39.4881 17.972 39.3229 18.0743C39.1577 18.1765 39.0436 18.3693 38.8784 18.4715C38.7132 18.5738 38.5244 18.6446 38.3592 18.7469C38.194 18.8492 38.0091 18.9278 37.8439 19.034C37.6787 19.1402 37.5253 19.2661 37.3601 19.3684C37.1949 19.4707 36.9904 19.5179 36.8252 19.6201C36.66 19.7224 36.4869 19.8168 36.3177 19.923C36.1486 20.0292 36.0306 20.2023 35.8654 20.3085C35.7002 20.4147 35.5428 20.5327 35.3776 20.6389C35.2124 20.7451 34.9961 20.7648 34.827 20.871C34.7247 20.9339 34.6618 21.0676 34.5595 21.1424C34.5595 21.1424 34.5477 21.1188 34.5437 21.1188C34.2841 21.2761 34.3038 21.3036 34.0442 21.461C33.7846 21.6183 33.7964 21.638 33.5407 21.7953C33.285 21.9527 33.2536 21.9055 32.994 22.0628C32.7343 22.2201 32.7147 22.1887 32.4551 22.346C32.1955 22.5034 32.1758 22.4758 31.9241 22.641C31.7077 22.7826 31.7392 22.8338 31.5268 22.9832C31.3144 23.1327 31.3419 23.172 31.1295 23.3215C30.9171 23.471 30.9014 23.4474 30.685 23.5969C30.4687 23.7463 30.4608 23.7345 30.2484 23.8801C30.2484 23.8801 30.2327 23.8486 30.2327 23.8447C30.0911 23.9469 29.9652 24.0138 29.859 24.0925L29.9101 24.1633C29.7213 24.301 29.5246 24.356 29.3791 24.4701C29.2178 24.596 29.0487 24.7061 28.8874 24.832C28.7261 24.9578 28.5806 25.0994 28.4193 25.2214C28.2581 25.3433 28.1322 25.5085 27.9709 25.6344C27.8096 25.7603 27.6405 25.8704 27.4792 25.9923C27.318 26.1143 27.1528 26.2323 26.9915 26.3542C26.8302 26.4762 26.6847 26.6178 26.5234 26.7436C26.3621 26.8695 26.1969 26.9836 26.0357 27.1055C25.8744 27.2274 25.6974 27.3297 25.5361 27.4556C25.3748 27.5815 25.2018 27.6877 25.0405 27.8096C24.8792 27.9315 24.7612 28.1125 24.596 28.2305C24.4347 28.3485 24.2184 28.3996 24.0571 28.5176C23.8958 28.6356 23.7306 28.7497 23.5654 28.8677C23.4002 28.9857 23.2822 29.1666 23.121 29.2807C22.9597 29.3948 22.8063 29.5325 22.6411 29.6505C22.4759 29.7685 22.2949 29.8629 22.1297 29.9769C21.9645 30.091 21.8032 30.213 21.638 30.327C21.4728 30.4411 21.288 30.5276 21.1188 30.6417C20.9497 30.7558 20.7963 30.8856 20.6311 30.9996C20.4659 31.1137 20.3164 31.2514 20.1473 31.3615C19.986 31.4677 19.805 31.5425 19.6438 31.6447C19.4825 31.747 19.2898 31.806 19.1285 31.9122C18.9672 32.0184 18.8571 32.1994 18.6958 32.3056C18.5345 32.4118 18.3182 32.4314 18.1569 32.5337C17.9956 32.636 17.8501 32.7697 17.6888 32.872C17.5276 32.9742 17.3938 33.1277 17.2326 33.2299C17.0713 33.3322 16.8825 33.3991 16.7212 33.5013C16.5599 33.6036 16.3751 33.6705 16.2099 33.7767C16.0446 33.8829 15.9502 34.0795 15.785 34.1858C15.6198 34.292 15.4586 34.3864 15.2973 34.4926C15.136 34.5988 14.9315 34.6342 14.7702 34.7404C14.6089 34.8466 14.487 35.0118 14.3297 35.118C14.1723 35.2242 13.956 35.2557 13.7986 35.3619C13.6413 35.4681 13.5036 35.6136 13.3463 35.7237C13.1889 35.8339 13.067 35.9952 12.9057 36.1053C12.7405 36.2194 12.5635 36.3177 12.4023 36.4318C12.241 36.5458 12.0718 36.6599 11.9106 36.7779C11.7493 36.8959 11.5959 37.0257 11.4307 37.1398C11.2655 37.2539 11.0531 37.3011 10.8918 37.4151C10.7305 37.5292 10.6322 37.7416 10.4709 37.8596C10.3096 37.9776 10.1405 38.0838 9.9753 38.2018C9.8101 38.3198 9.60949 38.3788 9.44822 38.4968C9.28695 38.6148 9.16501 38.7918 9.00374 38.9098C8.84247 39.0279 8.60646 39.0436 8.44125 39.1577C8.27605 39.2717 8.11477 39.3897 7.9535 39.5077C7.79223 39.6257 7.67423 39.8067 7.51295 39.9247C7.35168 40.0427 7.14321 40.0978 6.98194 40.2158C6.82066 40.3338 6.67119 40.4714 6.50992 40.5894C6.34865 40.7074 6.20311 40.849 6.04184 40.9671C5.88056 41.0851 5.70356 41.1795 5.53835 41.2975C5.37315 41.4155 5.21187 41.5295 5.0506 41.6475C4.88933 41.7655 4.73593 41.8954 4.57465 42.0134C4.41338 42.1314 4.29144 42.3084 4.13017 42.4264C3.9689 42.5444 3.77616 42.623 3.61489 42.741C3.45361 42.8591 3.25694 42.9259 3.09174 43.0439C2.92653 43.1619 2.76132 43.2721 2.60005 43.3901C2.43878 43.5081 2.31684 43.6811 2.15164 43.7952C1.98643 43.9093 1.79369 43.984 1.63242 44.102C1.55768 44.1571 1.47901 44.2908 1.38854 44.3302C1.31774 44.3577 1.1132 44.3931 0.932262 44.4757C0.727721 44.5701 0.570383 44.6842 0.570383 44.7235L0.472046 44.7196L0.491714 44.7274C0.491714 44.7668 0.550715 44.7943 0.566449 44.8219C0.578249 44.8455 0.578249 44.8966 0.60185 44.9163C0.696254 45.0893 0.865393 45.168 1.08173 45.2152C1.25874 45.2545 1.46328 45.3293 1.67569 45.3214C1.87629 45.3135 2.0769 45.2073 2.26964 45.1837C2.49385 45.1562 2.71019 45.2349 2.87933 45.2231C3.0878 45.2073 3.29628 45.1798 3.50475 45.1601C3.71322 45.1405 3.91776 45.0775 4.12624 45.0618C4.33471 45.0461 4.54319 45.0539 4.75559 45.0382C4.968 45.0225 5.16861 44.9399 5.37708 44.9281C5.58555 44.9163 5.79796 44.9989 6.01037 44.9871C6.22278 44.9753 6.42732 44.9871 6.63579 44.9831C6.8246 44.9831 7.00947 44.8769 7.19828 44.8769C7.38708 44.8769 7.57195 44.9202 7.76076 44.9241C7.94957 44.9281 8.13444 44.9831 8.32325 44.9871C8.51205 44.991 8.70086 44.9084 8.88967 44.9123C9.07847 44.9163 9.26335 44.991 9.45215 44.9989C9.64096 45.0067 9.82977 44.9517 10.0186 44.9556C10.2074 44.9595 10.3923 44.9399 10.5811 44.9359C10.7777 44.9359 10.9744 45.0303 11.1711 45.0303C11.3678 45.0303 11.5644 45.05 11.7611 45.05C11.9578 45.05 12.1544 44.9831 12.3511 44.9792C12.5478 44.9753 12.7445 44.991 12.9411 44.991C13.1378 44.991 13.3345 44.9831 13.5312 44.9831C13.7278 44.9831 13.9245 44.9635 14.1212 44.9595C14.3179 44.9556 14.5145 44.9595 14.7112 44.9556C14.9079 44.9517 15.1045 44.9123 15.3012 44.9084C15.4979 44.9045 15.6946 44.9595 15.8912 44.9595C16.0879 44.9595 16.2846 44.9005 16.4813 44.8966C16.6779 44.8927 16.8746 44.8848 17.0713 44.8848C17.268 44.8848 17.4646 44.9635 17.6613 44.9635C17.858 44.9635 18.0546 44.9123 18.2513 44.9084C18.448 44.9045 18.6447 44.9241 18.8413 44.9202C19.038 44.9163 19.2347 44.8415 19.4314 44.8376C19.628 44.8337 19.8247 44.9045 20.0214 44.9005C20.2181 44.8966 20.4147 44.8533 20.6114 44.8494C20.8081 44.8494 21.0047 44.8691 21.2014 44.8651C21.3981 44.8612 21.5948 44.8848 21.7914 44.8809C21.9881 44.8769 22.1848 44.8061 22.3815 44.8022C22.5781 44.7983 22.7748 44.8376 22.9715 44.8337C23.1682 44.8297 23.3648 44.7668 23.5615 44.7628C23.7582 44.7589 23.9548 44.7747 24.1515 44.7707C24.3482 44.7668 24.5488 44.8533 24.7455 44.8455C24.9421 44.8376 25.1388 44.7707 25.3355 44.7668C25.5322 44.7629 25.7288 44.755 25.9255 44.751C26.1222 44.7471 26.3189 44.7196 26.5155 44.7196C26.7122 44.7196 26.9089 44.7235 27.1056 44.7196C27.3022 44.7156 27.4989 44.7353 27.6956 44.7353C27.8962 44.7353 28.0968 44.8061 28.3013 44.8022C28.5059 44.7983 28.7025 44.7864 28.9071 44.7864C29.1116 44.7864 29.3083 44.692 29.5128 44.692C29.7174 44.692 29.9141 44.692 30.1186 44.692C30.3231 44.692 30.5198 44.7393 30.7243 44.7393C30.9289 44.7393 31.1256 44.7038 31.3301 44.7038C31.5346 44.7038 31.7313 44.7432 31.9359 44.7432C32.1404 44.7432 32.3371 44.8061 32.5416 44.8061C32.7462 44.8061 32.9468 44.7235 33.1474 44.7274C33.348 44.7314 33.5486 44.8061 33.7492 44.8061C33.9498 44.8061 34.1504 44.7747 34.3549 44.7786C34.5595 44.7825 34.7601 44.7117 34.9607 44.7117C35.1613 44.7117 35.3619 44.7432 35.5664 44.7432C35.771 44.7432 35.9677 44.8494 36.1683 44.8494C36.3689 44.8494 36.5655 44.7196 36.7662 44.7235C36.9668 44.7275 37.1634 44.7314 37.364 44.7314C37.5646 44.7314 37.7613 44.7864 37.9619 44.7864C38.1625 44.7864 38.3592 44.7943 38.5598 44.7982C38.7604 44.8022 38.9571 44.7982 39.1577 44.7982C39.3583 44.7982 39.555 44.8455 39.7556 44.8494C39.9562 44.8533 40.1529 44.8533 40.3535 44.8533C40.5541 44.8533 40.7508 44.8573 40.9514 44.8573C41.1362 44.8573 41.329 44.7904 41.5335 44.7904C41.7223 44.7904 41.9151 44.8218 42.1157 44.8179C42.3045 44.8179 42.4972 44.7393 42.6978 44.7353C42.8984 44.7314 43.0833 44.8573 43.2839 44.8573C43.4845 44.8573 43.6694 44.8494 43.8661 44.8494C44.0627 44.8494 44.2515 44.8258 44.4482 44.8219C44.6449 44.8179 44.8337 44.8061 45.0304 44.8022C45.227 44.7983 45.4158 44.7668 45.6125 44.7628C45.8092 44.7589 46.0019 44.7825 46.1986 44.7825C46.3953 44.7825 46.5841 44.7943 46.7808 44.7904C46.9774 44.7865 47.1702 44.7707 47.3629 44.7707C47.5557 44.7707 47.7523 44.8101 47.949 44.8101C48.1457 44.8101 48.3384 44.7117 48.5351 44.7117C48.7318 44.7117 48.9245 44.7235 49.1212 44.7235C49.3179 44.7235 49.5145 44.8101 49.7073 44.8101C49.9 44.8101 50.1006 44.7353 50.2934 44.7353C50.4861 44.7353 50.6867 44.7353 50.8794 44.7353C51.0722 44.7353 51.2689 44.7983 51.4616 44.8022C51.6543 44.8061 51.8549 44.7392 52.0477 44.7432C52.2404 44.7471 52.441 44.8218 52.6298 44.8297C52.8186 44.8376 53.0271 44.7629 53.2159 44.7668C53.4165 44.7747 53.6132 44.7668 53.802 44.7786C54.0026 44.7865 54.1993 44.7786 54.3881 44.7904C54.5926 44.8022 54.7814 44.9045 54.9663 44.9163C55.1708 44.9163 55.3636 44.8927 55.5563 44.8887C55.7491 44.8848 55.9457 44.8927 56.1424 44.8887C56.3391 44.8848 56.524 44.8769 56.7285 44.8691C56.9134 44.8612 57.1061 44.8494 57.3107 44.8415C57.4955 44.8336 57.6843 44.7393 57.8928 44.7353C58.0777 44.7314 58.2704 44.8258 58.4789 44.8258C58.6638 44.8258 58.8565 44.8258 59.065 44.8297C59.2499 44.8297 59.4465 44.7314 59.6511 44.7353C59.8359 44.7353 60.0326 44.8022 60.2372 44.8101C60.422 44.814 60.6187 44.8258 60.8232 44.8337C61.0121 44.8415 61.2048 44.9084 61.4054 44.9202C61.5942 44.9281 61.7909 44.9045 61.9954 44.9163C62.1842 44.9281 62.3809 44.9202 62.5815 44.932C62.7034 44.9281 62.908 44.9792 63.1597 44.9635C63.3289 44.9556 63.5216 44.8887 63.7301 44.8769C63.911 44.8651 64.1077 44.9005 64.3083 44.8887C64.4932 44.8769 64.6859 44.8337 64.8787 44.8219C65.0714 44.8101 65.2563 44.7156 65.449 44.7038C65.6417 44.692 65.8384 44.7078 66.0272 44.696C66.2278 44.6842 66.4245 44.751 66.6054 44.7432C66.8139 44.7314 67.0027 44.6094 67.1719 44.5976C67.4197 44.5819 67.6203 44.6212 67.7501 44.6134C68.0608 44.6252 68.0372 44.6409 68.3755 44.633C68.584 44.633 68.8121 44.6448 69.0049 44.6094C69.2881 44.5544 69.5123 44.4285 69.4533 44.2318C69.4297 44.161 69.3667 43.9604 69.3353 43.6497C69.3195 43.4805 69.2605 43.2839 69.2409 43.0557C69.2251 42.8709 69.2723 42.6663 69.2566 42.4539C69.2409 42.2651 69.2605 42.0606 69.2448 41.8521C69.2291 41.6593 69.2212 41.4587 69.2094 41.2542C69.1976 41.0497 69.1701 40.8609 69.1543 40.6563C69.1386 40.4518 69.0521 40.263 69.0403 40.0624C69.0285 39.8617 69.0717 39.6572 69.0599 39.4566C69.0481 39.256 69.0599 39.0515 69.0481 38.8548C69.0363 38.6581 68.9616 38.4536 68.9498 38.2569C68.938 38.0602 68.8633 37.8557 68.8514 37.6629C68.8397 37.4545 68.8633 37.2499 68.8514 37.0611C68.8397 36.8487 68.8593 36.6442 68.8475 36.4593C68.8357 36.2312 68.8121 36.0306 68.8043 35.8614C68.7806 35.4838 68.7885 35.5625 68.7649 35.2635C68.7413 34.9646 68.7924 35.0275 68.7531 34.6538C68.7374 34.4808 68.6508 34.2802 68.6312 34.056C68.6115 33.8671 68.5761 33.6665 68.5564 33.4541C68.5368 33.2575 68.6154 33.045 68.5958 32.8405C68.5761 32.636 68.4384 32.4472 68.4188 32.2466C68.3991 32.0459 68.4817 31.8296 68.462 31.629C68.4424 31.4284 68.3165 31.2278 68.2968 31.0311C68.2772 30.8187 68.3755 30.6024 68.3598 30.4136C68.3401 30.1854 68.2693 29.9848 68.2536 29.8117C68.2221 29.4617 68.2536 29.2375 68.2536 29.206C68.2536 29.1824 68.1946 28.97 68.1631 28.6238C68.1474 28.4586 68.0766 28.2698 68.0569 28.0495C68.0412 27.8725 68.0215 27.6759 68.0018 27.4674C67.9861 27.2825 68.0018 27.0858 67.9861 26.8813C67.9704 26.6925 67.9586 26.4998 67.9428 26.2992C67.9271 26.1103 67.8642 25.9176 67.8484 25.7209C67.8327 25.5243 67.8209 25.3355 67.8012 25.1388C67.7815 24.9421 67.7894 24.7494 67.7737 24.5566C67.7579 24.3639 67.7579 24.1672 67.7383 23.9705C67.7186 23.7739 67.7107 23.5772 67.6911 23.3845C67.6714 23.1917 67.7029 22.9872 67.6871 22.7984C67.6714 22.6096 67.5691 22.4129 67.5534 22.2241C67.5337 22.0235 67.5534 21.8268 67.5416 21.638C67.5219 21.4335 67.5219 21.2368 67.5062 21.0519C67.4865 20.8434 67.4629 20.6507 67.4472 20.4698C67.4275 20.2495 67.3685 20.0567 67.3528 19.8915C67.3253 19.5769 67.3056 19.3684 67.3056 19.3094C67.3056 19.1953 67.3213 18.9868 67.2977 18.7194C67.282 18.5463 67.2741 18.3457 67.2545 18.1293C67.2387 17.9445 67.1443 17.7557 67.1247 17.5472C67.1089 17.3584 67.105 17.1578 67.0853 16.9572C67.0657 16.7566 67.1011 16.5599 67.0814 16.3632C67.0617 16.1665 67.0499 15.9659 67.0303 15.7693C67.0106 15.5726 66.9437 15.3759 66.924 15.1832C66.9044 14.9747 66.8454 14.782 66.8257 14.5971C66.8021 14.3768 66.7903 14.1801 66.7706 14.0071C66.7392 13.7199 66.7706 13.5036 66.7589 13.4131L66.7431 13.4249Z" fill="#FFD100"/>
<path d="M36.2704 22.0668C36.1013 22.0353 35.9243 21.996 35.7394 21.9527C35.5545 21.9095 35.3854 21.8741 35.2084 21.8308C35.0353 21.7875 34.8583 21.7403 34.6853 21.701C34.5122 21.6617 34.3273 21.6223 34.1582 21.5869C34.1149 21.579 34.0834 21.5751 34.0559 21.5712C34.0559 21.5712 34.048 21.5673 34.0441 21.5673C34.0441 21.5476 34.048 21.524 34.052 21.4925C34.052 21.4571 34.0559 21.4571 34.0598 21.4374C34.0716 21.3706 34.0677 21.3706 34.0834 21.2998C34.1228 21.1031 34.1621 20.9064 34.1975 20.7058C34.2329 20.5052 34.2762 20.3125 34.3155 20.1119C34.3155 20.0922 34.3155 20.0922 34.3155 20.0725C34.3352 19.9742 34.3666 19.8405 34.2604 19.7185C34.2447 19.6989 34.2172 19.6871 34.1936 19.6831C34.1306 19.6831 34.0795 19.6753 34.0362 19.6713C33.8907 19.6556 33.7491 19.6399 33.698 19.8759C33.6665 20.0175 33.639 20.1748 33.6035 20.3361C33.5642 20.5052 33.5209 20.6783 33.4855 20.8474C33.4462 21.0284 33.4147 21.2014 33.3872 21.3627C33.3793 21.406 33.3715 21.4453 33.3675 21.4728L33.3715 21.4846C33.3715 21.4846 33.3636 21.4846 33.3597 21.4846C33.3321 21.4768 33.3007 21.4571 33.2574 21.4453C33.222 21.4374 33.2181 21.4453 33.1827 21.4335C33.0332 21.3942 32.8483 21.3391 32.6477 21.2919C32.4668 21.2486 32.278 21.2014 32.1088 21.1621C31.8768 21.107 31.6761 21.0716 31.566 21.0559C31.5306 21.052 31.4991 21.0638 31.4795 21.0913C31.4126 21.1818 31.3929 21.2526 31.3772 21.3155C31.3693 21.343 31.3615 21.3666 31.3497 21.3942C31.3379 21.4178 31.3379 21.4453 31.3497 21.4689C31.3615 21.4925 31.3772 21.5122 31.4047 21.524C31.4205 21.5279 31.4323 21.5515 31.448 21.5673C31.4716 21.5909 31.4991 21.6144 31.5385 21.6263C31.7942 21.6931 31.7942 21.6853 32.0498 21.7521C32.3055 21.819 32.3016 21.8229 32.5572 21.8859C32.7618 21.9383 32.9676 21.9921 33.1748 22.0471C33.2102 22.055 33.2535 22.0668 33.2574 22.0589C33.2613 22.0786 33.2535 22.1533 33.2456 22.1927C33.2259 22.3461 33.2063 22.4995 33.1866 22.6529C33.163 22.8181 33.1394 22.9833 33.1158 23.1524C33.0922 23.3216 33.0725 23.4868 33.0529 23.652C33.0332 23.8172 33.0332 23.9824 33.0293 24.1594C33.0293 24.242 33.0253 24.3246 33.0214 24.4072C33.0214 24.4347 33.0332 24.4623 33.0529 24.4819C33.0725 24.5016 33.1001 24.5134 33.1315 24.5095C33.3518 24.4859 33.3518 24.4898 33.576 24.4662C33.5917 24.4662 33.6035 24.4505 33.6153 24.4465C33.6389 24.4308 33.6625 24.4072 33.6665 24.3757C33.6691 24.3443 33.6717 24.3128 33.6744 24.2813C33.6822 24.2145 33.6862 24.1555 33.694 24.0925C33.7176 23.8565 33.7137 23.8565 33.7412 23.6205C33.7648 23.3963 33.7884 23.176 33.812 22.9518C33.8356 22.7276 33.871 22.5073 33.8986 22.2871C33.9104 22.2005 33.9182 22.1848 33.9182 22.1809C33.9222 22.1809 33.9497 22.1769 34.0362 22.1927C34.0677 22.1966 34.0992 22.2045 34.1306 22.2123C34.1582 22.2202 34.1818 22.2241 34.2093 22.2281C34.4689 22.2792 34.4689 22.2792 34.7325 22.3303C34.9055 22.3657 35.0825 22.3933 35.2556 22.4287C35.4287 22.4641 35.6017 22.5073 35.7748 22.5427C35.944 22.5782 35.9754 22.5742 36.117 22.59C36.1682 22.5939 36.1642 22.6018 36.2154 22.6057C36.2626 22.6096 36.3058 22.5782 36.3216 22.5349C36.3216 22.5231 36.3294 22.5073 36.3373 22.4916C36.3884 22.35 36.4278 22.2202 36.3806 22.1376C36.3609 22.1022 36.3255 22.0747 36.2862 22.0668H36.2704Z" fill="black"/>
<path d="M36.2704 22.0668C36.1013 22.0353 35.9243 21.996 35.7394 21.9527C35.5545 21.9095 35.3854 21.8741 35.2084 21.8308C35.0353 21.7875 34.8583 21.7403 34.6853 21.701C34.5122 21.6617 34.3273 21.6223 34.1582 21.5869C34.1149 21.579 34.0834 21.5751 34.0559 21.5712C34.0559 21.5712 34.048 21.5673 34.0441 21.5673C34.0441 21.5476 34.048 21.524 34.052 21.4925C34.052 21.4571 34.0559 21.4571 34.0598 21.4374C34.0716 21.3706 34.0677 21.3706 34.0834 21.2998C34.1228 21.1031 34.1621 20.9064 34.1975 20.7058C34.2329 20.5052 34.2762 20.3125 34.3155 20.1119C34.3155 20.0922 34.3155 20.0922 34.3155 20.0725C34.3352 19.9742 34.3666 19.8405 34.2604 19.7185C34.2447 19.6989 34.2172 19.6871 34.1936 19.6831C34.1306 19.6831 34.0795 19.6753 34.0362 19.6713C33.8907 19.6556 33.7491 19.6399 33.698 19.8759C33.6665 20.0175 33.639 20.1748 33.6035 20.3361C33.5642 20.5052 33.5209 20.6783 33.4855 20.8474C33.4462 21.0284 33.4147 21.2014 33.3872 21.3627C33.3793 21.406 33.3715 21.4453 33.3675 21.4728L33.3715 21.4846C33.3715 21.4846 33.3636 21.4846 33.3597 21.4846C33.3321 21.4768 33.3007 21.4571 33.2574 21.4453C33.222 21.4374 33.2181 21.4453 33.1827 21.4335C33.0332 21.3942 32.8483 21.3391 32.6477 21.2919C32.4668 21.2486 32.278 21.2014 32.1088 21.1621C31.8768 21.107 31.6761 21.0716 31.566 21.0559C31.5306 21.052 31.4991 21.0638 31.4795 21.0913C31.4126 21.1818 31.3929 21.2526 31.3772 21.3155C31.3693 21.343 31.3615 21.3666 31.3497 21.3942C31.3379 21.4178 31.3379 21.4453 31.3497 21.4689C31.3615 21.4925 31.3772 21.5122 31.4047 21.524C31.4205 21.5279 31.4323 21.5515 31.448 21.5673C31.4716 21.5909 31.4991 21.6144 31.5385 21.6263C31.7942 21.6931 31.7942 21.6853 32.0498 21.7521C32.3055 21.819 32.3016 21.8229 32.5572 21.8859C32.7618 21.9383 32.9676 21.9921 33.1748 22.0471C33.2102 22.055 33.2535 22.0668 33.2574 22.0589C33.2613 22.0786 33.2535 22.1533 33.2456 22.1927C33.2259 22.3461 33.2063 22.4995 33.1866 22.6529C33.163 22.8181 33.1394 22.9833 33.1158 23.1524C33.0922 23.3216 33.0725 23.4868 33.0529 23.652C33.0332 23.8172 33.0332 23.9824 33.0293 24.1594C33.0293 24.242 33.0253 24.3246 33.0214 24.4072C33.0214 24.4347 33.0332 24.4623 33.0529 24.4819C33.0725 24.5016 33.1001 24.5134 33.1315 24.5095C33.3518 24.4859 33.3518 24.4898 33.576 24.4662C33.5917 24.4662 33.6035 24.4505 33.6153 24.4465C33.6389 24.4308 33.6625 24.4072 33.6665 24.3757C33.6691 24.3443 33.6717 24.3128 33.6744 24.2813C33.6822 24.2145 33.6862 24.1555 33.694 24.0925C33.7176 23.8565 33.7137 23.8565 33.7412 23.6205C33.7648 23.3963 33.7884 23.176 33.812 22.9518C33.8356 22.7276 33.871 22.5073 33.8986 22.2871C33.9104 22.2005 33.9182 22.1848 33.9182 22.1809C33.9222 22.1809 33.9497 22.1769 34.0362 22.1927C34.0677 22.1966 34.0992 22.2045 34.1306 22.2123C34.1582 22.2202 34.1818 22.2241 34.2093 22.2281C34.4689 22.2792 34.4689 22.2792 34.7325 22.3303C34.9055 22.3657 35.0825 22.3933 35.2556 22.4287C35.4287 22.4641 35.6017 22.5073 35.7748 22.5427C35.944 22.5782 35.9754 22.5742 36.117 22.59C36.1682 22.5939 36.1642 22.6018 36.2154 22.6057C36.2626 22.6096 36.3058 22.5782 36.3216 22.5349C36.3216 22.5231 36.3294 22.5073 36.3373 22.4916C36.3884 22.35 36.4278 22.2202 36.3806 22.1376C36.3609 22.1022 36.3255 22.0747 36.2862 22.0668H36.2704Z" stroke="white" stroke-width="1.16" stroke-miterlimit="10"/>
<path d="M29.8118 37.1594C29.7685 37.2617 29.7213 37.3639 29.6898 37.4741C29.5168 38.068 29.2493 38.6109 28.8677 39.0986C28.3643 39.7437 27.7034 39.9915 26.9089 39.9128C25.9373 39.8145 25.1349 39.374 24.4701 38.6738C23.8368 38.009 23.3019 37.2735 23.0344 36.3766C22.9872 36.2154 22.9872 36.0384 22.9321 35.881C22.8417 35.6214 22.8338 35.3618 22.8181 35.0904C22.7866 34.465 22.9557 33.9025 23.2586 33.3675C23.4868 32.9624 23.7739 32.6084 24.1279 32.3016C24.4977 31.9751 24.9185 31.7548 25.3984 31.6565C25.6344 31.6093 25.8744 31.5739 26.1104 31.5503C26.6768 31.4913 27.1803 31.684 27.6405 31.9869C27.8804 32.1442 28.1046 32.333 28.3171 32.5297C28.5767 32.7697 28.5491 32.9231 28.2423 33.1197C28.14 33.1827 28.0417 33.2613 27.9276 33.2928C27.6523 33.3675 27.3927 33.3361 27.1763 33.1197C27.0269 32.9703 26.8617 32.8405 26.7161 32.6871C26.311 32.2701 25.8193 32.2858 25.3512 32.4943C24.5606 32.8523 23.9863 33.4423 23.7424 34.2998C23.589 34.8426 23.6598 35.3893 23.7975 35.9322C23.9824 36.6599 24.3521 37.2735 24.832 37.8438C25.0365 38.0838 25.249 38.3001 25.4968 38.4929C25.9727 38.8587 26.5116 39.0593 27.1055 39.1065C27.5854 39.1458 27.9788 38.9334 28.2384 38.5479C28.6671 37.9068 28.9464 37.1948 28.9582 36.4081C28.9582 36.2036 28.9228 35.9912 28.8638 35.7906C28.7969 35.5782 28.7183 35.5624 28.5255 35.6647C28.2581 35.8024 27.9906 35.9361 27.731 36.0895C27.5382 36.2036 27.3337 36.2154 27.1213 36.1996C26.9915 36.1918 26.901 36.1249 26.8459 36.003C26.7712 35.8338 26.7751 35.7866 26.9364 35.6765C27.4517 35.3303 27.963 34.9763 28.4941 34.6538C28.7497 34.5004 29.0408 34.4099 29.3201 34.2998C29.442 34.2526 29.5443 34.2644 29.6269 34.3981C30.0124 35.0432 30.4057 35.6844 30.7912 36.3294C30.9603 36.6127 31.1334 36.8959 31.2986 37.1791C31.3852 37.3246 31.3694 37.423 31.2318 37.5134C31.1177 37.5921 30.9918 37.6668 30.862 37.718C30.5001 37.8556 30.3821 37.8124 30.1579 37.4898C30.0792 37.3757 29.9966 37.2656 29.918 37.1555C29.8865 37.1555 29.855 37.1555 29.8236 37.1555L29.8118 37.1594Z" fill="black"/>
<path d="M35.3187 29.8314C35.653 30.3073 35.9205 30.8895 36.0464 31.5267C36.2076 32.3173 36.125 33.104 35.9126 33.8789C35.9048 33.9065 35.893 33.9379 35.8812 33.9615C35.2833 35.0039 34.5123 35.7985 33.2064 35.8221C32.9861 35.826 32.7619 35.8535 32.5495 35.8142C32.3568 35.7788 32.1719 35.6883 31.9988 35.5939C31.4639 35.3068 30.9879 34.9449 30.5828 34.4925C29.8315 33.6587 29.2415 32.7422 29.1235 31.5896C29.0959 31.3104 29.0527 31.0311 29.033 30.7518C29.0133 30.3939 29.0802 30.0517 29.2493 29.737C29.5089 29.2532 29.8512 28.852 30.335 28.5569C30.8385 28.2541 31.3537 28.0023 31.9398 27.904C32.7855 27.7624 33.5525 27.9119 34.2212 28.4783C34.6539 28.848 34.9843 29.3004 35.3226 29.8314H35.3187ZM34.2016 30.2877C33.9695 29.9022 33.6273 29.4813 33.2025 29.1391C32.2742 28.3878 30.8935 28.7222 30.3822 29.8039C30.1501 30.2955 30.1973 30.803 30.276 31.3064C30.3861 31.9909 30.6968 32.6006 31.0351 33.1945C31.3262 33.7059 31.6959 34.1464 32.1601 34.5122C32.8327 35.0472 33.8397 35.295 34.6146 34.6381C34.7326 34.5358 34.8545 34.4139 34.9135 34.2762C35.3265 33.3361 35.2518 32.396 34.8506 31.4795C34.6815 31.094 34.4494 30.74 34.2055 30.2877H34.2016Z" fill="black"/>
<path d="M37.0179 29.4813C37.3247 29.9769 37.7181 30.4607 38.2294 30.854C38.8234 31.3064 39.4213 31.2356 40.0034 30.9091C40.6997 30.5197 40.9986 29.8628 41.0301 29.084C41.0419 28.8008 41.0104 28.5294 40.9239 28.254C40.7075 27.5735 40.8924 27.4005 41.5336 27.2706C42.1236 27.1526 42.0252 27.1133 42.2416 27.7073C42.3714 28.0652 42.3478 28.4389 42.2927 28.8086C42.2022 29.4459 41.9505 30.0241 41.6044 30.559C41.5021 30.7124 41.3408 30.8304 41.2031 30.9602C41.0537 31.094 40.8924 31.2159 40.7508 31.3536C40.3968 31.6958 39.9759 31.8846 39.4921 31.9357C38.9965 31.9869 38.5087 31.9239 38.0288 31.8217C37.8754 31.7902 37.722 31.7233 37.5883 31.6368C37.1674 31.3615 36.7662 31.0507 36.4751 30.6377C35.952 29.8982 35.5036 29.1115 35.3108 28.2147C35.2125 27.7584 35.1574 27.2824 35.1456 26.8144C35.1299 26.0709 35.5154 25.5045 36.0267 25.001C36.5971 24.4386 37.3129 24.1868 38.08 24.1003C38.8588 24.0137 39.5118 24.3127 40.0231 24.9066C40.09 24.9814 40.1568 25.0561 40.2237 25.1308C40.3417 25.2646 40.3535 25.3826 40.2394 25.5006C39.909 25.8389 39.4803 25.9293 39.1027 25.5557C39.0869 25.5399 39.0751 25.5281 39.0633 25.5124C38.371 24.7847 37.6355 24.8712 36.8999 25.3629C36.7347 25.4731 36.5853 25.6147 36.4515 25.7602C36.1644 26.067 36.0346 26.4368 36.07 26.8616C36.1329 27.6247 36.3532 28.3327 36.7465 28.9896C36.8331 29.1351 36.9117 29.2885 37.0219 29.4813H37.0179Z" fill="black"/>
<path d="M46.5525 22.224C46.4699 22.0549 46.2968 21.7363 46.1552 21.4058C45.9192 20.8591 45.8366 20.2927 45.9861 19.7027C46.0687 19.384 46.1238 19.0615 46.289 18.7626C46.5564 18.2709 46.9655 17.9601 47.4493 17.7163C47.8702 17.5038 48.3186 17.4173 48.7828 17.3819C49.1211 17.3583 49.4475 17.4134 49.7543 17.5432C50.7731 17.9719 51.5244 18.6918 52.0082 19.6869C52.2285 20.1393 52.4291 20.5956 52.492 21.099C52.6022 21.9565 52.378 22.7314 51.9099 23.4394C51.7053 23.7463 51.5087 24.0649 51.1861 24.2733C51.0839 24.3402 50.9855 24.4189 50.8754 24.4543C50.0258 24.7257 49.2076 24.7926 48.3973 24.2655C47.5555 23.7148 46.997 22.995 46.5486 22.224H46.5525ZM50.7338 19.6555C50.364 19.0025 49.8015 18.5305 49.3335 18.3259C48.9991 18.1765 48.649 18.0506 48.2832 18.1607C47.7955 18.3102 47.4139 18.6052 47.1937 19.0851C46.8672 19.8089 46.938 20.5326 47.174 21.2564C47.3667 21.8464 47.705 22.3577 48.1023 22.8258C48.2242 22.9674 48.3658 23.1012 48.5153 23.2113C48.6569 23.3175 48.8378 23.3804 48.9755 23.4906C49.4239 23.8407 49.9235 23.9036 50.4584 23.7856C50.8046 23.7109 51.3277 23.3726 51.3553 22.9202C51.4064 22.0903 51.4969 21.2524 51.1271 20.4618C51.0013 20.1904 50.8636 19.9229 50.7338 19.6515V19.6555Z" fill="black"/>
<path d="M42.273 25.5832C42.4894 25.8585 42.7018 26.1378 42.9221 26.4092C43.1895 26.7357 43.5436 26.9481 43.9251 27.1054C44.3381 27.2746 44.7551 27.2155 45.1602 27.07C45.4119 26.9756 45.5575 26.7632 45.6283 26.5154C45.8092 25.886 45.8604 25.2567 45.6165 24.6273C45.5378 24.4189 45.5968 24.3087 45.8014 24.2261C45.8682 24.2025 45.9351 24.1868 46.0059 24.171C46.4464 24.0688 46.4622 24.0688 46.6235 24.4897C46.7297 24.7611 46.8477 25.0285 46.9027 25.3118C47.0011 25.7956 46.8319 26.2479 46.6549 26.6845C46.3874 27.3296 45.8997 27.7584 45.2546 28.014C45.2074 28.0337 45.1602 28.0573 45.113 28.0612C44.4679 28.1202 43.8346 28.1163 43.2446 27.7702C42.6035 27.3926 42.0842 26.9009 41.6594 26.2833C40.9514 25.2488 40.7429 24.0963 40.7429 22.8848C40.7429 22.4915 40.857 22.1099 41.0458 21.7598C41.1166 21.63 41.211 21.5002 41.329 21.4137C41.801 21.0636 42.3163 20.7961 42.9063 20.7135C43.6458 20.6073 44.2673 20.8591 44.7905 21.3743C44.8809 21.4648 44.9714 21.5632 45.0422 21.6733C45.1327 21.807 45.1012 21.9132 44.9675 22.0037C44.6056 22.2554 44.1729 22.1846 43.9054 21.8385C43.8818 21.807 43.8622 21.7716 43.8346 21.7402C43.6419 21.516 43.4216 21.3901 43.0991 21.4294C42.6192 21.4884 42.2101 21.693 41.8522 21.984C41.7184 22.0942 41.624 22.2908 41.5768 22.4679C41.4313 23.0028 41.4981 23.5456 41.6319 24.0727C41.7656 24.6116 41.9584 25.1269 42.2691 25.5989L42.273 25.5832Z" fill="black"/>
<path d="M36.2706 22.0706C35.9441 22.0037 35.5704 21.9132 35.2086 21.8228C34.8545 21.7362 34.4848 21.6458 34.1583 21.5789C34.115 21.571 34.0836 21.5671 34.056 21.5632C34.056 21.5632 34.0521 21.5632 34.0482 21.5632C34.0482 21.5435 34.0482 21.5199 34.0482 21.4884C34.0482 21.453 34.0482 21.4491 34.0521 21.4294L34.0796 21.2957C34.1544 20.8984 34.2291 20.5051 34.3078 20.1078L34.3157 20.0724C34.3353 19.974 34.3668 19.8403 34.2606 19.7184C34.2449 19.6987 34.2173 19.6869 34.1937 19.6869C34.1308 19.6869 34.0796 19.679 34.0364 19.6751C33.8908 19.6594 33.7492 19.6436 33.702 19.8796C33.6706 20.0212 33.6391 20.1786 33.5998 20.3359C33.5211 20.686 33.4424 21.0518 33.3874 21.3665C33.3795 21.4098 33.3756 21.4491 33.3716 21.4766C33.3716 21.4766 33.3716 21.4806 33.3716 21.4845C33.3716 21.4845 33.3677 21.4845 33.3638 21.4845C33.3362 21.4766 33.3008 21.4648 33.2576 21.457L33.1828 21.4373C32.7147 21.3193 31.8454 21.099 31.5662 21.0597C31.5308 21.0558 31.4954 21.0676 31.4757 21.099C31.4088 21.1895 31.3892 21.2642 31.3734 21.3232C31.3656 21.3508 31.3577 21.3744 31.3459 21.4019C31.3341 21.4255 31.3341 21.457 31.3459 21.4806C31.3577 21.5042 31.3774 21.5238 31.401 21.5356C31.4167 21.5396 31.4324 21.5592 31.4482 21.575C31.4718 21.5986 31.4954 21.6222 31.5347 21.634L32.5495 21.9014L33.1671 22.0627C33.2025 22.0706 33.2458 22.0824 33.2458 22.0745C33.2497 22.0942 33.2418 22.165 33.234 22.2083C33.2143 22.3617 33.1946 22.5151 33.171 22.6685C33.1277 22.9989 33.0805 23.3332 33.0451 23.6676C33.0255 23.8328 33.0255 23.998 33.0215 24.175C33.0215 24.2576 33.0215 24.3402 33.0176 24.4228C33.0176 24.4503 33.0294 24.4779 33.0491 24.4975C33.0687 24.5172 33.0963 24.5251 33.1238 24.5251L33.5683 24.4779C33.5683 24.4779 33.5998 24.47 33.6116 24.4621C33.6352 24.4464 33.6548 24.4189 33.6548 24.3874L33.6627 24.293C33.6706 24.2261 33.6745 24.1671 33.6824 24.1042L33.7335 23.6322C33.7807 23.1877 33.8279 22.7432 33.883 22.2987C33.8948 22.2122 33.9066 22.1965 33.9066 22.1965C33.9105 22.1965 33.9341 22.1886 34.0246 22.2043C34.056 22.2083 34.0875 22.2161 34.119 22.224C34.1465 22.2319 34.1701 22.2358 34.1977 22.2397L34.7208 22.342C35.0669 22.4089 35.417 22.4797 35.7632 22.5505C35.9323 22.5859 35.9598 22.5898 36.1054 22.6055L36.2037 22.6173C36.2509 22.6213 36.2942 22.5937 36.3099 22.5505C36.3099 22.5387 36.3178 22.5229 36.3257 22.5072C36.3768 22.3656 36.4161 22.2397 36.365 22.1571C36.3453 22.1217 36.3099 22.0981 36.2706 22.0903V22.0706Z" fill="black"/>
<path d="M13.3857 23.6952C13.4132 23.7542 13.4329 23.8172 13.4683 23.8683C13.8774 24.4347 14.2825 25.0051 14.6994 25.5675C14.8568 25.7839 14.8647 25.8744 14.6483 26.0238C14.1645 26.3582 13.6767 26.6925 13.1811 27.0111C12.9215 27.1803 12.6383 27.1409 12.4259 26.9207C12.0955 26.5745 11.7965 26.2008 11.5487 25.7878C11.3088 25.3827 11.0335 24.9972 10.766 24.6117C10.3766 24.0532 9.98322 23.4946 9.57807 22.9439C9.16506 22.3814 8.73631 21.8308 8.31149 21.2722C8.14235 21.0519 7.97322 20.8317 7.80801 20.6074C7.69394 20.454 7.70574 20.395 7.86701 20.277C7.95748 20.2141 8.04795 20.1551 8.14235 20.1C8.53963 19.8561 8.91725 19.5926 9.26733 19.2819C9.35386 19.2032 9.46007 19.1481 9.56234 19.0852C9.74721 18.9751 9.86915 18.9908 10.0068 19.156C10.176 19.3566 10.3333 19.5651 10.4867 19.7775C11.002 20.4855 11.5094 21.2014 12.0247 21.9094C12.1663 22.1061 12.3197 22.2988 12.4692 22.4916C12.5046 22.5348 12.5518 22.5663 12.6147 22.6214C12.658 22.5545 12.7091 22.5034 12.7248 22.4483C12.9373 21.7914 12.8625 20.5799 12.9648 19.8719C13.0002 19.7578 13.0277 19.6437 13.071 19.5336C13.1536 19.3094 14.2628 18.6486 14.4359 18.5384C14.5932 18.4401 14.0072 21.3627 14.2117 21.4217C14.6955 21.5672 15.376 21.7285 15.8598 21.874C16.6819 22.1179 17.6849 22.5152 18.507 22.763C18.57 22.7826 18.6329 22.8141 18.688 22.8495C18.8729 22.9754 18.8925 23.1721 18.7116 23.3058C18.6132 23.3805 17.3427 24.2105 17.091 24.4622C16.9101 24.6432 16.7212 24.7022 16.4774 24.6274C15.9306 24.4583 15.376 24.3128 14.8332 24.1318C14.432 24.002 14.0426 23.8368 13.6531 23.6834C13.5666 23.648 13.484 23.6047 13.3857 23.6991V23.6952Z" fill="#E50012"/>
<path d="M36.0542 8.57882C36.302 9.07837 36.5302 9.47172 36.8566 9.7982C36.8999 9.84147 36.9392 9.8808 36.9786 9.92407C37.3287 10.3213 37.7613 10.3449 38.2216 10.1522C38.3002 10.1207 38.375 10.0814 38.4536 10.0499C38.6778 9.9516 38.9138 10.0853 38.9492 10.3331C38.9846 10.5692 38.8981 10.7698 38.7486 10.9389C38.5598 11.1513 38.3592 11.3598 38.1429 11.5447C37.958 11.702 37.7495 11.8318 37.5411 11.9537C37.2067 12.1504 36.833 12.2251 36.4476 12.2291C36.306 12.2291 36.2312 12.2802 36.1761 12.4022C36.1014 12.5634 36.0149 12.7168 35.9441 12.8781C35.7592 13.299 35.4327 13.5861 35.0748 13.8418C34.886 13.9795 34.6814 14.1093 34.4651 14.2037C33.8947 14.4554 33.3401 14.4122 32.7973 14.0935C32.2466 13.7671 31.9359 13.2793 31.7982 12.6736C31.6999 12.2448 31.8336 11.8515 32.0853 11.5053C32.3017 11.2064 32.5534 10.931 32.7855 10.6439C32.9861 10.3921 33.1788 10.1404 33.3676 9.88473C33.4699 9.74313 33.5722 9.58579 33.5683 9.41272C33.5643 9.32225 33.643 9.03904 33.3913 8.79123C33.3165 8.73616 33.2418 8.68109 33.1631 8.62996C32.7226 8.35068 32.1719 8.51589 31.9988 9.00757C31.9083 9.26718 31.8847 9.55039 31.8375 9.8218C31.8257 9.8808 31.8375 9.9398 31.8297 9.9988C31.8139 10.0893 31.7589 10.1443 31.6605 10.1561C31.4049 10.1915 31.1885 10.1207 31.0272 9.92013C30.9761 9.85326 30.9368 9.75493 30.9407 9.67233C30.9604 9.30258 31.0036 8.93283 31.1885 8.59849C31.216 8.54735 31.5189 7.79999 31.7903 7.57579C32.5298 6.9543 33.3834 6.76943 34.3235 6.95037C34.764 7.0369 35.1102 7.29651 35.3816 7.64266C35.6412 7.97307 35.8733 8.32708 36.0581 8.58669L36.0542 8.57882ZM34.2487 10.5023C34.1661 10.5888 34.0835 10.6478 34.0363 10.7304C33.9341 10.9035 33.8318 11.0805 33.761 11.2693C33.5329 11.8436 33.6981 12.4533 34.0953 12.9096C34.1465 12.9686 34.2369 12.9961 34.3117 13.0276C34.4061 13.063 34.4769 13.0276 34.5162 12.9371C34.646 12.6618 34.7562 12.3864 34.7247 12.0678C34.6814 11.584 34.5359 11.1316 34.355 10.6872C34.3353 10.636 34.2959 10.5928 34.2448 10.5102L34.2487 10.5023Z" fill="#E50012"/>
<path d="M37.9344 3.61475C38.4772 3.33941 38.9296 3.05226 39.4842 2.9972C39.7005 2.9736 39.9129 2.96573 40.1293 3.0444C40.2119 3.07587 40.2709 3.11913 40.3181 3.1978C40.444 3.42201 40.5738 3.64228 40.6996 3.86649C40.7272 3.91369 40.7429 3.96483 40.7547 4.01596C40.798 4.1733 40.7822 4.21264 40.6446 4.27557C40.5816 4.30311 40.5148 4.32671 40.4479 4.35424C40.2866 4.41718 40.1332 4.40538 39.9759 4.28344C39.555 3.95303 39.0633 4.0081 38.7762 4.40931C38.5913 4.66499 38.7014 5.25107 38.9847 5.43201C39.0791 5.49495 39.2128 5.52248 39.319 5.51461C39.5825 5.49495 39.8461 5.46348 40.1018 5.40448C40.4086 5.33368 40.7193 5.30221 41.0419 5.33368C41.1441 5.34548 41.2425 5.34154 41.3447 5.33368C41.6673 5.31401 41.9662 5.40054 42.2376 5.61295C42.4382 5.76636 42.6428 5.91976 42.8119 6.10857C43.1227 6.44291 43.3075 6.83626 43.3272 7.29254C43.3429 7.61115 43.2249 7.8747 43.0833 8.12644C42.8709 8.50799 42.5484 8.78726 42.1983 9.0272C41.4706 9.53462 40.6406 9.8021 39.7517 9.91617C39.6533 9.92797 39.5589 9.9555 39.4606 9.97517C39.2561 10.0184 39.1735 9.98303 39.0633 9.77849C38.9925 9.64869 38.9414 9.51102 38.8824 9.37728C38.8076 9.20814 38.729 9.039 38.6503 8.8738C38.6188 8.80299 38.5874 8.73219 38.5598 8.66139C38.5205 8.57092 38.5441 8.50405 38.6149 8.44898C38.784 8.31918 38.9886 8.28378 39.1853 8.24051C39.2443 8.22871 39.3269 8.27198 39.3859 8.31131C39.5589 8.41358 39.732 8.49225 39.9248 8.51585C40.4046 8.57485 40.6957 8.33098 40.8609 7.93763C40.9317 7.76849 40.853 7.52068 40.68 7.38301C40.5384 7.26894 40.381 7.16274 40.2198 7.09194C40.1214 7.04867 39.9838 7.04867 39.8854 7.08407C39.3859 7.25321 38.8509 7.22567 38.3278 7.20994C37.9029 7.19814 37.5214 6.98573 37.2461 6.58845C37.0337 6.28164 36.9038 5.94336 36.8448 5.58542C36.7426 4.9954 36.9589 4.52732 37.3208 4.14184C37.5175 3.93336 37.7535 3.76422 37.9187 3.62262L37.9344 3.61475Z" fill="#E50012"/>
<path d="M27.082 12.2174C27.141 12.1269 27.2 12.0758 27.2157 12.0128C27.3848 11.3835 27.8254 11.0373 28.4272 10.8879C28.7694 10.8013 29.1234 10.7777 29.4814 10.8289C29.9101 10.8879 30.272 11.0688 30.5749 11.3638C31.1728 11.9381 31.5543 12.6304 31.6212 13.4643C31.6723 14.1369 31.4363 14.6915 30.8502 15.0613C30.567 15.2383 30.272 15.4035 29.9691 15.553C29.8118 15.6277 29.6308 15.6513 29.4617 15.6985C29.2847 15.7457 29.2611 15.7968 29.3516 15.9424C29.8511 16.7448 30.3546 17.5394 30.8463 18.3457C30.9918 18.5817 31.1177 18.8335 31.2318 19.0852C31.3262 19.2976 31.3144 19.3566 31.102 19.4471C30.7204 19.6084 30.4254 19.8876 30.0989 20.1197C29.9691 20.2141 29.7921 20.2613 29.6308 20.2888C29.56 20.3006 29.4617 20.2298 29.3948 20.1748C29.3319 20.1236 29.2965 20.0371 29.2532 19.9663C28.7812 19.2071 28.3249 18.4362 27.8372 17.6888C27.0898 16.5363 26.3149 15.3995 25.5558 14.2549C25.2844 13.8458 25.0326 13.4289 24.7691 13.0198C24.7022 12.9136 24.6747 12.8271 24.7927 12.7366C25.2529 12.3786 25.7367 12.0561 26.2638 11.8083C26.2874 11.7965 26.311 11.7886 26.3346 11.7808C26.6768 11.6706 26.7122 11.6824 26.9128 11.9892C26.9561 12.0561 27.0072 12.123 27.082 12.2292V12.2174ZM29.5128 13.2991C29.3004 12.9293 29.0644 12.6933 28.7144 12.4455C28.4626 12.3236 28.1204 12.6579 28.085 12.6815C28.0417 12.7091 28.0221 12.7917 28.0181 12.8546C28.0142 12.9293 28.0299 13.0041 28.0535 13.0788C28.1558 13.4249 28.2777 13.7632 28.4744 14.074C28.6475 14.3454 28.8206 14.5814 29.1982 14.5657C29.3673 14.5578 29.8393 14.1998 29.8393 14.0268C29.8393 13.952 29.8197 13.8773 29.7882 13.8104C29.7016 13.6374 29.6072 13.4682 29.5168 13.2991H29.5128Z" fill="#E50012"/>
<path d="M20.9496 16.4655C20.6742 16.5717 20.4775 16.7723 20.273 16.9532C20.0291 17.1696 19.7931 17.1696 19.5768 16.9218C19.4706 16.8038 19.388 16.6661 19.3014 16.5324C19.2306 16.4222 19.266 16.3081 19.3526 16.2373C19.4588 16.1469 19.5807 16.0525 19.7105 16.0131C19.978 15.9305 20.1668 15.7378 20.4028 15.6119C20.2612 15.3838 20.1275 15.1832 20.0055 14.9747C19.8954 14.7859 19.7971 14.5932 19.6908 14.4043C19.6279 14.2942 19.6476 14.1919 19.7026 14.0936C19.8325 13.8655 19.9505 13.6334 20.0999 13.421C20.2612 13.185 20.4421 12.9608 20.627 12.7405C20.7017 12.65 20.7922 12.5713 20.8906 12.5084C21.103 12.3668 21.2092 12.3707 21.3626 12.5831C21.5789 12.8821 21.7717 13.2007 21.9683 13.5154C22.0863 13.7003 22.1847 13.8969 22.2987 14.0818C22.4089 14.2627 22.4285 14.2549 22.6173 14.1487C22.8219 14.0346 23.0343 13.9323 23.2506 13.8458C23.3922 13.7907 23.5102 13.8812 23.6086 13.9795C23.6794 14.0503 23.7384 14.1329 23.8053 14.2077C23.9547 14.3729 23.9626 14.4358 23.7895 14.5853C23.6046 14.7426 23.4001 14.8803 23.2034 15.0219C23.1287 15.073 23.05 15.1202 22.9556 15.1792C23.0304 15.3169 23.0894 15.4349 23.1602 15.545C23.6046 16.2216 24.0413 16.9021 24.5015 17.5708C24.6706 17.8186 24.9656 17.8894 25.2488 17.9287C25.3314 17.9405 25.4416 17.8383 25.5202 17.7635C25.6107 17.677 25.6737 17.5629 25.7641 17.4724C25.8546 17.3741 25.9529 17.2797 26.0631 17.205C26.2165 17.0948 26.3266 17.1106 26.4249 17.2679C26.5075 17.4016 26.5705 17.5511 26.6177 17.7006C26.6688 17.8619 26.6177 18.0113 26.5115 18.149C26.1221 18.6368 25.7209 19.1166 25.2449 19.5218C24.7926 19.9033 24.2537 20.0685 23.6676 20.0017C23.3568 19.9663 23.1051 19.7696 22.9006 19.5454C22.4679 19.0694 22.1178 18.5384 21.8149 17.9641C21.5671 17.4961 21.2996 17.0358 21.0361 16.5756C21.0164 16.5402 20.985 16.5127 20.9496 16.4773V16.4655Z" fill="#E50012"/>
<path d="M6.47055 16.4339C6.57282 16.5597 6.70263 16.6463 6.83636 16.725C6.8993 16.7643 6.9583 16.7053 7.0055 16.6581C7.13924 16.5361 7.27691 16.4142 7.41459 16.2923C7.44605 16.2647 7.48539 16.2372 7.52079 16.2254C7.75286 16.1546 7.84727 16.2372 7.77646 16.4535C7.70566 16.6659 7.64666 16.8784 7.48145 17.0632C7.40278 17.1498 7.46179 17.193 7.51292 17.2363C7.70173 17.3976 7.89447 17.5588 8.07934 17.7201C8.13834 17.7713 8.19734 17.8263 8.24061 17.8893C8.33895 18.0348 8.26815 18.1607 8.07541 18.2079C7.87873 18.2551 7.71746 18.2197 7.57586 18.1174C7.39885 17.9876 7.22184 17.8578 7.04484 17.7359C6.93863 17.6611 6.91504 17.669 6.8049 17.7634C6.66329 17.8893 6.52562 18.0151 6.37615 18.1331C6.20308 18.2708 5.97493 18.2708 5.8294 18.1528C5.76253 18.1017 5.7586 17.9679 5.8412 17.8657C5.96707 17.7123 6.10474 17.5667 6.23454 17.4212C6.27388 17.3779 6.31321 17.3346 6.36828 17.2756C6.25815 17.1891 6.15981 17.1104 6.05754 17.0357C6.01034 17.0003 5.9592 17.0357 5.91593 17.0711C5.83333 17.1458 5.75859 17.2206 5.67206 17.2914C5.51079 17.429 5.32985 17.5038 5.12924 17.5156C5.02697 17.5195 4.93257 17.5077 4.88143 17.4212C4.95617 17.1734 5.08204 16.957 5.26691 16.7564C5.41638 16.5912 5.40852 16.5912 5.24724 16.4653C5.09384 16.3434 4.9365 16.2215 4.79883 16.0877C4.73589 16.0248 4.69656 15.9304 4.67689 15.8399C4.66902 15.7967 4.71623 15.718 4.75949 15.6826C4.9247 15.5449 5.10957 15.5449 5.27478 15.6078C5.39672 15.655 5.50685 15.7259 5.61306 15.7967C5.69959 15.8517 5.77826 15.9147 5.853 15.9776C5.91987 16.0327 5.97887 16.0209 6.04967 15.9579C6.16768 15.8557 6.29355 15.7573 6.41942 15.659C6.45088 15.6314 6.49022 15.6078 6.52955 15.5921C6.70656 15.5095 6.8403 15.5842 6.8167 15.7534C6.7931 15.9265 6.73803 16.0917 6.61216 16.2411C6.56496 16.2962 6.52169 16.3513 6.46269 16.426L6.47055 16.4339Z" fill="black"/>
<path d="M20.5169 20.3675C20.7057 20.6664 20.9496 21.0598 21.1974 21.4531C21.3272 21.6577 21.3233 21.7324 21.1345 21.8779C20.9654 22.0038 20.7883 22.1139 20.6074 22.228C20.4068 22.3539 20.2101 22.4798 19.9977 22.5899C19.8561 22.6607 19.7027 22.7118 19.5493 22.7472C19.388 22.7826 19.27 22.7197 19.1638 22.5781C18.6957 21.9487 18.1923 21.3509 17.7438 20.7097C17.1145 19.8129 16.5245 18.8924 15.9226 17.9759C15.7889 17.7714 15.8715 17.5669 16.1075 17.5079C16.2845 17.4646 16.3868 17.5079 16.5677 17.5118C16.8313 17.5197 17.1106 17.3427 17.26 17.142C17.319 17.0594 17.3662 16.969 17.4331 16.8942C17.5 16.8116 17.5747 16.7251 17.6612 16.6661C17.8658 16.5245 17.9838 16.556 18.1215 16.7644C18.5581 17.4253 18.9947 18.0861 19.4313 18.7469C19.7696 19.2582 20.1118 19.7735 20.5091 20.3754L20.5169 20.3675Z" fill="#E50012"/>
<path d="M18.3064 8.5277C18.3733 8.47264 18.4559 8.4687 18.5385 8.4805C18.6801 8.5041 18.8217 8.53164 18.9593 8.55524C19.0655 8.57491 19.0813 8.55524 19.101 8.44903C19.1324 8.26023 19.1757 8.07142 19.219 7.88261C19.2426 7.78428 19.3094 7.72528 19.396 7.68201C19.4982 7.63481 19.5966 7.66627 19.628 7.77641C19.6595 7.87868 19.6752 7.98488 19.6831 8.08715C19.6949 8.24449 19.6949 8.40183 19.691 8.55917C19.691 8.63784 19.7146 8.68111 19.7932 8.69291C19.9112 8.71258 20.0293 8.72831 20.1473 8.75584C20.2535 8.78338 20.3597 8.82271 20.4619 8.86205C20.5327 8.88958 20.5839 8.94465 20.6035 9.02332C20.6232 9.10199 20.5839 9.18459 20.5052 9.20819C20.458 9.22393 20.4069 9.22786 20.3557 9.23179C20.1551 9.23966 19.9584 9.21999 19.7657 9.16493C19.6477 9.12952 19.6162 9.15312 19.5926 9.26719C19.5848 9.29473 19.5808 9.32226 19.5808 9.3498C19.573 9.5504 19.5022 9.73921 19.4392 9.92408C19.4038 10.0185 19.3763 10.0421 19.274 10.0382C19.2229 10.0382 19.1718 10.0303 19.1246 10.0185C19.0183 9.99095 18.9633 9.92015 18.9593 9.81001C18.9475 9.57794 18.9397 9.3498 18.9908 9.12166C19.0183 8.99185 18.9987 8.96432 18.8689 8.94072C18.7509 8.91712 18.6329 8.90925 18.5109 8.89745C18.4126 8.88958 18.3339 8.84631 18.2671 8.77945C18.1884 8.70471 18.1923 8.5749 18.3103 8.52377L18.3064 8.5277Z" fill="black"/>
<path d="M12.5163 12.1661C12.8703 12.7601 13.0866 13.4012 13.2164 14.066C13.2518 14.2509 13.2754 14.4397 13.2951 14.6285C13.3108 14.774 13.2361 14.8566 13.1142 14.892C12.9608 14.9392 12.8034 14.8999 12.6697 14.7976C12.6146 14.7583 12.5792 14.6678 12.5635 14.5931C12.4966 14.302 12.4455 14.0109 12.3786 13.7238C12.3471 13.5822 12.3039 13.4406 12.2488 13.3068C12.0718 12.882 11.883 12.4611 11.6352 12.0678C11.5722 11.9734 11.525 11.8711 11.6037 11.7846C11.6824 11.6941 11.7768 11.6233 11.9223 11.6587C12.2016 11.7256 12.3825 11.9144 12.5163 12.1661Z" fill="black"/>
<path d="M24.7613 5.10954C24.7967 5.07807 24.8281 5.05447 24.8517 5.03087C25.0641 4.79879 25.2411 4.89713 25.3985 5.1056C25.4299 5.14494 25.4496 5.19607 25.4614 5.24721C25.5598 5.60122 25.662 5.95523 25.6345 6.32891C25.6266 6.42332 25.6109 6.52559 25.5755 6.61212C25.5126 6.76553 25.4418 6.915 25.3591 7.0566C25.2569 7.22181 25.1585 7.21001 25.0091 7.18247C24.9737 7.17854 24.9265 7.12741 24.9225 7.09201C24.9107 6.98187 24.8989 6.8678 24.9422 6.75766C24.9894 6.63966 25.0327 6.51378 25.0602 6.38791C25.1507 5.9985 25.0523 5.64056 24.8557 5.30228C24.8203 5.23934 24.7927 5.17641 24.7573 5.10954H24.7613Z" fill="black"/>
<path d="M15.7261 15.1987C16.1706 14.9627 16.5324 15.0532 16.9101 15.3482C17.1697 15.5527 17.268 15.9146 17.1736 16.2372C17.0713 16.5754 16.8314 16.7918 16.56 16.9884C16.3987 17.1025 16.206 17.0829 16.0211 17.0514C15.6474 16.9884 15.3681 16.7642 15.1715 16.4614C15.0102 16.2136 15.1636 15.7927 15.317 15.5803C15.4429 15.4072 15.5373 15.3167 15.7221 15.1987H15.7261Z" fill="#E50012"/>
<path d="M24.0769 5.37697C24.1634 5.32977 24.2578 5.31403 24.3404 5.37304C24.4466 5.44777 24.5489 5.52251 24.6394 5.61298C24.7298 5.70345 24.8085 5.80965 24.8872 5.90799C24.954 5.99059 24.954 6.07713 24.9029 6.17546C24.8557 6.26593 24.777 6.2738 24.6905 6.262C24.604 6.2502 24.5332 6.21873 24.486 6.14006C24.364 5.93552 24.2028 5.76245 24.0375 5.58938C23.9431 5.49104 23.9549 5.44384 24.0729 5.37697H24.0769Z" fill="black"/>
<path d="M24.4032 6.30914C24.4661 6.36815 24.3835 6.49008 24.2773 6.51368C24.1475 6.54515 24.0256 6.53729 23.9273 6.41928C23.8171 6.28948 23.6991 6.16754 23.585 6.04167C23.5614 6.01413 23.5378 5.9866 23.526 5.95513C23.5024 5.89613 23.5142 5.84499 23.5732 5.80959C23.6716 5.75452 23.7778 5.72699 23.8801 5.79779C23.9587 5.84893 24.0374 5.90006 24.1003 5.963C24.1947 6.0574 24.2773 6.16361 24.4032 6.30914Z" fill="black"/>
<path d="M22.5899 5.54232C22.5073 5.51086 22.409 5.41645 22.3382 5.36925C22.232 5.29845 22.1848 5.25518 22.0392 5.14111C22.0156 5.12931 22.0038 5.10177 21.992 5.07424C21.8976 5.04277 21.8308 5.08211 21.7678 5.16864C21.7088 5.23551 21.6891 5.31812 21.756 5.40072C21.7757 5.42825 21.7836 5.43219 21.8111 5.45579C21.9448 5.55806 22.0864 5.65639 22.2162 5.76653C22.3342 5.86487 22.4837 5.95534 22.6174 5.8098C22.6883 5.739 22.6922 5.63279 22.6528 5.56592C22.6332 5.56199 22.6096 5.55412 22.586 5.54232H22.5899Z" fill="black"/>
<path d="M22.0707 5.09776C21.9999 5.0545 21.992 4.91289 22.0786 4.82242C22.2084 4.68082 22.3539 4.76342 22.468 4.85389C22.5899 4.95616 22.7236 5.04663 22.8535 5.14497C22.881 5.16463 22.8889 5.16857 22.9085 5.1961C22.9715 5.27477 22.9518 5.35344 22.8889 5.42031C22.8141 5.51865 22.7354 5.55798 22.6214 5.49504C22.5388 5.46358 22.4404 5.36917 22.3696 5.32197C22.2634 5.25117 22.2162 5.2079 22.0707 5.09383V5.09776Z" fill="black"/>
<path d="M8.98404 14.9275C9.01944 14.8961 9.0509 14.8725 9.0745 14.8489C9.28691 14.6168 9.46392 14.7151 9.62126 14.9236C9.65273 14.9629 9.67239 15.0141 9.68419 15.0652C9.78253 15.4192 9.8848 15.7732 9.85727 16.1469C9.8494 16.2413 9.83366 16.3436 9.79826 16.4301C9.73533 16.5835 9.66453 16.733 9.58192 16.8746C9.47965 17.0398 9.38132 17.028 9.23184 17.0005C9.19644 16.9965 9.14924 16.9454 9.14531 16.91C9.13351 16.7999 9.12171 16.6858 9.16498 16.5757C9.21218 16.4576 9.25545 16.3318 9.28298 16.2059C9.37345 15.8165 9.27511 15.4585 9.07844 15.1203C9.04304 15.0573 9.0155 14.9944 8.9801 14.9275H8.98404Z" fill="black"/>
<path d="M8.29966 15.195C8.3862 15.1478 8.4806 15.132 8.5632 15.191C8.6694 15.2658 8.77168 15.3405 8.86214 15.431C8.95261 15.5214 9.03128 15.6276 9.10995 15.726C9.17682 15.8086 9.17682 15.8951 9.12569 15.9935C9.07848 16.0839 8.99982 16.0918 8.91328 16.08C8.82674 16.0682 8.75594 16.0367 8.70874 15.9581C8.5868 15.7535 8.42553 15.5804 8.26032 15.4074C8.16592 15.309 8.17772 15.2618 8.29572 15.195H8.29966Z" fill="black"/>
<path d="M8.63014 16.1312C8.69307 16.1902 8.61047 16.3121 8.50427 16.3357C8.37446 16.3672 8.25252 16.3593 8.15419 16.2413C8.04405 16.1115 7.92605 15.9896 7.81197 15.8637C7.78837 15.8362 7.76477 15.8086 7.75297 15.7772C7.72937 15.7182 7.74117 15.667 7.80017 15.6316C7.89851 15.5765 8.00471 15.549 8.10698 15.6198C8.18565 15.6709 8.26432 15.7221 8.32726 15.785C8.42166 15.8794 8.50427 15.9856 8.63014 16.1312Z" fill="black"/>
<path d="M10.9863 14.892C10.7581 14.9274 10.5418 14.8055 10.3766 14.5419C10.2625 14.357 10.3294 14.1879 10.4041 14.0856C10.3962 14.0699 10.3884 14.0542 10.3766 14.0345C10.3294 13.948 10.2861 13.8614 10.2271 13.7828C10.1052 13.6136 9.97536 13.4563 9.85736 13.2871C9.71969 13.0944 9.61348 12.9607 9.42074 12.8977C9.40107 12.8899 9.37354 12.8938 9.35387 12.8977C9.09426 12.9764 9.0274 13.177 9.1926 13.4523C9.52695 14.0148 9.88489 14.5695 10.2468 15.1123C10.4474 15.4112 10.6795 15.6905 10.8997 15.9776C10.9981 16.1035 11.1239 16.1546 11.2655 16.1664C11.4307 16.1782 11.4189 16.135 11.5369 16.0524C11.5841 16.0209 11.5999 15.9501 11.5684 15.8793C11.5055 15.7338 11.4661 15.5804 11.3678 15.4466C11.2577 15.2971 11.1554 15.1398 11.0531 14.9864C11.0335 14.9549 11.0138 14.9274 10.9941 14.892H10.9863Z" fill="black"/>
<path d="M11.9537 14.2036C11.9105 14.1722 11.8593 14.1368 11.8121 14.1289C11.6823 14.1014 11.5525 14.066 11.4267 14.062C11.1553 14.0581 10.8091 14.1328 10.5377 14.1407C10.5298 14.1407 10.522 14.1407 10.5141 14.1407C10.459 14.1564 10.3804 14.3216 10.4787 14.479C10.577 14.6363 10.754 14.8251 10.99 14.774C10.99 14.774 10.994 14.774 10.9979 14.774C11.0333 14.7622 11.0608 14.7543 11.0884 14.7543C11.2261 14.7386 11.4896 14.6796 11.6273 14.656C11.7453 14.6363 11.8672 14.6088 11.9695 14.5577C12.0993 14.4947 12.0875 14.3059 11.9577 14.2076L11.9537 14.2036Z" fill="black"/>
<path d="M12.9884 10.9624C12.9884 10.9624 13.1733 11.3912 13.5273 11.4502C13.7122 11.4816 13.9325 11.4384 14.0898 11.167C14.1724 10.9821 14.1174 10.8208 14.0702 10.6399C14.0347 10.4983 13.9207 10.4117 13.8145 10.3567C13.6335 10.2662 13.4998 10.2465 13.3189 10.3134C13.2363 10.3449 13.0907 10.4786 13.0238 10.5612C12.9373 10.6674 12.957 10.8798 12.9924 10.9624H12.9884ZM13.4054 10.6753C13.7594 10.4904 14.0033 11.0804 13.6689 11.1906C13.4133 11.2692 13.1537 10.7815 13.4054 10.6753Z" fill="black"/>
<path d="M15.6672 12.8349C15.6279 12.7995 14.2511 12.0128 14.1607 11.9617C14.0623 11.9066 13.8578 11.7335 13.7555 11.5841C13.6768 11.6077 13.5942 11.6116 13.5156 11.5998C13.2048 11.5487 12.9806 11.2458 12.8744 11.0648C12.8508 11.053 12.8312 11.0412 12.8154 11.0294C12.7761 11.0058 12.7446 10.9704 12.7053 10.9508C12.5873 10.8878 12.4614 10.9114 12.3867 11.0058C12.3237 11.0884 12.3355 11.1868 12.4221 11.3087C12.4614 11.3638 12.5007 11.4189 12.5519 11.4621C12.7643 11.6627 12.9767 11.8594 13.193 12.06C13.6296 12.4612 14.1017 12.8113 14.6327 13.0473C14.9238 13.1771 15.2148 13.2912 15.5256 13.3109C15.6357 13.3187 15.7341 13.2873 15.7773 13.1732C15.8167 13.067 15.7734 12.9332 15.6711 12.8349H15.6672Z" fill="black"/>
<path d="M16.9729 10.5849C16.9533 10.4433 17.0319 10.2978 17.1971 10.1483C17.1932 10.1286 17.1893 10.1089 17.1853 10.0814C17.1263 9.7038 16.8431 8.92891 16.8313 8.89744C16.7566 8.7165 16.6071 8.65356 16.4144 8.70076C16.1587 8.7637 15.3877 9.22785 15.0927 9.44026C14.8489 9.61726 14.5892 9.7628 14.5578 10.0696C14.546 10.1719 14.605 10.2781 14.6915 10.3096C14.8803 10.3804 15.136 10.2388 15.3169 10.105C15.6001 9.94374 15.7378 9.8454 15.9699 9.71167C16.0643 9.6566 16.1666 9.58973 16.2964 9.50713C16.3278 9.6094 16.5206 10.0145 16.5324 10.0853C16.6032 10.6675 16.552 11.0648 16.4576 11.4778C16.4065 11.7059 16.2806 11.9931 16.32 12.3038C16.3475 12.5241 16.4104 12.6382 16.6386 12.6382C16.9218 12.5556 16.9729 12.4926 17.0162 12.1307C17.0437 11.8829 17.1775 11.2103 17.2247 10.9625C17.2286 10.9389 17.2325 10.9232 17.2404 10.9035C17.1539 10.8563 17.0005 10.754 16.9769 10.5849H16.9729Z" fill="black"/>
<path d="M18.8612 10.8562C18.633 10.577 18.4127 10.5022 18.0666 10.3882C17.8345 10.3134 17.5828 10.2584 17.2917 10.2505C17.1226 10.2938 17.1068 10.4668 17.1186 10.5573C17.1383 10.7146 17.2484 10.7776 17.2524 10.7776C17.2524 10.7776 17.3822 10.8051 17.39 10.8051C17.7795 10.8366 17.9722 10.9742 18.3419 11.1119C18.5701 11.1985 18.6802 11.2535 18.8179 11.1631C18.9005 11.0608 18.9438 10.9467 18.8651 10.8523L18.8612 10.8562Z" fill="black"/>
<path d="M23.7149 8.03202C23.7463 7.94155 23.7463 7.76848 23.5772 7.57967C23.5261 7.5246 23.4749 7.49707 23.4159 7.49707C23.294 7.49707 23.0737 7.61507 23.058 7.62294C22.645 7.84322 22.3028 8.15003 21.9723 8.47257C21.9055 8.53551 21.8622 8.62204 21.815 8.70464C21.7953 8.73611 21.7835 8.77545 21.7914 8.80692C21.815 8.90919 21.8465 9.00752 21.8819 9.10586C21.9055 9.18059 21.9684 9.2042 22.0431 9.17666C22.1808 9.12159 22.3264 9.06259 22.4522 8.98786C22.6214 8.88952 22.7787 8.77151 22.94 8.65744C23.1839 8.4765 23.4395 8.30737 23.6598 8.10282C23.6795 8.08316 23.6991 8.06349 23.7188 8.03989L23.7149 8.03202Z" fill="black"/>
<path d="M23.7542 7.04885C23.5182 6.7381 23.2664 6.44309 23.0226 6.13628C22.9242 6.01041 22.8259 5.88454 22.7315 5.75474C22.7197 5.79407 22.7 5.83341 22.6686 5.86881C22.6489 5.89241 22.6253 5.90814 22.6017 5.92388C22.4876 5.99468 22.346 5.96321 22.1847 5.82947C22.1021 5.7626 22.0156 5.69574 21.9291 5.6328C21.9212 5.62887 21.9173 5.62493 21.9094 5.61707C21.8976 5.62493 21.8819 5.6328 21.8701 5.6446C21.5554 5.88454 21.2289 6.12055 20.8749 6.30936C20.69 6.40769 20.513 6.54143 20.3989 6.73024C20.2888 6.91904 20.2967 7.02131 20.4619 7.13932C20.4776 7.15112 20.4933 7.15898 20.5051 7.16685C20.6625 7.29666 20.694 7.30059 20.871 7.18652C21.2289 6.95838 21.5869 6.7263 21.9448 6.49423C22.0274 6.43916 22.1021 6.37229 22.2005 6.29362C22.5151 6.69484 22.818 7.08818 23.1248 7.48153C23.172 7.44219 23.2861 7.36352 23.4159 7.37139C23.5103 7.37139 23.5929 7.41466 23.6637 7.49333C23.7778 7.6192 23.8289 7.749 23.8447 7.85521C23.8958 7.77654 23.943 7.69787 23.9941 7.6192C24.0177 7.57987 24.0099 7.50906 23.9902 7.4658C23.9194 7.32026 23.8525 7.16685 23.7542 7.04098V7.04885Z" fill="black"/>
<path d="M28.0457 5.32198C28.0968 5.25904 28.1362 5.05057 27.9316 4.82243C27.8805 4.76736 27.8294 4.73982 27.7704 4.73982C27.6484 4.73589 27.4006 4.88143 27.3691 4.9011C27.0269 5.15284 26.6847 5.40851 26.3425 5.66812C26.1734 5.79399 26.1694 5.82546 26.2363 6.02213C26.2402 6.03787 26.2442 6.05754 26.2481 6.07327C26.3032 6.27388 26.3976 6.32108 26.6139 6.28174C26.8342 6.24241 27.023 6.12047 27.1803 5.9828C27.4478 5.74679 27.735 5.55012 28.0339 5.35738C28.0339 5.34558 28.0339 5.32984 28.0457 5.32198Z" fill="black"/>
<path d="M28.0888 4.01217C27.8843 3.67389 27.6876 3.32381 27.4752 2.98947C27.3887 2.8518 27.2667 2.73379 27.1527 2.61185C27.1173 2.57645 27.0543 2.54105 27.0071 2.55285C26.8183 2.59219 26.6177 2.61579 26.4486 2.70232C26.1772 2.84 25.9294 3.017 25.6737 3.18614C25.5085 3.29234 25.3433 3.40248 25.1899 3.52835C25.0719 3.62276 24.9696 3.73683 24.8673 3.84696C24.8123 3.90597 24.8162 3.97677 24.8752 4.02397C24.9578 4.09084 25.0404 4.15771 25.1269 4.21671C25.1545 4.23638 25.1977 4.23638 25.2331 4.23244C25.3236 4.21671 25.4219 4.20491 25.5045 4.16557C25.9254 3.9689 26.3345 3.75649 26.6846 3.44182C26.7121 3.41821 26.7475 3.40641 26.8026 3.37495C27.0661 3.80369 27.3297 4.22458 27.5972 4.65726C27.6444 4.63366 27.7034 4.61792 27.7663 4.62186C27.8607 4.62186 27.9433 4.66512 28.0141 4.74379C28.1832 4.9326 28.2147 5.11747 28.1911 5.25121C28.3563 5.13321 28.431 4.98374 28.4782 4.79886C28.5018 4.71233 28.4901 4.64939 28.4428 4.57859C28.317 4.39372 28.195 4.20491 28.077 4.01217H28.0888Z" fill="black"/>
<path d="M62.9828 36.8645C63.1637 36.8645 63.3407 36.8566 63.5216 36.8566C63.7026 36.8566 63.8875 36.8566 64.0645 36.8566C64.2415 36.8566 64.4342 36.8566 64.6073 36.8566C64.7646 37.0218 64.8708 37.1595 65.0006 37.2735C65.1226 37.3797 65.2484 37.482 65.3704 37.5882C65.4923 37.6944 65.6182 37.7967 65.748 37.895C65.8739 37.9934 65.9329 38.1114 65.9329 38.2608C65.9329 38.3788 65.9329 38.5008 65.9368 38.6188C65.9407 38.8194 65.9368 39.0161 65.9447 39.2167C65.9525 39.4173 65.9604 39.614 65.9643 39.8146C65.9683 40.0152 65.9761 40.2118 65.9801 40.4125C65.984 40.6131 65.9801 40.8097 65.9879 41.0103C65.9958 41.2109 65.9997 41.4076 66.0037 41.6082C66.0076 41.742 65.9722 41.8285 65.866 41.9111C65.6929 42.0527 65.508 42.1746 65.3153 42.2848C65.1226 42.3949 64.922 42.4854 64.7135 42.5641C64.505 42.6427 64.3005 42.7175 64.0841 42.7725C63.8678 42.8276 63.6632 42.8512 63.4626 42.8512C63.2463 42.8512 63.0418 42.8158 62.8451 42.7568C62.6484 42.6978 62.4557 42.6191 62.2708 42.5051C62.0977 42.3989 61.9365 42.2651 61.7791 42.1156C61.6493 41.9976 61.6296 41.8521 61.6296 41.6987C61.6296 41.4706 61.6296 41.2424 61.6296 41.0143C61.6296 40.7861 61.6296 40.558 61.6296 40.3298C61.6296 40.1017 61.6375 39.8736 61.6375 39.6454C61.6375 39.4488 61.6375 39.256 61.6375 39.0593C61.6375 38.8627 61.6454 38.6699 61.6493 38.4733C61.6493 38.312 61.728 38.2018 61.8617 38.0917C62.023 37.954 62.1764 37.8085 62.3298 37.663C62.4832 37.5174 62.6366 37.3719 62.7861 37.2224C62.8765 37.128 62.9119 36.9903 62.9749 36.8527L62.9828 36.8645Z" fill="white"/>
<path d="M64.9142 36.1092C64.7922 36.298 64.6978 36.4436 64.5641 36.652C64.391 36.6442 64.2179 36.6363 64.0331 36.6324C63.8482 36.6284 63.679 36.6206 63.4981 36.6127C63.3172 36.6048 63.1441 36.597 62.9671 36.5891C62.9042 36.3688 62.8727 36.1564 62.8648 35.9401C62.857 35.7237 62.8727 35.5035 62.9002 35.2793C63.1205 35.2321 63.3368 35.2085 63.5492 35.2006C63.7617 35.1927 63.9859 35.2045 64.2022 35.2242C64.2651 35.2321 64.3359 35.295 64.3792 35.354C64.4185 35.4051 64.4421 35.4759 64.4539 35.5428C64.5051 35.8142 64.627 36.0305 64.9142 36.1092Z" fill="white"/>
</svg>
