<svg width="256" height="58" viewBox="0 0 256 58" fill="none" xmlns="http://www.w3.org/2000/svg">
<g clip-path="url(#clip0_1_995)">
<path d="M50.3814 2.54374C50.3814 3.74237 50.6214 4.19518 51.3413 4.18186L55.2876 4.07532C55.4875 4.07532 55.7542 4.19518 55.7275 4.70126L55.7542 8.8698C56.1275 9.05626 56.5008 9.6822 56.5008 10.5878C56.5008 11.6666 56.2741 12.1993 56.0608 12.4524C56.2341 12.6122 56.3941 12.6654 56.7941 12.6521C57.154 12.6521 57.9273 12.5189 57.9406 11.5467L57.9006 3.18301L57.754 3.15637C57.6606 3.35614 57.5407 3.42273 57.2074 3.50264C56.8874 3.58255 56.5408 3.38278 56.4608 3.20964C56.3141 2.90333 55.8608 1.75798 55.7275 1.46498C55.6742 1.34512 55.6475 1.13203 55.7009 0.958899L51.3013 1.03881C50.7547 1.03881 50.3681 1.19862 50.3814 2.51711" fill="black"/>
<path d="M50.1948 10.7343C50.1948 11.7465 50.3414 12.3458 50.8747 12.3458L55.2742 12.3192C55.9675 12.2792 56.2741 11.9196 56.2741 10.7743C56.2741 9.88198 55.9942 9.21608 55.4076 9.21608L50.9147 9.28267C50.4347 9.28267 50.1814 9.76212 50.1814 10.721" fill="black"/>
<path d="M73.3124 2.55706L73.3524 11.4801C73.339 12.4524 72.5524 12.5589 72.2058 12.5589C71.8058 12.5589 71.6459 12.5189 71.4725 12.3591C71.6725 12.0794 71.9125 11.6 71.9125 10.5079C71.9125 9.6023 71.5392 9.0163 71.1659 8.81653V4.62136C71.1659 4.11527 70.9259 3.88886 70.726 3.88886L66.7797 3.99541C66.0998 4.02204 65.8065 3.40942 65.8065 2.46384C65.8065 1.14535 66.2864 0.998853 66.8464 0.998853L71.9925 0.932262C72.8057 0.932262 73.299 1.78462 73.3257 2.55706" fill="black"/>
<path d="M65.5798 10.6544C65.5798 11.4402 65.7531 12.2659 66.2864 12.2659L70.686 12.2393C71.3792 12.1993 71.6859 11.8397 71.6859 10.6944C71.6859 9.80207 71.4192 9.14948 70.8193 9.13617L66.3264 9.20276C65.8198 9.20276 65.5665 9.8287 65.5798 10.6411" fill="black"/>
<path d="M57.4207 0.133181C57.1407 0.306315 57.0874 0.705856 57.1674 0.985535C57.2874 1.45167 57.5273 2.17084 57.6607 2.47715C57.754 2.69024 58.074 2.86338 58.2873 2.71688C58.5272 2.55706 58.8605 2.23743 58.7139 1.74466C58.5939 1.3318 58.3406 0.67922 58.2339 0.359587C58.0873 -0.0665893 57.754 -0.0799074 57.4074 0.133181" fill="black"/>
<path d="M57.3807 2.49047C57.2207 1.9977 57.0074 1.45167 56.9007 0.958899C56.8741 0.772446 56.9007 0.466132 56.9274 0.399541C56.7408 0.213089 56.4608 0.319633 56.2075 0.506086C55.9408 0.692538 55.9008 1.17199 56.0075 1.45167C56.1808 1.87784 56.4474 2.57038 56.5274 2.79679C56.6741 3.19633 57.074 3.28955 57.3007 3.14305C57.4473 3.04983 57.5273 2.94328 57.5807 2.8101C57.5273 2.77015 57.4607 2.66361 57.3807 2.50379" fill="black"/>
<path d="M59.1272 3.15637C58.7672 3.26292 58.3939 3.71573 58.4739 4.23513C58.5539 4.75454 58.9938 7.77773 59.0738 8.15063C59.1538 8.52354 59.6071 8.80322 60.0871 8.6434C60.567 8.48358 61.007 8.11068 60.927 7.33823C60.8603 6.69897 60.4204 4.11527 60.3004 3.66246C60.1537 3.15637 59.7004 2.96992 59.1405 3.14306" fill="black"/>
<path d="M61.3403 2.74351C60.9803 2.86338 60.6204 3.32951 60.7137 3.84891C60.807 4.36831 61.3269 7.33823 61.4203 7.71114C61.5003 8.08404 61.9669 8.3504 62.4468 8.17727C62.9268 8.00413 63.3534 7.61791 63.2467 6.85878C63.1534 6.21952 62.6601 3.68909 62.5135 3.2496C62.3535 2.74351 61.9002 2.57038 61.3403 2.75683" fill="black"/>
<path d="M64.5666 2.57038C63.82 2.57038 63.6467 3.18301 63.6467 3.50264C63.6467 5.3938 63.78 7.6845 62.9534 8.82985C62.2202 9.84202 60.967 9.84202 60.2871 10.0551C59.7538 10.2282 59.6071 10.8542 59.6605 11.4801C59.7404 12.3724 60.0604 12.8785 60.8203 12.8785C62.0602 12.8785 64.02 12.1194 64.8332 10.1084C65.3399 8.86981 65.6465 8.124 65.5798 3.55591C65.5798 2.8101 65.0866 2.57038 64.5399 2.57038" fill="black"/>
<path d="M8.66577 3.71573C8.3058 3.80896 7.95917 4.22181 8.03916 4.67463C8.11916 5.14076 8.54578 7.831 8.61244 8.16395C8.6791 8.4969 9.11905 8.73663 9.58567 8.60345C10.0523 8.45695 10.4789 8.124 10.3989 7.44478C10.3323 6.8721 9.91897 4.56808 9.78565 4.18186C9.639 3.72905 9.21238 3.56923 8.66577 3.71573Z" fill="black"/>
<path d="M10.8122 3.34283C10.4656 3.44937 10.1189 3.86223 10.2123 4.31504C10.3056 4.76785 10.8122 7.41814 10.8922 7.75109C10.9722 8.08404 11.4255 8.31045 11.8788 8.16395C12.3454 8.00413 12.7587 7.67118 12.652 6.99196C12.572 6.41929 12.0787 4.16854 11.9454 3.78232C11.7854 3.32951 11.3455 3.18301 10.8122 3.34283Z" fill="black"/>
<path d="M13.9452 3.18301C13.212 3.18301 13.0653 3.72905 13.0653 4.02204C13.0653 5.70012 13.1986 7.73777 12.3854 8.74994C11.6655 9.64225 10.4522 9.65557 9.81231 9.84202C9.29236 9.98852 9.14571 10.5479 9.21237 11.1072C9.29236 11.9063 9.599 12.3591 10.3323 12.3458C11.5321 12.3458 13.4386 11.6666 14.2252 9.88198C14.7185 8.77658 15.0251 8.11068 14.9584 4.04868C14.9584 3.38278 14.4785 3.16969 13.9585 3.16969" fill="black"/>
<path d="M17.9848 5.55362C17.6248 6.33938 17.7182 7.0186 18.3981 7.33823C19.118 7.6845 20.3045 8.3504 20.9578 8.9364C21.4778 9.40253 22.211 9.3093 22.5177 8.57681C22.9576 7.55132 22.691 6.95201 22.211 6.57911C21.5178 6.01975 20.2112 5.2473 19.2247 4.91435C18.5847 4.68795 18.3048 4.86108 17.9848 5.55362Z" fill="black"/>
<path d="M17.3582 1.14535C16.5849 1.14535 16.265 1.50494 16.265 1.9977L16.3183 11.5467C16.3183 12.0262 16.5716 12.4524 17.4115 12.4524C18.2781 12.4524 18.5181 12.0129 18.5181 11.5334V7.73777C18.1714 7.538 17.5448 7.20505 17.5448 6.45924C17.5448 5.44707 18.1448 4.79449 18.4781 4.54145V1.95775C18.4647 1.43835 18.2381 1.13203 17.3582 1.14535Z" fill="black"/>
<path d="M7.54588 6.83215C7.6392 7.39151 7.49255 7.72446 7.13259 7.81768L4.8395 8.47027L5.49276 11.3736C5.57275 11.7065 5.55942 11.9729 5.47943 12.186C5.38611 12.4124 5.25279 12.5323 5.07947 12.5456C4.71951 12.5855 4.47953 12.3325 4.35955 11.7598L3.66628 8.7899L1.41319 9.41585C1.22654 9.48244 1.06656 9.42916 0.919904 9.28267C0.773253 9.13617 0.693261 8.9364 0.653265 8.69667C0.559942 8.05741 0.679929 7.6845 1.02656 7.57796L3.25299 6.96533L2.82637 5.15408L1.05322 5.67348C0.853245 5.71343 0.693261 5.67348 0.559942 5.52698C0.426622 5.3938 0.333299 5.19403 0.293303 4.91435C0.199979 4.28841 0.319967 3.92882 0.679929 3.83559L2.41308 3.31619L2.22643 2.47715C2.14644 2.13089 2.15978 1.85121 2.26643 1.6248C2.35975 1.42503 2.49307 1.30517 2.67972 1.27853C2.81304 1.26521 2.94636 1.3318 3.07968 1.4783C3.213 1.61148 3.30632 1.81125 3.35965 2.0643L3.55963 2.9566L5.33278 2.45052C5.51943 2.38393 5.67941 2.4372 5.83939 2.59702C5.98604 2.74351 6.07937 2.92997 6.11936 3.18301C6.21269 3.82227 6.07937 4.18186 5.7194 4.28841L3.99958 4.78117L4.41287 6.63238L6.7593 5.96648C6.94594 5.92652 7.11926 5.9798 7.26591 6.13961C7.41256 6.31275 7.50588 6.52583 7.54588 6.80551" fill="black"/>
<path d="M5.01259 12.7987C4.5593 12.7987 4.25267 12.4657 4.10602 11.8265L3.47942 9.1096L1.49296 9.65564C1.4263 9.68227 1.3463 9.69559 1.26631 9.69559C1.13299 9.69559 0.919682 9.65564 0.733035 9.45587C0.55972 9.26941 0.453064 9.04301 0.399736 8.75001C0.279749 7.97757 0.466396 7.51143 0.959678 7.37825L2.95947 6.8189L2.6395 5.47378L1.11966 5.91327C0.826359 5.97986 0.55972 5.91327 0.373073 5.70018C0.199757 5.52705 0.0931017 5.28732 0.0397739 4.96769C-0.106877 4.02211 0.279749 3.7158 0.613048 3.62257L2.11956 3.18308L1.97291 2.55713C1.87958 2.17091 1.90625 1.82464 2.03957 1.55828C2.19955 1.21201 2.46619 1.10546 2.65284 1.07883C2.87948 1.05219 3.10612 1.14542 3.29277 1.35851C3.45275 1.51832 3.55941 1.74473 3.62607 2.05104L3.77272 2.69031L5.2659 2.26413C5.33256 2.2375 5.41255 2.22418 5.49254 2.22418C5.63919 2.22418 5.83917 2.26413 6.03915 2.47722C6.2258 2.65036 6.33245 2.89008 6.38578 3.18308C6.53243 4.14197 6.1458 4.44829 5.79917 4.55483L4.306 4.98101L4.61263 6.35277L6.69241 5.76677C6.69241 5.76677 6.8124 5.75346 6.86573 5.75346C7.02571 5.75346 7.25236 5.80673 7.46567 6.03313C7.65231 6.24622 7.75897 6.49926 7.8123 6.8189C7.94562 7.68457 7.55899 7.97757 7.21236 8.07079L5.15924 8.65678L5.77251 11.347C5.86583 11.7199 5.8525 12.0396 5.74585 12.2926C5.58586 12.6788 5.33256 12.7854 5.14591 12.812C5.10591 12.812 5.06592 12.812 5.03925 12.812M3.86604 8.49697L4.61263 11.7199C4.67929 11.9996 4.78595 12.3192 4.99926 12.3192C5.01259 12.3192 5.02592 12.3192 5.03925 12.3192C5.10591 12.3192 5.17257 12.2393 5.2259 12.1062C5.29256 11.933 5.30589 11.7066 5.2259 11.4269L4.51931 8.2972L7.03905 7.57802C7.11904 7.55139 7.35901 7.49812 7.26569 6.85885C7.22569 6.63244 7.15903 6.44599 7.03905 6.31281C6.94572 6.20627 6.87906 6.20627 6.8524 6.20627C6.83907 6.20627 6.82573 6.20627 6.8124 6.20627L4.19934 6.93876L3.67939 4.62142L5.62586 4.06207C5.8525 3.99548 5.91916 3.7158 5.83917 3.22303C5.81251 3.03658 5.74585 2.89008 5.62586 2.77022C5.53254 2.67699 5.47921 2.67699 5.46588 2.67699C5.45254 2.67699 5.42588 2.67699 5.39922 2.67699L3.3461 3.26298L3.07946 2.11763C3.02613 1.89123 2.94614 1.73141 2.85281 1.63818C2.78615 1.54496 2.73283 1.51832 2.70616 1.51832C2.66617 1.51832 2.57284 1.53164 2.49285 1.71809C2.39953 1.90455 2.39953 2.14427 2.46619 2.42395L2.70616 3.47607L0.746367 4.04875C0.479728 4.11534 0.479728 4.5282 0.533056 4.86115C0.55972 5.07424 0.639711 5.23405 0.733035 5.3406C0.799695 5.40719 0.853023 5.4205 0.893018 5.4205C0.919682 5.4205 0.933014 5.4205 0.959678 5.4205L2.99947 4.82119L3.54608 7.11189L1.07967 7.79111C0.826359 7.8577 0.839691 8.2972 0.893018 8.64347C0.919682 8.84324 0.986342 8.98973 1.093 9.09628C1.15966 9.17619 1.21299 9.17619 1.22632 9.17619C1.25298 9.17619 1.26631 9.17619 1.29298 9.16287L3.83938 8.45701L3.86604 8.49697Z" fill="black"/>
<path d="M35.623 7.49805C34.7964 8.25718 35.223 9.20276 35.223 9.20276C34.2498 10.5212 33.5032 11.1871 32.33 12.2925C32.21 12.4124 32.09 12.4657 31.97 12.4524C31.7834 12.4524 31.6234 12.3325 31.4901 12.1061C31.3567 11.8797 31.2901 11.6266 31.2901 11.347C31.2901 10.9741 31.4101 10.6811 31.6367 10.468C32.41 9.73548 33.2365 8.81653 34.1164 7.73777C35.2897 6.28611 35.503 5.10081 35.8229 4.15523C35.8629 4.02205 35.8763 3.94214 35.8763 3.87555C35.8763 3.78232 35.7963 3.72905 35.6363 3.72905H32.0767C31.8633 3.72905 31.69 3.6225 31.57 3.42273C31.4501 3.20965 31.3967 2.9566 31.3967 2.66361C31.3967 2.37061 31.4501 2.11757 31.57 1.9178C31.69 1.71803 31.85 1.61148 32.0633 1.61148L36.4762 1.58485C37.4094 1.58485 37.8761 2.18416 37.8894 3.3961C37.8894 4.44822 37.8094 5.64684 36.9028 7.13846C36.9028 7.13846 36.1562 7.0186 35.6363 7.49805" fill="black"/>
<path d="M31.9833 12.5722C31.9833 12.5722 31.9567 12.5722 31.9433 12.5722C31.7167 12.5722 31.5167 12.439 31.3567 12.1594C31.2101 11.9196 31.1434 11.64 31.1434 11.347C31.1434 10.9474 31.2767 10.6278 31.5167 10.3881C32.29 9.65557 33.1165 8.74994 33.9831 7.67118C34.9297 6.48588 35.2363 5.51366 35.503 4.64799C35.5563 4.46154 35.6096 4.28841 35.6763 4.12859C35.7163 3.98209 35.7296 3.9155 35.7296 3.88886C35.7296 3.88886 35.7029 3.86223 35.6229 3.86223H32.0633C31.8767 3.86223 31.6234 3.79564 31.4501 3.48932C31.3167 3.26292 31.2634 2.98324 31.2634 2.67692C31.2634 2.37061 31.3301 2.09093 31.4501 1.87784C31.6234 1.57153 31.8767 1.50494 32.0633 1.50494L36.4762 1.4783C37.4894 1.4783 38.0094 2.11757 38.0094 3.40942C38.0094 4.4349 37.9427 5.66016 37.0095 7.20505L36.9695 7.28496H36.8762C36.8762 7.28496 36.7962 7.25832 36.6895 7.25832C36.4629 7.25832 36.0496 7.3116 35.7296 7.60459C34.983 8.29713 35.343 9.14948 35.3563 9.18944L35.383 9.24271L35.343 9.29598C34.4764 10.4813 33.7698 11.1472 32.7832 12.0661C32.6633 12.1727 32.5433 12.2925 32.4233 12.3991C32.29 12.5323 32.1433 12.5989 31.9967 12.5989M32.05 1.71803C31.89 1.71803 31.77 1.79793 31.6767 1.95775C31.57 2.1442 31.5167 2.38393 31.5167 2.65029C31.5167 2.92997 31.57 3.15637 31.6767 3.35614C31.77 3.51596 31.89 3.59587 32.0633 3.59587H35.6229C35.9562 3.59587 35.9829 3.80896 35.9829 3.86223C35.9829 3.92882 35.9696 4.03536 35.9296 4.16854C35.8763 4.34168 35.8229 4.51481 35.7696 4.68795C35.5163 5.52698 35.1963 6.56579 34.2098 7.79105C33.3432 8.86981 32.5033 9.80207 31.73 10.5346C31.53 10.721 31.4367 11.0007 31.4234 11.3336C31.4234 11.6 31.49 11.8264 31.61 12.0395C31.77 12.3192 31.9167 12.3192 31.97 12.3192C31.9833 12.3192 31.9967 12.3192 31.9967 12.3192C32.0633 12.3192 32.1433 12.2792 32.2366 12.1993C32.3566 12.0795 32.4766 11.9729 32.5966 11.853C33.5432 10.9607 34.2364 10.3082 35.0897 9.17612C35.0097 8.9364 34.783 8.11068 35.543 7.40482C35.9296 7.04524 36.4229 6.99196 36.6895 6.99196C36.7428 6.99196 36.7962 6.99196 36.8228 6.99196C37.6894 5.52698 37.7561 4.355 37.7561 3.38278C37.7561 2.23743 37.3294 1.69139 36.4762 1.69139L32.0633 1.71803H32.05Z" fill="black"/>
<path d="M36.7428 7.57796C38.2227 8.81653 38.7426 9.76211 39.1826 10.7077C39.2759 10.9075 39.3292 11.1206 39.3292 11.3203C39.3292 11.6133 38.9293 11.933 38.716 12.1061C38.5027 12.2792 38.316 12.3724 38.1294 12.3991C37.8627 12.4257 37.6494 12.2526 37.4761 11.9063C37.0761 11.0673 36.7295 10.4147 35.663 9.00299C35.663 9.00299 35.0897 8.2705 36.3029 7.63123C36.3029 7.63123 36.5829 7.4581 36.7295 7.57796" fill="black"/>
<path d="M38.1027 12.5189C37.7961 12.5189 37.5428 12.3325 37.3694 11.9463C36.9695 11.1206 36.6229 10.468 35.5696 9.06958C35.5696 9.06958 35.343 8.76326 35.423 8.37704C35.503 8.04409 35.7829 7.75109 36.2496 7.51137C36.2496 7.51137 36.4362 7.40482 36.6095 7.40482C36.7028 7.40482 36.7828 7.43146 36.8362 7.48473C38.3427 8.74994 38.876 9.70884 39.3159 10.6544C39.4092 10.8675 39.4626 11.0939 39.4759 11.3203C39.4759 11.6799 39.0626 11.9995 38.8093 12.1993C38.556 12.3991 38.356 12.4923 38.1427 12.5189C38.116 12.5189 38.1027 12.5189 38.076 12.5189M36.6095 7.65787C36.5429 7.65787 36.4362 7.71114 36.3962 7.72446C35.9963 7.93754 35.7563 8.16395 35.703 8.43031C35.6363 8.70999 35.7963 8.90976 35.7963 8.92308C36.8762 10.3481 37.2228 11.0007 37.6228 11.853C37.8094 12.2792 38.0227 12.2792 38.1027 12.2792H38.1294C38.276 12.2659 38.4227 12.186 38.636 12.0129C38.8226 11.8664 39.1959 11.56 39.1959 11.3336C39.1959 11.1472 39.1426 10.9474 39.0626 10.761C38.636 9.84202 38.116 8.90976 36.6495 7.67118C36.6495 7.67118 36.6362 7.67118 36.6095 7.67118" fill="black"/>
<path d="M25.744 3.6225C25.744 4.86108 25.5573 6.39265 25.1707 8.2039C24.8374 9.77543 24.5041 10.9341 24.1841 11.6799C24.0508 11.9862 23.9042 12.1327 23.7175 12.1327C23.5309 12.1327 23.3576 12.0528 23.2109 11.8664C23.0643 11.7065 22.9843 11.4935 22.9843 11.2271C22.9843 11.0673 23.0109 10.8941 23.0909 10.721C23.3709 10.0951 23.6509 9.06958 23.9575 7.65787C24.3041 6.01975 24.4908 4.67463 24.4774 3.6225C24.4774 3.31619 24.5441 3.08978 24.6774 2.91665C24.7974 2.77015 24.9441 2.70356 25.1307 2.70356C25.2907 2.70356 25.424 2.78347 25.5573 2.94328C25.6773 3.1031 25.744 3.32951 25.744 3.6225ZM30.2102 11.0406C30.2102 11.0406 30.2102 11.1605 30.2102 11.2404C30.2102 11.4935 30.1435 11.7065 30.0235 11.8664C29.8902 12.0395 29.7436 12.1194 29.5836 12.1194C29.237 12.1194 29.0236 11.8664 28.957 11.3736C28.8637 10.5878 28.6637 9.46912 28.357 8.00413C28.0104 6.31275 27.7038 5.04753 27.4371 4.22181C27.3838 4.08863 27.3705 3.95545 27.3705 3.80896C27.3705 3.56923 27.4371 3.36946 27.5571 3.19633C27.6904 3.02319 27.2905 3.11642 27.4638 3.1031C27.7304 3.1031 28.1704 4.355 28.2904 4.71458C28.5304 5.44707 29.1703 5.50035 29.5836 7.51137C29.8902 9.02962 30.1035 10.2149 30.2102 11.0406Z" fill="black"/>
<path d="M25.744 3.6225C25.744 4.86108 25.5573 6.39265 25.1707 8.2039C24.8374 9.77543 24.5041 10.9341 24.1841 11.6799C24.0508 11.9862 23.9042 12.1327 23.7175 12.1327C23.5309 12.1327 23.3576 12.0528 23.2109 11.8664C23.0643 11.7065 22.9843 11.4935 22.9843 11.2271C22.9843 11.0673 23.0109 10.8941 23.0909 10.721C23.3709 10.0951 23.6509 9.06958 23.9575 7.65787C24.3041 6.01975 24.4908 4.67463 24.4774 3.6225C24.4774 3.31619 24.5441 3.08978 24.6774 2.91665C24.7974 2.77015 24.9441 2.70356 25.1307 2.70356C25.2907 2.70356 25.424 2.78347 25.5573 2.94328C25.6773 3.1031 25.744 3.32951 25.744 3.6225ZM30.2102 11.0406C30.2102 11.0406 30.2102 11.1605 30.2102 11.2404C30.2102 11.4935 30.1435 11.7065 30.0235 11.8664C29.8902 12.0395 29.7436 12.1194 29.5836 12.1194C29.237 12.1194 29.0236 11.8664 28.957 11.3736C28.8637 10.5878 28.6637 9.46912 28.357 8.00413C28.0104 6.31275 27.7038 5.04753 27.4371 4.22181C27.3838 4.08863 27.3705 3.95545 27.3705 3.80896C27.3705 3.56923 27.4371 3.36946 27.5571 3.19633C27.6904 3.02319 27.2905 3.11642 27.4638 3.1031C27.7304 3.1031 28.1704 4.355 28.2904 4.71458C28.5304 5.44707 29.1703 5.50035 29.5836 7.51137C29.8902 9.02962 30.1035 10.2149 30.2102 11.0406Z" stroke="#231815" stroke-width="0.38" stroke-miterlimit="10"/>
<path d="M29.3569 4.99426C29.5436 5.71343 29.5169 5.67348 29.8769 7.4581C30.1835 8.98967 30.3968 10.175 30.5168 11.014C30.5168 11.0939 30.5168 11.1605 30.5168 11.2404C30.5168 11.56 30.4368 11.8264 30.2635 12.0395C30.0369 12.3458 29.7569 12.4124 29.5703 12.4124C29.2636 12.4124 28.7437 12.2925 28.637 11.4135C28.5437 10.6411 28.3437 9.50907 28.0371 8.05741C27.6905 6.37934 27.3838 5.11412 27.1172 4.30172C27.0639 4.14191 27.0372 3.98209 27.0372 3.80896C27.0372 3.50264 27.1172 3.2496 27.2772 3.03651C27.5038 2.71688 27.5838 2.69024 27.7704 2.67692C27.7704 2.67692 27.7304 4.46154 28.877 4.82113L29.3303 4.99426H29.3569ZM27.7971 3.28955C27.7971 3.28955 27.9038 3.20964 27.8104 3.34283C27.7171 3.46269 27.6771 3.60919 27.6771 3.79564C27.6771 3.90218 27.7038 4.02204 27.7304 4.11527C27.9971 4.95431 28.3171 6.24615 28.6637 7.93754C28.9703 9.40253 29.1703 10.5479 29.277 11.3336C29.3436 11.8264 29.5169 11.8264 29.5969 11.8264C29.6236 11.8264 29.6902 11.8264 29.7836 11.6932C29.8769 11.5867 29.9169 11.4269 29.9169 11.2271C29.9169 11.1605 29.9169 11.1072 29.9169 11.054C29.8102 10.2416 29.5969 9.05626 29.2903 7.538C28.917 5.78002 28.3304 5.3938 28.0371 4.50149C27.9704 4.27509 27.5971 3.3961 27.8104 3.27624M23.7175 12.4124C23.5176 12.4124 23.2243 12.3458 22.9709 12.0395C22.7843 11.8264 22.691 11.56 22.6776 11.2271C22.6776 11.0273 22.7176 10.8276 22.7976 10.6278C23.0643 10.0152 23.3576 9.00299 23.6375 7.60459C23.9842 5.99311 24.1575 4.64799 24.1575 3.6225C24.1575 3.26292 24.2375 2.96992 24.4108 2.75683C24.5974 2.54374 24.8374 2.42388 25.1174 2.42388C25.304 2.42388 25.5573 2.49047 25.7973 2.78347C25.9573 2.98324 26.0373 3.27624 26.0373 3.6225C26.0373 4.8744 25.8506 6.43261 25.464 8.25718C25.1307 9.84202 24.7974 11.0273 24.4508 11.7865C24.2775 12.1993 24.0242 12.4124 23.7042 12.4124M25.1307 2.99656C25.1307 2.99656 24.9974 3.00987 24.9174 3.1031C24.8374 3.20964 24.7841 3.3961 24.7841 3.6225C24.7841 4.68795 24.6108 6.07302 24.2508 7.72446C23.9442 9.17612 23.6642 10.1883 23.3709 10.8409C23.3176 10.9741 23.2909 11.1072 23.2909 11.2271C23.2909 11.4269 23.3442 11.5734 23.4376 11.6799C23.5576 11.8264 23.6509 11.8397 23.6909 11.8397C23.7042 11.8397 23.7842 11.7865 23.8642 11.5734C24.1842 10.8409 24.5174 9.68221 24.8374 8.13731C25.224 6.3527 25.4107 4.83444 25.4107 3.60919C25.4107 3.38278 25.3707 3.20964 25.2774 3.1031C25.224 3.02319 25.1574 2.98324 25.1174 2.98324" fill="black"/>
<path d="M29.3569 4.99426C29.5436 5.71343 29.5169 5.67348 29.8769 7.4581C30.1835 8.98967 30.3968 10.175 30.5168 11.014C30.5168 11.0939 30.5168 11.1605 30.5168 11.2404C30.5168 11.56 30.4368 11.8264 30.2635 12.0395C30.0369 12.3458 29.7569 12.4124 29.5703 12.4124C29.2636 12.4124 28.7437 12.2925 28.637 11.4135C28.5437 10.6411 28.3437 9.50907 28.0371 8.05741C27.6905 6.37934 27.3838 5.11412 27.1172 4.30172C27.0639 4.14191 27.0372 3.98209 27.0372 3.80896C27.0372 3.50264 27.1172 3.2496 27.2772 3.03651C27.5038 2.71688 27.5838 2.69024 27.7704 2.67692C27.7704 2.67692 27.7304 4.46154 28.877 4.82113L29.3303 4.99426H29.3569ZM27.7971 3.28955C27.7971 3.28955 27.9038 3.20964 27.8104 3.34283C27.7171 3.46269 27.6771 3.60919 27.6771 3.79564C27.6771 3.90218 27.7038 4.02204 27.7304 4.11527C27.9971 4.95431 28.3171 6.24615 28.6637 7.93754C28.9703 9.40253 29.1703 10.5479 29.277 11.3336C29.3436 11.8264 29.5169 11.8264 29.5969 11.8264C29.6236 11.8264 29.6902 11.8264 29.7836 11.6932C29.8769 11.5867 29.9169 11.4269 29.9169 11.2271C29.9169 11.1605 29.9169 11.1072 29.9169 11.054C29.8102 10.2416 29.5969 9.05626 29.2903 7.538C28.917 5.78002 28.3304 5.3938 28.0371 4.50149C27.9704 4.27509 27.5971 3.3961 27.8104 3.27624L27.7971 3.28955ZM23.7175 12.4124C23.5176 12.4124 23.2243 12.3458 22.9709 12.0395C22.7843 11.8264 22.691 11.56 22.6776 11.2271C22.6776 11.0273 22.7176 10.8276 22.7976 10.6278C23.0643 10.0152 23.3576 9.00299 23.6375 7.60459C23.9842 5.99311 24.1575 4.64799 24.1575 3.6225C24.1575 3.26292 24.2375 2.96992 24.4108 2.75683C24.5974 2.54374 24.8374 2.42388 25.1174 2.42388C25.304 2.42388 25.5573 2.49047 25.7973 2.78347C25.9573 2.98324 26.0373 3.27624 26.0373 3.6225C26.0373 4.8744 25.8506 6.43261 25.464 8.25718C25.1307 9.84202 24.7974 11.0273 24.4508 11.7865C24.2775 12.1993 24.0242 12.4124 23.7042 12.4124H23.7175ZM25.1307 2.99656C25.1307 2.99656 24.9974 3.00987 24.9174 3.1031C24.8374 3.20964 24.7841 3.3961 24.7841 3.6225C24.7841 4.68795 24.6108 6.07302 24.2508 7.72446C23.9442 9.17612 23.6642 10.1883 23.3709 10.8409C23.3176 10.9741 23.2909 11.1072 23.2909 11.2271C23.2909 11.4269 23.3442 11.5734 23.4376 11.6799C23.5576 11.8264 23.6509 11.8397 23.6909 11.8397C23.7042 11.8397 23.7842 11.7865 23.8642 11.5734C24.1842 10.8409 24.5174 9.68221 24.8374 8.13731C25.224 6.3527 25.4107 4.83444 25.4107 3.60919C25.4107 3.38278 25.3707 3.20964 25.2774 3.1031C25.224 3.02319 25.1574 2.98324 25.1174 2.98324L25.1307 2.99656Z" stroke="#231815" stroke-width="0.38" stroke-miterlimit="10"/>
<path d="M29.5303 1.17199C28.8637 1.17199 28.317 1.9178 28.317 2.82342C28.317 3.72905 28.8637 4.46154 29.5436 4.46154C30.2102 4.46154 30.7568 3.71573 30.7435 2.8101C30.7435 1.90448 30.1969 1.17199 29.5169 1.17199M29.5436 3.31619C29.3436 3.31619 29.1836 3.08978 29.1836 2.82342C29.1836 2.54374 29.3436 2.31734 29.5303 2.31734C29.7302 2.31734 29.8902 2.54374 29.8902 2.8101C29.8902 3.08978 29.7302 3.31619 29.5436 3.31619Z" fill="black"/>
<path d="M46.9284 4.90103C46.9284 5.08749 46.8751 5.2473 46.7685 5.38048L45.2086 7.47141L46.7951 9.54902C46.9018 9.68221 46.9551 9.8287 46.9551 10.0018C46.9551 10.2016 46.9018 10.3747 46.7951 10.5212C46.6885 10.6677 46.5551 10.7343 46.4218 10.7343C46.3018 10.7343 46.1818 10.6544 46.0885 10.5346L44.502 8.45695L42.9289 10.5479C42.8222 10.6811 42.7022 10.761 42.5689 10.761C42.4356 10.761 42.3156 10.6944 42.2089 10.5479C42.1023 10.4014 42.0489 10.2416 42.0489 10.0551C42.0489 9.86866 42.1023 9.70884 42.2089 9.57566L43.7688 7.48473L42.1823 5.42044C42.0889 5.30057 42.0223 5.15408 42.0223 4.99426C42.0223 4.80781 42.0623 4.63467 42.1556 4.48817C42.2489 4.34168 42.3689 4.24845 42.5156 4.23513C42.6622 4.23513 42.7822 4.30172 42.8889 4.4349L44.4754 6.51251L46.0352 4.42158C46.1285 4.2884 46.2485 4.22181 46.3685 4.2085C46.5018 4.2085 46.6351 4.27509 46.7418 4.40827C46.8618 4.54145 46.9151 4.71458 46.9151 4.90103" fill="black"/>
<path d="M46.9284 4.90103C46.9284 5.08749 46.8751 5.2473 46.7685 5.38048L45.2086 7.47141L46.7951 9.54902C46.9018 9.68221 46.9551 9.8287 46.9551 10.0018C46.9551 10.2016 46.9018 10.3747 46.7951 10.5212C46.6885 10.6677 46.5551 10.7343 46.4218 10.7343C46.3018 10.7343 46.1818 10.6544 46.0885 10.5346L44.502 8.45695L42.9289 10.5479C42.8222 10.6811 42.7022 10.761 42.5689 10.761C42.4356 10.761 42.3156 10.6944 42.2089 10.5479C42.1023 10.4014 42.0489 10.2416 42.0489 10.0551C42.0489 9.86866 42.1023 9.70884 42.2089 9.57566L43.7688 7.48473L42.1823 5.42044C42.0889 5.30057 42.0223 5.15408 42.0223 4.99426C42.0223 4.80781 42.0623 4.63467 42.1556 4.48817C42.2489 4.34168 42.3689 4.24845 42.5156 4.23513C42.6622 4.23513 42.7822 4.30172 42.8889 4.4349L44.4754 6.51251L46.0352 4.42158C46.1285 4.2884 46.2485 4.22181 46.3685 4.2085C46.5018 4.2085 46.6351 4.27509 46.7418 4.40827C46.8618 4.54145 46.9151 4.71458 46.9151 4.90103H46.9284Z" stroke="#231815" stroke-width="0.4" stroke-miterlimit="10"/>
<path d="M164.236 50.0358H162.156L161.383 46.9061C159.783 49.2101 156.824 50.715 153.597 50.7284C149.544 50.755 147.558 49.2367 146.331 48.0248C142.692 44.5355 142.572 40.3936 142.558 37.8232C142.532 31.9233 145.985 25.251 153.691 25.211C158.104 25.1844 163.023 27.7281 163.743 33.1619H160.65C159.597 28.9667 156.144 28.101 153.544 28.1144C149.291 28.141 145.825 31.6303 145.851 37.9697C145.878 42.8974 147.478 47.9449 153.771 47.9183C154.957 47.9183 156.864 47.7718 158.61 46.3467C160.677 44.6553 161.183 42.4845 161.17 39.8875L154.117 39.9274V37.1307L164.143 37.0774L164.21 50.0358H164.236Z" fill="black"/>
<path d="M200.232 50.4886C194.86 50.5153 189.58 46.9727 189.527 37.6501C189.487 30.192 193.606 25.0113 200.499 24.9713C206.592 24.9447 209.765 28.8069 210.245 32.8556H207.152C206.245 28.6338 202.779 27.8613 200.512 27.8746C196.233 27.9013 192.78 31.1509 192.82 37.5302C192.847 43.2303 194.846 47.6119 200.712 47.572C202.792 47.572 206.365 46.5332 207.432 40.8863H210.525C209.258 50.0225 202.006 50.462 200.232 50.4753" fill="black"/>
<path d="M221.79 50.3821C216.417 50.4087 211.138 46.8661 211.085 37.5435C211.045 30.0854 215.164 24.9047 222.057 24.8648C228.15 24.8381 231.323 28.7003 231.816 32.749H228.71C227.803 28.5139 224.337 27.7548 222.07 27.7681C217.791 27.7947 214.338 31.0443 214.378 37.4237C214.404 43.1238 216.404 47.5054 222.27 47.4654C224.35 47.4654 227.923 46.4266 228.989 40.7798H232.083C230.816 49.916 223.577 50.3555 221.79 50.3688" fill="black"/>
<path d="M177.142 25.0912C168.316 25.1311 165.649 32.6824 165.676 37.9031C165.703 43.1371 168.449 50.6485 177.275 50.5952C186.101 50.5552 188.767 43.0172 188.74 37.7832C188.714 32.5493 185.967 25.0379 177.142 25.0912ZM177.262 47.7052C172.129 47.7318 169.009 43.5899 168.982 37.8898C168.956 32.1897 172.035 28.0211 177.168 27.9945C182.314 27.9679 185.434 32.1098 185.461 37.8099C185.487 43.51 182.421 47.6785 177.275 47.7052" fill="black"/>
<path d="M244.415 24.7449C235.589 24.7848 232.922 32.3362 232.949 37.5568C232.976 42.7908 235.722 50.3022 244.548 50.2489C253.374 50.209 256.04 42.671 256.013 37.437C255.987 32.203 253.254 24.6916 244.415 24.7449ZM244.535 47.3589C239.402 47.3855 236.282 43.2436 236.242 37.5435C236.215 31.8434 239.295 27.6749 244.428 27.6482C249.561 27.6216 252.68 31.7635 252.707 37.4636C252.734 43.1637 249.667 47.3323 244.521 47.3589" fill="black"/>
<path d="M134.479 42.671L133.693 43.4834L128.733 38.529L123.787 43.4834L123.001 42.671L127.947 37.7433L123.001 32.8023L123.787 31.9899L128.733 36.9442L133.693 31.9899L134.479 32.7757L129.546 37.7433L134.479 42.671Z" fill="black"/>
<path d="M134.479 42.671L133.693 43.4834L128.733 38.529L123.787 43.4834L123.001 42.671L127.947 37.7433L123.001 32.8023L123.787 31.9899L128.733 36.9442L133.693 31.9899L134.479 32.7757L129.546 37.7433L134.479 42.671Z" stroke="#231815" stroke-width="1.32" stroke-miterlimit="10"/>
<path d="M98.1764 34.6269C98.2031 38.2627 102.109 40.2604 105.242 41.2859C107.549 42.045 108.935 42.5644 108.949 43.5899C108.949 44.5222 107.362 45.3346 106.056 45.3346C103.949 45.3346 102.149 44.2425 101.363 42.4579C101.256 42.2181 101.016 42.0583 100.736 42.0583H99.5763C99.2563 42.0583 98.9763 42.3114 98.9097 42.6177L98.2431 46.2801C98.1898 46.5465 98.3231 46.8262 98.5631 46.9594C100.496 48.0514 102.829 48.6241 105.322 48.6108C111.082 48.5708 114.935 45.7874 114.921 41.6854C114.895 37.2106 110.708 35.7589 107.642 34.8533C105.362 34.1741 103.962 33.6946 103.949 32.6425C103.949 31.364 105.682 31.0177 106.709 31.0044C108.562 31.0044 110.175 32.4427 110.482 33.7479C110.548 34.0409 110.828 34.254 111.148 34.254H112.455C112.748 34.254 113.015 34.0409 113.095 33.7745L113.788 29.9922C113.841 29.7125 113.708 29.4195 113.442 29.2863C111.442 28.3141 109.375 27.7281 106.802 27.7414C101.696 27.7681 98.1631 30.6048 98.1764 34.6269Z" fill="#E60012"/>
<path d="M75.8054 30.8579C75.6055 31.0177 75.5255 31.2707 75.5788 31.5105L76.1921 33.8411C76.2721 34.1208 76.5387 34.3206 76.8453 34.3206H77.1653C77.4319 34.3206 77.6852 34.1341 77.7919 33.9077C77.9652 33.5082 80.0183 31.8967 82.818 31.87C84.7112 31.87 86.5643 33.2285 86.5777 34.6402C86.5777 35.1063 86.4577 35.386 86.1644 35.6257C85.2711 36.0919 84.1912 36.3316 83.138 36.5447H83.0447C77.7652 37.6634 74.0323 38.7821 74.0456 43.2037C74.059 46.7196 76.952 48.9704 81.3915 48.9437C83.7246 48.9304 85.8311 47.9848 87.2176 46.5065C88.2308 47.9982 89.9106 48.8905 91.9238 48.8772C93.3369 48.8772 95.1234 48.2379 96.35 47.7584C96.6033 47.6652 96.7766 47.4255 96.7633 47.1591V46.2668C96.7633 46.0937 96.6833 45.9206 96.5499 45.8007C96.4166 45.6808 96.2433 45.6142 96.0567 45.6276C95.2834 45.6675 94.8035 45.6009 94.6168 45.4278C94.4702 45.2946 94.3902 44.975 94.3902 44.4556L94.3368 34.6935C94.3102 29.5394 89.1774 28.0344 84.8045 28.0611C81.4582 28.0744 77.9252 29.1798 75.8054 30.8712M81.8448 43.177C81.4182 41.3791 82.2448 39.1417 86.6177 38.5024C86.671 39.5545 86.6976 41.206 86.5643 42.1249C86.0844 46.0937 82.3781 45.3878 81.8448 43.177Z" fill="#E60012"/>
<path d="M63.7667 27.9545C61.4869 27.9679 59.4072 28.6471 57.7673 29.9789C57.7673 29.4861 57.7673 29.0333 57.7673 29.0333C57.7673 28.6737 57.4607 28.394 57.0874 28.394L50.6481 28.434C50.2748 28.434 49.9815 28.727 49.9815 29.0733L50.1415 57.3741C50.1415 57.7336 50.4481 58.0133 50.8214 58.0133L57.2607 57.9734C57.4474 57.9734 57.6073 57.9068 57.7407 57.7869C57.8607 57.667 57.9406 57.5072 57.9273 57.3341C57.9273 57.3341 57.8473 49.5963 57.834 47.1192V47.0126C59.4872 48.3444 61.5936 48.997 63.8867 48.9837C69.1528 48.9571 73.4057 45.3878 73.3657 38.4092C73.3257 31.4439 69.0328 27.9146 63.7667 27.9545ZM61.6069 45.0948C59.5938 45.0948 57.954 42.8707 57.9273 38.4758C57.9006 34.0675 59.5138 31.8168 61.5403 31.8034C63.5534 31.8034 65.1932 34.0276 65.2199 38.4225C65.2465 42.8308 63.6201 45.0815 61.6203 45.0815" fill="#E60012"/>
<path d="M43.2888 22.4409L36.8895 24.1456C36.6362 24.2388 36.4629 24.4785 36.4629 24.7449C36.4629 24.7449 36.4762 27.5683 36.4895 28.5006C35.663 28.5006 33.9965 28.5139 33.9965 28.5139C33.6232 28.5139 33.3299 28.8069 33.3299 29.1532V31.6436C33.3432 32.0032 33.6498 32.2829 34.0231 32.2829C34.0231 32.2829 35.6763 32.2829 36.5162 32.2696C36.5162 33.4016 36.5695 42.0583 36.5695 42.0583C36.5829 45.2946 37.3561 48.997 43.1822 48.9704C44.582 48.9704 46.3152 48.6507 47.6484 48.1313C48.0083 47.9848 48.3016 47.7718 48.3016 47.2124V45.9472C48.3016 45.7474 48.195 45.5743 48.035 45.4544C47.875 45.3346 47.6617 45.2813 47.4617 45.3346C45.9286 45.6808 45.302 45.6009 44.862 45.268C44.382 44.9084 44.3287 44.3091 44.3287 43.0572C44.3287 43.0572 44.2754 33.3483 44.2621 32.203C45.182 32.203 47.5417 32.1897 47.5417 32.1897C47.915 32.1897 48.2083 31.8967 48.2083 31.5371V29.0466C48.195 28.687 47.8883 28.4073 47.5151 28.4073C47.5151 28.4073 45.1686 28.4207 44.2354 28.4207C44.2354 27.3685 44.2087 23.0002 44.2087 23.0002C44.2087 22.7871 44.1021 22.5874 43.9154 22.4675C43.7288 22.3476 43.5021 22.321 43.2888 22.4009" fill="#E60012"/>
<path d="M24.0642 28.434C23.8775 28.5539 23.7575 28.7536 23.7575 28.98L23.8642 48.1047C23.8642 48.451 24.1708 48.744 24.5441 48.744L30.9568 48.704C31.3301 48.704 31.6234 48.411 31.6234 48.0648L31.5167 28.9401C31.5167 28.727 31.3967 28.5272 31.2101 28.4074C31.0234 28.2875 30.7835 28.2742 30.5701 28.3674C28.6903 29.1798 26.5039 29.1931 24.7174 28.4074C24.5041 28.3141 24.2641 28.3274 24.0775 28.4473" fill="#E60012"/>
<path d="M23.1976 22.9869C23.2109 25.3043 25.1974 27.1954 27.6371 27.1688C30.0769 27.1555 32.0367 25.251 32.0233 22.9336C32.01 20.6163 30.0235 18.7385 27.5838 18.7518C25.1574 18.7651 23.1843 20.6696 23.1976 22.9869Z" fill="#E60012"/>
<path d="M8.45246 36.5713C8.45246 34.6668 8.3458 18.1125 8.3458 18.1125C8.3458 17.7529 8.03917 17.4733 7.66587 17.4733L1.25321 17.5132C0.879912 17.5132 0.586609 17.8062 0.586609 18.1658L0.759924 48.2512C0.759924 48.5975 1.06656 48.8905 1.43985 48.8905L7.85252 48.8505C8.22581 48.8505 8.51912 48.5575 8.51912 48.2113C8.51912 48.2113 8.49245 42.8175 8.47912 40.6866C8.51912 40.7398 8.54578 40.7665 8.55911 40.7798L14.0252 48.5309C14.1452 48.7173 14.3585 48.8106 14.5852 48.8106L21.5844 48.7706C22.3443 48.7706 22.531 47.9316 22.1844 47.4521C21.8511 46.9727 14.7985 37.3571 14.1852 36.5047C14.9451 35.8255 21.4778 29.9922 21.4778 29.9922C21.6111 29.8723 21.6911 29.6992 21.6911 29.5127V29.2464C21.6911 28.8868 21.3844 28.6071 21.0111 28.6071L17.0649 28.6338C16.8782 28.6338 16.7183 28.7003 16.5849 28.8202L8.45246 36.5846V36.5713Z" fill="#E60012"/>
</g>
<defs>
<clipPath id="clip0_1_995">
<rect width="256" height="58" fill="white"/>
</clipPath>
</defs>
</svg>
