<svg width="48" height="48" viewBox="0 0 48 48" fill="none" xmlns="http://www.w3.org/2000/svg">
<circle cx="24" cy="24" r="24" fill="#E63500"/>
<path d="M30.3438 33C30.896 33 31.3438 32.5523 31.3438 32C31.3438 31.4477 30.896 31 30.3438 31V33ZM14.9037 15.7586L13.9333 16L14.9037 15.7586ZM8 16H13.9333V14H8V16ZM13.9333 16L17.7839 31.4827L19.7248 31L15.8741 15.5173L13.9333 16ZM19.7248 33H30.3438V31H19.7248V33ZM17.7839 31.4827C18.0056 32.3742 18.8061 33 19.7248 33V31V31L17.7839 31.4827ZM13.9333 16V16L15.8741 15.5173C15.6524 14.6258 14.8519 14 13.9333 14V16Z" fill="white"/>
<circle cx="28.5" cy="34.9998" r="1.5" fill="white"/>
<path d="M16.4583 19.5064C16.29 18.8719 16.7684 18.25 17.4249 18.25H32.763C33.3997 18.25 33.8742 18.837 33.7408 19.4595L31.7319 28.8345C31.6331 29.2956 31.2256 29.625 30.7541 29.625H19.9121C19.4586 29.625 19.0619 29.3198 18.9456 28.8814L16.4583 19.5064Z" fill="white"/>
<circle cx="21.5" cy="34.9998" r="1.5" fill="white"/>
</svg>
