<svg width="16" height="16" viewBox="0 0 16 16" fill="none" xmlns="http://www.w3.org/2000/svg">
<path d="M0.914603 8.33784C1.27324 8.16442 1.57583 7.93545 1.93446 7.76203C2.2931 7.58861 2.65174 7.4152 3.01038 7.24178C3.36902 7.06836 3.66896 6.74341 4.05237 6.62123C4.43795 6.48341 4.90265 6.57963 5.19875 6.39756C5.54608 6.1907 5.69834 5.78156 5.94273 5.51266C6.18928 5.22811 6.55225 5.02343 6.71366 4.66336C6.8551 4.33239 7.01866 3.95668 7.07495 3.55018C7.11609 3.25313 7.18633 2.97603 7.29433 2.65637C7.38021 2.38144 7.34967 2.02666 7.45984 1.69136C7.56135 1.4186 7.6963 1.13453 7.80647 0.799235C8.04892 1.11963 8.27526 1.32625 8.46816 1.54418C8.71494 1.8333 8.75197 2.14118 8.87367 2.41298C9.03145 2.76945 9.32514 3.06507 9.52285 3.36334C9.74967 3.68157 9.92091 4.05583 10.2055 4.30238C10.49 4.54893 10.9364 4.54702 11.283 4.69063C11.614 4.83207 11.9276 5.09858 12.3207 5.13707C12.6646 5.1847 13.0545 5.01562 13.4584 4.97594C13.7485 4.95238 14.0417 5.13639 14.4147 5.20398C14.6784 5.25642 14.8638 5.29804 15.239 5.35C14.9326 5.72186 14.8381 6.05932 14.585 6.39077C14.3098 6.76696 14.0142 7.06064 13.6917 7.31872C13.3335 7.60375 13.0535 7.8996 12.8695 8.1928C12.6456 8.54421 12.6383 8.94157 12.5999 9.3346C12.5635 9.71199 12.4938 10.1007 12.5938 10.5288C12.6734 10.8745 12.8981 11.2083 12.9777 11.554C13.0573 11.8996 12.9541 12.2996 13.0159 12.6588C13.0955 13.0044 13.1078 13.261 13.1852 13.6223C12.7263 13.8297 12.4922 13.9088 12.1904 13.7873C11.826 13.6572 11.5145 13.375 11.2213 13.191C10.8273 12.9293 10.4538 12.7501 10.0807 12.6825C9.65856 12.6241 9.26817 12.6815 8.847 12.8463C8.49269 12.9884 8.04891 13.0863 7.68642 13.4026C7.41726 13.6203 7.19068 13.8757 6.87462 14.0869C6.60979 14.2733 6.34977 14.5401 6.0337 14.7512C5.75324 14.9355 5.43285 15.1779 5.09899 15.4026C5.07663 14.8737 5.01434 14.4029 5.00376 14.019C4.97708 13.5214 5.06897 13.0879 5.07836 12.675C5.08943 12.1347 5.14572 11.7282 5.12216 11.4381C5.07767 10.9539 4.86432 10.6535 4.4191 10.4166C4.15284 10.2682 3.79276 10.1068 3.29415 9.91025C2.87154 9.74018 2.4624 9.58792 2.05975 9.38875C1.6571 9.18958 1.21669 9.03298 0.814044 8.83381C0.822226 8.65967 0.922057 8.51415 0.914603 8.33784Z" fill="#FFD400"/>
</svg>
