<svg width="26" height="23" viewBox="0 0 26 23" fill="none" xmlns="http://www.w3.org/2000/svg">
<path d="M22.3438 19C22.896 19 23.3438 18.5523 23.3438 18C23.3438 17.4477 22.896 17 22.3438 17V19ZM6.90371 1.75865L5.93327 2L6.90371 1.75865ZM0 2H5.93327V0H0V2ZM5.93327 2L9.78389 17.4827L11.7248 17L7.87414 1.5173L5.93327 2ZM11.7248 19H22.3438V17H11.7248V19ZM9.78389 17.4827C10.0056 18.3742 10.8061 19 11.7248 19V17V17L9.78389 17.4827ZM5.93327 2V2L7.87414 1.5173C7.65243 0.625808 6.85191 0 5.93327 0V2Z" fill="white"/>
<circle cx="20.5" cy="20.9998" r="1.5" fill="white"/>
<path d="M8.45834 5.50643C8.28999 4.87188 8.7684 4.25 9.4249 4.25H24.763C25.3997 4.25 25.8742 4.83702 25.7408 5.45953L23.7319 14.8345C23.6331 15.2956 23.2256 15.625 22.7541 15.625H11.9121C11.4586 15.625 11.0619 15.3198 10.9456 14.8814L8.45834 5.50643Z" fill="white"/>
<circle cx="13.5" cy="20.9998" r="1.5" fill="white"/>
</svg>
