<svg width="82" height="94" viewBox="0 0 82 94" fill="none" xmlns="http://www.w3.org/2000/svg">
<path d="M81.8549 68.0955C81.8849 67.4755 81.6749 66.8555 81.5849 66.3555C81.4849 65.7455 81.3549 65.2255 81.1149 64.7655C80.8449 64.2455 80.5249 63.7955 80.1249 63.4155C79.7249 63.0355 79.2749 62.6755 78.7949 62.3855C78.3149 62.0955 77.8049 61.8355 77.3049 61.5955C76.8049 61.3555 76.2749 61.1255 75.7949 60.8655C75.3149 60.6055 74.7649 60.3155 74.3349 59.9855C74.6149 59.5655 75.0349 59.2655 75.4049 58.9455C75.7749 58.6255 76.0949 58.2355 76.5049 57.9755C76.9149 57.7155 77.4549 57.6355 77.8649 57.3755C78.2749 57.1155 78.6149 56.7255 78.9849 56.4055C79.3549 56.0855 79.7349 55.7655 80.0049 55.3355C80.2449 54.9455 80.3049 54.4855 80.4249 53.9655C79.8949 53.8255 79.4449 53.6855 78.9749 53.6855C78.4449 53.6855 77.9849 53.9255 77.5149 54.0555C77.0449 54.1855 76.4949 54.2255 76.0549 54.4655C75.6149 54.7055 75.3149 55.1855 74.9049 55.4855C74.4949 55.7855 73.8749 55.8055 73.4749 56.1055C72.9849 56.4655 72.6649 57.0155 72.1949 57.2555C71.6549 57.5355 71.0449 57.4955 70.5149 57.6155C69.9449 57.7555 69.4149 57.9255 68.8549 57.8855C68.2949 57.8455 67.7149 57.8155 67.1649 57.6055C66.6649 57.4155 66.2849 56.9255 65.7749 56.5955C65.3249 56.3055 64.7049 56.1155 64.2549 55.7155C64.6549 55.4355 65.2049 55.2655 65.6049 54.9955C66.0049 54.7255 66.3549 54.3655 66.7549 54.0955C67.1549 53.8255 67.6049 53.6055 67.9849 53.3155C68.3649 53.0255 68.6249 52.5555 68.9849 52.2355C69.3349 51.9255 69.8949 51.8455 70.3549 51.5855C70.8149 51.3255 71.2949 51.0955 71.6249 50.7455C71.9549 50.3955 72.2349 49.8855 72.2849 49.3155C72.3149 48.9055 72.1549 48.2855 71.9649 47.7055C71.4049 47.8355 70.8049 48.1155 70.2949 48.2255C69.7449 48.3455 69.1749 48.3255 68.6849 48.5355C68.1549 48.7555 67.7149 49.1655 67.1949 49.3855C66.6749 49.6055 66.1649 49.8855 65.6449 50.1155C65.1249 50.3455 64.6149 50.6055 64.0949 50.8355C63.5749 51.0655 63.0649 51.3155 62.5349 51.5455C62.0049 51.7755 61.4649 51.9355 60.9349 52.1655C60.4049 52.3955 59.7949 52.3955 59.2649 52.6155C58.7449 52.8355 58.2549 52.9155 57.7549 52.9755C57.2049 53.0355 56.6949 53.1755 56.1849 53.0655C55.6749 52.9555 55.1549 52.7655 54.7049 52.4755C54.2549 52.1855 53.7449 51.9255 53.4149 51.4955C53.0849 51.0655 53.0449 50.4955 52.8549 49.9755C52.6849 49.4955 52.3349 49.0155 52.3049 48.4455C52.2749 47.8955 52.5549 47.3355 52.5349 46.7855C52.5149 46.2355 52.1749 45.7055 52.1549 45.1555C52.1349 44.6055 52.3349 44.0555 52.3149 43.5055C52.2949 42.9555 52.0649 42.4155 52.0349 41.8755C52.0149 41.3155 52.0349 40.8155 52.0649 40.3855C52.1149 39.7855 52.4349 39.3855 52.6249 39.0355C52.8649 38.5755 53.1349 38.3155 53.6649 38.2055C54.0549 38.1255 54.5149 38.1455 55.1049 38.2355C55.5249 38.2955 56.0049 38.3755 56.5449 38.5155C57.0449 38.6455 57.5849 38.6655 58.0849 38.8155C58.5849 38.9655 59.0349 39.2655 59.5349 39.4155C60.0349 39.5655 60.5349 39.6855 61.0349 39.8455C61.5349 40.0055 62.0049 40.2055 62.5049 40.3655C63.0049 40.5255 63.5149 40.6155 64.0149 40.7755C64.6349 40.9655 65.2349 41.0655 65.7749 41.0255C66.3149 40.9855 66.8049 40.6855 67.2749 40.1955C67.6149 39.8455 67.8449 39.4755 68.1249 38.8155C67.5849 38.6355 67.2449 38.2655 66.7049 38.0955C66.1649 37.9255 65.6049 37.8155 65.0649 37.6355C64.5249 37.4555 63.9949 37.2755 63.4549 37.0955C62.9149 36.9155 62.3749 36.7755 61.8349 36.5955C61.2949 36.4155 60.8049 36.1455 60.2549 35.9655C59.7049 35.7855 59.2849 35.7455 58.7349 35.5655C59.2049 35.2555 59.4649 34.9855 59.8449 34.7355C60.3249 34.4255 60.6749 34.0655 61.0549 33.8155C61.5149 33.5155 61.9649 33.3355 62.3449 33.0255C62.7549 32.7055 63.1649 32.4055 63.5749 32.1455C64.0149 31.8655 64.4549 31.6155 64.9049 31.4155C65.3549 31.2155 65.8449 31.0055 66.3249 30.8855C66.8049 30.7655 67.3149 30.6055 67.8249 30.5755C68.3349 30.5455 68.8349 30.6855 69.3449 30.7455C69.8249 30.8055 70.3649 30.7555 70.8649 30.9055C71.3249 31.0355 71.7649 31.3555 72.2449 31.5655C72.7049 31.7655 73.1749 32.0055 73.6849 32.0855C74.1949 32.1655 74.7149 32.0655 75.2249 32.1055C75.7349 32.1455 76.1849 32.0755 76.6849 32.1455C76.8149 31.7955 76.8849 31.6355 77.0149 31.2855C76.5749 31.0155 76.2149 30.7455 75.7749 30.4755C75.3349 30.2055 74.9449 29.8555 74.5149 29.5855C74.0849 29.3155 73.5749 29.1455 73.1349 28.8655C72.6949 28.5855 72.2349 28.2255 71.7949 27.9455C72.2549 27.5755 72.8749 27.3255 73.3649 27.0155C73.8549 26.7055 74.4149 26.3955 74.8349 26.0355C75.2949 25.6455 75.6349 25.1355 75.8549 24.5855C76.0449 24.1055 76.0949 23.5255 76.0049 22.8355C75.5049 22.5855 75.0149 22.6555 74.5749 22.6255C74.0649 22.5955 73.6249 22.5555 73.1549 22.7055C72.6849 22.8555 72.1949 22.9355 71.7449 23.1555C71.2949 23.3755 70.8649 23.5855 70.4049 23.7455C69.9449 23.9055 69.6049 23.9955 69.0949 24.0255C69.1349 23.5055 69.1449 23.0955 69.1849 22.5855C69.2249 22.0755 69.3049 21.5555 69.3449 21.0455C69.3849 20.5355 69.1449 19.9855 69.1849 19.4755C69.2249 18.9655 69.5349 18.3955 69.5749 17.8855C68.9549 17.6555 68.3549 17.8055 67.8949 17.8155C67.2649 17.8255 66.6549 17.7355 66.2949 18.1155C65.9549 18.4755 66.0249 19.1355 65.8749 19.7255C65.7249 20.2955 65.4149 20.8255 65.3149 21.4155C65.2149 22.0055 65.3149 22.6155 65.2349 23.1955C65.1549 23.7755 64.8049 24.3255 64.6949 24.9055C64.6149 25.3255 64.7249 25.8555 64.6249 26.3055C64.5149 26.8255 64.2649 27.2555 63.9449 27.4955C63.4849 27.8355 62.9649 28.0855 62.4849 28.4055C62.0049 28.7255 61.5949 29.1155 61.1049 29.4355C60.6149 29.7555 60.2149 30.1455 59.7149 30.4555C59.2149 30.7655 58.7749 31.0955 58.2749 31.4055C57.8049 31.6955 57.2549 31.8155 56.7449 32.1255C56.8249 31.5655 56.6949 31.0455 56.7649 30.5355C56.8449 29.9755 57.0449 29.4555 57.1149 28.9455C57.1949 28.3855 57.1649 27.8355 57.2349 27.3155C57.3049 26.7655 57.6649 26.2655 57.7249 25.7455C57.7849 25.2255 57.6749 24.6455 57.7149 24.1155C57.7649 23.4655 57.1349 22.1355 56.8149 22.1355C56.4049 22.1355 55.9249 22.2255 55.5049 22.3955C55.0849 22.5655 54.7649 22.9255 54.4649 23.2155C54.1849 23.4855 54.0549 23.8655 53.8949 24.2655C53.7349 24.6655 53.3649 24.9755 53.2749 25.3655C53.1449 25.8955 53.0649 26.4455 52.9449 26.9755C52.8249 27.5055 52.6849 28.0355 52.5649 28.5755C52.4449 29.1155 52.5649 29.6955 52.4449 30.2255C52.3249 30.7555 52.0949 31.2655 51.9749 31.8055C51.8549 32.3455 51.7749 32.8755 51.6549 33.4155C51.5349 33.9355 51.2449 34.3355 51.0549 34.7255C50.8249 35.2155 50.6249 35.5955 50.2949 35.8955C49.9249 36.2355 49.5449 36.4555 49.0649 36.5355C48.6249 36.6155 48.1549 36.6255 47.6449 36.4855C47.2249 36.3655 46.6849 36.3455 46.2149 36.0755C45.7949 35.8355 45.5349 35.3355 45.1249 35.0855C44.7149 34.8355 44.2449 34.6655 43.8349 34.4155C43.4249 34.1655 43.0049 33.9155 42.6049 33.6655C42.1849 33.3955 41.9049 33.0455 41.5149 32.8055C41.3249 32.2855 41.0749 31.8855 40.9749 31.4055C40.8549 30.8655 40.5649 30.3655 40.5549 29.8655C40.5449 29.3255 40.8049 28.8055 40.9049 28.3155C41.0049 27.8255 41.0349 27.2455 41.2549 26.7755C41.4749 26.3055 41.9049 25.9555 42.2249 25.5355C42.5349 25.1355 42.7849 24.6655 43.1749 24.2955C43.5349 23.9455 43.8949 23.5355 44.3149 23.2055C44.7449 22.8755 45.2049 22.5855 45.6049 22.2055C46.0049 21.8255 46.4449 21.4955 46.8049 21.0855C47.1649 20.6755 47.4349 20.1755 47.7849 19.7655C48.1049 19.3855 48.3149 18.9455 48.5649 18.3655C48.7549 17.9355 48.9949 17.5155 49.2749 16.9455C48.7249 16.8855 48.3249 17.0455 47.8649 17.1255C47.3449 17.2255 46.8849 17.3155 46.4549 17.5455C46.0249 17.7755 45.5849 18.0255 45.1949 18.3555C44.8049 18.6855 44.5349 19.1155 44.1749 19.4655C43.8149 19.8155 43.3149 20.0355 42.9349 20.3555C42.5549 20.6755 42.2049 21.0955 41.7649 21.3355C41.3249 21.5755 40.9149 21.5055 40.3949 21.5855C40.3449 21.0755 40.0549 20.7155 40.0249 20.2255C39.9949 19.7355 39.9849 19.2155 39.9349 18.7255C39.8849 18.2355 39.9049 17.7155 39.8149 17.2255C39.7249 16.7155 39.6949 16.2155 39.6949 15.7555C39.6949 15.2455 39.8149 14.7655 39.9249 14.3055C40.0349 13.8455 40.0749 13.3055 40.3149 12.8655C40.5549 12.4255 40.8449 12.0255 41.1749 11.6455C41.4849 11.2955 41.9249 11.0255 42.3249 10.7055C42.7049 10.3955 43.1049 10.0955 43.4449 9.72549C43.7849 9.35549 44.0049 8.91549 44.3349 8.52549C44.6649 8.13549 45.2249 7.81549 45.5749 7.44549C45.0349 6.96549 44.3349 6.90549 43.9049 6.79549C43.2849 6.63549 42.8249 6.65549 42.3349 6.93549C41.8449 7.21549 41.4249 7.60549 40.9849 7.94549C40.5049 8.31549 39.9049 8.70549 39.3549 8.73549C39.2649 8.19549 39.2949 7.53549 39.2149 6.99549C39.1349 6.45549 39.0549 5.91549 38.9749 5.37549C38.8949 4.83549 38.6949 4.30549 38.6149 3.77549C38.5349 3.24549 38.4949 2.69549 38.4049 2.15549C38.3149 1.61549 38.2749 1.03549 38.1949 0.505493C37.6149 0.535493 37.0949 0.575493 36.6849 0.615493C36.0349 0.665493 35.5349 0.655493 35.1949 0.785493C34.7249 0.975493 34.6349 1.43549 34.4849 2.03549C34.3849 2.40549 34.0349 2.82549 33.9449 3.43549C33.8649 3.96549 34.0249 4.53549 33.9549 5.08549C33.8849 5.60549 33.6749 6.11549 33.6049 6.67549C33.5449 7.18549 33.6049 7.91549 33.5349 8.48549C32.9949 8.02549 32.4249 7.47549 31.9749 7.07549C31.4549 6.61549 31.0649 6.08549 30.5149 5.77549C29.9449 5.45549 28.9749 5.63549 28.3549 5.91549C28.0549 6.05549 27.8949 7.13549 28.1349 7.60549C28.3949 8.11549 28.6949 8.61549 28.9449 9.14549C29.1949 9.67549 29.4149 10.2055 29.6849 10.7155C29.9549 11.2255 30.2849 11.7055 30.6049 12.1855C30.9249 12.6655 31.1049 13.2755 31.5049 13.6955C31.8849 14.0955 32.2449 14.4355 32.4949 14.8355C32.7749 15.2855 32.8949 15.7655 33.0549 16.2255C33.2249 16.7155 33.3949 17.1655 33.4549 17.6655C33.5149 18.1655 33.4549 18.6555 33.4349 19.1755C33.4149 19.6955 33.4349 20.1755 33.3649 20.6855C33.2949 21.1955 33.4349 21.8555 33.3649 22.3655C32.8449 22.1955 32.2149 21.8555 31.7649 21.5455C31.3149 21.2355 30.8449 20.9255 30.4249 20.5655C30.0049 20.2055 29.7249 19.6755 29.2849 19.3755C28.8449 19.0755 28.3649 18.6955 27.8449 18.5455C27.3549 18.4055 26.7649 18.3455 26.1649 18.4455C25.6949 18.5255 25.3049 18.8555 24.7449 19.1355C25.1149 19.5655 25.4649 19.8155 25.7649 20.1655C26.1149 20.5855 26.3749 20.9755 26.7349 21.3055C27.1649 21.6955 27.4649 22.2155 27.8949 22.5955C28.3249 22.9755 28.9149 23.1755 29.3449 23.5555C29.7749 23.9355 30.1349 24.3955 30.5649 24.7755C30.9949 25.1555 31.2649 25.7155 31.6949 26.0955C32.1249 26.4755 32.7149 26.6855 33.1349 27.0655C33.5149 27.4155 33.9549 27.7155 34.2049 28.0955C34.4949 28.5155 34.4049 29.0955 34.5249 29.5455C34.6549 30.0155 34.8949 30.4755 34.8349 30.9555C34.7749 31.4355 34.6649 31.9255 34.4349 32.3755C34.2249 32.7755 33.8249 33.1155 33.4749 33.4955C33.1149 33.8755 32.7149 34.2255 32.3449 34.5855C31.9749 34.9455 31.6049 35.3355 31.2349 35.6855C30.8449 36.0555 30.4749 36.4555 30.1149 36.7955C29.5849 36.6955 29.0949 36.4455 28.6249 36.2955C28.1049 36.1255 27.6649 35.8955 27.2149 35.6655C26.7349 35.4255 26.1649 35.3555 25.7749 35.0455C25.3849 34.7355 25.1049 34.2355 24.7849 33.8355C24.4649 33.4355 24.2549 32.9755 24.0349 32.4955C23.8249 32.0455 23.4549 31.6255 23.3249 31.1055C23.2049 30.6255 23.3249 30.0755 23.2749 29.5355C23.2049 28.8555 23.0549 28.1755 22.9149 27.5055C22.7949 26.9255 22.5449 26.4855 22.3049 26.2255C21.9849 25.8655 21.5149 25.9155 21.0049 26.0155C20.6249 26.0855 20.1449 26.1455 19.6749 26.3955C19.7349 26.8755 19.6549 27.3955 19.7149 27.8655C19.7749 28.3355 20.1549 28.7755 20.2149 29.2555C20.2749 29.7355 20.2049 30.2155 20.2649 30.7055C20.3249 31.1955 20.3749 31.7055 20.4349 32.1955C19.8849 31.9955 19.3549 31.8055 18.9349 31.6555C18.3549 31.4455 17.8549 31.3155 17.4749 31.1355C16.9149 30.8755 16.6349 30.4555 16.3149 30.1155C15.9949 29.7755 15.7449 29.4155 15.4749 28.8655C15.2849 28.4755 15.0749 28.0255 14.8449 27.4655C14.6349 26.9655 14.5249 26.4155 14.3249 25.9055C14.1249 25.3955 13.7649 24.9455 13.5549 24.4455C13.3449 23.9455 13.1549 23.4255 12.9149 22.9355C12.6449 22.3855 12.3349 22.0055 12.0849 21.6855C11.7049 21.1955 11.3749 21.0255 10.8749 21.0655C10.4949 21.0955 10.0149 21.1655 9.46492 21.4955C9.10492 21.7155 8.77491 22.0555 8.30491 22.4055C8.43491 22.9755 8.39492 23.5555 8.53492 24.1555C8.66492 24.7155 8.75492 25.2955 8.89492 25.9055C9.02492 26.4555 9.25492 26.9655 9.39492 27.5855C8.91492 27.3855 8.46491 27.2955 8.02491 27.1055C7.55491 26.8955 7.14491 26.5955 6.69491 26.4055C6.22491 26.2055 5.77492 25.9855 5.32492 25.7955C4.87492 25.6055 4.34492 25.5455 3.89492 25.3555C3.44492 25.1655 3.04491 24.7855 2.58491 24.6055C2.04491 24.4055 1.06491 24.5855 0.844913 24.9055C0.454913 25.4655 0.154912 26.4255 0.444912 26.9355C0.694912 27.3855 0.934911 27.8855 1.33491 28.2655C1.73491 28.6455 2.27491 28.8055 2.70491 29.1055C3.12491 29.3955 3.49492 29.7555 3.92492 30.0355C4.35492 30.3155 4.79491 30.5655 5.22491 30.8555C5.65491 31.1455 6.00491 31.5155 6.44491 31.7955C6.88491 32.0755 7.33491 32.2855 7.77491 32.5655C8.21491 32.8455 8.61491 33.1455 9.04491 33.4355C8.63491 33.6755 8.32492 34.0355 7.96492 34.2555C7.55492 34.5055 7.11492 34.6255 6.75492 34.8455C6.35492 35.0755 6.02491 35.3955 5.63491 35.6055C5.11491 35.8755 4.48491 36.0155 4.19491 36.4155C3.88491 36.8355 3.71491 37.4755 4.01491 38.0955C4.37491 38.8355 5.04492 39.0755 5.60492 39.0555C6.16492 39.0355 6.81492 38.7555 7.36492 38.4655C7.84492 38.2155 8.19491 37.7155 8.66491 37.4255C9.13491 37.1355 9.68491 36.9955 10.1549 36.7155C10.6249 36.4355 11.1649 36.3155 11.6649 36.0955C12.1149 35.8955 12.5749 35.5555 13.1049 35.4855C13.6349 35.4155 14.2449 35.3355 14.7049 35.4855C15.1849 35.6455 15.5549 36.0555 16.0249 36.2555C16.4949 36.4555 17.0349 36.4455 17.4949 36.6755C17.9549 36.9055 18.3349 37.2355 18.7849 37.4655C19.2349 37.6955 19.7449 37.9255 20.1949 38.1455C19.8349 38.5955 19.4949 39.1455 19.0949 39.5155C18.6749 39.9055 18.2049 40.2355 17.7549 40.5655C17.3049 40.8955 16.6849 40.9955 16.2049 41.2855C15.7249 41.5755 15.2549 41.8955 14.7749 42.1755C14.2949 42.4555 13.8549 42.8355 13.3849 43.1355C12.9149 43.4355 12.3449 43.6255 11.9049 43.9655C11.4649 44.3055 11.1849 44.8555 10.7849 45.2555C10.3849 45.6555 9.85491 46.0455 9.52491 46.5155C10.0349 46.7855 10.6549 46.8555 11.1149 46.9955C11.6249 47.1555 12.0849 47.3255 12.6249 47.2955C13.0949 47.2655 13.5949 47.1755 14.1449 46.9755C14.5749 46.8155 15.0349 46.5855 15.5549 46.2955C15.9649 46.0655 16.3949 45.7655 16.8749 45.4455C17.2749 45.1755 17.8149 45.0455 18.2749 44.7155C18.6749 44.4255 18.9849 43.9655 19.4249 43.6355C19.8149 43.3355 20.3449 43.1655 20.7849 42.8255C21.1749 42.5255 21.5449 42.1455 21.9749 41.8055C22.3649 41.4955 22.6849 41.0455 23.1149 40.7055C23.5049 40.3855 24.0049 40.2355 24.4349 39.8955C24.9349 39.9655 25.3749 39.8655 25.7249 40.0555C26.1249 40.2755 26.4049 40.6655 26.5849 41.1055C26.7349 41.4555 26.8949 41.9055 26.8849 42.4355C26.8649 42.9555 26.5749 43.4655 26.5649 43.9855C26.5549 44.5055 26.5149 45.0255 26.5049 45.5455C26.4949 46.0655 26.8349 46.5855 26.8449 47.1055C26.8549 47.6255 26.6949 48.1455 26.7249 48.6655C26.7549 49.1855 26.9149 49.6955 26.9649 50.2055C27.0249 50.7255 26.7249 51.1755 26.6649 51.5855C26.5849 52.0755 26.5949 52.5255 26.3749 52.9255C26.1549 53.3255 25.8449 53.6555 25.4849 53.9955C25.1649 54.2955 24.8149 54.5955 24.4049 54.8855C23.8749 55.2555 23.4349 55.6555 22.9349 55.8355C22.3849 56.0355 21.7749 56.1055 21.1849 56.0755C20.6549 56.0555 20.1049 55.8255 19.4949 55.6355C19.0149 55.4955 18.5349 55.3255 18.0649 55.1455C17.5949 54.9655 17.1249 54.7855 16.6549 54.6055C16.1849 54.4255 15.7549 54.0955 15.2749 53.9455C14.7949 53.7955 14.2749 53.7055 13.7749 53.6355C13.2749 53.5655 12.7649 53.6255 12.2449 53.6655C11.7649 53.7055 11.2749 53.8255 10.7649 53.9955C10.7849 54.5755 10.7649 55.1055 10.8949 55.5155C11.0749 56.0455 11.4449 56.4255 11.7749 56.7455C12.1349 57.0955 12.5649 57.3455 13.0449 57.5255C13.4949 57.7055 13.9549 57.9455 14.4549 58.0655C14.9549 58.1855 15.4249 58.3155 15.9049 58.4455C16.3849 58.5755 16.9449 58.5155 17.3849 58.7355C17.8249 58.9555 18.2949 59.3055 18.6449 59.6855C18.2149 60.0655 17.8049 60.5355 17.3849 60.9055C16.9649 61.2755 16.3149 61.4155 15.9049 61.7855C15.4949 62.1555 15.2049 62.7155 14.7949 63.0755C14.3849 63.4355 13.9149 63.8055 13.5049 64.1755C12.8749 64.0155 12.3049 63.8655 11.8049 63.7355C11.1549 63.5655 10.6149 63.3455 10.1249 63.2455C9.40491 63.0855 8.83491 63.0655 8.38491 63.0455C7.64491 63.0055 7.17491 63.1455 6.74491 63.5055C6.38491 63.7955 6.18491 64.2455 5.73491 64.8355C6.18491 65.0755 6.56492 65.2055 7.00492 65.4355C7.44492 65.6655 7.80491 66.0755 8.24491 66.3055C8.68491 66.5355 9.02492 66.7755 9.46492 67.0055C9.19492 67.5055 9.09491 68.0055 8.72491 68.4055C8.35491 68.8055 7.87492 69.1255 7.43492 69.4755C6.99492 69.8255 6.57491 70.1755 6.13491 70.5055C5.69491 70.8355 5.26491 71.1755 4.84491 71.5355C4.42491 71.8955 3.86491 72.1255 3.51491 72.5555C3.16491 72.9855 3.02491 73.5355 2.79491 74.0655C2.59491 74.5455 2.51492 74.9655 2.43492 75.5655C2.97492 75.6055 3.40491 75.8355 3.88491 75.7755C4.41491 75.7055 4.90491 75.4555 5.37491 75.2955C5.84491 75.1355 6.30491 74.8555 6.76491 74.6255C7.22491 74.3955 7.75491 74.2855 8.19491 74.0255C8.63491 73.7655 9.00491 73.3655 9.44491 73.1055C9.88491 72.8455 10.2749 72.4555 10.7349 72.2355C11.1949 72.0155 11.7949 71.8955 12.2949 71.7455C12.2949 72.2455 12.1049 72.7755 12.0849 73.1855C12.0649 73.6855 12.1849 74.1255 12.3149 74.5255C12.4449 74.9255 12.5449 75.3655 12.8049 75.7255C13.0649 76.0855 13.4249 76.1855 13.6549 76.5355C14.0349 76.2155 14.4549 76.0855 14.8649 75.7855C15.3049 75.4655 15.7749 75.1655 15.9749 74.7355C16.1949 74.2655 16.0949 73.6655 16.1249 73.0955C16.1549 72.5255 16.3249 71.9755 16.2849 71.4555C16.2449 70.9255 16.2549 70.4455 16.2949 69.9855C16.3449 69.4655 16.2949 68.9455 16.4549 68.4955C16.6349 68.0155 17.0049 67.6555 17.2949 67.2655C17.5849 66.8755 17.9749 66.5955 18.3649 66.2755C18.7349 65.9755 19.0249 65.5355 19.4749 65.2855C19.8949 65.0555 20.3049 65.0055 20.7849 64.8155C21.0349 65.3055 21.1349 65.6855 21.1149 66.2155C21.0949 66.7455 21.1549 67.2855 21.0349 67.8155C20.9149 68.3455 20.6649 68.8255 20.5949 69.3355C20.5249 69.8455 20.4049 70.4055 20.5149 70.9155C20.6149 71.3955 20.8549 71.8755 21.2549 72.3155C21.5549 72.6555 21.9849 72.9055 22.5249 73.2155C22.8449 72.7355 23.2549 72.3555 23.5449 71.8755C23.8349 71.3955 23.8849 70.7555 24.1449 70.2555C24.4049 69.7555 24.8949 69.3455 25.1149 68.8255C25.3349 68.3055 25.3049 67.6755 25.4849 67.1355C25.6649 66.5955 26.0849 66.1255 26.2249 65.5755C26.3649 65.0255 26.2249 64.4155 26.3049 63.8455C26.3849 63.2755 26.6449 62.7455 26.6849 62.1755C26.7249 61.5655 26.8349 61.0055 26.9549 60.4555C27.0849 59.8655 27.1449 59.2755 27.4149 58.7655C27.6849 58.2555 28.0849 57.8355 28.5349 57.4155C28.9349 57.0455 29.3849 56.6155 29.9549 56.3155C30.3449 56.6055 30.6249 57.1155 31.0149 57.4055C31.4049 57.6955 31.8649 57.8755 32.2549 58.1655C32.6449 58.4555 33.0449 58.7255 33.4349 59.0155C33.8249 59.3055 34.1249 59.7155 34.5149 60.0055C34.9049 60.2955 35.3149 60.5655 35.6949 60.8655C36.1349 61.2055 36.4549 61.5555 36.7449 61.9155C37.0949 62.3455 37.5649 62.6555 37.7149 63.1055C37.8649 63.5955 37.9549 64.1555 37.8749 64.6755C37.7949 65.1455 37.4949 65.6055 37.2249 66.0955C36.9949 66.5055 36.7049 66.9255 36.3349 67.3455C35.9949 67.7255 35.7449 68.1855 35.4049 68.5655C35.0649 68.9455 34.5549 69.1755 34.2249 69.5555C33.8949 69.9355 33.5949 70.3555 33.2549 70.7355C32.9149 71.1155 32.5049 71.4255 32.1649 71.8155C31.8249 72.2055 31.4349 72.5355 31.1049 72.9155C30.7749 73.2955 30.4549 73.6955 30.1249 74.0855C29.7949 74.4755 29.5149 74.9055 29.1949 75.2955C28.8549 75.7055 28.5449 76.1655 28.2449 76.6655C27.9749 77.0955 27.8949 77.6755 27.5949 78.1955C27.3449 78.6355 26.8649 79.0955 26.5549 79.6055C27.1049 79.6655 27.7149 79.7255 28.1849 79.6955C28.7249 79.6555 29.2649 79.6255 29.7249 79.4855C30.2249 79.3255 30.6349 78.9455 31.0549 78.6855C31.4749 78.4255 31.8949 78.1055 32.2649 77.7655C32.6349 77.4255 32.9949 77.0555 33.3249 76.6655C33.6549 76.2755 33.9049 75.8355 34.2249 75.4355C34.5449 75.0355 34.8749 74.6555 35.2149 74.2855C35.5549 73.9155 35.9349 73.5755 36.3249 73.2555C36.7149 72.9355 37.0549 72.7655 37.5249 72.5555C37.6849 73.0555 37.7549 73.4655 37.8849 73.9555C38.0149 74.4455 38.3149 74.9255 38.3849 75.4355C38.4549 75.9455 38.6349 76.4755 38.6349 76.9955C38.6349 77.5155 38.4949 78.0455 38.3649 78.5555C38.2349 79.0655 38.0149 79.5255 37.7749 80.0055C37.5549 80.4355 37.1449 80.7755 36.7949 81.2055C36.4849 81.5955 36.3049 82.0955 36.0549 82.5355C35.8049 82.9755 35.5749 83.4155 35.3649 83.8755C35.1549 84.3355 34.9249 84.7955 34.7649 85.2555C34.5849 85.7755 34.3949 86.3455 34.3549 86.9255C34.3149 87.5055 34.4549 88.0755 34.3949 88.6255C34.7149 88.7855 35.0949 89.0355 35.4149 89.1955C35.8249 88.8155 36.2149 88.3655 36.6249 87.9855C37.0349 87.6055 37.4549 87.2555 37.8749 86.8655C38.2949 86.4755 38.6549 86.0255 39.0849 85.6355C39.2249 86.2255 39.2749 86.7655 39.3849 87.2555C39.4949 87.7455 39.5649 88.2355 39.6449 88.7355C39.7249 89.2355 39.8049 89.7355 39.9149 90.2155C40.0249 90.6955 40.3849 91.1055 40.5949 91.5555C40.7849 91.9555 40.8549 92.4655 41.1649 92.8055C41.4749 93.1455 41.9149 93.2755 42.3749 93.3855C42.7649 93.4855 43.1849 93.5655 43.6949 93.3955C44.4849 93.1455 44.8749 92.7255 45.0149 92.2155C45.1649 91.6655 45.1549 90.9955 45.0749 90.3655C45.0149 89.8955 44.9749 89.4255 44.9049 88.9555C44.8349 88.4855 44.7449 88.0255 44.6749 87.5655C44.6049 87.1055 44.4249 86.6555 44.3549 86.1855C44.2849 85.7155 44.2549 85.2755 44.1849 84.8055C44.6749 84.7955 45.1549 84.7855 45.5949 84.9355C46.0349 85.0855 46.4649 85.4255 46.9149 85.5155C47.3649 85.6055 47.8549 85.6355 48.3449 85.4055C48.6949 85.2355 49.0549 84.9155 49.4349 84.4555C49.1249 84.1255 48.6749 83.8955 48.3649 83.5555C48.0549 83.2155 47.8049 82.8355 47.4849 82.5055C47.1649 82.1755 46.8049 81.9155 46.4549 81.6155C45.9849 81.2255 45.7549 80.6455 45.3749 80.2655C44.9549 79.8355 44.6549 79.3755 44.3549 78.9255C44.0249 78.4355 43.5449 78.0655 43.3449 77.5455C43.1449 77.0255 43.2549 76.4255 43.1849 75.8455C43.1249 75.3055 42.8949 74.7555 42.9349 74.1555C42.9749 73.6255 43.2249 73.0955 43.3549 72.4955C43.4649 71.9755 43.4649 71.3055 43.6349 70.7255C44.1249 71.0055 44.6249 71.4455 45.1149 71.7255C45.6049 72.0055 46.1549 72.1855 46.6449 72.4555C47.1349 72.7255 47.5849 73.0855 48.0849 73.3655C48.5849 73.6455 49.1049 73.8555 49.6049 74.1355C50.1049 74.4155 50.5949 74.6755 51.0849 74.9555C51.5749 75.2355 52.1549 75.6255 52.6549 75.9055C52.8049 75.2155 52.7949 74.5555 52.8549 74.1355C52.9649 73.3655 53.0249 72.9055 52.6849 72.5055C52.4249 72.2055 51.9849 71.8955 51.3549 71.4655C50.9249 71.1655 50.4849 70.8755 50.0449 70.5855C49.6049 70.2955 49.0349 70.2055 48.5949 69.9155C48.1549 69.6255 47.8449 69.1355 47.4049 68.8555C46.9649 68.5755 46.4249 68.4255 45.9949 68.1355C45.5649 67.8455 45.2349 67.3855 44.8049 67.0855C44.3749 66.7855 43.9049 66.5455 43.4849 66.2255C43.0549 65.9155 42.7849 65.5355 42.5049 65.1755C42.1849 64.7655 41.9949 64.3755 41.8649 63.9355C41.7349 63.4655 41.5249 63.0055 41.6249 62.5155C41.7149 62.0655 41.8749 61.5755 42.1549 61.1355C42.4049 60.7555 42.7849 60.4155 43.1749 60.0655C43.5449 59.7355 43.9949 59.4955 44.4149 59.2055C44.8349 58.9155 45.2749 58.6855 45.6849 58.3955C46.0949 58.1055 46.4949 57.7855 46.8549 57.4455C47.2449 57.0755 47.5149 56.6055 47.9049 56.3455C48.3549 56.0455 48.8049 55.7655 49.2549 55.6155C49.7449 55.4455 50.2849 55.6755 50.7749 55.6755C51.2649 55.6755 51.8149 55.4255 52.3049 55.5955C52.7449 55.7555 53.1449 56.1255 53.5949 56.4155C53.9849 56.6755 54.3949 56.9955 54.7849 57.3555C54.8649 57.8355 54.8349 58.3355 54.9049 58.8255C54.9749 59.3155 55.0749 59.7855 55.1549 60.2655C55.2349 60.7455 55.1949 61.2455 55.2749 61.7255C55.3549 62.2055 55.6749 62.6455 55.7749 63.1155C55.8749 63.5855 55.8849 64.0855 56.0049 64.5555C56.1349 65.0555 56.1649 65.5755 56.2249 66.1055C56.2849 66.6355 56.4949 67.1255 56.5649 67.6455C56.6349 68.1655 56.8049 68.6455 56.9449 69.1555C57.0849 69.6655 57.0549 70.2255 57.3349 70.6855C57.5849 71.1155 57.9849 71.4455 58.3949 71.8255C58.8549 71.5155 59.2949 71.2855 59.6049 70.9555C59.9749 70.5655 60.2349 70.1155 60.4449 69.6855C60.6749 69.2255 60.8749 68.7455 60.9549 68.2555C61.0349 67.7655 60.9549 67.2455 60.9549 66.7355C60.9549 66.2255 61.0149 65.7255 60.9749 65.2255C60.9349 64.7255 60.8649 64.2255 60.8249 63.7255C60.7849 63.2255 60.5849 62.7255 60.5949 62.2255C60.6049 61.7255 60.7949 61.3155 60.9149 60.8255C61.4149 60.9755 61.8249 61.1255 62.2849 61.3055C62.7749 61.4955 63.3349 61.4955 63.7749 61.7255C64.2449 61.9655 64.5449 62.4555 64.9449 62.7455C65.3449 63.0355 65.8349 63.2755 66.1749 63.6455C66.5149 64.0155 66.8149 64.4355 67.0649 64.8855C67.3049 65.3155 67.3149 65.8355 67.4649 66.3555C67.6049 66.8155 67.7949 67.2755 67.8549 67.8155C67.9149 68.3455 68.2249 68.8455 68.3849 69.3755C68.5449 69.9055 68.6849 70.4355 68.9649 70.8855C69.1749 71.2255 69.4149 71.6555 69.7949 71.8955C70.1749 72.1355 70.6549 72.2655 71.0449 72.3455C71.3349 72.4055 72.2649 71.1855 72.4049 70.4955C72.5049 69.9855 72.2149 69.4255 72.1949 68.8955C72.1749 68.3655 72.2949 67.8255 72.2949 67.3155C72.8249 67.3555 73.3749 67.2755 73.8949 67.3155C74.4149 67.3555 74.9349 67.6155 75.4549 67.6555C75.9749 67.6955 76.5049 67.7855 77.0249 67.8155C77.5449 67.8455 78.0949 67.5855 78.6249 67.6255C79.1549 67.6655 79.6549 67.9655 80.1849 68.0055C80.7149 68.0455 81.3249 68.0255 81.8549 68.0655V68.0955ZM38.9849 56.8955C38.5049 56.6455 37.7249 56.5055 37.0349 56.0955C36.5349 55.8055 36.0949 55.4655 35.6749 55.1955C35.1849 54.8755 34.7549 54.5355 34.3549 54.2355C33.8849 53.8855 33.4949 53.5155 33.1349 53.1655C32.7249 52.7555 32.3749 52.3555 32.0949 51.9255C31.7949 51.4655 31.5449 50.9955 31.3849 50.4655C31.2349 49.9755 31.0949 49.4555 31.0449 48.8755C31.0049 48.3755 31.1249 47.8355 31.1549 47.2455C31.1849 46.7455 31.0949 46.1955 31.1549 45.6155C31.2149 45.1055 31.4949 44.6055 31.5949 44.0255C31.6649 43.5855 31.7249 43.1455 31.9749 42.7355C32.2249 42.3255 32.5549 42.0055 32.8349 41.6555C33.1749 41.2355 33.4449 40.7355 33.8349 40.3555C34.2249 39.9755 34.7249 39.7055 35.1549 39.3855C35.5449 39.1055 35.7749 38.5855 36.1149 38.1655C36.4549 37.7455 36.9149 37.4655 37.2649 37.1155C37.6549 36.7255 38.0049 36.2055 38.4949 36.1155C38.9249 36.0355 39.3449 36.4455 39.9149 36.7755C40.4049 37.0555 41.0449 37.1055 41.5249 37.4155C42.0049 37.7255 42.3249 38.2555 42.7749 38.6055C43.2249 38.9555 43.7349 39.2155 44.1349 39.6155C44.5349 40.0155 44.9849 40.3855 45.3149 40.8555C45.6449 41.3255 45.6849 41.9255 45.9149 42.4655C46.1349 42.9655 46.5349 43.4255 46.6549 44.0055C46.7049 44.2655 46.3649 44.6155 46.4249 44.8655C46.5549 45.4055 46.7449 45.9055 46.8049 46.4155C46.8749 46.9755 46.8149 47.4955 46.8049 48.0055C46.7849 48.5555 46.9349 49.1055 46.8249 49.6155C46.7049 50.1455 46.3649 50.5855 46.1449 51.0655C45.9249 51.5455 45.6249 51.9555 45.3149 52.3955C45.0049 52.8355 44.6749 53.1855 44.2849 53.5755C43.9149 53.9355 43.5449 54.2855 43.1049 54.6155C42.6949 54.9255 42.3649 55.3855 41.8849 55.6655C41.4449 55.9255 40.8949 56.0455 40.4049 56.2855C39.9349 56.5155 39.4949 56.7055 38.9949 56.9155L38.9849 56.8955Z" fill="#0093D5"/>
</svg>
