<svg width="66" height="90" viewBox="0 0 66 90" fill="none" xmlns="http://www.w3.org/2000/svg">
<path d="M58.3119 35.5814C58.6079 35.0017 58.8669 34.4221 59.1382 33.8425C59.4095 33.2629 59.6808 32.6709 59.9152 32.0789C60.1495 31.487 60.3221 30.858 60.5441 30.2661C60.7661 29.6741 61.1484 29.1191 61.3457 28.5025C61.543 27.8859 61.7774 27.2816 61.95 26.665C62.1227 26.0484 62.394 25.4441 62.5419 24.8274C62.6899 24.2108 62.5543 23.5079 62.6776 22.8789C62.8009 22.25 63.0229 21.6333 63.1339 21.0044C63.2449 20.3754 63.3929 19.7465 63.4669 19.1052C63.5409 18.4639 63.6889 17.8349 63.7505 17.1936C63.8122 16.5523 63.5409 15.8987 63.5779 15.2451C63.6149 14.5915 63.9109 13.9749 63.9232 13.3212C63.9355 12.6676 63.6519 12.0387 63.6395 11.3974C63.6272 10.7561 63.7752 10.0778 63.7505 9.42418C63.0846 9.15286 62.394 8.99254 61.7897 8.89388C61.0991 8.78289 60.4331 8.85688 59.8041 8.91854C59.1258 8.98021 58.4599 9.0172 57.831 9.22686C57.202 9.43651 56.5977 9.73248 56.0057 10.0285C55.4138 10.3244 54.8711 10.7191 54.2915 11.0521C53.7119 11.385 53.1693 11.8167 52.5773 12.1497C51.9854 12.4826 51.3687 12.7539 50.7644 13.0869C50.1601 13.4199 49.5312 13.6419 48.9269 13.9749C48.3226 14.3078 47.7553 14.6408 47.151 14.9738C46.5467 15.3068 46.0534 15.5288 45.4615 15.8741C45.1655 15.2698 45.0052 14.7518 44.7338 14.1722C44.4625 13.5926 44.0679 13.0129 43.7966 12.4333C43.5253 11.8537 43.217 11.237 42.9457 10.6451C42.6743 10.0531 42.3784 9.44884 42.0947 8.85688C41.8111 8.26492 41.5151 7.67296 41.2191 7.09334C40.9231 6.51371 40.4422 6.02041 40.1215 5.45312C39.8502 4.97215 39.7146 4.36786 39.4062 3.84989C39.0979 3.33193 38.8513 2.7893 38.5183 2.333C38.1607 1.8397 37.6673 1.45739 37.2604 1.08742C36.7917 0.655781 36.3108 0.224147 35.7928 0.0884899C35.0405 -0.10883 34.3499 0.0514902 33.8196 0.29814C33.24 0.557122 32.8577 1.11208 32.4507 1.66705C32.0807 2.17268 31.8588 2.80164 31.5505 3.39359C31.2421 3.98555 30.9091 4.57751 30.5885 5.10781C30.2432 5.68743 29.9226 6.29173 29.5773 6.87135C29.2319 7.45098 28.8619 8.01827 28.5166 8.61023C28.1713 9.20219 27.7767 9.74482 27.4314 10.3368C27.0861 10.9287 26.7654 11.5084 26.4078 12.1003C26.0502 12.6923 25.8282 13.3212 25.4705 13.9132C25.1129 14.5052 24.5949 14.9615 24.2496 15.5657C23.9043 16.17 23.633 16.8977 23.2877 17.5019C22.8437 17.021 22.4244 16.3674 21.9928 15.8987C21.5612 15.4301 21.0925 14.9491 20.6609 14.4682C20.2292 13.9872 19.8962 13.3952 19.4646 12.9266C19.033 12.458 18.4287 12.1003 17.997 11.6317C17.5654 11.1631 17.2448 10.5464 16.8008 10.0778C16.3568 9.60916 15.7649 9.26385 15.3209 8.80755C14.8769 8.35125 14.3343 7.96894 13.8657 7.52497C13.3354 7.03167 12.8791 6.58771 12.4228 6.23006C11.8308 5.76143 11.3622 5.30513 10.8812 5.05848C10.1536 4.70083 9.51229 4.44185 8.96966 4.60218C8.42703 4.7625 8.14341 5.40379 7.7241 6.09441C7.44045 6.56304 6.99649 7.05634 6.76217 7.78395C6.57718 8.33891 6.31818 8.95554 6.15785 9.65849C6.0222 10.2011 6.19485 10.8054 6.12086 11.3604C6.04686 12.0017 5.87422 12.6183 5.82489 13.2596C5.77556 13.9009 5.76324 14.5422 5.72625 15.1711C5.68925 15.8001 5.56592 16.4537 5.56592 17.0826C5.56592 17.7116 5.71389 18.3652 5.73855 18.9942C5.76322 19.6231 5.93589 20.2644 5.98522 20.8934C6.03455 21.5223 5.76324 22.2006 5.83723 22.8296C5.91123 23.4585 6.07154 24.0875 6.1702 24.7288C6.26886 25.3701 6.35518 25.999 6.47851 26.628C6.60183 27.2569 6.97179 27.8242 7.11978 28.4532C7.26777 29.0821 7.18145 29.7604 7.3541 30.3771C7.52676 30.9937 7.89674 31.5486 8.09406 32.1653C8.29138 32.7819 8.30371 33.4355 8.51336 34.0398C8.72301 34.6441 9.06833 35.199 9.29031 35.8033C9.5123 36.4076 9.66029 37.0243 9.90694 37.6162C10.1536 38.2205 10.5112 38.7755 10.8195 39.3551C11.1278 39.9347 11.3499 40.5637 11.6952 41.1186C12.0405 41.6736 12.4351 42.2039 12.8421 42.7219C13.249 43.2398 13.656 43.7701 14.1123 44.2388C14.5686 44.7074 15.1483 45.0404 15.6662 45.4597C16.1842 45.879 16.7021 46.249 17.2571 46.6066C17.775 46.9396 18.2314 47.3835 18.7493 47.7165C19.2673 48.0495 19.9456 48.1112 20.4882 48.4441C21.0309 48.7771 21.4995 49.1471 22.0421 49.4677C22.5847 49.7884 23.0164 50.2323 23.559 50.553C24.1016 50.8736 24.6813 51.0586 25.2239 51.3793C25.7665 51.6999 26.3338 51.8972 26.8764 52.2179C27.4191 52.5385 27.7644 53.1181 28.3193 53.4388C28.8743 53.7594 29.3799 53.9691 29.9226 54.3021C29.9226 54.9433 29.9719 55.56 29.9719 56.2136C29.9719 56.8672 29.9719 57.5085 29.9842 58.1621C29.9965 58.8158 30.1199 59.457 30.1322 60.1107C30.1445 60.7643 30.1322 61.4056 30.1322 62.0715C30.1322 62.7375 29.9596 63.3788 29.9596 64.0324C29.9596 64.686 30.1322 65.3273 30.1322 65.9809C30.1322 66.6345 30.0089 67.2882 30.0089 67.9418C30.0089 68.5954 30.2802 69.2367 30.2802 69.9026C30.2802 70.5686 30.0705 71.2099 30.0705 71.8635C30.0705 72.5171 30.1199 73.1707 30.1199 73.8244C30.1199 74.478 30.2679 75.1316 30.2679 75.7852C30.2679 76.4389 30.0459 77.0925 30.0459 77.7461C30.0459 78.3997 30.1322 79.0533 30.1445 79.707C30.1445 80.3606 30.1075 81.0142 30.1075 81.6678C30.1075 82.3214 30.1199 82.9751 30.1445 83.6287C30.1692 84.2823 30.3912 84.9236 30.4405 85.5772C30.4898 86.2308 30.5268 86.8721 30.6132 87.5257C30.6625 87.9574 30.9338 88.426 31.2298 88.8823C31.5504 89.388 31.8341 89.8566 32.2287 89.9429C32.648 90.0416 33.2523 90.0292 33.7826 89.7703C34.2759 89.5236 34.8062 89.1783 35.1022 88.8207C35.4845 88.352 35.8421 87.7477 36.0888 87.1434C36.3354 86.5392 36.3848 85.8609 36.4711 85.2442C36.5698 84.6276 36.4711 83.9987 36.4958 83.3697C36.5204 82.7407 36.6191 82.1365 36.6314 81.5075C36.6438 80.8785 36.7794 80.2743 36.8164 79.6453C36.8534 79.004 36.7177 78.3504 36.7547 77.7091C36.7917 77.0678 37.026 76.4265 37.063 75.7852C37.1 75.144 37.0014 74.4903 37.026 73.849C37.0507 73.2078 37.0137 72.5541 37.0384 71.9128C37.0631 71.2716 37.1617 70.6303 37.1987 69.989C37.2357 69.3477 37.433 68.7064 37.47 68.0651C37.507 67.4238 37.322 66.7702 37.359 66.1166C37.396 65.463 37.507 64.834 37.5317 64.1927C37.5563 63.5514 37.6057 62.9101 37.6427 62.2688C37.6797 61.6276 37.8277 60.9863 37.8647 60.345C37.9017 59.7037 37.84 59.0501 37.8647 58.4088C37.8893 57.7675 37.7043 57.1015 37.7413 56.4602C37.7783 55.819 38.1483 55.19 38.173 54.5364C38.1977 53.8828 37.9263 53.1058 37.9633 52.4645C38.6293 52.3535 39.4062 52.3782 40.0352 52.2302C40.6641 52.0822 41.2931 51.8109 41.9097 51.6012C42.5264 51.3916 43.2293 51.3299 43.8213 51.0833C44.4132 50.8366 44.9312 50.3433 45.5108 50.035C46.0904 49.7267 46.6577 49.4061 47.2127 49.0608C47.7676 48.7154 48.3596 48.4195 48.8899 48.0248C49.4202 47.6302 50.0122 47.3095 50.4931 46.8656C50.9741 46.4216 51.2824 45.7927 51.7387 45.3117C52.195 44.8307 52.6513 44.3744 53.0706 43.8811C53.4899 43.3878 53.9462 42.9069 54.3409 42.3889C54.7355 41.8709 55.1548 41.3653 55.5248 40.8103C55.8947 40.2554 56.3387 39.7744 56.684 39.2071C57.0293 38.6398 57.3007 38.0479 57.6213 37.4682C57.9419 36.8886 58.0529 36.2226 58.3613 35.6307L58.3119 35.5814Z" fill="#E33500"/>
<path d="M18.0584 70.1246C17.5898 69.6929 17.0965 69.286 16.5538 68.9407C16.0112 68.5953 15.4315 68.3487 14.8396 68.0897C14.2476 67.8307 13.668 67.5964 13.0514 67.4238C12.4348 67.2511 11.8181 67.1154 11.1768 67.0168C10.5356 66.9181 9.90661 66.8811 9.26532 66.8565C8.62403 66.8318 7.99506 66.9058 7.35377 66.9551C6.71248 67.0045 6.07122 67.0415 5.45459 67.1524C4.83797 67.2634 4.19667 67.4238 3.59238 67.6087C2.98808 67.7937 2.38378 68.0404 1.80415 68.2994C1.22453 68.5584 0.65725 68.8913 0.126953 69.2366C0.373603 69.8163 0.607915 70.4206 0.854565 71.0125C1.10121 71.6045 1.34786 72.1841 1.58218 72.7761C1.81649 73.368 2.05082 73.96 2.28514 74.5519C2.51945 75.1439 2.74142 75.7359 3.0004 76.3155C3.25939 76.8951 3.58005 77.4501 3.86369 78.0174C4.14734 78.5847 4.468 79.1396 4.80097 79.6699C5.15861 80.2619 5.57791 80.8168 5.98488 81.3718C6.39185 81.9268 6.81114 82.4817 7.27978 82.9873C7.74841 83.493 8.20472 84.0356 8.71035 84.4919C9.21598 84.9482 9.80795 85.3305 10.3752 85.7252C10.9425 86.1198 11.5098 86.5144 12.1265 86.8351C12.7431 87.1557 13.3844 87.4024 14.0503 87.6367C14.7163 87.871 15.3699 88.0067 16.0605 88.1547C16.7634 88.2903 17.4294 88.389 18.0584 88.4013C18.7737 88.4013 19.4396 88.315 20.0562 88.167C20.7469 88.019 21.3881 87.8217 21.9554 87.501C22.5597 87.1681 23.09 86.7364 23.5217 86.2431C23.9656 85.7375 24.2986 85.1579 24.5452 84.5166C24.7672 83.9123 24.9522 83.2587 24.9892 82.5434C25.0139 81.9021 24.9029 81.2361 24.7549 80.5332C24.6193 79.9166 24.4589 79.2506 24.1753 78.597C23.904 77.968 23.5216 77.3637 23.1887 76.7471C22.8557 76.1305 22.535 75.5139 22.1527 74.9219C21.7704 74.3299 21.3758 73.7503 20.9442 73.1954C20.5125 72.6404 20.0192 72.1348 19.5506 71.6291C19.082 71.1235 18.5887 70.5932 18.083 70.1246H18.0584Z" fill="#E33500"/>
<path d="M65.2548 68.5091C64.6382 68.3365 63.9846 68.1638 63.3063 68.0775C62.628 67.9912 61.9867 68.0528 61.3084 68.0528C60.6301 68.0528 59.9888 68.0035 59.3106 68.0775C58.6323 68.1515 58.0156 68.3118 57.3497 68.4351C56.6837 68.5585 56.0301 68.6325 55.3888 68.8051C54.7475 68.9778 54.1186 69.1997 53.4896 69.4217C52.8607 69.6437 52.2564 69.915 51.6521 70.1864C51.0478 70.4577 50.4558 70.7783 49.8762 71.099C49.2966 71.4196 48.68 71.7156 48.1373 72.0732C47.5947 72.4309 47.0644 72.8872 46.5711 73.3065C46.0408 73.7504 45.5352 74.1697 45.1035 74.6507C44.6472 75.1563 44.2896 75.7236 43.9566 76.2663C43.6237 76.7966 43.3523 77.3392 43.1057 77.8695C42.8467 78.4368 42.6124 78.9917 42.4644 79.5714C42.3164 80.151 42.1561 80.7553 42.1314 81.3596C42.1068 81.9639 42.1684 82.5682 42.2671 83.1724C42.3657 83.7767 42.5261 84.3317 42.7604 84.9237C42.97 85.4663 43.2537 85.9719 43.599 86.5145C44.2403 86.6995 44.8692 86.8475 45.5105 86.9585C46.1518 87.0695 46.8177 87.1805 47.4714 87.2175C48.125 87.2545 48.791 87.2668 49.4569 87.2545C50.1229 87.2422 50.7888 87.2545 51.4424 87.1558C52.096 87.0572 52.7373 86.8722 53.3786 86.7119C54.0199 86.5515 54.6736 86.3912 55.2902 86.1569C55.9068 85.9226 56.5111 85.6266 57.0907 85.3183C57.6703 85.01 58.2623 84.7017 58.8049 84.3194C59.3475 83.9371 59.8162 83.4684 60.3095 83.0121C60.8028 82.5558 61.2344 82.0872 61.6661 81.5692C62.0977 81.0513 62.517 80.558 62.8747 79.9907C63.2323 79.4234 63.5529 78.8561 63.8242 78.2395C64.0956 77.6228 64.2805 77.0185 64.4779 76.3649C64.6752 75.7113 64.8725 75.1193 64.9958 74.4534C65.1192 73.8244 65.1932 73.1585 65.2548 72.4802C65.3165 71.8389 65.3288 71.1729 65.3288 70.4947C65.3288 69.8534 65.3041 69.1874 65.2425 68.5091H65.2548Z" fill="#E33500"/>
</svg>
