<svg width="143" height="92" viewBox="0 0 143 92" fill="none" xmlns="http://www.w3.org/2000/svg">
<g clip-path="url(#clip0_44_92)">
<path d="M0.0900599 36.6201C0.41006 36.3101 0.94006 36.0801 1.47006 35.8101C1.89006 35.6001 2.34006 35.2801 2.87006 35.0901C3.33006 34.9301 3.88006 34.9101 4.41006 34.7701C4.89006 34.6401 5.40006 34.5501 5.93006 34.4401C6.42006 34.3301 6.91006 34.0901 7.43006 33.9901C7.95006 33.8901 8.44006 33.7701 8.96006 33.6901C9.48006 33.6101 9.99006 33.5301 10.5101 33.4601C11.0301 33.3901 11.5501 33.4301 12.0701 33.3701C12.5901 33.3101 13.1101 33.3201 13.6301 33.2701C14.1501 33.2201 14.6801 33.2301 15.1901 33.1801C15.7001 33.1301 16.2201 32.9201 16.7401 32.8801C17.2601 32.8401 17.8001 32.9901 18.3101 32.9601C18.8201 32.9301 19.3601 32.8501 19.8701 32.8201C20.4101 32.7901 20.9301 32.8001 21.4301 32.7801C21.9801 32.7501 22.4901 32.6301 22.9801 32.6101C23.5801 32.5801 24.1401 32.6701 24.6401 32.6001C25.2301 32.5201 25.7601 32.3201 26.2501 32.1801C26.8201 32.0201 27.2801 31.7101 27.7401 31.4701C28.2501 31.2101 28.8301 31.1001 29.2401 30.7401C29.6501 30.3801 29.8801 29.8501 30.2401 29.4101C30.5701 29.0001 30.9301 28.5901 31.2501 28.1101C31.5401 27.6801 31.9401 27.2801 32.2501 26.7901C32.5301 26.3501 32.8401 25.9001 33.1501 25.4101C33.4301 24.9701 33.6401 24.4501 33.9601 23.9701C34.2301 23.5201 34.3801 23.0101 34.6201 22.5401C34.8601 22.0701 35.2001 21.6601 35.4201 21.1801C35.6401 20.7001 35.6401 20.1401 35.8301 19.6501C36.0201 19.1601 36.4401 18.7601 36.6201 18.2701C36.8001 17.7801 37.0301 17.3001 37.2101 16.8101C37.3901 16.3201 37.4401 15.7801 37.6101 15.2801C37.7801 14.7801 38.0001 14.3001 38.1701 13.8101C38.3401 13.3201 38.3501 12.7601 38.5301 12.2701C38.7101 11.7801 38.9601 11.3001 39.1501 10.8201C39.3401 10.3401 39.5801 9.85009 39.7901 9.38009C40.0001 8.91009 40.0901 8.35009 40.3201 7.89009C40.5501 7.43009 41.0601 7.09009 41.3201 6.64009C41.5801 6.19009 41.8001 5.71009 42.1001 5.28009C42.4001 4.85009 42.6901 4.41009 43.0401 4.02009C43.4101 3.60009 43.7401 3.18009 44.0801 2.84009C44.4901 2.43009 44.9001 2.10009 45.2801 1.82009C45.7601 1.46009 46.2701 1.38009 46.7101 1.22009C47.2401 1.03009 47.7301 0.720088 48.2301 0.840088C48.6901 0.950088 49.1101 1.32009 49.5801 1.68009C49.9401 1.96009 50.3601 2.29009 50.7501 2.73009C51.0601 3.09009 51.3601 3.53009 51.6901 3.99009C52.0001 4.42009 52.4001 4.79009 52.6901 5.25009C52.9801 5.71009 53.1001 6.24009 53.3701 6.71009C53.6401 7.18009 53.9401 7.61009 54.1801 8.09009C54.4201 8.57009 54.4301 9.14009 54.6601 9.63009C54.8901 10.1201 55.0901 10.5901 55.3101 11.0801C55.5301 11.5701 55.7501 12.0401 55.9601 12.5301C56.1701 13.0201 56.5801 13.4201 56.7801 13.9201C56.9801 14.4201 57.2801 14.8701 57.4801 15.3601C57.6801 15.8501 57.5501 16.4801 57.7401 16.9801C57.9301 17.4801 58.3201 17.9001 58.5101 18.4001C58.7001 18.9001 58.8101 19.4301 59.0101 19.9201C59.2101 20.4101 59.4001 20.9201 59.6001 21.4101C59.8001 21.9001 60.0201 22.4001 60.2301 22.8801C60.4401 23.3601 60.7701 23.8101 60.9901 24.2901C61.2101 24.7701 61.3201 25.3201 61.5601 25.7901C61.8001 26.2601 62.0201 26.7701 62.2801 27.2201C62.5501 27.7001 62.8701 28.1401 63.1901 28.4901C63.5501 28.8901 64.0101 29.1801 64.4201 29.4501C64.8301 29.7201 65.3501 29.9001 65.8301 30.0601C66.3101 30.2201 66.8001 30.3101 67.3201 30.4001C67.8001 30.4801 68.3101 30.4401 68.8301 30.4901C69.3201 30.5301 69.8101 30.7501 70.3401 30.7801C70.8301 30.8101 71.3501 30.6401 71.8701 30.6901C72.4101 30.7301 72.9401 30.8701 73.4801 30.9201C74.0201 30.9701 74.5601 31.0501 75.1001 31.1101C75.6401 31.1701 76.1901 31.1701 76.7301 31.2301C77.2701 31.2901 77.8101 31.3201 78.3501 31.3901C78.8901 31.4601 79.4201 31.5701 79.9601 31.6401C80.5001 31.7101 81.0201 31.8701 81.5601 31.9601C82.1001 32.0501 82.6601 31.9301 83.2001 32.0201C83.7401 32.1101 84.2601 32.2701 84.8001 32.3601C85.3401 32.4501 85.8501 32.6501 86.3901 32.7501C86.9301 32.8501 87.4401 33.0301 87.9801 33.1301C88.4401 33.2101 88.9801 33.2101 89.5501 33.3401C90.0401 33.4501 90.5301 33.6901 91.0601 33.8101C91.5901 33.9301 92.1701 33.7501 92.6801 33.8901C93.1901 34.0301 93.6901 34.2901 94.1801 34.4301C94.7401 34.6001 95.2701 34.7301 95.7001 34.8901C96.4401 35.1701 96.9901 35.4901 97.0901 35.7101C97.0901 36.2201 96.7601 36.6401 96.6001 37.0701C96.4301 37.5401 96.2401 37.9501 95.9701 38.3201C95.6601 38.7501 95.5201 39.2901 95.2301 39.5801C94.8601 39.9601 94.2801 40.1301 93.9001 40.5001C93.5201 40.8701 93.2201 41.3301 92.8301 41.6901C92.4401 42.0501 91.9501 42.3001 91.5501 42.6601C91.1501 43.0201 90.8501 43.4701 90.4501 43.8301C90.0501 44.1901 89.7801 44.6801 89.3801 45.0301C88.9801 45.3801 88.4101 45.5301 88.0001 45.8801C87.5901 46.2301 87.2001 46.5801 86.7901 46.9201C86.3801 47.2601 85.9501 47.5701 85.5401 47.9101C85.1301 48.2501 84.9301 48.8401 84.5201 49.1801C84.1101 49.5201 83.6701 49.8301 83.2601 50.1701C82.8501 50.5101 82.4701 50.8901 82.0601 51.2301C81.6501 51.5701 81.2101 51.8801 80.8001 52.2201C80.3901 52.5601 79.8501 52.7501 79.4401 53.0901C79.0301 53.4301 78.7501 53.9301 78.3501 54.2701C77.9501 54.6101 77.4901 54.9101 77.0901 55.2501C76.6901 55.5901 76.2301 55.8901 75.8301 56.2401C75.4301 56.5901 75.0101 56.9201 74.6101 57.2701C74.2101 57.6201 73.8401 58.0101 73.4501 58.3701C73.0001 58.7801 72.8301 59.3101 72.6001 59.7601C72.3401 60.2601 71.9201 60.7001 71.8501 61.2501C71.7801 61.8001 72.0701 62.3401 72.1101 62.9101C72.1501 63.4401 72.2201 63.9801 72.2901 64.5401C72.3601 65.1001 72.2701 65.6401 72.3101 66.2001C72.3501 66.7401 72.3101 67.2801 72.3301 67.8201C72.3501 68.3601 72.2801 68.9001 72.3101 69.4401C72.3401 69.9801 72.4501 70.5101 72.4701 71.0501C72.4901 71.5901 72.7701 72.1201 72.7801 72.6601C72.7901 73.2001 72.4601 73.7501 72.4701 74.2901C72.4801 74.8301 72.6601 75.3701 72.6601 75.9101C72.6601 76.4501 72.5601 76.9901 72.5501 77.5301C72.5401 78.0701 72.6901 78.6101 72.6901 79.1501C72.6901 79.6901 72.5901 80.2301 72.5801 80.7701C72.5701 81.3101 72.7301 81.8601 72.7101 82.4001C72.6901 82.9401 72.5301 83.4701 72.5001 84.0101C72.4701 84.5501 72.6101 85.1001 72.5701 85.6401C72.5301 86.2401 72.3001 86.7601 72.1901 87.2301C72.0501 87.8301 71.9301 88.3801 71.6701 88.7801C71.3501 89.2701 70.9001 89.6501 70.4201 89.8501C69.9601 90.0401 69.4201 89.8501 68.8201 89.7801C68.3401 89.7301 67.8401 89.6801 67.2801 89.4701C66.8201 89.3001 66.3201 89.1201 65.8001 88.8401C65.3101 88.5801 64.8001 88.3601 64.3301 88.0801C63.8601 87.8001 63.3401 87.5801 62.8701 87.2801C62.4001 86.9801 62.0001 86.5901 61.5401 86.2801C61.0801 85.9701 60.6601 85.6101 60.2101 85.2901C59.7601 84.9701 59.2601 84.7301 58.8101 84.4101C58.3601 84.0901 57.9301 83.7401 57.4801 83.4201C57.0301 83.1001 56.5601 82.8101 56.1001 82.5001C55.6701 82.2101 55.2501 81.8501 54.7701 81.5301C54.3301 81.2301 53.7801 81.0701 53.3101 80.7501C52.8401 80.4301 52.3901 80.1701 51.9301 79.8501C51.4801 79.5401 51.1701 79.0201 50.7201 78.7001C50.2701 78.3801 49.8001 78.0801 49.3501 77.7701C48.9001 77.4601 48.2801 77.3801 47.8301 77.0701C47.3801 76.7601 47.0001 76.1901 46.5601 75.8801C46.1201 76.2101 45.6101 76.5601 45.1601 76.8701C44.7101 77.1801 44.2301 77.4401 43.7701 77.7401C43.3101 78.0401 43.0101 78.5601 42.5401 78.8601C42.0701 79.1601 41.6301 79.4501 41.1701 79.7701C40.7101 80.0901 40.2601 80.3601 39.8101 80.6901C39.3801 81.0101 38.8401 81.2001 38.4001 81.5601C37.9901 81.8901 37.6401 82.3301 37.2101 82.7101C36.8101 83.0601 36.5301 83.5801 36.1201 83.9801C35.6501 84.2701 35.1001 84.4101 34.6701 84.6901C34.2201 85.0001 33.7301 85.2301 33.3201 85.5301C32.8801 85.8501 32.5801 86.3301 32.1701 86.6401C31.7601 86.9501 31.1401 87.0301 30.7201 87.3301C30.3001 87.6301 29.9401 88.0301 29.4901 88.3201C29.0401 88.6101 28.5901 88.8301 28.1201 89.0901C27.6701 89.3401 27.1901 89.5001 26.6901 89.7301C26.2301 89.9401 25.8401 90.3701 25.3201 90.5601C24.8201 90.7401 24.3001 90.7501 23.8501 90.8501C23.3201 90.9701 22.8501 91.1901 22.3901 91.2001C21.8501 91.2001 21.3201 91.1701 20.8801 91.0301C20.3901 90.8701 19.9201 90.5801 19.5701 90.2301C19.2301 89.9001 19.0801 89.3901 18.8601 88.9001C18.6801 88.4801 18.5201 88.0201 18.4301 87.4901C18.3501 87.0401 18.3201 86.5401 18.3201 86.0101C18.3201 85.4801 18.2701 84.9501 18.2701 84.4201C18.2701 83.8901 18.1701 83.3601 18.1901 82.8301C18.2101 82.3001 18.4801 81.7801 18.5101 81.2501C18.5401 80.7201 18.6101 80.2001 18.6401 79.6701C18.6701 79.1401 18.7301 78.6201 18.7801 78.0901C18.8301 77.5601 18.5701 77.0001 18.6201 76.4801C18.6701 75.9601 18.8401 75.4401 18.9001 74.9101C18.9601 74.3801 19.0101 73.8501 19.0901 73.3301C19.1701 72.8101 19.2701 72.2801 19.3501 71.7601C19.4301 71.2401 19.4601 70.7001 19.5501 70.1801C19.6401 69.6601 19.9601 69.1801 20.0701 68.6601C20.1701 68.1701 20.0801 67.6301 20.2201 67.1501C20.3601 66.6701 20.6601 66.2301 20.8001 65.7501C20.9401 65.2701 21.1501 64.8001 21.2701 64.3201C21.4001 63.8201 21.5801 63.3301 21.6401 62.8501C21.7001 62.3401 21.5601 61.8101 21.5001 61.3301C21.4401 60.8501 21.3501 60.3301 21.1101 59.8801C20.8901 59.4701 20.5901 59.0501 20.1901 58.6801C19.8001 58.3101 19.2701 58.1001 18.8601 57.7401C18.4501 57.3801 18.0301 57.0601 17.6201 56.7101C17.2101 56.3601 16.8701 55.9301 16.4601 55.5901C16.0501 55.2501 15.6001 54.9501 15.1801 54.6101C14.7601 54.2701 14.5001 53.7401 14.0801 53.4001C13.6601 53.0601 13.1801 52.8001 12.7701 52.4501C12.3601 52.1001 12.0401 51.6601 11.6401 51.3001C11.2401 50.9401 10.8101 50.6201 10.4201 50.2501C10.0301 49.8801 9.64006 49.5101 9.28006 49.1201C8.92006 48.7301 8.46006 48.4101 8.12006 47.9901C7.84006 47.6501 7.54006 47.2101 7.16006 46.7701C6.84006 46.4101 6.36006 46.1301 6.00006 45.7201C5.67006 45.3401 5.43006 44.8601 5.08006 44.4501C4.73006 44.0401 4.29006 43.7601 3.95006 43.3601C3.61006 42.9601 3.44006 42.4201 3.12006 42.0201C2.80006 41.6201 2.36006 41.2701 2.06006 40.8701C1.73006 40.4301 1.53006 39.9301 1.26006 39.5201C0.93006 39.0301 0.47006 38.6801 0.27006 38.2801C-0.0399401 37.6401 -0.0999402 36.9601 0.0700599 36.6401L0.0900599 36.6201Z" fill="#FFD100"/>
<path d="M121.7 45.4299C122.09 45.5999 122.45 46 122.84 46.45C123.14 46.8 123.39 47.25 123.68 47.72C123.94 48.13 124.32 48.5099 124.56 48.9799C124.8 49.4499 124.92 49.9399 125.14 50.4099C125.36 50.8799 125.64 51.32 125.84 51.7699C126.06 52.2599 126.28 52.7299 126.47 53.1599C126.62 53.5099 126.77 53.98 127.03 54.44C127.25 54.85 127.49 55.27 127.74 55.65C128.04 56.11 128.36 56.5099 128.6 56.7699C129.09 56.78 129.58 56.81 130.1 56.81C130.57 56.81 131.06 56.6899 131.59 56.6799C132.06 56.6699 132.55 56.7 133.08 56.6799C133.63 56.6599 134.12 56.6599 134.57 56.6599C135.11 56.6599 135.6 56.6399 136.06 56.6799C136.56 56.7199 137.02 56.8799 137.52 56.9799C137.97 57.0699 138.44 57.17 138.96 57.33C139.39 57.46 139.86 57.6 140.37 57.79C141.02 58.0199 141.57 58.1799 141.93 58.4299C142.49 58.82 142.63 59.31 142.5 59.9C142.41 60.31 142.18 60.79 141.75 61.37C141.45 61.77 141.14 62.21 140.77 62.63C140.43 63.01 140.04 63.38 139.66 63.77C139.3 64.14 138.98 64.57 138.59 64.95C138.2 65.33 137.77 65.6299 137.39 66C137.01 66.37 136.67 66.79 136.29 67.16C135.91 67.53 135.42 67.8099 135.05 68.1699C134.66 68.5499 134.37 69.0199 134.01 69.3799C133.62 69.7799 133.24 70.1199 132.91 70.4899C133.11 70.9299 133.29 71.4 133.49 71.9C133.68 72.36 133.91 72.83 134.09 73.33C134.27 73.83 134.34 74.33 134.52 74.83C134.7 75.33 134.85 75.81 135 76.3C135.15 76.79 135.46 77.2499 135.61 77.7399C135.76 78.2499 135.75 78.7999 135.87 79.2799C136 79.8099 136.14 80.32 136.24 80.79C136.35 81.36 136.42 81.88 136.45 82.32C136.51 83.09 136.49 83.58 136.26 83.76C135.89 83.89 135.29 83.88 134.7 83.72C134.06 83.55 133.47 83.22 133.22 83.12C132.64 82.87 132.08 82.7299 131.59 82.54C131.01 82.32 130.5 82.0599 129.99 81.8899C129.42 81.7 128.87 81.59 128.33 81.41C127.79 81.23 127.26 81.07 126.7 80.86C126.2 80.68 125.69 80.43 125.12 80.18C124.63 79.97 124.12 79.7299 123.55 79.4599C122.87 79.1399 122.25 79.18 121.64 79.3899C121.07 79.59 120.53 80.0099 119.89 80.2799C119.42 80.4799 118.89 80.5499 118.41 80.7399C117.93 80.9299 117.46 81.1399 116.98 81.32C116.5 81.5 116.05 81.77 115.57 81.94C115.09 82.11 114.59 82.25 114.1 82.4199C113.61 82.5899 113.1 82.6599 112.61 82.8099C112.12 82.9599 111.65 83.18 111.16 83.33C110.57 83.5 110.06 83.6199 109.67 83.5599C109.13 83.4699 108.82 83.07 108.67 82.54C108.56 82.16 108.59 81.68 108.69 81.07C108.79 80.5 108.79 79.91 108.93 79.34C109.07 78.77 109.33 78.25 109.5 77.69C109.67 77.13 109.73 76.5499 109.88 75.9899C110.02 75.4999 110.23 74.94 110.41 74.34C110.56 73.8 110.76 73.25 110.92 72.69C111.08 72.13 111.16 71.58 111.31 71.05C110.87 70.79 110.55 70.45 110.14 70.16C109.73 69.87 109.27 69.6699 108.83 69.3799C108.43 69.1199 108.04 68.7899 107.57 68.5299C107.16 68.2999 106.73 68.0299 106.23 67.8099C105.81 67.4999 105.4 67.25 105.01 67.01C104.58 66.74 104.13 66.5699 103.73 66.3099C103.33 66.0499 102.92 65.79 102.53 65.48C102.18 65.2 101.89 64.8099 101.54 64.41C101.11 63.93 100.81 63.5 100.7 63.07C100.55 62.52 100.7 62.02 101.1 61.6C101.4 61.28 101.84 60.99 102.44 60.7699C102.96 60.58 103.47 60.3499 104 60.1799C104.53 60.0099 105.1 60 105.64 59.85C106.18 59.7 106.7 59.5099 107.24 59.3899C107.78 59.2699 108.33 59.16 108.87 59.06C109.41 58.96 109.97 58.87 110.51 58.79C111.06 58.71 111.63 58.6999 112.16 58.6599C112.75 58.6199 113.32 58.55 113.79 58.38C114.3 58.19 114.74 57.85 115.01 57.29C115.22 56.85 115.38 56.3899 115.56 55.9299C115.74 55.4699 115.85 54.99 116.02 54.53C116.19 54.07 116.44 53.64 116.62 53.19C116.8 52.74 117.05 52.31 117.27 51.88C117.49 51.45 117.65 50.9799 117.92 50.5699C118.14 50.2299 118.43 49.74 118.75 49.19C119.01 48.75 119.3 48.27 119.59 47.81C119.88 47.35 120.17 46.84 120.47 46.45C120.94 45.83 121.41 45.38 121.71 45.42L121.7 45.4299Z" fill="#FFD100"/>
</g>
<defs>
<clipPath id="clip0_44_92">
<rect width="142.55" height="90.42" fill="white" transform="translate(0 0.790039)"/>
</clipPath>
</defs>
</svg>
