<svg width="92" height="80" viewBox="0 0 92 80" fill="none" xmlns="http://www.w3.org/2000/svg">
<path d="M47.57 15.0448C47.86 14.6448 48.25 14.2848 48.45 14.0248C48.75 13.6348 48.75 13.1848 48.95 12.8848C49.25 12.4448 49.66 12.0848 49.98 11.6648C50.3 11.2448 50.71 10.8948 51.06 10.5048C51.41 10.1148 51.79 9.74484 52.16 9.37484C52.53 9.00484 52.75 8.45484 53.14 8.10484C53.53 7.75484 54.03 7.50484 54.44 7.18484C54.85 6.86484 55.23 6.46485 55.67 6.17485C56.11 5.88485 56.65 5.75485 57.11 5.49485C57.57 5.23485 57.95 4.82484 58.43 4.59484C58.91 4.36484 59.42 4.20484 59.91 4.01484C60.4 3.82484 60.92 3.70484 61.42 3.53484C61.92 3.36484 62.36 3.00484 62.88 2.86484C63.4 2.72484 63.91 2.62484 64.43 2.51484C64.95 2.40484 65.5 2.46484 66.02 2.38484C66.54 2.30484 67.05 2.11484 67.58 2.05484C68.11 1.99484 68.63 1.94484 69.16 1.91484C69.69 1.88484 70.22 2.01484 70.75 2.00484C71.28 1.99484 71.8 1.90485 72.34 1.90485C72.88 1.90485 73.41 1.95484 73.93 2.01484C74.45 2.07484 74.99 2.12484 75.51 2.23484C76.03 2.34484 76.57 2.39484 77.08 2.54484C77.59 2.69484 78.08 2.92484 78.58 3.11484C79.08 3.30484 79.58 3.50485 80.05 3.74485C80.52 3.98485 80.94 4.33484 81.4 4.61484C81.86 4.89484 82.25 5.24484 82.69 5.55484C83.13 5.86484 83.61 6.10484 84.01 6.45484C84.41 6.80484 84.69 7.27485 85.07 7.65485C85.45 8.03485 85.87 8.35484 86.22 8.75484C86.57 9.15484 86.88 9.58484 87.19 10.0148C87.5 10.4448 87.83 10.8648 88.11 11.3148C88.39 11.7648 88.55 12.2848 88.8 12.7548C89.05 13.2248 89.42 13.6348 89.63 14.1248C89.84 14.6148 89.95 15.1348 90.12 15.6448C90.29 16.1548 90.61 16.6148 90.73 17.1248C90.85 17.6348 90.81 18.1948 90.89 18.7248C90.97 19.2548 91.09 19.7748 91.12 20.3048C91.15 20.8348 91.07 21.3648 91.05 21.8948C91.03 22.4248 91.05 22.9548 90.98 23.4848C90.91 24.0048 90.77 24.5048 90.68 25.0148C90.59 25.5248 90.5 26.0448 90.4 26.5448C90.3 27.0448 90.15 27.5548 90.03 28.0548C89.91 28.5548 89.97 29.1148 89.82 29.6148C89.67 30.1148 89.34 30.5548 89.17 31.0448C89 31.5348 88.9 32.0548 88.7 32.5348C88.5 33.0148 88.33 33.5048 88.12 33.9848C87.91 34.4648 87.62 34.8948 87.38 35.3648C87.14 35.8348 87.1 36.3948 86.85 36.8548C86.6 37.3148 86.13 37.6448 85.86 38.0848C85.59 38.5248 85.33 38.9748 85.04 39.4148C84.75 39.8548 84.39 40.2248 84.08 40.6448C83.77 41.0648 83.41 41.4348 83.09 41.8448C82.77 42.2548 82.45 42.6548 82.11 43.0548C81.77 43.4548 81.68 44.0748 81.33 44.4748C80.98 44.8748 80.64 45.2748 80.29 45.6648C79.94 46.0548 79.54 46.4148 79.19 46.8048C78.84 47.1948 78.51 47.6048 78.16 48.0048C77.81 48.4049 77.39 48.7348 77.04 49.1248C76.69 49.5148 76.34 49.9148 75.99 50.3048C75.64 50.6948 75.31 51.1048 74.95 51.4948C74.59 51.8848 74.13 52.1748 73.77 52.5648C73.41 52.9548 73.1 53.3848 72.74 53.7648C72.38 54.1448 72.11 54.6148 71.74 54.9948C71.37 55.3748 70.84 55.5848 70.47 55.9648C70.1 56.3448 69.83 56.8148 69.47 57.1948C69.11 57.5748 68.6 57.8148 68.23 58.1948C67.86 58.5748 67.73 59.1848 67.36 59.5548C66.99 59.9248 66.45 60.1348 66.08 60.5148C65.71 60.8948 65.42 61.3448 65.05 61.7148C64.68 62.0848 64.2 62.3448 63.82 62.7148C63.44 63.0848 63.22 63.6048 62.85 63.9748C62.48 64.3448 62.03 64.6448 61.65 65.0048C61.27 65.3648 60.83 65.6648 60.45 66.0348C60.07 66.4048 59.74 66.8148 59.36 67.1748C58.98 67.5348 58.65 67.9548 58.27 68.3148C57.89 68.6748 57.52 69.0448 57.13 69.4148C56.74 69.7848 56.38 70.1548 56 70.5148C55.62 70.8748 55.22 71.2148 54.83 71.5748C54.45 71.9348 54.04 72.2748 53.66 72.6348C53.28 72.9948 52.85 73.3148 52.47 73.6748C52.09 74.0348 51.68 74.3748 51.3 74.7348C50.92 75.0948 50.66 75.6048 50.27 75.9648C49.98 76.2348 49.42 76.5748 48.93 77.0548C48.52 77.4548 48 77.7848 47.58 78.1448C46.99 78.6548 46.58 79.0148 46.25 79.0148C45.82 78.9348 45.4 78.7848 44.92 78.4848C44.53 78.2448 44.03 78.0848 43.61 77.7448C43.24 77.4448 42.84 77.1248 42.46 76.7848C42.08 76.4448 41.81 76.0148 41.43 75.6848C41.05 75.3548 40.55 75.1748 40.17 74.8648C39.79 74.5548 39.54 74.0048 39.14 73.7348C38.92 73.5848 38.38 73.4148 37.82 72.9048C37.49 72.6048 37.02 72.3348 36.59 71.9348C36.24 71.6048 36.02 71.0748 35.61 70.6948C35.25 70.3548 34.7 70.1848 34.3 69.8148C33.93 69.4748 33.58 69.0848 33.19 68.7148C32.82 68.3648 32.41 68.0448 32.02 67.6848C31.63 67.3248 31.43 66.8048 31.04 66.4348C30.65 66.0648 30.35 65.6548 29.96 65.2948C29.57 64.9348 29.02 64.7848 28.63 64.4248C28.24 64.0648 27.83 63.7548 27.45 63.3948C27.07 63.0348 26.66 62.7048 26.28 62.3548C25.9 62.0048 25.53 61.6248 25.14 61.2748C24.75 60.9248 24.47 60.4348 24.09 60.0948C23.71 59.7548 23.19 59.5248 22.8 59.1848C22.39 58.8348 21.95 58.5448 21.56 58.2248C21.14 57.8748 20.86 57.3948 20.47 57.0848C20.03 56.7348 19.54 56.5048 19.16 56.2248C18.77 55.8348 18.48 55.3648 18.11 54.9848C17.74 54.6048 17.27 54.2848 16.9 53.9048C16.53 53.5248 16.3 52.9748 15.93 52.5948C15.56 52.2148 15.14 51.8448 14.78 51.4648C14.42 51.0848 14.08 50.6348 13.72 50.2448C13.36 49.8548 12.88 49.5448 12.53 49.1448C12.18 48.7448 11.97 48.1948 11.63 47.7948C11.29 47.3948 10.79 47.0948 10.45 46.6848C10.11 46.2748 9.86997 45.7748 9.53997 45.3548C9.20997 44.9348 8.70997 44.6348 8.38997 44.2148C8.06997 43.7948 7.91997 43.2248 7.60997 42.7948C7.29997 42.3648 6.78997 42.0648 6.47997 41.6248C6.16997 41.1848 5.93997 40.6948 5.63997 40.2448C5.33997 39.7948 5.04997 39.3548 4.75997 38.8948C4.46997 38.4348 4.23997 37.9648 3.94997 37.5048C3.65997 37.0448 3.27997 36.6648 2.99997 36.1948C2.71997 35.7248 2.58997 35.2048 2.31997 34.7248C2.10997 34.2148 1.87996 33.7348 1.70996 33.2248C1.53996 32.7148 1.43997 32.1748 1.30997 31.6548C1.17997 31.1348 1.07996 30.5948 0.989963 30.0748C0.899963 29.5548 0.619965 29.0248 0.569965 28.4948C0.519965 27.9648 0.579965 27.4048 0.569965 26.8648C0.559965 26.3248 0.579968 25.7748 0.619968 25.2448C0.659968 24.7148 0.949972 24.2048 1.02997 23.6648C1.10997 23.1248 0.96997 22.5648 1.08997 22.0348C1.20997 21.5048 1.36997 20.9948 1.52997 20.4748C1.68997 19.9548 2.08997 19.5348 2.27997 19.0248C2.46997 18.5148 2.52997 17.9748 2.74997 17.4748C2.96997 16.9748 3.09997 16.4448 3.32997 15.9648C3.55997 15.4848 3.86998 15.0248 4.12998 14.5648C4.38998 14.1048 4.78997 13.7048 5.06997 13.2548C5.34997 12.8048 5.58997 12.3148 5.89997 11.8748C6.20997 11.4348 6.50997 10.9848 6.83997 10.5648C7.16997 10.1448 7.52998 9.73485 7.87998 9.33485C8.22998 8.93485 8.54997 8.48484 8.91997 8.10484C9.28997 7.72484 9.78998 7.45484 10.19 7.10484C10.59 6.75484 10.86 6.22485 11.28 5.90485C11.7 5.58485 12.15 5.26484 12.6 4.97484C13.05 4.68484 13.56 4.48484 14.03 4.21484C14.5 3.94484 15.05 3.87484 15.54 3.64484C16.03 3.41484 16.43 3.02484 16.94 2.82484C17.45 2.62484 17.94 2.44484 18.46 2.28484C18.98 2.12484 19.46 1.88484 19.99 1.75484C20.52 1.62484 21.07 1.70484 21.61 1.60484C22.15 1.50484 22.64 1.26484 23.18 1.19484C23.72 1.12484 24.25 1.07484 24.79 1.03484C25.33 0.994843 25.87 1.19484 26.41 1.18484C26.93 1.17484 27.47 0.934845 28 0.994845C28.53 1.05485 28.98 1.45484 29.5 1.57484C30.02 1.69484 30.53 1.73484 31.04 1.88484C31.55 2.03484 32.01 2.26484 32.51 2.45484C33.01 2.64484 33.49 2.84484 33.96 3.05484C34.43 3.26484 34.9 3.53484 35.36 3.77484C35.86 4.03484 36.34 4.30485 36.82 4.58485C37.3 4.86485 37.82 5.08484 38.28 5.39484C38.74 5.70484 39.34 5.83485 39.78 6.17485C40.22 6.51485 40.54 7.01484 40.97 7.37484C41.4 7.73484 41.77 8.14484 42.18 8.53484C42.59 8.92484 43.13 9.16485 43.51 9.56485C43.89 9.96484 44.2 10.4448 44.57 10.8748C44.94 11.3048 45.25 11.7448 45.6 12.1948C45.95 12.6448 46.23 13.1048 46.56 13.5648C46.89 14.0248 47.23 14.5748 47.54 15.0548L47.57 15.0448Z" fill="#082C4C"/>
</svg>
