<?xml version="1.0" standalone="no"?>
<!DOCTYPE svg PUBLIC "-//W3C//DTD SVG 20010904//EN"
 "http://www.w3.org/TR/2001/REC-SVG-20010904/DTD/svg10.dtd">
<svg version="1.0" xmlns="http://www.w3.org/2000/svg"
 width="260.000000pt" height="260.000000pt" viewBox="0 0 260.000000 260.000000"
 preserveAspectRatio="xMidYMid meet">
<metadata>
Created by potrace 1.14, written by Peter Selinger 2001-2017
</metadata>
<g transform="translate(0.000000,260.000000) scale(0.100000,-0.100000)"
fill="#000000" stroke="none">
<path d="M1179 2555 c-3 -2 -39 -9 -80 -15 -332 -47 -665 -259 -854 -544 -148
-225 -210 -434 -210 -706 1 -192 21 -296 92 -478 96 -247 323 -498 576 -636
180 -98 431 -154 647 -143 235 11 450 82 650 212 96 63 273 239 337 335 286
428 293 964 19 1399 -174 275 -510 501 -821 551 -38 6 -86 16 -106 21 -37 9
-242 13 -250 4z m221 -115 c124 -63 171 -211 104 -330 -81 -143 -264 -170
-379 -55 -83 83 -95 211 -28 307 28 42 94 86 146 99 43 10 114 1 157 -21z m-5
-504 c69 -32 134 -113 136 -167 0 -18 7 -9 25 31 32 70 66 107 129 136 117 55
245 11 309 -107 55 -99 30 -222 -58 -293 -46 -38 -85 -52 -169 -60 -68 -7
-108 -26 -155 -70 -69 -64 -66 -45 -72 -531 -5 -430 -5 -441 -27 -481 -57
-108 -176 -156 -298 -123 -54 15 -141 104 -151 153 -8 46 -20 46 -28 0 -10
-49 -97 -138 -151 -153 -122 -33 -242 16 -297 123 -27 52 -30 156 -5 202 47
90 111 131 225 146 41 5 91 17 112 28 41 21 95 78 113 119 8 18 13 162 17 461
5 422 6 436 27 475 63 118 201 166 318 111z"/>
</g>
</svg>
