<svg width="150" height="47" viewBox="0 0 150 47" fill="none" xmlns="http://www.w3.org/2000/svg">
<g clip-path="url(#clip0_70_342)">
<path d="M146.374 46.4746C146.242 45.754 146.393 45.0125 146.281 44.2933C146.169 43.5741 144.975 43.002 144.884 42.2742C144.793 41.5463 144.763 40.8126 144.702 40.0868C144.641 39.361 144.551 38.6232 144.51 37.8988C144.469 37.1743 145.232 36.4043 145.211 35.6812C145.19 34.9581 145.349 34.2372 145.349 33.5055C145.348 32.7738 145.547 32.0656 145.566 31.3452C145.584 30.6248 145.913 29.9254 145.951 29.2064C145.99 28.4874 144.703 27.6584 144.772 26.9414C144.841 26.2244 145.358 25.5378 145.438 24.8116C145.517 24.0853 145.913 23.4105 146.022 22.6963C146.131 21.982 145.526 21.1491 145.645 20.4255C145.764 19.7019 146.852 19.1744 146.992 18.4521C147.131 17.7299 147.288 17.039 147.446 16.338C147.603 15.6371 148.018 14.9937 148.196 14.2941C148.373 13.5945 148.413 12.8655 148.601 12.1666C148.788 11.4677 148.876 10.7621 149.084 10.0645L2.71381 0.0850603C2.84533 0.805614 2.69481 1.54713 2.80639 2.26633C2.91798 2.98553 4.11199 3.55765 4.20294 4.28548C4.29388 5.0133 4.32429 5.74704 4.38531 6.47284C4.44633 7.19863 4.5366 7.93643 4.57766 8.66087C4.61872 9.38531 3.85484 10.1554 3.87596 10.8785C3.89707 11.6016 3.73792 12.3224 3.7384 13.0541C3.73888 13.7859 3.54048 14.4941 3.52168 15.2144C3.50288 15.9348 3.17481 16.6342 3.13605 17.3532C3.09729 18.0723 4.38414 18.9013 4.31545 19.6183C4.24677 20.3352 3.72911 21.0218 3.64977 21.7481C3.57044 22.4744 3.17385 23.1491 3.06526 23.8634C2.95667 24.5777 3.56169 25.4105 3.44244 26.1341C3.32319 26.8577 2.235 27.3853 2.0958 28.1075C1.9566 28.8297 1.79946 29.5207 1.64166 30.2216C1.48386 30.9225 1.06936 31.5659 0.891602 32.2655C0.713841 32.9651 0.67442 33.6941 0.486688 34.393C0.298955 35.0919 0.200336 35.8069 -0.00735476 36.5044L146.363 46.4839L146.374 46.4746Z" fill="#FDC0C5"/>
<path d="M115.135 30.4152C115.199 30.3915 115.255 30.3463 115.308 30.2904C115.644 29.886 115.647 29.9941 116.025 29.5377C116.226 29.2929 116.429 28.9867 116.665 28.7047C116.9 28.4226 117.092 28.1204 117.304 27.8716C117.634 27.4818 117.919 27.1692 118.006 27.0761C118.133 27.0899 118.554 27.1768 119.054 27.2466C119.373 27.2864 119.726 27.3863 120.085 27.4356C120.444 27.4849 120.802 27.5342 121.114 27.5886C121.705 27.6734 121.626 27.6905 122.141 27.767C122.192 27.7725 122.239 27.7673 122.281 27.7515C122.399 27.7078 122.493 27.6001 122.561 27.4896C122.647 27.3604 122.732 27.1953 122.665 27.0496L122.541 27.0105C122.27 26.5399 122.319 26.6068 122.008 26.0653C121.84 25.7752 121.716 25.4078 121.525 25.0896C121.33 24.7607 121.117 24.4504 120.949 24.1602C120.681 23.7003 120.463 23.3433 120.394 23.223C120.448 23.1058 120.623 22.7248 120.823 22.2491C120.954 21.9454 121.068 21.5988 121.212 21.2658C121.356 20.9327 121.555 20.6158 121.685 20.312C121.93 19.7592 121.907 19.8285 122.118 19.3489C122.172 19.2317 122.159 19.0661 122.112 18.9379L122.056 18.7883C121.929 18.641 121.719 18.6336 121.551 18.6718C121.046 18.7861 121.112 18.7009 120.524 18.8216C120.22 18.886 119.878 19.0129 119.531 19.0931C119.18 19.1626 118.832 19.2428 118.517 19.311C118.023 19.4214 117.616 19.5361 117.494 19.569C117.397 19.4713 117.146 19.0901 116.77 18.7312C116.539 18.5009 116.225 18.277 115.96 18.0226C115.691 17.7575 115.416 17.507 115.185 17.2767C114.744 16.8442 114.783 16.9151 114.403 16.5455C114.268 16.4129 114.091 16.2962 113.92 16.3597L113.94 16.4131C113.769 16.4766 113.716 16.6298 113.701 16.8179C113.658 17.3568 113.677 17.2768 113.625 17.8917C113.6 18.2172 113.483 18.5891 113.452 18.9652C113.421 19.3414 113.463 19.7152 113.442 20.0513C113.405 20.5756 113.296 20.9688 113.282 21.0955C113.172 21.1605 112.893 21.4224 112.454 21.6824C112.171 21.8362 111.821 21.9417 111.509 22.1181C111.198 22.2945 110.925 22.5417 110.656 22.7022C110.142 22.99 110.179 22.8914 109.73 23.1553C109.571 23.2509 109.501 23.4227 109.511 23.6136L109.53 23.7644C109.578 23.8927 109.657 24.009 109.774 24.0628C110.258 24.2847 110.185 24.251 110.738 24.4958C111.031 24.6302 111.368 24.7848 111.705 24.9395C112.031 25.098 112.375 25.238 112.668 25.3724C113.137 25.5875 113.472 25.8036 113.579 25.8613C113.605 25.9975 113.691 26.3914 113.798 26.9108C113.87 27.2366 113.969 27.6012 114.047 27.9737C114.124 28.3463 114.144 28.728 114.202 29.0471C114.33 29.6559 114.392 29.5601 114.493 30.0941L114.521 30.169C114.566 30.3226 114.684 30.4123 114.833 30.4542C114.928 30.4799 115.025 30.4803 115.1 30.4525" fill="#FFE7E9"/>
<path d="M43.135 33.4152C43.1991 33.3915 43.2553 33.3463 43.3075 33.2904C43.6438 32.886 43.6475 32.9941 44.0253 32.5377C44.2263 32.2929 44.4288 31.9867 44.6647 31.7047C44.9005 31.4226 45.0923 31.1204 45.304 30.8716C45.6336 30.4818 45.9189 30.1692 46.0059 30.0761C46.1326 30.0899 46.554 30.1768 47.0541 30.2466C47.3728 30.2864 47.7261 30.3863 48.0848 30.4356C48.4436 30.4849 48.8023 30.5342 49.1144 30.5886C49.7052 30.6734 49.6264 30.6905 50.1412 30.767C50.1918 30.7725 50.2386 30.7673 50.2813 30.7515C50.3989 30.7078 50.4926 30.6001 50.5611 30.4896C50.6469 30.3604 50.7316 30.1953 50.6653 30.0496L50.5414 30.0105C50.2695 29.5399 50.3186 29.6068 50.0083 29.0653C49.8398 28.7752 49.7157 28.4078 49.5247 28.0896C49.3297 27.7607 49.1172 27.4504 48.9488 27.1602C48.6809 26.7003 48.4633 26.3433 48.3943 26.223C48.4481 26.1058 48.6229 25.7248 48.8233 25.2491C48.9538 24.9454 49.0684 24.5988 49.2123 24.2658C49.3563 23.9327 49.5548 23.6158 49.6853 23.312C49.9301 22.7592 49.9071 22.8285 50.1183 22.3489C50.1721 22.2317 50.1593 22.0661 50.1117 21.9379L50.0562 21.7883C49.9286 21.641 49.7192 21.6336 49.5509 21.6718C49.0461 21.7861 49.1118 21.7009 48.5243 21.8216C48.2199 21.886 47.8779 22.0129 47.5307 22.0931C47.1795 22.1626 46.8323 22.2428 46.5172 22.311C46.0231 22.4214 45.6158 22.5361 45.4942 22.569C45.3972 22.4713 45.1463 22.0901 44.7699 21.7312C44.5386 21.5009 44.2245 21.277 43.9598 21.0226C43.6912 20.7575 43.4159 20.507 43.1845 20.2767C42.7444 19.8442 42.7828 19.9151 42.4025 19.5455C42.2682 19.4129 42.0911 19.2962 41.9201 19.3597L41.94 19.4131C41.769 19.4766 41.7164 19.6298 41.701 19.8179C41.6578 20.3568 41.6768 20.2768 41.6253 20.8917C41.6001 21.2172 41.4827 21.5891 41.4521 21.9652C41.4214 22.3414 41.4628 22.7152 41.4417 23.0513C41.4052 23.5756 41.2957 23.9688 41.2819 24.0955C41.1723 24.1605 40.8925 24.4224 40.454 24.6824C40.1706 24.8362 39.8206 24.9417 39.5091 25.1181C39.1976 25.2945 38.9246 25.5417 38.6558 25.7022C38.1424 25.99 38.1788 25.8914 37.7296 26.1553C37.5705 26.2509 37.5005 26.4227 37.5105 26.6136L37.53 26.7644C37.5776 26.8927 37.6572 27.009 37.7745 27.0628C38.258 27.2847 38.1848 27.251 38.7377 27.4958C39.0307 27.6302 39.3678 27.7848 39.7048 27.9395C40.0312 28.098 40.3749 28.238 40.668 28.3724C41.1369 28.5875 41.4724 28.8036 41.579 28.8613C41.6052 28.9975 41.6905 29.3914 41.7982 29.9108C41.8704 30.2366 41.9692 30.6012 42.0466 30.9737C42.1241 31.3463 42.1441 31.728 42.2017 32.0471C42.3304 32.6559 42.3921 32.5601 42.493 33.0941L42.5207 33.169C42.5656 33.3226 42.684 33.4123 42.8333 33.4542C42.9279 33.4799 43.0253 33.4803 43.1002 33.4525" fill="#FFE7E9"/>
<path d="M95.4032 35.932L95.4784 35.8068C95.5289 35.4841 95.6447 35.1736 95.7458 34.8564C95.847 34.5392 95.9375 34.226 96.064 33.9115C96.1945 33.6078 96.321 33.2933 96.4661 32.9962C96.622 32.6952 96.7524 32.3915 96.9083 32.0905C97.0131 31.8814 97.1139 31.6615 97.2227 31.4631C97.3718 31.1768 97.5355 30.8971 97.666 30.5934C97.8004 30.3003 97.8909 29.987 98.0067 29.6765C98.1119 29.37 98.2024 29.0568 98.2675 28.7408C98.3433 28.4208 98.4124 28.1155 98.4229 27.7833C98.4374 27.4618 98.4051 27.1454 98.3436 26.8157C98.2808 26.4498 98.1725 26.1252 98.0068 25.8098C97.8478 25.4797 97.717 25.127 97.4777 24.8753C97.2237 24.6169 96.9203 24.389 96.6046 24.2264C96.3515 24.1015 96.0542 24.0538 95.7675 24.0021C95.4915 23.9464 95.1992 23.9454 94.9189 23.9764C94.6347 23.9968 94.3278 23.9891 94.0713 24.0842L94.0606 24.0882C93.7934 24.1874 93.5579 24.372 93.3399 24.538C93.1325 24.7001 92.9636 24.933 92.7946 25.1659C92.6257 25.3989 92.4568 25.6318 92.3239 25.8635C92.1506 26.1831 92.0202 26.4869 91.9569 26.6441C91.8064 26.5662 91.5027 26.4357 91.1736 26.3025C90.9217 26.2135 90.6634 26.0418 90.3874 25.9862C90.1074 25.9198 89.803 25.9842 89.5401 25.9966C89.2665 26.013 88.9822 26.0333 88.7257 26.1285L88.715 26.1325C88.4478 26.2316 88.17 26.3347 87.9372 26.494C87.7085 26.664 87.5328 26.9116 87.3599 27.1338C87.187 27.3561 86.9781 27.5795 86.8718 27.85C86.7385 28.1791 86.7546 28.5501 86.7307 28.9116C86.7134 29.2585 86.7469 29.6108 86.8418 29.9648C86.9326 30.308 87.0342 30.6472 87.2106 30.9587C87.3751 31.2382 87.5435 31.5283 87.7642 31.7625C87.9849 31.9968 88.2724 32.182 88.5279 32.379C88.7834 32.576 89.0738 32.7358 89.3534 32.8995C89.633 33.0633 89.8897 33.2964 90.1828 33.4308C90.4799 33.5759 90.8105 33.6478 91.0996 33.7716C91.3155 33.8617 91.5515 33.9079 91.778 33.9941C92.0885 34.1099 92.3922 34.2404 92.7067 34.3669C93.0105 34.4974 93.3115 34.6532 93.6085 34.7983C93.9056 34.9434 94.2307 35.066 94.5036 35.2444C94.7872 35.4188 95.0681 35.6186 95.3208 35.841L95.4139 35.928" fill="#FFE7E9"/>
<path d="M23.4032 22.932L23.4783 22.8068C23.5288 22.4841 23.6446 22.1736 23.7458 21.8564C23.847 21.5392 23.9375 21.226 24.064 20.9115C24.1945 20.6078 24.321 20.2933 24.4661 19.9962C24.6219 19.6952 24.7524 19.3915 24.9082 19.0905C25.013 18.8814 25.1139 18.6615 25.2226 18.4631C25.3717 18.1768 25.5355 17.8971 25.666 17.5934C25.8004 17.3003 25.8909 16.987 26.0067 16.6765C26.1118 16.37 26.2023 16.0568 26.2675 15.7408C26.3433 15.4208 26.4124 15.1155 26.4229 14.7833C26.4374 14.4618 26.4051 14.1454 26.3435 13.8157C26.2807 13.4498 26.1725 13.1252 26.0068 12.8098C25.8478 12.4797 25.7169 12.127 25.4776 11.8753C25.2237 11.6169 24.9202 11.389 24.6046 11.2264C24.3515 11.1015 24.0541 11.0538 23.7674 11.0021C23.4914 10.9464 23.1992 10.9454 22.9189 10.9764C22.6346 10.9968 22.3278 10.9891 22.0713 11.0842L22.0606 11.0882C21.7934 11.1874 21.5579 11.372 21.3398 11.538C21.1325 11.7001 20.9635 11.933 20.7946 12.1659C20.6257 12.3989 20.4567 12.6318 20.3238 12.8635C20.1506 13.1831 20.0201 13.4869 19.9569 13.6441C19.8064 13.5662 19.5026 13.4357 19.1735 13.3025C18.9216 13.2135 18.6634 13.0418 18.3874 12.9862C18.1074 12.9198 17.803 12.9842 17.5401 12.9966C17.2665 13.013 16.9822 13.0333 16.7257 13.1285L16.715 13.1325C16.4478 13.2316 16.1699 13.3347 15.9372 13.494C15.7084 13.664 15.5328 13.9116 15.3599 14.1338C15.187 14.3561 14.9781 14.5795 14.8717 14.85C14.7385 15.1791 14.7546 15.5501 14.7306 15.9116C14.7134 16.2585 14.7469 16.6108 14.8417 16.9648C14.9326 17.308 15.0342 17.6472 15.2105 17.9587C15.375 18.2382 15.5435 18.5283 15.7642 18.7625C15.9848 18.9968 16.2724 19.182 16.5279 19.379C16.7834 19.576 17.0737 19.7358 17.3534 19.8995C17.633 20.0633 17.8897 20.2964 18.1828 20.4308C18.4798 20.5759 18.8105 20.6478 19.0996 20.7716C19.3154 20.8617 19.5514 20.9079 19.778 20.9941C20.0885 21.1099 20.3922 21.2404 20.7067 21.3669C21.0104 21.4974 21.3114 21.6532 21.6085 21.7983C21.9055 21.9434 22.2307 22.066 22.5036 22.2444C22.7872 22.4188 23.068 22.6186 23.3208 22.841L23.4139 22.928" fill="#FFE7E9"/>
<path d="M69.6746 26.5877C69.6746 26.5877 69.7495 26.5599 69.7922 26.544C70.0796 26.4009 70.3258 26.2123 70.5692 26.0491C70.8446 25.8739 71.1332 25.7668 71.358 25.5861C71.6109 25.3829 71.8345 25.1661 72.0367 24.9574C72.263 24.7153 72.3535 24.402 72.4971 24.1664C72.6715 23.8828 72.8471 23.6352 72.9468 23.3794C73.0693 23.0543 73.2184 22.7679 73.2567 22.5105C73.3466 21.9664 73.3277 22.0464 73.2945 21.5966C73.2943 21.2684 73.1726 20.9731 73.1483 20.6782C73.1227 20.3472 73.0877 20.0562 73.0313 19.7731C72.963 19.458 72.9842 19.1218 72.8851 18.8546C72.7701 18.5446 72.5989 18.2799 72.457 18.0285C72.3032 17.7451 72.132 17.4804 71.9513 17.2556C71.7373 17.0067 71.4965 16.8163 71.2703 16.6328C71.0069 16.4144 70.7446 16.232 70.5169 16.1098C70.0281 15.8412 70.1188 15.8562 69.6709 15.7306C69.2911 15.5918 68.9339 15.4812 68.6191 15.4521C68.2137 15.408 67.8479 15.4707 67.5327 15.539C67.3498 15.5704 67.1748 15.6232 67.0145 15.6827C66.8328 15.7501 66.6591 15.8389 66.5213 15.9265C66.3836 16.0141 66.2846 16.0751 66.2071 16.1282C66.2269 16.1816 66.276 16.2485 66.3117 16.3447L65.7644 16.8031C65.7644 16.8031 65.7367 16.7283 65.718 16.7109C65.4072 16.6925 65.1086 16.6087 64.843 16.6465C64.7602 16.6529 64.6747 16.6846 64.5999 16.7124C64.3862 16.7917 64.1989 16.9098 64.0105 16.9919C63.7259 17.1096 63.452 17.2234 63.2232 17.3934C62.9771 17.582 62.7495 17.7881 62.5727 17.9996C62.361 18.2484 62.1374 18.4651 62.0045 18.6968C61.7347 19.1495 61.8456 19.1205 61.7227 19.5431C61.6322 19.8563 61.5378 20.1589 61.5047 20.463C61.4796 20.7885 61.5332 21.0969 61.5655 21.4132C61.6017 21.7403 61.6339 22.0566 61.7196 22.3531C61.8093 22.6603 61.9136 22.9742 62.0381 23.2442C62.1745 23.5462 62.2895 23.8561 62.4314 24.1075C62.6038 24.4083 62.8498 24.6453 63.0159 24.8634C63.3559 25.3209 63.3202 25.2247 63.6419 25.5674C63.8491 25.831 64.0417 26.0878 64.2892 26.2634C64.5515 26.4458 64.8446 26.5803 65.1404 26.6894C65.4362 26.7985 65.7455 26.8783 66.0575 26.9327C66.3802 26.9832 66.6938 26.9763 67.0114 26.9801C67.3396 26.9799 67.6572 26.9836 67.9589 26.9447C68.3073 26.9005 68.6065 26.7894 68.8749 26.7263C69.369 26.616 69.3754 26.6987 69.6853 26.5837" fill="#FFE7E9"/>
<path d="M65.7751 16.7991L66.3225 16.3407C66.2868 16.2445 66.2483 16.1736 66.2178 16.1241C66.1223 15.965 66.0597 15.9275 65.9019 15.6334C65.7787 15.3994 65.6435 15.1334 65.4881 14.9114C65.2837 14.6225 65.0642 14.4243 64.8975 14.401C64.6975 14.3536 64.5989 14.3173 64.5027 14.353C64.4386 14.3768 64.3863 14.4326 64.3139 14.5324L64.2391 14.5602C64.0778 14.9119 64.2488 14.8484 64.5022 14.876L64.6551 15.0259C64.812 15.1866 64.8682 15.1414 64.9863 15.3286C65.1655 15.6148 65.0839 15.6572 65.2457 15.962C65.4538 16.359 65.5472 16.3487 65.7355 16.6922C65.7474 16.7243 65.7593 16.7563 65.7819 16.7844" fill="#FFE7E9"/>
<path d="M63.9022 16.7646C63.9877 16.7328 64.0692 16.6904 64.1468 16.6373C64.3823 16.4527 64.5741 16.1505 64.7089 15.76L64.7398 15.712C64.3927 15.3666 64.4125 15.42 63.9131 15.1554C63.6561 15.0198 63.3187 14.9626 62.9667 14.8986C62.6653 14.8402 62.3478 14.8365 62.0033 14.8913C61.7737 14.9279 61.5187 14.9617 61.2622 15.0569C61.1981 15.0807 61.1233 15.1084 61.0524 15.1468C60.7864 15.282 60.5015 15.4972 60.2284 15.7444C60.3214 16.2571 60.6372 15.994 61.1553 16.276C61.4416 16.4251 61.7478 16.6276 62.0836 16.7462C62.4195 16.8648 62.7837 16.8634 63.1266 16.8699C63.3828 16.8722 63.6497 16.8704 63.8848 16.7832" fill="#FFE7E9"/>
</g>
<defs>
<clipPath id="clip0_70_342">
<rect width="146.95" height="36.56" fill="white" transform="matrix(-0.997707 -0.0676817 -0.0676817 0.997707 149.087 10.0146)"/>
</clipPath>
</defs>
</svg>
