<svg width="150" height="47" viewBox="0 0 150 47" fill="none" xmlns="http://www.w3.org/2000/svg">
<g clip-path="url(#clip0_70_358)">
<path d="M2.71389 46.4746C2.84543 45.754 2.6949 45.0125 2.80647 44.2933C2.91805 43.5741 4.11207 43.002 4.20302 42.2742C4.29397 41.5463 4.32437 40.8126 4.38539 40.0868C4.44641 39.361 4.53668 38.6232 4.57774 37.8988C4.6188 37.1743 3.85493 36.4043 3.87604 35.6812C3.89715 34.9581 3.738 34.2372 3.73847 33.5055C3.73895 32.7738 3.54056 32.0656 3.52176 31.3452C3.50296 30.6248 3.17488 29.9254 3.13612 29.2064C3.09737 28.4874 4.38421 27.6584 4.31553 26.9414C4.24684 26.2244 3.72919 25.5378 3.64985 24.8116C3.57051 24.0853 3.17394 23.4105 3.06534 22.6963C2.95675 21.982 3.56177 21.1491 3.44252 20.4255C3.32327 19.7019 2.23507 19.1744 2.09587 18.4521C1.95667 17.7299 1.79954 17.039 1.64174 16.338C1.48394 15.6371 1.06944 14.9937 0.891686 14.2941C0.71393 13.5945 0.6745 12.8655 0.486767 12.1666C0.299034 11.4677 0.211071 10.7621 0.00338409 10.0645L146.374 0.0850603C146.242 0.805614 146.393 1.54713 146.281 2.26633C146.169 2.98553 144.975 3.55765 144.884 4.28548C144.794 5.0133 144.763 5.74704 144.702 6.47284C144.641 7.19863 144.551 7.93643 144.51 8.66087C144.469 9.38531 145.233 10.1554 145.211 10.8785C145.19 11.6016 145.349 12.3224 145.349 13.0541C145.349 13.7859 145.547 14.4941 145.566 15.2144C145.585 15.9348 145.913 16.6342 145.951 17.3532C145.99 18.0723 144.703 18.9013 144.772 19.6183C144.841 20.3352 145.358 21.0218 145.438 21.7481C145.517 22.4744 145.914 23.1491 146.022 23.8634C146.131 24.5777 145.526 25.4105 145.645 26.1341C145.764 26.8577 146.852 27.3853 146.992 28.1075C147.131 28.8297 147.288 29.5207 147.446 30.2216C147.604 30.9225 148.018 31.5659 148.196 32.2655C148.374 32.9651 148.413 33.6941 148.601 34.393C148.788 35.0919 148.887 35.8069 149.095 36.5044L2.72455 46.4839L2.71389 46.4746Z" fill="#FDC0C5"/>
<path d="M33.9524 30.4152C33.8883 30.3915 33.8321 30.3463 33.7798 30.2904C33.4435 29.886 33.4399 29.9941 33.0621 29.5377C32.8611 29.2929 32.6585 28.9867 32.4227 28.7047C32.1869 28.4226 31.9951 28.1204 31.7834 27.8716C31.4538 27.4818 31.1685 27.1692 31.0815 27.0761C30.9547 27.0899 30.5334 27.1768 30.0333 27.2466C29.7145 27.2864 29.3613 27.3863 29.0025 27.4356C28.6438 27.4849 28.285 27.5342 27.973 27.5886C27.3822 27.6734 27.461 27.6905 26.9462 27.767C26.8955 27.7725 26.8488 27.7673 26.8061 27.7515C26.6885 27.7078 26.5947 27.6001 26.5263 27.4896C26.4405 27.3604 26.3558 27.1953 26.422 27.0496L26.546 27.0105C26.8179 26.5399 26.7687 26.6068 27.0791 26.0653C27.2475 25.7752 27.3717 25.4078 27.5627 25.0896C27.7577 24.7607 27.9701 24.4504 28.1386 24.1602C28.4065 23.7003 28.6241 23.3433 28.6931 23.223C28.6393 23.1058 28.4645 22.7248 28.2641 22.2491C28.1336 21.9454 28.0189 21.5988 27.875 21.2658C27.7311 20.9327 27.5325 20.6158 27.4021 20.312C27.1573 19.7592 27.1802 19.8285 26.9691 19.3489C26.9153 19.2317 26.9281 19.0661 26.9757 18.9379L27.0312 18.7883C27.1588 18.641 27.3682 18.6336 27.5365 18.6718C28.0412 18.7861 27.9756 18.7009 28.5631 18.8216C28.8675 18.886 29.2095 19.0129 29.5567 19.0931C29.9079 19.1626 30.2551 19.2428 30.5702 19.311C31.0643 19.4214 31.4716 19.5361 31.5931 19.569C31.6902 19.4713 31.9411 19.0901 32.3174 18.7312C32.5488 18.5009 32.8629 18.277 33.1275 18.0226C33.3961 17.7575 33.6715 17.507 33.9029 17.2767C34.343 16.8442 34.3046 16.9151 34.6849 16.5455C34.8192 16.4129 34.9962 16.2962 35.1672 16.3597L35.1474 16.4131C35.3184 16.4766 35.371 16.6298 35.3863 16.8179C35.4296 17.3568 35.4106 17.2768 35.4621 17.8917C35.4872 18.2172 35.6046 18.5891 35.6353 18.9652C35.6659 19.3414 35.6245 19.7152 35.6457 20.0513C35.6822 20.5756 35.7917 20.9688 35.8054 21.0955C35.9151 21.1605 36.1949 21.4224 36.6334 21.6824C36.9168 21.8362 37.2668 21.9417 37.5783 22.1181C37.8898 22.2945 38.1628 22.5417 38.4316 22.7022C38.9449 22.99 38.9086 22.8914 39.3578 23.1553C39.5169 23.2509 39.5869 23.4227 39.5769 23.6136L39.5574 23.7644C39.5098 23.8927 39.4301 24.009 39.3129 24.0628C38.8293 24.2847 38.9026 24.251 38.3497 24.4958C38.0566 24.6302 37.7196 24.7848 37.3826 24.9395C37.0562 25.098 36.7125 25.238 36.4194 25.3724C35.9505 25.5875 35.6149 25.8036 35.5084 25.8613C35.4822 25.9975 35.3968 26.3914 35.2892 26.9108C35.217 27.2366 35.1182 27.6012 35.0407 27.9737C34.9633 28.3463 34.9433 28.728 34.8857 29.0471C34.757 29.6559 34.6953 29.5601 34.5944 30.0941L34.5667 30.169C34.5218 30.3226 34.4034 30.4123 34.2541 30.4542C34.1594 30.4799 34.062 30.4803 33.9872 30.4525" fill="#FFE7E9"/>
<path d="M105.952 33.4152C105.888 33.3915 105.832 33.3463 105.78 33.2904C105.444 32.886 105.44 32.9941 105.062 32.5377C104.861 32.2929 104.659 31.9867 104.423 31.7047C104.187 31.4226 103.995 31.1204 103.783 30.8716C103.454 30.4818 103.169 30.1692 103.081 30.0761C102.955 30.0899 102.533 30.1768 102.033 30.2466C101.715 30.2864 101.361 30.3863 101.003 30.4356C100.644 30.4849 100.285 30.5342 99.973 30.5886C99.3822 30.6734 99.461 30.6905 98.9462 30.767C98.8955 30.7725 98.8488 30.7673 98.8061 30.7515C98.6885 30.7078 98.5947 30.6001 98.5263 30.4896C98.4405 30.3604 98.3558 30.1953 98.422 30.0496L98.546 30.0105C98.8179 29.5399 98.7688 29.6068 99.0791 29.0653C99.2476 28.7752 99.3717 28.4078 99.5627 28.0896C99.7577 27.7607 99.9701 27.4504 100.139 27.1602C100.407 26.7003 100.624 26.3433 100.693 26.223C100.639 26.1058 100.465 25.7248 100.264 25.2491C100.134 24.9454 100.019 24.5988 99.875 24.2658C99.7311 23.9327 99.5326 23.6158 99.4021 23.312C99.1573 22.7592 99.1802 22.8285 98.9691 22.3489C98.9153 22.2317 98.9281 22.0661 98.9757 21.9379L99.0312 21.7883C99.1588 21.641 99.3682 21.6336 99.5365 21.6718C100.041 21.7861 99.9756 21.7009 100.563 21.8216C100.868 21.886 101.21 22.0129 101.557 22.0931C101.908 22.1626 102.255 22.2428 102.57 22.311C103.064 22.4214 103.472 22.5361 103.593 22.569C103.69 22.4713 103.941 22.0901 104.317 21.7312C104.549 21.5009 104.863 21.277 105.128 21.0226C105.396 20.7575 105.671 20.507 105.903 20.2767C106.343 19.8442 106.305 19.9151 106.685 19.5455C106.819 19.4129 106.996 19.2962 107.167 19.3597L107.147 19.4131C107.318 19.4766 107.371 19.6298 107.386 19.8179C107.43 20.3568 107.411 20.2768 107.462 20.8917C107.487 21.2172 107.605 21.5891 107.635 21.9652C107.666 22.3414 107.625 22.7152 107.646 23.0513C107.682 23.5756 107.792 23.9688 107.805 24.0955C107.915 24.1605 108.195 24.4224 108.633 24.6824C108.917 24.8362 109.267 24.9417 109.578 25.1181C109.89 25.2945 110.163 25.5417 110.432 25.7022C110.945 25.99 110.909 25.8914 111.358 26.1553C111.517 26.2509 111.587 26.4227 111.577 26.6136L111.557 26.7644C111.51 26.8927 111.43 27.009 111.313 27.0628C110.829 27.2847 110.903 27.251 110.35 27.4958C110.057 27.6302 109.72 27.7848 109.383 27.9395C109.056 28.098 108.712 28.238 108.419 28.3724C107.95 28.5875 107.615 28.8036 107.508 28.8613C107.482 28.9975 107.397 29.3914 107.289 29.9108C107.217 30.2366 107.118 30.6012 107.041 30.9737C106.963 31.3463 106.943 31.728 106.886 32.0471C106.757 32.6559 106.695 32.5601 106.594 33.0941L106.567 33.169C106.522 33.3226 106.403 33.4123 106.254 33.4542C106.159 33.4799 106.062 33.4803 105.987 33.4525" fill="#FFE7E9"/>
<path d="M53.6842 35.932L53.609 35.8068C53.5585 35.4841 53.4427 35.1736 53.3416 34.8564C53.2404 34.5392 53.1499 34.226 53.0234 33.9115C52.8929 33.6078 52.7664 33.2933 52.6213 32.9962C52.4654 32.6952 52.335 32.3915 52.1791 32.0905C52.0743 31.8814 51.9735 31.6615 51.8647 31.4631C51.7156 31.1768 51.5519 30.8971 51.4214 30.5934C51.287 30.3003 51.1965 29.987 51.0807 29.6765C50.9755 29.37 50.885 29.0568 50.8199 28.7408C50.7441 28.4208 50.675 28.1155 50.6645 27.7833C50.65 27.4618 50.6823 27.1454 50.7438 26.8157C50.8066 26.4498 50.9149 26.1252 51.0806 25.8098C51.2396 25.4797 51.3704 25.127 51.6097 24.8753C51.8637 24.6169 52.1671 24.389 52.4828 24.2264C52.7359 24.1015 53.0332 24.0538 53.3199 24.0021C53.5959 23.9464 53.8882 23.9454 54.1685 23.9764C54.4527 23.9968 54.7596 23.9891 55.0161 24.0842L55.0268 24.0882C55.294 24.1874 55.5295 24.372 55.7475 24.538C55.9549 24.7001 56.1238 24.933 56.2928 25.1659C56.4617 25.3989 56.6306 25.6318 56.7635 25.8635C56.9368 26.1831 57.0672 26.4869 57.1305 26.6441C57.281 26.5662 57.5847 26.4357 57.9138 26.3025C58.1657 26.2135 58.424 26.0418 58.7 25.9862C58.98 25.9198 59.2844 25.9842 59.5473 25.9966C59.8209 26.013 60.1052 26.0333 60.3617 26.1285L60.3724 26.1325C60.6396 26.2316 60.9174 26.3347 61.1502 26.494C61.3789 26.664 61.5546 26.9116 61.7275 27.1338C61.9004 27.3561 62.1093 27.5795 62.2156 27.85C62.3489 28.1791 62.3328 28.5501 62.3567 28.9116C62.374 29.2585 62.3405 29.6108 62.2456 29.9648C62.1548 30.308 62.0532 30.6472 61.8768 30.9587C61.7123 31.2382 61.5439 31.5283 61.3232 31.7625C61.1025 31.9968 60.815 32.182 60.5595 32.379C60.304 32.576 60.0136 32.7358 59.734 32.8995C59.4544 33.0633 59.1977 33.2964 58.9046 33.4308C58.6075 33.5759 58.2769 33.6478 57.9878 33.7716C57.7719 33.8617 57.5359 33.9079 57.3094 33.9941C56.9989 34.1099 56.6952 34.2404 56.3807 34.3669C56.0769 34.4974 55.7759 34.6532 55.4789 34.7983C55.1818 34.9434 54.8567 35.066 54.5838 35.2444C54.3002 35.4188 54.0193 35.6186 53.7666 35.841L53.6735 35.928" fill="#FFE7E9"/>
<path d="M125.684 22.932L125.609 22.8068C125.559 22.4841 125.443 22.1736 125.342 21.8564C125.24 21.5392 125.15 21.226 125.023 20.9115C124.893 20.6078 124.766 20.2933 124.621 19.9962C124.465 19.6952 124.335 19.3915 124.179 19.0905C124.074 18.8814 123.974 18.6615 123.865 18.4631C123.716 18.1768 123.552 17.8971 123.421 17.5934C123.287 17.3003 123.197 16.987 123.081 16.6765C122.976 16.37 122.885 16.0568 122.82 15.7408C122.744 15.4208 122.675 15.1155 122.665 14.7833C122.65 14.4618 122.682 14.1454 122.744 13.8157C122.807 13.4498 122.915 13.1252 123.081 12.8098C123.24 12.4797 123.37 12.127 123.61 11.8753C123.864 11.6169 124.167 11.389 124.483 11.2264C124.736 11.1015 125.033 11.0538 125.32 11.0021C125.596 10.9464 125.888 10.9454 126.168 10.9764C126.453 10.9968 126.76 10.9891 127.016 11.0842L127.027 11.0882C127.294 11.1874 127.53 11.372 127.748 11.538C127.955 11.7001 128.124 11.933 128.293 12.1659C128.462 12.3989 128.631 12.6318 128.764 12.8635C128.937 13.1831 129.067 13.4869 129.131 13.6441C129.281 13.5662 129.585 13.4357 129.914 13.3025C130.166 13.2135 130.424 13.0418 130.7 12.9862C130.98 12.9198 131.284 12.9842 131.547 12.9966C131.821 13.013 132.105 13.0333 132.362 13.1285L132.372 13.1325C132.64 13.2316 132.917 13.3347 133.15 13.494C133.379 13.664 133.555 13.9116 133.727 14.1338C133.9 14.3561 134.109 14.5795 134.216 14.85C134.349 15.1791 134.333 15.5501 134.357 15.9116C134.374 16.2585 134.341 16.6108 134.246 16.9648C134.155 17.308 134.053 17.6472 133.877 17.9587C133.712 18.2382 133.544 18.5283 133.323 18.7625C133.103 18.9968 132.815 19.182 132.559 19.379C132.304 19.576 132.014 19.7358 131.734 19.8995C131.454 20.0633 131.198 20.2964 130.905 20.4308C130.608 20.5759 130.277 20.6478 129.988 20.7716C129.772 20.8617 129.536 20.9079 129.309 20.9941C128.999 21.1099 128.695 21.2404 128.381 21.3669C128.077 21.4974 127.776 21.6532 127.479 21.7983C127.182 21.9434 126.857 22.066 126.584 22.2444C126.3 22.4188 126.019 22.6186 125.767 22.841L125.674 22.928" fill="#FFE7E9"/>
<path d="M79.4127 26.5877C79.4127 26.5877 79.3379 26.5599 79.2952 26.544C79.0078 26.4009 78.7616 26.2123 78.5182 26.0491C78.2428 25.8739 77.9542 25.7668 77.7294 25.5861C77.4765 25.3829 77.2529 25.1661 77.0507 24.9574C76.8244 24.7153 76.7339 24.402 76.5903 24.1664C76.4159 23.8828 76.2402 23.6352 76.1406 23.3794C76.0181 23.0543 75.869 22.7679 75.8307 22.5105C75.7408 21.9664 75.7597 22.0464 75.7929 21.5966C75.7931 21.2684 75.9148 20.9731 75.9391 20.6782C75.9647 20.3472 75.9997 20.0562 76.0561 19.7731C76.1243 19.458 76.1032 19.1218 76.2023 18.8546C76.3173 18.5446 76.4885 18.2799 76.6304 18.0285C76.7842 17.7451 76.9554 17.4804 77.1361 17.2556C77.3501 17.0067 77.5909 16.8163 77.8171 16.6328C78.0805 16.4144 78.3428 16.232 78.5705 16.1098C79.0593 15.8412 78.9686 15.8562 79.4165 15.7306C79.7962 15.5918 80.1535 15.4812 80.4683 15.4521C80.8737 15.408 81.2395 15.4707 81.5547 15.539C81.7376 15.5704 81.9126 15.6232 82.0729 15.6827C82.2546 15.7501 82.4283 15.8389 82.5661 15.9265C82.7038 16.0141 82.8027 16.0751 82.8803 16.1282C82.8605 16.1816 82.8114 16.2485 82.7757 16.3447L83.323 16.8031C83.323 16.8031 83.3507 16.7283 83.3693 16.7109C83.6802 16.6925 83.9788 16.6087 84.2444 16.6465C84.3272 16.6529 84.4127 16.6846 84.4875 16.7124C84.7012 16.7917 84.8885 16.9098 85.0769 16.9919C85.3615 17.1096 85.6354 17.2234 85.8642 17.3934C86.1103 17.582 86.3379 17.7881 86.5147 17.9996C86.7264 18.2484 86.95 18.4651 87.0829 18.6968C87.3526 19.1495 87.2418 19.1205 87.3647 19.5431C87.4552 19.8563 87.5496 20.1589 87.5827 20.463C87.6078 20.7885 87.5542 21.0969 87.5219 21.4132C87.4857 21.7403 87.4535 22.0566 87.3678 22.3531C87.2781 22.6603 87.1738 22.9742 87.0493 23.2442C86.9129 23.5462 86.7979 23.8561 86.656 24.1075C86.4836 24.4083 86.2376 24.6453 86.0715 24.8634C85.7315 25.3209 85.7672 25.2247 85.4455 25.5674C85.2383 25.831 85.0457 26.0878 84.7981 26.2634C84.5359 26.4458 84.2428 26.5803 83.947 26.6894C83.6512 26.7985 83.3419 26.8783 83.0299 26.9327C82.7071 26.9832 82.3936 26.9763 82.076 26.9801C81.7478 26.9799 81.4302 26.9836 81.1285 26.9447C80.7801 26.9005 80.4809 26.7894 80.2125 26.7263C79.7184 26.616 79.712 26.6987 79.4021 26.5837" fill="#FFE7E9"/>
<path d="M83.3123 16.7991L82.7649 16.3407C82.8006 16.2445 82.8391 16.1736 82.8696 16.1241C82.9651 15.965 83.0277 15.9275 83.1855 15.6334C83.3087 15.3994 83.4439 15.1334 83.5993 14.9114C83.8037 14.6225 84.0232 14.4243 84.1899 14.401C84.3899 14.3536 84.4885 14.3173 84.5847 14.353C84.6488 14.3768 84.701 14.4326 84.7734 14.5324L84.8483 14.5602C85.0096 14.9119 84.8386 14.8484 84.5852 14.876L84.4322 15.0259C84.2754 15.1866 84.2192 15.1414 84.1011 15.3286C83.9219 15.6148 84.0035 15.6572 83.8417 15.962C83.6336 16.359 83.5402 16.3487 83.3519 16.6922C83.34 16.7243 83.3281 16.7563 83.3055 16.7844" fill="#FFE7E9"/>
<path d="M85.1852 16.7646C85.0997 16.7328 85.0181 16.6904 84.9406 16.6373C84.7051 16.4527 84.5133 16.1505 84.3785 15.76L84.3476 15.712C84.6947 15.3666 84.6748 15.42 85.1743 15.1554C85.4313 15.0198 85.7687 14.9626 86.1207 14.8986C86.4221 14.8402 86.7396 14.8365 87.0841 14.8913C87.3137 14.9279 87.5686 14.9617 87.8252 15.0569C87.8893 15.0807 87.9641 15.1084 88.035 15.1468C88.301 15.282 88.5859 15.4972 88.8589 15.7444C88.766 16.2571 88.4502 15.994 87.9321 16.276C87.6458 16.4251 87.3396 16.6276 87.0038 16.7462C86.6679 16.8648 86.3037 16.8634 85.9608 16.8699C85.7046 16.8722 85.4377 16.8704 85.2026 16.7832" fill="#FFE7E9"/>
</g>
<defs>
<clipPath id="clip0_70_358">
<rect width="146.95" height="36.56" fill="white" transform="translate(0 10.0146) rotate(-3.88084)"/>
</clipPath>
</defs>
</svg>
