<svg width="19" height="16" viewBox="0 0 19 16" fill="none" xmlns="http://www.w3.org/2000/svg">
<path d="M0.338206 0.362216C0.338206 0.3749 0.349377 0.384673 0.36195 0.382998C0.886204 0.313161 1.43303 0.277556 1.94469 0.230301C2.46408 0.182333 3.00763 0.194321 3.5391 0.170337C4.07057 0.146352 4.60203 0.0264366 5.12142 0.0264366C5.64081 0.0264366 6.18437 -0.00954507 6.71583 0.0024471C7.2473 0.0144393 7.77877 0.134355 8.31024 0.146347C8.84171 0.158339 9.37318 0.0983735 9.90464 0.122358C10.4361 0.146342 10.9676 0.194325 11.499 0.230301C12.0305 0.266278 12.5499 0.410187 13.0814 0.458155C13.6128 0.506124 14.1443 0.506108 14.6637 0.554077C15.1831 0.602045 15.7266 0.626037 16.246 0.674006C16.2715 0.676354 16.2969 0.678789 16.3224 0.681302C17.1922 0.767054 17.8864 1.49312 17.9491 2.36491C17.9854 2.86858 18.0579 3.37224 18.0941 3.87591C18.1303 4.37958 18.1665 4.88325 18.2149 5.38692C18.2632 5.89059 18.2149 6.39427 18.2511 6.89795C18.2874 7.40162 18.3719 7.8933 18.4202 8.39697C18.4685 8.90064 18.4685 9.4043 18.5048 9.90798C18.541 10.4116 18.5652 10.9153 18.6014 11.419C18.6376 11.9227 18.7705 12.4144 18.8067 12.918C18.843 13.4217 18.8792 13.9254 18.9154 14.429C18.9746 15.251 18.2995 15.9151 17.4754 15.9049C17.432 15.9044 17.3886 15.9041 17.3452 15.9041C16.7896 15.9041 16.246 16 15.7025 16C15.1589 16 14.6033 15.964 14.0598 15.964C13.5162 15.964 12.9606 15.976 12.417 15.976C11.8735 15.976 11.3179 15.976 10.7743 15.976C10.2308 15.976 9.67515 15.9041 9.1316 15.9041C8.58805 15.9041 8.03243 15.976 7.48888 15.976C6.94533 15.976 6.3897 15.952 5.83408 15.952C5.27845 15.952 4.7349 15.952 4.17927 15.952C3.62365 15.952 3.08011 15.9041 2.52448 15.9041C2.49282 15.9041 2.46124 15.9041 2.42973 15.9043C1.53691 15.9084 0.748407 15.2861 0.603941 14.405C0.51939 13.8894 0.471079 13.3737 0.410685 12.8581C0.350291 12.3424 0.338205 11.8147 0.289889 11.2991C0.241574 10.7834 0.229502 10.2557 0.193266 9.74009C0.157029 9.22442 0.108712 8.70875 0.0966328 8.1811C0.084554 7.65344 0 7.13779 0 6.62213C0 6.10647 0.012084 5.57881 0.0241628 5.06314C0.0362416 4.54748 0.0966288 4.03181 0.120786 3.50416C0.144944 2.9765 0.193267 2.47283 0.241582 1.94517C0.289897 1.41752 0.277812 0.877879 0.338206 0.362216Z" fill="#EBE8DC"/>
</svg>
