<svg width="28" height="28" viewBox="0 0 28 28" fill="none" xmlns="http://www.w3.org/2000/svg">
<path d="M13.601 27.9589C13.6034 27.9577 13.6026 27.9541 13.5999 27.9541C13.3173 27.9551 13.0284 27.9934 12.7459 27.9934C12.4599 27.9934 12.1738 27.8558 11.8878 27.8558C11.6017 27.8558 11.3157 27.882 11.0296 27.882C10.7436 27.882 10.4575 27.8755 10.1715 27.8755C9.8854 27.8755 9.59935 27.9607 9.3133 27.9607C9.02725 27.9607 8.7412 27.8886 8.45515 27.8886C8.1691 27.8886 7.88305 27.9476 7.597 27.9476C7.31095 27.9476 7.02489 27.8558 6.73884 27.8558C6.45279 27.8558 6.16674 27.9738 5.88069 27.9738C5.59464 27.9738 5.30858 28 5.02253 28C4.73648 28 4.45043 27.9738 4.16438 27.9738C3.87833 27.9738 3.59227 27.9082 3.30622 27.9082C3.02017 27.9082 2.73412 27.9869 2.44807 27.9803C2.04228 27.9803 1.71631 27.9017 1.45687 27.823C1.11094 27.7247 0.904723 27.5084 0.751719 27.1873C0.638629 26.9513 0.525537 26.6498 0.47897 26.25C0.445709 25.9485 0.465667 25.647 0.439058 25.3455C0.412448 25.044 0.439062 24.7425 0.412453 24.441C0.385843 24.1395 0.246145 23.8446 0.226188 23.5431C0.206231 23.2416 0.286054 22.9335 0.272749 22.632C0.259444 22.3305 0.19958 22.029 0.186275 21.7275C0.172971 21.426 0.0997886 21.1245 0.0864839 20.823C0.0731791 20.5215 0.113096 20.22 0.0997914 19.912C0.0997914 19.8268 0.07318 19.5318 0.0665276 19.073C0.0665276 18.8371 0.166309 18.5487 0.166309 18.2341C0.166309 17.9785 0.0997914 17.6966 0.0997914 17.3951C0.0997914 17.133 0.0266151 16.8511 0.0266151 16.5562C0.0266151 16.2874 0.0864839 16.0056 0.0864839 15.7172C0.0864839 15.4419 0.0598789 15.1667 0.0598789 14.8783C0.0598789 14.5899 0.0864839 14.3212 0.0864839 14.0393C0.0864839 13.7575 0.10644 13.4822 0.10644 13.2004C0.10644 12.9185 0.126396 12.6433 0.126396 12.3614C0.126396 12.0796 0 11.8043 0 11.5225C0 11.2406 0.0798352 10.9588 0.0798352 10.677C0.0798352 10.3951 0.0532201 10.1133 0.0532201 9.83146C0.0532201 9.54963 0.15966 9.26779 0.15966 8.99251C0.15966 8.71723 0.0997914 8.42883 0.0997914 8.147C0.0997914 7.86516 0.039919 7.57678 0.0465714 7.3015C0.0532237 7.02622 0.0332638 6.73127 0.0332638 6.46255C0.0332638 6.17416 0.0332638 5.89232 0.0332638 5.6236C0.0332638 5.32865 0.153011 5.04682 0.153011 4.78465C0.153011 4.48315 0.0465677 4.2013 0.0532201 3.94569C0.0532201 3.62452 0.0997914 3.34269 0.0997914 3.10673C0.106444 2.65449 0.0598716 2.34644 0.0731763 2.26123C0.119743 1.9073 0.17962 1.61891 0.2661 1.41572C0.385843 1.12733 0.645284 1.02902 0.951292 0.917599C1.16417 0.838947 1.43026 0.799618 1.78948 0.760292C2.05558 0.72752 2.32168 0.707867 2.58778 0.688204C2.85387 0.668541 3.11996 0.635766 3.3927 0.622657C3.66545 0.609549 3.9249 0.550557 4.19764 0.537448C4.47039 0.524339 4.73648 0.530898 5.00257 0.511235C5.30858 0.491572 5.60794 0.491574 5.91395 0.471911C6.21996 0.452248 6.51931 0.439138 6.82532 0.419475C7.13133 0.399812 7.42403 0.301493 7.73004 0.28183C8.03605 0.262167 8.3354 0.26872 8.64141 0.249057C8.94742 0.229394 9.24677 0.20974 9.55278 0.196631C9.85879 0.183523 10.1582 0.196622 10.4642 0.176959C10.7702 0.157296 11.0695 0.196628 11.3755 0.18352C11.6815 0.170411 11.9809 0.0196557 12.2803 0.0131014C12.5796 0.00654711 12.8856 0.0196621 13.1916 0.0196621C13.4843 0.0196621 13.777 0 14.0764 0C14.3757 0 14.6618 0.0589864 14.9611 0.0589864C15.2605 0.0589864 15.5466 0.117973 15.8393 0.117973C16.132 0.117973 16.4247 0.170405 16.7174 0.176959C17.0101 0.183513 17.3094 0.104868 17.6021 0.111422C17.8948 0.117976 18.1875 0.131081 18.4802 0.137635C18.7729 0.144189 19.0657 0.124526 19.365 0.137635C19.6644 0.150743 19.9504 0.21629 20.2431 0.222844C20.5358 0.229398 20.8285 0.222844 21.1279 0.222844C21.4272 0.222844 21.7133 0.30805 22.006 0.314604C22.2987 0.321158 22.5981 0.170405 22.8908 0.176959C23.1835 0.183513 23.4762 0.196624 23.7689 0.209733C24.0616 0.222841 24.3543 0.353931 24.647 0.36704C24.9397 0.380148 25.239 0.268725 25.5317 0.27528C25.6515 0.27528 25.7646 0.426022 25.891 0.432577C26.2103 0.465348 26.4764 0.386702 26.6626 0.458799C26.9221 0.55056 27.0352 0.753741 27.1549 1.00936C27.2414 1.19288 27.3678 1.40262 27.4343 1.71067C27.4742 1.88764 27.4011 2.18258 27.4343 2.55618C27.4543 2.79869 27.4942 3.08052 27.5208 3.39513C27.5407 3.65074 27.6605 3.92603 27.6805 4.22753C27.6938 4.4897 27.7137 4.77153 27.727 5.06648C27.7403 5.3352 27.6871 5.61704 27.6938 5.90543C27.7071 6.17415 27.7403 6.45599 27.747 6.74438C27.7536 7.03277 27.6871 7.3015 27.6938 7.58989C27.7004 7.87828 27.6937 8.147 27.7071 8.42884C27.7204 8.71067 27.8601 8.98595 27.8667 9.26779C27.8734 9.54962 27.7337 9.83146 27.7403 10.1133C27.747 10.3951 27.7869 10.6704 27.7935 10.9522C27.8002 11.2341 27.8667 11.5094 27.8667 11.7912C27.8667 12.073 27.9332 12.3549 27.9399 12.6367C27.9465 12.9185 27.9466 13.2004 27.9532 13.4822C27.9599 13.764 27.8534 14.0459 27.8601 14.3277C27.8667 14.6096 27.8734 14.8914 27.88 15.1732C27.8867 15.4551 27.9133 15.7369 27.9199 16.0187C27.9266 16.3006 27.9333 16.5889 27.9333 16.8642C27.9333 17.1395 27.9798 17.4344 27.9798 17.7097C27.9798 17.985 27.8734 18.28 27.8734 18.5552C27.8734 18.8436 28.0064 19.1255 27.9998 19.4007C27.9998 19.6891 27.9266 19.971 27.9266 20.2463C27.9266 20.5412 27.9 20.823 27.9 21.0918C27.9 21.3933 27.8601 21.6751 27.8534 21.9307C27.8534 22.2453 27.9 22.5272 27.8867 22.7762C27.8734 23.1498 27.8002 23.4316 27.7802 23.6086C27.7536 23.8511 27.8002 24.0936 27.7802 24.3361C27.7603 24.5786 27.7536 24.8212 27.747 25.0571C27.7403 25.2931 27.6871 25.5421 27.7004 25.7846C27.7137 26.1189 27.6671 26.368 27.5208 26.5515C27.3545 26.7481 27.1017 26.8399 26.8023 26.912C26.4764 26.9906 26.1438 27.0431 25.8111 27.0955C25.4785 27.1479 25.1459 27.1545 24.8133 27.1742C24.5272 27.1873 24.2412 27.2397 23.9551 27.2594C23.6691 27.279 23.3764 27.2463 23.0903 27.2594C22.8043 27.2725 22.5249 27.4298 22.2322 27.4429C21.9395 27.456 21.6534 27.3904 21.3674 27.4101C21.0813 27.4298 20.7953 27.4625 20.5026 27.4822C20.2099 27.5019 19.9305 27.5871 19.6444 27.6002C19.3584 27.6133 19.0657 27.6067 18.7796 27.6198C18.4936 27.633 18.2008 27.6264 17.9148 27.6395C17.6287 27.6526 17.3427 27.6854 17.05 27.6985C16.7573 27.7116 16.4712 27.7247 16.1852 27.7378C15.8991 27.7509 15.6064 27.7182 15.3204 27.7313C15.0343 27.7444 14.7483 27.8427 14.4622 27.8558C14.1924 27.8682 13.9167 27.8222 13.6463 27.828C13.6189 27.8285 13.5974 27.8511 13.5974 27.8784C13.5974 27.9062 13.5974 27.9364 13.5974 27.9566C13.5974 27.9585 13.5994 27.9597 13.601 27.9589Z" fill="#EBE8DC"/>
</svg>
