<svg width="34" height="32" viewBox="0 0 34 32" fill="none" xmlns="http://www.w3.org/2000/svg">
<path d="M33.6762 13.0939C33.6715 13.1032 33.6575 13.1002 33.6569 13.0898C33.6305 12.5833 33.5307 12.0871 33.5081 11.5801C33.4849 11.06 33.4849 10.54 33.4501 10.02C33.4153 9.50001 33.3457 8.99156 33.2994 8.47155C33.253 7.95154 33.1254 7.44307 33.0674 6.92306C33.0094 6.40304 33.0558 5.88304 32.9863 5.36303C32.9167 4.84302 32.8935 4.32299 32.8123 3.81454C32.7427 3.29452 32.6152 2.84386 32.5108 2.45096C32.3717 1.93095 32.1861 1.50337 31.9542 1.17981C31.6875 0.786913 31.2816 0.613583 30.8294 0.42869C30.4583 0.278464 30.0409 0.139802 29.5074 0.0935786C29.1016 0.0589112 28.6377 0.0589062 28.1275 0.070462C27.6057 0.070462 27.0839 -0.0104259 26.5737 0.00112994C26.0634 0.0126858 25.5416 0.162904 25.0198 0.17446C24.498 0.186016 23.9761 0.174465 23.4659 0.197577C22.9557 0.220688 22.4339 0.232237 21.9121 0.243792C21.3902 0.255348 20.8684 0.174454 20.3582 0.18601C19.848 0.197566 19.3261 0.313136 18.8043 0.324692C18.2825 0.336247 17.7607 0.186021 17.2389 0.197577C16.717 0.209133 16.2068 0.255353 15.685 0.266909C15.1632 0.278465 14.6529 0.382468 14.1311 0.394024C13.6093 0.405579 13.0875 0.382468 12.5773 0.394024C12.067 0.405579 11.5452 0.532699 11.0234 0.544255C10.5596 0.555811 10.0841 0.41714 9.62028 0.41714C9.15643 0.41714 8.681 0.451806 8.21716 0.451806C7.75332 0.451806 7.27788 0.544255 6.81404 0.544255C6.3502 0.544255 5.87476 0.521143 5.41092 0.544255C4.94708 0.567367 4.47165 0.544255 4.00781 0.544255C3.54397 0.544255 3.06853 0.555809 2.60469 0.578921C1.92053 0.625144 1.3987 0.694471 1.01603 0.786917C0.401444 0.948699 0.134733 1.29537 0.0535614 1.9425C0.00717729 2.3354 -0.0276069 2.8554 0.0303732 3.52564C0.0651613 4.02254 0.227508 4.5079 0.2507 5.0048C0.273892 5.5017 0.227508 5.9986 0.2507 6.4955C0.273892 6.9924 0.297079 7.48929 0.308675 7.98619C0.320271 8.48309 0.436235 8.98 0.447831 9.4769C0.459427 9.9738 0.389847 10.4707 0.389847 10.9676C0.389847 11.4645 0.343464 11.9614 0.35506 12.4583C0.366656 12.9552 0.331866 13.4521 0.343462 13.949C0.355058 14.4459 0.424636 14.9428 0.436232 15.4397C0.447828 15.9366 0.528998 16.4335 0.55219 16.9304C0.575382 17.4273 0.552189 17.9242 0.586977 18.4211C0.621765 18.918 0.679748 19.4149 0.726132 19.9118C0.772516 20.3856 0.772519 20.8594 0.818903 21.3332C0.865287 21.807 0.85369 22.2807 0.900074 22.7545C0.946459 23.2283 1.05082 23.6906 1.0972 24.1643C1.14359 24.6381 1.28274 25.1004 1.32912 25.5742C1.37551 26.0479 1.27114 26.5333 1.32912 27.0071C1.3871 27.4809 1.54945 27.9431 1.60743 28.4053C1.66541 28.8676 1.66541 29.3529 1.71179 29.8267C1.72169 29.9278 1.73635 30.0269 1.75373 30.1247C1.87037 30.7811 2.31747 31.4889 2.97576 31.5947C3.63674 31.7103 4.29771 31.8721 4.97028 31.8952C5.4805 31.9183 6.00232 31.8374 6.52414 31.8605C7.04596 31.8836 7.55619 31.9067 8.07801 31.9183C8.59983 31.9299 9.11005 31.9761 9.63187 31.9761C10.1537 31.9761 10.6639 31.9183 11.1857 31.9068C11.7076 31.8952 12.2294 32.0107 12.7396 31.9992C13.2498 31.9876 13.7716 31.8721 14.2935 31.8605C14.8153 31.849 15.3371 31.9299 15.8589 31.9068C16.3808 31.8836 16.891 31.7334 17.4128 31.7103C17.9346 31.6872 18.4564 31.7103 18.9783 31.6756C19.5001 31.641 20.0219 31.6179 20.5321 31.5832C21.0424 31.5485 21.5642 31.433 22.086 31.3983C22.6078 31.3636 23.1296 31.4445 23.6515 31.3983C24.1733 31.3521 24.6835 31.2018 25.1937 31.1556C25.704 31.1094 26.2374 31.2365 26.7476 31.1903C27.2578 31.1903 27.768 31.0978 28.2783 31.0978C28.7885 31.0978 29.2987 31.1441 29.8089 31.1441C30.3192 31.1441 30.8294 31.0285 31.3396 31.017C31.8614 31.0054 32.2905 31.0516 32.6152 30.9938C33.1834 30.9014 33.4385 30.7165 33.6008 30.3583C33.7084 30.1146 33.8655 29.8216 33.9051 29.389C33.9206 29.2198 33.9373 29.0502 33.9596 28.8817C34.0194 28.4299 33.9951 27.8571 33.9951 27.1226C33.9951 26.6026 33.9719 26.0826 33.9719 25.5626C33.9719 25.0426 34.0067 24.5226 33.9951 24.0026C33.9835 23.4825 33.8675 22.9625 33.856 22.4425C33.8444 21.9225 33.8328 21.4025 33.8096 20.8825C33.7864 20.3625 33.9719 19.8309 33.9603 19.3109C33.9487 18.7909 33.7632 18.2709 33.74 17.7509C33.7168 17.2309 33.8444 16.6993 33.8212 16.1793C33.798 15.6593 33.5892 15.1508 33.5661 14.6308C33.5434 14.1237 33.7083 13.6056 33.695 13.098C33.6947 13.0876 33.6809 13.0846 33.6762 13.0939Z" fill="#EBE8DC"/>
</svg>
