<svg width="73" height="34" viewBox="0 0 73 34" fill="none" xmlns="http://www.w3.org/2000/svg">
<path d="M6.245 33.01C6.2473 33.0146 6.24394 33.02 6.2388 33.02C5.77301 33.0221 5.33682 33.1497 4.94 33.11C4.46 33.07 4.04 32.9 3.67 32.79C3.22 32.66 2.79 32.52 2.47 32.26C2.15 32 2.08 31.53 1.89 31.11C1.73 30.76 1.49 30.41 1.39 29.93C1.31 29.55 1.21 29.13 1.16 28.65C1.12 28.22 1.13001 27.79 1.09001 27.36C1.05001 26.93 0.850013 26.52 0.810013 26.09C0.770013 25.66 0.740012 25.23 0.700012 24.8C0.660012 24.37 0.919999 23.92 0.889999 23.49C0.859999 23.06 0.610002 22.65 0.580002 22.22C0.550002 21.79 0.730007 21.35 0.710007 20.92C0.690007 20.49 0.39001 20.08 0.37001 19.65C0.35001 19.22 0.439998 18.78 0.419998 18.36C0.399998 17.94 0.27 17.51 0.25 17.08C0.23 16.65 0.330013 16.22 0.310013 15.79C0.290013 15.36 0.370006 14.93 0.350006 14.5C0.330006 14.07 0.120006 13.65 0.100006 13.22C0.0800061 12.79 0.120006 12.36 0.100006 11.93C0.0800061 11.53 0 11.13 0 10.73C0 10.33 0.0600116 9.93 0.0900116 9.53C0.120012 9.13 0.180007 8.73 0.210007 8.33C0.240007 7.93 0.430001 7.54999 0.470001 7.14999C0.510001 6.74999 0.470004 6.34 0.520004 5.95C0.590004 5.44 0.720013 5.01 0.810013 4.63C0.930013 4.12 0.960009 3.65 1.15001 3.31C1.38001 2.91 1.82001 2.75 2.24001 2.53C2.58001 2.35 2.96 2.16 3.47 2.05C3.86 1.97 4.28 1.78 4.78 1.72C5.24 1.66 5.71001 1.66 6.18001 1.61C6.65001 1.56 7.11 1.53001 7.58 1.49001C8.05 1.45001 8.51 1.38001 8.97 1.35001C9.43 1.32001 9.90001 1.3 10.37 1.28C10.84 1.26 11.3 1.25 11.77 1.23C12.24 1.21 12.71 1.30999 13.17 1.28999C13.61 1.26999 14.05 1.17999 14.5 1.14999C14.95 1.11999 15.38 1.04 15.83 1.02C16.28 1 16.72 0.990007 17.16 0.960007C17.6 0.930007 18.05 0.929994 18.49 0.899994C18.93 0.869994 19.37 0.729997 19.81 0.699997C20.25 0.669997 20.7 0.720002 21.15 0.690002C21.6 0.660002 22.03 0.580003 22.48 0.550003C22.93 0.520003 23.37 0.590003 23.82 0.550003C24.27 0.510003 24.7 0.320003 25.14 0.300003C25.58 0.280003 26.03 0.299999 26.48 0.279999C26.93 0.259999 27.37 0.249996 27.81 0.229996C28.25 0.209996 28.71 0.389995 29.15 0.369995C29.59 0.349995 30.03 0.0999963 30.47 0.0899963C30.91 0.0799963 31.36 0.060003 31.8 0.0500031C32.24 0.0400031 32.69 0.240005 33.14 0.240005C33.59 0.240005 34.03 0.210007 34.47 0.210007C34.9 0.210007 35.33 0.259995 35.76 0.259995C36.19 0.259995 36.62 0 37.05 0C37.48 0 37.91 0.269999 38.33 0.279999C38.75 0.289999 39.19 0.279993 39.62 0.289993C40.05 0.299993 40.48 0.0599976 40.91 0.0599976C41.34 0.0599976 41.77 0.139999 42.19 0.139999C42.61 0.139999 43.05 0.180002 43.48 0.190002C43.91 0.200002 44.34 0.260004 44.76 0.270004C45.18 0.280004 45.62 0.129999 46.05 0.139999C46.48 0.149999 46.9 0.249995 47.33 0.259995C47.76 0.269994 48.18 0.430002 48.61 0.440002C49.04 0.450002 49.47 0.469996 49.9 0.479996C50.33 0.489996 50.76 0.329996 51.19 0.339996C51.62 0.349996 52.04 0.519999 52.47 0.529999C52.9 0.539999 53.33 0.560007 53.76 0.570007C54.19 0.580007 54.62 0.600001 55.05 0.610001C55.48 0.620001 55.91 0.499995 56.34 0.509995C56.77 0.519994 57.2 0.549998 57.62 0.559998C58.04 0.569998 58.47 0.73 58.9 0.75C59.33 0.77 59.76 0.669993 60.19 0.679993C60.62 0.689993 61.05 0.580006 61.48 0.600006C61.91 0.620006 62.33 0.710001 62.76 0.720001C63.19 0.730001 63.62 0.650004 64.05 0.660004C64.48 0.670004 64.9 0.859995 65.33 0.869995C65.76 0.879995 66.19 0.74 66.62 0.75C66.94 0.75 67.26 0.850005 67.57 0.880005C68.02 0.930005 68.41 0.969993 68.76 1.03999C69.22 1.12999 69.55 1.30001 69.86 1.46001C70.22 1.65001 70.65 1.77 70.87 2.12C71.05 2.41 71.11 2.84 71.24 3.28C71.34 3.62 71.46 4 71.55 4.44C71.64 4.88 71.58 5.34 71.66 5.77C71.74 6.2 71.97 6.62 72.03 7.06C72.09 7.5 71.91 7.96999 71.96 8.39999C72.01 8.82999 72.04 9.28 72.07 9.72C72.1 10.16 72.23 10.59 72.25 11.04C72.27 11.49 72.2 11.92 72.21 12.36C72.22 12.8 72.4 13.23 72.41 13.68C72.42 14.13 72.34 14.56 72.33 15C72.32 15.44 72.44 15.88 72.44 16.33C72.44 16.78 72.37 17.2 72.36 17.65C72.35 18.1 72.17 18.52 72.17 18.97C72.17 19.42 72.34 19.85 72.34 20.3C72.34 20.75 72.36 21.18 72.36 21.63C72.36 22.05 72.38 22.48 72.38 22.92C72.38 23.36 72.3 23.78 72.3 24.21C72.3 24.64 72.32 25.07 72.32 25.5C72.32 25.93 72.26 26.37 72.26 26.79C72.26 27.24 72.32 27.67 72.34 28.07C72.37 28.64 72.27 29.08 72.07 29.38C71.83 29.75 71.41 29.91 70.95 30.07C70.57 30.21 70.11 30.24 69.65 30.36C69.23 30.47 68.85 30.77 68.42 30.86C67.99 30.95 67.53 30.88 67.1 30.95C66.67 31.02 66.22 30.97 65.79 31.02C65.36 31.07 64.93 31.29 64.5 31.32C64.06 31.34 63.61 31.34 63.17 31.36C62.73 31.38 62.29 31.5 61.85 31.53C61.41 31.56 60.95 31.36 60.51 31.39C60.07 31.42 59.63 31.58 59.19 31.6C58.75 31.62 58.3 31.56 57.86 31.58C57.42 31.6 56.97 31.6 56.53 31.62C56.09 31.64 55.65 31.77 55.21 31.79C54.77 31.81 54.32 31.7 53.87 31.73C53.42 31.76 52.99 31.82 52.54 31.84C52.09 31.86 51.65 31.82 51.21 31.84C50.77 31.86 50.33 32.02 49.89 32.05C49.45 32.08 49.01 32.2 48.57 32.22C48.13 32.24 47.68 32.12 47.23 32.14C46.78 32.16 46.34 32.07 45.9 32.1C45.46 32.13 45.02 32.16 44.57 32.18C44.12 32.2 43.69 32.26 43.24 32.29C42.79 32.32 42.36 32.39 41.91 32.41C41.46 32.43 41.02 32.41 40.58 32.44C40.14 32.47 39.7 32.62 39.26 32.65C38.82 32.68 38.38 32.75 37.93 32.77C37.48 32.79 37.03 32.61 36.59 32.64C35.8436 32.6909 34.698 32.8922 33.95 32.91C33.58 32.91 33.14 32.78 32.63 32.79C32.23 32.79 31.79 32.86 31.32 32.86C30.91 32.86 30.47 32.92 30 32.92C29.58 32.92 29.14 32.75 28.68 32.76C28.25 32.76 27.81 32.83 27.36 32.83C26.93 32.83 26.49 32.94 26.04 32.94C25.59 32.94 25.17 32.98 24.72 32.99C24.27 33 23.85 33.06 23.4 33.07C22.95 33.08 22.52 32.98 22.08 32.99C21.64 33 21.21 33.11 20.76 33.11C20.31 33.11 19.88 33.01 19.44 33.02C19 33.03 18.56 32.97 18.12 32.98C17.68 32.99 17.24 33.15 16.8 33.15C16.36 33.15 15.92 33.11 15.48 33.11C15.04 33.11 14.6 33.04 14.16 33.04C13.72 33.04 13.27 33.07 12.84 33.07C12.41 33.07 11.95 33.05 11.52 33.05C11.09 33.05 10.63 33.02 10.2 33.02C9.77001 33.02 9.31001 33.01 8.88 33.01C8.43001 33.01 7.99001 33.07 7.56001 33.07C7.10409 33.07 6.6678 33.0012 6.25117 33C6.24604 33 6.24271 33.0054 6.245 33.01Z" fill="#EBE8DC"/>
</svg>
