<svg width="58" height="88" viewBox="0 0 58 88" fill="none" xmlns="http://www.w3.org/2000/svg">
<path d="M2.642 2.6823C2.79218 2.57308 2.91504 2.42973 3.03791 2.33417C3.18125 2.22495 3.31095 2.11575 3.44064 2.02701C3.58398 1.92463 3.72733 1.82905 3.87067 1.74032C4.0345 1.64475 4.22562 1.56284 4.40992 1.48093C4.59422 1.39902 4.81948 1.43999 5.0106 1.41268C5.20173 1.38538 5.37238 1.21472 5.57033 1.18742C5.76828 1.16011 5.95941 1.11917 6.15053 1.09186C6.34166 1.06456 6.55326 1.16012 6.75121 1.13282C6.94917 1.10552 7.13347 1.03725 7.33142 1.01677C7.52937 0.996291 7.7205 0.996299 7.91845 0.982648C8.1164 0.968996 8.30753 0.94852 8.50548 0.941694C8.70343 0.941694 8.90821 0.914377 9.10616 0.907551C9.30411 0.900726 9.50889 0.846121 9.70684 0.846121C9.90479 0.846121 10.1096 0.968982 10.3075 0.968982C10.5055 0.968982 10.7103 0.914384 10.9082 0.914384C11.1062 0.914384 11.3109 0.975815 11.5089 0.975815C11.7068 0.975815 11.9048 0.798334 12.1096 0.798334C12.3143 0.798334 12.5123 0.921217 12.7103 0.921217C12.9082 0.921217 13.113 0.846121 13.3109 0.846121C13.5089 0.846121 13.7137 0.859765 13.9116 0.859765C14.1096 0.859765 14.3143 0.968982 14.5123 0.968982C14.7102 0.968982 14.915 0.982648 15.113 0.982648C15.3109 0.982648 15.5157 0.866591 15.7137 0.859765C15.9116 0.852939 16.1164 0.83247 16.3143 0.825644C16.5123 0.818818 16.7171 0.941694 16.915 0.941694C17.113 0.941694 17.3178 0.825644 17.5157 0.825644C17.7137 0.825644 17.9184 0.955338 18.1164 0.955338C18.3143 0.955338 18.5191 0.928043 18.7171 0.921217C18.915 0.914391 19.1198 0.900733 19.3178 0.893907C19.5157 0.887081 19.7205 0.934854 19.9184 0.928028C20.1164 0.928028 20.3143 0.928028 20.5123 0.928028C20.7102 0.928028 20.9082 0.777857 21.1061 0.777857C21.3041 0.777857 21.5089 0.92121 21.7068 0.914384C21.9048 0.907558 22.1027 0.811993 22.3007 0.805167C22.4986 0.798341 22.6966 0.825637 22.8945 0.818811C23.0925 0.811985 23.2904 0.709608 23.4884 0.702782C23.6864 0.695956 23.8843 0.730085 24.0823 0.723259C24.2802 0.716433 24.4782 0.764206 24.6761 0.75738C24.8741 0.750554 25.072 0.695943 25.27 0.689117C25.4679 0.682291 25.6659 0.736917 25.8638 0.730091C26.0618 0.723266 26.2597 0.620867 26.4577 0.614041C26.6556 0.607216 26.8536 0.49118 27.0515 0.49118C27.2495 0.49118 27.4543 0.586732 27.6522 0.586732C27.8502 0.586732 28.0481 0.607223 28.2461 0.600397C28.444 0.600397 28.642 0.484347 28.8399 0.484347C29.0379 0.484347 29.2358 0.484347 29.4338 0.484347C29.6317 0.484347 29.8365 0.661828 30.0345 0.661828C30.2324 0.661828 30.4304 0.600397 30.6283 0.600397C30.8263 0.600397 31.0242 0.614041 31.2222 0.614041C31.4201 0.614041 31.6181 0.586732 31.816 0.586732C32.014 0.586732 32.2119 0.511657 32.4099 0.511657C32.6078 0.511657 32.8058 0.511657 33.0037 0.511657C33.2017 0.511657 33.3996 0.538945 33.5976 0.538945C33.7956 0.538945 33.9935 0.450226 34.1915 0.450226C34.3894 0.450226 34.5874 0.620874 34.7853 0.620874C34.9833 0.620874 35.1812 0.600397 35.3792 0.600397C35.5771 0.600397 35.7751 0.57992 35.973 0.57992C36.171 0.57992 36.3689 0.57992 36.5669 0.57992C36.7648 0.57992 36.9628 0.654995 37.1607 0.654995C37.3587 0.654995 37.5566 0.46387 37.7546 0.46387C37.9525 0.46387 38.1505 0.559443 38.3484 0.559443C38.5464 0.559443 38.7444 0.46387 38.9423 0.46387C39.1334 0.46387 39.3246 0.559443 39.5157 0.559443C39.7068 0.559443 39.8979 0.573088 40.0891 0.573088C40.2802 0.573088 40.4713 0.689123 40.6556 0.695949C40.8399 0.702775 41.0379 0.586732 41.229 0.586732C41.4201 0.586732 41.6112 0.57992 41.8024 0.57992C41.9935 0.57992 42.1846 0.661814 42.3689 0.66864C42.5532 0.675466 42.7512 0.641337 42.9423 0.648163C43.1334 0.654989 43.3245 0.586739 43.5157 0.593565C43.7068 0.60039 43.8979 0.559429 44.0891 0.566255C44.2802 0.573081 44.4713 0.627693 44.6556 0.634518C44.8399 0.641344 45.0379 0.648169 45.229 0.654995C45.4201 0.661821 45.6044 0.791508 45.7955 0.798334C46.0003 0.798334 46.2119 0.627693 46.4167 0.634518C46.6215 0.641344 46.8263 0.634511 47.0379 0.648163C47.2495 0.661815 47.4474 0.818818 47.6522 0.825644C47.857 0.83247 48.0686 0.682305 48.2733 0.682305C48.4781 0.682305 48.6829 0.798341 48.8877 0.805167C49.0925 0.811993 49.2972 0.880249 49.502 0.887075C49.7068 0.8939 49.9184 0.866604 50.1232 0.87343C50.328 0.880256 50.5396 0.839301 50.7443 0.852953C50.9491 0.866605 51.1539 0.907558 51.3587 0.914384C51.5635 0.92121 51.7682 0.975822 51.973 0.982648C52.1778 0.989474 52.3826 0.975822 52.5942 0.982648C52.8058 0.989474 53.0037 1.03042 53.2085 1.03725C53.3996 1.04407 53.6249 0.873429 53.816 0.914384C54.0071 0.95534 54.2119 1.00994 54.3962 1.0782C54.5805 1.14646 54.6829 1.41949 54.8535 1.5014C55.0447 1.59014 55.3314 1.50141 55.5157 1.61062C55.7 1.71984 55.8365 1.91097 56.0003 2.04066C56.1641 2.17035 56.3689 2.27956 56.5191 2.42291C56.6897 2.58673 56.7375 2.85977 56.8604 3.06455C56.9832 3.26933 57.031 3.49458 57.072 3.71983C57.1129 3.91778 57.1812 4.10892 57.2153 4.30687C57.2494 4.50482 57.4679 4.67546 57.4952 4.87342C57.5225 5.07137 57.3655 5.29663 57.3928 5.49458C57.4201 5.69253 57.543 5.88367 57.5634 6.08162C57.5839 6.27957 57.6658 6.47752 57.6863 6.67547C57.7068 6.87342 57.7273 7.0782 57.7409 7.27616C57.7546 7.47411 57.5771 7.6857 57.5907 7.88365C57.6044 8.08161 57.5907 8.28639 57.5907 8.48434C57.5907 8.68229 57.7477 8.88025 57.7477 9.08502C57.7477 9.2898 57.7341 9.48776 57.7341 9.68571C57.7341 9.88366 57.6522 10.0884 57.6454 10.2864C57.6385 10.4843 57.7273 10.6891 57.7204 10.8871C57.7136 11.085 57.7204 11.2898 57.7068 11.4877C57.6931 11.6857 57.618 11.8837 57.6112 12.0884C57.6044 12.2932 57.6658 12.4912 57.6522 12.6959C57.6385 12.9007 57.6454 13.0987 57.6317 13.2966C57.618 13.4946 57.4133 13.6857 57.3996 13.8837C57.386 14.0816 57.386 14.2864 57.3723 14.4843C57.3587 14.6823 57.3723 14.8871 57.3655 15.0918C57.3587 15.2966 57.4064 15.4946 57.3928 15.6994C57.3791 15.9041 57.4269 16.1021 57.4133 16.3068C57.3996 16.5116 57.2768 16.7027 57.2699 16.9007C57.2631 17.0987 57.2904 17.3034 57.2836 17.5014C57.2768 17.6993 57.2221 17.9041 57.2085 18.1021C57.1948 18.3 57.2972 18.5048 57.2904 18.7096C57.2836 18.9144 57.3177 19.1123 57.3109 19.3103C57.3041 19.5082 57.1675 19.7062 57.1607 19.9041C57.1539 20.1021 57.0993 20.3 57.0856 20.5048C57.072 20.7096 57.1812 20.9144 57.1675 21.1123C57.1539 21.3103 57.0037 21.5014 56.9901 21.6993C56.9764 21.8973 57.0174 22.1021 56.9969 22.3C56.9764 22.498 56.9832 22.6959 56.9696 22.8939C56.9559 23.0918 56.9969 23.2966 56.9764 23.4946C56.9559 23.6925 56.8945 23.8836 56.874 24.0816C56.8535 24.2795 56.9764 24.4911 56.9559 24.6891C56.9355 24.887 56.7375 25.0713 56.7239 25.2693C56.7102 25.4673 56.8058 25.672 56.7921 25.87C56.7785 26.0679 56.6624 26.2591 56.6488 26.457C56.6351 26.655 56.6965 26.8597 56.6829 27.0577C56.6692 27.2556 56.7443 27.4604 56.7307 27.6584C56.717 27.8563 56.5942 28.0475 56.5805 28.2454C56.5669 28.4434 56.6556 28.6481 56.6488 28.8461C56.6351 29.0372 56.5191 29.2215 56.5122 29.4058C56.5054 29.5901 56.5669 29.7881 56.56 29.9792C56.5532 30.1703 56.3689 30.3546 56.3621 30.5458C56.3553 30.7369 56.3621 30.928 56.3484 31.1123C56.3348 31.2966 56.3621 31.4946 56.3553 31.6789C56.3484 31.8632 56.4986 32.0611 56.4918 32.2522C56.4849 32.4434 56.3689 32.6277 56.3621 32.8188C56.3553 33.0099 56.3211 33.1942 56.3143 33.3853C56.3075 33.5765 56.3143 33.7676 56.3143 33.9519C56.3143 34.1362 56.4781 34.341 56.4645 34.5321C56.4508 34.7369 56.2187 34.9212 56.2051 35.1259C56.1914 35.3307 56.2256 35.5355 56.2051 35.7335C56.1846 35.9314 56.2802 36.143 56.2665 36.3478C56.2529 36.5526 56.2938 36.7573 56.2733 36.9553C56.2529 37.1532 56.2051 37.358 56.1914 37.556C56.1778 37.7539 56.1027 37.9519 56.089 38.1567C56.0754 38.3614 55.932 38.5526 55.9184 38.7505C55.9047 38.9485 56.0003 39.1601 55.9798 39.3648C55.9593 39.5696 55.8706 39.7607 55.857 39.9655C55.8433 40.1703 55.9593 40.3819 55.9389 40.5799C55.9184 40.7778 55.857 40.9758 55.8433 41.1805C55.8297 41.3853 55.8092 41.5833 55.7955 41.7881C55.7819 41.9928 55.7477 42.1908 55.7341 42.3887C55.7204 42.5867 55.6044 42.7846 55.5839 42.9826C55.5703 43.1805 55.7409 43.3853 55.7273 43.5833C55.7136 43.7812 55.6249 43.9655 55.6112 44.1635C55.5976 44.3614 55.5908 44.5526 55.5771 44.7505C55.5634 44.9485 55.6317 45.1464 55.6112 45.3444C55.5907 45.5423 55.5634 45.7334 55.5566 45.9246C55.5498 46.1157 55.3518 46.3 55.3382 46.4979C55.3245 46.6959 55.4201 46.8938 55.4133 47.0918C55.4064 47.2898 55.4815 47.4945 55.4747 47.6993C55.4679 47.9041 55.2358 48.0884 55.2221 48.2932C55.2085 48.4979 55.2768 48.6959 55.2631 48.8939C55.2495 49.0918 55.1675 49.2897 55.1607 49.4945C55.1539 49.6993 55.3723 49.9041 55.3655 50.102C55.3587 50.3 55.3109 50.4979 55.2972 50.7027C55.2836 50.9075 55.1812 51.0986 55.1744 51.2966C55.1675 51.4945 55.2221 51.6993 55.2153 51.8973C55.2085 52.0952 55.1539 52.2932 55.1402 52.4979C55.1266 52.7027 55.2563 52.9075 55.2495 53.1054C55.2426 53.3034 55.2085 53.5082 55.2017 53.7061C55.1948 53.9109 55.0652 54.1157 55.0583 54.3205C55.0515 54.5252 54.9628 54.73 54.9491 54.9348C54.9355 55.1396 55.072 55.358 55.0583 55.5628C55.0447 55.7676 55.072 55.9792 55.0583 56.1839C55.0447 56.3887 54.8262 56.5867 54.8126 56.7914C54.7989 56.9962 54.9969 57.2147 54.9901 57.4194C54.9901 57.631 54.9218 57.8358 54.9218 58.0474C54.9218 58.259 54.9901 58.4706 54.9901 58.6754C54.9901 58.8802 54.7921 59.0918 54.7853 59.3034C54.7785 59.515 54.8945 59.7266 54.8945 59.9314C54.8945 60.1362 54.7921 60.3478 54.7853 60.5594C54.7785 60.771 54.8604 60.9826 54.8604 61.1873C54.8604 61.3921 54.7785 61.6037 54.7716 61.8153C54.7648 62.0269 54.9286 62.2454 54.9218 62.4501C54.915 62.614 54.8399 62.8051 54.8331 63.0372C54.8331 63.2147 54.7307 63.4126 54.7239 63.631C54.7239 63.8153 54.8945 64.0133 54.8945 64.2249C54.8945 64.416 54.6761 64.614 54.6829 64.8187C54.6829 65.0099 54.6829 65.2078 54.6829 65.4126C54.6829 65.6037 54.6829 65.8017 54.6829 66.0064C54.6829 66.2112 54.6897 66.4024 54.6966 66.6003C54.7034 66.7983 54.8877 66.9894 54.8877 67.1942C54.8877 67.3989 54.9218 67.5901 54.9286 67.788C54.9355 67.986 54.7648 68.1839 54.7716 68.3887C54.7785 68.5935 54.7375 68.7846 54.7443 68.9894C54.7512 69.1942 54.8194 69.3853 54.8194 69.5833C54.8194 69.7812 54.8399 69.9791 54.8467 70.1771C54.8535 70.3751 54.9082 70.573 54.9082 70.771C54.9082 70.9689 54.8058 71.1669 54.8058 71.3716C54.8058 71.5764 54.874 71.7675 54.8809 71.9655C54.8877 72.1634 55.0037 72.3614 55.0105 72.5593C55.0174 72.7573 54.9969 72.9553 55.0037 73.16C55.0105 73.3648 55.0037 73.5628 55.0037 73.7607C55.0037 73.9587 54.9901 74.1634 55.0037 74.3614C55.0174 74.5593 54.9696 74.7641 54.9764 74.9621C54.9832 75.16 55.1129 75.358 55.1198 75.5559C55.1266 75.7539 55.0788 75.9587 55.0856 76.1566C55.0925 76.3546 55.1539 76.5525 55.1539 76.7505C55.1539 76.9484 55.0037 77.1532 55.0105 77.3512C55.0174 77.5491 54.9491 77.7539 54.9559 77.9518C54.9628 78.1498 55.0174 78.3477 55.0242 78.5457C55.031 78.7437 55.0037 78.9484 55.0105 79.1464C55.0174 79.3443 55.072 79.5491 55.072 79.7402C55.072 79.9314 55.0037 80.143 55.0105 80.3409C55.0174 80.5389 55.1061 80.7436 55.1061 80.9348C55.1061 81.1395 55.2426 81.3375 55.2426 81.5286C55.2426 81.7334 55.1061 81.9382 55.1061 82.1225C55.1061 82.3341 55.2153 82.532 55.2153 82.7232C55.2153 82.9348 55.0993 83.1327 55.0925 83.317C55.0925 83.5423 54.9969 83.7334 54.9901 83.904C54.9764 84.1634 55.1334 84.3819 55.1129 84.5116C55.0788 84.7163 54.9969 84.9143 54.9286 85.0918C54.8535 85.2829 54.6419 85.3784 54.5123 85.5286C54.3826 85.6788 54.3075 85.8699 54.1368 85.9791C53.9798 86.0747 53.7887 86.1293 53.5839 86.1907C53.4064 86.2453 53.2222 86.3272 53.0105 86.3614C52.8262 86.3887 52.6283 86.3341 52.4372 86.3614C52.246 86.3887 52.0549 86.3409 51.8706 86.3614C51.6863 86.3819 51.5088 86.5457 51.3177 86.5593C51.1266 86.573 50.9286 86.4501 50.7307 86.4638C50.5327 86.4774 50.3621 86.6959 50.1641 86.7095C49.9662 86.7232 49.7751 86.6139 49.5839 86.6276C49.3928 86.6413 49.2017 86.6822 49.0106 86.6958C48.8194 86.7095 48.6215 86.6617 48.4304 86.6685C48.2392 86.6754 48.0481 86.7163 47.857 86.73C47.6658 86.7436 47.4679 86.6276 47.2699 86.6344C47.072 86.6412 46.8945 86.7914 46.7034 86.7982C46.5123 86.8051 46.3211 86.8392 46.13 86.846C45.9389 86.8528 45.7409 86.7846 45.5498 86.7982C45.3587 86.8119 45.1607 86.7709 44.9696 86.7846C44.7785 86.7982 44.5942 86.9689 44.403 86.9825C44.2119 86.9962 44.0208 86.9962 43.8297 87.0098C43.6385 87.0235 43.4338 86.9075 43.2426 86.9211C43.0515 86.9348 42.8672 87.0849 42.6761 87.0986C42.4781 87.1122 42.2734 87.0781 42.0754 87.0986C41.8775 87.1191 41.6727 87.0303 41.4747 87.044C41.2768 87.0576 41.0788 87.0986 40.8809 87.1122C40.6829 87.1259 40.4918 87.2214 40.2938 87.2351C40.0959 87.2487 39.9048 87.3853 39.7068 87.3989C39.5089 87.4126 39.3041 87.3716 39.1061 87.3853C38.9082 87.3989 38.7102 87.433 38.5123 87.4467C38.3143 87.4604 38.1095 87.3784 37.9116 87.3921C37.7136 87.4058 37.5157 87.3921 37.3177 87.3921C37.1198 87.3921 36.9218 87.4672 36.7239 87.4808C36.5259 87.4945 36.328 87.5764 36.13 87.5832C35.9321 87.59 35.7341 87.6105 35.5362 87.6242C35.3382 87.6378 35.1403 87.6242 34.9423 87.6242C34.7444 87.6242 34.5396 87.5354 34.3416 87.5423C34.1437 87.5491 33.9526 87.6924 33.7546 87.6993C33.5566 87.7061 33.3587 87.6993 33.1607 87.6993C32.9628 87.6993 32.7648 87.6651 32.5601 87.672C32.3553 87.6788 32.1642 87.7539 31.9662 87.7607C31.7683 87.7675 31.5635 87.5627 31.3655 87.5627C31.1676 87.5627 30.9696 87.7744 30.7717 87.7744C30.5737 87.7744 30.3689 87.6037 30.171 87.6037C29.973 87.6037 29.7751 87.7061 29.5771 87.7061C29.3792 87.7061 29.1812 87.7744 28.9833 87.7744C28.7853 87.7744 28.5874 87.7675 28.3894 87.7675C28.1915 87.7675 27.9935 87.6788 27.7956 87.6788C27.5976 87.6788 27.3997 87.7812 27.2017 87.7812C27.0038 87.7812 26.8058 87.7675 26.6078 87.7607C26.4031 87.7607 26.2051 87.7948 26.0003 87.7948C25.7956 87.7948 25.5976 87.6515 25.3928 87.6447C25.1881 87.6378 24.9901 87.672 24.7853 87.6651C24.5805 87.6583 24.3826 87.6378 24.1778 87.631C23.973 87.6242 23.7751 87.5969 23.5703 87.5969C23.3655 87.5969 23.1676 87.5286 22.9628 87.5218C22.758 87.515 22.5532 87.5969 22.3553 87.5901C22.1573 87.5832 21.9457 87.6993 21.7478 87.6924C21.5498 87.6856 21.3451 87.4808 21.1471 87.4808C20.9492 87.4808 20.7375 87.6378 20.5328 87.6378C20.328 87.6378 20.13 87.6037 19.9253 87.5969C19.7205 87.59 19.5225 87.6378 19.3178 87.631C19.113 87.6242 18.915 87.4945 18.7171 87.4876C18.5191 87.4808 18.3075 87.59 18.1096 87.5832C17.9116 87.5764 17.7068 87.5696 17.5021 87.5627C17.2973 87.5559 17.0993 87.4126 16.9014 87.4057C16.7034 87.3989 16.4918 87.4604 16.2939 87.4535C16.0959 87.4467 15.8843 87.4877 15.6864 87.4808C15.4884 87.474 15.2836 87.474 15.0789 87.4672C14.8741 87.4604 14.6693 87.4877 14.4645 87.4808C14.2597 87.474 14.0686 87.2965 13.8638 87.2829C13.6591 87.2692 13.4543 87.3238 13.2495 87.3102C13.0447 87.2965 12.8331 87.4126 12.6352 87.3989C12.4372 87.3853 12.2324 87.2761 12.0345 87.2624C11.8365 87.2488 11.6249 87.2965 11.4202 87.2829C11.2154 87.2692 11.0174 87.2214 10.8126 87.2078C10.6079 87.1941 10.4167 87.0645 10.212 87.0508C10.0072 87.0371 9.80923 86.9825 9.60445 86.9621C9.39968 86.9416 9.18125 87.1054 8.97647 87.0849C8.77169 87.0644 8.59422 86.8665 8.38944 86.8392C8.18466 86.8119 7.97988 86.8119 7.78193 86.7846C7.58398 86.7573 7.37238 86.7846 7.1676 86.7505C6.96282 86.7163 6.77169 86.6617 6.56691 86.6208C6.36214 86.5798 6.17784 86.5047 5.97306 86.4706C5.76828 86.4365 5.5635 86.4501 5.36555 86.4092C5.16077 86.3614 4.96965 86.3 4.76487 86.2453C4.56009 86.1907 4.34849 86.2317 4.15054 86.1976C3.94576 86.1566 3.74098 86.0883 3.56351 86.0269C3.36555 85.9587 3.26316 85.6993 3.09252 85.6105C2.90822 85.515 2.69661 85.4945 2.55327 85.3716C2.39627 85.2419 2.23245 85.1259 2.10958 84.9689C1.98672 84.8119 1.80924 84.6754 1.71368 84.4979C1.61811 84.3204 1.52938 84.1293 1.46795 83.9382C1.40651 83.7471 1.57033 83.5013 1.52938 83.3034C1.48842 83.1122 1.31095 82.9484 1.27682 82.7505C1.24269 82.5525 1.22904 82.3614 1.20173 82.1634C1.17443 81.9655 1.08569 81.7812 1.05839 81.5901C1.03109 81.3989 0.962826 81.2078 0.935522 81.0098C0.908218 80.8119 0.983304 80.6071 0.956 80.4092C0.928697 80.2112 0.887741 80.0201 0.867263 79.829C0.846785 79.6378 0.819481 79.4399 0.799004 79.2419C0.778526 79.044 0.867263 78.8392 0.853611 78.6481C0.839959 78.457 0.7717 78.259 0.758048 78.0679C0.744397 77.8767 0.744397 77.672 0.730745 77.4808C0.717093 77.2897 0.764874 77.0849 0.758048 76.887C0.751222 76.689 0.525967 76.5047 0.519141 76.3068C0.512315 76.1088 0.566922 75.9109 0.560096 75.7129C0.553271 75.515 0.682963 75.317 0.676137 75.1191C0.669311 74.9211 0.676137 74.7232 0.662485 74.5321C0.648833 74.3409 0.662485 74.1361 0.655659 73.945C0.648833 73.7402 0.580574 73.5355 0.573748 73.3307C0.566922 73.1259 0.512315 72.9211 0.498663 72.7163C0.485011 72.5116 0.355318 72.3068 0.341666 72.102C0.328014 71.8972 0.430403 71.6856 0.423577 71.4809C0.416751 71.2761 0.314362 71.0713 0.307536 70.8665C0.300711 70.6618 0.437229 70.4501 0.430403 70.2454C0.423577 70.0406 0.36897 69.8358 0.362144 69.631C0.355318 69.4262 0.266581 69.2215 0.259755 69.0099C0.252929 68.7983 0.43723 68.5935 0.43723 68.3887C0.43723 68.1839 0.314363 67.9792 0.314363 67.7675C0.314363 67.5559 0.266581 67.3512 0.266581 67.1464C0.266581 66.9484 0.457707 66.7573 0.457707 66.5593C0.457707 66.3614 0.444055 66.1635 0.450881 65.9723C0.457707 65.7812 0.457707 65.5764 0.464533 65.3853C0.471359 65.1942 0.396274 64.9894 0.4031 64.7914C0.409926 64.5935 0.314363 64.3955 0.321189 64.1976C0.328015 63.9996 0.525966 63.8085 0.532792 63.6106C0.539618 63.4126 0.546444 63.2146 0.55327 63.0235C0.560096 62.8324 0.4031 62.6276 0.409926 62.4297C0.416752 62.2317 0.382622 62.0338 0.389448 61.8358C0.396274 61.6379 0.560096 61.4467 0.566922 61.2488C0.573748 61.0508 0.498662 60.8529 0.505488 60.6549C0.512314 60.457 0.55327 60.2659 0.55327 60.0679C0.55327 59.8699 0.498662 59.672 0.505488 59.474C0.512314 59.2761 0.560096 59.085 0.566922 58.887C0.573748 58.6891 0.505489 58.4911 0.512314 58.2932C0.51914 58.0952 0.621529 57.9041 0.628355 57.7061C0.635181 57.5082 0.655659 57.3102 0.662485 57.1191C0.669311 56.928 0.662485 56.7232 0.662485 56.5321C0.662485 56.3409 0.744396 56.143 0.751222 55.945C0.758048 55.7471 0.751222 55.5491 0.751222 55.358C0.751222 55.1669 0.5874 54.9621 0.5874 54.7641C0.5874 54.5662 0.717093 54.3751 0.723919 54.1771C0.730745 53.9792 0.676137 53.7812 0.676137 53.5833C0.676137 53.3853 0.703441 53.1874 0.710266 52.9962C0.717092 52.8051 0.662485 52.6003 0.669311 52.4024C0.669311 52.2044 0.689789 52.0133 0.696615 51.8154C0.703441 51.6174 0.696614 51.4263 0.70344 51.2283C0.710266 51.0304 0.785352 50.8392 0.792178 50.6481C0.799003 50.457 0.730744 50.2522 0.73757 50.0611C0.744396 49.87 0.833134 49.672 0.83996 49.4809C0.846785 49.2897 0.83996 49.0918 0.83996 48.8939C0.83996 48.6959 0.983304 48.5048 0.99013 48.3136C0.996955 48.1225 0.839959 47.9177 0.846785 47.7198C0.853611 47.5218 0.92187 47.3307 0.928696 47.1328C0.935522 46.9348 1.01743 46.7437 1.02426 46.5525C1.03109 46.3614 0.880915 46.1566 0.887741 45.9587C0.894567 45.7607 0.880915 45.5696 0.887741 45.3717C0.894567 45.1737 1.04474 44.9826 1.05156 44.7915C1.05839 44.6003 1.09934 44.4024 1.10617 44.2044C1.113 44.0065 1.10617 43.8154 1.113 43.6174C1.11982 43.4195 1.02426 43.2215 1.03108 43.0304C1.03791 42.8392 1.10617 42.6413 1.113 42.4433C1.11982 42.2454 1.1403 42.0543 1.14713 41.8563C1.15395 41.6584 1.23586 41.4672 1.23586 41.2761C1.23586 41.085 1.23586 40.887 1.23586 40.6891C1.23586 40.4911 1.18126 40.2932 1.18808 40.1021C1.19491 39.9109 1.18808 39.713 1.19491 39.515C1.20173 39.3171 1.09934 39.1191 1.10617 38.928C1.113 38.7369 1.31095 38.5457 1.31777 38.3478C1.3246 38.1498 1.33825 37.9587 1.34508 37.7608C1.34508 37.5628 1.13347 37.3648 1.1403 37.1669C1.14713 36.9689 1.31777 36.7778 1.3246 36.5867C1.33143 36.3956 1.35873 36.1976 1.36556 35.9997C1.37238 35.8017 1.20856 35.6038 1.21539 35.4058C1.22221 35.2079 1.26317 35.0167 1.26999 34.8188C1.27682 34.6208 1.41334 34.4297 1.42016 34.2386C1.42699 34.0475 1.44064 33.8495 1.44747 33.6515C1.45429 33.4536 1.28364 33.2556 1.29047 33.0577C1.2973 32.8597 1.2973 32.6686 1.30412 32.4707C1.31095 32.2727 1.46112 32.0816 1.46795 31.8905C1.47477 31.6993 1.41334 31.4945 1.42016 31.3034C1.42699 31.1123 1.52938 30.9144 1.5362 30.7164C1.54303 30.5184 1.41334 30.3205 1.42016 30.1225C1.42699 29.9246 1.49525 29.7335 1.49525 29.5355C1.49525 29.3376 1.57033 29.1464 1.57716 28.9485C1.58399 28.7505 1.63859 28.5594 1.64542 28.3614C1.65225 28.1635 1.46112 27.9655 1.46795 27.7676C1.46795 27.5765 1.50207 27.3853 1.5089 27.1942C1.51573 27.0031 1.63177 26.812 1.63177 26.6208C1.63177 26.4297 1.57716 26.2386 1.57716 26.0475C1.57716 25.8563 1.55668 25.6652 1.55668 25.4741C1.55668 25.283 1.56351 25.0918 1.57033 24.9007C1.57716 24.7096 1.4816 24.5184 1.4816 24.3273C1.4816 24.1362 1.5089 23.9451 1.5089 23.7539C1.5089 23.5628 1.65225 23.3717 1.65225 23.1806C1.65225 22.9894 1.50207 22.7983 1.5089 22.6004C1.51573 22.4024 1.71368 22.2181 1.7205 22.027C1.72733 21.8359 1.61129 21.6379 1.61812 21.4468C1.62494 21.2556 1.54303 21.0577 1.54986 20.8666C1.55668 20.6686 1.65907 20.4775 1.6659 20.2795C1.67272 20.0816 1.57716 19.8836 1.59081 19.6857C1.60446 19.4877 1.61129 19.2966 1.61812 19.0987C1.62494 18.9007 1.73416 18.7096 1.74781 18.5185C1.76146 18.3273 1.76829 18.1294 1.78194 17.9314C1.79559 17.7335 1.91163 17.5492 1.92528 17.3512C1.93893 17.1533 1.78876 16.9485 1.80242 16.7574C1.81607 16.5662 1.89798 16.3683 1.91163 16.1772C1.92528 15.986 1.89798 15.7813 1.91163 15.5901C1.92528 15.399 1.97306 15.201 1.98672 15.0031C2.00037 14.8051 2.06863 14.614 2.08228 14.4161C2.09593 14.2181 2.10958 14.027 2.12323 13.829C2.13689 13.6311 1.94576 13.4263 1.95941 13.2284C1.97306 13.0168 2.18467 12.8188 2.19832 12.6072C2.21197 12.3956 2.21197 12.184 2.22562 11.9792C2.23927 11.7744 2.17784 11.556 2.18467 11.3444C2.19149 11.1328 2.2461 10.928 2.25975 10.7164C2.2734 10.5048 2.30071 10.3 2.31436 10.0884C2.32801 9.87683 2.16419 9.65841 2.17784 9.45363C2.19149 9.24885 2.18467 9.03041 2.19832 8.82563C2.21197 8.62086 2.2734 8.40924 2.28706 8.19764C2.30071 7.99286 2.44405 7.79492 2.45088 7.59014C2.45771 7.38537 2.34166 7.17376 2.35532 6.96898C2.36897 6.7642 2.47818 6.56626 2.49183 6.36148C2.50549 6.15671 2.55327 5.95191 2.56692 5.74713C2.58057 5.54236 2.39627 5.32393 2.41675 5.11233C2.43723 4.90072 2.49866 4.70278 2.51231 4.498C2.52596 4.29322 2.63518 4.09526 2.64883 3.89048C2.66248 3.6857 2.53279 3.46728 2.54644 3.26251C2.56009 3.05773 2.65566 2.84613 2.66931 2.64818L2.642 2.6823Z" fill="#082C4C"/>
</svg>
