<svg width="68" height="107" viewBox="0 0 68 107" fill="none" xmlns="http://www.w3.org/2000/svg">
<path d="M56.8818 54.7643C57.0251 54.9008 57.0866 54.9964 57.2231 55.1261C57.3664 55.2626 57.5439 55.3582 57.6804 55.4879C57.8238 55.6244 57.8784 55.8428 58.0149 55.9725C58.1514 56.1022 58.2879 56.2455 58.4244 56.3752C58.561 56.5049 58.7862 56.5595 58.9159 56.696C59.0729 56.853 59.2163 57.0237 59.3664 57.1944C59.5166 57.365 59.5712 57.6039 59.7145 57.7745C59.8579 57.9452 60.0354 58.0885 60.1651 58.266C60.2879 58.4298 60.4927 58.5322 60.6019 58.7029C60.7111 58.8735 60.8203 59.0442 60.9296 59.2148C61.0388 59.3855 61.1139 59.5766 61.2231 59.7472C61.3323 59.9179 61.3255 60.1636 61.4279 60.3343C61.5371 60.5117 61.7828 60.6005 61.8852 60.778C61.9876 60.9554 62.1309 61.1193 62.2265 61.3036C62.3221 61.4879 62.2265 61.7677 62.3084 61.9588C62.3903 62.15 62.5541 62.3001 62.636 62.4844C62.718 62.6687 62.7384 62.8872 62.8203 63.0783C62.9023 63.2694 63.0524 63.4333 63.1207 63.6244C63.1889 63.8155 63.2436 64.0203 63.3118 64.2114C63.3801 64.4025 63.3596 64.6278 63.421 64.8257C63.4825 65.01 63.5575 65.1943 63.6258 65.3786C63.6941 65.5629 63.7828 65.7336 63.8511 65.9179C63.9193 66.1022 64.0695 66.2524 64.1309 66.4367C64.1924 66.621 64.247 66.8053 64.3016 66.9964C64.3494 67.1739 64.2947 67.3718 64.3357 67.5493C64.3767 67.7268 64.6087 67.8564 64.6497 68.0339C64.6907 68.2114 64.6292 68.4093 64.6633 68.5868C64.6975 68.7643 64.6497 68.9623 64.6838 69.1397C64.718 69.3172 64.7794 69.4878 64.8135 69.6653C64.8545 69.8633 65.0456 70.0271 65.0866 70.2251C65.1275 70.423 65.0183 70.6483 65.0524 70.8462C65.0866 71.0442 65.1685 71.2353 65.2026 71.4264C65.2367 71.6175 65.2162 71.8291 65.2504 72.0271C65.2845 72.225 65.4756 72.3957 65.5098 72.5937C65.5439 72.7916 65.4074 73.0169 65.4347 73.2148C65.462 73.4128 65.6531 73.5902 65.6804 73.7882C65.7077 73.9861 65.6599 74.1977 65.6804 74.3957C65.7009 74.5936 65.7487 74.7916 65.7691 74.9896C65.7896 75.1875 65.7418 75.3991 65.7623 75.5971C65.7828 75.795 65.8374 75.993 65.8579 76.1909C65.8784 76.3889 65.9603 76.5868 65.9808 76.7848C66.0012 76.9827 66.0627 77.1807 66.0763 77.3786C66.09 77.5766 66.1241 77.7813 66.1309 77.9793C66.1377 78.1772 66.0285 78.3889 66.0354 78.5868C66.0422 78.7848 66.0763 78.9895 66.0831 79.1875C66.0831 79.3855 65.9808 79.5834 65.9808 79.7813C65.9808 79.9793 66.1787 80.1773 66.1719 80.3752C66.1651 80.5732 66.1036 80.7711 66.09 80.9691C66.0763 81.167 65.9808 81.3581 65.9671 81.5561C65.9534 81.7541 65.9398 81.952 65.9125 82.1431C65.8852 82.3342 65.9125 82.539 65.8852 82.737C65.8579 82.9349 65.8852 83.1397 65.8511 83.3308C65.8169 83.522 65.6531 83.6926 65.6122 83.8906C65.5712 84.0885 65.5985 84.2933 65.5575 84.4844C65.5166 84.6755 65.4552 84.8667 65.4006 85.0578C65.3459 85.2489 65.2299 85.4196 65.1753 85.6107C65.1207 85.8018 65.1002 85.9998 65.0388 86.1841C64.9773 86.3684 64.9023 86.5527 64.834 86.737C64.7657 86.9213 64.6429 87.0851 64.5746 87.2694C64.5064 87.4537 64.52 87.6721 64.4449 87.8564C64.3698 88.0407 64.3698 88.2523 64.2879 88.4366C64.206 88.6209 63.9876 88.7301 63.8988 88.9076C63.8101 89.0851 63.735 89.2626 63.6463 89.44C63.5575 89.6175 63.4415 89.7745 63.3459 89.952C63.2504 90.1295 63.2367 90.3411 63.1343 90.5117C63.032 90.6824 63.0319 90.9144 62.9296 91.0783C62.8272 91.2421 62.636 91.3581 62.5268 91.5288C62.4176 91.6926 62.3425 91.8769 62.2333 92.0407C62.1241 92.2045 61.8988 92.2865 61.7896 92.4435C61.6804 92.6004 61.7009 92.8598 61.5849 93.0168C61.4688 93.1738 61.2982 93.2967 61.1821 93.4469C61.0661 93.597 60.8613 93.6926 60.7384 93.8496C60.6156 94.0066 60.5678 94.2182 60.4449 94.3684C60.3221 94.5185 60.1378 94.6209 60.0081 94.7643C59.8784 94.9076 59.7145 95.0237 59.5849 95.167C59.4552 95.3104 59.3186 95.4537 59.1821 95.597C59.0456 95.7404 58.9296 95.8905 58.7862 96.0339C58.6429 96.1772 58.4927 96.2933 58.3494 96.4298C58.206 96.5663 58.1446 96.7779 58.0012 96.9144C57.8579 97.051 57.7146 97.1806 57.5644 97.3103C57.4142 97.44 57.1753 97.4605 57.032 97.5902C56.8886 97.7199 56.8477 97.9793 56.6975 98.1021C56.5473 98.225 56.3767 98.3342 56.2265 98.4503C56.0763 98.5663 55.9603 98.7438 55.8033 98.8667C55.6463 98.9895 55.4893 99.0987 55.3323 99.2148C55.1753 99.3308 54.9227 99.3172 54.7589 99.4264C54.5951 99.5356 54.4722 99.6994 54.3084 99.8086C54.1446 99.9247 54.0081 100.075 53.8442 100.184C53.6804 100.293 53.462 100.327 53.2913 100.437C53.1207 100.546 53.0251 100.764 52.8545 100.867C52.6838 100.969 52.5064 101.065 52.3357 101.167C52.1651 101.269 51.9603 101.317 51.7896 101.413C51.619 101.508 51.4074 101.536 51.2299 101.631C51.0524 101.727 50.9569 101.966 50.7726 102.054C50.5883 102.143 50.3903 102.184 50.2129 102.273C50.0354 102.362 49.8306 102.396 49.6463 102.478C49.462 102.559 49.2982 102.669 49.1139 102.751C48.9296 102.833 48.7111 102.819 48.5268 102.894C48.3425 102.969 48.1514 103.024 47.9671 103.092C47.7828 103.16 47.6053 103.256 47.421 103.331C47.2367 103.406 47.0729 103.536 46.8818 103.597C46.6907 103.658 46.4722 103.624 46.2811 103.693C46.09 103.761 45.9466 103.938 45.7555 104C45.5644 104.061 45.3664 104.088 45.1753 104.143C44.9842 104.198 44.7931 104.245 44.6019 104.3C44.4108 104.355 44.2538 104.525 44.0627 104.58C43.8784 104.635 43.6804 104.641 43.4893 104.689C43.2982 104.737 43.0866 104.682 42.9023 104.73C42.718 104.778 42.5337 104.853 42.3494 104.901C42.1651 104.949 42.0081 105.133 41.8238 105.181C41.6395 105.228 41.4211 105.167 41.2299 105.215C41.0388 105.263 40.834 105.222 40.6429 105.269C40.4518 105.317 40.2948 105.488 40.1105 105.529C39.9262 105.57 39.7146 105.529 39.5234 105.577C39.3323 105.624 39.148 105.658 38.9569 105.706C38.7658 105.754 38.5883 105.829 38.3972 105.877C38.206 105.925 38.0217 105.959 37.8306 106C37.6395 106.041 37.4484 106.068 37.2572 106.109C37.0661 106.15 36.8955 106.28 36.7043 106.321C36.5132 106.362 36.2948 106.245 36.1037 106.28C35.9125 106.314 35.7214 106.334 35.5303 106.368C35.3323 106.402 35.1344 106.416 34.9364 106.443C34.7385 106.471 34.5542 106.6 34.363 106.621C34.1719 106.641 33.9671 106.648 33.7692 106.676C33.5712 106.703 33.3801 106.812 33.1822 106.833C32.9842 106.853 32.7863 106.887 32.5883 106.901C32.3903 106.914 32.1856 106.812 31.9876 106.819C31.7897 106.826 31.5917 106.867 31.3938 106.873C31.1958 106.88 30.9979 107.003 30.7999 107.003C30.602 107.003 30.404 106.86 30.1992 106.86C29.9944 106.86 29.8033 106.785 29.6054 106.778C29.4074 106.771 29.2026 106.914 29.0047 106.901C28.8067 106.887 28.6156 106.771 28.4177 106.757C28.2197 106.744 28.0081 106.86 27.8101 106.846C27.6122 106.833 27.4211 106.73 27.2231 106.703C27.0252 106.676 26.8409 106.546 26.6429 106.519C26.445 106.491 26.2197 106.655 26.0218 106.621C25.8238 106.587 25.6259 106.566 25.4279 106.532C25.2299 106.498 25.0456 106.396 24.8545 106.355C24.6497 106.314 24.4518 106.266 24.247 106.225C24.0422 106.184 23.8238 106.225 23.619 106.191C23.4142 106.157 23.2573 105.897 23.0525 105.863C22.8477 105.829 22.6293 105.877 22.4245 105.836C22.2197 105.795 22.0422 105.658 21.8375 105.618C21.6327 105.577 21.4074 105.631 21.2095 105.583C21.0115 105.536 20.7931 105.542 20.5951 105.488C20.3972 105.433 20.2402 105.235 20.0354 105.174C19.8443 105.119 19.6122 105.215 19.4279 105.16C19.2436 105.106 19.0661 104.996 18.8818 104.928C18.6975 104.86 18.561 104.676 18.3767 104.6C18.1924 104.525 17.9535 104.6 17.776 104.532C17.5986 104.464 17.4552 104.286 17.2777 104.211C17.1003 104.136 16.9228 104.054 16.7453 103.972C16.5678 103.891 16.3289 103.931 16.1583 103.843C15.9876 103.754 15.9057 103.488 15.7351 103.392C15.5644 103.297 15.3392 103.297 15.1685 103.201C14.9979 103.106 14.8614 102.955 14.6907 102.853C14.5201 102.751 14.3221 102.703 14.1583 102.594C13.9945 102.484 13.817 102.396 13.66 102.286C13.503 102.177 13.3938 101.986 13.2368 101.87C13.0798 101.754 12.9501 101.604 12.7931 101.488C12.6361 101.372 12.404 101.358 12.247 101.235C12.09 101.112 11.8921 101.051 11.7419 100.928C11.5917 100.805 11.5713 100.525 11.4279 100.396C11.2846 100.266 11.0661 100.218 10.916 100.089C10.7658 99.9588 10.5952 99.8564 10.4518 99.7199C10.3085 99.5834 10.2061 99.4127 10.0696 99.2762C9.93304 99.1397 9.8443 98.9486 9.70778 98.8121C9.57126 98.6755 9.29822 98.6687 9.16171 98.5254C9.02519 98.382 9.04566 98.1021 8.90915 97.952C8.77263 97.8086 8.62928 97.6789 8.49959 97.5288C8.3699 97.3786 8.13099 97.3308 8.0013 97.1806C7.8716 97.0305 7.72826 96.894 7.59857 96.7438C7.46887 96.5936 7.44157 96.3615 7.3187 96.2045C7.19584 96.0475 7.01154 95.9452 6.88867 95.7882C6.7658 95.6312 6.78628 95.3786 6.67024 95.2148C6.5542 95.051 6.34942 94.9622 6.24021 94.7984C6.13099 94.6346 5.92621 94.539 5.81017 94.3752C5.69413 94.2114 5.63952 94.0134 5.53031 93.8496C5.4211 93.6858 5.32553 93.5151 5.22314 93.3445C5.12076 93.1738 5.1071 92.9554 5.00471 92.7847C4.90233 92.6141 4.73168 92.4912 4.62929 92.3274C4.5269 92.1636 4.44499 91.9793 4.34942 91.8086C4.25386 91.638 4.05591 91.522 3.96035 91.3513C3.86478 91.1807 3.85113 90.9622 3.76239 90.7848C3.67366 90.6073 3.66001 90.3957 3.57127 90.2182C3.48253 90.0407 3.34601 89.8906 3.25728 89.7199C3.16854 89.5493 3.00472 89.4059 2.91598 89.2284C2.82724 89.051 2.76581 88.8667 2.6839 88.6824C2.60199 88.4981 2.64294 88.2728 2.56103 88.0885C2.47912 87.9042 2.35625 87.7472 2.28117 87.5697C2.20608 87.3923 2.08322 87.2284 2.00813 87.0441C1.93304 86.8598 1.79653 86.7029 1.72144 86.5254C1.64636 86.3411 1.53714 86.1704 1.46888 85.9861C1.40062 85.8018 1.35284 85.6039 1.29823 85.4127C1.24363 85.2216 1.29141 85.0032 1.2368 84.8121C1.18219 84.6209 1.12076 84.4366 1.07298 84.2387C1.0252 84.0407 0.956938 83.8633 0.915982 83.6653C0.875027 83.4674 0.793115 83.2831 0.758986 83.0919C0.724856 82.9008 0.786289 82.6892 0.758986 82.4912C0.731682 82.2933 0.547382 82.1226 0.526904 81.9247C0.506426 81.7267 0.492774 81.5288 0.46547 81.3308C0.438167 81.1329 0.595163 80.9213 0.574685 80.7233C0.554207 80.5254 0.506426 80.3342 0.492774 80.1363C0.479122 79.9383 0.369907 79.7472 0.356256 79.5493C0.342604 79.3513 0.308474 79.1534 0.301648 78.9554C0.294822 78.7575 0.397211 78.5527 0.390385 78.3547C0.383559 78.1568 0.267518 77.9656 0.260692 77.7677C0.253866 77.5697 0.322126 77.3718 0.322126 77.1738C0.322126 76.9759 0.417689 76.7779 0.417689 76.58C0.417689 76.382 0.226562 76.1841 0.226562 75.9861C0.226562 75.7882 0.356255 75.597 0.363081 75.3991C0.369907 75.2011 0.3153 75.0032 0.322126 74.8052C0.328952 74.6073 0.431341 74.4162 0.444993 74.2182C0.458645 74.0203 0.444992 73.8223 0.458644 73.6312C0.472296 73.4401 0.458645 73.2353 0.472296 73.0442C0.485948 72.853 0.424515 72.6483 0.444993 72.4503C0.465471 72.2524 0.636118 72.0749 0.656596 71.8769C0.677074 71.679 0.601989 71.4742 0.622466 71.2831C0.642944 71.0919 0.656596 70.894 0.6839 70.696C0.711204 70.4981 0.779463 70.3138 0.813593 70.1158C0.847723 69.9179 0.834071 69.7199 0.8682 69.5288C0.90233 69.3377 0.834071 69.1261 0.8682 68.9281C0.90233 68.7302 1.0798 68.5663 1.11393 68.3684C1.14806 68.1704 1.18219 67.9725 1.2368 67.7745C1.29141 67.5766 1.40745 67.4059 1.46888 67.2148C1.53032 67.0237 1.46888 66.7916 1.53714 66.6005C1.6054 66.4094 1.68731 66.2251 1.7624 66.0339C1.83748 65.8428 1.83748 65.6244 1.91257 65.4401C1.98765 65.2558 2.16513 65.1056 2.24021 64.9213C2.3153 64.7302 2.33577 64.5254 2.41086 64.3343C2.48595 64.1431 2.54055 63.952 2.62246 63.7677C2.70438 63.5834 2.80676 63.4059 2.88868 63.2216C2.97059 63.0373 3.04567 62.8462 3.12758 62.6619C3.20949 62.4776 3.37332 62.3343 3.46205 62.15C3.55079 61.9657 3.50301 61.7199 3.59175 61.5425C3.68048 61.365 3.96035 61.2763 4.05591 61.0988C4.15147 60.9213 4.11052 60.6687 4.20608 60.4913C4.30164 60.3138 4.42451 60.15 4.5269 59.9725C4.62929 59.795 4.7112 59.6107 4.81359 59.4401C4.91598 59.2694 4.98424 59.0715 5.08663 58.9008C5.18901 58.7302 5.45523 58.6688 5.57127 58.5049C5.68731 58.3411 5.79652 58.1773 5.91939 58.0203C6.04226 57.8633 6.12417 57.679 6.24703 57.522C6.3699 57.365 6.53372 57.2421 6.66341 57.092C6.79311 56.9418 6.82041 56.7029 6.95693 56.5527C7.09345 56.4025 7.25045 56.2797 7.38696 56.1363C7.52348 55.993 7.66683 55.8496 7.80334 55.7063C7.93986 55.5629 8.13782 55.481 8.28116 55.3445C8.42451 55.208 8.48594 54.9759 8.63611 54.8462C8.78628 54.7165 9.02519 54.6824 9.17536 54.5527C9.32553 54.423 9.44839 54.2592 9.60539 54.1363C9.76239 54.0135 9.8716 53.8292 10.0286 53.7063C10.1856 53.5834 10.3016 53.406 10.4586 53.2831C10.6156 53.1602 10.8955 53.2012 11.0593 53.0851C11.1958 52.9896 11.3801 52.8531 11.6122 52.6824C11.4689 52.5459 11.2914 52.3206 11.1481 52.1841C11.0047 52.0476 10.8682 51.9111 10.7317 51.7746C10.5952 51.638 10.4245 51.5288 10.288 51.3923C10.1515 51.2558 10.0013 51.1193 9.85795 50.9896C9.71461 50.8599 9.55078 50.7438 9.40061 50.621C9.25044 50.4981 9.1071 50.3616 8.9501 50.2455C8.79311 50.1295 8.62246 50.0339 8.47229 49.9111C8.32212 49.7882 8.13099 49.7063 7.99447 49.5698C7.85795 49.4333 7.72143 49.2899 7.59174 49.1466C7.46205 49.0032 7.4484 48.7575 7.32553 48.6073C7.20266 48.4572 7.03202 48.3479 6.91597 48.1909C6.79993 48.034 6.59516 47.9452 6.48594 47.7814C6.37673 47.6176 6.25386 47.4674 6.14464 47.3036C6.03543 47.1398 6.09686 46.8804 6.0013 46.7097C5.90574 46.5391 5.72826 46.423 5.6327 46.2524C5.53714 46.0817 5.49618 45.8838 5.40744 45.7131C5.31871 45.5425 5.24362 45.3582 5.15488 45.1875C5.06615 45.0169 4.87502 44.894 4.79311 44.7234C4.70437 44.5459 4.67024 44.3343 4.58833 44.1568C4.50642 43.9793 4.34943 43.8292 4.26751 43.6449C4.1856 43.4606 4.11052 43.2763 4.02861 43.092C3.9467 42.9077 3.89891 42.7165 3.82383 42.5254C3.74874 42.3343 3.70779 42.1432 3.63953 41.9589C3.57127 41.7746 3.52349 41.5766 3.45523 41.3923C3.38697 41.208 3.29823 41.0237 3.2368 40.8394C3.17536 40.6551 3.03885 40.4845 2.97741 40.2933C2.91598 40.1022 2.8682 39.9111 2.81359 39.72C2.75898 39.5288 2.70438 39.3377 2.64977 39.1466C2.59516 38.9555 2.49277 38.778 2.43134 38.5869C2.3699 38.3957 2.27434 38.2183 2.21973 38.0271C2.16513 37.8428 2.15148 37.6517 2.10369 37.4674C2.05591 37.2831 2.02861 37.092 1.98765 36.9077C1.9467 36.7234 1.86479 36.5459 1.82383 36.3548C1.78288 36.1637 1.91939 35.9452 1.88526 35.7609C1.85113 35.5766 1.68049 35.4128 1.65318 35.2217C1.62588 35.0306 1.67366 34.8326 1.65318 34.6483C1.6327 34.464 1.57127 34.2797 1.55079 34.0886C1.53031 33.8974 1.45523 33.72 1.43475 33.5288C1.41427 33.3377 1.4211 33.1466 1.40062 32.9623C1.38014 32.778 1.44158 32.58 1.4211 32.3889C1.40062 32.1978 1.33236 32.0135 1.31871 31.8292C1.30506 31.6449 1.24363 31.4538 1.22997 31.2626C1.21632 31.0715 1.16171 30.8804 1.16171 30.6961C1.16171 30.5118 1.29141 30.3207 1.30506 30.1295C1.31871 29.9384 1.33236 29.7541 1.35284 29.563C1.37332 29.3719 1.31189 29.1739 1.33919 28.9896C1.36649 28.8053 1.4484 28.621 1.47571 28.4367C1.50984 28.2388 1.47571 28.0271 1.50301 27.8292C1.53032 27.6312 1.66001 27.4469 1.68731 27.2422C1.71462 27.0374 1.82383 26.8531 1.85796 26.6551C1.89209 26.4572 1.86479 26.2456 1.89892 26.0476C1.93305 25.8497 1.83066 25.6244 1.86479 25.4265C1.89892 25.2285 2.06274 25.051 2.09687 24.8531C2.131 24.6551 2.00813 24.4231 2.04909 24.2251C2.09004 24.0272 2.22656 23.8497 2.26752 23.6517C2.30847 23.4538 2.34943 23.2558 2.39721 23.0579C2.44499 22.8599 2.54055 22.6756 2.58833 22.4777C2.63612 22.2865 2.65659 22.0886 2.7112 21.8975C2.76581 21.7063 2.75216 21.4947 2.81359 21.3104C2.87502 21.1261 2.99106 20.9555 3.05932 20.7644C3.12758 20.5732 3.18902 20.3889 3.2641 20.2046C3.33919 20.0203 3.52349 19.8838 3.6054 19.7063C3.68731 19.5289 3.6327 19.2831 3.71461 19.1057C3.79652 18.9282 3.89209 18.7507 3.98082 18.5732C4.06956 18.3958 4.13782 18.2115 4.23338 18.034C4.32895 17.8565 4.39721 17.6722 4.49277 17.5016C4.58833 17.3309 4.79994 17.2217 4.90232 17.051C5.00471 16.8804 5.05932 16.6824 5.16171 16.5118C5.2641 16.3412 5.38697 16.1842 5.48936 16.0203C5.59174 15.8565 5.57127 15.6039 5.68048 15.4401C5.78287 15.2763 6.00813 15.1944 6.11051 15.0374C6.2129 14.8804 6.28799 14.7029 6.3972 14.5391C6.50642 14.3753 6.63611 14.2388 6.74533 14.0818C6.85454 13.9248 6.9228 13.7405 7.03202 13.5835C7.14123 13.4265 7.18219 13.2217 7.2914 13.0647C7.40062 12.9077 7.55079 12.778 7.66683 12.6278C7.78287 12.4777 8.00812 12.4094 8.12416 12.2592C8.24021 12.1091 8.39038 11.9862 8.50642 11.836C8.62246 11.6859 8.62246 11.4333 8.74532 11.29C8.86819 11.1466 9.01836 11.0238 9.14123 10.8804C9.26409 10.7371 9.40061 10.6005 9.53031 10.464C9.66 10.3275 9.85112 10.2456 9.98082 10.1023C10.1105 9.95891 10.131 9.72 10.2675 9.58349C10.404 9.44697 10.5542 9.33092 10.6907 9.1944C10.8272 9.05788 11.0115 8.97598 11.1481 8.84628C11.2846 8.71659 11.3665 8.52546 11.503 8.39577C11.6395 8.26608 11.8853 8.25243 12.0286 8.12956C12.1719 8.00669 12.1788 7.72 12.3221 7.59714C12.4655 7.47427 12.6361 7.37188 12.7794 7.25584C12.9228 7.1398 13.0934 7.03741 13.2436 6.91454C13.3938 6.79168 13.5508 6.68929 13.701 6.57325C13.8511 6.45721 14.0696 6.42991 14.2265 6.32069C14.3835 6.20465 14.4996 6.02034 14.6634 5.91795C14.8272 5.81556 14.9637 5.65174 15.1344 5.55618C15.305 5.46062 15.5235 5.44696 15.7009 5.3514C15.8784 5.25584 16.0491 5.16711 16.2197 5.07154C16.3904 4.97598 16.5064 4.78485 16.6839 4.68928C16.8614 4.59372 17.0866 4.60738 17.2573 4.51181C17.4006 4.4299 17.5166 4.27973 17.6736 4.21147C17.8306 4.14321 18.0491 4.191 18.1924 4.10909C18.3562 4.0067 18.5269 3.92478 18.6907 3.82922C18.8545 3.73366 18.9296 3.47428 19.1003 3.38554C19.2709 3.2968 19.4962 3.31045 19.6668 3.22171C19.8375 3.13298 20.0149 3.06471 20.1856 2.9828C20.3562 2.90089 20.5405 2.83263 20.7112 2.75072C20.8818 2.66881 21.0115 2.47769 21.1822 2.4026C21.3528 2.32752 21.5781 2.35482 21.7555 2.27973C21.933 2.20465 22.1037 2.11592 22.2811 2.05448C22.4586 1.99305 22.6566 1.97939 22.8409 1.91796C23.0252 1.85652 23.2026 1.80874 23.3869 1.74731C23.5712 1.68588 23.7078 1.48793 23.8921 1.43332C24.0764 1.37872 24.2538 1.31046 24.4381 1.26267C24.6224 1.21489 24.8409 1.2968 25.0252 1.24902C25.2095 1.20124 25.3733 1.05107 25.5644 1.01694C25.7555 0.982811 25.9467 0.96233 26.131 0.9282C26.3153 0.89407 26.52 0.935027 26.7112 0.907723C26.9023 0.880419 27.0866 0.818983 27.2777 0.798506C27.4689 0.778028 27.66 0.812158 27.8511 0.798506C28.0491 0.778028 28.2334 0.661993 28.4313 0.655167C28.6293 0.648341 28.8272 0.764374 29.0252 0.764374C29.2231 0.764374 29.4211 0.668818 29.619 0.675644C29.817 0.68247 30.0149 0.723427 30.2129 0.730253C30.4108 0.737079 30.6088 0.730249 30.8067 0.737075C31.0047 0.743901 31.2095 0.634686 31.4074 0.641512C31.6054 0.648338 31.7965 0.771209 31.9944 0.784861C32.1856 0.791687 32.3835 0.832634 32.5746 0.83946C32.7658 0.846285 32.9706 0.709768 33.1685 0.72342C33.3665 0.737072 33.5439 0.935025 33.7419 0.948677C33.9398 0.962329 34.1446 0.798509 34.3357 0.81216C34.5269 0.825812 34.718 0.914544 34.9091 0.935022C35.1002 0.9555 35.2914 1.03059 35.4825 1.04424C35.6736 1.05789 35.8784 1.01012 36.0695 1.0306C36.2607 1.05107 36.445 1.16711 36.6361 1.18759C36.8272 1.20807 37.0456 1.06472 37.2368 1.09203C37.4279 1.11933 37.619 1.18758 37.8101 1.21489C38.0013 1.24219 38.1787 1.35824 38.3767 1.39237C38.5746 1.4265 38.7794 1.37189 38.9705 1.41285C39.1617 1.4538 39.3323 1.59715 39.5234 1.6381C39.7146 1.67906 39.9262 1.6381 40.1105 1.67906C40.2948 1.72001 40.4995 1.73366 40.6907 1.78144C40.8818 1.82922 41.0252 2.04083 41.2094 2.09544C41.3937 2.15005 41.5985 2.13639 41.7897 2.19782C41.9808 2.25243 42.1651 2.31386 42.3562 2.36847C42.5473 2.42308 42.7316 2.49134 42.9159 2.55277C43.1002 2.61421 43.2572 2.77121 43.4484 2.83264C43.6395 2.89407 43.8784 2.78486 44.0695 2.85312C44.2606 2.92138 44.4381 2.98963 44.6292 3.05106C44.8204 3.1125 44.9842 3.23536 45.1685 3.30362C45.3528 3.37188 45.5439 3.43332 45.7282 3.50158C45.9125 3.56984 46.1036 3.62444 46.2879 3.69953C46.4722 3.77461 46.6497 3.86335 46.8272 3.94526C47.0047 4.02717 47.1958 4.08178 47.3801 4.16369C47.5644 4.24561 47.7623 4.27974 47.9398 4.36847C48.1173 4.45721 48.2538 4.62786 48.4313 4.70977C48.6088 4.79168 48.7589 4.94184 48.9296 5.03058C49.1002 5.11932 49.305 5.16027 49.4825 5.25584C49.66 5.3514 49.7965 5.49475 49.9739 5.59031C50.1514 5.68587 50.3289 5.76096 50.4995 5.85652C50.6702 5.95209 50.7862 6.13639 50.9501 6.24561C51.1139 6.35482 51.3255 6.39577 51.4893 6.50498C51.6463 6.6142 51.8442 6.66881 52.0012 6.77119C52.1582 6.87358 52.2538 7.08519 52.4176 7.19441C52.5814 7.30362 52.7316 7.41966 52.8886 7.52887C53.0456 7.63809 53.2572 7.67222 53.4142 7.78144C53.5712 7.89066 53.7419 7.98621 53.8989 8.09543C54.0559 8.20464 54.1924 8.34799 54.3494 8.4572C54.5064 8.56642 54.6634 8.68246 54.8204 8.7985C54.9774 8.91454 55.1821 8.9555 55.3391 9.07154C55.4961 9.18758 55.6463 9.30362 55.8033 9.41966C55.9603 9.5357 56.1105 9.65174 56.2606 9.77461C56.4108 9.89748 56.4654 10.1296 56.6156 10.2524C56.7657 10.3753 56.9637 10.4367 57.107 10.5664C57.2504 10.6961 57.4347 10.778 57.578 10.9077C57.7214 11.0374 57.8238 11.208 57.9603 11.3446C58.0968 11.4811 58.247 11.604 58.3835 11.7405C58.52 11.877 58.6224 12.0476 58.7521 12.191C58.8818 12.3343 58.9296 12.5459 59.0524 12.6893C59.1821 12.8394 59.3733 12.9282 59.5029 13.0784C59.6326 13.2285 59.8647 13.2831 59.9876 13.4333C60.1105 13.5835 60.1105 13.8429 60.2333 13.993C60.3562 14.1432 60.5951 14.2046 60.718 14.3548C60.8408 14.505 60.9569 14.6688 61.0729 14.819C61.1889 14.9691 61.2845 15.1534 61.4006 15.3104C61.5166 15.4674 61.5302 15.6995 61.6395 15.8633C61.7487 16.0272 61.8784 16.1705 61.9876 16.3343C62.0968 16.4982 62.2265 16.6415 62.3289 16.8121C62.4313 16.9828 62.5132 17.1534 62.6087 17.3241C62.7043 17.4947 62.7589 17.6995 62.8545 17.8702C62.95 18.0408 63.0934 18.191 63.1958 18.3548C63.2982 18.5186 63.4552 18.662 63.5575 18.8258C63.6599 18.9896 63.8238 19.1261 63.933 19.29C64.0422 19.4538 64.0149 19.7063 64.1173 19.8702C64.2197 20.034 64.3835 20.1705 64.479 20.3411C64.5746 20.5118 64.677 20.6824 64.7726 20.8531C64.8818 21.0442 65.0046 21.2353 65.107 21.4401C65.2094 21.6449 65.3869 21.8087 65.4688 22.0203C65.5507 22.2319 65.4893 22.4913 65.5507 22.7029C65.5985 22.8804 65.6258 23.0647 65.6736 23.2422C65.7214 23.4196 65.8511 23.5766 65.8988 23.7541C65.9466 23.9316 66.0831 24.0886 66.1309 24.2661C66.1787 24.4435 66.1173 24.6551 66.1582 24.8326C66.1992 25.0101 66.2947 25.1807 66.3357 25.3582C66.3767 25.5357 66.4176 25.72 66.4517 25.9043C66.4859 26.0886 66.5951 26.2524 66.6292 26.4367C66.6633 26.621 66.6087 26.819 66.636 26.9964C66.6633 27.1739 66.6497 27.365 66.6702 27.5493C66.6907 27.7336 66.6975 27.9179 66.7111 28.1022C66.7248 28.2865 66.8408 28.4708 66.8613 28.6551C66.8818 28.8394 66.8067 29.0374 66.8272 29.2285C66.8476 29.4196 66.7657 29.6176 66.793 29.8019C66.8203 29.9862 66.9091 30.1637 66.9364 30.3548C66.9637 30.5459 66.9091 30.737 66.9364 30.9213C66.9637 31.1056 67.1616 31.2695 67.1889 31.4606C67.2162 31.6517 67.2845 31.8292 67.3118 32.0135C67.3323 32.2046 67.3459 32.4026 67.3664 32.6005C67.3869 32.7985 67.305 33.0033 67.3255 33.1944C67.3459 33.3855 67.2777 33.5903 67.2845 33.7814C67.2913 33.9725 67.2845 34.1705 67.2845 34.3684C67.2845 34.5664 67.4278 34.7507 67.4347 34.9486C67.4415 35.1466 67.3118 35.3377 67.3186 35.5357C67.3255 35.7336 67.5166 35.9247 67.5098 36.1227C67.5029 36.3206 67.4347 36.5118 67.4278 36.7097C67.421 36.9077 67.4552 37.1056 67.4415 37.2968C67.4278 37.4879 67.3596 37.6858 67.3459 37.877C67.3323 38.0681 67.2845 38.266 67.264 38.4572C67.2435 38.6483 67.3596 38.8599 67.3391 39.0578C67.3186 39.2558 67.1207 39.4265 67.0934 39.6176C67.0661 39.8087 67.1958 40.0271 67.1616 40.2183C67.1275 40.4094 67.0115 40.5869 66.9705 40.7848C66.9296 40.9828 66.8954 41.1671 66.8545 41.3582C66.8135 41.5493 66.8203 41.7473 66.7794 41.9384C66.7384 42.1295 66.5746 42.2933 66.5268 42.4845C66.479 42.6756 66.5541 42.894 66.5063 43.0851C66.4517 43.2831 66.322 43.4537 66.2674 43.6517C66.2128 43.8496 66.2743 44.0749 66.2197 44.266C66.1651 44.4572 66.1377 44.6688 66.0831 44.8599C66.0285 45.051 65.8442 45.208 65.7828 45.406C65.7214 45.6039 65.7077 45.8087 65.6395 45.9998C65.5712 46.1909 65.4415 46.3616 65.3732 46.5459C65.305 46.7302 65.1889 46.9008 65.107 47.092C65.0251 47.2831 65.107 47.5357 65.0251 47.72C64.9432 47.9043 64.8613 48.0954 64.7657 48.2729C64.6702 48.4503 64.5064 48.5937 64.404 48.7711C64.3016 48.9418 64.1855 49.0988 64.0763 49.2626C63.9671 49.4264 63.9466 49.6517 63.8306 49.8087C63.7145 49.9657 63.4552 50.0203 63.3391 50.1773C63.2231 50.3343 63.1139 50.4981 62.9842 50.6415C62.8545 50.7848 62.7248 50.9281 62.5883 51.0715C62.4517 51.2148 62.3903 51.4264 62.2538 51.563C62.1173 51.6995 61.892 51.7473 61.7487 51.8838C61.6053 52.0203 61.4893 52.1841 61.3391 52.307C61.1889 52.4298 61.0388 52.5595 60.8818 52.6756C60.7248 52.7916 60.636 53.0032 60.4722 53.1193C60.3221 53.2217 60.0968 53.208 59.933 53.2967C59.7692 53.3855 59.5849 53.3991 59.4142 53.4742C59.2436 53.5493 59.1002 53.6653 58.9364 53.7336C58.7726 53.8019 58.5951 53.8633 58.4313 53.9316C58.2675 53.9998 58.1036 54.1022 57.9398 54.1773C57.7555 54.2592 57.619 54.4367 57.4074 54.5322C57.2436 54.6073 57.0934 54.6278 56.8681 54.7302L56.8818 54.7643Z" fill="#FFD400"/>
</svg>
