<svg width="89" height="93" viewBox="0 0 89 93" fill="none" xmlns="http://www.w3.org/2000/svg">
<path d="M73.7956 92.092C73.6045 92.092 73.4338 92.1466 73.2427 92.1466C73.0516 92.1466 72.8604 92.0647 72.6693 92.0647C72.4782 92.0647 72.2871 92.1125 72.0959 92.1057C71.9048 92.0988 71.7137 92.0306 71.5226 92.0238C71.3314 92.0169 71.1403 92.1603 70.9492 92.1603C70.7581 92.1603 70.5669 92.0784 70.3826 92.0715C70.1983 92.0647 70.0004 92.1261 69.8093 92.1193C69.6181 92.1125 69.427 92.1193 69.2359 92.1193C69.0447 92.1193 68.8536 92.1671 68.6625 92.1603C68.4714 92.1535 68.2802 92.133 68.0891 92.1262C67.898 92.1193 67.7069 92.0784 67.5157 92.0784C67.3246 92.0784 67.1403 91.9145 66.9492 91.9145C66.7581 91.9145 66.5669 91.8941 66.3758 91.8941C66.1847 91.8941 65.9936 91.8736 65.8024 91.8668C65.6113 91.8599 65.4202 91.9214 65.229 91.9214C65.0379 91.9214 64.8468 91.976 64.6557 91.9691C64.4645 91.9623 64.2734 91.8804 64.0823 91.8804C63.8843 91.8804 63.6796 91.8736 63.4816 91.8668C63.2837 91.8599 63.0789 91.9282 62.8809 91.9282C62.683 91.9282 62.4782 91.9145 62.2802 91.9145C62.0823 91.9145 61.8775 91.8736 61.6796 91.8736C61.4816 91.8736 61.2768 92.0101 61.0789 92.0101C60.8809 92.0101 60.6762 91.9896 60.4782 91.9896C60.2803 91.9896 60.0755 91.9896 59.8775 91.9896C59.6796 91.9896 59.4748 92.0033 59.2768 92.0033C59.0789 92.0033 58.8741 91.9214 58.6762 91.9214C58.4782 91.9214 58.2734 91.9419 58.0755 91.935C57.8775 91.9282 57.6728 91.9009 57.4748 91.9009C57.2769 91.9009 57.0721 91.9555 56.8741 91.9555C56.6762 91.9555 56.4714 91.8872 56.2734 91.8804C56.0755 91.8804 55.8775 91.9623 55.6864 91.9555C55.4953 91.9487 55.2973 91.9555 55.0994 91.9555C54.9014 91.9555 54.7103 91.8122 54.5124 91.8122C54.3144 91.8122 54.1233 91.8122 53.9253 91.8122C53.7274 91.8122 53.5294 91.9077 53.3383 91.9009C53.1472 91.8941 52.9492 91.7985 52.7512 91.7985C52.5533 91.7985 52.3622 91.8258 52.1642 91.8258C51.9663 91.8258 51.7683 91.9487 51.5772 91.9418C51.3861 91.935 51.1881 91.9692 50.9902 91.9623C50.7922 91.9555 50.6011 91.778 50.4031 91.778C50.2052 91.778 50.0141 91.7917 49.8161 91.7917C49.6182 91.7917 49.427 91.7917 49.2291 91.7849C49.0311 91.778 48.8332 91.8668 48.642 91.8599C48.4509 91.8531 48.253 91.7029 48.055 91.6961C47.8571 91.6893 47.6659 91.7166 47.468 91.7098C47.27 91.7029 47.0721 91.7849 46.8809 91.778C46.6898 91.7712 46.4919 91.778 46.2939 91.778C46.096 91.778 45.9048 91.8122 45.7069 91.8053C45.5089 91.7985 45.311 91.8395 45.1199 91.8395C44.9287 91.8395 44.7308 91.7576 44.5328 91.7507C44.3349 91.7439 44.1438 91.6483 43.9458 91.6415C43.7479 91.6347 43.5567 91.6552 43.3588 91.6483C43.1608 91.6415 42.9629 91.7576 42.7649 91.7507C42.567 91.7439 42.3758 91.7029 42.1779 91.6961C41.9868 91.6893 41.7956 91.6142 41.5977 91.6074C41.3997 91.6005 41.2154 91.4982 41.0243 91.4845C40.8332 91.4709 40.6284 91.5528 40.4373 91.5391C40.2461 91.5255 40.055 91.4913 39.8571 91.4709C39.6591 91.4504 39.4748 91.3821 39.2837 91.3616C39.0926 91.3412 38.8946 91.348 38.7035 91.3207C38.5124 91.2934 38.3144 91.2797 38.1233 91.2593C37.9322 91.2388 37.7274 91.3002 37.5362 91.2729C37.3451 91.2456 37.1608 91.1432 36.9697 91.1227C36.7786 91.1023 36.5806 91.0886 36.3895 91.0681C36.1984 91.0477 35.9936 91.1364 35.8025 91.1227C35.6113 91.1091 35.427 90.9726 35.2359 90.9589C35.0311 90.9453 34.8264 90.9316 34.6147 90.918C34.4031 90.9043 34.2052 90.8702 33.9936 90.8633C33.782 90.8565 33.584 90.7746 33.3793 90.7678C33.1745 90.761 32.9561 90.9248 32.7513 90.9111C32.5465 90.8975 32.3417 90.7746 32.137 90.761C31.9322 90.7473 31.7206 90.8156 31.5158 90.8087C31.311 90.8019 31.1062 90.7473 30.8946 90.7405C30.683 90.7337 30.4851 90.6722 30.2735 90.6654C30.0755 90.6654 29.8707 90.7268 29.6728 90.72C29.4748 90.7132 29.27 90.7268 29.0721 90.72C28.8741 90.7132 28.6762 90.6859 28.4714 90.6859C28.2666 90.6859 28.0755 90.6654 27.8707 90.6586C27.666 90.6517 27.468 90.7132 27.2701 90.7064C27.0721 90.6995 26.8742 90.6927 26.6694 90.6927C26.4646 90.6927 26.2666 90.7132 26.0687 90.7064C25.8707 90.6995 25.6728 90.6722 25.468 90.6722C25.2632 90.6722 25.0653 90.7132 24.8673 90.7064C24.6694 90.6995 24.4714 90.6791 24.2667 90.6722C24.0619 90.6654 23.8707 90.6176 23.6728 90.604C23.4748 90.5971 23.2837 90.5289 23.0926 90.5152C22.9015 90.5016 22.6898 90.6381 22.4987 90.6244C22.3076 90.6108 22.1233 90.406 21.9253 90.3924C21.7274 90.3787 21.5363 90.3855 21.3383 90.3651C21.1404 90.3446 20.9356 90.4538 20.7445 90.4401C20.5533 90.4265 20.3554 90.4265 20.1574 90.4128C19.9595 90.3992 19.7752 90.2422 19.5841 90.2285C19.3929 90.2149 19.1813 90.3651 18.9834 90.3446C18.7854 90.3241 18.6011 90.1808 18.41 90.1671C18.2189 90.1535 18.0209 90.1466 17.823 90.1398C17.6318 90.1262 17.4407 90.1057 17.2428 90.0989C17.0448 90.092 16.8605 90.0442 16.6626 90.0374C16.4646 90.0306 16.2667 90.2285 16.0755 90.2217C15.8844 90.2149 15.6933 90.1739 15.4953 90.1671C15.2974 90.1603 15.1131 90.1466 14.9151 90.1398C14.7172 90.133 14.5329 90.0101 14.3417 90.0033C14.1506 89.9965 13.9527 90.092 13.7615 90.0852C13.5704 90.0784 13.3725 90.1125 13.1813 90.0989C12.9902 90.0852 12.7991 90.0169 12.608 90.0101C12.4168 90.0033 12.2257 89.9419 12.0346 89.9282C11.8435 89.9146 11.6455 90.0238 11.4476 90.0169C11.2496 90.0101 11.0721 89.7985 10.881 89.7917C10.6899 89.7849 10.4987 89.7917 10.3008 89.7712C10.1028 89.7507 9.90489 89.9419 9.70693 89.9282C9.51581 89.9146 9.32469 89.8668 9.14039 89.8463C8.95609 89.8258 8.76495 89.778 8.57383 89.7576C8.3827 89.7371 8.19158 89.7098 8.00728 89.6825C7.82298 89.6552 7.63868 89.5801 7.44755 89.546C7.25643 89.5118 7.05164 89.5664 6.86734 89.5323C6.68304 89.4982 6.53289 89.2729 6.34859 89.232C6.16429 89.191 5.95949 89.2251 5.77519 89.1705C5.59089 89.1159 5.42707 89.0204 5.24277 88.9589C5.05847 88.8975 4.84005 88.9726 4.65575 88.9043C4.47145 88.8361 4.32128 88.7132 4.1438 88.6449C3.96633 88.5767 3.79569 88.4948 3.61822 88.4197C3.44074 88.3446 3.2223 88.3582 3.05165 88.2763C2.881 88.1944 2.73766 88.0511 2.56702 87.9623C2.39637 87.8736 2.23937 87.7576 2.07555 87.662C1.91173 87.5664 1.72059 87.4504 1.57725 87.3139C1.4339 87.1774 1.34517 86.9589 1.26326 86.7883C1.18135 86.6108 1.02435 86.4606 0.956086 86.2831C0.887827 86.1057 0.840045 85.9009 0.785438 85.7234C0.73083 85.546 0.724015 85.3344 0.689886 85.1501C0.655756 84.9658 0.635267 84.761 0.614789 84.5767C0.594312 84.3924 0.580675 84.1876 0.587501 83.9965C0.594327 83.8053 0.703542 83.6279 0.737672 83.4367C0.771802 83.2456 0.737656 83.0477 0.785438 82.8565C0.833219 82.6654 0.826402 82.4606 0.901488 82.2763C0.976573 82.092 1.07213 81.9282 1.17452 81.7576C1.27691 81.5869 1.42025 81.4572 1.53629 81.2934C1.64551 81.1432 1.86395 81.0681 1.99364 80.9111C2.11651 80.761 2.18477 80.563 2.31446 80.4129C2.44415 80.2627 2.6148 80.1603 2.7445 80.0101C2.87419 79.86 2.92195 79.6484 3.04482 79.4982C3.16769 79.348 3.23596 79.1501 3.35883 78.9999C3.48169 78.8497 3.73424 78.8019 3.85711 78.6586C3.97997 78.5152 3.98682 78.2559 4.10968 78.1125C4.23255 77.9692 4.38953 77.8395 4.51922 77.6893C4.64892 77.5391 4.75813 77.3821 4.881 77.232C5.00386 77.0818 5.20864 76.9999 5.33151 76.8497C5.45438 76.6996 5.51582 76.4948 5.63869 76.3446C5.76155 76.1944 5.91855 76.0716 6.04141 75.9214C6.16428 75.7712 6.34857 75.6757 6.47826 75.5255C6.60795 75.3753 6.68305 75.1842 6.80591 75.0408C6.92878 74.8975 7.08577 74.7678 7.20864 74.6176C7.33151 74.4675 7.42025 74.29 7.54994 74.1398C7.67963 73.9897 7.8844 73.9146 8.0141 73.7644C8.14379 73.6142 8.13697 73.3548 8.25984 73.2047C8.38271 73.0545 8.60797 72.9931 8.73766 72.8429C8.86736 72.6927 8.96974 72.5289 9.09944 72.3856C9.22913 72.2422 9.38612 72.1194 9.51581 71.976C9.6455 71.8327 9.67964 71.6006 9.80251 71.4504C9.92537 71.3071 10.096 71.2047 10.2189 71.0613C10.3417 70.918 10.5397 70.8429 10.6694 70.7064C10.7991 70.5699 10.9083 70.4129 11.038 70.2764C11.1677 70.1398 11.3042 70.0101 11.4339 69.8736C11.5636 69.7371 11.6114 69.5187 11.7411 69.3822C11.8708 69.2456 12.0278 69.1364 12.1643 68.9999C12.3008 68.8634 12.4168 68.72 12.5465 68.5835C12.6762 68.447 12.7786 68.2832 12.9083 68.1467C13.038 68.0101 13.2974 67.9965 13.4271 67.86C13.5568 67.7235 13.5363 67.4436 13.666 67.3071C13.7957 67.1706 13.9458 67.0545 14.0755 66.918C14.2052 66.7815 14.3963 66.7064 14.526 66.563C14.6557 66.4197 14.7035 66.2013 14.84 66.0579C14.9765 65.9146 15.2359 65.8941 15.3656 65.7508C15.4953 65.6074 15.5909 65.4299 15.7206 65.2866C15.8503 65.1432 16.0346 65.0545 16.1711 64.9112C16.3076 64.7678 16.3895 64.5904 16.526 64.447C16.6625 64.3037 16.8196 64.1876 16.9493 64.0511C17.0789 63.9146 17.1608 63.7235 17.2974 63.5801C17.4339 63.4368 17.6318 63.3685 17.7684 63.2252C17.9049 63.0818 17.9595 62.8702 18.0892 62.7337C18.2189 62.5972 18.3554 62.447 18.4851 62.3105C18.6148 62.174 18.8196 62.0921 18.9492 61.9555C19.0789 61.819 19.2086 61.6689 19.3383 61.5255C19.468 61.3822 19.4953 61.1364 19.625 60.9999C19.7547 60.8634 19.8912 60.72 20.0277 60.5767C20.1643 60.4334 20.3144 60.3105 20.4441 60.174C20.5738 60.0375 20.7035 59.8873 20.8332 59.7439C20.9629 59.6006 21.1267 59.4914 21.2632 59.3549C21.3997 59.2183 21.6387 59.1842 21.7752 59.0409C21.9117 58.8975 21.9458 58.6723 22.0823 58.5289C22.2189 58.3856 22.3076 58.2081 22.4441 58.0716C22.5806 57.9351 22.7445 57.8259 22.881 57.6893C23.0175 57.5528 23.2632 57.5255 23.3997 57.389C23.5363 57.2525 23.5636 57.0067 23.7001 56.8702C23.8366 56.7337 23.98 56.604 24.1165 56.4675C24.253 56.331 24.4032 56.2081 24.5397 56.0716C24.6762 55.9351 24.8264 55.8122 24.9629 55.6689C25.0994 55.5255 25.154 55.3139 25.2837 55.1706C25.4134 55.0272 25.625 54.9658 25.7615 54.8293C25.898 54.6928 25.9663 54.488 26.1028 54.3446C26.2393 54.2013 26.4032 54.0989 26.5397 53.9624C26.6762 53.8259 26.8878 53.7644 27.0243 53.6279C27.1608 53.4914 27.3451 53.3958 27.4817 53.2593C27.6182 53.1228 27.741 52.9726 27.8776 52.8361C28.0141 52.6996 28.0073 52.4197 28.1438 52.2832C28.2803 52.1467 28.5055 52.0989 28.6421 51.9624C28.7786 51.8259 28.9015 51.6757 29.038 51.5323C29.1745 51.389 29.3315 51.2798 29.468 51.1433C29.6045 51.0068 29.6523 50.7747 29.7888 50.6382C29.9253 50.5016 30.1984 50.5016 30.3349 50.3651C30.4714 50.2286 30.4714 49.9487 30.6079 49.8122C30.7444 49.6757 30.9629 49.6211 31.0994 49.4846C31.2359 49.348 31.4407 49.2798 31.5772 49.1433C31.7137 49.0068 31.8093 48.8293 31.9458 48.6928C32.0823 48.5562 32.2598 48.4607 32.3963 48.3242C32.5328 48.1876 32.6216 47.9965 32.7581 47.86C32.8946 47.7235 33.038 47.5938 33.1745 47.4573C33.311 47.3208 33.3793 47.1091 33.5158 46.9726C33.6523 46.8361 33.8844 46.802 34.0209 46.6655C34.1574 46.5289 34.2257 46.3242 34.3622 46.1945C34.4987 46.0648 34.5874 45.8805 34.724 45.744C34.8605 45.6074 35.0311 45.5119 35.1677 45.3754C35.3042 45.2388 35.4339 45.0955 35.5704 44.9658C35.7069 44.8361 35.8571 44.7132 35.9936 44.5767C36.1301 44.4402 36.2462 44.29 36.3827 44.1535C36.5192 44.017 36.7171 43.9487 36.8605 43.819C37.0038 43.6894 37.154 43.5733 37.2905 43.4368C37.427 43.3003 37.4953 43.0955 37.6318 42.9658C37.7683 42.8361 37.8776 42.6723 38.0209 42.5358C38.1642 42.3993 38.3963 42.3788 38.5397 42.2491C38.683 42.1194 38.7854 41.9556 38.9287 41.819C39.0721 41.6825 39.2086 41.5597 39.3451 41.4231C39.4817 41.2866 39.6318 41.1638 39.7683 41.0341C39.9049 40.9044 40.1165 40.8498 40.2598 40.7201C40.4031 40.5904 40.4441 40.3583 40.5874 40.2286C40.7308 40.0989 40.8195 39.9146 40.956 39.7849C41.0926 39.6552 41.3724 39.6689 41.5158 39.5392C41.6591 39.4095 41.7752 39.2593 41.9185 39.1296C42.0618 38.9999 42.1096 38.7747 42.253 38.645C42.3963 38.5153 42.5055 38.3515 42.6489 38.2218C42.7922 38.0921 43.0243 38.0648 43.1676 37.9351C43.311 37.8054 43.5021 37.7371 43.6455 37.6075C43.7888 37.4778 43.898 37.3139 44.0414 37.1842C44.1847 37.0546 44.3417 36.9453 44.4851 36.8156C44.6284 36.686 44.7171 36.5017 44.8605 36.372C45.0038 36.2423 45.154 36.1262 45.2973 36.0034C45.4407 35.8805 45.6045 35.7781 45.7547 35.6484C45.9048 35.5187 45.9595 35.2935 46.1028 35.1706C46.2461 35.0477 46.4236 34.9522 46.567 34.8293C46.7103 34.7064 46.8878 34.6109 47.0311 34.488C47.1745 34.3651 47.3724 34.2969 47.5158 34.1672C47.6591 34.0375 47.7956 33.9078 47.9458 33.7849C48.096 33.6621 48.1915 33.4846 48.3417 33.3617C48.4919 33.2389 48.5943 33.0682 48.7376 32.9385C48.8809 32.8088 49.0448 32.7064 49.1949 32.5836C49.3451 32.4607 49.4885 32.3378 49.6386 32.215C49.7888 32.0921 49.939 31.9761 50.0823 31.8532C50.2257 31.7303 50.4236 31.6621 50.567 31.5392C50.7103 31.4163 50.7581 31.1706 50.9014 31.0477C51.0448 30.9249 51.2495 30.8566 51.3929 30.7337C51.5362 30.6109 51.7137 30.5153 51.8502 30.3856C51.9936 30.2559 52.1574 30.1399 52.3007 30.0102C52.4441 29.8805 52.5192 29.6689 52.6625 29.5324C52.8059 29.3959 52.9492 29.273 53.0925 29.1365C53.2359 29 53.468 28.9658 53.6113 28.8293C53.7547 28.6928 53.8297 28.4948 53.9663 28.3583C54.1028 28.2218 54.2529 28.0921 54.3895 27.9556C54.526 27.8191 54.6284 27.6416 54.7717 27.5051C54.9151 27.3686 55.0243 27.2047 55.1608 27.0614C55.2973 26.918 55.4884 26.8361 55.625 26.6996C55.7615 26.5631 55.9048 26.4266 56.0482 26.2901C56.1915 26.1535 56.2871 25.9761 56.4236 25.8327C56.5601 25.6894 56.7239 25.5802 56.8673 25.4436C57.0106 25.3071 57.1471 25.1706 57.2905 25.0341C57.4338 24.8976 57.6591 24.8566 57.8024 24.7201C57.9458 24.5836 58.0277 24.3856 58.171 24.2491C58.3144 24.1126 58.485 24.0034 58.6284 23.8669C58.7717 23.7303 58.8127 23.4914 58.956 23.3549C59.0994 23.2184 59.2769 23.116 59.4202 22.9795C59.5635 22.843 59.7751 22.7815 59.9185 22.6518C60.0618 22.5221 60.1779 22.3583 60.3212 22.2218C60.4645 22.0853 60.5669 21.9078 60.7103 21.7713C60.8536 21.6348 61.0584 21.5665 61.2018 21.43C61.3451 21.2935 61.468 21.1365 61.6113 21C61.7547 20.8634 61.9458 20.7815 62.0891 20.645C62.2325 20.5085 62.3485 20.3515 62.4919 20.215C62.6352 20.0785 62.6762 19.8396 62.8195 19.703C62.9628 19.5665 63.0857 19.4095 63.2291 19.273C63.3724 19.1365 63.5908 19.0751 63.7274 18.9454C63.8639 18.8157 64.0618 18.7269 64.2052 18.5904C64.3485 18.4539 64.5123 18.3447 64.6557 18.2082C64.799 18.0716 64.8809 17.8737 65.0243 17.7372C65.1676 17.6007 65.3451 17.4983 65.4884 17.3617C65.6318 17.2252 65.6932 17.0068 65.8366 16.8703C65.9799 16.7338 66.1847 16.6655 66.328 16.529C66.4714 16.3925 66.5123 16.1536 66.6557 16.017C66.799 15.8805 67.0652 15.8805 67.2086 15.744C67.3519 15.6075 67.3656 15.3413 67.5089 15.2048C67.6523 15.0682 67.8639 15.0068 68.0072 14.8703C68.1437 14.7338 68.2325 14.5495 68.369 14.4129C68.5055 14.2764 68.7171 14.2218 68.8605 14.0921C69.0038 13.9624 69.1403 13.8259 69.2768 13.6962C69.4133 13.5665 69.5362 13.4095 69.6727 13.2798C69.8093 13.1501 70.0482 13.1228 70.1915 12.9931C70.3349 12.8635 70.4645 12.7201 70.6079 12.5904C70.7512 12.4607 70.7649 12.1877 70.9082 12.0648C71.0516 11.942 71.3041 11.9351 71.4543 11.8123C71.6045 11.6894 71.7546 11.5734 71.9048 11.4505C72.055 11.3276 72.1028 11.0955 72.2529 10.9727C72.4031 10.8498 72.642 10.8362 72.7854 10.7133C72.9287 10.5904 72.956 10.3174 73.1062 10.1945C73.2563 10.0717 73.4338 9.98974 73.584 9.86687C73.7342 9.74401 73.9731 9.73035 74.1164 9.60749C74.2598 9.48462 74.3963 9.34128 74.5396 9.21841C74.683 9.09554 74.8673 9.01363 75.0174 8.89077C75.1539 8.77472 75.2563 8.6109 75.3929 8.49486C75.5294 8.37882 75.7 8.29008 75.8297 8.16722C75.9594 8.04435 75.9253 7.75083 76.0481 7.62114C76.171 7.49145 76.3075 7.37541 76.4372 7.24572C76.5669 7.11602 76.683 6.9795 76.8058 6.84981C76.9287 6.72012 77.113 6.64503 77.2359 6.51534C77.3724 6.37882 77.4953 6.23548 77.6318 6.10579C77.7683 5.97609 77.8707 5.80545 78.0072 5.66893C78.1437 5.53241 78.3007 5.42319 78.4304 5.28667C78.5601 5.15015 78.6761 4.99999 78.8126 4.86347C78.9492 4.72695 79.0652 4.5836 79.2017 4.44708C79.3382 4.31057 79.4748 4.18087 79.6113 4.05118C79.7478 3.92149 79.9458 3.8464 80.0754 3.70988C80.2051 3.57337 80.2939 3.38907 80.4304 3.25937C80.5669 3.12968 80.7239 3.01364 80.8536 2.87712C80.9833 2.7406 81.1335 2.62456 81.27 2.48804C81.4065 2.35152 81.6318 2.31057 81.7683 2.18088C81.9321 2.02388 82.0891 1.88054 82.2666 1.73719C82.4441 1.59385 82.5737 1.40272 82.758 1.2662C82.9423 1.12968 83.154 1.04095 83.3314 0.904427C83.4884 0.788386 83.5771 0.583608 83.741 0.501697C83.9116 0.41296 84.0823 0.283267 84.2597 0.242312C84.4372 0.201356 84.6557 0.37883 84.84 0.37883C85.0243 0.37883 85.2017 0.351527 85.386 0.399308C85.5703 0.44709 85.7341 0.501697 85.898 0.59726C86.0618 0.692823 86.1915 0.802038 86.3348 0.931731C86.4714 1.04777 86.5601 1.20477 86.6761 1.35494C86.7922 1.50511 86.9014 1.66211 87.0038 1.8191C87.1062 1.9761 87.2222 2.12627 87.3109 2.29692C87.3997 2.46756 87.4679 2.63821 87.543 2.81569C87.6181 2.99316 87.7683 3.13651 87.8229 3.32081C87.8775 3.50511 87.8638 3.70306 87.898 3.88736C87.9321 4.07166 88.0754 4.24231 88.0959 4.43343C88.1164 4.61773 88.014 4.82251 88.0345 5.00681C88.055 5.19111 88.2256 5.36859 88.2461 5.55289C88.2666 5.73719 88.1573 5.94196 88.1778 6.12626C88.1983 6.31056 88.3553 6.48804 88.369 6.67234C88.3826 6.85664 88.3758 7.04776 88.3894 7.23889C88.4031 7.43002 88.2802 7.62114 88.2939 7.81227C88.3075 8.00339 88.328 8.18769 88.3417 8.37199C88.3553 8.55629 88.3143 8.74742 88.328 8.93855C88.3417 9.12967 88.4782 9.30715 88.485 9.49827C88.4918 9.6894 88.4714 9.8737 88.485 10.0648C88.4987 10.2559 88.6147 10.4403 88.6215 10.6246C88.6284 10.8089 88.3963 11.0068 88.4031 11.1911C88.4099 11.3754 88.4987 11.5665 88.4918 11.7508C88.485 11.9351 88.5601 12.1263 88.5533 12.3174C88.5533 12.5085 88.4236 12.6996 88.4167 12.8908C88.4099 13.0819 88.3758 13.273 88.3758 13.4641C88.3758 13.6553 88.3758 13.8464 88.3758 14.0375C88.3758 14.2286 88.4099 14.4198 88.4031 14.6177C88.3963 14.8157 88.4714 15.0068 88.4645 15.1979C88.4577 15.3891 88.369 15.5802 88.3621 15.7713C88.3553 15.9624 88.4372 16.1604 88.4304 16.3515C88.4236 16.5426 88.2598 16.7269 88.2529 16.9181C88.2461 17.1092 88.3826 17.3071 88.3758 17.4983C88.369 17.6894 88.2461 17.8805 88.2393 18.0716C88.2325 18.2628 88.2393 18.4539 88.2393 18.6518C88.2393 18.8498 88.2051 19.0341 88.1983 19.2252C88.1915 19.4163 88.2734 19.6143 88.2666 19.8054C88.2597 20.0102 88.1915 20.215 88.1847 20.4266C88.1778 20.6382 88.1778 20.843 88.171 21.0477C88.1642 21.2525 88.212 21.4641 88.2051 21.6689C88.1983 21.8737 88.1369 22.0785 88.1369 22.2901C88.1369 22.5017 88.1778 22.7064 88.171 22.9112C88.1642 23.116 88.1369 23.3208 88.1301 23.5324C88.1232 23.744 88.2256 23.9488 88.2188 24.1604C88.212 24.372 88.1232 24.5699 88.1164 24.7747C88.1027 24.9658 88.1369 25.1638 88.1232 25.3617C88.1096 25.5597 88.0072 25.744 87.9935 25.9351C87.9799 26.1262 87.9526 26.3242 87.9389 26.5153C87.9253 26.7064 87.8502 26.8976 87.8365 27.0955C87.8229 27.2935 87.8434 27.4846 87.8365 27.6825C87.8297 27.8805 87.9799 28.0853 87.9662 28.2764C87.9526 28.4675 87.8297 28.6587 87.816 28.8498C87.8024 29.0409 87.8365 29.2389 87.816 29.4368C87.7956 29.6348 87.6249 29.8122 87.6113 30.0034C87.5976 30.1945 87.6181 30.3924 87.6113 30.5904C87.6045 30.7883 87.5703 30.9795 87.5567 31.1706C87.543 31.3617 87.6659 31.5665 87.6522 31.7645C87.6386 31.9624 87.6659 32.1535 87.6522 32.3515C87.6386 32.5426 87.6386 32.7269 87.6249 32.918C87.6113 33.1092 87.5157 33.2935 87.5089 33.4846C87.5021 33.6757 87.5635 33.8668 87.5567 34.058C87.5499 34.2491 87.3929 34.4334 87.386 34.6245C87.3792 34.8156 87.4338 35.0068 87.427 35.1979C87.4202 35.389 87.4748 35.5802 87.4611 35.7713C87.4475 35.9624 87.3792 36.1467 87.3724 36.3378C87.3655 36.529 87.2632 36.7133 87.2495 36.9044C87.2359 37.1092 87.2768 37.3139 87.2632 37.5119C87.2495 37.7098 87.2222 37.9146 87.2085 38.1194C87.1949 38.3242 87.1539 38.5221 87.1403 38.7269C87.1266 38.9317 87.2017 39.1365 87.1881 39.3412C87.1744 39.546 87.0789 39.7371 87.0652 39.9419C87.0516 40.1467 87.0925 40.3515 87.0789 40.5494C87.0652 40.7474 87.0925 40.959 87.0789 41.1569C87.0652 41.3549 87.1198 41.5665 87.1062 41.7644C87.0925 41.9624 87.0311 42.1672 87.0174 42.3651C87.0038 42.5631 87.0174 42.7679 87.0038 42.9726C86.9901 43.1774 86.9696 43.3754 86.9628 43.5801C86.956 43.7713 86.8263 43.9624 86.8195 44.1535C86.8126 44.3446 86.8331 44.5426 86.8195 44.7337C86.8058 44.9248 86.799 45.1228 86.7922 45.3139C86.7853 45.5051 86.915 45.7098 86.9014 45.901C86.8877 46.0921 86.7307 46.2832 86.7171 46.4743C86.7034 46.6655 86.7649 46.8634 86.758 47.0545C86.7512 47.2457 86.758 47.4436 86.758 47.6347C86.758 47.8259 86.7239 48.0238 86.7171 48.2149C86.7103 48.4061 86.7717 48.604 86.7649 48.7952C86.758 48.9863 86.7922 49.1842 86.7853 49.3754C86.7785 49.5665 86.5601 49.7576 86.5601 49.9487C86.5601 50.1399 86.6283 50.3378 86.6283 50.5289C86.6283 50.7201 86.6898 50.9112 86.6898 51.1091C86.6898 51.3071 86.7444 51.4914 86.7376 51.6893C86.7307 51.8873 86.7171 52.0716 86.7103 52.2627C86.7034 52.4538 86.6829 52.645 86.6829 52.8361C86.6829 53.0272 86.5737 53.2184 86.5737 53.4095C86.5737 53.6006 86.4986 53.7917 86.4986 53.9829C86.4986 54.174 86.7171 54.3719 86.7171 54.5631C86.7171 54.7542 86.6488 54.9453 86.6488 55.1364C86.6488 55.3276 86.6079 55.5187 86.601 55.7098C86.5942 55.9009 86.6556 56.0921 86.6488 56.29C86.642 56.488 86.5396 56.6723 86.5396 56.8634C86.5396 57.0545 86.5806 57.2457 86.5806 57.4436C86.5806 57.6416 86.5601 57.8259 86.5533 58.017C86.5464 58.2081 86.5123 58.3992 86.5123 58.5904C86.5123 58.7815 86.6215 58.9726 86.6215 59.1706C86.6215 59.3685 86.6215 59.5528 86.6215 59.7439C86.6215 59.9351 86.5737 60.1262 86.5737 60.3173C86.5737 60.5084 86.5396 60.6996 86.5396 60.8907C86.5396 61.0818 86.4236 61.2729 86.4236 61.4641C86.4236 61.6552 86.5396 61.8463 86.5396 62.0375C86.5396 62.2286 86.4645 62.4197 86.4645 62.6108C86.4645 62.802 86.6283 62.9931 86.6283 63.1842C86.6283 63.3753 86.4987 63.5665 86.5055 63.7576C86.5123 63.9487 86.642 64.1398 86.6488 64.331C86.6556 64.5221 86.4441 64.7132 86.4441 64.9043C86.4441 65.0955 86.5737 65.2866 86.5737 65.4777C86.5737 65.6688 86.5464 65.86 86.5464 66.0511C86.5464 66.2422 86.6147 66.4333 86.6147 66.6245C86.6147 66.8156 86.6352 67.0067 86.6352 67.1979C86.6352 67.389 86.5874 67.5801 86.5942 67.7712C86.6011 67.9624 86.4714 68.1535 86.4782 68.3446C86.485 68.5357 86.6829 68.7269 86.6829 68.918C86.6829 69.1091 86.601 69.3002 86.601 69.4914C86.601 69.6825 86.5601 69.8736 86.5669 70.0648C86.5737 70.2559 86.5396 70.447 86.5396 70.6381C86.5396 70.8293 86.6352 71.0204 86.6352 71.2115C86.6352 71.4026 86.5328 71.5938 86.5328 71.7849C86.5328 71.976 86.6215 72.1671 86.6215 72.3583C86.6215 72.5494 86.6215 72.7405 86.6215 72.9316C86.6215 73.1228 86.5533 73.3139 86.5601 73.505C86.5669 73.6961 86.6079 73.8873 86.6147 74.0784C86.6215 74.2695 86.6352 74.4606 86.642 74.6518C86.6488 74.8429 86.6283 75.034 86.6283 75.2252C86.6283 75.4163 86.6283 75.6074 86.6283 75.7985C86.6283 76.0033 86.5874 76.2013 86.5942 76.406C86.6011 76.6108 86.7171 76.8088 86.7171 77.0135C86.7171 77.2183 86.7785 77.4163 86.7853 77.6211C86.7922 77.8258 86.6488 78.0306 86.6557 78.2354C86.6625 78.4402 86.758 78.6381 86.758 78.8429C86.758 79.0477 86.6898 79.2524 86.6966 79.4504C86.7034 79.6484 86.758 79.8531 86.7649 80.0579C86.7717 80.2627 86.8604 80.4606 86.8673 80.6654C86.8741 80.8702 86.9082 81.0681 86.9082 81.2729C86.9082 81.4777 86.7444 81.6825 86.7444 81.8873C86.7444 82.092 86.8809 82.29 86.8809 82.4948C86.8809 82.6995 86.8126 82.8975 86.8126 83.1023C86.8126 83.2866 86.956 83.4709 86.956 83.6552C86.956 83.8395 86.9082 84.0238 86.9014 84.2081C86.8946 84.3924 86.799 84.5699 86.7922 84.7542C86.7853 84.9385 86.7444 85.1159 86.7307 85.3002C86.7171 85.4845 86.7649 85.6688 86.758 85.8531C86.7512 86.0374 86.8126 86.2217 86.799 86.406C86.7853 86.5903 86.799 86.7746 86.7853 86.9589C86.7853 87.0408 86.7853 87.2388 86.8058 87.5323C86.8127 87.7029 86.8058 87.9077 86.8058 88.1262C86.8058 88.3105 86.758 88.5084 86.758 88.72C86.758 88.9111 86.6352 89.1023 86.6283 89.307C86.6215 89.5118 86.7717 89.7098 86.7512 89.9077C86.7307 90.1057 86.6898 90.3036 86.6557 90.4948C86.6215 90.6927 86.4918 90.8702 86.4372 91.0477C86.3758 91.2456 86.3485 91.4504 86.2597 91.6142C86.1573 91.7985 85.9457 91.8531 85.7956 91.9555C85.6454 92.0579 85.5157 92.1057 85.3041 92.1125C85.1266 92.1193 84.9355 92.2285 84.7239 92.2285C84.5396 92.2285 84.3485 92.3309 84.1437 92.3309C83.9594 92.3309 83.7615 92.2763 83.5635 92.2763C83.3724 92.2763 83.1813 92.2217 82.9833 92.2149C82.7853 92.2081 82.5942 92.2558 82.3963 92.2558C82.1983 92.2558 82.0072 92.3173 81.8092 92.3104C81.6113 92.3036 81.4202 92.3104 81.229 92.3104C81.0379 92.3104 80.84 92.2695 80.6488 92.2627C80.4577 92.2558 80.2598 92.1807 80.0686 92.1807C79.8775 92.1807 79.6796 92.1466 79.4816 92.1398C79.2836 92.133 79.0857 92.2695 78.8946 92.2627C78.7034 92.2558 78.5055 92.1739 78.3144 92.1739C78.1232 92.1739 77.9253 92.133 77.7273 92.1262C77.5294 92.1193 77.3314 92.0647 77.1403 92.0647C76.9492 92.0647 76.7444 92.0033 76.5533 92.0033C76.3485 92.0033 76.1574 92.0715 75.9662 92.0715C75.7615 92.0715 75.5703 92.1603 75.386 92.1603C75.1813 92.1603 74.9833 92.0511 74.8058 92.0579C74.6352 92.0579 74.4714 92.1057 74.3007 92.1057C74.1301 92.1057 73.9458 92.0511 73.7819 92.0511C73.7819 92.0988 73.7751 92.1057 73.7751 92.1466L73.7956 92.092Z" fill="#082C4C"/>
</svg>
