<svg width="77" height="90" viewBox="0 0 77 90" fill="none" xmlns="http://www.w3.org/2000/svg">
<path d="M43.5496 0.707133H42.8708H42.1919L41.5131 0.556274L40.8342 0.631689H40.1554L39.4765 0.603405L38.7977 0.622252L38.1188 0.641127L37.44 0.556274L36.7612 0.603405H36.0823L35.4035 0.622252L34.7246 0.641127L34.0458 0.565683L33.3669 0.603405L32.6881 0.650565L32.0092 0.593967L31.3304 0.499706H30.6515L29.9727 0.490268H29.2938L28.615 0.593967L27.9456 0.52799L27.2667 0.584559L26.5879 0.603405L25.9184 0.509115L25.249 0.424262L24.5796 0.556274L23.9102 0.405416L23.2408 0.480831L22.5713 0.414854L21.9019 0.52799L21.2325 0.461984L20.5631 0.443138L19.9125 0.377132L19.2525 0.452547L18.602 0.414854L17.9514 0.320563L17.2914 0.358257L16.6409 0.292279L15.9903 0.197989L15.3397 0.122546L14.6797 0.169705L14.0292 0.113137L13.3786 0.0282842L12.7186 0.131983L12.0209 0L11.3232 0.160267L10.6255 0.0848525L9.9278 0.179143L9.23011 0.160267L8.5324 0.216836L7.83469 0.197989L7.13699 0.131983L6.43928 0.160267L5.75101 0.311126L5.0533 0.329972L4.35561 0.292279L3.6579 0.263995L3.0639 0.386541L2.46992 0.52799L2.15878 0.980537L2.09277 1.5651L2.00792 2.25338L1.89478 2.93223L1.76279 3.61108L1.82878 4.30877L1.6685 4.98762L1.58364 5.67591L1.64963 6.37361L1.50821 7.05245L1.37622 7.7313L1.43278 8.42903L1.31021 9.12672V9.83385L1.16879 10.5221L1.12164 11.2198L1.04622 11.9175L0.961363 12.6152L0.942502 13.3224V14.0295L0.87651 14.7272L0.829365 15.4249L0.753936 16.1226L0.650222 16.8203L0.687944 17.5275L0.574793 18.2252L0.593654 18.8852L0.527648 19.5357L0.555932 20.1957L0.452233 20.8463V21.5063L0.489941 22.1662L0.386227 22.8168L0.442795 23.4768L0.480517 24.1368L0.442795 24.7968L0.34852 25.4473L0.386227 26.1073L0.414511 26.7673L0.376804 27.4273L0.310798 28.0779L0.34852 28.7661L0.329659 29.445L0.282514 30.1238L0.131655 30.8027L0.112809 31.4815V32.1604L0.235369 32.8487L0.0939478 33.5275V34.2064L0.0845101 34.8852L0.159939 35.5641L0.112809 36.2429L0.169377 36.9217L0.207084 37.6006L0.0750869 38.2794L0.216522 38.9583V39.6371L0.159939 40.316V40.9948L0.197661 41.6737L0.159939 42.3525L0.216522 43.0314L0.263653 43.7102L0.112809 44.3891L0.169377 45.0679L0.282514 45.7468L0.131655 46.4256L0.1788 47.1045L0.244806 47.7928L0.150516 48.481L0.244806 49.1693V49.8576L0.188224 50.5458L0.150516 51.2341L0.112809 51.9224L0.0468027 52.6107L0.150516 53.299L-0.00976562 53.9778L0.0656636 54.6661V55.3544L0.131655 56.0615L0.499364 56.5895L1.2065 56.7309L1.89478 56.7969L2.59248 56.7498L3.27133 56.9006L3.9596 56.9572H4.65731L5.33616 57.1175H6.03387L6.72214 57.2495L7.41985 57.1646L8.10812 57.2683H8.80582L9.48467 57.3343H10.173L10.8518 57.3909L11.5307 57.5229L12.2095 57.57H12.8978L13.586 57.504L14.2743 57.5418L14.9626 57.6266H15.6509L16.3391 57.6455L17.0274 57.7398L17.7157 57.8058L18.404 57.7869L19.0922 57.8906L19.7805 57.8246H20.4688L21.1571 57.966L21.8454 57.9943L22.5336 57.9095H23.2219L23.9102 58.0415H24.5985L25.2867 57.9377L25.975 57.9189L26.6633 57.9566L27.3516 58.0226H28.0398L28.7281 57.9189H29.4164L30.1047 57.9472L30.7929 57.966L31.4812 57.9472L32.1695 57.9283L32.8578 57.8717L33.546 58.032L34.2343 58.0037L34.9226 57.9283H35.6109L36.2897 57.9095L36.9686 57.9566L37.6474 57.9H38.3263L39.0051 57.9566H39.684L40.3628 57.8152L41.0417 57.8623L41.7205 57.9377L42.3994 57.8152L43.0782 57.7775L43.757 57.8812L44.4359 57.8152L45.1147 57.9377L45.7936 57.8529L46.4724 57.8058L47.1513 57.8529H47.8301L48.509 57.8906L49.1878 57.8529L49.8761 57.9377L50.5644 57.9755L51.2527 58.0415L51.9504 58.0132H52.6481L53.3363 58.1169L54.034 58.098L54.7223 58.2112L55.42 58.1263L56.1083 58.1735L56.7872 58.3526L57.4849 58.2772L58.1731 58.3998L58.8614 58.4374L59.5591 58.4092L60.2474 58.4657H60.9357L61.6239 58.4374H62.3122L63.0005 58.4752L63.6888 58.5506L64.377 58.5035L65.0653 58.4846H65.7536L66.4419 58.4752L67.1301 58.494L67.8184 58.4752L68.5067 58.3998L69.195 58.4563L69.8833 58.3809L70.581 58.5129L71.2692 58.362H71.9387L72.4949 58.0226L72.8721 57.4852L72.9475 56.8158L73.0889 56.1369L73.1549 55.4486L73.2681 54.7698L73.4095 54.091L73.5321 53.4121L73.6075 52.7238V52.0261L73.5603 51.3284L73.6169 50.659L73.7206 49.9896L73.6923 49.3107L73.7772 48.6413L73.7961 47.9719L73.8526 47.3025L73.9092 46.6331L73.9375 45.9636L73.9846 45.2942L73.8715 44.6154L74.0318 43.9459L73.9752 43.2671L74.0223 42.5977L74.1261 41.9283L74.0789 41.2494L74.1638 40.58L74.2203 39.9106L74.1638 39.2317L74.2109 38.5623L74.2581 37.8929L74.3146 37.2235L74.3335 36.554L74.4372 35.8846L74.5032 35.2152L74.4466 34.5364L74.6163 33.8764V33.207L74.6258 32.5375L74.6729 31.8681L74.7012 31.1987L74.7483 30.5199L74.8898 29.8504L74.9275 29.1716L74.9935 28.4927V27.8139L75.0595 27.135L75.1632 26.4656L75.1915 25.7868L75.1443 25.0985L75.2575 24.4291L75.3895 23.7596L75.314 23.0714L75.4555 22.402V21.7231L75.578 21.0537L75.5498 20.3748L75.6063 19.696L75.6629 19.0171L75.7006 18.3383L75.7383 17.6594L75.8515 16.99L75.7949 16.3018L75.9175 15.6323V14.9535L75.9835 14.2746L76.0777 13.5958L76.1343 12.9169L76.106 12.2381L76.1343 11.5592V10.8804L76.0777 10.2015L76.1532 9.5227L76.2286 8.84385V8.15559L76.1626 7.47675L76.2003 6.78846L76.238 6.1002L76.1532 5.42135L76.172 4.73307L76.1155 4.05422V3.37537L76.172 2.68708L75.9929 2.13081L75.6817 1.67826L75.182 1.43311L74.5032 1.22569L73.7961 1.10311L73.0889 1.03711L72.4007 0.933406H71.7029L71.0147 0.839116L70.3264 0.744826H69.6381H68.9404H68.2521L67.5639 0.631689H66.8756L66.1873 0.490268L65.4896 0.509115L64.7919 0.565683L64.1036 0.443138L63.4059 0.509115L62.7176 0.471422L62.0294 0.348848L61.3411 0.329972L60.6528 0.301688L59.9551 0.367694H59.2668L58.5786 0.24512H57.8903H57.202L56.5137 0.292279L55.8255 0.320563L55.1372 0.282842L54.3923 0.254557L53.6569 0.414854L52.9121 0.367694L52.1766 0.414854L51.4412 0.509115L50.7812 0.4337L50.1212 0.405416L49.4613 0.452547L48.8013 0.490268H48.1413H47.4813L46.8213 0.631689L46.1613 0.593967L45.5013 0.565683L44.8413 0.631689L44.1813 0.612843L43.5308 0.678849L43.5496 0.707133ZM42.1259 6.15677L42.7953 6.13789L43.4648 6.10961L44.1436 6.24162L44.813 6.14733H45.4825H46.1519L46.8213 6.11905L47.4907 6.09076L48.1601 6.17562L48.8296 6.12849H49.499L50.1684 6.10961H50.8378L51.5072 6.17562L52.1766 6.14733L52.8461 6.10961L53.5155 6.18505L54.1849 6.28875H54.8543L55.5237 6.32647H56.1932L56.872 6.26047L57.5414 6.34532L58.2203 6.30763H58.8897L59.5591 6.43017L60.2285 6.5339L60.9074 6.42076L61.5768 6.59047L62.2556 6.54334L62.9251 6.62819L63.6039 6.5339L64.2733 6.61875L64.9428 6.65648L65.6122 6.74133L66.291 6.66588L66.9604 6.70361L67.8939 6.92047L68.4596 7.17503L68.6198 7.78787L68.5916 8.495V9.20214L68.7141 9.89986L68.6858 10.607L68.5821 11.2387L68.6481 11.8798L68.469 12.5021L68.5727 13.1527L68.4407 13.7749L68.4878 14.4161L68.4313 15.1043V15.7926L68.3747 16.4809L68.2616 17.1597L68.2427 17.848L68.3464 18.5363L68.3181 19.2246L68.2333 19.9129L68.1673 20.6011L68.1956 21.2894L68.1767 21.9777L68.2144 22.6659V23.3542L68.1673 24.0425L68.1013 24.7214L68.0164 25.4002L68.1296 26.0885L68.0164 26.7673L67.9787 27.4462L68.0919 28.1345L67.9976 28.8133L67.9033 29.4922L67.9976 30.1804L67.9221 30.8593L67.9787 31.5476L67.875 32.2264V32.9147L67.8467 33.6029L67.809 34.2818L67.8373 34.9701L67.8939 35.6583L67.8561 36.3372V37.0255L67.7996 37.7043L67.7241 38.3832L67.7807 39.0715L67.6864 39.7503L67.7147 40.4386L67.6581 41.1174L67.6864 41.8057L67.5827 42.4845V43.1728L67.611 43.8611L67.4979 44.5399L67.545 45.2282L67.5733 45.9165L67.5167 46.5953L67.413 47.2742V47.9813L67.3564 48.6884L67.2339 49.3861L67.0924 50.0839L66.8756 50.7816L66.1873 51.0927L65.5368 51.1304L64.8767 51.055L64.2262 51.0927L63.5756 51.121L62.8968 51.2813L62.2179 51.1587L61.5391 51.1776H60.8602L60.1814 51.2624L59.5025 51.2247L58.8237 51.2907L58.1448 51.3378L57.466 51.2153L56.7872 51.3567H56.1083L55.4295 51.3096H54.7506L54.0718 51.3473L53.3929 51.319L52.7141 51.3756L52.0352 51.4321L51.3564 51.2907L50.6775 51.3567L49.9987 51.4698L49.3198 51.3284L48.641 51.385L47.9621 51.4698L47.2833 51.3944L46.6044 51.517L45.9256 51.5641L45.2467 51.5358H44.5868L43.9268 51.5547L43.2668 51.5358L42.6068 51.6773L41.9374 51.5547L41.2774 51.6584L40.6174 51.6961L39.9574 51.7338L39.2974 51.6678L38.6374 51.6395H37.9774L37.3174 51.7338L36.6574 51.6395H35.9974L35.3375 51.6867L34.6775 51.5924L34.0175 51.649L33.3575 51.5641L32.6881 51.6867L32.0281 51.6207L31.3587 51.6678L30.6798 51.6207L29.9915 51.649L29.3127 51.6018L28.6338 51.4887L27.955 51.451H27.2667L26.5784 51.5547H25.8996L25.2207 51.4981L24.5325 51.5264H23.8442L23.1653 51.4604L22.4865 51.4133L21.7982 51.451L21.1194 51.3567L20.4311 51.4321H19.7522L19.0734 51.3096L18.3946 51.2813L17.7063 51.3661H17.0274L16.3486 51.2247H15.6697L15.0003 51.3096H14.3309L13.6615 51.2624L12.992 51.1776L12.3226 51.1398L11.6438 51.2153L10.9744 51.1587L10.3049 51.0927L9.64496 51.0078L8.97554 50.9419L8.31555 50.857L7.64612 50.8004L7.02384 50.5081L6.44871 50.3761L6.04329 50.0084L5.98672 49.4144L5.95844 48.7545L6.00558 48.085L5.95844 47.4156L5.97728 46.7462L6.05271 46.0862L6.07158 45.3979L5.95844 44.7002L6.03387 44.0119L6.12814 43.3237L6.02443 42.626L6.00558 41.9377L6.12814 41.2494L6.09044 40.5611L6.22243 39.8728L6.15643 39.1752L6.11872 38.4869L6.17529 37.7986L6.19415 37.1103L6.23186 36.422L6.20357 35.7338L6.28843 35.0455L6.31671 34.3572L6.37329 33.6689L6.32615 32.9807L6.29786 32.2924L6.38272 31.6041L6.33557 30.9158L6.42042 30.2276L6.30729 29.5393L6.32615 28.851L6.46757 28.1627L6.36385 27.4933L6.45814 26.8239V26.1545L6.411 25.4851L6.44871 24.8156V24.1462L6.39214 23.4768V22.8074L6.42042 22.138L6.48643 21.4685L6.43928 20.7991L6.42042 20.1297L6.43928 19.4603V18.7909L6.45814 18.1215V17.452L6.40158 16.7826L6.48643 16.1132L6.43928 15.4438L6.59957 14.7838L6.47701 14.1144L6.57128 13.4449L6.55242 12.7755L6.64671 12.1155L6.609 11.4461L6.68442 10.7767V10.1073L6.76928 9.43785L6.873 8.77787L6.97671 8.11787L7.07099 7.42959L7.26899 6.78846L7.89127 6.45846L8.5984 6.43017L9.27724 6.48674L9.95609 6.41133L10.6349 6.44905L11.3138 6.42076L11.9926 6.43961L12.6715 6.45846H13.3503H14.0292L14.708 6.30763L15.3869 6.43017L16.0657 6.33591H16.7446L17.4234 6.41133L18.0928 6.31704L18.7623 6.33591H19.4317L20.0917 6.21334H20.7611L21.4399 6.24162L22.1188 6.26991H22.7976L23.4765 6.33591L24.1553 6.38304L24.8342 6.29819L25.513 6.43961L26.1919 6.41133L26.8707 6.38304H27.5496L28.2284 6.39248H28.9073L29.5861 6.51503H30.265L30.9438 6.5339L31.6227 6.49618H32.3015L32.9615 6.55275L33.6215 6.52446L34.2815 6.41133L34.9415 6.4679L35.6015 6.52446L36.2614 6.38304L36.9214 6.44905L37.5814 6.38304L38.2414 6.43017L38.9014 6.32647H39.5614L40.2214 6.30763L40.8814 6.27931L41.5414 6.26047L42.2014 6.21334L42.1259 6.15677ZM56.476 1.05598V1.11255L57.1832 1.08426L57.8054 1.24453L58.4183 1.31998L58.8614 1.74424L59.0406 2.32883L59.1443 2.95108V3.6488L58.7011 4.12963L58.0694 4.35593L57.2397 4.40306H56.41L55.7029 4.33706L55.0429 4.09194L54.5715 3.60164L54.4112 2.91338L54.4489 2.20625L54.5243 1.9611L54.6563 1.42367L55.1655 1.21625L55.8066 1.17855L56.4572 1.05598H56.476ZM18.4323 2.27223L18.4134 2.89451L18.3003 3.5828L17.81 4.04478L17.1971 4.27108L16.5089 4.09194L16.0563 3.55451L15.8677 2.86622L15.8394 1.87625L16.0657 1.29169L16.4429 0.810832L17.0557 0.735417L17.6497 0.942844L18.2531 1.48024L18.4417 2.27223H18.4323ZM13.7369 54.5624L14.4535 54.7509L14.7646 55.4204L14.3875 55.986L13.9255 56.4481L13.2749 56.6178L12.5866 56.4575L12.2378 55.8729L12.4641 55.1941L13.0675 54.8169L13.7369 54.5529V54.5624Z" fill="#E6E4E1"/>
<path d="M28.5303 74.0873C30.878 72.4279 33.3859 71.7396 35.7619 70.7779C37.5439 70.0519 39.307 69.241 41.1361 68.6376C47.5474 66.5068 53.9682 64.4137 60.4078 62.3866C63.1704 61.5192 65.9895 60.8403 68.7897 60.0954C69.9117 59.7937 70.1097 59.8597 70.7508 60.9251C72.3254 63.5651 73.5511 66.3465 74.2676 69.3542C74.6259 70.8627 75.1162 72.3524 75.3613 73.8798C75.6442 75.7184 75.4745 75.973 73.7679 76.7084C71.9011 77.5192 70.006 78.2735 68.092 78.9618C57.3341 82.8086 46.5857 86.6648 35.5733 89.7384C34.0365 90.1722 33.895 90.125 33.3388 88.5976C31.9622 84.8168 30.6045 81.036 29.2845 77.2364C28.9357 76.2369 28.7943 75.1715 28.5397 74.0967L28.5303 74.0873Z" fill="#E6E4E1"/>
<g opacity="0.55">
<path d="M40.5704 7.43762L39.8821 7.3999L39.2032 7.46591L38.5338 7.48475L37.855 7.46591L37.1761 7.58848L36.4973 7.60733L35.8184 7.56017L35.149 7.63561L34.4701 7.59789L33.7913 7.70162L33.1125 7.59789L32.4336 7.62618L31.7642 7.72047H31.0853L30.4065 7.74875L29.7276 7.72047L29.0488 7.65446L28.3794 7.69218L27.7005 7.73931L27.0217 7.69218L26.3428 7.73931L25.664 7.77703L24.9851 7.71103L24.3063 7.7299L23.6274 7.68274L22.9486 7.72047L22.2698 7.70162L21.5909 7.62618L20.9121 7.55076L20.2049 7.52248L19.4789 7.62618L18.7718 7.56017L18.0552 7.62618L17.3952 7.51304L16.7353 7.57904H16.0753L15.4153 7.63561L14.7553 7.61677L14.0953 7.69218L13.4447 7.77703L12.7847 7.8336L12.1248 7.77703L11.4648 7.78647L10.8048 7.86189L10.1448 7.95618L9.48479 7.86189L8.8248 7.95618L8.18367 8.11647L7.93852 8.72932L7.81596 9.38929L7.83481 10.021V10.6621L7.72167 11.2939L7.67453 11.9255V12.5667L7.61796 13.1984L7.63682 13.8867L7.57081 14.5749L7.58025 15.2632L7.58968 15.9515L7.50482 16.6398L7.52368 17.328L7.56139 18.0257L7.57081 18.714L7.4671 19.4023L7.61796 20.0906L7.50482 20.7789L7.43882 21.4671L7.51425 22.1554L7.57081 22.8437L7.54253 23.5319L7.44825 24.2202L7.53311 24.9179L7.43882 25.6062L7.42939 26.2945L7.52368 26.9828L7.50482 27.671L7.41053 28.3593L7.40111 29.0476L7.44825 29.7359L7.48596 30.4336L7.35396 31.1124L7.43882 31.8101L7.40111 32.4984L7.3351 33.1867L7.41997 33.8749L7.40111 34.5632L7.25025 35.2421L7.25967 35.9209L7.25025 36.6092L7.3351 37.2881L7.22197 37.9669L7.25967 38.6552L7.20311 39.334L7.21254 40.0223L7.26911 40.7106L7.25025 41.3894L7.09939 42.0683L7.15596 42.7565L7.19368 43.4354L7.09939 44.1142L7.02396 44.8025L6.97683 45.4814L7.06169 46.1696L7.01454 46.8485L6.92969 47.5273L7.00512 48.1873L6.92969 48.8473L7.19368 49.4507L7.71225 49.7619L8.32509 49.9599L8.98508 50.0259L9.67337 50.1202L10.3522 50.2144L11.0405 50.3087L11.7382 50.3559L12.4265 50.4879L13.1147 50.5162L13.8125 50.5539L14.5101 50.5633L15.1984 50.6481L15.8961 50.4973L16.5938 50.5821L17.2821 50.6293L17.961 50.5727L18.6304 50.6481L19.3092 50.733L19.9786 50.7519L20.6575 50.6481L21.3363 50.6576L22.0058 50.7896L22.6846 50.7424L23.354 50.7236L24.0329 50.8084L24.7023 50.9216L25.3717 50.9499L26.0506 50.8556L26.7294 50.9121L27.3988 50.9404L28.0777 51.0159L28.7471 51.0818L29.4259 51.0064H30.1048L30.7742 51.0818L31.4531 51.063L32.1319 51.0724L32.8202 51.1196L33.5085 51.1007L34.1967 51.1384L34.885 51.0442L35.5639 51.0536L36.2521 51.1573L36.9404 51.1101L37.6287 51.0442L38.317 51.0159L38.9958 51.063L39.6841 51.0253L40.3724 51.1479L41.0606 51.0442L41.7489 51.1101L42.4278 51.0253L43.116 50.9876H43.8137L44.502 51.0253L45.1903 50.931L45.888 50.9593L46.5763 50.8933L47.2645 50.8084H47.9623L48.6505 50.7707L49.3388 50.7613L50.0365 50.8084L50.7248 50.6764L51.4131 50.6199L52.1108 50.6576L52.799 50.6387L53.4873 50.5633L54.185 50.535L54.8639 50.601L55.5333 50.4879L56.2216 50.5539L56.891 50.5727L57.5698 50.4596L58.2487 50.535L58.9275 50.4219L59.6064 50.4879L60.2758 50.4407H60.9546L61.6335 50.469L62.3123 50.4596L62.9912 50.469L63.67 50.4124L64.3395 50.3087L65.0183 50.4313L65.6972 50.271L66.2251 49.875L66.2346 49.1679L66.3948 48.3853L66.442 47.5839L66.3571 46.8956L66.4514 46.2074L66.5174 45.5191L66.442 44.8214L66.5646 44.1331L66.5174 43.4448L66.5834 42.7565L66.508 42.0589L66.5363 41.3706L66.5834 40.6823L66.5928 39.994L66.7531 39.3057L66.7248 38.6175L66.7437 37.9292L66.8191 37.2409L66.7531 36.5432L66.7626 35.8549L66.7343 35.1667L66.7531 34.4784L66.8474 33.809L66.8663 33.1207L66.8474 32.4418L66.8286 31.763L66.9323 31.0841L66.9888 30.4053L66.9134 29.7264L67.0266 29.0476V28.3687L67.0548 27.6899L66.9606 27.0016L67.0737 26.3322L67.102 25.6533L67.0831 24.9651L67.168 24.2956L67.0548 23.6074L67.1963 22.9285L67.1491 22.2497L67.1586 21.5708L67.2528 20.892L67.234 20.2226L67.2528 19.5531V18.8837L67.3471 18.2238L67.2717 17.5543L67.366 16.8849L67.4131 16.2249L67.3754 15.5461L67.5546 14.8955L67.564 14.2261L67.5168 13.5472L67.5734 12.8873L67.63 12.2178L67.6205 11.5484L67.7243 10.9827V10.4076V9.83243L67.63 9.05932L67.1586 8.43704L66.4043 8.22961L65.5746 8.10704L64.8957 8.18245L64.2357 8.10704L63.5663 8.05047L62.8969 8.00331L62.2275 7.97502L61.5581 7.96561L60.8886 8.00331H60.2192L59.5592 7.92789L58.8804 7.9939L58.2204 7.87132L57.551 7.96561L56.8816 7.90905L56.2121 7.81476L55.5427 7.85248L54.8733 7.79588L54.2039 7.80532L53.5439 7.72047L52.8745 7.68274L52.2051 7.79588L51.5356 7.65446L50.8662 7.71103L50.1968 7.60733L49.5274 7.71103L48.858 7.6639L48.198 7.56961L47.5191 7.6639L46.8591 7.63561L46.1897 7.60733L45.5203 7.48475L44.8509 7.49419L44.1343 7.46591L43.4272 7.56017L42.7106 7.57904L41.9941 7.54132L41.2775 7.64505L40.5609 7.65446L40.5704 7.43762Z" fill="white"/>
</g>
<g opacity="0.55">
<path d="M21.2042 13.9246C21.0722 13.9246 20.9685 13.9812 20.9119 14.1038C20.7422 14.4526 20.7516 14.3961 20.5537 14.8015C20.4499 15.0183 20.3462 15.2729 20.2236 15.518C20.1011 15.7632 19.9974 16.0177 19.8937 16.2346C19.724 16.5834 19.5731 16.8286 19.526 16.9134C19.4317 16.9229 19.1582 16.9794 18.8 17.036C18.5737 17.0737 18.3097 17.0831 18.0551 17.1209C17.8006 17.1586 17.5365 17.2057 17.3103 17.234C16.886 17.3 16.9426 17.3 16.5654 17.3471C16.4334 17.366 16.358 17.4886 16.3203 17.6111C16.3108 17.6488 16.292 17.6771 16.292 17.7149C16.292 17.8091 16.292 17.9223 16.358 17.9977C16.622 18.2711 16.5749 18.2428 16.8766 18.5634C17.0368 18.7331 17.2254 18.9311 17.4046 19.1291C17.5837 19.3271 17.8288 19.4591 17.9985 19.6288C18.2625 19.9023 18.404 20.1474 18.47 20.2228C18.4511 20.3171 18.4417 20.6094 18.3757 20.9865C18.338 21.2222 18.2814 21.4957 18.2342 21.7691C18.1871 22.0425 18.1777 22.3159 18.14 22.5611C18.0645 23.0042 18.0551 22.9476 17.9891 23.3342C17.9891 23.3531 17.9231 23.3719 17.9231 23.3908C17.9231 23.5039 17.9985 23.6453 18.0834 23.7113C18.1871 23.7962 18.338 23.749 18.4511 23.683C18.7811 23.5039 18.734 23.5322 19.1205 23.3248C19.3279 23.2116 19.5542 23.0796 19.7805 22.9476C20.0068 22.8156 20.2708 22.7496 20.4782 22.6459C20.8082 22.4668 21.0534 22.2876 21.1288 22.2405C21.2136 22.2876 21.4588 22.4574 21.7794 22.6365C21.9868 22.7496 22.2131 22.8722 22.4488 23.0042C22.6845 23.1362 22.9391 23.2211 23.137 23.3342C23.5142 23.5511 23.4482 23.5605 23.7782 23.7491C23.8913 23.8151 24.0327 23.8056 24.1365 23.7208C24.2307 23.6548 24.2402 23.5511 24.2402 23.4285C24.2402 23.4096 24.2496 23.3908 24.2402 23.3719C24.1836 22.9854 24.2496 23.0325 24.1836 22.5799C24.1459 22.3442 24.0327 22.0802 23.995 21.8068C23.9573 21.5334 23.9102 21.26 23.8725 21.0243C23.8159 20.6377 23.8159 20.336 23.797 20.2417C23.863 20.1757 24.0705 19.9588 24.3344 19.6948C24.5042 19.5251 24.6644 19.3083 24.853 19.1197C25.0416 18.9311 25.2396 18.752 25.4093 18.5823C25.7204 18.2711 25.7204 18.3466 25.9844 18.0731C26.0504 18.0071 26.0881 17.8846 26.0881 17.7903C26.0881 17.7526 26.0599 17.7149 26.0504 17.6771C26.0127 17.5451 25.909 17.432 25.777 17.4131C25.4093 17.3566 25.4564 17.4132 25.0322 17.3377C24.8059 17.3 24.5513 17.2246 24.2967 17.1869C24.0422 17.1492 23.7782 17.1397 23.5519 17.102C23.1936 17.0454 22.9296 16.9417 22.8448 16.9229C22.8071 16.838 22.6279 16.6023 22.4676 16.2534C22.3639 16.0366 22.2508 15.782 22.1376 15.5369C22.0245 15.2918 21.9019 15.0372 21.8076 14.8203C21.6191 14.4149 21.6474 14.462 21.4871 14.1038C21.4305 13.9812 21.3362 13.9058 21.2136 13.9058" fill="white"/>
<path d="M31.3397 20.7319C31.2643 20.6942 31.1889 20.6942 31.1229 20.7319C30.8683 20.9299 30.906 20.9205 30.6326 21.1373C30.4723 21.2599 30.2649 21.3731 30.0952 21.4956C29.85 21.6842 29.6521 21.8162 29.5955 21.8633C29.5295 21.8445 29.2843 21.835 29.0109 21.7502C28.8224 21.6842 28.6338 21.5522 28.4452 21.4956C28.1246 21.3919 28.1435 21.439 27.8512 21.3353C27.7758 21.307 27.7098 21.3353 27.6532 21.3919C27.6344 21.4108 27.5872 21.3919 27.5778 21.4202C27.5495 21.4768 27.5778 21.5428 27.5872 21.5993C27.6815 21.901 27.6815 21.8633 27.7852 22.1933C27.8418 22.3913 27.9172 22.5987 27.9832 22.7967C28.0681 23.0796 28.1341 23.3436 28.1529 23.4096C28.1058 23.4662 27.9644 23.7019 27.7852 23.947C27.6627 24.1167 27.4835 24.277 27.3609 24.4373C27.1535 24.7201 27.1441 24.673 26.9461 24.937C26.9461 24.9464 26.9367 24.9653 26.9272 24.9747C26.8989 25.0407 26.9084 25.135 26.9367 25.1916C26.9744 25.267 27.0592 25.3236 27.1347 25.3236C27.4458 25.3141 27.4081 25.3047 27.7475 25.2953C27.9455 25.2953 28.1718 25.2764 28.3698 25.267C28.6621 25.2576 28.9166 25.2387 28.9826 25.2387C29.0204 25.2953 29.1241 25.531 29.2938 25.7761C29.4069 25.9458 29.5295 26.125 29.6426 26.2947C29.8312 26.5776 29.8783 26.5116 30.0575 26.7661C30.1046 26.8321 30.1518 26.8887 30.2272 26.8698C30.2932 26.8604 30.3592 26.8227 30.3875 26.7567C30.3875 26.7473 30.4158 26.7378 30.4252 26.7284C30.5289 26.4267 30.5289 26.4644 30.642 26.125C30.708 25.927 30.7175 25.6818 30.7835 25.4838C30.8778 25.1916 30.9626 24.9276 30.9815 24.8616C31.0475 24.8427 31.2926 24.739 31.5755 24.6447C31.764 24.5787 31.9903 24.5316 32.1789 24.4656C32.5089 24.3524 32.49 24.409 32.7917 24.3147C32.8483 24.2959 32.8766 24.211 32.9049 24.1639C32.9143 24.145 32.9143 24.1261 32.9237 24.0979C32.9426 24.013 32.9426 23.8999 32.8766 23.8527C32.6314 23.6736 32.6314 23.7207 32.358 23.5227C32.1977 23.4096 32.0186 23.2682 31.8583 23.155C31.6226 22.9853 31.4152 22.8439 31.3586 22.8062C31.3586 22.7307 31.3303 22.4762 31.3397 22.165C31.3397 21.9576 31.434 21.7313 31.434 21.5239C31.4435 21.1751 31.4529 21.2033 31.4717 20.8828C31.4717 20.7979 31.368 20.7602 31.302 20.7225" fill="white"/>
<path d="M24.6548 36.7887C24.3342 36.553 24.372 36.6378 23.9194 36.553C23.7025 36.5059 23.448 36.487 23.1557 36.5341C22.92 36.5719 22.6843 36.6379 22.4203 36.7699C22.2128 36.8736 21.9489 36.949 21.7226 37.1376C21.4491 37.3356 21.5246 37.3167 21.2511 37.6278C21.1191 37.7693 21.006 37.9578 20.874 38.1841C20.7703 38.3633 20.6854 38.5613 20.61 38.797C20.544 38.995 20.4497 39.2024 20.412 39.4381C20.3837 39.6455 20.3271 39.8718 20.3271 40.1075C20.3271 40.315 20.3931 40.5412 20.4309 40.7675C20.4591 40.9749 20.5251 41.1918 20.5911 41.4181C20.6477 41.6255 20.6854 41.8518 20.7703 42.0686C20.8646 42.3892 20.8457 42.3232 21.0437 42.6721C21.138 42.8324 21.2417 43.0398 21.4114 43.2283C21.5434 43.3792 21.732 43.5112 21.9206 43.6526C22.0808 43.7752 22.2506 43.926 22.458 44.0392C22.6466 44.1335 22.8728 44.1618 23.0991 44.2372C23.2971 44.3032 23.4951 44.4069 23.7308 44.454C23.9382 44.5012 24.1551 44.5389 24.3908 44.5578C24.7302 44.5766 24.6642 44.5389 25.0791 44.4823C25.2771 44.454 25.5034 44.4069 25.7485 44.3409C25.9654 44.2938 26.1822 44.2183 26.4085 44.1335C26.6254 44.058 26.8328 43.9638 27.0402 43.8506C27.2476 43.7375 27.4268 43.6055 27.5965 43.4546C27.7662 43.3038 27.9265 43.1435 28.0585 42.9455C28.181 42.7569 28.2565 42.5495 28.3319 42.3138C28.4545 41.9932 28.4545 42.0687 28.577 41.6727C28.6336 41.4841 28.7185 41.2578 28.7656 41.0032C28.8033 40.7864 28.8222 40.5601 28.8316 40.315C28.8505 40.0887 28.8128 39.8624 28.7939 39.6267C28.775 39.391 28.7845 39.1647 28.7279 38.9384C28.6713 38.7121 28.6148 38.4953 28.511 38.2784C28.4073 38.0616 28.313 37.8635 28.1716 37.675C27.9736 37.4204 28.0113 37.4487 27.7096 37.213C27.5588 37.0904 27.3702 36.9773 27.1533 36.8641C26.9742 36.7699 26.7573 36.7227 26.5311 36.6567C26.3331 36.6002 26.1256 36.5436 25.8994 36.5341C25.6919 36.5247 25.4845 36.5624 25.2582 36.6096C25.0602 36.6473 24.8339 36.6567 24.6171 36.751" fill="white"/>
<path d="M24.1836 36.723C24.2025 36.4213 24.2119 36.4496 24.259 36.129C24.2873 35.931 24.3156 35.7141 24.3627 35.5256C24.4287 35.271 24.5419 35.0824 24.655 35.0259C24.8624 34.8939 24.9096 34.8184 25.1076 34.9599C25.117 34.9599 25.1453 34.9693 25.1547 34.9787C25.3527 35.1673 25.2113 35.1579 25.051 35.2427C24.9756 35.2804 24.9661 35.2993 24.9284 35.3747C24.8624 35.5256 24.9284 35.5444 24.9001 35.7047C24.853 35.9498 24.8624 35.9404 24.8341 36.1856C24.787 36.5438 24.7776 36.5344 24.7493 36.8927" fill="white"/>
<path d="M25.1453 35.9118C25.2962 35.5818 25.2396 35.6007 25.513 35.299C25.6544 35.1387 25.8524 34.9878 26.0787 34.8558C26.2673 34.7427 26.4936 34.639 26.7482 34.5824C26.965 34.5447 27.2007 34.6013 27.4647 34.6295C27.6816 34.6578 27.9267 34.6767 28.1813 34.771C28.2473 35.1481 27.9833 35.0444 27.691 35.365C27.5401 35.5441 27.3704 35.7515 27.163 35.9118C26.9556 36.0721 26.7293 36.1947 26.4936 36.2795C26.2484 36.3738 25.9939 36.4115 25.7487 36.3361C25.5413 36.2701 25.315 36.1381 25.1265 35.9118" fill="white"/>
<path d="M49.3007 40.5788C49.0179 40.5788 48.7539 40.6542 48.5276 40.7768C48.3013 40.8993 48.1033 41.1162 47.9713 41.3519C47.8393 41.5876 47.811 41.8422 47.811 42.1156C47.811 42.389 47.8393 42.653 47.9713 42.8793C48.1033 43.1056 48.2919 43.3224 48.5276 43.4544C48.7633 43.5864 49.0179 43.6053 49.3007 43.6053C49.5836 43.6053 49.857 43.5864 50.0739 43.4639C50.2907 43.3413 50.4698 43.1056 50.6018 42.8699C50.7338 42.6342 50.8658 42.3985 50.8658 42.1156C50.8658 41.8328 50.7433 41.5782 50.6113 41.3519C50.4793 41.1256 50.2907 40.9182 50.055 40.7862C49.8193 40.6542 49.5647 40.5693 49.2913 40.5693L49.3007 40.5788ZM49.3007 42.6436C49.0084 42.6436 48.7822 42.4173 48.7822 42.1156C48.7822 41.8139 49.0084 41.5876 49.3007 41.5876C49.593 41.5876 49.8759 41.8233 49.8759 42.1156C49.8759 42.4079 49.593 42.6436 49.3007 42.6436Z" fill="white"/>
<path d="M55.5424 40.5977C55.2595 40.5977 55.005 40.6731 54.7787 40.8051C54.5524 40.9371 54.3356 41.1162 54.2036 41.3519C54.0716 41.5877 54.0244 41.8422 54.0244 42.1251C54.0244 42.4079 54.1093 42.6531 54.2318 42.8794C54.3544 43.1056 54.5241 43.3413 54.7598 43.4733C54.9955 43.6053 55.2595 43.6713 55.5424 43.6713C55.8252 43.6713 56.0704 43.5676 56.2967 43.4356C56.523 43.3036 56.7304 43.1245 56.8624 42.8888C56.9944 42.653 57.0887 42.4079 57.0887 42.1251C57.0887 41.8422 56.9849 41.5876 56.8529 41.3614C56.7209 41.1351 56.5135 40.9654 56.2778 40.8334C56.0421 40.7014 55.8158 40.5977 55.533 40.5977H55.5424ZM55.5424 42.6625C55.2501 42.6625 54.9955 42.4174 54.9955 42.1156C54.9955 41.8139 55.2407 41.5971 55.5424 41.5971C55.8441 41.5971 56.0892 41.8234 56.0892 42.1156C56.0892 42.4079 55.8347 42.6625 55.5424 42.6625Z" fill="white"/>
<path d="M57.7581 36.2603C57.7581 35.9398 57.6167 35.7229 57.4187 35.6098C57.1076 35.4306 57.0604 35.4966 56.6833 35.4966C56.3533 35.4966 56.3533 35.4495 56.0139 35.4495C55.6745 35.4495 55.6839 35.5155 55.3444 35.5155C55.005 35.5155 55.0145 35.4684 54.675 35.4684C54.3356 35.4684 54.345 35.5155 54.0056 35.5155C53.6662 35.5155 53.6756 35.4966 53.3456 35.4966C53.0156 35.4966 53.0156 35.4966 52.6762 35.4966C52.3368 35.4966 52.3462 35.4307 52.0068 35.4307C51.6674 35.4307 51.6674 35.4495 51.3374 35.4495C51.0074 35.4495 50.9979 35.4495 50.668 35.4495C50.2248 35.4495 49.9797 35.6286 49.8477 35.7889C49.8194 35.8266 49.8382 35.8455 49.81 35.8926C49.81 35.8926 49.6308 36.1472 49.4423 36.5055C49.3385 36.6941 49.1971 36.9015 49.0745 37.1278C48.952 37.3541 48.8577 37.5803 48.7445 37.7689C48.5465 38.1272 48.7163 38.2026 48.3957 38.3629C48.0751 38.5232 48.0751 38.4855 47.7357 38.5609C47.3963 38.6363 47.3963 38.6552 47.0569 38.7306C46.7174 38.806 46.708 38.7872 46.3591 38.8438C46.1329 38.8438 45.9726 38.9758 45.8406 39.1077C45.6332 39.334 45.5483 39.3152 45.52 39.6169C45.4917 39.9186 45.5672 39.9186 45.5672 40.2203C45.5672 40.522 45.52 40.522 45.52 40.8237C45.52 41.1254 45.5766 41.1254 45.5766 41.4271C45.5766 41.71 45.6143 41.9174 45.6897 42.0589C45.8783 42.4171 45.8689 42.3983 46.1894 42.3983C46.5289 42.3983 46.5289 42.4077 46.8777 42.4077C47.2266 42.4077 47.2266 42.4925 47.566 42.4454C47.5566 42.3605 47.5848 42.2474 47.5848 42.1531C47.5848 41.9174 47.566 41.6817 47.6509 41.4743C47.7357 41.2668 47.8583 41.05 48.0186 40.8897C48.1788 40.7294 48.3957 40.6163 48.6125 40.5314C48.8294 40.4466 49.0463 40.3994 49.2914 40.3994C49.5365 40.3994 49.7534 40.456 49.9608 40.5409C50.1682 40.6257 50.3662 40.7671 50.5265 40.9274C50.6868 41.0877 50.7717 41.2951 50.8659 41.512C50.9602 41.7288 51.0451 41.9268 51.0451 42.1626C51.0451 42.2568 51.0451 42.304 51.0262 42.3888C51.3657 42.436 51.3657 42.3888 51.7145 42.3888C52.0634 42.3888 52.0634 42.4737 52.4122 42.4737C52.7611 42.4737 52.7611 42.4737 53.1099 42.4737C53.4588 42.4737 53.4588 42.4737 53.8076 42.436C53.7982 42.3511 53.7982 42.2568 53.7982 42.1626C53.7982 41.9268 53.7982 41.6817 53.8925 41.4837C53.9868 41.2857 54.1565 41.0972 54.3168 40.9369C54.477 40.7766 54.675 40.6729 54.8919 40.588C55.1087 40.5032 55.3067 40.3806 55.5425 40.3806C55.7782 40.3806 56.0045 40.4654 56.2119 40.5503C56.4193 40.6352 56.6362 40.7483 56.7964 40.9086C56.9567 41.0689 57.0887 41.2669 57.1736 41.4837C57.2584 41.7006 57.2961 41.9174 57.2961 42.1626C57.2961 42.2568 57.2961 42.3323 57.2773 42.4265C57.579 42.4265 57.7864 42.37 57.9561 42.2946C58.3616 42.1154 58.3804 42.172 58.3993 41.8231C58.4181 41.4743 58.4653 41.4648 58.4653 41.0971C58.4653 40.7294 58.3993 40.7294 58.3993 40.3712C58.3993 40.0129 58.4653 40.0035 58.4653 39.6452C58.4653 39.2869 58.4464 39.2774 58.4087 38.9192C58.3835 38.6929 58.3427 38.4698 58.2861 38.2498C58.2013 37.9198 58.1636 37.9292 58.0787 37.5992C57.9938 37.2692 58.0033 37.2692 57.909 36.9392C57.8147 36.6092 57.8147 36.6092 57.7581 36.2698V36.2603ZM51.5919 37.618C51.5919 37.7972 51.3845 37.9198 51.13 37.9198C50.8 37.9198 50.7999 37.9763 50.4605 37.9763C50.1211 37.9763 50.1305 37.9292 49.7911 37.9292C49.4517 37.9292 49.282 38.2403 49.084 37.9763C48.9048 37.7406 49.2631 37.6935 49.4045 37.4295C49.546 37.1655 49.5083 37.1466 49.6497 36.8921C49.7911 36.6375 49.7063 36.5244 49.9608 36.3735C50.2154 36.2227 50.2625 36.3735 50.5548 36.3735C50.8471 36.3735 50.8471 36.4395 51.13 36.4395C51.3845 36.4395 51.5637 36.5432 51.5637 36.7224C51.5637 37.1749 51.6014 37.1749 51.6014 37.6275L51.5919 37.618ZM56.1647 37.6463C56.1647 37.8255 55.9762 37.948 55.7593 37.948C55.4387 37.948 55.4387 38.0046 55.1182 38.0046C54.7976 38.0046 54.7976 37.9575 54.477 37.9575C54.1565 37.9575 54.1565 38.0235 53.8359 38.0235C53.6096 38.0235 53.4305 37.8349 53.4305 37.6558C53.4305 37.2032 53.3833 37.2032 53.3833 36.7506C53.3833 36.5715 53.6096 36.4018 53.8359 36.4018C54.1565 36.4018 54.1565 36.4018 54.477 36.4018C54.7976 36.4018 54.7976 36.4678 55.1182 36.4678C55.4387 36.4678 55.4387 36.4489 55.7593 36.4489C55.9856 36.4489 56.1364 36.5621 56.1364 36.7412C56.1364 37.1938 56.1647 37.1938 56.1647 37.6463Z" fill="white"/>
<path d="M55.7406 16.9606C55.5992 16.8097 55.4294 16.706 55.2503 16.5929C55.0712 16.4797 54.892 16.3949 54.694 16.3383C54.496 16.2817 54.298 16.2629 54.0906 16.2629C53.8832 16.2629 53.6852 16.2817 53.4872 16.3477C53.308 16.4043 53.1006 16.4608 52.9309 16.5834C52.7612 16.706 52.6103 16.8569 52.4595 16.9794C52.2615 17.1491 52.0823 17.2811 51.9975 17.366C51.9126 17.2717 51.7806 17.0926 51.5826 16.9229C51.4412 16.8003 51.2338 16.706 51.0641 16.5929C50.8944 16.4797 50.6964 16.3949 50.5172 16.3383C50.3192 16.2817 50.1212 16.2534 49.9138 16.2534C49.7064 16.2534 49.5084 16.2817 49.3104 16.3383C49.1124 16.3949 48.9144 16.4609 48.7352 16.5646C48.5561 16.6683 48.4241 16.8286 48.2827 16.9794C48.1035 17.168 47.9527 17.366 47.849 17.6111C47.7453 17.8563 47.6321 18.092 47.6038 18.356C47.5755 18.62 47.651 18.8651 47.6981 19.1291C47.7452 19.3648 47.7735 19.6005 47.8678 19.8174C47.9621 20.0342 48.0753 20.2417 48.1978 20.4491C48.3204 20.6565 48.4995 20.8074 48.6504 20.9959C48.8012 21.1845 48.9615 21.3542 49.1218 21.5239C49.2821 21.6937 49.4235 21.9011 49.5932 22.0613C49.7158 22.1745 49.8667 22.2782 49.9892 22.3913C50.1684 22.5516 50.3381 22.7308 50.5172 22.9005C50.6964 23.0702 50.9226 23.1833 51.0829 23.3625C51.2432 23.5416 51.4035 23.7396 51.5449 23.9282C51.6863 24.1168 51.7995 24.343 51.9126 24.5599C51.9315 24.5882 51.9786 24.6259 52.0069 24.6259C52.0352 24.6259 52.1106 24.5976 52.1295 24.5693C52.2426 24.3619 52.3746 24.1545 52.516 23.9659C52.6575 23.7773 52.78 23.5605 52.9498 23.3813C53.1195 23.2022 53.3175 23.0702 53.4966 22.9005C53.6757 22.7308 53.8266 22.5328 54.0057 22.3725C54.1377 22.2594 54.298 22.1839 54.43 22.0613C54.5997 21.9011 54.7506 21.7125 54.9203 21.5428C55.09 21.3731 55.288 21.2317 55.4389 21.0525C55.5897 20.8734 55.6934 20.6471 55.8254 20.4491C55.9574 20.2511 56.0988 20.0531 56.1837 19.8362C56.2686 19.6194 56.278 19.3743 56.3251 19.1385C56.3723 18.8746 56.4666 18.62 56.4383 18.3654C56.41 18.1108 56.278 17.8657 56.1743 17.63C56.0706 17.3943 55.9386 17.168 55.7594 16.9794L55.7406 16.9606Z" fill="white"/>
</g>
</svg>
