<svg width="91" height="86" viewBox="0 0 91 86" fill="none" xmlns="http://www.w3.org/2000/svg">
<path d="M89.6218 13.7166C89.6218 13.9145 89.7173 14.1056 89.7173 14.3036C89.7173 14.5016 89.6695 14.6995 89.6764 14.8975C89.6832 15.0954 89.7924 15.2934 89.7924 15.4913C89.7924 15.6893 89.6559 15.8872 89.6559 16.0852C89.6559 16.2831 89.6764 16.4811 89.6832 16.679C89.69 16.877 89.6081 17.0749 89.6081 17.2729C89.6081 17.4708 89.8197 17.6688 89.8197 17.8667C89.8197 18.0647 89.8197 18.2626 89.8197 18.4606C89.8197 18.6585 89.6354 18.8565 89.6354 19.0545C89.6354 19.2524 89.69 19.4504 89.69 19.6483C89.69 19.8463 89.6217 20.0442 89.6286 20.2422C89.6354 20.4401 89.6695 20.6381 89.6695 20.836C89.6695 21.034 89.6627 21.2319 89.6695 21.4299C89.6764 21.6278 89.8129 21.8258 89.8129 22.0237C89.8129 22.2217 89.8811 22.4196 89.8811 22.6176C89.8811 22.8155 89.7719 23.0135 89.7719 23.2114C89.7719 23.4094 89.7241 23.6073 89.731 23.8053C89.7378 24.0032 89.8197 24.2012 89.8197 24.3992C89.8197 24.5971 89.8948 24.7951 89.8948 24.993C89.8948 25.191 89.7378 25.3889 89.7378 25.5869C89.7378 25.7848 89.8265 25.9828 89.8265 26.1807C89.8265 26.3787 89.8061 26.5766 89.8061 26.7746C89.8061 26.9725 89.6968 27.1705 89.6968 27.3684C89.6968 27.5664 89.8811 27.7643 89.8811 27.9623C89.8811 28.1602 89.731 28.3582 89.731 28.5561C89.731 28.7541 89.6968 28.952 89.6968 29.15C89.6968 29.3479 89.8811 29.5459 89.8811 29.7507C89.8811 29.9555 89.7583 30.1466 89.7515 30.3445C89.7446 30.5425 89.8129 30.7404 89.8129 30.9384C89.8129 31.1295 89.7856 31.3206 89.7787 31.5186C89.7719 31.7165 89.7651 31.9009 89.7583 32.0988C89.7514 32.2968 89.6832 32.4811 89.6764 32.6722C89.6695 32.8633 89.7992 33.0613 89.7992 33.2524C89.7992 33.4435 89.574 33.6346 89.574 33.8258C89.574 34.0169 89.6832 34.2148 89.6832 34.406C89.6832 34.5971 89.6081 34.7882 89.6081 34.9793C89.6081 35.1705 89.6968 35.3684 89.6968 35.5595C89.6968 35.7507 89.5398 35.9418 89.5398 36.1329C89.5398 36.324 89.6149 36.522 89.6149 36.7131C89.6149 36.9043 89.6764 37.1022 89.6764 37.2933C89.6764 37.4845 89.7037 37.6756 89.7037 37.8735C89.7037 38.0715 89.5876 38.2558 89.5876 38.4537C89.5876 38.6517 89.6559 38.836 89.6559 39.0339C89.6559 39.2319 89.69 39.4162 89.69 39.6142C89.69 39.8121 89.5876 39.9964 89.5876 40.1944C89.5876 40.3923 89.5398 40.5834 89.5467 40.7746C89.5535 40.9657 89.6695 41.1568 89.6764 41.3479C89.6832 41.5391 89.649 41.7302 89.649 41.9281C89.649 42.1261 89.574 42.3172 89.574 42.5084C89.574 42.7063 89.7992 42.8974 89.7992 43.0954C89.7992 43.2933 89.5808 43.4913 89.5876 43.6892C89.5944 43.8872 89.7583 44.0783 89.7651 44.2763C89.7719 44.4742 89.8197 44.6653 89.8265 44.8633C89.8334 45.0612 89.6627 45.2592 89.6695 45.4571C89.6764 45.6551 89.8061 45.8462 89.8129 46.0442C89.8197 46.2421 89.7037 46.4401 89.7105 46.638C89.7173 46.836 89.7924 47.0271 89.7992 47.2251C89.806 47.423 89.731 47.621 89.7378 47.8189C89.7446 48.0169 89.8265 48.208 89.8334 48.406C89.8402 48.6039 89.9972 48.795 90.004 48.9862C90.0108 49.1773 89.9699 49.3821 89.9767 49.58C89.9835 49.778 89.8811 49.9759 89.888 50.1739C89.8948 50.3718 89.8948 50.5698 89.9016 50.7609C89.9084 50.952 90.004 51.15 90.004 51.3479C90.004 51.5459 90.0654 51.737 90.0723 51.935C90.0723 52.1261 90.0381 52.3172 90.045 52.5083C90.0518 52.6995 89.9631 52.8906 89.9631 53.0817C89.9631 53.2728 90.004 53.464 90.004 53.6483C90.004 53.8326 90.0654 54.0305 90.0654 54.2148C90.0654 54.3991 90.045 54.5971 90.045 54.7814C90.045 54.9657 89.8811 55.1568 89.8811 55.3479C89.8811 55.539 89.9016 55.7302 89.9016 55.9145C89.9016 56.0988 90.0518 56.2967 90.0518 56.4879C90.0518 56.679 89.9835 56.8701 89.9835 57.0544C89.9835 57.2387 90.0723 57.4367 90.0723 57.6278C90.0723 57.8189 89.8675 58.0032 89.8606 58.1943C89.8538 58.3855 89.9494 58.5766 89.9494 58.7609C89.9494 58.9452 90.0245 59.1431 90.0245 59.3274C90.0245 59.5186 90.0791 59.7097 90.0791 59.894C90.0791 60.0783 89.888 60.2762 89.888 60.4674C89.888 60.6585 89.9084 60.8496 89.9084 61.0339C89.9084 61.2182 90.0791 61.4094 90.0791 61.6005C90.0791 61.7916 90.0791 61.9827 90.0791 62.167C90.0791 62.3513 89.9631 62.5493 89.9631 62.7404C89.9631 62.9315 90.004 63.1227 90.004 63.3069C90.004 63.4912 90.0381 63.6892 90.0313 63.8803C90.0313 64.0783 89.9221 64.2762 89.9221 64.481C89.9221 64.6858 89.9494 64.8837 89.9494 65.0817C89.9494 65.2796 90.0313 65.4844 90.0245 65.6824C90.0177 65.8803 89.9426 66.0783 89.9357 66.2831C89.9289 66.4878 89.888 66.679 89.8811 66.8838C89.8743 67.0885 89.888 67.2865 89.8811 67.4844C89.8743 67.6824 89.9767 67.8871 89.9767 68.0851C89.9767 68.2831 89.847 68.481 89.847 68.6858C89.847 68.8906 89.888 69.0885 89.888 69.2865C89.888 69.4844 89.9289 69.6892 89.9221 69.8872C89.9153 70.0851 89.9426 70.2899 89.9357 70.4878C89.9289 70.6858 89.7719 70.8838 89.7719 71.0885C89.7719 71.2933 89.8675 71.4912 89.8606 71.6892C89.8606 71.8735 89.8402 72.0578 89.8402 72.2421C89.8402 72.4264 89.8402 72.6107 89.8402 72.795C89.8402 72.9793 89.7992 73.1636 89.7992 73.3479C89.7992 73.5322 89.7651 73.7165 89.7651 73.9008C89.7651 74.0851 89.8334 74.2694 89.8334 74.4537C89.8334 74.638 89.7241 74.8223 89.7241 75.0066C89.7241 75.1909 89.8129 75.3752 89.8129 75.5595C89.8129 75.7438 89.888 75.9281 89.888 76.1124C89.888 76.2967 89.7378 76.481 89.7378 76.6653C89.7378 76.7609 89.8402 76.9656 89.8334 77.2387C89.8334 77.4093 89.9153 77.6004 89.9084 77.812C89.9084 77.9895 89.8334 78.1806 89.8265 78.3854C89.8265 78.5697 89.7651 78.7609 89.7583 78.9588C89.7514 79.1568 89.7241 79.3411 89.7105 79.5322C89.6968 79.7233 89.7924 79.9281 89.7787 80.1192C89.7651 80.3103 89.574 80.4947 89.5535 80.679C89.5262 80.8837 89.5057 81.068 89.4716 81.2455C89.4375 81.4571 89.376 81.6278 89.3282 81.7916C89.2531 82.051 89.2736 82.2626 89.1644 82.3103C89.0279 82.3718 88.7958 82.5083 88.5296 82.522C88.318 82.5356 88.0859 82.4332 87.8743 82.4332C87.6149 82.4332 87.376 82.3445 87.2258 82.3513C87.0279 82.3581 86.8299 82.3718 86.632 82.3786C86.434 82.3854 86.2361 82.4742 86.0381 82.481C85.8402 82.4878 85.6422 82.5015 85.4443 82.5151C85.2463 82.5288 85.0484 82.638 84.8504 82.6448C84.6525 82.6516 84.4477 82.5288 84.2497 82.5424C84.0518 82.5561 83.8607 82.7267 83.6627 82.7336C83.4648 82.7404 83.26 82.6107 83.062 82.6175C82.8641 82.6243 82.6661 82.7062 82.4682 82.7199C82.2702 82.7336 82.0654 82.6926 81.8675 82.6994C81.6695 82.7062 81.4648 82.6243 81.2668 82.638C81.0688 82.6516 80.8709 82.6926 80.673 82.6994C80.475 82.7062 80.277 82.8359 80.0791 82.8428C79.8811 82.8496 79.6764 82.7677 79.4784 82.7745C79.2805 82.7813 79.0825 82.8633 78.8846 82.8769C78.6866 82.8906 78.4818 82.7882 78.2839 82.795C78.0859 82.8018 77.888 82.8155 77.69 82.8223C77.4921 82.8291 77.2873 82.7882 77.0893 82.8018C76.8914 82.8155 76.7003 82.9861 76.4955 82.9929C76.2907 82.9998 76.0928 82.952 75.8948 82.9588C75.6968 82.9656 75.4989 82.9725 75.2941 82.9793C75.0962 82.9861 74.8982 83.0134 74.7003 83.0202C74.5023 83.0271 74.3044 82.9725 74.1064 82.9793C73.9085 82.9861 73.7105 82.9656 73.5126 82.9725C73.3146 82.9793 73.1235 83.1158 72.9255 83.1226C72.7276 83.1294 72.5296 83.1022 72.3317 83.109C72.1337 83.1158 71.9358 82.9929 71.7378 82.9929C71.5399 82.9929 71.3419 83.0475 71.144 83.0475C70.946 83.0475 70.7481 83.1499 70.5569 83.1499C70.3658 83.1499 70.161 83.2182 69.9631 83.2182C69.7651 83.2182 69.5672 83.2592 69.3692 83.2592C69.1713 83.2592 68.9733 83.0953 68.7754 83.1021C68.5774 83.109 68.3863 83.2182 68.1883 83.2182C67.9904 83.2182 67.7924 83.0817 67.5945 83.0885C67.3965 83.0953 67.1986 83.1295 67.0006 83.1363C66.8027 83.1431 66.6115 83.2455 66.4136 83.2523C66.2156 83.2591 66.0177 83.3342 65.8266 83.3411C65.6354 83.3479 65.4306 83.3411 65.2327 83.3479C65.0347 83.3547 64.8368 83.3069 64.6388 83.3138C64.4409 83.3206 64.2429 83.3547 64.045 83.3615C63.847 83.3615 63.6491 83.1909 63.4511 83.2046C63.2532 83.2182 63.0621 83.2865 62.8641 83.3001C62.6661 83.3138 62.4818 83.4366 62.2839 83.4434C62.0859 83.4503 61.888 83.4025 61.6969 83.4162C61.5057 83.4298 61.301 83.382 61.1098 83.3888C60.9187 83.3957 60.7276 83.5254 60.5296 83.539C60.3317 83.5527 60.1337 83.4161 59.9358 83.423C59.7378 83.4298 59.5467 83.539 59.3556 83.5459C59.1644 83.5527 58.9597 83.4571 58.7685 83.4639C58.5774 83.4707 58.3795 83.5527 58.1815 83.5527C57.9836 83.5527 57.7924 83.4639 57.5945 83.4639C57.3965 83.4639 57.2054 83.5527 57.0075 83.5527C56.8095 83.5527 56.6184 83.5185 56.4204 83.5185C56.2225 83.5185 56.0313 83.4025 55.8334 83.4025C55.6354 83.4025 55.4443 83.4981 55.2464 83.4981C55.0484 83.4981 54.8573 83.6073 54.6593 83.6073C54.4614 83.6073 54.2703 83.4981 54.0723 83.4981C53.8743 83.4981 53.6832 83.5868 53.4853 83.5868C53.2873 83.5868 53.0962 83.4366 52.8982 83.4366C52.7003 83.4366 52.5092 83.4093 52.3112 83.4093C52.1133 83.4093 51.9221 83.3684 51.7242 83.3684C51.5262 83.3684 51.3351 83.3752 51.1372 83.3684C50.9392 83.3615 50.7481 83.3957 50.5501 83.3957C50.3522 83.3957 50.161 83.3684 49.9631 83.3684C49.7651 83.3684 49.574 83.4981 49.3761 83.4912C49.1781 83.4844 48.987 83.3957 48.789 83.3957C48.5911 83.3957 48.4 83.3957 48.202 83.3957C48.0041 83.3957 47.8129 83.4366 47.615 83.4366C47.417 83.4366 47.2259 83.423 47.0279 83.423C46.83 83.423 46.6389 83.5459 46.4409 83.5459C46.243 83.5459 46.0518 83.3888 45.8539 83.3888C45.6559 83.3888 45.4648 83.4639 45.2669 83.4639C45.0689 83.4639 44.8778 83.4162 44.6798 83.4162C44.4819 83.4162 44.2839 83.3479 44.086 83.3479C43.888 83.3479 43.6901 83.4844 43.4989 83.4844C43.3078 83.4844 43.103 83.3888 42.9051 83.3888C42.7071 83.3888 42.5092 83.4844 42.318 83.4844C42.1269 83.4844 41.9221 83.4025 41.7242 83.4025C41.5262 83.4025 41.3283 83.4776 41.1372 83.4776C40.946 83.4776 40.7413 83.5731 40.5501 83.5731C40.359 83.5731 40.1542 83.3957 39.9563 83.4025C39.7583 83.4093 39.5604 83.4434 39.3693 83.4434C39.1781 83.4434 38.9802 83.5731 38.7822 83.58C38.5843 83.5868 38.3863 83.58 38.1884 83.58C37.9904 83.58 37.7925 83.6141 37.6013 83.6209C37.4102 83.6278 37.2054 83.5185 37.0075 83.5254C36.8095 83.5322 36.6116 83.5731 36.4204 83.5731C36.2293 83.5731 36.0245 83.4571 35.8266 83.4639C35.6286 83.4707 35.4307 83.4639 35.2327 83.4708C35.0348 83.4776 34.8437 83.58 34.6457 83.5868C34.4478 83.5936 34.2566 83.6824 34.0587 83.6892C33.8607 83.696 33.6628 83.7028 33.4716 83.7097C33.2805 83.7165 33.0757 83.737 32.8846 83.7438C32.6935 83.7506 32.4887 83.6551 32.2908 83.6619C32.0928 83.6687 31.9017 83.737 31.7037 83.7506C31.5058 83.7643 31.3078 83.7097 31.1099 83.7165C30.9119 83.7233 30.714 83.7506 30.516 83.7643C30.3181 83.7779 30.1201 83.8462 29.9222 83.8598C29.7242 83.8735 29.5263 83.9144 29.3283 83.9213C29.1304 83.9281 28.9324 83.9486 28.7345 83.9622C28.5365 83.9759 28.3317 83.9145 28.1338 83.9281C27.9358 83.9417 27.7242 83.8257 27.5263 83.8394C27.3283 83.853 27.1372 83.9895 26.9392 84.0032C26.7413 84.0168 26.5365 83.9895 26.3386 84.0032C26.1406 84.0168 25.9426 84.0783 25.7447 84.0919C25.5467 84.1056 25.342 84.0919 25.144 84.1124C24.9461 84.1329 24.7413 84.0987 24.5433 84.1124C24.3454 84.126 24.1543 84.2284 23.9563 84.2421C23.7583 84.2557 23.5604 84.324 23.3624 84.3376C23.1645 84.3513 22.9665 84.3991 22.7686 84.4127C22.5706 84.4264 22.359 84.3103 22.1611 84.324C21.9631 84.3376 21.7584 84.283 21.5604 84.2967C21.3625 84.3103 21.1645 84.3923 20.9665 84.4059C20.7686 84.4196 20.5706 84.4878 20.3727 84.5015C20.1747 84.5151 19.9768 84.5697 19.7788 84.5766C19.5809 84.5834 19.3829 84.6448 19.185 84.6585C18.987 84.6653 18.7822 84.4946 18.5843 84.5083C18.3863 84.5219 18.1884 84.5083 17.9904 84.5083C17.7925 84.5083 17.6014 84.7267 17.4102 84.7336C17.2191 84.7404 17.0143 84.6653 16.8164 84.6721C16.6184 84.6789 16.4205 84.7336 16.2293 84.7336C16.0382 84.7336 15.8334 84.5424 15.6355 84.5492C15.4375 84.5561 15.2396 84.5561 15.0416 84.5629C14.8437 84.5697 14.6457 84.5902 14.4546 84.597C14.2635 84.6039 14.0587 84.6243 13.8608 84.6243C13.6628 84.6243 13.4649 84.6926 13.2737 84.6926C13.0826 84.6926 12.8778 84.6243 12.6799 84.6312C12.4819 84.638 12.284 84.6653 12.086 84.6721C11.8881 84.6789 11.6969 84.8018 11.499 84.8018C11.301 84.8018 11.1031 84.754 10.9051 84.7609C10.7072 84.7677 10.5092 84.7404 10.3113 84.7472C10.1133 84.754 9.92218 84.8837 9.72423 84.8905C9.52628 84.8974 9.32833 84.6994 9.13038 84.7062C8.93243 84.7131 8.73448 84.6994 8.53653 84.7062C8.33175 84.7062 8.13379 84.911 7.93584 84.9178C7.73789 84.9247 7.52629 84.7813 7.32151 84.7882C7.11673 84.795 6.91878 84.7882 6.71401 84.8018C6.50923 84.8155 6.31127 84.9383 6.11332 84.9452C5.91537 84.952 5.70377 84.8632 5.49899 84.8769C5.29421 84.8905 5.10308 85.0475 4.89831 85.0544C4.79592 85.0544 4.57749 84.9383 4.30445 84.9315C4.12698 84.9247 3.93585 84.8769 3.71742 84.8564C3.5263 84.8359 3.34199 84.7609 3.14404 84.7267C2.94608 84.6926 2.72766 84.8018 2.52971 84.754C2.33176 84.7063 2.1065 84.7199 1.92902 84.6448C1.7379 84.5697 1.60138 84.3718 1.44439 84.2626C1.27374 84.1465 1.17135 83.9827 1.06214 83.8257C0.952922 83.6687 0.727656 83.539 0.700353 83.3342C0.632093 83.1158 0.775444 82.8428 0.727662 82.6107C0.679881 82.3786 0.591146 82.167 0.591146 81.9349C0.591146 81.737 0.666228 81.539 0.673054 81.3411C0.67988 81.1431 0.509234 80.9383 0.51606 80.7404C0.522886 80.5424 0.522879 80.3445 0.529705 80.1397C0.53653 79.9349 0.591142 79.7438 0.597968 79.5458C0.604794 79.3479 0.529711 79.1431 0.536537 78.9452C0.543363 78.7472 0.625274 78.5493 0.6321 78.3513C0.638926 78.1534 0.570669 77.9486 0.570669 77.7506C0.570669 77.5527 0.707182 77.3547 0.714008 77.1568C0.720833 76.9588 0.727662 76.7609 0.727662 76.5561C0.727662 76.3513 0.707185 76.1602 0.707185 75.9554C0.707185 75.7643 0.775438 75.5732 0.775438 75.3889C0.775438 75.2046 0.652577 75.0066 0.652577 74.8155C0.652577 74.6244 0.60479 74.4332 0.60479 74.2489C0.60479 74.0646 0.775438 73.8667 0.775438 73.6755C0.775438 73.4844 0.659399 73.3001 0.659399 73.109C0.659399 72.9179 0.638922 72.7267 0.638922 72.5424C0.638922 72.3581 0.604794 72.1602 0.597968 71.9759C0.591142 71.7916 0.693531 71.5936 0.693531 71.4025C0.693531 71.2114 0.659406 71.0203 0.645754 70.8291C0.632103 70.638 0.591139 70.4469 0.584313 70.2558C0.577487 70.0646 0.673057 69.8735 0.666231 69.6824C0.666231 69.4844 0.693531 69.2865 0.693531 69.0885C0.693531 68.8906 0.475106 68.6926 0.475106 68.4947C0.475106 68.2967 0.563836 68.0988 0.563836 67.9008C0.563836 67.7029 0.673054 67.5049 0.673054 67.307C0.673054 67.109 0.625278 66.9111 0.625278 66.7131C0.625278 66.5152 0.502409 66.3172 0.495583 66.1192C0.488757 65.9213 0.550192 65.7233 0.550192 65.5254C0.550192 65.3274 0.584313 65.1295 0.584313 64.9315C0.584313 64.7336 0.645754 64.5356 0.645754 64.3377C0.645754 64.1397 0.666231 63.9418 0.666231 63.7438C0.666231 63.5459 0.6321 63.3479 0.6321 63.15C0.6321 62.952 0.557014 62.7541 0.557014 62.5561C0.557014 62.3582 0.509228 62.1602 0.509228 61.9622C0.509228 61.7643 0.611623 61.5663 0.611623 61.3684C0.611623 61.1704 0.543359 60.9725 0.543359 60.7745C0.543359 60.5766 0.60479 60.3786 0.60479 60.1807C0.60479 59.9827 0.557014 59.7848 0.557014 59.5868C0.557014 59.3889 0.645754 59.1909 0.645754 58.993C0.645754 58.795 0.536537 58.5971 0.536537 58.3991C0.536537 58.2012 0.509228 58.0032 0.509228 57.8053C0.509228 57.6073 0.570669 57.4094 0.570669 57.2114C0.570669 57.0134 0.570665 56.8155 0.577491 56.6175C0.584317 56.4196 0.652577 56.2216 0.652577 56.0237C0.652577 55.8257 0.591146 55.6278 0.591146 55.4298C0.591146 55.2319 0.700353 55.0339 0.700353 54.836C0.700353 54.6449 0.475106 54.4469 0.475106 54.2558C0.475106 54.0646 0.536537 53.8667 0.536537 53.6756C0.536537 53.4844 0.597968 53.2865 0.597968 53.0954C0.597968 52.9042 0.625274 52.7063 0.6321 52.5152C0.638926 52.324 0.645754 52.1261 0.645754 51.935C0.645754 51.7438 0.60479 51.5459 0.60479 51.3547C0.60479 51.1636 0.638929 50.9657 0.645754 50.7746C0.65258 50.5834 0.543359 50.3855 0.543359 50.1943C0.543359 50.0032 0.679882 49.8121 0.686708 49.6141C0.693534 49.4162 0.659406 49.2251 0.666231 49.0339C0.673057 48.8428 0.591146 48.6449 0.591146 48.4537C0.591146 48.2626 0.748139 48.0715 0.748139 47.8735C0.748139 47.6756 0.693527 47.4844 0.700353 47.2933C0.707179 47.1022 0.789093 46.9042 0.789093 46.7131C0.789093 46.522 0.714008 46.324 0.714008 46.1329C0.714008 45.9418 0.775438 45.7438 0.775438 45.5527C0.775438 45.3616 0.714008 45.1636 0.714008 44.9725C0.714008 44.7814 0.741317 44.5834 0.741317 44.3923C0.741317 44.2012 0.584313 44.0032 0.584313 43.8121C0.584313 43.621 0.714008 43.423 0.714008 43.2319C0.714008 43.0408 0.618445 42.8428 0.618445 42.6517C0.618445 42.4606 0.734484 42.2626 0.734484 42.0715C0.734484 41.8804 0.727662 41.6892 0.727662 41.4981C0.727662 41.307 0.754961 41.1159 0.754961 40.9247C0.754961 40.7336 0.693531 40.5425 0.693531 40.3514C0.693531 40.1602 0.611616 39.9691 0.60479 39.778C0.597964 39.5869 0.754961 39.3957 0.754961 39.2046C0.754961 39.0135 0.768616 38.8223 0.768616 38.6312C0.768616 38.4401 0.795919 38.249 0.789093 38.0578C0.782267 37.8667 0.686708 37.6756 0.686708 37.4845C0.686708 37.2933 0.741317 37.1022 0.741317 36.9111C0.741317 36.72 0.584313 36.5288 0.584313 36.3377C0.584313 36.1466 0.714008 35.9555 0.714008 35.7643C0.714008 35.5732 0.734484 35.3821 0.734484 35.191C0.734484 34.9998 0.632103 34.8087 0.625278 34.6176C0.618452 34.4264 0.693534 34.2353 0.686708 34.0442C0.679882 33.8531 0.618445 33.6619 0.618445 33.4708C0.618445 33.2797 0.604794 33.0886 0.597968 32.8974C0.591142 32.7063 0.611616 32.5152 0.60479 32.3241C0.597964 32.1329 0.461451 31.9418 0.461451 31.7507C0.461451 31.5596 0.577491 31.3684 0.577491 31.1773C0.577491 30.9862 0.597968 30.7951 0.597968 30.6039C0.597968 30.406 0.543363 30.2148 0.536537 30.0169C0.529711 29.8189 0.536537 29.621 0.536537 29.4299C0.536537 29.2387 0.454623 29.0408 0.447797 28.8428C0.440971 28.6449 0.51606 28.4469 0.51606 28.249C0.51606 28.051 0.379544 27.8599 0.379544 27.662C0.379544 27.464 0.393192 27.266 0.386366 27.0749C0.37954 26.8838 0.577495 26.679 0.570669 26.4811C0.563843 26.2831 0.365882 26.092 0.359056 25.894C0.35223 25.6961 0.331761 25.505 0.324935 25.307C0.318109 25.1091 0.35906 24.9111 0.352234 24.72C0.345408 24.5289 0.481928 24.3241 0.481928 24.1261C0.481928 23.9282 0.420491 23.737 0.413665 23.5391C0.406839 23.3411 0.331757 23.15 0.331757 22.9521C0.331757 22.7541 0.345412 22.5561 0.345412 22.365C0.345412 22.1739 0.420491 21.9691 0.413665 21.7712C0.406839 21.5732 0.386366 21.3753 0.386366 21.1841C0.386366 20.993 0.277148 20.7951 0.277148 20.5971C0.277148 20.3992 0.427323 20.2012 0.420498 20.0033C0.413672 19.8053 0.318106 19.6142 0.31128 19.4162C0.304454 19.2183 0.393188 19.0203 0.393188 18.8224C0.393188 18.6244 0.249843 18.4333 0.243017 18.2353C0.236191 18.0374 0.331757 17.8394 0.331757 17.6415C0.331757 17.4367 0.304458 17.2388 0.304458 17.034C0.304458 16.8292 0.270326 16.6312 0.270326 16.4265C0.270326 16.2217 0.256671 16.0237 0.256671 15.819C0.256671 15.6142 0.208895 15.4162 0.208895 15.2114C0.208895 15.0067 0.195241 14.8087 0.195241 14.6039C0.195241 14.3992 0.243017 14.2012 0.243017 13.9964C0.243017 13.7917 0.345412 13.5937 0.345412 13.3889C0.345412 13.1841 0.277148 12.9862 0.277148 12.7814C0.277148 12.5766 0.324928 12.3787 0.318102 12.1739C0.318102 11.9828 0.236195 11.7917 0.236195 11.6005C0.236195 11.4094 0.352234 11.2183 0.352234 11.0272C0.352234 10.836 0.188412 10.6517 0.181586 10.4606C0.17476 10.2695 0.195234 10.0783 0.188408 9.88722C0.181582 9.6961 0.113326 9.50497 0.1065 9.31385C0.0996743 9.12272 0.311284 8.92476 0.304458 8.73364C0.297632 8.54251 0.236195 8.35139 0.236195 8.16026C0.236195 7.96914 0.236195 7.77801 0.236195 7.58689C0.236195 7.39576 0.215718 7.20464 0.215718 7.01351C0.215718 6.82238 0.13381 6.63125 0.13381 6.44012C0.13381 6.249 0.256675 6.05788 0.249849 5.86675C0.243023 5.67562 0.277148 5.4845 0.277148 5.29337C0.277148 5.10907 0.263497 4.9316 0.277148 4.7473C0.2908 4.563 0.277148 4.3787 0.297625 4.1944C0.318103 4.0101 0.270329 3.81898 0.283981 3.63468C0.297633 3.45038 0.345404 3.26607 0.359056 3.08177C0.379534 2.82921 0.359058 2.55617 0.488751 2.41283C0.618443 2.26949 0.911963 2.27632 1.14404 2.23536C1.35565 2.1944 1.53995 1.98279 1.75155 1.94184C1.96316 1.90088 2.18158 1.86675 2.40001 1.83262C2.61844 1.79849 2.85735 1.96232 3.07578 1.94184C3.29421 1.92136 3.49899 1.86675 3.71742 1.86675C3.91537 1.86675 4.1065 1.74389 4.30445 1.74389C4.50241 1.74389 4.69353 1.87359 4.89148 1.87359C5.08944 1.87359 5.28055 1.85311 5.4785 1.85311C5.67646 1.85311 5.86758 1.8258 6.06553 1.8258C6.26349 1.8258 6.45461 1.71658 6.65256 1.71658C6.85052 1.71658 7.04164 1.76437 7.23959 1.76437C7.43755 1.76437 7.62867 1.87359 7.82662 1.87359C8.02458 1.87359 8.2157 1.88041 8.41366 1.88041C8.61161 1.88041 8.80273 1.75072 9.00069 1.75755C9.19864 1.76437 9.38976 1.88041 9.58772 1.88041C9.78567 1.88041 9.97679 1.94867 10.1747 1.94867C10.3727 1.94867 10.5638 1.72341 10.7618 1.72341C10.9597 1.72341 11.1509 1.95549 11.3488 1.95549C11.5468 1.95549 11.7379 1.81214 11.9358 1.81214C12.1338 1.81214 12.3249 1.88041 12.5229 1.88041C12.7208 1.88041 12.9119 1.84628 13.1099 1.84628C13.3079 1.84628 13.499 1.92819 13.6969 1.92136C13.8949 1.91454 14.086 1.8258 14.284 1.81898C14.4819 1.81215 14.673 1.91454 14.871 1.91454C15.0621 1.91454 15.2464 1.79849 15.4375 1.79167C15.6287 1.78484 15.813 1.67563 16.0041 1.66197C16.1952 1.64832 16.3932 1.77802 16.5843 1.76437C16.7754 1.75072 16.9529 1.61419 17.144 1.60054C17.3352 1.58689 17.5399 1.73706 17.7242 1.71658C17.9085 1.6961 18.1065 1.70294 18.2976 1.68246C18.4887 1.66198 18.673 1.59372 18.8642 1.58007C19.0553 1.56641 19.2328 1.43672 19.4239 1.42307C19.615 1.40942 19.813 1.47768 20.0041 1.46403C20.1952 1.45037 20.3727 1.32068 20.5638 1.30703C20.7549 1.29338 20.9529 1.4572 21.144 1.44355C21.342 1.4299 21.5263 1.23194 21.7174 1.21829C21.9085 1.20464 22.1201 1.38211 22.3112 1.37529C22.5024 1.36846 22.7003 1.32068 22.8983 1.30703C23.0962 1.29338 23.2805 1.17734 23.4785 1.17052C23.6764 1.16369 23.8676 1.10908 24.0655 1.10225C24.2635 1.09543 24.4614 1.22512 24.6594 1.21829C24.8573 1.21147 25.0485 1.07495 25.2396 1.0613C25.4307 1.04765 25.6355 1.19099 25.8334 1.18416C26.0314 1.17733 26.2225 1.10226 26.4205 1.09543C26.6184 1.0886 26.8095 1.13638 27.0075 1.12955C27.2054 1.12273 27.3966 1.06812 27.5945 1.0613C27.7925 1.05447 27.9836 1.02034 28.1816 1.01351C28.3795 1.00669 28.5775 1.17052 28.7686 1.17052C28.9597 1.17052 29.1577 0.993039 29.3488 0.986213C29.5399 0.979387 29.7447 1.0886 29.9358 1.08178C30.1269 1.07495 30.3249 0.999868 30.5228 0.999868C30.7208 0.999868 30.9119 0.958907 31.1099 0.952081C31.3078 0.945255 31.499 0.952081 31.6969 0.952081C31.8949 0.952081 32.086 0.952081 32.2839 0.952081C32.4819 0.952081 32.673 1.06129 32.871 1.05447C33.0689 1.04764 33.26 0.972558 33.458 0.972558C33.6559 0.972558 33.8471 0.986213 34.045 0.986213C34.243 0.986213 34.4341 1.08178 34.6321 1.08178C34.83 1.08178 35.0211 1.05447 35.2191 1.05447C35.417 1.05447 35.6082 1.06812 35.8061 1.06812C36.0041 1.06812 36.1952 1.02034 36.3931 1.02034C36.5911 1.02034 36.7822 1.11591 36.9802 1.11591C37.1781 1.11591 37.3693 1.02717 37.5672 1.02717C37.7652 1.02717 37.9563 0.924782 38.1542 0.924782C38.3522 0.924782 38.5433 0.924782 38.7413 0.924782C38.9392 0.924782 39.1303 0.911127 39.3283 0.911127C39.5262 0.911127 39.7174 1.04082 39.9153 1.04082C40.1133 1.04082 40.3044 1.02717 40.5024 1.02717C40.7003 1.02717 40.8914 1.0613 41.0894 1.0613C41.2873 1.0613 41.4785 0.986206 41.6764 0.979381C41.8744 0.972555 42.0655 0.89065 42.2566 0.89065C42.4477 0.89065 42.6457 0.945259 42.8436 0.945259C43.0416 0.945259 43.2327 0.924782 43.4307 0.924782C43.6286 0.924782 43.8198 1.10225 44.0177 1.10225C44.2157 1.10225 44.4068 1.09542 44.6047 1.0886C44.8027 1.08177 44.9938 0.904305 45.1849 0.904305C45.3761 0.904305 45.574 0.91795 45.772 0.91795C45.9699 0.91795 46.1611 0.904305 46.359 0.904305C46.557 0.904305 46.7481 1.00669 46.946 0.999868C47.144 0.993042 47.3351 0.979381 47.5331 0.979381C47.731 0.979381 47.9221 0.904299 48.1133 0.897473C48.3044 0.890647 48.5023 1.01352 48.7003 1.00669C48.8982 0.999864 49.0894 0.91795 49.2805 0.91795C49.4716 0.91795 49.6696 0.999868 49.8675 0.999868C50.0655 0.999868 50.2566 0.870167 50.4477 0.863341C50.6389 0.856515 50.8368 0.883822 51.0348 0.876996C51.2327 0.87017 51.4238 0.897473 51.6218 0.897473C51.8197 0.897473 52.0109 0.883818 52.2088 0.883818C52.4068 0.883818 52.5979 0.965736 52.7959 0.965736C52.9938 0.965736 53.1849 0.781433 53.3761 0.781433C53.5672 0.781433 53.7651 0.945259 53.9631 0.945259C54.161 0.945259 54.3522 0.795088 54.5501 0.795088C54.7481 0.795088 54.9392 0.938427 55.1371 0.938427C55.3283 0.938427 55.5262 0.958904 55.7174 0.958904C55.9085 0.958904 56.1064 0.863341 56.2976 0.863341C56.4887 0.863341 56.6866 0.876996 56.8778 0.876996C57.0689 0.876996 57.26 0.938427 57.458 0.938427C57.6559 0.938427 57.847 0.781433 58.0382 0.781433C58.2293 0.781433 58.4272 0.781433 58.6184 0.781433C58.8095 0.781433 59.0006 0.91795 59.1986 0.91795C59.3965 0.91795 59.5877 0.781433 59.7788 0.781433C59.9699 0.781433 60.161 0.876996 60.359 0.876996C60.5569 0.876996 60.7412 0.911124 60.9392 0.91795C61.1371 0.924776 61.3283 0.91795 61.5194 0.91795C61.7105 0.91795 61.9016 1.01351 62.0996 1.01351C62.2976 1.01351 62.4887 0.945255 62.6798 0.952081C62.8709 0.958907 63.0689 0.897473 63.26 0.897473C63.4511 0.897473 63.6423 0.986209 63.8402 0.993035C64.0382 0.999861 64.2293 0.829216 64.4204 0.836042C64.6115 0.842868 64.8027 0.95891 64.9938 0.965736C65.1849 0.972562 65.3829 0.965736 65.574 0.965736C65.7651 0.965736 65.9563 0.986209 66.1542 0.993035C66.3522 0.999861 66.5365 1.10225 66.7276 1.10907C66.9187 1.1159 67.1167 1.09542 67.3078 1.10907C67.4989 1.12273 67.6969 1.02716 67.888 1.03399C68.0791 1.04082 68.2771 1.03399 68.4682 1.04764C68.6593 1.0613 68.8504 1.08177 69.0484 1.0886C69.2463 1.0886 69.4443 1.1159 69.6422 1.12273C69.8402 1.12956 70.0382 1.0613 70.2361 1.07495C70.4341 1.08861 70.6252 1.24559 70.8231 1.25925C71.0211 1.2729 71.2259 1.0886 71.4238 1.10225C71.6218 1.1159 71.8129 1.22512 72.0108 1.23195C72.2088 1.23877 72.3999 1.30021 72.5979 1.30703C72.7958 1.31386 73.0006 1.17733 73.1986 1.18416C73.3965 1.19099 73.5945 1.2183 73.7856 1.23195C73.9767 1.2456 74.1678 1.38894 74.3658 1.4026C74.5638 1.41625 74.7549 1.48451 74.9528 1.49816C75.1508 1.51181 75.3556 1.4299 75.5467 1.44355C75.7378 1.4572 75.9494 1.37529 76.1405 1.38894C76.3317 1.40259 76.5228 1.53911 76.7207 1.55277C76.9187 1.56642 77.1098 1.62102 77.3078 1.63467C77.5057 1.64833 77.7037 1.58689 77.9016 1.60054C78.0996 1.61419 78.2975 1.56641 78.4955 1.58007C78.6934 1.59372 78.8846 1.71659 79.0757 1.73024C79.2668 1.74389 79.4716 1.75754 79.6627 1.76437C79.8538 1.77802 80.045 1.78485 80.2361 1.7985C80.4272 1.81215 80.6183 1.8258 80.8095 1.83945C81.0006 1.85311 81.1986 1.79849 81.3897 1.81214C81.5808 1.8258 81.7719 1.8258 81.9699 1.83945C82.1678 1.85311 82.3453 1.97597 82.5364 1.98963C82.7276 2.00328 82.9187 2.04423 83.1098 2.05788C83.3009 2.07153 83.4989 2.03741 83.69 2.04423C83.8811 2.05106 84.0791 2.00328 84.2702 2.0101C84.4613 2.01693 84.6525 2.08518 84.8436 2.09201C85.0347 2.09884 85.2258 1.90771 85.4238 1.90089C85.6354 1.90089 85.8265 2.05788 86.0108 2.07153C86.2224 2.09201 86.4409 2.0101 86.6183 2.05788C86.8163 2.11249 87.0347 2.1671 87.1985 2.25584C87.3624 2.34457 87.4921 2.54252 87.6422 2.67904C87.7787 2.80873 87.8334 3.02034 87.963 3.18416C88.0791 3.33433 88.1815 3.49132 88.2907 3.6688C88.3863 3.8258 88.434 4.01692 88.5296 4.20122C88.6183 4.36504 88.9119 4.44014 89.0006 4.62444C89.0825 4.80191 89.0825 5.02033 89.1439 5.20463C89.2054 5.38893 89.2122 5.58689 89.2668 5.77802C89.3214 5.96915 89.3624 6.15344 89.3965 6.34456C89.4306 6.53569 89.5194 6.71999 89.5467 6.91112C89.574 7.10224 89.4852 7.30702 89.4989 7.49815C89.5125 7.68927 89.5945 7.88041 89.6013 8.07153C89.6081 8.26266 89.6081 8.4606 89.6149 8.65855C89.6217 8.8565 89.5945 9.04763 89.6013 9.23876C89.6081 9.42306 89.7378 9.60736 89.7378 9.79166C89.7378 9.97596 89.7719 10.1671 89.7719 10.3514C89.7719 10.5357 89.7378 10.7268 89.7378 10.9111C89.7378 11.0954 89.7515 11.2865 89.7515 11.4708C89.7515 11.6551 89.6149 11.8394 89.6081 12.0306C89.6013 12.2217 89.6491 12.406 89.6422 12.5903C89.6354 12.7746 89.574 12.9589 89.574 13.15C89.574 13.3411 89.6832 13.5186 89.6832 13.7029C89.7173 13.7029 89.6764 13.7166 89.7037 13.7166H89.6218Z" fill="#E63500"/>
</svg>
