<svg width="19" height="101" viewBox="0 0 19 101" fill="none" xmlns="http://www.w3.org/2000/svg">
<path d="M16.829 98.0144C16.6593 98.071 16.5273 98.2313 16.3765 98.2407C16.1596 98.2501 15.9522 98.269 15.7353 98.2973C15.5185 98.3256 15.2828 98.2501 15.0753 98.2973C14.8679 98.3444 14.6793 98.4953 14.4719 98.5519C14.2645 98.6084 14.0193 98.5707 13.8119 98.6461C13.6045 98.7215 13.4442 98.9007 13.2462 98.9856C13.0482 99.0704 12.8408 99.127 12.6428 99.2118C12.4448 99.2967 12.2468 99.3815 12.0488 99.4664C11.8414 99.5607 11.6151 99.6078 11.3982 99.7021C11.1814 99.7964 10.9645 99.853 10.7571 99.9378C10.5497 100.023 10.38 100.23 10.1631 100.315C9.94626 100.4 9.71998 100.428 9.50313 100.504C9.28627 100.579 9.07885 100.654 8.86199 100.702C8.64514 100.749 8.41885 100.786 8.19257 100.796C7.96629 100.805 7.74943 100.758 7.52315 100.73C7.29687 100.702 7.08944 100.654 6.87259 100.598C6.65574 100.541 6.43888 100.504 6.23146 100.419C6.02403 100.334 5.85432 100.174 5.64689 100.089C5.43947 100.004 5.23204 99.9378 5.03404 99.8435C4.83605 99.7493 4.60034 99.7115 4.41177 99.6078C4.2232 99.5041 4.07234 99.3061 3.88377 99.193C3.6952 99.0798 3.46892 99.0138 3.28978 98.8818C3.11064 98.7498 2.9315 98.6178 2.75236 98.4764C2.54494 98.3067 2.37522 98.0804 2.15837 97.9296C1.94152 97.7787 1.67752 97.6844 1.43238 97.5713C1.15896 97.4487 0.998674 97.279 0.885533 97.081C0.772391 96.883 0.65925 96.6473 0.649822 96.3739C0.640393 96.1287 0.602678 95.8836 0.59325 95.6384C0.583821 95.3933 0.621536 95.1482 0.612107 94.903C0.602679 94.6579 0.630964 94.4127 0.612107 94.1676C0.59325 93.9225 0.508393 93.6868 0.489536 93.4416C0.47068 93.2059 0.546108 92.9702 0.527251 92.7345C0.508394 92.4988 0.423539 92.2725 0.414111 92.0368C0.404682 91.8011 0.470681 91.5654 0.461252 91.3297C0.451824 91.094 0.46125 90.8582 0.451822 90.6319C0.442393 90.4057 0.319824 90.17 0.319824 89.9343C0.319824 89.6985 0.376396 89.4628 0.376396 89.2366C0.376396 89.0103 0.33868 88.7651 0.348108 88.5388C0.357537 88.3125 0.432966 88.0768 0.442395 87.8411C0.451823 87.6054 0.489538 87.3792 0.498967 87.1434C0.508395 86.9077 0.498965 86.672 0.508394 86.4457C0.517822 86.2194 0.59325 85.9837 0.612107 85.7575C0.630964 85.5312 0.630963 85.2954 0.659249 85.0597C0.687534 84.824 0.725246 84.5978 0.753532 84.3715C0.791245 84.1452 0.696962 83.9 0.725247 83.6738C0.753533 83.4475 0.800675 83.2212 0.828961 82.9949C0.857246 82.7687 0.979814 82.5424 0.989242 82.3161C0.998671 82.0898 0.942103 81.8541 0.951531 81.6278C0.970388 81.3544 1.08353 81.1281 1.16839 80.9112C1.26267 80.6755 1.37581 80.4681 1.55495 80.2889C1.72466 80.1192 1.89438 79.9307 2.13009 79.7987C2.2998 79.7044 2.49779 79.6761 2.65808 79.5818C2.81836 79.4875 2.92208 79.2707 3.09179 79.1858C3.2615 79.101 3.4595 79.0538 3.62921 78.9784C3.83663 78.8841 3.97806 78.7521 4.12891 78.6201C4.2892 78.4881 4.48719 78.3844 4.59091 78.2053C4.69462 78.0356 4.74176 77.8281 4.79833 77.6113C4.86433 77.3567 5.00576 77.1682 5.06233 76.9796C5.14718 76.7062 5.1189 76.461 5.21319 76.3101C5.34518 76.1027 5.55261 76.0744 5.79775 76.0273C5.96746 75.9896 6.17489 75.933 6.45774 75.9424C6.64631 75.9424 6.87259 76.0084 7.12716 76.0179C7.34401 76.0367 7.56086 76.0273 7.77772 76.0461C7.99457 76.065 8.21143 76.0933 8.42828 76.1122C8.64514 76.131 8.86199 76.1499 9.07884 76.1593C9.2957 76.1687 9.51255 76.1687 9.72941 76.1782C9.94626 76.1876 10.1631 76.2065 10.38 76.2159C10.5968 76.2253 10.8137 76.2724 11.0305 76.2819C11.2474 76.2913 11.4642 76.2441 11.6811 76.2536C11.9451 76.263 12.1431 76.3385 12.3317 76.4516C12.5202 76.5647 12.6334 76.6967 12.7088 76.9701C12.7654 77.187 12.9634 77.3473 13.0576 77.5453C13.1519 77.7433 13.1991 77.9601 13.3216 78.1487C13.4442 78.3373 13.5479 78.5258 13.6988 78.6955C13.8496 78.8652 14.0193 78.9878 14.1891 79.1387C14.3588 79.2895 14.5191 79.431 14.6888 79.563C14.8585 79.695 14.9999 79.8835 15.179 80.0061C15.443 80.1852 15.6882 80.3738 15.9333 80.5718C16.1219 80.7227 16.3199 80.8452 16.4047 81.0338C16.4896 81.2224 16.4236 81.4581 16.4236 81.6938C16.4236 81.9201 16.4707 82.1369 16.4707 82.3632C16.4707 82.5895 16.5745 82.8063 16.5745 83.0326C16.5745 83.2589 16.5933 83.4758 16.6027 83.7021C16.6122 83.9283 16.6027 84.1452 16.6027 84.3715C16.6027 84.5978 16.499 84.824 16.499 85.0409C16.499 85.2577 16.6216 85.484 16.631 85.7103C16.6405 85.9366 16.631 86.1535 16.631 86.3797C16.631 86.606 16.565 86.8229 16.565 87.0492C16.565 87.2754 16.5839 87.4923 16.5933 87.7186C16.6027 87.9448 16.5933 88.1617 16.6122 88.388C16.631 88.6143 16.631 88.8311 16.631 89.0574C16.631 89.2837 16.763 89.5005 16.763 89.7268C16.763 89.9531 16.7442 90.17 16.763 90.3962C16.7819 90.6225 16.7347 90.8394 16.7442 91.0657C16.7536 91.292 16.7253 91.5088 16.7253 91.7351C16.7253 91.9614 16.8007 92.1782 16.8102 92.4045C16.8196 92.6308 16.8573 92.8476 16.8573 93.0739C16.8573 93.3002 16.7536 93.5265 16.763 93.7433C16.7725 93.9602 16.8667 94.1865 16.8667 94.4128C16.8667 94.639 16.895 94.8559 16.9044 95.0822C16.9139 95.3085 16.9327 95.5253 16.9422 95.7516C16.9516 95.9779 16.829 96.2042 16.8384 96.421C16.8479 96.6379 16.9704 96.8641 16.9799 97.0904C16.9893 97.3167 16.9987 97.5336 17.0082 97.7598C17.0082 97.8164 16.9044 97.8824 16.8667 98.0427L16.829 98.0144Z" fill="#FDD202"/>
<path d="M13.0767 72.388C12.9447 72.5388 12.8881 72.652 12.7561 72.784C12.6147 72.9254 12.4921 73.0762 12.379 73.2082C12.247 73.3591 12.1056 73.4817 12.0301 73.6514C11.9264 73.8965 11.8981 74.1699 11.8887 74.4717C11.8887 74.7356 11.8887 74.9996 11.8698 75.2825C11.6341 75.3108 11.4173 75.3202 11.1816 75.3391C10.9459 75.3579 10.7102 75.3579 10.465 75.3673C10.2199 75.3768 9.99359 75.3673 9.74845 75.3673C9.50331 75.3673 9.27703 75.3391 9.04132 75.3296C8.80561 75.3202 8.5699 75.3391 8.32476 75.3296C8.07962 75.3202 7.84391 75.3485 7.60819 75.3296C7.37248 75.3108 7.1462 75.1882 6.91049 75.1599C6.67478 75.1316 6.37307 75.2071 6.12793 75.1599C6.15622 74.9336 6.28821 74.6696 6.3165 74.4528C6.34478 74.2359 6.2505 73.9908 6.27878 73.7739C6.30707 73.5571 6.43907 73.3402 6.46735 73.1234C6.49564 72.9065 6.5145 72.6802 6.54278 72.4634C6.57107 72.2465 6.6465 72.0297 6.67478 71.8128C6.70307 71.596 6.65592 71.3603 6.68421 71.1434C6.73135 70.8511 6.85392 70.5871 7.03306 70.408C7.2122 70.2289 7.4762 70.144 7.78734 70.1346C8.03248 70.1251 8.26819 70.0969 8.51333 70.0874C8.75847 70.078 9.0036 70.078 9.23931 70.0686C9.47502 70.0591 9.72016 70.0214 9.9653 70.012C10.2104 70.0026 10.4556 70.0497 10.6913 70.0497C10.8987 70.0497 11.0779 70.0874 11.2381 70.1628C11.4173 70.2477 11.5304 70.3797 11.6341 70.54C11.7284 70.6908 11.7567 70.8606 11.7944 71.0586C11.8321 71.2943 11.9736 71.4923 12.0584 71.6714C12.1621 71.8788 12.3036 72.0203 12.4921 72.1428C12.6618 72.2465 12.7844 72.388 13.0295 72.4163L13.0767 72.388Z" fill="white"/>
<path d="M0.75331 24.3316C0.75331 24.1147 0.696739 23.8884 0.687311 23.6716C0.677882 23.4547 0.611885 23.2379 0.611885 23.021C0.611885 22.8042 0.659028 22.5779 0.6496 22.361C0.640171 22.1441 0.659028 21.9273 0.6496 21.701C0.640171 21.4747 0.696739 21.2579 0.687311 21.041C0.677882 20.8242 0.659028 20.6073 0.6496 20.3811C0.640171 20.1548 0.5176 19.9473 0.508172 19.7305C0.498743 19.5136 0.536458 19.2873 0.527029 19.0705C0.517601 18.8536 0.527029 18.6368 0.527029 18.4105C0.527029 18.1842 0.489315 17.9768 0.489315 17.7505C0.489315 17.5242 0.489315 17.3168 0.489315 17.0905C0.489315 16.8642 0.423316 16.6568 0.423316 16.4399C0.423316 16.2231 0.536458 15.9968 0.527029 15.78C0.527029 15.5443 0.527027 15.318 0.517599 15.0822C0.50817 14.8465 0.479886 14.6203 0.470457 14.3846C0.461029 14.1488 0.413887 13.9226 0.404459 13.6963C0.39503 13.47 0.300747 13.2343 0.291318 13.008C0.28189 12.7817 0.366744 12.546 0.366744 12.3103C0.366744 12.0746 0.272461 11.8483 0.272461 11.6126C0.272461 11.292 0.338461 11.0469 0.395032 10.8678C0.470459 10.6226 0.630741 10.4906 0.894738 10.368C1.07388 10.2832 1.30016 10.2266 1.59244 10.1418C1.82815 10.0663 2.02615 9.90605 2.26186 9.82119C2.49757 9.73634 2.71442 9.63264 2.94071 9.53835C3.16699 9.44407 3.42156 9.42521 3.64784 9.33092C3.87412 9.23664 4.07212 9.08579 4.2984 8.98208C4.52469 8.87836 4.76982 8.84064 4.99611 8.73693C5.23182 8.63322 5.40153 8.32207 5.53353 8.08636C5.61838 7.94494 5.49582 7.70922 5.56182 7.54894C5.66553 7.26608 5.77867 7.05866 5.84467 6.87009C5.94838 6.54952 6.03324 6.37038 6.18409 6.24781C6.32552 6.14409 6.52352 6.12525 6.87237 6.08754C7.07036 6.06868 7.29665 5.97439 7.59836 5.96496C7.82464 5.95554 8.06035 6.01211 8.28663 5.99325C8.51292 5.97439 8.72977 5.83297 8.95605 5.82354C9.18233 5.81412 9.41805 5.9461 9.64433 5.92724C9.87061 5.90839 10.0875 5.77639 10.3137 5.75754C10.5495 5.73868 10.7475 5.82354 10.9077 5.9084C11.0775 6.00268 11.1435 6.18182 11.2377 6.37982C11.3132 6.53067 11.5112 6.62494 11.596 6.7758C11.6809 6.92665 11.6997 7.11524 11.7846 7.26609C11.8977 7.45466 12.0863 7.57721 12.2277 7.74692C12.3691 7.91664 12.4729 8.11463 12.6426 8.24663C12.8123 8.37863 13.0103 8.45407 13.2083 8.55779C13.3968 8.65207 13.5854 8.72751 13.8023 8.80293C14.0474 8.88779 14.302 8.97264 14.5471 9.06693C14.7923 9.16121 14.9997 9.35921 15.2448 9.4535C15.49 9.54778 15.7728 9.52891 16.0274 9.61377C16.2254 9.67977 16.3857 9.77404 16.4894 9.89661C16.5931 10.0192 16.6497 10.2078 16.6685 10.4058C16.6874 10.6226 16.6308 10.8583 16.6497 11.0752C16.6685 11.292 16.7251 11.5089 16.7534 11.7352C16.7817 11.9614 16.8288 12.1689 16.8571 12.3952C16.8854 12.6214 16.9137 12.8383 16.9325 13.0551C16.9514 13.272 16.8571 13.5077 16.8759 13.7246C16.8948 13.9414 17.0174 14.1583 17.0457 14.3751C17.0739 14.592 17.0457 14.8183 17.0739 15.0446C17.1022 15.2708 17.0457 15.4877 17.0739 15.714C17.1022 15.9403 17.2625 16.1382 17.2814 16.3645C17.3002 16.5908 17.2814 16.8077 17.3002 17.0339C17.3191 17.2602 17.3285 17.4771 17.3474 17.6939C17.3662 17.9108 17.3002 18.1465 17.3285 18.3634C17.3568 18.5802 17.4888 18.7971 17.5076 19.0139C17.5265 19.2308 17.5359 19.4571 17.5548 19.6739C17.5736 19.8908 17.5642 20.1171 17.5831 20.3433C17.6019 20.5696 17.6774 20.7959 17.6962 21.0222C17.7151 21.2485 17.6962 21.4842 17.7245 21.7105C17.7528 21.9368 17.7245 22.1724 17.7528 22.3987C17.7811 22.625 17.7999 22.8607 17.8188 23.087C17.8376 23.3133 17.9036 23.5396 17.9319 23.7659C17.9602 23.9921 18.0262 24.2184 18.0451 24.4447C18.0639 24.671 18.1205 24.8973 18.1488 25.1236C18.1771 25.3498 18.1111 25.595 18.1299 25.8213C18.1488 26.0475 18.2525 26.2738 18.2808 26.5001C18.3091 26.7358 18.2431 26.9621 18.2242 27.1695C18.1959 27.3958 18.0922 27.5844 18.0074 27.7824C17.9225 27.9804 17.9225 28.2349 17.7811 28.4141C17.6491 28.5838 17.4134 28.6592 17.2342 28.8101C17.0645 28.9421 16.9419 29.1589 16.7345 29.2721C16.5554 29.3758 16.3762 29.4795 16.1971 29.5832C16.018 29.6869 15.7822 29.6964 15.6031 29.8095C15.424 29.9226 15.2637 30.0452 15.0845 30.1583C14.9054 30.2715 14.7734 30.4506 14.5943 30.5543C14.4151 30.658 14.2548 30.7995 14.0851 30.9126C13.9154 31.0257 13.6891 31.0729 13.5194 31.186C13.3403 31.3086 13.1234 31.3746 12.9254 31.4783C12.7274 31.582 12.5671 31.7517 12.3597 31.8366C12.1523 31.9215 11.9072 31.8837 11.6997 31.9497C11.4923 32.0157 11.2943 32.1383 11.0775 32.1855C10.8606 32.2326 10.6437 32.2326 10.4175 32.2703C10.1912 32.308 9.99318 32.4023 9.7669 32.4306C9.54062 32.4589 9.32376 32.4589 9.10691 32.4683C8.89005 32.4777 8.66377 32.4966 8.44692 32.4966C8.23006 32.4966 8.00378 32.4966 7.7775 32.4872C7.55121 32.4777 7.33436 32.4306 7.11751 32.4023C6.90065 32.374 6.69323 32.2703 6.47637 32.2326C6.25952 32.1949 6.01438 32.2703 5.79753 32.2326C5.58067 32.1949 5.38267 32.0723 5.16582 32.0063C4.94897 31.9403 4.75097 31.8366 4.55297 31.7612C4.35498 31.6857 4.11926 31.648 3.92127 31.5537C3.72327 31.4594 3.5347 31.3275 3.34613 31.2143C3.15756 31.1012 2.95957 30.988 2.78043 30.8655C2.60129 30.7429 2.47872 30.5355 2.309 30.3941C2.17701 30.2715 1.96958 30.2338 1.81872 30.1301C1.63016 30.0075 1.46987 29.8566 1.31902 29.7152C1.15873 29.5644 0.970164 29.4324 0.857023 29.2532C0.734453 29.0741 0.659027 28.8572 0.593028 28.6498C0.527029 28.4424 0.498745 28.2349 0.479888 28.0087C0.461031 27.8012 0.432743 27.5844 0.4516 27.3581C0.479885 27.1035 0.593028 26.8584 0.593028 26.6038C0.593028 26.3492 0.611885 26.0947 0.611885 25.8401C0.611885 25.5855 0.498743 25.331 0.489315 25.0764C0.479886 24.8218 0.583598 24.5767 0.583598 24.3316C0.649597 24.3316 0.668457 24.3221 0.734456 24.3221L0.75331 24.3316Z" fill="#E63500"/>
<path d="M11.4642 2.31587C11.3134 2.54215 11.1625 2.70242 11.0305 2.89099C10.8702 3.10784 10.7571 3.33415 10.7005 3.56043C10.6439 3.78671 10.6911 4.03184 10.7288 4.28641C10.7665 4.51269 10.7854 4.73896 10.8137 4.9841C10.6062 5.04067 10.4271 5.11609 10.2197 5.15381C10.0122 5.19152 9.80481 5.24811 9.58796 5.28582C9.3711 5.32353 9.16368 5.3141 8.94682 5.34239C8.72997 5.37067 8.53197 5.46495 8.31511 5.48381C8.09826 5.50267 7.88141 5.45553 7.67398 5.46496C7.46655 5.47439 7.2497 5.53097 7.03285 5.53097C6.81599 5.53097 6.60857 5.46496 6.39172 5.46496C6.17486 5.46496 6.01458 5.48381 5.79772 5.48381C5.79772 5.2481 5.67515 5.05953 5.66573 4.83324C5.6563 4.60696 5.62801 4.36182 5.61858 4.12611C5.60915 3.8904 5.74115 3.65469 5.73172 3.41898C5.7223 3.18327 5.67515 2.95699 5.67515 2.72128C5.67515 2.48557 5.56201 2.2593 5.56201 2.02359C5.56201 1.76902 5.73172 1.57101 5.87315 1.39187C6.01457 1.21273 6.14657 1.0336 6.42 0.986454C6.63685 0.94874 6.84428 0.8733 7.0517 0.826158C7.25913 0.779016 7.48541 0.788457 7.70227 0.750743C7.91912 0.713029 8.13598 0.684729 8.3434 0.647015C8.55083 0.609301 8.77711 0.609323 8.99396 0.581038C9.28624 0.543324 9.51253 0.590451 9.71052 0.713021C9.90852 0.835591 10.0688 1.01475 10.1631 1.28817C10.2291 1.48617 10.3328 1.6653 10.4459 1.80672C10.5685 1.96701 10.7005 2.13671 10.8797 2.21214C11.0399 2.28757 11.2191 2.28758 11.4359 2.28758L11.4642 2.31587Z" fill="white"/>
<path d="M1.19658 54.0024C1.20601 53.7667 1.14944 53.5121 1.15887 53.2764C1.16829 53.0407 1.21544 52.805 1.22486 52.5693C1.23429 52.3336 1.16829 52.0979 1.17772 51.8622C1.18715 51.6265 1.26258 51.3907 1.27201 51.155C1.28144 50.9193 1.21544 50.6836 1.22486 50.4479C1.23429 50.2122 1.29086 49.9765 1.30029 49.7408C1.30972 49.5051 1.39458 49.2693 1.40401 49.0336C1.41343 48.7979 1.38515 48.5622 1.40401 48.3265C1.42286 48.0908 1.44172 47.8551 1.45115 47.6194C1.46058 47.3837 1.47943 47.1479 1.48886 46.9122C1.49829 46.6765 1.37572 46.4314 1.38515 46.1957C1.39458 45.8845 1.50772 45.6677 1.54543 45.4885C1.61143 45.2151 1.67743 44.9983 1.91314 44.8851C2.08285 44.8097 2.31857 44.7248 2.62028 44.6683C2.80884 44.6306 2.99741 44.6117 3.17655 44.574C3.35569 44.5363 3.55369 44.5363 3.74226 44.4986C3.93083 44.4608 4.1194 44.4137 4.29854 44.3949C4.60025 44.3571 4.83596 44.3006 5.03395 44.1403C5.23195 43.98 5.30738 43.7537 5.39224 43.4614C5.45823 43.2351 5.52423 43.0089 5.58081 42.7732C5.63738 42.5375 5.76937 42.33 5.80709 42.0943C5.8448 41.8869 5.87309 41.6889 5.98623 41.5852C6.09937 41.4815 6.31622 41.5758 6.51422 41.5663C6.7405 41.5569 6.96678 41.472 7.18364 41.4626C7.40049 41.4532 7.62678 41.3589 7.85306 41.3495C8.07934 41.34 8.30562 41.3778 8.5319 41.3589C8.75819 41.34 8.98447 41.3589 9.21075 41.3589C9.43703 41.3589 9.66332 41.3589 9.8896 41.3589C10.1159 41.3589 10.3422 41.3118 10.5684 41.3023C10.7947 41.2929 11.021 41.3495 11.2473 41.34C11.549 41.3306 11.7659 41.2646 11.9073 41.3872C12.0487 41.5098 12.0299 41.736 12.0959 42.0283C12.1336 42.1792 12.1807 42.33 12.1996 42.4809C12.2279 42.7449 12.3221 42.99 12.4353 43.1786C12.5578 43.3954 12.6993 43.6217 12.9067 43.7537C13.0953 43.8763 13.3593 43.9328 13.6138 43.9894C13.8684 44.0554 14.1324 44.0743 14.387 44.1403C14.6415 44.2063 14.8867 44.3289 15.1412 44.3854C15.3958 44.442 15.6598 44.4891 15.9238 44.5268C16.2255 44.574 16.4141 44.6494 16.5555 44.8097C16.6969 44.97 16.7441 45.1868 16.7912 45.4791C16.8289 45.7054 16.9515 45.9222 16.9892 46.1391C17.0269 46.356 17.0175 46.6011 17.0552 46.8274C17.0929 47.0537 17.1872 47.2705 17.2249 47.4968C17.2626 47.7231 17.1966 47.9682 17.2249 48.1945C17.2532 48.4208 17.4229 48.6282 17.4606 48.8545C17.4984 49.0808 17.4795 49.3165 17.5078 49.5428C17.5361 49.7691 17.5078 50.0048 17.5361 50.2311C17.5644 50.4573 17.5926 50.6836 17.6209 50.9099C17.6492 51.1362 17.6869 51.3625 17.7058 51.5887C17.7246 51.815 17.7812 52.0413 17.8001 52.2676C17.8189 52.4939 17.8472 52.7202 17.8661 52.9559C17.8849 53.1916 17.8849 53.4179 17.8943 53.6442C17.9038 53.8704 17.9321 54.0967 17.9415 54.3324C17.9509 54.5681 17.8849 54.7944 17.9038 55.0207C17.9226 55.247 17.9321 55.4733 17.9321 55.709C17.9321 55.9447 18.0452 56.1616 18.0452 56.3878C18.0452 56.6141 18.0263 56.8498 18.0263 57.0761C18.0263 57.3024 18.1018 57.5381 18.1018 57.7644C18.1018 57.9907 17.9603 58.2169 17.9603 58.4526C17.9603 58.6883 17.9603 58.9052 17.9603 59.1409C17.9603 59.3766 18.0263 59.6029 18.0169 59.8292C18.0169 60.0649 17.9415 60.2912 17.9415 60.5269C17.9415 60.7626 18.0169 60.9889 18.0169 61.2246C18.0169 61.4603 18.0452 61.6866 18.0452 61.9223C18.0452 62.2146 17.9603 62.4692 17.8189 62.686C17.6775 62.9029 17.4889 63.0349 17.1966 63.148C17.0364 63.2046 16.8949 63.3177 16.7535 63.4309C16.6121 63.544 16.5366 63.7043 16.4141 63.8269C16.2444 63.9871 16.0369 64.1097 15.8578 64.2606C15.6787 64.4114 15.5184 64.5906 15.3298 64.7226C15.1412 64.8546 14.9432 64.9866 14.7452 65.1186C14.5472 65.2505 14.3304 65.326 14.123 65.4391C13.9155 65.5523 13.6798 65.5994 13.4724 65.6937C13.265 65.788 13.067 65.9105 12.8501 65.9954C12.6333 66.0802 12.4447 66.2406 12.2184 66.316C11.9921 66.3914 11.7376 66.316 11.5113 66.3725C11.285 66.4291 11.0682 66.4951 10.8324 66.5328C10.5967 66.5705 10.3705 66.5611 10.1442 66.58C9.91789 66.5988 9.68218 66.5894 9.45589 66.5988C9.22961 66.6082 8.9939 66.6271 8.75819 66.6177C8.54133 66.6082 8.31505 66.6742 8.0982 66.6554C7.88134 66.6365 7.65506 66.646 7.43821 66.6083C7.22135 66.5705 7.0045 66.5045 6.79707 66.4574C6.58965 66.4103 6.36336 66.382 6.14651 66.3254C5.92966 66.2688 5.75994 66.0991 5.55252 66.0237C5.34509 65.9483 5.09995 65.9671 4.90196 65.8728C4.70396 65.7786 4.56253 65.5805 4.36454 65.4768C4.16654 65.3731 3.94026 65.3354 3.76112 65.2223C3.58198 65.1091 3.42169 64.9488 3.24255 64.8168C3.06341 64.6848 2.90313 64.5434 2.74284 64.402C2.58256 64.2606 2.4317 64.1003 2.27142 63.94C2.11114 63.7797 1.96028 63.6383 1.81886 63.4686C1.668 63.2989 1.56429 63.1103 1.46057 62.9311C1.33801 62.7426 1.17772 62.5823 1.11172 62.3843C1.04572 62.1863 1.01744 61.9695 0.989153 61.7432C0.960868 61.5358 1.01744 61.3189 1.01744 61.0926C1.01744 60.8569 0.989155 60.6212 0.998583 60.376C1.00801 60.1309 0.904297 59.9046 0.904297 59.6595C0.904297 59.4144 0.923154 59.1881 0.923154 58.9429C0.923154 58.6978 0.951442 58.4715 0.951442 58.2264C0.951442 57.9812 1.04572 57.7549 1.04572 57.5098C1.04572 57.2647 0.960869 57.0384 0.960869 56.7933C0.960869 56.5481 0.904297 56.3218 0.904297 56.0767C0.904297 55.8315 0.970299 55.6053 0.970299 55.3601C0.970299 55.115 0.998583 54.8887 0.998583 54.6436C0.998583 54.3984 0.998583 54.1721 0.998583 53.9364C1.0363 53.9364 1.12115 53.9458 1.15887 53.9458L1.19658 54.0024Z" fill="#0494D6"/>
<path d="M12.4448 37.3988C12.4825 37.6627 12.4165 37.8702 12.3316 38.0399C12.2279 38.2473 12.0676 38.3793 11.8791 38.4925C11.5868 38.6622 11.4642 38.9073 11.3605 39.143C11.2568 39.3787 11.1436 39.6616 11.1813 39.9727C11.2002 40.0953 11.2379 40.2084 11.2191 40.3687C11.0588 40.4158 10.9174 40.4441 10.7665 40.4441C10.5402 40.4441 10.3139 40.4724 10.0876 40.4724C9.86137 40.4724 9.63508 40.4536 9.4088 40.463C9.18252 40.4724 8.95624 40.5573 8.72996 40.5667C8.50367 40.5762 8.27739 40.5007 8.05111 40.5101C7.82482 40.5196 7.59854 40.529 7.37226 40.529C7.14598 40.529 6.9197 40.6421 6.69341 40.6421C6.33513 40.6421 6.14656 40.5384 6.01456 40.4441C5.87314 40.3404 5.83542 40.1707 5.81657 39.803C5.80714 39.5861 5.68457 39.3693 5.68457 39.1525C5.68457 38.9356 5.73171 38.7093 5.73171 38.4925C5.73171 38.2756 5.75057 38.0493 5.76 37.8325C5.76942 37.6156 5.71285 37.3893 5.73171 37.1725C5.75057 36.9556 5.826 36.7293 5.92028 36.569C6.02399 36.3993 6.20313 36.2485 6.38227 36.1448C6.54256 36.0505 6.75941 35.9656 6.97627 35.9468C7.20255 35.9279 7.44769 36.0599 7.67397 36.0411C7.90025 36.0222 8.12653 35.9751 8.35282 35.9562C8.5791 35.9373 8.80538 35.8148 9.03167 35.7959C9.25795 35.777 9.49366 35.843 9.71994 35.8242C9.9368 35.8053 10.1442 35.7959 10.2951 35.8902C10.4459 35.9845 10.5874 36.1636 10.6439 36.3711C10.7099 36.5973 10.7759 36.7859 10.8891 36.9273C11.0305 37.097 11.1719 37.2102 11.3888 37.2668C11.5679 37.3139 11.7753 37.3893 12.0111 37.3705C12.1242 37.361 12.2562 37.3705 12.4353 37.4082L12.4448 37.3988Z" fill="white"/>
</svg>
