<svg width="75" height="66" viewBox="0 0 75 66" fill="none" xmlns="http://www.w3.org/2000/svg">
<path d="M16.9385 7.43457C17.2685 7.444 17.6268 7.43457 17.9379 7.43457C18.2679 7.444 18.5885 7.51942 18.8996 7.52885C19.2107 7.53828 19.5407 7.61371 19.8519 7.62314C20.163 7.63257 20.493 7.59486 20.8136 7.61371C21.1436 7.62314 21.4641 7.62314 21.7941 7.642C22.1241 7.66085 22.4447 7.65142 22.7747 7.67028C23.1047 7.68914 23.4252 7.75514 23.7552 7.77399C24.0852 7.79285 24.4058 7.75514 24.7358 7.77399C25.0658 7.79285 25.3864 7.73628 25.7164 7.74571C26.0275 7.74571 26.3292 7.76457 26.6403 7.77399C26.9515 7.78342 27.2532 7.84942 27.5643 7.84942C27.8755 7.84942 28.1772 7.82114 28.4883 7.82114C28.7995 7.82114 29.1012 7.91542 29.4123 7.91542C29.7234 7.91542 30.0252 7.85885 30.3363 7.85885C30.6474 7.85885 30.9491 7.85885 31.2603 7.85885C31.5714 7.85885 31.8731 7.78343 32.1843 7.78343C32.4954 7.78343 32.7971 7.86828 33.1083 7.86828C33.4194 7.86828 33.7211 7.82114 34.0322 7.82114C34.3434 7.82114 34.6451 7.87771 34.9562 7.87771C35.2674 7.87771 35.5691 7.87771 35.8802 7.87771C36.1913 7.87771 36.4931 7.88714 36.8042 7.87771C37.1153 7.87771 37.4265 7.86828 37.7376 7.85885C38.0488 7.84943 38.3599 7.85885 38.671 7.85885C38.9822 7.85885 39.2933 7.81171 39.595 7.81171C39.8967 7.81171 40.2173 7.71743 40.519 7.71743C40.8207 7.71743 41.1413 7.79286 41.4524 7.79286C41.7636 7.79286 42.0747 7.708 42.3764 7.708C42.6781 7.708 42.9987 7.82114 43.3098 7.82114C43.621 7.82114 43.9321 7.74571 44.2338 7.73628C44.5355 7.72685 44.8561 7.80228 45.1672 7.79286C45.4784 7.78343 45.7895 7.642 46.0912 7.642C46.3929 7.642 46.7135 7.76456 47.0246 7.76456C47.3358 7.76456 47.6469 7.708 47.9486 7.708C48.2503 7.708 48.5709 7.69857 48.882 7.68914C49.1932 7.67971 49.5043 7.63257 49.806 7.62314C50.1077 7.61371 50.4283 7.60428 50.7394 7.60428C51.0506 7.60428 51.3617 7.708 51.6728 7.708C51.984 7.708 52.2951 7.708 52.6063 7.708C52.9174 7.708 53.2285 7.67971 53.5397 7.67971C53.8508 7.67971 54.162 7.67971 54.4731 7.67971C54.7842 7.67971 55.0954 7.576 55.4065 7.576C55.7176 7.576 56.0288 7.60428 56.3399 7.60428C56.6511 7.60428 56.9622 7.67028 57.2733 7.67028C57.5845 7.67028 57.8956 7.52885 58.2068 7.52885C58.5179 7.52885 58.829 7.56657 59.1402 7.55714C59.4513 7.54772 59.7625 7.52885 60.0736 7.52885C60.3847 7.52885 60.6959 7.52885 61.007 7.52885C61.3181 7.52885 61.6293 7.59485 61.9404 7.59485C62.2516 7.59485 62.5627 7.49115 62.8738 7.49115C63.185 7.49115 63.4961 7.50057 63.8073 7.50057C64.1184 7.50057 64.4295 7.63257 64.7407 7.63257C65.0518 7.63257 65.3629 7.49115 65.6741 7.49115C65.9852 7.49115 66.2964 7.48172 66.6075 7.48172C67.1638 7.48172 67.4843 7.55714 67.6541 7.71743C67.8238 7.87771 67.9275 8.18885 67.9275 8.75455C67.9275 9.06569 67.7861 9.3674 67.7861 9.67854C67.7861 9.98968 67.8898 10.2914 67.8898 10.6025C67.8898 10.9137 67.7861 11.2154 67.7861 11.5265C67.7861 11.8377 67.8615 12.1394 67.8615 12.4505C67.8615 12.7616 67.8332 13.0634 67.8332 13.3745C67.8332 13.6856 67.8615 13.9873 67.8615 14.2985C67.8615 14.6096 67.8615 14.9113 67.8615 15.2225C67.8615 15.5336 67.9463 15.8353 67.9463 16.1465C67.9463 16.4576 67.9086 16.7593 67.9086 17.0704C67.9086 17.3816 67.8615 17.6833 67.8615 17.9944C67.8615 18.3056 67.8615 18.6073 67.8615 18.9184C67.8615 19.2295 67.9086 19.5313 67.9086 19.8424C67.9086 20.1535 67.8426 20.4552 67.8426 20.7664C67.8426 21.0775 67.8803 21.3792 67.8803 21.6904C67.8803 22.0015 67.8803 22.3032 67.8803 22.6144C67.8803 22.9255 67.8709 23.2272 67.8709 23.5383C67.8709 23.8495 67.9275 24.1512 67.9275 24.4623C67.9275 24.7735 67.8521 25.0752 67.8521 25.3863C67.8521 25.6975 67.8143 25.9992 67.8143 26.3103C67.8143 26.6026 67.8143 26.9043 67.8238 27.1966C67.8332 27.4889 67.9558 27.7906 67.9652 28.0829C67.9746 28.3751 67.9369 28.6768 67.9463 28.9691C67.9558 29.2614 67.9086 29.5631 67.918 29.8554C67.9275 30.1477 67.9463 30.4494 67.9558 30.7417C67.9652 31.034 68.0595 31.3357 68.0689 31.6279C68.0783 31.9202 68.0312 32.2219 68.0406 32.5142C68.05 32.8065 68.0595 33.1082 68.0783 33.4005C68.0972 33.6928 68.05 33.9945 68.0595 34.2868C68.0689 34.579 68.0783 34.8808 68.0878 35.173C68.0972 35.4653 68.1255 35.767 68.1349 36.0593C68.1349 36.3704 68.2009 36.691 68.2103 37.0022C68.2198 37.3133 68.2763 37.6339 68.2858 37.945C68.2952 38.2561 68.182 38.5767 68.1915 38.8878C68.2009 39.199 68.3046 39.5195 68.3046 39.8307C68.3046 40.1418 68.2858 40.4624 68.2952 40.7735C68.3046 41.0847 68.2952 41.4052 68.3046 41.7164C68.314 42.0275 68.3423 42.3481 68.3423 42.6592C68.3423 42.9704 68.3895 43.2909 68.3989 43.6021C68.4083 43.9132 68.2858 44.2338 68.2952 44.5449C68.3046 44.856 68.4083 45.1672 68.4178 45.4877C68.4178 45.8083 68.3518 46.1289 68.3612 46.4495C68.3706 46.77 68.446 47.0812 68.4649 47.4017C68.4837 47.7223 68.4932 48.0429 68.512 48.354C68.5309 48.6651 68.578 48.9857 68.5969 49.3063C68.6158 49.6268 68.5403 49.9474 68.5592 50.268C68.578 50.5885 68.6723 50.8997 68.6912 51.2202C68.71 51.5408 68.7383 51.8519 68.7572 52.1725C68.776 52.5025 68.6629 52.7854 68.6535 53.0116C68.6535 53.3888 68.6818 53.6622 68.5309 53.8225C68.38 53.9828 68.1255 54.0959 67.7483 54.1336C67.5221 54.1619 67.2392 54.0959 66.9092 54.0959C66.5886 54.0959 66.2681 54.1808 65.9381 54.1808C65.6081 54.1808 65.2875 54.0771 64.9669 54.0771C64.6464 54.0771 64.3258 54.1902 63.9958 54.1996C63.6658 54.209 63.3453 54.1053 63.0247 54.1148C62.7041 54.1242 62.3836 54.2373 62.0536 54.2468C61.7236 54.2562 61.4124 54.2185 61.0824 54.2185C60.7524 54.2185 60.4413 54.1808 60.1113 54.1808C59.7813 54.1808 59.4702 54.1148 59.1402 54.1148C58.8102 54.1148 58.499 54.2185 58.169 54.2185C57.839 54.2185 57.5279 54.1996 57.1979 54.1996C56.8679 54.1996 56.5568 54.1996 56.2268 54.1996C55.8968 54.1996 55.5574 54.2373 55.2274 54.2373C54.8974 54.2373 54.5579 54.1808 54.228 54.1808C53.898 54.1808 53.5585 54.1525 53.2285 54.1525C52.8985 54.1525 52.5591 54.2656 52.2291 54.2656C51.9086 54.2656 51.5974 54.1148 51.2769 54.1148C50.9563 54.1148 50.6451 54.1619 50.3246 54.1619C50.004 54.1619 49.6929 54.2562 49.3723 54.2562C49.0517 54.2562 48.7406 54.2373 48.42 54.2373C48.0995 54.2373 47.7883 54.1242 47.4678 54.1242C47.1472 54.1242 46.8361 54.1808 46.5155 54.1808C46.1949 54.1808 45.8838 54.1242 45.5632 54.1242C45.2427 54.1242 44.9315 54.2185 44.6109 54.2185C44.2904 54.2185 43.9792 54.1525 43.6587 54.1525C43.3381 54.1525 43.027 54.1902 42.7064 54.1902C42.3858 54.1902 42.0747 54.1713 41.7541 54.1713C41.4336 54.1713 41.1224 54.1713 40.8019 54.1713C40.4813 54.1713 40.1702 54.1431 39.8496 54.1431C39.529 54.1431 39.2179 54.1053 38.8973 54.1053C38.5767 54.1053 38.2656 54.2091 37.945 54.2091C37.6245 54.2091 37.3133 54.1902 36.9928 54.1902C36.6722 54.1902 36.3611 54.1619 36.0405 54.1619C35.7199 54.1619 35.4088 54.1336 35.0882 54.1336C34.7771 54.1336 34.4659 54.1242 34.1642 54.1336C33.8625 54.1431 33.5514 54.1525 33.2402 54.1619C32.9291 54.1713 32.618 54.1431 32.3163 54.1431C32.0146 54.1431 31.7034 54.1713 31.3923 54.1713C31.0811 54.1713 30.77 54.1525 30.4683 54.1713C30.1666 54.1902 29.8554 54.2656 29.5443 54.2656C29.2332 54.2656 28.922 54.2091 28.6203 54.2185C28.3186 54.2279 28.0075 54.3316 27.6963 54.341C27.3852 54.3505 27.074 54.3128 26.7723 54.3222C26.4706 54.3316 26.1501 54.3222 25.8484 54.3222C25.5466 54.3222 25.2355 54.4259 24.9244 54.4353C24.6132 54.4448 24.3021 54.4353 24.0004 54.4353C23.4818 54.4448 23.2555 54.3882 23.1047 54.2562C22.9538 54.1242 22.8313 53.9073 22.7275 53.4076C22.671 53.1154 22.7181 52.7948 22.6521 52.5025C22.5861 52.2102 22.5107 51.9179 22.4541 51.6257C22.3975 51.3334 22.2655 51.06 22.1995 50.7677C22.1335 50.4754 22.0676 50.1831 22.0016 49.8908C21.9356 49.5985 21.8696 49.3063 21.813 49.014C21.7564 48.7217 21.7753 48.4106 21.7187 48.1183C21.6716 47.826 21.6527 47.5337 21.5961 47.2414C21.5396 46.9492 21.4924 46.6569 21.4453 46.374C21.3981 46.0912 21.3321 45.7989 21.2944 45.5066C21.2567 45.2143 21.2473 44.922 21.2096 44.6298C21.1718 44.3375 21.0964 44.0546 21.0681 43.7529C21.0398 43.4512 20.9456 43.1684 20.9173 42.8761C20.889 42.5838 20.8796 42.2915 20.8513 41.9898C20.823 41.6787 20.7193 41.3675 20.7004 41.047C20.6816 40.7264 20.7759 40.4058 20.757 40.0947C20.7381 39.7835 20.625 39.4724 20.5967 39.1518C20.5684 38.8313 20.5307 38.5201 20.5119 38.209C20.493 37.8979 20.559 37.5679 20.5401 37.2567C20.5213 36.9456 20.3893 36.6344 20.3704 36.3139C20.3516 35.9933 20.3327 35.6822 20.3139 35.371C20.295 35.0599 20.4176 34.7299 20.3987 34.4188C20.3799 34.1076 20.295 33.7871 20.2761 33.4759C20.2573 33.1648 20.2573 32.8442 20.2384 32.5236C20.2196 32.2031 20.0876 31.9014 20.0593 31.5808C20.031 31.2602 20.0781 30.9491 20.0593 30.6285C20.0404 30.308 20.031 29.9968 20.0121 29.6763C19.9933 29.3557 20.0121 29.0446 19.9933 28.724C19.9744 28.4034 19.899 28.0923 19.8802 27.7811C19.8613 27.47 19.8047 27.1494 19.7764 26.8383C19.7482 26.5272 19.8047 26.2066 19.7764 25.886C19.7482 25.5655 19.6822 25.2637 19.6539 24.9432C19.6256 24.6226 19.5784 24.3115 19.5502 24.0003C19.5219 23.6892 19.437 23.3781 19.4087 23.0669C19.3804 22.7558 19.4842 22.4258 19.4464 22.1146C19.4087 21.8035 19.2862 21.4924 19.2484 21.1812C19.2107 20.8701 19.2107 20.5495 19.1824 20.2384C19.1542 19.9273 19.0787 19.6161 19.0504 19.2955C19.0222 18.975 18.9562 18.6733 18.9185 18.3621C18.8807 18.051 18.9939 17.721 18.9656 17.4004C18.9373 17.0799 18.7487 16.7876 18.711 16.4764C18.6733 16.1653 18.6922 15.8447 18.6545 15.5336C18.6167 15.2225 18.6262 14.9019 18.5885 14.5908C18.5507 14.2608 18.4282 13.9496 18.3716 13.6196C18.315 13.2896 18.2396 12.9785 18.1642 12.6485C18.0887 12.3185 18.0793 11.9885 18.0039 11.6679C17.9285 11.3474 17.8813 11.0174 17.8059 10.6968C17.7305 10.3762 17.6268 10.0651 17.5513 9.74454C17.4759 9.42397 17.3439 9.11283 17.2779 8.79227C17.2025 8.43399 17.1459 8.04742 17.0516 7.43457H16.9385Z" fill="#082C4C"/>
<path d="M23.246 55.4631C23.6608 55.4442 24.0662 55.4631 24.4057 55.4442C24.8017 55.4254 25.1694 55.3499 25.5277 55.3499C25.8388 55.3499 26.1499 55.4348 26.4611 55.4348C26.7722 55.4348 27.0833 55.3876 27.3945 55.3876C27.7056 55.3876 28.0168 55.3405 28.3279 55.3405C28.639 55.3405 28.9502 55.4159 29.2613 55.4159C29.5725 55.4159 29.8836 55.4065 30.1947 55.3971C30.5059 55.3877 30.817 55.4442 31.1281 55.4348C31.4393 55.4254 31.7504 55.3405 32.0616 55.3311C32.3633 55.3122 32.665 55.3405 32.9667 55.3311C33.2684 55.3217 33.5607 55.2274 33.8624 55.2085C34.1641 55.1897 34.4658 55.2651 34.7675 55.2557C35.0692 55.2462 35.3615 55.1425 35.6632 55.1237C35.9649 55.1048 36.2666 55.0859 36.5684 55.0765C36.8701 55.0671 37.1718 55.1614 37.4735 55.1519C37.7752 55.1425 38.0769 55.1425 38.3786 55.1331C38.6803 55.1237 38.982 55.0577 39.2837 55.0482C39.5855 55.0388 39.8872 55.0388 40.1889 55.0294C40.4906 55.0199 40.7923 55.0671 41.094 55.0671C41.3957 55.0671 41.6974 54.9917 41.9991 54.9917C42.3008 54.9917 42.6026 54.9634 42.9043 54.9634C43.206 54.9634 43.5077 55.0105 43.8094 55.0199C44.1111 55.0294 44.4128 54.9917 44.7145 55.0011C45.0162 55.0105 45.3179 55.0577 45.6197 55.0671C45.9214 55.0765 46.2231 55.0671 46.5248 55.0671C46.8454 55.0765 47.1659 55.0294 47.4771 55.0482C47.7882 55.0671 48.1088 55.1519 48.4293 55.1614C48.7499 55.1708 49.061 55.1991 49.3816 55.2085C49.7022 55.2179 50.0227 55.2085 50.3339 55.2179C50.645 55.2274 50.975 55.1991 51.2862 55.1991C51.5973 55.1991 51.9179 55.2651 52.2384 55.2651C52.559 55.2651 52.8796 55.2179 53.1907 55.2179C53.5018 55.2179 53.8318 55.1802 54.143 55.1897C54.4541 55.1991 54.7841 55.2745 55.0952 55.2745C55.4064 55.2745 55.7364 55.1991 56.0475 55.1991C56.3586 55.1991 56.6886 55.2651 56.9998 55.2651C57.3109 55.2651 57.6409 55.2179 57.9521 55.2179C58.2632 55.2179 58.5932 55.2179 58.9043 55.2179C59.2155 55.2179 59.5455 55.1802 59.8566 55.1802C60.1677 55.1802 60.4789 55.1614 60.7806 55.1614C61.0823 55.1614 61.4029 55.2556 61.714 55.2462C62.0251 55.2368 62.3363 55.2085 62.638 55.1991C62.9397 55.1897 63.2603 55.1425 63.562 55.1331C63.8637 55.1237 64.1843 55.1237 64.4954 55.1142C64.8065 55.1048 65.1177 55.1142 65.4288 55.1142C65.74 55.1142 66.0511 55.0859 66.3622 55.0859C66.6734 55.0859 66.9845 55.0859 67.2956 55.0859C67.6068 55.0859 67.9179 55.0482 68.229 55.0482C68.559 55.0482 68.823 55.0294 69.0493 54.9257C69.3133 54.8031 69.4736 54.6145 69.5867 54.3317C69.6716 54.1054 69.6999 53.8414 69.6905 53.5114C69.681 53.2097 69.7659 52.8985 69.747 52.5968C69.7282 52.2951 69.7188 51.9934 69.6999 51.6917C69.681 51.39 69.6245 51.0883 69.6056 50.7866C69.5868 50.4849 69.5773 50.1832 69.5679 49.8814C69.5585 49.5797 69.4925 49.278 69.483 48.9763C69.4736 48.6746 69.4265 48.3729 69.417 48.0712C69.4076 47.7789 69.3793 47.4866 69.3699 47.1849C69.3605 46.8832 69.3699 46.5909 69.3699 46.2986C69.3699 46.0064 69.3605 45.7141 69.3416 45.4124C69.3228 45.1106 69.285 44.8278 69.2756 44.5261C69.2662 44.2244 69.2756 43.9415 69.2568 43.6398C69.2379 43.3381 69.3133 43.0458 69.3039 42.7535C69.2945 42.4613 69.1908 42.169 69.1813 41.8767C69.1719 41.5844 69.1813 41.2827 69.1625 40.9904C69.1436 40.6981 69.1436 40.4059 69.1342 40.1042C69.1342 39.7836 69.2002 39.4536 69.1908 39.133C69.1813 38.8125 69.1342 38.4919 69.1248 38.1713C69.1153 37.8508 69.0588 37.5302 69.0493 37.2096C69.0399 36.8891 69.0305 36.5685 69.0305 36.2385C69.0305 35.9085 69.087 35.5879 69.0776 35.2674C69.0682 34.9468 68.9645 34.6262 68.9645 34.3057C68.9645 33.9851 69.021 33.6551 69.021 33.3345C69.021 33.014 68.9739 32.6934 68.9739 32.3634C68.9739 32.0334 68.9928 31.7223 68.9833 31.3923C68.9739 31.0623 69.021 30.7511 69.0116 30.4212C69.0022 30.0912 68.9268 29.78 68.9268 29.4594C68.9268 29.1389 68.9079 28.8183 68.9079 28.4883C68.9079 28.1678 68.9456 27.8378 68.9456 27.5172C68.9456 27.1966 68.9173 26.8761 68.9079 26.5461C68.8985 26.2161 68.8325 25.9049 68.8231 25.5749C68.8136 25.2449 68.9739 24.9244 68.9645 24.6038C68.955 24.2832 68.889 23.9627 68.8796 23.6327C68.8702 23.3027 68.7948 22.9915 68.7948 22.6615C68.7948 22.3315 68.8419 22.011 68.8419 21.6904C68.8419 21.3698 68.7948 21.0493 68.7948 20.7193C68.7948 20.3893 68.823 20.0687 68.8136 19.7482C68.8042 19.4276 68.8136 19.107 68.8136 18.777C68.8136 18.447 68.7476 18.1359 68.7476 17.8059C68.7476 17.4759 68.8702 17.1553 68.8702 16.8348C68.8702 16.5236 68.8702 16.2219 68.8702 15.9108C68.8702 15.5996 68.757 15.2885 68.7665 14.9868C68.7759 14.6851 68.7382 14.3645 68.7382 14.0628C68.7382 13.7611 68.8608 13.45 68.8608 13.1388C68.8608 12.8277 68.8419 12.5165 68.8419 12.2148C68.8419 11.9131 68.8702 11.5926 68.8702 11.2908C68.8702 10.9891 68.8042 10.6686 68.8136 10.3669C68.823 10.0651 68.8325 9.74459 68.8419 9.44287C68.8419 9.10345 68.8608 8.75459 68.9079 8.40574C68.955 8.05689 69.1153 7.73632 69.1625 7.3969C69.2096 7.08576 69.1436 6.80291 69.021 6.61434C68.8985 6.41635 68.6345 6.34092 68.3233 6.3032C68.1725 6.28435 68.0216 6.26549 67.8708 6.27492C67.5691 6.27492 67.2673 6.34091 66.9562 6.35034C66.6451 6.35977 66.3434 6.28434 66.0417 6.29377C65.7399 6.3032 65.4382 6.32206 65.1271 6.33149C64.816 6.34092 64.5237 6.45405 64.222 6.45405C63.9203 6.45405 63.6186 6.45406 63.3074 6.47292C62.9963 6.49177 62.6946 6.40691 62.3929 6.41634C62.0911 6.42577 61.7894 6.52005 61.4877 6.52948C61.186 6.53891 60.8749 6.47292 60.5732 6.48235C60.2715 6.49177 59.9603 6.41634 59.6586 6.42577C59.3569 6.4352 59.0552 6.45406 58.744 6.46348C58.4329 6.47291 58.1406 6.57662 57.8389 6.58605C57.5372 6.59548 57.2355 6.64262 56.9244 6.65205C56.6132 6.66148 56.3115 6.65205 56.0098 6.65205C55.7081 6.65205 55.4064 6.68977 55.0952 6.6992C54.7841 6.70862 54.4824 6.6992 54.1807 6.6992C53.879 6.6992 53.5773 6.72748 53.2661 6.73691C52.955 6.74634 52.6627 6.76519 52.3516 6.76519C52.0404 6.76519 51.7387 6.71805 51.437 6.72748C51.1353 6.73691 50.8242 6.65205 50.5224 6.66148C50.2207 6.66148 49.9096 6.6992 49.6079 6.6992C49.3062 6.6992 48.995 6.73691 48.6933 6.74634C48.3916 6.75577 48.0805 6.85005 47.7788 6.85005C47.4771 6.85005 47.1659 6.73691 46.8642 6.74634C46.5625 6.75577 46.2514 6.78405 45.9496 6.79348C45.6479 6.80291 45.3368 6.81234 45.0351 6.81234C44.7334 6.81234 44.4222 6.78406 44.1205 6.78406C43.8188 6.78406 43.5077 6.83119 43.206 6.83119C42.9043 6.83119 42.5931 6.89719 42.2914 6.89719C41.9897 6.89719 41.6786 6.91605 41.3769 6.91605C41.0751 6.91605 40.764 6.89719 40.4623 6.89719C40.1606 6.89719 39.8494 6.89719 39.5477 6.89719C39.246 6.89719 38.9349 6.86891 38.6332 6.86891C38.3126 6.86891 38.0015 6.80291 37.6809 6.79348C37.3603 6.78405 37.0492 6.85948 36.7286 6.85005C36.4081 6.84063 36.0969 6.85005 35.7764 6.85005C35.4558 6.85005 35.1447 6.75577 34.8335 6.74634C34.5224 6.73691 34.2018 6.85005 33.8812 6.84062C33.5607 6.83119 33.2495 6.80291 32.9384 6.80291C32.6273 6.80291 32.3067 6.77462 31.9956 6.77462C31.6844 6.77462 31.3639 6.76519 31.0433 6.75576C30.7227 6.74634 30.4116 6.75576 30.091 6.75576C29.7705 6.75576 29.4593 6.72748 29.1387 6.72748C28.8559 6.72748 28.5636 6.74634 28.2808 6.75576C27.9979 6.76519 27.7056 6.82176 27.4228 6.83119C27.1399 6.84062 26.8476 6.80291 26.5648 6.80291C26.2819 6.80291 25.9897 6.77462 25.7068 6.76519C25.3957 6.75577 25.0939 6.79348 24.7828 6.78406C24.4717 6.77463 24.17 6.68034 23.8683 6.67091C23.5665 6.66148 23.246 6.77462 22.9443 6.75576C22.6426 6.73691 22.3314 6.60491 22.0297 6.59548C21.728 6.58605 21.4074 6.64262 21.1057 6.62377C20.804 6.60491 20.4929 6.55777 20.1817 6.54834C19.8706 6.53892 19.5595 6.59548 19.2577 6.58605C18.956 6.57662 18.6449 6.4352 18.3432 6.41634C18.0415 6.39748 17.7209 6.51063 17.4192 6.49177C17.1175 6.47291 16.8064 6.41634 16.4952 6.40692C16.2029 6.40692 15.9012 6.34091 15.6089 6.35034C15.3167 6.35977 15.0149 6.40691 14.7227 6.42577C14.4304 6.44463 14.1287 6.42577 13.8364 6.4352C13.5441 6.44463 13.2518 6.55777 12.9501 6.57663C12.6295 6.58606 12.2996 6.51062 11.9696 6.52005C11.6396 6.52948 11.319 6.5672 10.9984 6.57663C10.6779 6.58606 10.3479 6.66148 10.0273 6.67091C9.70674 6.68034 9.37674 6.71805 9.05617 6.73691C8.73561 6.75577 8.40561 6.68034 8.07562 6.68976C7.74562 6.69919 7.43448 6.84063 7.10449 6.85005C6.85935 6.85948 6.60478 6.73691 6.35021 6.73691C6.09564 6.73691 5.85993 6.85948 5.60536 6.87834C5.07737 6.92548 4.8228 6.98205 4.68138 7.16119C4.53995 7.34033 4.51167 7.62319 4.58709 8.13232C4.63424 8.4246 4.60595 8.72631 4.65309 9.01859C4.70023 9.31087 4.85109 9.5843 4.8888 9.87658C4.92652 10.1689 4.86995 10.4706 4.90766 10.7628C4.94537 11.0551 5.06794 11.338 5.10566 11.6303C5.14337 11.9226 5.1528 12.2148 5.19051 12.5071C5.22823 12.7994 5.32251 13.0823 5.36022 13.3745C5.39794 13.6668 5.38851 13.9685 5.42622 14.2608C5.46394 14.5719 5.39794 14.9019 5.43565 15.2225C5.47337 15.5431 5.59594 15.8448 5.62422 16.1559C5.65251 16.4671 5.71851 16.7876 5.74679 17.0988C5.77508 17.4099 5.81279 17.7305 5.84108 18.051C5.86936 18.3716 5.87879 18.6827 5.89765 19.0033C5.9165 19.3239 5.87879 19.6444 5.89765 19.9556C5.9165 20.2667 5.89765 20.5873 5.89765 20.9079C5.89765 21.2284 5.99193 21.5396 6.00136 21.8601C6.01079 22.1807 5.94479 22.4918 5.94479 22.8124C5.94479 23.133 6.01079 23.4441 6.01079 23.7647C6.01079 24.0852 6.02964 24.3964 6.02022 24.7169C6.01079 25.0375 5.89765 25.3486 5.88822 25.6692C5.87879 25.9898 5.9825 26.3103 5.97307 26.6215C5.96364 26.9326 5.9825 27.2626 5.97307 27.5738C5.96364 27.8849 5.8505 28.2055 5.83165 28.5166C5.81279 28.8277 5.83165 29.1577 5.80336 29.4689C5.7845 29.7706 5.71851 30.0723 5.69022 30.3834C5.66194 30.6946 5.58651 30.9869 5.54879 31.2886C5.51108 31.5903 5.54879 31.9108 5.51108 32.2125C5.47337 32.5143 5.4168 32.816 5.36022 33.1177C5.30365 33.4194 5.29423 33.7305 5.23766 34.0322C5.18109 34.3339 5.0208 34.6168 4.96423 34.9185C4.90766 35.2202 4.93594 35.5408 4.86995 35.8425C4.80395 36.1442 4.67195 36.4271 4.59652 36.7193C4.52109 37.0116 4.52109 37.3322 4.44567 37.6245C4.37024 37.9168 4.22881 38.1996 4.14396 38.4919C4.0591 38.7842 3.94596 39.067 3.85167 39.3593C3.75739 39.6516 3.66311 39.9439 3.55939 40.2361C3.45568 40.5284 3.33311 40.8019 3.2294 41.0941C3.12568 41.3864 3.02197 41.6787 2.91826 41.9804C2.81455 42.2821 2.72969 42.5744 2.62598 42.8667C2.48455 43.2533 2.31484 43.5833 2.14513 43.9604C1.57942 43.8095 1.7397 43.4701 1.72085 43.159C1.70199 42.8478 1.60771 42.5367 1.58885 42.2256C1.56999 41.9144 1.62656 41.5938 1.60771 41.2827C1.58885 40.9716 1.58885 40.6604 1.56999 40.3493C1.55113 40.0382 1.43799 39.727 1.41914 39.4159C1.40028 39.1047 1.46628 38.7842 1.44742 38.473C1.42857 38.1619 1.33428 37.8508 1.31543 37.5396C1.29657 37.2285 1.29657 36.9173 1.28714 36.5968C1.27771 36.2762 1.21171 35.9745 1.20228 35.6634C1.19285 35.3522 1.20228 35.0411 1.18343 34.7205C1.16457 34.3999 1.26828 34.0888 1.25885 33.7777C1.24943 33.4665 1.18343 33.1554 1.174 32.8443C1.16457 32.5425 1.12686 32.2503 1.11743 31.9486C1.108 31.6468 1.06086 31.3546 1.042 31.0529C1.02314 30.7511 0.994858 30.4494 0.98543 30.1571C0.976001 29.8649 1.09857 29.5537 1.08914 29.252C1.07971 28.9503 1.042 28.6486 1.042 28.3563C1.042 28.064 0.910002 27.7623 0.900574 27.4606C0.891145 27.1589 1.02314 26.8572 1.02314 26.5555C1.02314 26.2538 0.862859 25.9615 0.85343 25.6598C0.844002 25.3581 0.966572 25.0564 0.957144 24.7547C0.947715 24.4529 0.862859 24.1607 0.85343 23.859C0.844002 23.5572 0.928858 23.2555 0.928858 22.9538C0.928858 22.6521 0.853432 22.3598 0.844004 22.0581C0.844004 21.747 0.806289 21.4358 0.79686 21.1247C0.787432 20.8136 0.749719 20.5024 0.74029 20.1913C0.730862 19.8802 0.74029 19.569 0.74029 19.2484C0.74029 18.9279 0.721433 18.6262 0.712004 18.315C0.702576 18.0039 0.68372 17.6928 0.674291 17.3816C0.664863 17.0705 0.749719 16.7499 0.74029 16.4388C0.730862 16.1276 0.693148 15.8165 0.68372 15.5054C0.674292 15.1942 0.68372 14.8831 0.68372 14.5625C0.68372 14.242 0.664862 13.9402 0.655434 13.6291C0.646006 13.318 0.646005 13.0068 0.636577 12.6957C0.627148 12.3845 0.523436 12.0734 0.523436 11.7623C0.523436 11.4511 0.485722 11.14 0.476293 10.8288C0.466865 10.5177 0.495151 10.2066 0.495151 9.88601C0.495151 9.56544 0.43858 9.26373 0.429152 8.95259C0.419723 8.64145 0.49515 8.32089 0.485722 8.00975C0.476293 7.69861 0.391437 7.38747 0.382008 7.07633C0.37258 6.7652 0.466864 6.44463 0.457436 6.13349C0.448007 5.82235 0.334867 5.51122 0.325438 5.20008C0.31601 4.88894 0.400866 4.56837 0.400866 4.25723C0.400866 3.94609 0.400865 3.63496 0.382008 3.32382C0.382008 3.13525 0.372581 2.93725 0.353724 2.74868C0.334867 2.46583 0.353724 2.2584 0.495151 2.09812C0.636577 1.93783 0.825145 1.81526 1.09857 1.76812C1.42857 1.71155 1.75856 1.64555 2.08856 1.58898C2.41855 1.53241 2.74855 1.47584 3.07854 1.41927C3.40854 1.3627 3.73853 1.26842 4.06853 1.2307C4.37967 1.20242 4.70966 1.25899 5.0208 1.2307C5.33194 1.20242 5.65251 1.18356 5.96364 1.15527C6.27478 1.12699 6.59535 1.07985 6.90649 1.06099C7.21763 1.04213 7.53819 1.00442 7.84933 0.985564C8.16047 0.966707 8.48104 0.891279 8.79218 0.881851C9.10331 0.872422 9.42388 0.900706 9.74445 0.891278C10.065 0.881849 10.3762 0.891278 10.6873 0.891278C10.9984 0.891278 11.319 0.853563 11.6301 0.853563C11.9413 0.853563 12.2618 0.891279 12.573 0.881851C12.8841 0.872422 13.2047 0.910135 13.5158 0.910135C13.827 0.910135 14.1475 0.910135 14.4587 0.910135C14.7698 0.910135 15.0904 0.862994 15.4015 0.862994C15.7127 0.862994 16.0332 0.89128 16.3444 0.900708C16.6555 0.910137 16.9761 0.881851 17.2872 0.881851C17.5983 0.881851 17.9189 0.81585 18.23 0.825279C18.5412 0.834707 18.8618 0.919564 19.1729 0.928992C19.4652 0.928992 19.7669 0.891278 20.0592 0.891278C20.3514 0.891278 20.6532 0.853563 20.9454 0.853563C21.2377 0.853563 21.5394 0.844135 21.8317 0.853563C22.124 0.862992 22.4257 0.862994 22.718 0.862994C23.0103 0.862994 23.312 0.900708 23.6043 0.900708C23.8965 0.900708 24.1982 0.94785 24.4905 0.94785C24.7828 0.94785 25.0845 0.891278 25.3768 0.891278C25.6691 0.891278 25.9708 0.881849 26.2631 0.891278C26.5648 0.891278 26.8853 0.88185 27.1776 0.910135C27.4982 0.947849 27.8188 1.08927 28.1393 1.10813C28.4599 1.12699 28.7993 1.06099 29.1199 1.07985C29.4405 1.0987 29.7705 1.1647 30.1005 1.17413C30.4304 1.18356 30.751 1.11756 31.081 1.11756C31.411 1.11756 31.7316 1.08928 32.0616 1.07985C32.3916 1.07042 32.7121 1.05156 33.0421 1.04213C33.3721 1.0327 33.6927 1.07042 34.0227 1.06099C34.3527 1.05156 34.6827 1.11756 35.0032 1.0987C35.3238 1.07985 35.6538 0.92899 35.9744 0.919562C36.2855 0.910133 36.6061 1.0327 36.9266 1.02328C37.2472 1.01385 37.5583 1.02328 37.8695 1.01385C38.1806 1.00442 38.5012 0.976135 38.8123 0.966707C39.1235 0.957278 39.444 0.92899 39.7552 0.919562C40.0663 0.910133 40.3869 0.853563 40.698 0.853563C41.0091 0.853563 41.3297 0.81585 41.6409 0.806422C41.952 0.796993 42.2726 0.862992 42.5931 0.853563C42.9137 0.844135 43.2248 0.796993 43.536 0.787564C43.8471 0.778136 44.1677 0.834707 44.4882 0.825279C44.8088 0.81585 45.12 0.778135 45.4311 0.768707C45.7422 0.759279 46.0628 0.82528 46.3834 0.815852C46.7039 0.806424 47.0151 0.768709 47.3262 0.75928C47.6373 0.749852 47.9579 0.674426 48.269 0.664997C48.5802 0.655569 48.9008 0.70271 49.2213 0.693281C49.5419 0.683853 49.853 0.608423 50.1642 0.598995C50.4847 0.598995 50.8053 0.580139 51.1259 0.570711C51.4464 0.561282 51.767 0.580139 52.0876 0.570711C52.4081 0.561282 52.7287 0.608425 53.0493 0.589568C53.3698 0.570711 53.6904 0.589568 54.011 0.589568C54.3315 0.589568 54.6521 0.570712 54.9727 0.561284C55.2932 0.551855 55.6138 0.532998 55.9344 0.523569C56.2549 0.514141 56.5755 0.429284 56.8961 0.419856C57.2166 0.410427 57.5372 0.391571 57.8578 0.372714C58.1783 0.353857 58.4989 0.438715 58.8195 0.429286C59.14 0.419858 59.4606 0.306713 59.7812 0.297285C60.1395 0.287857 60.4977 0.363286 60.8466 0.372714C61.1954 0.382143 61.5537 0.39157 61.912 0.400998C62.2703 0.410427 62.6286 0.419856 62.9774 0.419856C63.2791 0.419856 63.5714 0.39157 63.8731 0.382141C64.1748 0.372713 64.4765 0.400998 64.7688 0.382141C65.0611 0.363284 65.3628 0.278431 65.6645 0.259574C65.9662 0.240717 66.2679 0.240715 66.5602 0.231286C66.8525 0.221858 67.1636 0.297287 67.4559 0.287858C67.7482 0.27843 68.0499 0.240717 68.3516 0.240717C68.691 0.240717 69.0305 0.269003 69.3699 0.278431C69.7093 0.28786 70.0487 0.297287 70.3882 0.306716C70.7276 0.316144 71.0764 0.259574 71.4159 0.278431C71.7553 0.297288 72.0947 0.306716 72.4341 0.325573C72.8961 0.353858 73.1978 0.419856 73.3487 0.608425C73.4995 0.787566 73.4807 1.0987 73.509 1.55127C73.5278 1.79641 73.6127 2.04155 73.6221 2.28669C73.6315 2.53183 73.6033 2.77697 73.6033 3.03153C73.6033 3.34267 73.4995 3.64438 73.4901 3.95552C73.4807 4.26666 73.5373 4.56837 73.5278 4.87951C73.5184 5.19065 73.4618 5.49236 73.4524 5.8035C73.443 6.11463 73.4241 6.41634 73.4147 6.72748C73.4053 7.03862 73.5561 7.34976 73.5561 7.65147C73.5561 7.95318 73.4807 8.26431 73.4807 8.57545C73.4807 8.88659 73.5467 9.1883 73.5373 9.49944C73.5278 9.81058 73.4053 10.1123 73.4053 10.4234C73.4053 10.7346 73.4524 11.0363 73.4524 11.3474C73.4524 11.6586 73.377 11.9603 73.377 12.2714C73.377 12.592 73.4807 12.9125 73.4807 13.2331C73.4807 13.5537 73.4524 13.8742 73.4618 14.1948C73.4713 14.5154 73.443 14.8359 73.4618 15.1565C73.4807 15.4771 73.5184 15.7976 73.5278 16.1182C73.5373 16.4388 73.5278 16.7593 73.5278 17.0799C73.5278 17.4005 73.5561 17.721 73.5656 18.0416C73.575 18.3622 73.509 18.6827 73.5184 19.0033C73.5278 19.3239 73.641 19.6444 73.6504 19.965C73.6598 20.2856 73.6127 20.6061 73.6221 20.9267C73.6315 21.2473 73.707 21.5678 73.7164 21.8884C73.7258 22.209 73.5844 22.5295 73.5938 22.8501C73.6033 23.1707 73.7258 23.4912 73.7258 23.8118C73.7258 24.1324 73.7258 24.4529 73.7258 24.7735C73.7258 25.0941 73.6504 25.4241 73.6598 25.7446C73.6693 26.0652 73.6598 26.3952 73.6598 26.7158C73.6598 27.0363 73.7635 27.3663 73.773 27.6869C73.7824 28.0075 73.7541 28.3375 73.7541 28.658C73.7541 28.9786 73.8201 29.3086 73.8295 29.6292C73.839 29.9497 73.7258 30.2797 73.7353 30.6003C73.7447 30.9209 73.8013 31.2508 73.8013 31.5714C73.8013 31.892 73.8673 32.222 73.8767 32.5425C73.8861 32.8631 73.8767 33.1931 73.8767 33.5137C73.8767 33.8342 73.8201 34.1642 73.8295 34.4848C73.839 34.8054 73.9615 35.1259 73.9804 35.4559C73.9898 35.7671 73.9993 36.0782 74.0087 36.3988C74.0181 36.7193 73.9333 37.0305 73.9427 37.3416C73.9521 37.6528 73.9898 37.9639 73.9993 38.275C74.0087 38.5862 74.103 38.8973 74.1124 39.2085C74.1218 39.5196 74.1124 39.8307 74.1313 40.1513C74.1501 40.4719 74.0653 40.783 74.0841 41.0941C74.103 41.4053 74.1878 41.7164 74.2067 42.0276C74.2255 42.3387 74.169 42.6593 74.1878 42.9704C74.2067 43.2815 74.3293 43.5927 74.3481 43.9038C74.367 44.215 74.4047 44.5261 74.433 44.8372C74.4613 45.1484 74.4895 45.4595 74.5084 45.7706C74.5273 46.0912 74.4707 46.4118 74.4895 46.7323C74.5084 47.0529 74.6121 47.3641 74.6215 47.6846C74.631 48.0052 74.5367 48.3257 74.5461 48.6463C74.5555 48.9669 74.5932 49.278 74.6027 49.5986C74.6121 49.9192 74.6875 50.2303 74.6875 50.5509C74.6875 50.8714 74.5461 51.1826 74.5461 51.5031C74.5461 51.8237 74.5933 52.1348 74.5838 52.4554C74.5744 52.776 74.631 53.0871 74.6215 53.4077C74.6121 53.7282 74.6498 54.0488 74.6404 54.36C74.631 54.6711 74.5178 54.9917 74.5084 55.3122C74.499 55.6328 74.4424 55.9439 74.433 56.2645C74.4235 56.5851 74.433 56.8962 74.433 57.2168C74.433 57.5373 74.3764 57.8485 74.3575 58.169C74.3387 58.4896 74.3293 58.8007 74.3104 59.1213C74.301 59.3382 74.2915 59.5833 74.2255 59.9133C73.7824 59.9322 73.3581 59.9039 72.9527 59.9039C72.6133 59.9039 72.2833 59.9604 71.9439 59.951C71.6044 59.9416 71.2744 59.9887 70.935 59.9887C70.5956 59.9887 70.2656 59.9039 69.9356 59.8944C69.6056 59.885 69.2662 59.8379 68.9268 59.8379C68.5873 59.8379 68.2573 59.9039 67.9273 59.9133C67.6256 59.9133 67.3239 59.9133 67.0222 59.9322C66.7205 59.951 66.4282 60.017 66.1265 60.0359C65.8248 60.0547 65.5231 60.0359 65.2214 60.0547C64.9197 60.0736 64.618 60.0547 64.3163 60.0736C64.0145 60.0924 63.7223 60.1584 63.4206 60.1679C63.1188 60.1773 62.8171 60.1584 62.5249 60.1584C62.2043 60.1584 61.8837 60.2716 61.5631 60.2621C61.2426 60.2527 60.9314 60.0924 60.6109 60.083C60.2903 60.0736 59.9697 60.083 59.6492 60.0642C59.3286 60.0453 59.008 60.083 58.6875 60.0642C58.3669 60.0453 58.0463 60.0076 57.7258 59.9887C57.4052 59.9699 57.0846 59.9133 56.7641 59.8944C56.4435 59.8756 56.1229 59.9887 55.8024 59.9793C55.5007 59.9699 55.199 59.9416 54.8878 59.9227C54.5767 59.9039 54.2844 59.9227 53.9827 59.9227C53.6715 59.9322 53.351 59.819 53.0398 59.8284C52.7287 59.8379 52.4176 59.9887 52.1064 60.0076C51.7953 60.0264 51.4747 60.0264 51.1636 60.0359C50.8524 60.0453 50.5319 59.9982 50.2207 60.0076C49.9096 60.017 49.589 59.9793 49.2779 59.9887C48.9668 59.9982 48.6556 60.0924 48.335 60.1019C48.0145 60.1113 47.7033 59.9887 47.3922 59.9982C47.0811 60.0076 46.7699 60.1679 46.4588 60.1867C46.1476 60.2056 45.8271 60.1773 45.5159 60.1867C45.2048 60.1962 44.8842 60.0924 44.5731 60.1019C44.262 60.1113 43.9508 60.2339 43.6397 60.2433C43.3285 60.2527 43.008 60.215 42.6968 60.2244C42.3857 60.2339 42.0746 60.2716 41.754 60.2904C41.4334 60.3093 41.1223 60.3093 40.8111 60.3187C40.5 60.3282 40.1794 60.3659 39.8683 60.3753C39.5572 60.3847 39.2366 60.3753 38.9255 60.3941C38.6143 60.413 38.3032 60.4602 37.9826 60.4696C37.6621 60.479 37.3509 60.4884 37.0398 60.4979C36.7286 60.5073 36.4081 60.4602 36.0969 60.479C35.7764 60.4884 35.4464 60.479 35.1258 60.4979C34.8052 60.5167 34.4847 60.5827 34.1547 60.6016C33.8247 60.6204 33.5041 60.545 33.1835 60.5544C32.863 60.5639 32.533 60.5733 32.2124 60.5827C31.8918 60.5922 31.5619 60.6016 31.2413 60.611C30.9207 60.6204 30.5907 60.6204 30.2702 60.6393C29.9496 60.6581 29.629 60.7053 29.299 60.7147C28.969 60.7242 28.6485 60.7524 28.3279 60.7619C28.0073 60.7713 27.6773 60.7053 27.3568 60.7147C27.0362 60.7242 26.7156 60.8184 26.3856 60.8279C26.0556 60.8373 25.7351 60.743 25.4145 60.7524C25.1505 60.7524 24.8771 60.8844 24.6131 60.8467C24.236 60.7996 24.1228 60.4979 24.0568 60.1113C24.0002 59.753 23.9437 59.3947 23.8777 59.0459C23.8117 58.697 23.5948 58.367 23.5288 58.0088C23.4628 57.6505 23.3968 57.3016 23.3308 56.9433C23.2931 56.7076 23.312 56.4625 23.2837 56.1796C23.2648 55.9534 23.2365 55.6611 23.2083 55.3782L23.246 55.4631Z" fill="#007257"/>
<path d="M5.78467 8.01932C6.04867 7.9816 6.30324 7.88732 6.54838 7.84961C6.80294 7.81189 7.06694 7.91561 7.32151 7.89675C7.61379 7.87789 7.9155 7.87789 8.20778 7.85904C8.50006 7.84018 8.79235 7.69875 9.09406 7.67989C9.39577 7.66104 9.68805 7.69875 9.98976 7.67989C10.2915 7.66104 10.5837 7.65161 10.876 7.63275C11.1683 7.61389 11.47 7.56676 11.7623 7.55733C12.0546 7.5479 12.3563 7.61389 12.658 7.60446C12.9597 7.59504 13.2426 7.49133 13.5443 7.4819C13.846 7.47247 14.1383 7.54789 14.44 7.53847C14.6286 7.53847 14.8077 7.38761 14.9963 7.35932C15.3168 7.31218 15.6091 7.38761 15.7882 7.51961C15.9674 7.65161 16.0805 7.92503 16.1465 8.23617C16.2125 8.53788 16.2314 8.84902 16.3068 9.15073C16.3822 9.45244 16.4954 9.74472 16.5614 10.0464C16.6274 10.3481 16.5802 10.6781 16.6557 10.9798C16.7311 11.2816 16.9291 11.555 16.9951 11.8567C17.0611 12.1584 16.9951 12.4884 17.0517 12.7901C17.1082 13.0918 17.2874 13.3747 17.3534 13.6764C17.4194 13.9781 17.4571 14.2892 17.5137 14.5909C17.5702 14.8927 17.6362 15.1944 17.6834 15.5055C17.7305 15.8166 17.7494 16.1183 17.7965 16.4295C17.8436 16.7406 17.9096 17.0329 17.9474 17.344C17.9851 17.6552 17.9474 17.9663 17.9851 18.268C18.0228 18.5697 18.0794 18.8809 18.0982 19.1826C18.1171 19.4937 18.2208 19.8049 18.2396 20.116C18.2585 20.4271 18.2774 20.7383 18.2962 21.0589C18.3151 21.3794 18.2491 21.6906 18.2774 22.0017C18.3056 22.3128 18.3245 22.624 18.3434 22.9351C18.3622 23.2462 18.4282 23.5574 18.4471 23.8685C18.4659 24.1797 18.5602 24.4908 18.5791 24.8019C18.5979 25.1131 18.5036 25.4336 18.5319 25.7448C18.5602 26.0559 18.6828 26.3671 18.7016 26.6782C18.7205 26.9893 18.6168 27.3099 18.6451 27.621C18.6733 27.9322 18.6922 28.2433 18.7205 28.5545C18.7488 28.8656 18.8525 29.1767 18.8713 29.4879C18.8902 29.799 18.8996 30.1101 18.9185 30.4307C18.9373 30.7513 18.9656 31.053 18.9939 31.3641C19.0222 31.6753 18.9751 31.9958 18.9939 32.307C19.0128 32.6181 19.1071 32.9293 19.1259 33.2404C19.1448 33.5515 19.1825 33.8627 19.2013 34.1738C19.2202 34.4849 19.2485 34.7961 19.2673 35.1072C19.2862 35.4089 19.2296 35.7201 19.2579 36.0312C19.2862 36.3424 19.3239 36.6441 19.3522 36.9458C19.3805 37.2475 19.3333 37.5586 19.3522 37.8698C19.3711 38.1809 19.4936 38.4732 19.5219 38.7749C19.5502 39.0766 19.569 39.3877 19.5973 39.6894C19.6256 39.9912 19.6068 40.3023 19.6445 40.604C19.6822 40.9057 19.7293 41.2074 19.767 41.5186C19.8048 41.8297 19.8519 42.122 19.8896 42.4331C19.9273 42.7443 19.965 43.0365 20.0028 43.3477C20.0405 43.6588 20.0876 43.9511 20.1253 44.2622C20.163 44.5734 20.1913 44.8751 20.2385 45.1768C20.2856 45.4785 20.361 45.7802 20.4082 46.0819C20.4553 46.3836 20.4553 46.6948 20.5025 46.9965C20.5496 47.2982 20.6062 47.5999 20.6628 47.9016C20.7193 48.2033 20.7193 48.5145 20.7759 48.8162C20.8325 49.1179 20.9927 49.4007 21.0493 49.7024C21.1059 50.0042 21.0776 50.3247 21.1342 50.617C21.1907 50.9093 21.2662 51.211 21.3227 51.5127C21.3793 51.8144 21.549 52.0878 21.615 52.3896C21.681 52.6913 21.6999 52.993 21.7564 53.2947C21.813 53.5775 21.8602 53.8604 21.9167 54.1432C21.9733 54.4261 21.9922 54.7184 22.0487 55.0012C22.1053 55.2841 22.1524 55.5669 22.2184 55.8498C22.2844 56.1326 22.3127 56.4155 22.3693 56.6984C22.4259 56.9812 22.539 57.2546 22.5956 57.5375C22.6521 57.8203 22.7087 58.1032 22.7559 58.386C22.803 58.6689 22.8219 58.9612 22.869 59.244C22.9161 59.4892 23.0293 59.7437 23.0293 60.0266C23.0293 60.2717 22.9539 60.498 22.9633 60.7903C22.4636 60.6677 22.0959 60.7337 21.8224 60.5829C21.5207 60.4132 21.2379 60.2717 20.9456 60.1963C20.6156 60.1114 20.3139 60.036 20.0028 60.0455C19.6916 60.0549 19.3428 60.0454 19.0316 60.1397C18.7205 60.234 18.4376 60.3849 18.1454 60.5357C17.8531 60.6866 17.6457 60.9317 17.3722 61.1203C17.0988 61.3089 16.8631 61.4974 16.5991 61.6954C16.3068 61.9217 15.958 62.1103 15.7222 62.412C15.4865 62.7137 15.2508 63.006 15.0245 63.2983C14.836 63.534 14.7888 63.864 14.6191 64.1091C14.4494 64.3542 14.1854 64.524 13.9874 64.7502C13.7894 64.9765 13.6668 65.2311 13.4688 65.3442C13.2331 65.4857 12.9597 65.5045 12.6957 65.4951C12.4694 65.4857 12.2243 65.4102 11.9509 65.2782C11.602 65.1085 11.3003 64.8728 10.9703 64.6748C10.6403 64.4768 10.3198 64.2694 10.0275 64.0337C9.76348 63.8074 9.48062 63.6 9.17891 63.468C8.86777 63.3265 8.52835 63.2228 8.19835 63.1757C7.86836 63.1286 7.52893 63.2323 7.18951 63.2888C6.85009 63.3454 6.54838 63.4303 6.23724 63.5717C5.9261 63.7131 5.69039 63.9111 5.41696 64.128C5.1624 64.326 4.8324 64.4674 4.60612 64.7314C4.40812 64.9765 4.23841 65.2122 3.99327 65.5139C3.79527 65.3348 3.6727 65.2217 3.57842 65.0519C3.42756 64.788 3.19185 64.5805 3.05985 64.3165C2.92786 64.0525 2.80529 63.7697 2.69215 63.4963C2.579 63.2228 2.49415 62.9306 2.39986 62.6477C2.30558 62.3648 2.25844 62.0631 2.17358 61.7803C2.08873 61.4974 2.0133 61.2052 1.93787 60.9223C1.86244 60.6394 1.71159 60.366 1.65502 60.0643C1.59845 59.7626 1.63616 59.4609 1.58902 59.1686C1.54188 58.8763 1.43816 58.584 1.40988 58.2918C1.38159 57.9995 1.39102 57.6978 1.36274 57.3961C1.33445 57.0944 1.37216 56.8021 1.36274 56.5004C1.35331 56.1986 1.30616 55.8969 1.29674 55.5858C1.28731 55.2747 1.31559 54.9824 1.31559 54.6712C1.31559 54.3601 1.21188 54.0584 1.22131 53.7567C1.23074 53.455 1.37216 53.1533 1.39102 52.8515C1.40988 52.5498 1.35331 52.2387 1.37216 51.937C1.39102 51.6353 1.49473 51.343 1.53245 51.0319C1.57016 50.7207 1.48531 50.4002 1.53245 50.0984C1.57959 49.7967 1.73987 49.5045 1.78702 49.2027C1.83416 48.901 1.85301 48.5899 1.91901 48.2882C1.98501 47.9865 1.95673 47.6659 2.02273 47.3642C2.08873 47.0625 2.31501 46.7985 2.39986 46.5062C2.48472 46.2139 2.54129 45.9122 2.63558 45.6105C2.72986 45.3088 2.75814 45.0071 2.86186 44.7148C2.96557 44.4225 3.041 44.1208 3.16357 43.838C3.27671 43.5551 3.39928 43.2723 3.51242 42.9894C3.62556 42.7065 3.83299 42.4614 3.9367 42.1691C4.04041 41.8768 4.04984 41.5657 4.15355 41.2734C4.25727 40.9811 4.45526 40.7266 4.54955 40.4437C4.64383 40.1609 4.62497 39.8309 4.71926 39.5386C4.81354 39.2463 4.87954 38.9446 4.9644 38.6523C5.04925 38.36 5.25668 38.096 5.33211 37.8038C5.40754 37.5115 5.39811 37.1909 5.47354 36.8986C5.54896 36.6063 5.58668 36.2952 5.65267 36.0029C5.71867 35.7106 5.89782 35.4278 5.95439 35.1355C6.01096 34.8432 6.03924 34.5321 6.09581 34.2304C6.15238 33.9287 6.23724 33.6364 6.28438 33.3347C6.33152 33.033 6.22781 32.7124 6.26552 32.4107C6.30324 32.109 6.37867 31.8073 6.40695 31.5056C6.43524 31.2038 6.50123 30.9021 6.52952 30.6004C6.55781 30.2987 6.64266 29.997 6.66152 29.6953C6.68038 29.3936 6.66152 29.0824 6.67095 28.7807C6.68037 28.479 6.61438 28.1679 6.6238 27.8662C6.6238 27.555 6.57666 27.2439 6.58609 26.9328C6.59552 26.6216 6.61438 26.3105 6.63323 25.9994C6.65209 25.6882 6.76523 25.3865 6.77466 25.0754C6.78409 24.7642 6.72752 24.4531 6.73695 24.1419C6.74638 23.8308 6.70866 23.5197 6.70866 23.2085C6.70866 22.8974 6.80295 22.5863 6.79352 22.2751C6.78409 21.964 6.8218 21.6528 6.81237 21.3417C6.79352 21.04 6.71809 20.7477 6.69923 20.446C6.68038 20.1443 6.71809 19.8426 6.69923 19.5503C6.68038 19.258 6.61438 18.9563 6.59552 18.6546C6.57666 18.3529 6.44466 18.07 6.42581 17.7683C6.40695 17.4666 6.51066 17.1649 6.49181 16.8632C6.47295 16.5615 6.35038 16.2786 6.33152 15.9769C6.31267 15.6752 6.30324 15.3829 6.27495 15.0812C6.24667 14.7795 6.25609 14.4872 6.22781 14.1855C6.19952 13.8838 6.16181 13.5915 6.13352 13.2898C6.10524 12.9881 6.04867 12.6958 6.02038 12.4035C5.9921 12.1113 5.95439 11.8095 5.9261 11.5078C5.89781 11.2061 5.96381 10.9044 5.94496 10.6121C5.9261 10.3293 5.87896 10.0464 5.84124 9.75415C5.80353 9.46187 5.73753 9.19788 5.73753 8.90559C5.73753 8.63217 5.7281 8.33045 5.77525 8.03817L5.78467 8.01932ZM9.91433 56.5852C9.92376 56.3306 9.87662 56.1044 9.89547 55.8687C9.91433 55.6141 10.0558 55.3784 10.0275 55.1332C9.99919 54.8315 9.98976 54.5392 9.9709 54.2375C9.95204 53.9358 9.82004 53.6435 9.82004 53.3418C9.82004 53.0401 9.87661 52.7478 9.88604 52.4461C9.89547 52.1444 9.91433 51.8521 9.94262 51.5504C9.9709 51.2487 9.9709 50.9564 10.0086 50.6547C10.0463 50.353 10.1878 50.0796 10.2349 49.7873C10.2915 49.4762 10.2632 49.1462 10.3198 48.8256C10.3763 48.505 10.5083 48.2033 10.5555 47.8922C10.6026 47.5811 10.4989 47.2416 10.5272 46.9211C10.5555 46.6005 10.6026 46.2894 10.6215 45.9688C10.6403 45.6482 10.678 45.3277 10.6969 45.0165C10.7157 44.7054 10.7629 44.3754 10.7629 44.0548C10.7629 43.7342 10.7063 43.4137 10.7063 43.0931C10.7063 42.7725 10.81 42.452 10.7912 42.1314C10.7723 41.7449 10.8949 41.0943 10.2066 41.2169C9.65033 41.3111 9.7729 41.8486 9.78233 42.2257C9.79176 42.5463 9.91433 42.8763 9.91433 43.1968C9.91433 43.5174 9.89547 43.8474 9.88604 44.168C9.87661 44.4885 9.86719 44.8185 9.84833 45.1391C9.82947 45.4597 9.7729 45.7802 9.74462 46.1102C9.71633 46.4402 9.7069 46.7608 9.66919 47.0813C9.63148 47.4019 9.52776 47.713 9.48062 48.043C9.43348 48.373 9.42405 48.6936 9.36748 49.0142C9.31091 49.3347 9.33919 49.6647 9.2732 49.9853C9.21662 50.3059 9.16005 50.617 9.11291 50.9376C9.06577 51.2581 8.96206 51.5787 8.9432 51.8993C8.92434 52.2198 8.91492 52.5498 8.91492 52.8704C8.91492 53.191 8.96206 53.521 8.98091 53.8415C8.99977 54.1621 9.08463 54.4827 9.11291 54.8032C9.1412 55.1238 9.06577 55.4538 9.11291 55.7744C9.16005 56.1421 9.2732 56.4815 9.88604 56.5664L9.91433 56.5852ZM14.6663 29.3559C14.572 29.3747 14.5437 29.4407 14.4588 29.4596C14.4023 29.5539 14.2043 29.5916 14.2043 29.6859C14.1948 30.0064 14.1666 30.327 14.1477 30.657C14.1288 30.987 14.2703 31.2981 14.2986 31.6187C14.3268 31.9393 14.2986 32.2598 14.3363 32.5804C14.374 32.901 14.3834 33.2215 14.4023 33.5421C14.4211 33.8627 14.4777 34.1832 14.4871 34.5038C14.4966 34.8244 14.4306 35.1449 14.44 35.4749C14.4494 35.8049 14.5343 36.1161 14.5437 36.4366C14.5531 36.7572 14.4494 37.0778 14.4494 37.3983C14.4494 37.7189 14.5814 38.0395 14.572 38.36C14.5626 38.6806 14.5437 39.0012 14.5343 39.3217C14.5248 39.6423 14.4871 39.9629 14.4777 40.2834C14.4683 40.604 14.4023 40.9246 14.3834 41.2451C14.3646 41.5657 14.3928 41.8863 14.3646 42.2068C14.3363 42.5274 14.1948 42.8385 14.1571 43.1591C14.1194 43.4797 14.2231 43.8097 14.1854 44.1302C14.1477 44.4131 13.9874 44.6865 13.9874 44.9694C13.9874 45.2522 14.11 45.5351 14.1288 45.8179C14.1477 46.0725 14.1288 46.4496 14.7417 46.3082C14.7605 45.9594 14.7605 45.6105 14.7794 45.2428C14.7983 44.9222 14.8548 44.5922 14.8643 44.2717C14.8737 43.9511 14.8643 43.6211 14.8925 43.3005C14.9208 42.98 14.9963 42.6594 15.0057 42.3294C15.0151 41.9994 15.0057 41.6788 15.0245 41.3583C15.0434 41.0377 14.9868 40.7077 15.0057 40.3777C15.0245 40.0477 15.0623 39.7272 15.0905 39.4066C15.1188 39.0955 15.232 38.8032 15.2414 38.492C15.2508 38.1809 15.2697 37.8792 15.2791 37.568C15.2885 37.2569 15.2508 36.9552 15.2508 36.6441C15.2508 36.3329 15.1848 36.0312 15.1754 35.7295C15.166 35.4278 15.2697 35.1166 15.2603 34.8055C15.2508 34.4944 15.1283 34.2021 15.1094 33.891C15.0905 33.5798 15.1943 33.2687 15.1754 32.967C15.1565 32.6653 15.1188 32.3541 15.1 32.0524C15.0811 31.7507 14.9585 31.449 14.9303 31.1473C14.902 30.8456 14.8925 30.5344 14.8643 30.2327C14.836 29.9216 14.7417 29.6387 14.6663 29.337V29.3559Z" fill="#FFD400"/>
<path d="M45.3838 19.2766C45.5912 19.0126 45.8552 18.9466 46.1004 18.8995C46.3738 18.8429 46.6472 18.8335 46.9206 18.8146C47.2789 18.7864 47.5523 18.7581 47.7692 18.7486C48.1463 18.7298 48.3255 18.6638 48.514 18.4752C48.6555 18.3338 48.7592 18.1358 48.91 17.7587C48.9949 17.5512 49.2212 17.3344 49.3437 17.0232C49.4757 16.6744 49.4852 16.2784 49.6549 15.9201C49.8057 15.609 50.0226 15.2978 50.3714 15.0244C50.5411 15.3827 50.7674 15.6844 50.8429 16.0144C50.9277 16.3632 51.0597 16.665 51.2011 16.9572C51.352 17.2684 51.5311 17.5418 51.7668 17.7869C52.0025 18.0321 52.2288 18.2678 52.54 18.4375C52.8228 18.5884 53.1623 18.6449 53.5017 18.7392C53.9071 18.8524 54.2182 19.1729 54.6614 19.3803C54.4539 19.7103 54.2654 19.9555 54.0297 20.1535C53.7468 20.3798 53.4451 20.54 53.1434 20.6626C52.8417 20.7852 52.5965 20.9172 52.4174 21.0869C52.2005 21.2849 52.0874 21.53 52.0025 21.8129C51.9271 22.058 51.8706 22.3409 51.88 22.652C51.8988 23.0009 51.946 23.3592 51.8894 23.7363C51.8423 24.0663 51.7291 24.4151 51.616 24.7923C51.3708 24.5189 51.1728 24.2077 50.9277 23.9249C50.6449 23.6043 50.362 23.4063 50.1357 23.2649C49.834 23.0763 49.5323 23.0669 49.1552 23.1706C48.8912 23.2366 48.6177 23.4251 48.25 23.6231C47.8446 23.84 47.3826 23.972 46.9772 24.1606C46.7886 23.906 46.7415 23.6514 46.7886 23.444C46.8452 23.2083 46.9678 22.982 47.0715 22.7652C47.1752 22.5577 47.3543 22.388 47.4675 22.1806C47.5806 21.9732 47.6843 21.7563 47.7975 21.5489C47.59 21.3603 47.3166 21.2566 47.0903 21.1058C46.8641 20.9549 46.6849 20.7003 46.4681 20.54C46.2512 20.3798 46.0532 20.1912 45.8646 19.9838C45.6761 19.7763 45.4781 19.5972 45.3838 19.3049V19.2766Z" fill="white"/>
<path d="M29.7231 36.7195C29.6948 36.4367 29.6005 36.1633 29.61 35.8804C29.6194 35.6353 29.6948 35.3901 29.7137 35.1356C29.7325 34.881 29.7137 34.6359 29.7608 34.3907C29.8362 33.9759 29.8268 33.6459 29.6854 33.3724C29.544 33.099 29.2988 32.835 28.9028 32.6936C28.5917 32.5805 28.29 32.4673 27.9977 32.2693C27.7431 32.0902 27.5546 31.8922 27.3188 31.5905C27.5734 31.449 27.7148 31.2416 27.96 31.1096C28.2051 30.9776 28.5257 30.9588 28.7708 30.8268C29.016 30.6948 29.2517 30.5439 29.5062 30.4025C29.7608 30.2611 29.9211 30.0536 30.1757 29.9122C30.2794 29.6199 30.4585 29.3748 30.4868 29.0542C30.5151 28.7525 30.4491 28.4414 30.4679 28.1114C30.4868 27.8097 30.5811 27.508 30.6471 27.1874C30.7037 26.8951 30.7414 26.6123 30.8734 26.3105C31.0808 26.6028 31.2316 26.8668 31.4108 27.112C31.6182 27.3854 31.8822 27.5928 32.0331 27.8662C32.1839 28.1491 32.3913 28.3471 32.5893 28.5357C32.8062 28.7431 32.9948 29.0071 33.2965 29.0636C33.551 29.1108 33.8528 29.0259 34.1922 28.9505C34.4279 28.8939 34.673 28.9128 34.9182 28.9317C35.1633 28.9505 35.4179 28.9317 35.663 28.9317C35.6819 29.2239 35.6347 29.5068 35.5593 29.7519C35.4839 30.0159 35.3424 30.2516 35.201 30.4779C35.0596 30.7042 34.8899 30.9305 34.7296 31.1379C34.541 31.383 34.4845 31.6376 34.4185 31.8545C34.3336 32.1185 34.1827 32.373 34.2299 32.6276C34.277 32.8633 34.4185 33.1085 34.5693 33.3536C34.7296 33.6364 34.8333 33.9476 34.9842 34.2776C35.1162 34.5604 35.3424 34.8621 35.5027 35.2016C35.0407 35.1639 34.7485 35.1733 34.541 35.0979C34.3147 35.013 34.0885 34.9187 33.881 34.815C33.6736 34.7113 33.4379 34.6359 33.221 34.5416C32.7591 34.3341 32.5045 34.1644 32.2405 34.2587C32.0048 34.3436 31.7974 34.5887 31.4862 34.9753C31.3259 35.1827 31.1939 35.409 31.0337 35.6164C30.8734 35.8238 30.7225 36.0313 30.5622 36.2387C30.4019 36.4461 30.2511 36.6913 30.0908 36.8893C29.9871 36.861 29.8457 36.7573 29.742 36.7195H29.7231Z" fill="white"/>
<path d="M43.3756 36.0498C43.6302 35.8801 43.9508 35.7858 44.2053 35.6161C44.4599 35.4464 44.6956 35.2484 44.969 35.1164C45.2236 34.9844 45.4593 34.8618 45.6385 34.7016C45.8365 34.513 46.0062 34.2961 46.1005 34.051C46.1853 33.8247 46.2042 33.5513 46.2042 33.259C46.2042 33.0327 46.1476 32.7876 46.2042 32.5142C46.2513 32.3067 46.3833 32.005 46.4305 31.7222C46.7793 32.0616 47.0716 32.2596 47.2036 32.4764C47.3922 32.7687 47.4959 33.1081 47.7316 33.2967C47.9861 33.4947 48.3161 33.5419 48.6461 33.589C48.929 33.6361 49.2213 33.589 49.5795 33.4947C49.8247 33.4287 50.1641 33.5513 50.6355 33.5607C50.3527 34.0227 50.1075 34.3904 49.8341 34.6733C49.5796 34.9373 49.4381 35.2295 49.3816 35.503C49.325 35.7953 49.4476 36.0875 49.5701 36.4081C49.6738 36.6627 49.7493 36.9361 49.8435 37.2001C49.9378 37.4641 50.0887 37.7658 50.183 38.0298C49.7021 38.3315 49.3344 37.9732 49.0421 37.8318C48.6933 37.6621 48.3821 37.6998 48.0899 37.7752C47.7976 37.8507 47.5902 38.0392 47.3356 38.3221C47.1659 38.5106 46.9019 38.6238 46.6756 38.8312C46.4965 38.9915 46.2985 39.1895 46.0627 39.4063C45.9496 38.7935 45.8647 38.4164 45.827 38.0392C45.7799 37.5301 45.8176 37.2284 45.6762 37.0775C45.5347 36.9267 45.2236 36.9738 44.7333 36.8512C44.2808 36.7381 43.9036 36.4458 43.4699 36.3044C43.4605 36.2101 43.3756 36.1441 43.3662 36.0498H43.3756Z" fill="white"/>
</svg>
