<svg width="72" height="67" viewBox="0 0 72 67" fill="none" xmlns="http://www.w3.org/2000/svg">
<path d="M2.71574 66.1166C2.41403 66.1166 2.16887 65.8243 2.16887 65.5226C2.16887 65.07 2.14059 65.07 2.14059 64.6175C2.14059 64.1649 2.19716 64.1649 2.19716 63.7123C2.19716 63.2598 2.17831 63.2598 2.17831 62.8072C2.17831 62.3546 2.17831 62.3546 2.17831 61.9021C2.17831 61.4495 2.23488 61.4495 2.23488 60.9969C2.23488 60.5444 2.17831 60.5444 2.17831 60.0918C2.17831 59.6392 2.20659 59.6393 2.20659 59.1867C2.20659 58.7341 2.15003 58.7341 2.15003 58.2816C2.15003 57.829 2.20659 57.829 2.20659 57.3764C2.20659 56.9239 2.22544 56.9239 2.22544 56.4713C2.22544 56.0187 2.21603 56.0187 2.21603 55.5756C2.21603 55.1325 2.22544 55.123 2.22544 54.6705C2.22544 54.2179 2.19716 54.2179 2.19716 53.7653C2.19716 53.3128 2.20659 53.3128 2.20659 52.8602C2.20659 52.4076 2.12174 52.4076 2.12174 51.9551C2.12174 51.5025 2.15944 51.5025 2.15944 51.0499C2.15944 50.5974 2.22544 50.5974 2.22544 50.1448C2.22544 49.6922 2.1123 49.6922 2.1123 49.2397C2.1123 48.7871 2.1123 48.7871 2.1123 48.3345C2.1123 47.882 2.17831 47.882 2.17831 47.4294C2.17831 46.9769 2.19716 46.9769 2.19716 46.5243C2.19716 46.0717 2.12174 46.0717 2.12174 45.6097C2.12174 45.1477 2.14059 45.1572 2.14059 44.6952C2.14059 44.3935 2.41403 44.186 2.71574 44.186C3.01745 44.186 3.30971 44.3935 3.30971 44.6952C3.30971 45.1477 3.24373 45.1477 3.24373 45.6003C3.24373 46.0529 3.24373 46.0529 3.24373 46.5054C3.24373 46.958 3.26258 46.958 3.26258 47.4106C3.26258 47.8631 3.3003 47.8631 3.3003 48.3157C3.3003 48.7683 3.27201 48.7683 3.27201 49.2208C3.27201 49.6734 3.27201 49.6734 3.27201 50.126C3.27201 50.5785 3.22485 50.5785 3.22485 51.0311C3.22485 51.4836 3.23429 51.4836 3.23429 51.9362C3.23429 52.3888 3.20601 52.3888 3.20601 52.8413C3.20601 53.2939 3.25314 53.2939 3.25314 53.7465C3.25314 54.199 3.25314 54.199 3.25314 54.6422C3.25314 55.0853 3.27201 55.0947 3.27201 55.5473C3.27201 55.9999 3.27201 55.9999 3.27201 56.4524C3.27201 56.905 3.23429 56.905 3.23429 57.3576C3.23429 57.8101 3.20601 57.8101 3.20601 58.2627C3.20601 58.7153 3.28142 58.7153 3.28142 59.1678C3.28142 59.6204 3.21544 59.6204 3.21544 60.073C3.21544 60.5255 3.29086 60.5255 3.29086 60.9781C3.29086 61.4307 3.23429 61.4307 3.23429 61.8832C3.23429 62.3358 3.27201 62.3358 3.27201 62.7883C3.27201 63.2409 3.30971 63.2409 3.30971 63.6935C3.30971 64.146 3.3003 64.146 3.3003 64.608C3.3003 65.07 3.24373 65.0606 3.24373 65.5226C3.24373 65.8243 3.01745 66.1166 2.71574 66.1166Z" fill="#FFD400"/>
<path d="M8.33488 66.4939C8.03317 66.4939 7.83517 66.1827 7.83517 65.8904C7.83517 65.4284 7.78801 65.4285 7.78801 64.9759C7.78801 64.5233 7.86346 64.5139 7.86346 64.0613C7.86346 63.6088 7.82574 63.5993 7.82574 63.1468C7.82574 62.6942 7.79745 62.6848 7.79745 62.2322C7.79745 61.7797 7.73145 61.7702 7.73145 61.3177C7.73145 60.8651 7.84458 60.8557 7.84458 60.4031C7.84458 59.9505 7.76917 59.9411 7.76917 59.4885C7.76917 59.036 7.76917 59.0265 7.76917 58.574C7.76917 58.1214 7.75032 58.112 7.75032 57.65C7.75032 57.188 7.76917 57.188 7.76917 56.7354C7.76917 56.2829 7.74088 56.2734 7.74088 55.8209C7.74088 55.3683 7.80689 55.3589 7.80689 54.9063C7.80689 54.4538 7.76917 54.4443 7.76917 53.9823C7.76917 53.5203 7.83517 53.5203 7.83517 53.0678C7.83517 52.6152 7.75032 52.6058 7.75032 52.1532C7.75032 51.7007 7.82574 51.6912 7.82574 51.2292C7.82574 50.7672 7.73145 50.7672 7.73145 50.3052C7.73145 49.8432 7.75032 49.8432 7.75032 49.3813C7.75032 48.9193 7.73145 48.9193 7.73145 48.4667C7.73145 48.0141 7.80689 48.0047 7.80689 47.5427C7.80689 47.0807 7.79745 47.0807 7.79745 46.6187C7.79745 46.1567 7.82574 46.1567 7.82574 45.6947C7.82574 45.2327 7.85402 45.2327 7.85402 44.7707C7.85402 44.469 8.03317 44.1768 8.33488 44.1768C8.63659 44.1768 8.85343 44.4785 8.85343 44.7707C8.85343 45.2327 8.90059 45.2327 8.90059 45.6853C8.90059 46.1379 8.94772 46.1473 8.94772 46.5999C8.94772 47.0524 8.89115 47.0619 8.89115 47.5144C8.89115 47.967 8.90059 47.9764 8.90059 48.429C8.90059 48.8815 8.88172 48.891 8.88172 49.3435C8.88172 49.7961 8.92888 49.8055 8.92888 50.2581C8.92888 50.7107 8.91 50.7201 8.91 51.1727C8.91 51.6252 8.81574 51.6347 8.81574 52.0872C8.81574 52.5398 8.85343 52.5492 8.85343 53.0112C8.85343 53.4732 8.90059 53.4732 8.90059 53.9258C8.90059 54.3783 8.92888 54.3878 8.92888 54.8403C8.92888 55.2929 8.82515 55.3023 8.82515 55.7549C8.82515 56.2074 8.87231 56.2169 8.87231 56.6789C8.87231 57.1409 8.82515 57.1409 8.82515 57.5934C8.82515 58.046 8.88172 58.0554 8.88172 58.508C8.88172 58.9605 8.91 58.97 8.91 59.432C8.91 59.894 8.89115 59.894 8.89115 60.356C8.89115 60.8179 8.82515 60.8179 8.82515 61.2799C8.82515 61.7419 8.92888 61.7419 8.92888 62.1945C8.92888 62.6471 8.86287 62.6565 8.86287 63.1185C8.86287 63.5805 8.90059 63.5805 8.90059 64.0425C8.90059 64.5045 8.91944 64.5045 8.91944 64.9665C8.91944 65.4285 8.79686 65.4284 8.79686 65.8904C8.79686 66.1922 8.61771 66.4939 8.316 66.4939H8.33488Z" fill="#FFD400"/>
<path d="M13.3981 44.12C12.9455 44.12 12.9455 44.186 12.4929 44.186C12.0404 44.186 12.0404 44.1483 11.5878 44.1483C11.1352 44.1483 11.1352 44.1766 10.6827 44.1766C10.2301 44.1766 10.2301 44.0918 9.76812 44.0918C9.30612 44.0918 9.31556 44.0918 8.863 44.0918C8.41043 44.0918 8.41044 44.1106 7.95787 44.1106C7.50531 44.1106 7.50531 44.1106 7.04331 44.1106C6.58132 44.1106 6.59073 44.1672 6.13816 44.1672C5.6856 44.1672 5.6856 44.0918 5.2236 44.0918C4.76161 44.0918 4.77105 44.12 4.31848 44.12C3.86592 44.12 3.86591 44.1766 3.40392 44.1766C2.94193 44.1766 2.95135 44.1012 2.48936 44.1012C2.02737 44.1012 2.02737 44.1012 1.5748 44.1012C1.12224 44.1012 1.11281 44.0635 0.660242 44.0635C0.358532 44.0635 0.0756836 44.3652 0.0756836 44.6669C0.0756836 44.9686 0.358532 45.176 0.660242 45.176C1.11281 45.176 1.11283 45.2703 1.56539 45.2703C2.01796 45.2703 2.01795 45.176 2.47052 45.176C2.92308 45.176 2.92307 45.2609 3.37564 45.2609C3.8282 45.2609 3.8282 45.242 4.2902 45.242C4.75219 45.242 4.74275 45.176 5.19532 45.176C5.64788 45.176 5.6479 45.1477 6.10047 45.1477C6.55303 45.1477 6.55304 45.2043 7.01503 45.2043C7.47702 45.2043 7.46759 45.2326 7.92015 45.2326C8.37272 45.2326 8.37272 45.1572 8.83471 45.1572C9.2967 45.1572 9.28727 45.2703 9.73983 45.2703C10.1924 45.2703 10.1924 45.1949 10.6544 45.1949C11.1164 45.1949 11.107 45.2137 11.569 45.2137C12.0309 45.2137 12.0309 45.2137 12.4835 45.2137C12.9361 45.2137 12.9455 45.2137 13.3981 45.2137C13.7186 45.2137 14.0392 45.2137 14.3504 45.2797C14.6615 45.3457 14.9443 45.5155 15.2272 45.6286C15.51 45.7417 15.8306 45.836 16.0946 46.0152C16.3586 46.1943 16.5566 46.4489 16.7829 46.6657C17.0092 46.8826 17.1977 47.1277 17.3769 47.3917C17.556 47.6557 17.7163 47.9197 17.8389 48.212C17.9614 48.5043 18.1406 48.7777 18.1971 49.0888C18.2537 49.4 18.2443 49.7205 18.2443 50.0411C18.2443 50.3617 18.1783 50.6822 18.1217 50.9934C18.0652 51.3045 18.0274 51.6345 17.9237 51.9362C17.82 52.2379 17.688 52.5491 17.5277 52.8225C17.3674 53.0959 17.16 53.3599 16.9526 53.6051C16.7452 53.8502 16.5095 54.0765 16.2643 54.2839C16.0192 54.4913 15.7552 54.6988 15.4629 54.8402C15.1706 54.9816 14.8501 55.0382 14.5295 55.1136C14.2089 55.189 13.9072 55.2079 13.5772 55.2079C13.1058 55.2079 13.1058 55.2833 12.6344 55.2833C12.1629 55.2833 12.1629 55.1796 11.6821 55.1796C11.2012 55.1796 11.2013 55.2079 10.7298 55.2079C10.2584 55.2079 10.249 55.2739 9.77755 55.2739C9.30613 55.2739 9.1647 54.9062 8.85356 55.2645C8.49528 55.6699 8.42929 55.9527 8.77814 56.3582C9.08928 56.7164 9.2967 56.2639 9.76812 56.2639C10.2395 56.2639 10.2395 56.3864 10.7204 56.3864C11.2012 56.3864 11.2013 56.3204 11.6727 56.3204C12.1441 56.3204 12.1535 56.3864 12.6249 56.3864C13.0964 56.3864 13.1058 56.3864 13.5772 56.3864C13.8978 56.3864 14.2089 56.2639 14.5106 56.2073C14.8123 56.1507 15.1141 56.0376 15.4063 55.9245C15.6986 55.8113 15.9909 55.7076 16.2643 55.5473C16.5378 55.387 16.7923 55.2079 17.028 55.0005C17.2637 54.793 17.4617 54.5573 17.6692 54.3216C17.8766 54.0859 18.0934 53.8691 18.2631 53.5956C18.4329 53.3222 18.6497 53.0865 18.7817 52.8036C18.9137 52.5208 18.9514 52.1908 19.0457 51.8891C19.14 51.5874 19.2437 51.2857 19.2814 50.9745C19.3191 50.6634 19.3851 50.3522 19.3851 50.0317C19.3851 49.7111 19.272 49.4094 19.2248 49.1077C19.1777 48.806 19.1117 48.4948 19.0174 48.2026C18.9231 47.9103 18.8572 47.5991 18.7157 47.3257C18.5743 47.0523 18.4234 46.7694 18.2443 46.5149C18.0652 46.2603 17.7917 46.0812 17.5749 45.8643C17.358 45.6475 17.1223 45.4495 16.8677 45.2703C16.6132 45.0912 16.3492 44.9403 16.0757 44.7989C15.8023 44.6575 15.5289 44.5255 15.2272 44.4312C14.9255 44.3369 14.6521 44.1766 14.3409 44.12C14.0298 44.0635 13.7186 44.0918 13.4075 44.0918L13.3981 44.12Z" fill="#FFD400"/>
<path d="M18.0277 66.3525C17.8202 66.3525 17.6034 66.296 17.5091 66.0885C17.3299 65.6737 17.2828 65.6925 17.1037 65.2871C16.9245 64.8817 16.9245 64.8723 16.736 64.4574C16.5474 64.0426 16.6417 64.0049 16.4625 63.59C16.2834 63.1752 16.208 63.2129 16.0194 62.798C15.8308 62.3832 15.8214 62.3926 15.6328 61.9777C15.4443 61.5629 15.5386 61.5252 15.35 61.1103C15.1614 60.6955 15.1048 60.7238 14.9163 60.3089C14.7277 59.8941 14.7937 59.8658 14.6051 59.4604C14.4166 59.0549 14.3506 59.0738 14.1714 58.6589C13.9923 58.2441 14.0677 58.2064 13.8792 57.7915C13.6906 57.3767 13.6246 57.405 13.436 56.9901C13.2475 56.5753 13.2286 56.5847 13.04 56.1698C12.9174 55.8964 13.1154 55.5947 13.3889 55.4816C13.6623 55.359 13.9546 55.4533 14.0771 55.7267C14.2563 56.1415 14.2186 56.1604 14.3977 56.5753C14.5769 56.9901 14.6806 56.943 14.8691 57.3578C15.0577 57.7727 15.0106 57.7915 15.1991 58.2064C15.3877 58.6212 15.3594 58.6307 15.548 59.0455C15.7365 59.4604 15.7648 59.4509 15.944 59.8563C16.1231 60.2618 16.076 60.2901 16.2551 60.7049C16.4343 61.1198 16.4248 61.1198 16.6134 61.5346C16.802 61.9495 16.8774 61.9117 17.0565 62.3266C17.2357 62.7414 17.2357 62.7415 17.4148 63.1563C17.594 63.5712 17.5374 63.5994 17.7259 64.0143C17.9145 64.4291 17.9994 64.3914 18.1785 64.8063C18.3577 65.2211 18.3482 65.2306 18.5274 65.6454C18.6499 65.9188 18.5085 66.296 18.2351 66.4091C18.1691 66.4374 18.0748 66.3525 17.9994 66.3525H18.0277Z" fill="#FFD400"/>
<path d="M0.914841 66.4936C1.21655 66.3993 1.52769 66.3522 1.8294 66.3051C2.13111 66.2579 2.44223 66.2013 2.75337 66.1825C3.06451 66.1636 3.37567 66.1636 3.6868 66.1825C3.99794 66.2013 4.30907 66.2108 4.62021 66.2391C4.93135 66.2673 5.2425 66.3051 5.54421 66.3428C5.84592 66.3805 6.16648 66.371 6.47761 66.4088C6.78875 66.4465 7.09047 66.5219 7.40161 66.5502C7.71275 66.5785 8.02388 66.6351 8.33502 66.6539C8.64616 66.6728 8.95729 66.6822 9.26842 66.6728C9.57956 66.6633 9.88128 66.5879 10.1924 66.5502C10.5036 66.5125 10.7958 66.4465 11.107 66.3805C11.4464 66.3051 11.569 66.0599 11.4936 65.7959C11.4181 65.5319 11.1635 65.2962 10.8241 65.3811C10.513 65.4565 10.2113 65.5413 9.90955 65.5696C9.60784 65.5979 9.28728 65.5413 8.97614 65.5413C8.66501 65.5413 8.35388 65.5979 8.04274 65.5791C7.7316 65.5602 7.41101 65.5791 7.1093 65.5413C6.80759 65.5036 6.49647 65.4376 6.18533 65.3999C5.8742 65.3622 5.57248 65.2396 5.27078 65.2019C4.96907 65.1642 4.64851 65.1736 4.33737 65.1454C4.02623 65.1171 3.71507 65.0416 3.40393 65.0322C3.0928 65.0228 2.78167 65.1548 2.47053 65.1736C2.15939 65.1925 1.85767 65.1925 1.54653 65.2491C1.23539 65.3056 0.9337 65.3245 0.622562 65.4188C0.292566 65.5225 0.207686 65.8431 0.273685 66.1071C0.339684 66.3711 0.556542 66.5219 0.895966 66.4182L0.914841 66.5031V66.4936Z" fill="#FFD400"/>
<path d="M1.03751 56.2735C1.32037 56.1698 1.60321 56.1509 1.88607 56.1038C2.16892 56.0566 2.45178 55.9435 2.74406 55.934C3.03634 55.9246 3.31918 55.9529 3.61146 55.9718C3.90374 55.9906 4.18661 56.0095 4.47889 56.0472C4.77117 56.0849 5.05403 56.1415 5.33688 56.1792C5.61973 56.2169 5.90256 56.3018 6.19484 56.3395C6.48712 56.3772 6.76999 56.3866 7.06227 56.4055C7.35455 56.4243 7.64685 56.4526 7.9297 56.4432C8.21255 56.4337 8.50482 56.3866 8.7971 56.33C9.14595 56.264 9.2308 55.9246 9.14595 55.6512C9.06109 55.3778 8.83482 55.1703 8.50482 55.2269C8.21254 55.2835 7.92968 55.3872 7.64683 55.3966C7.36398 55.4061 7.06228 55.3118 6.77943 55.2929C6.49658 55.2741 6.19484 55.3401 5.90256 55.2929C5.61028 55.2458 5.34629 55.1138 5.05401 55.0666C4.76173 55.0195 4.46945 55.0949 4.17717 55.0666C3.88489 55.0383 3.61146 54.9063 3.31918 54.8875C3.0269 54.8686 2.74406 54.9535 2.45178 54.9629C2.1595 54.9723 1.87663 54.9441 1.58435 55.0006C1.29207 55.0572 1.04693 55.1703 0.764081 55.2741C0.443514 55.3872 0.377518 55.6229 0.443517 55.8775C0.509516 56.132 0.679215 56.3206 1.01864 56.198L1.03751 56.264V56.2735Z" fill="#FFD400"/>
<path d="M16.0664 66.4655C16.3964 66.3807 16.717 66.3147 17.047 66.3241C17.377 66.3335 17.6976 66.4278 18.0276 66.4655C18.3576 66.5032 18.6876 66.4561 19.0176 66.4467C19.3476 66.4372 19.6681 66.4655 19.9887 66.3524C20.3092 66.2392 20.347 65.9281 20.2904 65.6735C20.2244 65.4001 20.0453 65.1832 19.7058 65.3058C19.3853 65.419 19.0553 65.4473 18.7253 65.4473C18.3953 65.4473 18.0653 65.4472 17.7353 65.419C17.4053 65.3907 17.0847 65.2398 16.7547 65.2304C16.4247 65.221 16.0853 65.287 15.7648 65.3718C15.4442 65.4567 15.3216 65.7961 15.397 66.0601C15.4725 66.3241 15.727 66.5409 16.057 66.4561L16.0664 66.4655Z" fill="#FFD400"/>
<path d="M7.04318 55.9151C6.92061 55.9528 6.80748 55.9528 6.72262 56.0282C6.57176 55.802 6.36432 55.5851 6.05318 55.4437C5.70433 55.2834 5.27062 55.4814 5.28948 55.934C5.28948 55.9434 5.19519 55.9999 5.19519 56.0094C5.1009 55.8962 4.99721 55.8114 4.85578 55.7265C4.64835 55.604 4.43149 55.6134 4.26178 55.7737C4.18635 55.8397 4.12034 55.8774 4.0732 55.9528C3.98835 55.6888 3.69609 55.5191 3.45095 55.5568C3.20581 55.5945 3.00781 55.8208 3.00781 56.132C3.00781 56.4337 3.01722 56.7354 3.01722 57.0276C3.01722 57.3199 3.07379 57.6311 3.07379 57.9233C3.07379 58.2156 3.04551 58.5268 3.05494 58.8191C3.06437 59.1113 3.02667 59.4225 3.0361 59.7148C3.04553 60.007 3.00779 60.3182 3.01722 60.6105C3.02665 60.9027 3.14924 61.2044 3.15867 61.5062C3.1681 61.8079 3.09265 62.1096 3.11151 62.4113C3.13037 62.713 3.1681 63.0053 3.18696 63.307C3.20581 63.5521 3.19638 63.9481 3.21524 64.363C3.2341 64.7307 3.26237 65.1078 3.38494 65.4001C3.52637 65.7301 3.79037 65.9941 4.21465 65.9752C4.65779 65.9564 4.89348 65.6735 5.01605 65.3435C5.09147 65.5415 5.17634 65.7301 5.28948 65.9092C5.4969 66.2298 6.07205 66.3147 6.27004 65.9375C6.32661 65.8244 6.34547 65.6547 6.38318 65.5321C6.49632 65.7301 6.61888 65.9469 6.81688 66.0978C7.1563 66.3618 7.5806 66.2581 7.74088 65.8621C7.85402 65.5887 7.90117 65.287 7.95774 64.9947C8.01431 64.7024 8.06145 64.4101 8.07088 64.1084C8.08974 63.8727 8.18401 63.571 8.2123 63.2221C8.24059 62.9487 8.23115 62.647 8.25943 62.3264C8.28772 62.0436 8.3443 61.7419 8.36316 61.4307C8.38202 61.1196 8.29716 60.8273 8.30659 60.5256C8.31602 60.2239 8.35373 59.9222 8.36316 59.6299C8.37259 59.3376 8.39143 59.0171 8.38201 58.7248C8.38201 58.4136 8.35372 58.1119 8.32544 57.8291C8.29715 57.4991 8.25002 57.2068 8.18402 56.9428C8.09916 56.5939 7.93886 56.3488 7.78801 56.1508C7.59001 55.8962 7.39202 55.8114 7.05259 55.9151H7.04318Z" fill="#FFD400"/>
<g opacity="0.55">
<path d="M31.5382 34.6162C31.4157 34.2768 31.5005 34.3522 31.3497 33.9185C31.2837 33.73 31.2177 33.4943 31.1328 33.2397C31.0668 33.0323 30.9254 32.8248 30.85 32.5797C30.784 32.3628 30.7934 32.1083 30.7274 31.8726C30.6708 31.6463 30.5011 31.4389 30.4445 31.2031C30.388 30.9769 30.3691 30.7317 30.3125 30.496C30.256 30.2603 30.2371 30.0246 30.1994 29.7889C30.1617 29.5532 30.0674 29.3269 30.0297 29.0817C29.992 28.8366 30.0768 28.5915 30.058 28.3558C30.0391 28.1201 30.0014 27.8749 29.992 27.6392C29.9826 27.4035 29.992 27.1583 29.992 26.9226C29.992 26.7152 29.8788 26.4701 29.8883 26.1966C29.8883 25.9798 29.9637 25.7346 29.9825 25.4707C29.992 25.2444 29.9071 24.9992 29.926 24.7447C29.9354 24.5184 30.0297 24.2732 30.0391 24.0281C30.0485 23.7924 30.1523 23.5567 30.1617 23.3115C30.1805 23.0758 30.0768 22.8307 30.0863 22.5856C30.0957 22.3404 30.1051 22.1047 30.124 21.8596C30.1428 21.6144 30.1805 21.3787 30.19 21.1336C30.1994 20.8884 30.3314 20.6621 30.3503 20.417C30.3691 20.1719 30.322 19.9362 30.3408 19.691C30.3597 19.4459 30.3125 19.2102 30.3408 18.965C30.3691 18.7199 30.5482 18.4936 30.5671 18.2579C30.586 18.0222 30.5671 17.7771 30.5765 17.5319C30.586 17.2868 30.5577 17.0416 30.5765 16.8059C30.5954 16.5702 30.5294 16.3156 30.5483 16.0705C30.5671 15.8254 30.7085 15.5897 30.7274 15.3539C30.7463 15.1182 30.6991 14.8637 30.718 14.6279C30.7368 14.3922 30.8122 14.1471 30.8311 13.9114C30.85 13.6757 30.8405 13.4211 30.8688 13.1854C30.8971 12.9497 30.8971 12.6951 30.9254 12.4594C30.9537 12.2237 30.916 11.9691 30.9348 11.7334C30.9537 11.4977 31.0008 11.2526 31.0197 11.0074C31.0385 10.7623 31.1611 10.5266 31.1799 10.2909C31.1988 10.0552 31.1234 9.79116 31.1423 9.55545C31.1611 9.31031 31.2931 9.0746 31.312 8.83889C31.3308 8.58432 31.3402 8.34861 31.3591 8.1129C31.3779 7.85833 31.3025 7.60377 31.3214 7.37748C31.3403 7.11349 31.51 6.8872 31.5288 6.66092C31.5571 6.3875 31.5005 6.13293 31.5194 5.93493C31.5571 5.48236 31.3025 5.45408 31.5854 5.22779C31.8682 5.00151 31.8494 5.1618 32.3114 5.21837C32.5188 5.23723 32.7545 5.35037 33.0279 5.38808C33.2542 5.40694 33.4899 5.46351 33.7539 5.4918C33.9802 5.51065 34.2348 5.43522 34.4893 5.46351C34.725 5.48236 34.9513 5.64265 35.2059 5.67093C35.4416 5.68979 35.6867 5.69922 35.9319 5.72751C36.177 5.75579 36.4222 5.65208 36.6673 5.68036C36.9124 5.70865 37.1482 5.71808 37.3933 5.74636C37.6385 5.77465 37.8647 5.93493 38.1004 5.95379C38.3362 5.97265 38.5907 5.89722 38.8359 5.91607C39.081 5.93493 39.3261 5.89722 39.5713 5.91607C39.8164 5.93493 40.0521 6.06693 40.2878 6.08579C40.5235 6.10464 40.7781 6.15178 41.0232 6.17064C41.2684 6.1895 41.5135 6.16121 41.7587 6.17064C42.0038 6.18007 42.2489 6.27436 42.4941 6.29321C42.7392 6.31207 42.9938 6.19892 43.2389 6.20835C43.4841 6.21778 43.7292 6.34035 43.9649 6.34978C44.2006 6.35921 44.4552 6.36864 44.7004 6.37807C44.9455 6.38749 45.2001 6.34035 45.4358 6.34978C45.6715 6.35921 45.926 6.4535 46.1617 6.46293C46.4163 6.47235 46.6615 6.46293 46.8972 6.46293C47.1329 6.46293 47.3686 6.51007 47.6231 6.51949C47.8589 6.51949 48.104 6.53835 48.3586 6.55721C48.5943 6.56664 48.8394 6.52892 49.094 6.53835C49.3485 6.54778 49.5749 6.62321 49.8294 6.63264C50.084 6.64207 50.3197 6.58549 50.5648 6.59492C50.81 6.60435 51.0457 6.66092 51.2908 6.67035C51.536 6.67978 51.7811 6.64206 52.0262 6.65149C52.2714 6.66092 52.5165 6.67978 52.7617 6.68921C53.0068 6.69863 53.2425 6.79292 53.4971 6.80235C53.7516 6.81178 53.9874 6.85892 54.2325 6.86835C54.4776 6.87778 54.7228 6.86835 54.9679 6.8872C55.213 6.90606 55.4582 6.93434 55.7033 6.94377C55.9485 6.9532 56.203 6.84006 56.4482 6.84949C56.6933 6.85892 56.9385 6.89663 57.1836 6.91549C57.4287 6.93434 57.6739 7.05692 57.919 7.07578C58.1642 7.09463 58.4187 6.99091 58.6639 7.00977C58.909 7.02863 59.1541 7.10405 59.3993 7.11348C59.6444 7.12291 59.899 7.05692 60.1441 7.07578C60.3892 7.09463 60.6438 7.0852 60.8795 7.10406C61.1341 7.11349 61.3793 7.13234 61.615 7.1512C61.8695 7.16063 62.1147 7.12292 62.3504 7.13234C62.605 7.14177 62.8595 7.16063 63.0858 7.17006C63.3498 7.18891 63.6044 7.20777 63.8212 7.2172C64.1041 7.23605 64.3398 7.41519 64.5472 7.42462C65.0092 7.45291 64.9149 7.47177 65.2826 7.47177C65.6503 7.47177 65.6315 7.47176 65.9898 7.45291C66.348 7.43405 66.3292 7.26434 66.6875 7.24548C67.0457 7.22662 67.0363 7.3492 67.3946 7.33977C67.7529 7.33034 67.7435 7.24548 68.0923 7.22663C68.4412 7.20777 68.4412 7.27377 68.7994 7.26434C69.1577 7.25491 69.1483 7.30205 69.5066 7.29263C69.8649 7.2832 69.8554 7.2832 70.2137 7.27377C70.572 7.26434 70.5626 7.16063 70.8926 7.27377C71.2225 7.38691 70.8171 7.45291 70.7794 7.91491C70.7605 8.1129 70.902 8.36747 70.8831 8.65032C70.8643 8.86718 70.7606 9.10288 70.7417 9.36688C70.7228 9.59316 70.6663 9.82887 70.6474 10.0834C70.6285 10.3097 70.6474 10.5549 70.638 10.8094C70.6191 11.0451 70.6191 11.2809 70.6003 11.526C70.5814 11.7617 70.5437 11.9974 70.5248 12.2426C70.506 12.4877 70.6003 12.7234 70.5908 12.9685C70.5814 13.2137 70.5814 13.4494 70.5626 13.6945C70.5437 13.9397 70.4117 14.166 70.3928 14.4111C70.374 14.6562 70.3928 14.8919 70.3646 15.1371C70.3363 15.3822 70.2326 15.6085 70.2137 15.8536C70.1948 16.0988 70.3363 16.3439 70.3174 16.5796C70.2985 16.8153 70.1666 17.0511 70.1477 17.2868C70.1288 17.5225 70.0911 17.7676 70.0723 18.0033C70.0534 18.239 70.2231 18.4936 70.2137 18.7387C70.2043 18.9839 70.0628 19.2102 70.0534 19.4459C70.044 19.6816 70.0063 19.9267 69.9874 20.1624C69.9685 20.3982 69.9026 20.6433 69.8837 20.879C69.8648 21.1147 70.0346 21.3693 70.0251 21.6144C70.0157 21.8596 70.0063 22.0953 69.9968 22.3404C69.9874 22.5856 69.9497 22.8213 69.9308 23.0664C69.912 23.3115 69.7517 23.5378 69.7328 23.783C69.714 24.0281 69.846 24.2732 69.8271 24.5184C69.8083 24.7635 69.7046 24.9992 69.6951 25.2349C69.6857 25.4707 69.6386 25.7158 69.6197 25.9609C69.6009 26.2061 69.6763 26.4512 69.6668 26.6869C69.6574 26.9226 69.5254 27.1678 69.516 27.4035C69.5066 27.6392 69.5631 27.8938 69.5537 28.1295C69.5443 28.3652 69.6197 28.6198 69.6103 28.8555C69.6008 29.0912 69.582 29.3457 69.5725 29.5815C69.5631 29.8266 69.4217 30.0623 69.4123 30.298C69.4123 30.5432 69.516 30.7883 69.5066 31.024C69.5066 31.2786 69.4594 31.5143 69.4594 31.75C69.4594 32.0046 69.4594 32.2497 69.45 32.476C69.45 32.7306 69.45 32.9757 69.45 33.1925C69.45 33.4565 69.4971 33.7017 69.5066 33.9091C69.5066 34.2014 69.4877 34.4371 69.5066 34.6257C69.5254 34.8331 69.4689 35.0782 69.4783 35.3422C69.4877 35.5591 69.5537 35.7948 69.5537 36.0494C69.5537 36.2756 69.4688 36.5114 69.4688 36.7659C69.4688 36.9922 69.4688 37.2279 69.4688 37.4731C69.4688 37.7088 69.6291 37.9445 69.6291 38.1896C69.6291 38.4348 69.5631 38.661 69.5537 38.8968C69.5443 39.1325 69.4406 39.3682 69.4311 39.6039C69.4217 39.8396 69.6009 40.0847 69.5914 40.3204C69.582 40.5562 69.5726 40.7919 69.5631 41.0276C69.5537 41.2633 69.4971 41.499 69.4877 41.7441C69.4783 41.9893 69.4594 42.225 69.45 42.4607C69.4406 42.6964 69.4689 42.9415 69.45 43.1773C69.4311 43.413 69.3934 43.6581 69.384 43.8938C69.3746 44.1295 69.2237 44.3652 69.2143 44.601C69.2049 44.8367 69.3651 45.0912 69.3557 45.327C69.3463 45.5627 69.2991 45.8078 69.2897 46.0435C69.2709 46.2886 69.252 46.5244 69.2331 46.7601C69.2143 47.0052 69.252 47.2503 69.2331 47.4766C69.2143 47.7312 69.1294 47.9575 69.1106 48.1838C69.0917 48.4383 69.0068 48.674 68.988 48.9003C68.9691 49.1737 69.054 49.4189 69.0446 49.6169C69.0163 50.06 69.1389 50.0129 68.8843 50.258C68.6203 50.5126 68.6674 50.324 68.2054 50.3712C67.998 50.39 67.7529 50.4654 67.47 50.4937C67.2437 50.5126 66.9986 50.5597 66.7346 50.5786C66.4989 50.5974 66.2537 50.5974 65.9898 50.6163C65.754 50.6352 65.5089 50.6823 65.2543 50.7012C65.0092 50.72 64.7735 50.8049 64.5189 50.8332C64.2644 50.8614 64.0286 50.8614 63.7835 50.8803C63.5384 50.8992 63.2932 50.9086 63.0386 50.9274C62.7841 50.9463 62.5295 50.8049 62.2844 50.8237C62.0392 50.8426 61.7941 50.9086 61.5395 50.9274C61.285 50.9463 61.0493 51.0594 60.8041 51.0783C60.559 51.0972 60.3044 51.1443 60.0593 51.1631C59.8047 51.182 59.5407 51.0594 59.305 51.0689C59.0504 51.0877 58.7959 51.1349 58.5601 51.1443C58.2961 51.1537 58.051 51.2857 57.8247 51.2951C57.5513 51.3046 57.2967 51.1631 57.0799 51.1631C56.7687 51.1631 56.5142 51.3234 56.3256 51.3046C56.1842 51.2951 55.9485 51.1726 55.6279 51.0594C55.4393 50.984 55.2602 50.786 55.0056 50.6729C54.8076 50.588 54.5436 50.5786 54.3079 50.4749C54.1005 50.3806 53.8648 50.324 53.6385 50.2109C53.4311 50.1166 53.2237 49.9846 53.0068 49.8809C52.7994 49.7772 52.6108 49.6169 52.3939 49.5037C52.1865 49.4 51.9885 49.268 51.7622 49.1549C51.536 49.0418 51.3663 48.9003 51.1494 48.7872C50.9325 48.674 50.6591 48.7023 50.4423 48.5892C50.2254 48.476 50.018 48.3723 49.8011 48.2592C49.5843 48.146 49.4146 47.9763 49.1977 47.8632C48.9809 47.7501 48.7451 47.7029 48.5283 47.5803C48.3114 47.4578 48.1229 47.3352 47.9154 47.2221C47.708 47.1089 47.5289 46.9486 47.312 46.8355C47.0952 46.7224 46.916 46.5715 46.7086 46.4584C46.5012 46.3452 46.2749 46.2604 46.0675 46.1378C45.86 46.0152 45.6338 45.9304 45.4263 45.8078C45.2189 45.6852 45.0775 45.4589 44.8701 45.3364C44.6626 45.2138 44.4081 45.1667 44.2101 45.0441C44.0121 44.9215 43.8424 44.733 43.6349 44.601C43.4275 44.469 43.1918 44.403 42.9844 44.2804C42.7769 44.1578 42.579 44.0258 42.3715 43.8938C42.1641 43.7618 41.9284 43.6958 41.7304 43.5638C41.5324 43.4318 41.4004 43.1867 41.2024 43.0547C41.0044 42.9227 40.7498 42.8661 40.5518 42.7341C40.3538 42.6021 40.1841 42.423 39.9861 42.291C39.7881 42.159 39.5807 42.027 39.3827 41.895C39.1847 41.763 38.9301 41.7064 38.7321 41.5744C38.5341 41.4424 38.3644 41.2539 38.1664 41.1219C37.9684 40.9899 37.7987 40.8107 37.6007 40.6693C37.4027 40.5279 37.1482 40.4713 36.9596 40.3299C36.771 40.1884 36.639 39.9527 36.4505 39.8113C36.2619 39.6699 36.0544 39.5379 35.8659 39.387C35.6773 39.2362 35.5547 39.0099 35.3662 38.859C35.1776 38.7082 34.8853 38.6705 34.7156 38.5196C34.5459 38.3688 34.4516 38.0859 34.2725 37.9256C34.0934 37.7559 33.8671 37.6428 33.7068 37.4825C33.5276 37.3128 33.3108 37.1902 33.1505 37.0205C32.9808 36.8413 32.9242 36.5585 32.7828 36.3888C32.6225 36.2002 32.3302 36.1154 32.1982 35.9362C32.0474 35.7288 31.9437 35.5025 31.8399 35.3045C31.7174 35.0782 31.642 34.8425 31.5854 34.6351L31.5382 34.6162Z" fill="white"/>
</g>
<path d="M42.6641 0.522558C42.4095 0.767698 42.683 0.946838 42.683 1.29569C42.683 1.64454 42.7301 1.64454 42.7301 2.00282C42.7301 2.3611 42.6358 2.3611 42.6358 2.70996C42.6358 3.05881 42.7112 3.06824 42.7112 3.41709C42.7112 3.76594 42.8055 3.77537 42.8055 4.12422C42.8055 4.47307 42.6924 4.4825 42.6924 4.83136C42.6924 5.18021 42.7395 5.18964 42.7395 5.53849C42.7395 5.88734 42.7395 5.89677 42.7395 6.24562C42.7395 6.59447 42.6735 6.6039 42.6735 6.95275C42.6735 7.30161 42.7867 7.31103 42.7867 7.65989C42.7867 8.00874 42.7018 8.01817 42.7018 8.37645C42.7018 8.73473 42.683 8.73473 42.683 9.09301C42.683 9.45129 42.5321 9.49843 42.7867 9.753C43.0413 10.0076 43.0789 9.77186 43.4372 9.77186C43.7955 9.77186 43.7861 9.77186 44.1444 9.77186C44.5026 9.77186 44.5026 9.82843 44.8515 9.82843C45.2003 9.82843 45.2098 9.90386 45.5586 9.90386C45.9075 9.90386 45.9169 9.819 46.2658 9.819C46.6146 9.819 46.624 9.90386 46.9729 9.90386C47.3217 9.90386 47.3312 9.72472 47.68 9.72472C48.0289 9.72472 48.0383 9.84728 48.3872 9.84728C48.736 9.84728 48.7454 9.78129 49.0943 9.78129C49.4431 9.78129 49.4526 9.80015 49.8014 9.80015C50.1503 9.80015 50.1597 9.77186 50.518 9.77186C50.8763 9.77186 50.8763 9.84728 51.2346 9.84728C51.5928 9.84728 51.5929 9.90386 51.9511 9.90386C52.3377 9.90386 52.3377 9.885 52.7148 9.885C53.092 9.885 53.1014 9.84728 53.4785 9.84728C53.8557 9.84728 53.8651 9.69643 54.2422 9.69643C54.6194 9.69643 54.6288 9.76243 55.0059 9.76243C55.3831 9.76243 55.3925 9.70586 55.7791 9.70586C56.1656 9.70586 56.1656 9.70586 56.5522 9.70586C56.9388 9.70586 56.9388 9.79072 57.3253 9.79072C57.7119 9.79072 57.7402 9.951 58.1079 9.819C58.4379 9.69643 58.1362 9.52672 58.0796 9.08358C58.0513 8.88559 57.9476 8.64988 57.9099 8.38588C57.8816 8.16903 57.9288 7.91446 57.9005 7.66932C57.8722 7.44304 57.825 7.20732 57.7968 6.96218C57.7685 6.71704 57.6553 6.50019 57.627 6.26448C57.5988 6.02877 57.5422 5.79306 57.5139 5.55735C57.4856 5.32164 57.4668 5.0765 57.4385 4.84079C57.4102 4.59565 57.3253 4.35994 57.3065 4.13365C57.2782 3.87908 57.3065 3.64337 57.2782 3.41709C57.2593 3.15309 57.2688 2.90795 57.2593 2.70053C57.2405 2.3611 57.2593 2.10653 57.2876 1.99339C57.3253 1.85197 57.099 1.75768 56.7313 1.63511C56.5333 1.56912 56.2976 1.51254 56.0242 1.44655C55.8073 1.3994 55.5622 1.36169 55.3077 1.32398C55.0814 1.28626 54.8457 1.21084 54.5911 1.17312C54.3554 1.13541 54.1197 1.07884 53.8745 1.04112C53.6294 1.00341 53.3937 0.927983 53.1485 0.899697C52.9034 0.871412 52.6488 0.899699 52.4131 0.871413C52.1586 0.843128 51.9228 0.767697 51.6871 0.739412C51.4325 0.711127 51.1874 0.635702 50.9611 0.616845C50.6877 0.58856 50.4331 0.645131 50.2257 0.635702C49.7826 0.597989 49.8674 0.51313 49.5091 0.503701C49.1509 0.494273 49.132 0.522558 48.7549 0.522558C48.3777 0.522558 48.3778 0.588557 48.0006 0.588557C47.6235 0.588557 47.6235 0.541416 47.2463 0.541416C46.8692 0.541416 46.8692 0.503701 46.4921 0.503701C46.1149 0.503701 46.1149 0.616845 45.7472 0.616845C45.3795 0.616845 45.3701 0.46599 44.9929 0.46599C44.6158 0.46599 44.6158 0.597988 44.2387 0.597988C43.8615 0.597988 43.8615 0.607414 43.4938 0.522558C43.0695 0.418846 42.9375 0.230278 42.6641 0.494274V0.522558Z" fill="#E63500"/>
<path d="M35.2059 34.1918C35.187 33.8146 35.2907 33.9089 35.3473 33.4469C35.3756 33.2301 35.451 32.9849 35.4793 32.7115C35.5076 32.4758 35.4039 32.2118 35.4321 31.9572C35.4604 31.7121 35.451 31.4575 35.4793 31.2029C35.5076 30.9484 35.6396 30.7127 35.6679 30.4675C35.6961 30.2224 35.6207 29.949 35.649 29.7038C35.6773 29.4398 35.8376 29.2041 35.8658 28.9684C35.8941 28.6855 35.8659 28.4216 35.8847 28.2141C35.9036 28.0067 35.8376 27.7333 35.8658 27.4598C35.8847 27.2241 35.913 26.9696 35.9413 26.715C35.9696 26.4699 36.1204 26.2342 36.1487 25.9796C36.177 25.725 36.2147 25.4799 36.243 25.2347C36.2713 24.9707 36.1864 24.7067 36.2147 24.471C36.2524 24.1976 36.375 23.9525 36.4033 23.7356C36.4598 23.2831 36.375 23.3585 36.4504 22.9908C36.5259 22.6231 36.5353 22.7173 36.6484 22.2931C36.705 22.0856 36.7238 21.8405 36.7898 21.5859C36.8464 21.3597 36.9973 21.1522 37.0633 20.9071C37.1293 20.6619 37.167 20.4262 37.2235 20.1905C37.2801 19.9548 37.4215 19.7285 37.4875 19.5117C37.563 19.2571 37.5347 18.9837 37.5913 18.7857C37.7044 18.3897 37.8081 18.1351 37.827 18.1068C37.8553 18.0691 37.8741 17.7768 37.9118 17.3808C37.9307 17.164 37.9118 16.9 37.9307 16.6454C37.9495 16.4003 38.0721 16.1646 38.1004 15.9194C38.1287 15.6554 38.1758 15.4103 38.223 15.1934C38.2984 14.8163 38.3078 14.458 38.4115 14.4297C38.487 14.4015 38.7698 14.4863 39.147 14.4769C39.3544 14.4769 39.5901 14.5146 39.8541 14.5146C40.0709 14.5146 40.3161 14.4769 40.5612 14.4769C40.7875 14.4769 41.0232 14.5146 41.2684 14.524C41.5135 14.5335 41.7398 14.4015 41.9755 14.4015C42.2112 14.4015 42.4469 14.5523 42.6826 14.5523C42.9183 14.5523 43.1635 14.4769 43.3992 14.4769C43.6443 14.4769 43.88 14.5052 44.1063 14.5052C44.3609 14.5052 44.5966 14.4486 44.8135 14.4486C45.0869 14.4486 45.3226 14.59 45.5206 14.59C45.7186 14.59 45.9637 14.59 46.2654 14.5806C46.4823 14.5806 46.7274 14.5429 47.0009 14.5335C47.2366 14.5335 47.4723 14.4109 47.7363 14.4015C47.972 14.4015 48.2265 14.4392 48.4811 14.4297C48.7262 14.4297 48.9714 14.3166 49.2165 14.3072C49.4617 14.2977 49.7068 14.3355 49.9614 14.3355C50.2159 14.3355 50.4517 14.4392 50.7062 14.4392C50.9608 14.4392 51.1965 14.4392 51.4511 14.4486C51.7056 14.458 51.9508 14.4203 52.1959 14.4297C52.441 14.4392 52.7051 14.392 52.9502 14.4109C53.1953 14.4297 53.4405 14.5806 53.6762 14.6089C53.9307 14.6372 54.1759 14.6466 54.4116 14.6937C54.6662 14.7409 54.9019 14.7975 55.1282 14.854C55.3827 14.92 55.6656 14.854 55.873 14.9483C56.0804 15.0426 56.2407 15.25 56.467 15.3255C56.6933 15.4009 56.8913 15.5046 57.1176 15.58C57.3438 15.6554 57.6078 15.5517 57.8247 15.6083C58.0415 15.6649 58.2301 15.8912 58.447 15.9477C58.6638 16.0043 58.909 16.0326 59.1258 16.0797C59.3427 16.1269 59.5973 16.1174 59.8141 16.1646C60.0498 16.2212 60.2855 16.2306 60.5024 16.2777C60.7475 16.3249 60.9738 16.372 61.1812 16.4097C61.4358 16.4569 61.6527 16.5511 61.8507 16.5889C62.2749 16.6643 62.2749 16.4474 62.5766 16.6171C62.8972 16.8057 62.652 16.9754 62.8878 17.362C63.0009 17.5506 63.2366 17.7203 63.3498 17.9748C63.4441 18.1917 63.5195 18.4368 63.5949 18.6914C63.6609 18.9271 63.642 19.1817 63.6797 19.4457C63.7175 19.6908 63.8023 19.936 63.7929 20.1905C63.7929 20.4357 63.6609 20.6619 63.6043 20.9259C63.5572 21.1428 63.51 21.3879 63.4535 21.6519C63.4063 21.8782 63.5195 22.1516 63.4723 22.4062C63.4346 22.6419 63.4158 22.8871 63.3686 23.1322C63.3309 23.3679 63.1801 23.5942 63.1423 23.8393C63.1046 24.0845 62.982 24.3107 62.9443 24.5559C62.9066 24.801 62.8972 25.0462 62.8595 25.2913C62.8218 25.5365 62.9538 25.8099 62.9255 26.0456C62.8972 26.2813 62.7086 26.517 62.6803 26.7621C62.6426 27.0167 62.6615 27.2713 62.6332 27.507C62.5955 27.7616 62.6049 28.0161 62.5766 28.2424C62.5483 28.5158 62.4069 28.7515 62.3881 28.9684C62.3598 29.2984 62.4541 29.553 62.4541 29.7132C62.4541 29.883 62.4446 30.147 62.4163 30.477C62.3975 30.7032 62.322 30.9484 62.2938 31.2312C62.2749 31.4669 62.2749 31.7309 62.2561 31.9949C62.2372 32.2401 62.1806 32.4946 62.1523 32.7492C62.1241 33.0038 62.0863 33.2583 62.0675 33.5129C62.0486 33.7675 61.9826 34.022 61.9732 34.2766C61.9638 34.5406 62.0392 34.7952 62.0392 35.0403C62.0392 35.3137 62.0675 35.5683 62.0769 35.804C62.0958 36.0963 62.0958 36.3509 62.1523 36.5489C62.2183 36.7846 62.2089 37.0486 62.2372 37.322C62.2655 37.5766 62.3598 37.8311 62.3598 38.0951C62.3598 38.3591 62.3504 38.6231 62.3221 38.8777C62.2938 39.1323 62.1712 39.3868 62.1146 39.632C62.0486 39.9054 62.0298 40.1694 61.9355 40.3957C61.8224 40.6691 61.6527 40.8577 61.4924 41.0179C61.3038 41.2065 61.0964 41.3762 60.8889 41.5554C60.6815 41.7345 60.4741 41.9136 60.2572 42.0645C60.0404 42.2154 59.8141 42.4039 59.5784 42.5171C59.3238 42.6491 59.0787 42.8282 58.8335 42.8753C58.6544 42.9131 58.3998 42.8282 58.1453 42.9131C57.9378 42.9791 57.7587 43.1582 57.5324 43.2336C57.3061 43.3091 57.1081 43.4033 56.9007 43.4788C56.665 43.5636 56.4576 43.6579 56.269 43.7333C55.8919 43.8748 55.9484 43.8936 55.609 43.9313C55.2319 43.9785 55.2225 43.9973 54.8359 44.0068C54.4493 44.0162 54.4493 43.8465 54.0628 43.8559C53.6762 43.8653 53.6762 43.8936 53.2896 43.8936C52.903 43.8936 52.903 43.9879 52.5165 43.9879C52.1299 43.9879 52.1299 43.8936 51.7434 43.8936C51.3945 43.8936 51.3945 43.8559 51.0362 43.8559C50.678 43.8559 50.678 44.0445 50.3291 44.0445C49.9802 44.0445 49.9802 43.9596 49.6314 43.9502C49.2825 43.9408 49.2825 44.0068 48.9337 44.0068C48.5848 44.0068 48.5848 43.969 48.2265 43.9596C47.8683 43.9502 47.8777 43.8653 47.5194 43.8559C47.1611 43.8465 47.1611 43.8559 46.8123 43.8559C46.4634 43.8559 46.454 43.9785 46.1051 43.9785C45.7563 43.9785 45.7469 43.9313 45.3886 43.9219C45.0303 43.9125 45.0303 43.9596 44.672 43.9596C44.3138 43.9596 44.3137 43.9408 43.9555 43.9313C43.5972 43.9219 43.5972 43.9502 43.2389 43.9408C42.8806 43.9313 42.8806 43.8276 42.5224 43.8276C42.1641 43.8276 42.1452 43.9785 41.7963 43.8653C41.4475 43.7522 41.5135 43.6579 41.2401 43.4505C40.9666 43.2431 40.9384 43.2713 40.6555 43.0545C40.3727 42.8376 40.3538 42.8659 40.0804 42.6585C39.8069 42.4511 39.8541 42.3756 39.5712 42.1682C39.2884 41.9608 39.2789 41.9796 38.9961 41.7628C38.7132 41.5459 38.7698 41.4799 38.487 41.2631C38.2041 41.0462 38.2041 41.0557 37.9213 40.8388C37.5913 40.5937 37.5441 40.6597 37.2141 40.4051C36.8841 40.1505 36.8464 40.2071 36.5164 39.9525C36.1864 39.698 36.0356 39.8017 35.8187 39.4434C35.6207 39.1228 35.8187 39.0285 35.7716 38.6608C35.7244 38.2931 35.7716 38.2837 35.7339 37.916C35.6961 37.5483 35.7622 37.5389 35.715 37.1711C35.6679 36.8034 35.5736 36.8129 35.5264 36.4357C35.4793 36.0586 35.4982 36.0586 35.451 35.6909C35.4039 35.3232 35.3567 35.3232 35.3002 34.9555C35.2436 34.5878 35.2813 34.5783 35.2624 34.2012L35.2059 34.1918Z" fill="#FFD400"/>
<g opacity="0.4">
<path d="M43.5881 35.8604C43.3995 35.8604 43.2204 35.7095 43.2204 35.521C43.2204 35.1627 43.2298 35.1627 43.2298 34.8044C43.2298 34.4461 43.2487 34.4461 43.2487 34.0878C43.2487 33.7296 43.2109 33.7296 43.2109 33.3619C43.2109 32.9942 43.2487 33.0036 43.2487 32.6359C43.2487 32.2682 43.2487 32.2776 43.2487 31.9099C43.2487 31.5422 43.2298 31.5516 43.2298 31.1839C43.2298 30.8162 43.2864 30.8256 43.2864 30.4579C43.2864 30.0902 43.2109 30.0902 43.2109 29.7319C43.2109 29.3736 43.2675 29.3736 43.2675 29.0059C43.2675 28.6382 43.2392 28.6476 43.2392 28.2799C43.2392 27.9122 43.2204 27.9122 43.2204 27.5539C43.2204 27.1957 43.2769 27.1862 43.2769 26.828C43.2769 26.4697 43.2392 26.4602 43.2392 26.102C43.2392 25.7437 43.2298 25.7437 43.2298 25.376C43.2298 25.0083 43.2487 25.0083 43.2487 24.65C43.2487 24.2917 43.2487 24.2823 43.2487 23.924C43.2487 23.5657 43.2392 23.5563 43.2392 23.1886C43.2392 22.8209 43.2581 22.8209 43.2581 22.4532C43.2581 22.2646 43.4184 22.0854 43.6069 22.0854C43.7955 22.0854 43.9369 22.2646 43.9369 22.4532C43.9369 22.8114 43.9652 22.8114 43.9652 23.1697C43.9652 23.528 43.9652 23.528 43.9652 23.8863C43.9652 24.2446 43.9181 24.2446 43.9181 24.6123C43.9181 24.98 43.9841 24.9705 43.9841 25.3383C43.9841 25.706 43.9558 25.6965 43.9558 26.0643C43.9558 26.432 43.9558 26.4225 43.9558 26.7902C43.9558 27.1579 43.9275 27.1485 43.9275 27.5162C43.9275 27.8839 44.0029 27.8839 44.0029 28.2422C44.0029 28.6005 43.9935 28.6005 43.9935 28.9682C43.9935 29.3359 43.9935 29.3265 43.9935 29.6942C43.9935 30.0619 43.9181 30.0619 43.9181 30.4202C43.9181 30.7785 43.9935 30.7879 43.9935 31.1462C43.9935 31.5045 43.9181 31.5139 43.9181 31.8722C43.9181 32.2304 43.9275 32.2305 43.9275 32.5982C43.9275 32.9659 43.9746 32.9659 43.9746 33.3241C43.9746 33.6824 43.9369 33.6919 43.9369 34.0501C43.9369 34.4084 43.9086 34.4178 43.9086 34.7856C43.9086 35.1533 43.9558 35.1533 43.9558 35.521C43.9558 35.7095 43.7955 35.8604 43.6069 35.8604H43.5881Z" fill="white"/>
<path d="M47.1236 36.115C46.935 36.115 46.803 35.9359 46.803 35.7473C46.803 35.3796 46.7559 35.3796 46.7559 35.0119C46.7559 34.6442 46.7559 34.6442 46.7559 34.2765C46.7559 33.9088 46.7841 33.9088 46.7841 33.5411C46.7841 33.1734 46.7653 33.1734 46.7653 32.8057C46.7653 32.4379 46.8219 32.4379 46.8219 32.0702C46.8219 31.7025 46.803 31.7025 46.803 31.3348C46.803 30.9671 46.803 30.9671 46.803 30.5994C46.803 30.2317 46.7936 30.2317 46.7936 29.864C46.7936 29.4963 46.7653 29.4963 46.7653 29.1286C46.7653 28.7609 46.8124 28.7609 46.8124 28.3931C46.8124 28.0254 46.8407 28.0254 46.8407 27.6577C46.8407 27.29 46.8407 27.29 46.8407 26.9223C46.8407 26.5546 46.7747 26.5546 46.7747 26.1869C46.7747 25.8192 46.803 25.8192 46.803 25.4515C46.803 25.0838 46.803 25.0838 46.803 24.7066C46.803 24.3295 46.8219 24.3389 46.8219 23.9618C46.8219 23.5846 46.8124 23.5941 46.8124 23.2169C46.8124 22.8398 46.8124 22.8492 46.8124 22.4721C46.8124 22.2835 46.9633 22.1421 47.1518 22.1421C47.3404 22.1421 47.529 22.2835 47.529 22.4721C47.529 22.8398 47.4913 22.8398 47.4913 23.2075C47.4913 23.5752 47.5007 23.5752 47.5007 23.9429C47.5007 24.3106 47.5007 24.3106 47.5007 24.6783C47.5007 25.0461 47.529 25.0461 47.529 25.4138C47.529 25.7815 47.4913 25.7815 47.4913 26.1492C47.4913 26.5169 47.5007 26.5169 47.5007 26.8846C47.5007 27.2523 47.5007 27.2523 47.5007 27.62C47.5007 27.9877 47.4724 27.9877 47.4724 28.3554C47.4724 28.7231 47.529 28.7231 47.529 29.0909C47.529 29.4586 47.4913 29.4586 47.4913 29.8263C47.4913 30.194 47.4913 30.194 47.4913 30.5617C47.4913 30.9294 47.463 30.9294 47.463 31.2971C47.463 31.6648 47.5101 31.6648 47.5101 32.0325C47.5101 32.4002 47.5007 32.4002 47.5007 32.7679C47.5007 33.1357 47.4913 33.1356 47.4913 33.5128C47.4913 33.8899 47.5101 33.8805 47.5101 34.2576C47.5101 34.6348 47.5101 34.6253 47.5101 35.0025C47.5101 35.3796 47.5196 35.3702 47.5196 35.7473C47.5196 35.9359 47.3498 36.115 47.1613 36.115H47.1236Z" fill="white"/>
<path d="M50.3009 22.1044C49.9332 22.1044 49.9332 22.095 49.5749 22.095C49.2166 22.095 49.2166 22.0479 48.8489 22.0479C48.4812 22.0479 48.4906 22.0479 48.1229 22.0479C47.7552 22.0479 47.7552 22.095 47.3969 22.095C47.0387 22.095 47.0292 22.0573 46.671 22.0573C46.3127 22.0573 46.3127 22.0573 45.945 22.0573C45.5772 22.0573 45.5867 22.095 45.219 22.095C44.8513 22.095 44.8513 22.1044 44.493 22.1044C44.1347 22.1044 44.1253 22.1044 43.767 22.1044C43.4087 22.1044 43.3993 22.1139 43.0316 22.1139C42.6639 22.1139 42.6639 22.0479 42.2961 22.0479C42.1076 22.0479 41.9756 22.227 41.9756 22.4156C41.9756 22.6041 42.1076 22.7644 42.2961 22.7644C42.6639 22.7644 42.6639 22.7173 43.0222 22.7173C43.3804 22.7173 43.3804 22.7833 43.7481 22.7833C44.1158 22.7833 44.1064 22.7833 44.4741 22.7833C44.8418 22.7833 44.8418 22.7833 45.2001 22.7833C45.5584 22.7833 45.5678 22.7833 45.9261 22.7833C46.2844 22.7833 46.2844 22.7361 46.6521 22.7361C47.0198 22.7361 47.0104 22.7361 47.3781 22.7361C47.7458 22.7361 47.7458 22.7361 48.1041 22.7361C48.4624 22.7361 48.4718 22.7361 48.8301 22.7361C49.1883 22.7361 49.1978 22.7267 49.5655 22.7267C49.9332 22.7267 49.9332 22.7738 50.3009 22.7738C50.5366 22.7738 50.7629 22.7738 50.9797 22.8304C51.1966 22.887 51.4229 22.9435 51.6303 23.0378C51.8377 23.1321 52.0169 23.283 52.196 23.4244C52.3752 23.5658 52.5072 23.745 52.6486 23.9241C52.79 24.1032 52.9597 24.2635 53.0634 24.4615C53.1672 24.6595 53.2143 24.8858 53.2709 25.1121C53.3274 25.3384 53.3368 25.5552 53.3368 25.7909C53.3368 26.0267 53.3086 26.2529 53.2614 26.4792C53.2143 26.7055 53.1483 26.9224 53.054 27.1392C52.9597 27.3561 52.8372 27.5446 52.7052 27.7332C52.5732 27.9218 52.4506 28.1198 52.2809 28.2706C52.1112 28.4215 51.9415 28.5818 51.7435 28.7043C51.5455 28.8269 51.3286 28.9023 51.1023 28.9683C50.876 29.0343 50.6498 29.0532 50.4141 29.0532C50.0369 29.0532 50.0369 29.0815 49.6692 29.0815C49.3015 29.0815 49.292 29.0815 48.9243 29.0815C48.5566 29.0815 48.5472 29.0343 48.1701 29.0343C47.7929 29.0343 47.7081 28.8175 47.4252 29.0626C47.1707 29.2889 47.1518 29.5246 47.3969 29.7509C47.6704 30.0055 47.7835 29.7226 48.1606 29.7226C48.5378 29.7226 48.5378 29.732 48.9055 29.732C49.2732 29.732 49.2826 29.732 49.6598 29.732C50.0369 29.732 50.0369 29.7037 50.4141 29.7037C50.6686 29.7037 50.9043 29.666 51.14 29.6095C51.3757 29.5529 51.6209 29.4869 51.8377 29.3832C52.0546 29.2795 52.262 29.138 52.46 28.9872C52.658 28.8363 52.856 28.6855 53.0163 28.5063C53.1766 28.3272 53.318 28.1198 53.45 27.9029C53.582 27.6861 53.6668 27.4598 53.7517 27.2241C53.8366 26.9884 53.9026 26.7621 53.9497 26.5169C53.9969 26.2718 54.0534 26.0267 54.0534 25.7815C54.0534 25.5364 54.0063 25.2912 53.9591 25.0555C53.912 24.8198 53.8554 24.5747 53.7611 24.3484C53.6669 24.1221 53.5443 23.9053 53.4123 23.6978C53.2803 23.4904 53.1011 23.3207 52.9314 23.151C52.7617 22.9813 52.5449 22.8587 52.3469 22.7267C52.1489 22.5947 51.9603 22.4156 51.734 22.3213C51.5077 22.227 51.2626 22.1987 51.0269 22.1516C50.7912 22.1044 50.5555 22.0856 50.3009 22.0856V22.1044Z" fill="white"/>
<path d="M53.2048 36.1152C53.0728 36.1152 52.9314 36.002 52.8748 35.8795C52.7239 35.5306 52.7334 35.5306 52.5825 35.1818C52.4317 34.8329 52.4411 34.8235 52.2902 34.4841C52.1394 34.1446 52.1394 34.1352 51.9885 33.7863C51.8377 33.4375 51.7905 33.4564 51.6397 33.1169C51.4888 32.7775 51.4982 32.7681 51.3474 32.4192C51.1965 32.0704 51.2342 32.0515 51.074 31.7121C50.9137 31.3727 50.9042 31.3727 50.744 31.0238C50.5837 30.675 50.5648 30.6844 50.414 30.3355C50.2631 29.9867 50.2726 29.9773 50.1217 29.6284C50.0463 29.4587 50.1217 29.223 50.282 29.1476C50.4517 29.0721 50.6874 29.1758 50.7534 29.3456C50.9042 29.6944 50.8665 29.7133 51.0174 30.0527C51.1682 30.3921 51.1871 30.3921 51.3474 30.741C51.5077 31.0898 51.5171 31.0804 51.6774 31.4292C51.8377 31.7781 51.8471 31.7687 51.9979 32.1175C52.1488 32.4664 52.1488 32.4664 52.3091 32.8058C52.4694 33.1452 52.4034 33.1829 52.5542 33.5318C52.7051 33.8806 52.7239 33.8712 52.8748 34.2201C53.0256 34.5689 53.0822 34.5406 53.2425 34.8895C53.4028 35.2383 53.3462 35.2572 53.5065 35.606C53.5819 35.7757 53.5159 35.9737 53.3462 36.0492C53.2991 36.068 53.2519 36.1152 53.2142 36.1152H53.2048Z" fill="white"/>
<path d="M42.4471 36.0865C42.6828 36.0111 42.928 36.03 43.1637 36.0017C43.3994 35.9734 43.6351 35.898 43.8708 35.898C44.1065 35.898 44.3516 35.8885 44.5874 35.898C44.8231 35.9074 45.0588 36.0017 45.2945 36.03C45.5302 36.0583 45.7659 36.1054 46.0016 36.1337C46.2373 36.162 46.4825 36.1902 46.7182 36.2091C46.9539 36.228 47.199 36.1808 47.4348 36.1808C47.6705 36.1808 47.9156 36.2185 48.1513 36.1997C48.387 36.1808 48.6322 36.1714 48.8679 36.1243C49.2922 36.03 49.1036 35.3228 48.6793 35.4171C48.4436 35.4737 48.2079 35.5208 47.9722 35.5397C47.7365 35.5585 47.4913 35.5397 47.2556 35.5397C47.0199 35.5397 46.7748 35.5208 46.539 35.4925C46.3033 35.4643 46.0582 35.502 45.8225 35.4737C45.5868 35.4454 45.3511 35.3888 45.1154 35.3605C44.8797 35.3323 44.6439 35.3134 44.3988 35.2945C44.1537 35.2757 43.9179 35.2568 43.6822 35.2568C43.4465 35.2568 43.2014 35.2568 42.9657 35.2945C42.7299 35.3323 42.4942 35.37 42.2585 35.4454C41.8437 35.5774 42.0417 36.2845 42.4565 36.1525C42.4754 36.1525 42.4283 36.0771 42.4283 36.0771L42.4471 36.0865Z" fill="white"/>
<path d="M42.5321 29.7134C42.7584 29.6285 42.9847 29.5814 43.211 29.5531C43.4372 29.5248 43.6729 29.4777 43.9086 29.4871C44.1444 29.4965 44.3707 29.5248 44.6064 29.5531C44.8421 29.5814 45.0684 29.6285 45.3041 29.6662C45.5398 29.7039 45.7661 29.7417 46.0018 29.7605C46.2375 29.7794 46.4638 29.7416 46.6995 29.7416C46.9352 29.7416 47.1709 29.7794 47.3972 29.7416C47.8309 29.6568 47.6423 28.9968 47.218 29.0817C46.9823 29.1288 46.7466 29.1288 46.5203 29.1288C46.2941 29.1288 46.0584 29.1005 45.8226 29.0722C45.5869 29.0439 45.3606 29.0251 45.1249 28.9968C44.8892 28.9685 44.6629 28.912 44.4272 28.8837C44.1915 28.8554 43.9558 28.8837 43.7201 28.8837C43.4844 28.8837 43.2581 28.8742 43.0224 28.9025C42.7867 28.9308 42.5698 28.9968 42.3436 29.0722C41.9381 29.2137 42.1173 29.9019 42.5321 29.7511L42.5227 29.7228L42.5321 29.7134Z" fill="white"/>
<path d="M51.9697 36.0775C52.2431 36.002 52.526 36.0492 52.7994 36.068C53.0728 36.0869 53.3557 36.0775 53.6291 36.0963C53.9025 36.1152 54.1665 36.1152 54.4399 36.0209C54.8453 35.87 54.6756 35.2289 54.2608 35.3703C53.9968 35.4646 53.7234 35.5118 53.4405 35.5023C53.1576 35.4929 52.8936 35.408 52.6108 35.3892C52.3279 35.3703 52.064 35.3986 51.8 35.474C51.3757 35.5872 51.5454 36.2 51.9697 36.0869V36.0775Z" fill="white"/>
<path d="M46.3033 29.468C46.2279 29.4869 46.1807 29.4869 46.1242 29.5246C46.0299 29.3831 45.8885 29.2511 45.6905 29.1663C45.4736 29.0626 45.1813 29.204 45.1908 29.4869C45.1342 29.4114 45.0211 29.3926 44.9362 29.336C44.8042 29.2606 44.6251 29.2606 44.5214 29.3643C44.4742 29.4114 44.4742 29.4586 44.4459 29.5057C44.3422 29.1851 43.7954 29.2229 43.7859 29.6283C43.7859 29.8829 43.7576 30.128 43.7671 30.3826C43.7765 30.6371 43.7859 30.8823 43.7859 31.1368C43.7859 31.3914 43.7954 31.6365 43.8048 31.8911C43.8142 32.1457 43.8048 32.3908 43.8048 32.6454C43.8048 32.9 43.8425 33.1451 43.8614 33.3997C43.8802 33.6542 43.8331 33.8994 43.8614 34.1539C43.8614 34.3048 43.9085 34.5499 43.9179 34.8139C43.9273 35.0402 43.9179 35.2853 44.0028 35.4739C44.0971 35.6813 44.2573 35.8511 44.5308 35.8416C44.8136 35.8322 44.955 35.6436 45.0305 35.4362C45.0776 35.5588 45.0965 35.7002 45.1719 35.8133C45.3039 36.0113 45.6433 36.0208 45.7659 35.7851C45.8036 35.7096 45.8696 35.6248 45.8979 35.5493C45.9639 35.6719 46.0582 35.7945 46.1807 35.8888C46.3976 36.0585 46.5956 35.9925 46.6993 35.7379C46.7747 35.5588 46.8973 35.4079 46.9256 35.2194C46.9539 35.0308 46.9444 34.8422 46.9444 34.6536C46.9633 34.4745 46.9822 34.2294 47.0104 33.9559C47.0293 33.7391 47.0387 33.5034 47.0576 33.2488C47.0765 33.0225 47.1047 32.7868 47.1142 32.5417C47.1236 32.2965 47.1613 32.0702 47.1707 31.8345C47.1802 31.5988 47.1424 31.3537 47.133 31.1274C47.1236 30.8728 47.1425 30.6277 47.1142 30.4203C47.067 30.1468 46.9916 29.9111 46.8973 29.7414C46.7653 29.4963 46.5767 29.4114 46.3128 29.4869L46.3033 29.468Z" fill="white"/>
</g>
<g opacity="0.78">
<path d="M31.5762 34.9743C31.7836 34.6726 31.8307 35.0025 32.3022 35.012C32.5096 35.012 32.7547 35.0308 33.0376 35.0308C33.2639 35.0308 33.509 34.9177 33.773 34.9083C33.9993 34.9083 34.2444 34.9365 34.5084 34.9271C34.7441 34.9271 34.9893 34.9554 35.2438 34.946C35.4796 34.9271 35.7247 34.946 35.9793 34.9177C36.215 34.8988 36.4695 34.9177 36.7147 34.8988C36.9598 34.88 37.1767 34.6914 37.4312 34.6631C37.6858 34.6348 37.9121 34.6348 38.1572 34.5971C38.4024 34.5594 38.6475 34.5971 38.8926 34.55C39.1378 34.5028 39.3829 34.5123 39.6281 34.4651C39.8732 34.418 40.0806 34.2388 40.3258 34.1917C40.5709 34.1446 40.8349 34.1917 41.0706 34.1351C41.3063 34.0786 41.5232 33.9277 41.7589 33.8617C41.9946 33.7957 42.2492 33.7863 42.4849 33.7109C42.7206 33.6354 42.928 33.494 43.1637 33.4091C43.3994 33.3243 43.6257 33.23 43.852 33.1451C44.0783 33.0603 44.314 32.9849 44.5403 32.8811C44.7666 32.7774 45.0494 32.7963 45.2663 32.6832C45.4831 32.57 45.6245 32.2966 45.8414 32.174C46.0583 32.0514 46.3411 31.9194 46.558 31.7969C46.6617 32.0137 46.6994 32.3437 46.8031 32.57C46.9068 32.7963 47.0199 33.0037 47.1237 33.2206C47.2274 33.4374 47.3594 33.6449 47.4631 33.8711C47.5668 34.0974 47.7177 34.286 47.8214 34.5123C47.9251 34.7386 48.0382 34.946 48.1419 35.1723C48.2457 35.3985 48.3022 35.6343 48.4154 35.8511C48.5285 36.068 48.6888 36.2565 48.8019 36.4828C48.9151 36.7091 48.9339 36.9637 49.0471 37.1805C49.1602 37.3974 49.3582 37.5671 49.4714 37.7839C49.5845 38.0008 49.6788 38.2271 49.7919 38.4439C49.9051 38.6608 50.0653 38.8493 50.1879 39.0662C50.3105 39.2831 50.4048 39.5093 50.5273 39.7168C50.6499 39.9242 50.7348 40.1693 50.8573 40.3768C50.9799 40.5842 51.1025 40.801 51.225 41.0179C51.3476 41.2347 51.4985 41.4233 51.6305 41.6402C51.7624 41.857 51.8473 42.0833 51.9793 42.2907C52.1113 42.4982 52.2056 42.7339 52.3376 42.9319C52.4696 43.1299 52.545 43.3844 52.677 43.5919C52.809 43.7993 52.9599 43.9973 53.1013 44.1953C53.2427 44.3933 53.4502 44.5536 53.5916 44.7516C53.733 44.9496 53.8556 45.1758 53.997 45.3644C54.1384 45.553 54.2798 45.7698 54.4307 45.9584C54.5816 46.147 54.7701 46.3261 54.921 46.5147C55.0718 46.7032 55.1944 46.9295 55.3453 47.1181C55.4961 47.3067 55.7318 47.4387 55.8921 47.6178C56.0524 47.7969 56.109 48.0892 56.2787 48.2684C56.4484 48.4475 56.7218 48.5324 56.8915 48.7021C57.0612 48.8718 57.2404 49.0509 57.4195 49.2112C57.6081 49.3809 57.7778 49.5601 57.9664 49.7109C58.1644 49.8712 58.3435 50.0409 58.5415 50.1729C58.7489 50.3143 59.0129 50.352 59.2204 50.4652C59.4466 50.5878 59.6352 50.7575 59.8521 50.8423C60.0878 50.9366 60.2386 50.9649 60.4743 51.012C60.3518 51.3609 60.2763 51.0875 59.8332 51.1723C59.6258 51.21 59.3806 51.2949 59.1072 51.3326C58.8809 51.3609 58.6264 51.2949 58.3624 51.3043C58.1267 51.3137 57.8721 51.474 57.6175 51.4646C57.3629 51.4552 57.1178 51.4457 56.8633 51.408C56.6087 51.3703 56.3824 51.2477 56.1372 51.1912C55.9675 51.1535 55.7318 51.0686 55.449 50.9649C55.251 50.8895 55.0341 50.7575 54.789 50.6538C54.5816 50.5595 54.3741 50.418 54.1384 50.3143C53.931 50.22 53.667 50.2012 53.4313 50.088C53.2144 49.9843 52.9976 49.89 52.7713 49.7769C52.5545 49.6732 52.3847 49.4752 52.1584 49.3621C51.9322 49.2489 51.6965 49.2018 51.4796 49.0886C51.2628 48.9755 51.093 48.7775 50.8762 48.6644C50.6593 48.5512 50.4048 48.5229 50.1879 48.4098C49.971 48.2966 49.7731 48.1552 49.5562 48.0421C49.3394 47.9289 49.1319 47.7875 48.9151 47.6744C48.6982 47.5612 48.4625 47.4669 48.2456 47.3538C48.0288 47.2407 47.7931 47.1464 47.5762 47.0332C47.3594 46.9201 47.1708 46.741 46.954 46.6278C46.7371 46.5147 46.4825 46.4581 46.2751 46.3355C46.0677 46.213 45.7943 46.1847 45.5868 46.0715C45.3794 45.9584 45.2191 45.7038 45.0117 45.5907C44.7854 45.4681 44.5026 45.487 44.2951 45.3738C44.0688 45.2513 43.9274 44.9967 43.72 44.8836C43.4843 44.7516 43.258 44.6667 43.06 44.5536C42.8149 44.4216 42.5792 44.3367 42.4 44.233C41.9946 44.0067 42.0229 44.1387 41.7306 43.9313C41.4383 43.7239 41.476 43.6767 41.1932 43.4693C40.9103 43.2619 40.9763 43.177 40.6935 42.9696C40.4106 42.7622 40.3918 42.781 40.1089 42.5736C39.826 42.3662 39.8261 42.3662 39.5432 42.1493C39.2604 41.9324 39.2792 41.9136 38.9963 41.7062C38.7135 41.4987 38.6569 41.5647 38.3835 41.3479C38.1101 41.131 38.1572 41.0556 37.8744 40.8482C37.5915 40.6408 37.5821 40.6408 37.2992 40.4333C37.0164 40.2259 37.0352 40.207 36.7524 39.9902C36.4695 39.7733 36.479 39.7639 36.1961 39.5471C35.9132 39.3302 35.8944 39.3585 35.6115 39.1511C35.3287 38.9436 35.2721 39.0096 34.9893 38.8022C34.7064 38.5948 34.7441 38.5382 34.4613 38.3214C34.1784 38.1045 34.1784 38.1139 33.8862 37.8971C33.5939 37.6802 33.6127 37.6614 33.3204 37.4539C33.0093 37.2277 33.0564 37.3502 32.7264 36.9825C32.585 36.8222 32.4719 36.5865 32.3116 36.3414C32.189 36.1528 32.0005 35.9642 31.8779 35.7097C31.7742 35.5023 31.6893 35.2665 31.5856 35.0025L31.5762 34.9743Z" fill="white"/>
</g>
<g opacity="0.57">
<path d="M35.8378 39.4058C35.6304 39.1418 36.1207 39.3964 36.5167 39.4247C36.7147 39.4436 36.941 39.4813 37.1861 39.4907C37.403 39.5001 37.6387 39.5284 37.865 39.5284C38.0912 39.5284 38.3269 39.4341 38.5344 39.4153C38.7984 39.3964 39.0435 39.4718 39.2132 39.4153C39.4018 39.3587 39.5904 39.4153 39.8355 39.5096C40.0335 39.585 40.3069 39.5378 40.5049 39.6698C40.6935 39.7924 40.7972 40.047 40.9669 40.1884C41.146 40.3393 41.3817 40.443 41.5232 40.5844C41.7306 40.8107 41.8815 41.037 41.9003 41.1595C41.9286 41.2915 41.9946 41.5084 42.0512 41.7535C42.0983 41.9515 42.0512 42.1872 42.0983 42.3852C42.1832 42.7247 42.4378 42.7058 42.3152 42.9886C42.1172 43.4506 42.1926 43.5732 41.7118 43.7429C41.3629 43.8655 41.4289 43.6298 41.1366 43.4035C40.8443 43.1772 40.8915 43.1206 40.5992 42.8944C40.3069 42.6681 40.3258 42.6398 40.0335 42.4229C39.7412 42.2061 39.6375 42.3287 39.3452 42.1118C39.0529 41.895 39.1566 41.7535 38.8549 41.5367C38.5532 41.3198 38.4684 41.4424 38.1761 41.2161C37.8838 40.9898 37.9498 40.8955 37.6575 40.6787C37.3653 40.4618 37.3841 40.4335 37.0824 40.2073C36.7807 39.981 36.7712 39.9904 36.4601 39.7924C36.149 39.5944 36.0641 39.6793 35.8378 39.387V39.4058Z" fill="#FFD400"/>
</g>
</svg>
