<svg width="86" height="97" viewBox="0 0 86 97" fill="none" xmlns="http://www.w3.org/2000/svg">
<path d="M37.3006 40.9622C37.3006 40.771 37.3689 40.5594 37.3689 40.3683C37.3689 40.1772 37.403 39.9861 37.4098 39.8018C37.4167 39.6175 37.3006 39.4195 37.3074 39.2284C37.3143 39.0373 37.2392 38.8461 37.246 38.6618C37.2528 38.4775 37.2187 38.2796 37.2255 38.0953C37.2323 37.911 37.4508 37.7267 37.4576 37.5355C37.4644 37.3444 37.3279 37.1533 37.3347 36.969C37.3416 36.7847 37.2665 36.5936 37.2733 36.4024C37.2801 36.2045 37.4986 36.0202 37.5054 35.8222C37.5122 35.6243 37.3689 35.4263 37.3825 35.2284C37.3962 35.0304 37.4712 34.8393 37.4781 34.6482C37.4849 34.457 37.4781 34.2591 37.4917 34.0611C37.5054 33.8632 37.6078 33.6721 37.6146 33.4809C37.6214 33.2898 37.4576 33.085 37.4644 32.8871C37.4713 32.6891 37.6897 32.5048 37.6965 32.3137C37.7033 32.1226 37.6419 31.9178 37.6487 31.7267C37.6556 31.5355 37.7306 31.3376 37.7375 31.1397C37.7443 30.9417 37.5941 30.7437 37.5941 30.5526C37.5941 30.3683 37.5941 30.184 37.5873 29.9929C37.5805 29.8018 37.6965 29.6175 37.6897 29.4332C37.6829 29.2489 37.6419 29.0646 37.6351 28.8734C37.6283 28.6823 37.6692 28.498 37.6556 28.3137C37.6419 28.1294 37.519 27.9519 37.4986 27.7676C37.4781 27.5833 37.56 27.3854 37.5395 27.2011C37.519 27.0031 37.3757 26.812 37.3552 26.6141C37.3347 26.4161 37.287 26.2181 37.2733 26.0134C37.2597 25.8086 37.3279 25.6107 37.3143 25.4059C37.3006 25.2011 37.403 25.0031 37.403 24.7984C37.403 24.5936 37.3484 24.4025 37.3484 24.1977C37.3484 23.9929 37.3484 23.7949 37.3484 23.597C37.3484 23.399 37.1846 23.1943 37.1846 22.9963C37.1846 22.7983 37.2051 22.5936 37.2119 22.3956C37.2187 22.1977 37.4167 21.9997 37.4235 21.8018C37.4303 21.6038 37.444 21.3991 37.4508 21.2011C37.4576 21.0031 37.4644 20.7984 37.4713 20.6004C37.4781 20.4025 37.444 20.1977 37.4508 19.9997C37.4576 19.8018 37.4303 19.597 37.4371 19.399C37.4439 19.2011 37.3074 18.9963 37.3074 18.7915C37.3074 18.5868 37.3279 18.3888 37.3347 18.1909C37.3347 17.9929 37.403 17.7881 37.4098 17.5902C37.4167 17.3922 37.4098 17.1874 37.4098 16.9895C37.4098 16.7915 37.4167 16.5868 37.4235 16.3888C37.4303 16.1909 37.5805 15.9929 37.5873 15.795C37.5941 15.597 37.4508 15.3922 37.4576 15.1943C37.4644 14.9963 37.4508 14.7915 37.4576 14.5936C37.4644 14.3956 37.5941 14.1977 37.5941 13.9929C37.5941 13.7881 37.4371 13.5902 37.4371 13.3922C37.4371 13.1943 37.4713 12.9963 37.4713 12.7915C37.4713 12.5868 37.5736 12.3888 37.5668 12.1909C37.56 11.9929 37.4917 11.795 37.4781 11.597C37.4644 11.3991 37.5736 11.1874 37.56 10.9895C37.5463 10.7915 37.3962 10.6004 37.3757 10.4025C37.3552 10.225 37.362 10.0475 37.3552 9.87688C37.3484 9.70624 37.3962 9.52875 37.403 9.35127C37.4098 9.1738 37.4371 9.00316 37.4508 8.82569C37.4644 8.64821 37.3552 8.46391 37.3757 8.29326C37.3962 8.12262 37.4098 7.94513 37.4303 7.76765C37.4508 7.5697 37.6624 7.39906 37.6829 7.20111C37.7033 7.00316 37.7102 6.80521 37.7306 6.60726C37.7511 6.40931 37.7716 6.21134 37.7921 6.02022C37.8126 5.82909 37.7921 5.62432 37.8194 5.42636C37.8467 5.22841 37.7648 5.01682 37.7989 4.81887C37.833 4.62092 37.9354 4.44344 37.9764 4.24549C38.0173 4.04754 38.031 3.84958 38.0788 3.65845C38.1265 3.46733 38.1197 3.25572 38.188 3.0646C38.2562 2.87347 38.3177 2.68234 38.3927 2.49803C38.4678 2.31373 38.7136 2.22502 38.8091 2.06802C38.9115 1.9042 39.048 1.8018 39.1846 1.67894C39.3211 1.55607 39.3416 1.25573 39.519 1.16699C39.676 1.09191 39.9013 1.09872 40.0992 1.05094C40.2972 1.00316 40.4815 0.907604 40.6726 0.866649C40.8638 0.825693 41.089 0.955383 41.287 0.928079C41.4849 0.900776 41.6692 0.757432 41.8672 0.736954C42.0651 0.716476 42.2699 0.76425 42.4678 0.750599C42.6658 0.736947 42.8569 0.641389 43.0617 0.627737C43.2665 0.614085 43.4576 0.545822 43.6556 0.538996C43.8535 0.532171 44.0583 0.579965 44.2562 0.573139C44.4542 0.566313 44.6521 0.539011 44.8569 0.532185C45.0617 0.525359 45.2596 0.696 45.4576 0.696C45.6555 0.696 45.8535 0.573139 46.0514 0.573139C46.2494 0.573139 46.4542 0.682349 46.6521 0.675523C46.8501 0.668697 47.048 0.559488 47.246 0.552662C47.4439 0.545836 47.6419 0.511701 47.8399 0.504875C48.031 0.498049 48.2221 0.593609 48.4132 0.586783C48.6044 0.579957 48.7886 0.429779 48.9798 0.429779C49.1709 0.429779 49.362 0.443444 49.5531 0.443444C49.7443 0.443444 49.9286 0.627737 50.1197 0.627737C50.3108 0.627737 50.4951 0.661872 50.6863 0.675523C50.8774 0.689175 51.0753 0.457081 51.2665 0.470733C51.4576 0.484385 51.6419 0.525345 51.833 0.538996C52.0241 0.552648 52.2084 0.661872 52.3927 0.675523C52.577 0.689175 52.7682 0.743779 52.9593 0.757431C53.1504 0.771083 53.3347 0.846164 53.5258 0.859816C53.717 0.873468 53.9218 0.702825 54.1061 0.716477C54.2904 0.730129 54.4815 0.757424 54.6726 0.771076C54.8637 0.784727 55.0412 0.928072 55.2323 0.941724C55.4235 0.955376 55.6214 0.83252 55.8125 0.846172C56.0037 0.859823 56.188 0.866641 56.3791 0.880293C56.5702 0.893945 56.7545 1.03048 56.9388 1.04413C57.1299 1.05096 57.3211 1.00999 57.5122 1.01682C57.7033 1.02365 57.8944 1.07825 58.0856 1.07825C58.2767 1.07825 58.4746 0.955375 58.6658 0.962201C58.8569 0.969027 59.0412 1.1465 59.2323 1.15333C59.4234 1.16015 59.6214 1.00316 59.8125 1.00999C60.0036 1.01681 60.1948 1.03047 60.3859 1.0373C60.577 1.04412 60.7682 1.05095 60.9593 1.05777C61.1504 1.0646 61.3415 1.15333 61.5327 1.16016C61.7238 1.16698 61.9149 1.18747 62.106 1.18747C62.2972 1.18747 62.4883 1.0919 62.6794 1.0919C62.8705 1.0919 63.0617 1.17382 63.2528 1.17382C63.4439 1.17382 63.635 1.167 63.8262 1.17382C64.0173 1.18065 64.2084 1.12602 64.3995 1.13285C64.5907 1.13967 64.7818 1.06459 64.9729 1.07142C65.164 1.07824 65.3552 1.13968 65.5463 1.13968C65.7374 1.13968 65.9286 1.20112 66.1129 1.20795C66.2972 1.21477 66.4951 1.08507 66.6862 1.0919C66.8774 1.09872 67.0617 1.21476 67.2528 1.22159C67.4439 1.22842 67.635 1.2489 67.8193 1.2489C68.0036 1.2489 68.2016 1.25572 68.3859 1.26254C68.5702 1.26937 68.7681 1.20795 68.9593 1.20795C69.1504 1.20795 69.3415 1.17382 69.5327 1.17382C69.7238 1.17382 69.9149 1.22843 70.0992 1.23525C70.2971 1.23525 70.4951 1.24891 70.6862 1.25573C70.8774 1.26256 71.0753 1.31034 71.2733 1.31716C71.4712 1.32399 71.6623 1.3786 71.8603 1.38543C72.0582 1.39225 72.2562 1.31034 72.4542 1.31716C72.6521 1.32399 72.8501 1.28986 73.0412 1.29669C73.2323 1.30351 73.4303 1.34446 73.6282 1.35128C73.8262 1.35811 74.0173 1.39907 74.2152 1.39907C74.4132 1.39907 74.6043 1.41955 74.8023 1.42638C75.0002 1.43321 75.1982 1.39908 75.3893 1.4059C75.5804 1.41273 75.7852 1.3786 75.9763 1.38543C76.1675 1.39225 76.3722 1.36493 76.5634 1.37176C76.7545 1.37859 76.9524 1.51511 77.1504 1.52193C77.3483 1.52876 77.5463 1.50829 77.7374 1.51512C77.9285 1.52195 78.1333 1.49463 78.3244 1.50146C78.5156 1.50828 78.7135 1.65845 78.9046 1.6721C79.0958 1.68576 79.2937 1.69259 79.4917 1.69941C79.6896 1.70624 79.8876 1.55607 80.0855 1.56972C80.2835 1.58337 80.461 1.73353 80.6589 1.75401C80.8569 1.77449 81.0412 1.7745 81.2323 1.82911C81.4234 1.88371 81.6009 1.92466 81.7784 2.0134C81.9558 2.10214 82.1743 2.10897 82.3381 2.23867C82.5224 2.38884 82.8091 2.36835 83.0753 2.42296C83.2869 2.46392 83.4848 2.53218 83.6623 2.60044C83.8603 2.67553 83.99 2.85981 84.1538 2.96903C84.3244 3.07824 84.4337 3.24207 84.5633 3.38542C84.693 3.52876 84.8432 3.65163 84.9388 3.8291C85.0343 3.99975 85.164 4.15674 85.2255 4.35469C85.2801 4.53899 85.3961 4.73012 85.4234 4.9349C85.4507 5.12602 85.4439 5.31715 85.4644 5.50827C85.4849 5.6994 85.5053 5.89052 85.5258 6.08165C85.5463 6.27277 85.4985 6.47073 85.519 6.66186C85.5395 6.85298 85.4712 7.05094 85.4849 7.24206C85.4985 7.43319 85.6077 7.61748 85.6214 7.80861C85.635 7.99973 85.5941 8.19088 85.6009 8.382C85.6077 8.57313 85.7579 8.75742 85.7715 8.94855C85.7852 9.13967 85.676 9.33763 85.6828 9.52876C85.6896 9.71988 85.8193 9.90417 85.8193 10.0953C85.8193 10.2864 85.8739 10.4775 85.8807 10.6687C85.8876 10.8598 85.7511 11.0509 85.7511 11.2489C85.7511 11.4468 85.9081 11.6311 85.9081 11.8223C85.9081 12.0134 85.7511 12.2045 85.7511 12.3956C85.7511 12.5868 85.8603 12.7779 85.8603 12.969C85.8603 13.1602 85.8261 13.3513 85.8261 13.5424C85.8261 13.7335 85.6896 13.9247 85.6896 14.1158C85.6896 14.3069 85.7579 14.498 85.7579 14.6892C85.7579 14.8803 85.7852 15.0714 85.7852 15.2625C85.7852 15.4537 85.8125 15.6448 85.8057 15.8359C85.7988 16.027 85.7442 16.2182 85.7374 16.4093C85.7306 16.6004 85.792 16.7915 85.7852 16.9827C85.7852 17.1738 85.6487 17.3649 85.6418 17.5629C85.635 17.7608 85.7306 17.952 85.7238 18.1431C85.7169 18.3342 85.7306 18.5322 85.7238 18.7233C85.7169 18.9144 85.5668 19.1055 85.5599 19.2967C85.5531 19.4878 85.6828 19.6857 85.676 19.8837C85.6692 20.0816 85.6145 20.2659 85.6077 20.4639C85.6009 20.6618 85.6077 20.853 85.6009 21.0441C85.5941 21.2352 85.5258 21.4264 85.5121 21.6243C85.4985 21.8223 85.5463 22.0134 85.5395 22.2045C85.5326 22.3956 85.5258 22.5936 85.519 22.7847C85.5121 22.9758 85.4029 23.167 85.3961 23.3581C85.3893 23.5492 85.3961 23.7472 85.3893 23.9383C85.3825 24.1294 85.4439 24.3274 85.4371 24.5253C85.4302 24.7233 85.4371 24.9144 85.4371 25.1055C85.4371 25.2967 85.3825 25.4878 85.3756 25.6857C85.3688 25.8837 85.4166 26.0816 85.4029 26.2796C85.3893 26.4775 85.4439 26.6755 85.4371 26.8734C85.4302 27.0714 85.362 27.2625 85.3552 27.4605C85.3483 27.6584 85.2118 27.8496 85.205 28.0475C85.1982 28.2455 85.3142 28.4502 85.3005 28.6482C85.2869 28.8461 85.321 29.0441 85.3142 29.242C85.3074 29.44 85.2459 29.6311 85.2323 29.8291C85.2186 30.027 85.1572 30.2182 85.1436 30.4161C85.1299 30.6141 85.2118 30.812 85.1982 31.01C85.1845 31.2079 85.0821 31.399 85.0753 31.597C85.0685 31.7949 85.1163 31.9929 85.1026 32.1908C85.089 32.3888 85.1777 32.5936 85.1708 32.7847C85.164 32.9758 85.0821 33.1738 85.0685 33.3717C85.0548 33.5697 85.0138 33.7676 85.0002 33.9588C84.9865 34.1499 84.9456 34.3547 84.932 34.5458C84.9183 34.7369 84.9661 34.9417 84.9592 35.1396C84.9524 35.3376 84.8432 35.5287 84.8296 35.7267C84.8159 35.9246 84.9388 36.1294 84.932 36.3274C84.9251 36.5253 84.9319 36.7233 84.9183 36.9212C84.9046 37.1192 84.7272 37.3103 84.7204 37.5082C84.7135 37.7198 84.7067 37.9315 84.6999 38.1362C84.693 38.341 84.8296 38.5594 84.8296 38.771C84.8296 38.9826 84.7477 39.1874 84.7408 39.399C84.734 39.6106 84.8364 39.8222 84.8296 40.027C84.8227 40.2318 84.7476 40.4434 84.7476 40.655C84.7476 40.8461 84.7613 41.0372 84.7613 41.2352C84.7613 41.4331 84.7954 41.6174 84.7886 41.8154C84.7818 42.0133 84.8159 42.1977 84.8159 42.3956C84.8159 42.5936 84.6179 42.7779 84.6179 42.969C84.6179 43.1601 84.6999 43.3581 84.6999 43.5492C84.6999 43.7403 84.7272 43.9314 84.7272 44.1294C84.7272 44.3273 84.6589 44.5116 84.6521 44.7028C84.6453 44.8939 84.7477 45.0919 84.7408 45.283C84.734 45.4741 84.6862 45.6652 84.6794 45.8564C84.6726 46.0475 84.536 46.2386 84.536 46.4297C84.536 46.6209 84.6043 46.8188 84.5975 47.0099C84.5906 47.2011 84.6179 47.3922 84.6179 47.5901C84.6179 47.7881 84.4678 47.9724 84.461 48.1635C84.4541 48.3546 84.4405 48.5458 84.4405 48.7369C84.4405 48.928 84.6384 49.126 84.6384 49.3171C84.6384 49.5082 84.5975 49.6994 84.5907 49.8905C84.5907 50.0884 84.6043 50.2864 84.5975 50.4775C84.5906 50.6686 84.5702 50.8666 84.5633 51.0645C84.5565 51.2625 84.5907 51.4604 84.5907 51.6516C84.5907 51.8427 84.4814 52.0407 84.4814 52.2386C84.4814 52.4366 84.5497 52.6345 84.5429 52.8325C84.536 53.0304 84.4405 53.2215 84.4337 53.4195C84.4268 53.6174 84.461 53.8154 84.4541 54.0065C84.4473 54.1976 84.4883 54.4024 84.4814 54.6004C84.4746 54.7983 84.4951 54.9963 84.4814 55.1942C84.4678 55.3922 84.2971 55.5765 84.2835 55.7676C84.2698 55.9587 84.3108 56.1635 84.2835 56.3615C84.263 56.5594 84.2289 56.7574 84.2152 56.9553C84.2016 57.1533 84.106 57.3512 84.0992 57.5492C84.0924 57.7471 84.2562 57.9519 84.2562 58.1567C84.2562 58.3615 84.1606 58.5526 84.1606 58.7505C84.1606 58.9485 84.1743 59.1464 84.1743 59.3512C84.1743 59.556 84.2425 59.7471 84.2494 59.9451C84.2562 60.143 84.1538 60.3478 84.1606 60.5457C84.1674 60.7437 84.2289 60.9417 84.2357 61.1396C84.2425 61.3376 84.2971 61.5355 84.304 61.7335C84.3108 61.9314 84.3654 62.1294 84.3654 62.3273C84.3654 62.5253 84.1743 62.73 84.1811 62.928C84.1879 63.1259 84.3244 63.3239 84.3244 63.5219C84.3244 63.7266 84.3722 63.9246 84.3722 64.1294C84.3722 64.3341 84.3176 64.5321 84.3176 64.7369C84.3176 64.9417 84.3176 65.1396 84.3176 65.3444C84.3176 65.5492 84.3176 65.7471 84.3108 65.9519C84.304 66.1567 84.2152 66.3546 84.2152 66.5594C84.2152 66.7642 84.304 66.9621 84.304 67.1669C84.304 67.3717 84.3654 67.5696 84.3654 67.7744C84.3654 67.9792 84.2221 68.1771 84.2221 68.3819C84.2221 68.5867 84.2221 68.7846 84.2221 68.9894C84.2221 69.1942 84.2835 69.3922 84.2835 69.5969C84.2835 69.8017 84.2494 69.9997 84.2494 70.2044C84.2494 70.4092 84.3313 70.6072 84.3313 70.812C84.3313 71.0167 84.2221 71.2215 84.2289 71.4194C84.2357 71.6174 84.3518 71.8222 84.3586 72.0201C84.3654 72.2181 84.3244 72.4297 84.3381 72.6277C84.3518 72.8256 84.3995 73.0304 84.4063 73.2352C84.4132 73.4399 84.4268 73.6379 84.4337 73.8427C84.4405 74.0474 84.3313 74.2522 84.3313 74.4502C84.3313 74.6481 84.304 74.8529 84.2971 75.0577C84.2971 75.2488 84.3722 75.4467 84.3654 75.6447C84.3586 75.8427 84.3927 76.0338 84.3927 76.2249C84.3927 76.416 84.42 76.614 84.42 76.8051C84.42 76.9962 84.2903 77.1942 84.2835 77.3853C84.2767 77.5765 84.4132 77.7744 84.4132 77.9723C84.4132 78.1703 84.2971 78.3614 84.2971 78.5526C84.2971 78.7437 84.2835 78.9416 84.2835 79.1328C84.2835 79.3239 84.3791 79.5218 84.3722 79.7198C84.3654 79.9177 84.3449 80.1089 84.3381 80.3C84.3313 80.4911 84.1811 80.6823 84.1743 80.8802C84.1674 81.0781 84.3244 81.2693 84.3176 81.4672C84.3108 81.6652 84.2494 81.8563 84.2425 82.0474C84.2357 82.2386 84.3381 82.4365 84.3313 82.6345C84.3244 82.8324 84.1128 83.0167 84.1128 83.2078C84.1128 83.399 84.1948 83.5969 84.1879 83.7949C84.1811 83.9928 84.2289 84.184 84.2221 84.3819C84.2152 84.573 84.0378 84.7573 84.0309 84.9416C84.0241 85.1259 84.1674 85.3307 84.1606 85.515C84.1538 85.6993 84.0104 85.8904 84.0036 86.0816C83.9968 86.2727 84.0855 86.4638 84.0719 86.6549C84.0582 86.8461 83.9763 87.0304 83.9627 87.2215C83.949 87.4126 83.9763 87.6037 83.9627 87.7949C83.949 87.986 84.0036 88.1771 83.99 88.3682C83.9763 88.5594 83.833 88.7368 83.8193 88.928C83.8057 89.1191 83.9081 89.317 83.8876 89.5082C83.8671 89.6993 83.7511 89.8768 83.7306 90.0611C83.7101 90.2454 83.7238 90.4433 83.6965 90.6276C83.6692 90.8188 83.7033 91.0167 83.6623 91.201C83.6214 91.3853 83.5395 91.5628 83.4849 91.7471C83.4303 91.9314 83.4576 92.143 83.3961 92.3205C83.3347 92.4979 83.2459 92.6754 83.1777 92.8529C83.1094 93.0304 82.9456 93.1737 82.8773 93.3512C82.8091 93.5286 82.6862 93.6856 82.6111 93.8631C82.5292 94.0542 82.3859 94.1908 82.1811 94.3409C81.9763 94.4911 81.8125 94.6549 81.6145 94.7232C81.4371 94.7778 81.2391 94.7914 81.0616 94.846C80.8842 94.9007 80.6999 94.9553 80.5224 95.0099C80.3449 95.0645 80.1811 95.1942 80.0036 95.2488C79.8262 95.3034 79.6623 95.4399 79.478 95.4877C79.2937 95.5355 79.0685 95.4058 78.8842 95.4467C78.6999 95.4877 78.5292 95.5764 78.3381 95.6037C78.147 95.631 77.9763 95.7675 77.792 95.788C77.6077 95.8085 77.4029 95.7129 77.2186 95.7266C77.0343 95.7402 76.8432 95.7266 76.6521 95.7266C76.461 95.7266 76.2767 95.788 76.0855 95.7812C75.9012 95.7675 75.7238 95.8358 75.5395 95.8426C75.3552 95.8494 75.1777 95.8085 74.9934 95.8222C74.8091 95.8358 74.6385 95.9246 74.4541 95.945C74.2698 95.9655 74.0855 95.9723 73.9081 95.986C73.7306 95.9996 73.5395 95.8153 73.3552 95.8153C73.1572 95.8153 72.9593 96.0133 72.7613 96.0133C72.5634 96.0133 72.3654 95.8904 72.1675 95.8972C71.9695 95.9041 71.7716 95.8768 71.5736 95.8768C71.3757 95.8768 71.1777 95.9314 70.9798 95.9314C70.7818 95.9314 70.5839 96.0065 70.3859 96.0065C70.188 96.0065 69.99 95.8973 69.792 95.9041C69.5941 95.9109 69.3961 95.9382 69.1982 95.9382C69.0002 95.9382 68.8023 95.9723 68.6043 95.9723C68.4064 95.9723 68.2084 95.986 68.0105 95.986C67.8125 95.986 67.6146 96.0338 67.4166 96.0338C67.2187 96.0338 67.0207 95.9314 66.8228 95.9314C66.6248 95.9314 66.4268 95.8972 66.2289 95.8972C66.0309 95.8972 65.833 95.9723 65.635 95.9723C65.4371 95.9723 65.2391 95.945 65.0412 95.945C64.8432 95.945 64.6453 95.8972 64.4473 95.8972C64.2494 95.8972 64.0514 95.9314 63.8535 95.9314C63.6555 95.9314 63.4576 96.0269 63.2596 96.0201C63.0617 96.0133 62.8637 96.0201 62.6658 96.0201C62.4678 96.0201 62.2699 95.8972 62.0719 95.8972C61.8739 95.8972 61.676 95.8836 61.478 95.8836C61.2801 95.8836 61.0821 95.9996 60.8842 95.9996C60.6862 95.9996 60.4883 96.0201 60.2903 96.0133C60.0924 96.0064 59.8944 95.9996 59.6965 95.9928C59.4985 95.986 59.3006 95.8426 59.1026 95.8358C58.9183 95.8358 58.734 95.9177 58.5497 95.9109C58.3654 95.9041 58.1811 95.9041 57.9968 95.8972C57.8125 95.8904 57.6282 95.8699 57.4439 95.8699C57.2596 95.8699 57.0753 95.8426 56.891 95.8426C56.7067 95.8426 56.5224 95.8153 56.3381 95.8153C56.1538 95.8153 55.9695 95.7539 55.7852 95.7539C55.6009 95.7539 55.4235 95.9041 55.2323 95.9109C55.0412 95.9177 54.8569 95.8768 54.6726 95.8904C54.4883 95.9041 54.3108 95.8085 54.1265 95.8017C53.9422 95.7948 53.7511 96.0201 53.5736 96.0065C53.3962 95.9928 53.2255 95.7607 53.048 95.7471C52.8705 95.7334 52.6794 95.8085 52.4951 95.8017C52.3108 95.7948 52.1334 95.8563 51.9559 95.8699C51.7579 95.8836 51.56 95.9382 51.362 95.9518C51.1641 95.9655 50.9593 95.8358 50.7614 95.8495C50.5634 95.8631 50.3654 95.8426 50.1675 95.8495C49.9695 95.8563 49.7784 96.0474 49.5805 96.0474C49.3825 96.0474 49.1777 95.8563 48.9798 95.8563C48.7818 95.8563 48.5907 96.0133 48.3928 96.0133C48.1948 96.0133 47.9968 95.9314 47.7989 95.9314C47.6009 95.9314 47.4098 96.102 47.2119 96.102C47.0139 96.102 46.816 95.9792 46.618 95.986C46.4201 95.9928 46.2221 96.0815 46.0242 96.0884C45.8262 96.0952 45.6283 96.0406 45.4303 96.0406C45.2323 96.0406 45.0344 96.1361 44.8433 96.143C44.6521 96.1498 44.4474 96.0884 44.2494 96.0952C44.0515 96.102 43.8535 96.0133 43.6556 96.0201C43.4576 96.0269 43.2665 96.102 43.0685 96.1088C42.8706 96.1157 42.6794 96.1839 42.4815 96.1908C42.2835 96.1976 42.0924 96.259 41.8945 96.2727C41.6965 96.2863 41.4986 96.2727 41.3006 96.2863C41.1026 96.3 40.9047 96.2522 40.7067 96.2659C40.5088 96.2795 40.3108 96.2454 40.1129 96.2659C39.9149 96.2863 39.7102 96.2522 39.519 96.2795C39.3279 96.3 39.1504 96.3546 38.9593 96.3682C38.7682 96.3819 38.5839 96.3614 38.3927 96.3682C38.2016 96.3751 38.0173 96.5457 37.8262 96.5457C37.6351 96.5457 37.444 96.4229 37.2597 96.416C37.0754 96.4092 36.8774 96.5457 36.6863 96.5457C36.4951 96.5457 36.304 96.5525 36.1197 96.5457C35.9354 96.5389 35.7443 96.4775 35.5532 96.4775C35.3621 96.4775 35.1709 96.4024 34.9866 96.4024C34.8364 96.4024 34.6795 96.4501 34.5293 96.4433C34.3791 96.4365 34.2289 96.4774 34.0788 96.4911C33.8808 96.5048 33.676 96.4979 33.4781 96.5047C33.2801 96.5116 33.0754 96.5047 32.8774 96.5047C32.6795 96.5047 32.4747 96.4228 32.2767 96.4228C32.0788 96.4228 31.874 96.4229 31.676 96.416C31.4781 96.4092 31.2665 96.5662 31.0685 96.5594C30.8706 96.5525 30.6658 96.5457 30.4679 96.5321C30.2699 96.5184 30.0788 96.3 29.8808 96.2863C29.6829 96.2727 29.4849 96.259 29.2801 96.2385C29.0754 96.2181 28.8638 96.3955 28.6658 96.375C28.4678 96.3546 28.2836 96.1976 28.0788 96.1771C27.874 96.1566 27.6692 96.2181 27.4713 96.1908C27.2733 96.1635 27.0617 96.2112 26.8638 96.1908C26.6658 96.1703 26.4952 95.9382 26.2972 95.9109C26.0992 95.8836 25.9013 95.8494 25.7033 95.8222C25.5054 95.7948 25.2801 95.9245 25.0822 95.8972C24.8842 95.8699 24.6999 95.7334 24.502 95.7061C24.304 95.6788 24.0993 95.7266 23.9013 95.6993C23.7034 95.672 23.5327 95.474 23.3347 95.4467C23.1368 95.4194 22.9184 95.5423 22.7204 95.5218C22.5225 95.5013 22.3177 95.5355 22.1197 95.5082C21.9218 95.4809 21.7238 95.4809 21.5259 95.4604C21.3279 95.4399 21.1436 95.2624 20.9457 95.242C20.7477 95.2215 20.5361 95.3239 20.3382 95.3034C20.1402 95.2829 19.9559 95.0713 19.758 95.0576C19.56 95.044 19.3416 95.2283 19.1436 95.2147C18.9457 95.201 18.7477 95.1396 18.5498 95.1259C18.3518 95.1123 18.1471 95.16 17.9491 95.1464C17.7512 95.1327 17.5668 94.9484 17.3621 94.9348C17.1573 94.9211 16.9662 94.9416 16.7614 94.9348C16.5566 94.928 16.3655 94.8802 16.1675 94.8665C15.9696 94.8529 15.7716 94.8597 15.5737 94.846C15.3757 94.8324 15.1709 94.9689 14.973 94.9621C14.775 94.9553 14.5771 94.9757 14.3723 94.9621C14.1675 94.9484 13.9764 94.8529 13.7784 94.846C13.5805 94.8392 13.3825 94.771 13.1846 94.7641C12.9866 94.7573 12.7955 94.7368 12.5976 94.7232C12.3996 94.7095 12.2017 94.7368 12.0105 94.7232C11.8194 94.7095 11.6146 94.7232 11.4235 94.7095C11.2324 94.6959 11.0276 94.7095 10.8297 94.6891C10.6317 94.6686 10.4406 94.614 10.2495 94.5867C10.0583 94.5594 9.88084 94.3887 9.68289 94.3614C9.48494 94.3341 9.28699 94.3751 9.08904 94.3478C8.89108 94.3205 8.67948 94.416 8.48835 94.3887C8.29723 94.3614 8.11976 94.2249 7.92181 94.1908C7.72386 94.1566 7.5532 94.0201 7.36208 93.986C7.17095 93.9518 6.96618 93.9587 6.77506 93.9177C6.59758 93.8836 6.42011 93.8358 6.24264 93.788C6.06516 93.7403 5.85355 93.8017 5.6829 93.7402C5.51226 93.6788 5.37573 93.5013 5.20508 93.4331C5.03443 93.3648 4.82966 93.3921 4.65902 93.317C4.48837 93.242 4.36549 93.085 4.20167 93.0031C4.03785 92.9212 3.86038 92.8665 3.69656 92.7846C3.53273 92.7027 3.43036 92.5116 3.28018 92.416C3.11636 92.3205 2.94571 92.259 2.80919 92.143C2.67268 92.0269 2.45424 91.9655 2.3382 91.829C2.22216 91.6925 2.23581 91.4467 2.14025 91.2897C2.04468 91.1327 1.96959 90.9758 1.8945 90.8051C1.81942 90.6345 1.66926 90.4979 1.61466 90.3204C1.56005 90.143 1.54638 89.9587 1.51225 89.7744C1.47812 89.5901 1.45765 89.4126 1.43034 89.2215C1.40304 89.0304 1.27335 88.8597 1.25969 88.6754C1.24604 88.4843 1.21875 88.3 1.2051 88.1089C1.19144 87.9177 1.34162 87.7198 1.33479 87.5355C1.32796 87.3512 1.31431 87.16 1.30748 86.9689C1.30066 86.7778 1.20509 86.5935 1.19826 86.4024C1.19144 86.2113 1.287 86.0201 1.28017 85.829C1.27335 85.6379 1.08906 85.4536 1.08223 85.2693C1.07541 85.085 1.14367 84.887 1.14367 84.6959C1.14367 84.5048 1.27336 84.3136 1.27336 84.1225C1.27336 83.9314 1.21192 83.7471 1.2051 83.556C1.19827 83.3648 1.04809 83.1805 1.04126 82.9894C1.03443 82.7983 1.18462 82.6072 1.18462 82.416C1.18462 82.2249 1.18462 82.0338 1.18462 81.8495C1.18462 81.6652 1.19827 81.4672 1.18462 81.2829C1.17779 81.085 1.0208 80.8938 1.01397 80.7027C1.00715 80.5116 1.02762 80.3068 1.01397 80.1157C1.00032 79.9246 0.925224 79.7266 0.918398 79.5287C0.911572 79.3307 0.863793 79.1396 0.856967 78.9416C0.850141 78.7437 0.925224 78.5457 0.918398 78.3478C0.911572 78.1498 0.891096 77.9587 0.877444 77.7607C0.863792 77.5628 0.816021 77.3717 0.802369 77.1737C0.788717 76.9758 0.768234 76.7846 0.754583 76.5867C0.740931 76.3887 0.904747 76.184 0.897921 75.9928C0.891095 75.8017 0.884263 75.5969 0.870612 75.4058C0.85696 75.2147 0.781885 75.0167 0.775059 74.8188C0.768234 74.6208 0.699978 74.4297 0.693152 74.2318C0.686326 74.0338 0.829672 73.8358 0.822846 73.6379C0.81602 73.4399 0.740931 73.2488 0.734106 73.0509C0.72728 72.8529 0.577116 72.6618 0.57029 72.4638C0.563464 72.2659 0.727287 72.0679 0.720461 71.87C0.720461 71.6788 0.597593 71.4877 0.590767 71.2898C0.583941 71.0918 0.583928 70.9007 0.577102 70.7096C0.570276 70.5184 0.713622 70.3205 0.706796 70.1225C0.69997 69.9246 0.631721 69.7334 0.631721 69.5423C0.631721 69.3512 0.481549 69.1601 0.481549 68.9621C0.481549 68.7642 0.699978 68.573 0.693152 68.3751C0.686326 68.1771 0.659024 67.986 0.652198 67.7949C0.645372 67.6038 0.556625 67.4058 0.556625 67.2147C0.556625 67.0236 0.461073 66.8256 0.461073 66.6345C0.461073 66.4434 0.604411 66.2454 0.604411 66.0543C0.604411 65.8632 0.495187 65.6652 0.488361 65.4741C0.481535 65.2829 0.65901 65.085 0.65901 64.8939C0.65901 64.7027 0.590767 64.5048 0.590767 64.3137C0.590767 64.1226 0.590767 63.9246 0.590767 63.7335C0.590767 63.5423 0.604411 63.3444 0.604411 63.1533C0.604411 62.9621 0.495194 62.7642 0.495194 62.5731C0.495194 62.3819 0.495194 62.184 0.495194 61.9928C0.495194 61.8017 0.556625 61.6038 0.556625 61.4127C0.556625 61.2215 0.604411 61.0236 0.604411 60.8324C0.604411 60.6413 0.611244 60.4502 0.611244 60.2591C0.611244 60.0679 0.461073 59.8768 0.461073 59.6857C0.461073 59.4945 0.549813 59.3034 0.549813 59.1123C0.549813 58.9212 0.590767 58.73 0.590767 58.5389C0.590767 58.3478 0.583928 58.1567 0.577102 57.9655C0.570276 57.7744 0.624888 57.5833 0.624888 57.3922C0.624888 57.201 0.45424 57.0099 0.45424 56.8188C0.45424 56.6277 0.604411 56.4365 0.604411 56.2454C0.604411 56.0543 0.440596 55.8632 0.440596 55.672C0.440596 55.4809 0.577102 55.2898 0.577102 55.0987C0.577102 54.9075 0.536148 54.7164 0.536148 54.5253C0.536148 54.3341 0.522503 54.143 0.522503 53.9519C0.522503 53.7608 0.54298 53.5696 0.54298 53.3785C0.54298 53.1874 0.54298 52.9963 0.54298 52.8051C0.54298 52.614 0.618056 52.4229 0.618056 52.2318C0.618056 52.0406 0.529315 51.8495 0.529315 51.6584C0.529315 51.4673 0.57029 51.2761 0.57029 51.085C0.57029 50.8939 0.508838 50.7028 0.508838 50.5116C0.508838 50.3205 0.536148 50.1294 0.536148 49.9382C0.536148 49.7471 0.597579 49.556 0.597579 49.3649C0.597579 49.1737 0.583934 48.9826 0.583934 48.7915C0.583934 48.6004 0.502026 48.4092 0.502026 48.2181C0.502026 48.027 0.57029 47.8359 0.57029 47.6447C0.57029 47.4536 0.508838 47.2625 0.508838 47.0714C0.508838 46.8802 0.57029 46.6891 0.57029 46.498C0.57029 46.3069 0.618056 46.1157 0.618056 45.9246C0.618056 45.8222 0.420104 45.713 0.42693 45.6106C0.440582 45.4331 0.515671 45.2488 0.515671 45.0577C0.515671 44.8666 0.618069 44.6755 0.631721 44.498C0.652199 44.2864 0.659019 44.1157 0.775059 43.9997C0.92523 43.8495 1.06176 43.6721 1.23241 43.5355C1.40305 43.399 1.63513 43.3649 1.81943 43.242C2.00373 43.1191 2.16071 42.9895 2.36549 42.9007C2.57027 42.812 2.76824 42.7847 2.97984 42.7301C3.17097 42.6823 3.36209 42.6277 3.55322 42.5867C3.74434 42.5458 3.90816 42.341 4.10612 42.3001C4.30407 42.2591 4.51566 42.341 4.71361 42.3069C4.91157 42.2727 5.09587 42.1772 5.29382 42.1499C5.49177 42.1226 5.69655 42.1908 5.89451 42.1704C6.09246 42.1499 6.27676 41.9792 6.47472 41.9656C6.67267 41.9519 6.88427 42.1362 7.08904 42.1226C7.29382 42.1089 7.47811 41.9178 7.67606 41.9041C7.87402 41.8905 8.0788 41.9656 8.27675 41.9588C8.4747 41.9519 8.67948 42.0338 8.87743 42.027C9.07539 42.0202 9.27334 42.0065 9.47812 41.9997C9.6829 41.9929 9.87402 41.9041 10.072 41.9041C10.2699 41.9041 10.4747 41.9724 10.6727 41.9724C10.8706 41.9724 11.0686 41.7949 11.2665 41.7949C11.4645 41.7949 11.6692 41.9246 11.8672 41.9178C12.0651 41.911 12.2631 41.7471 12.4679 41.7471C12.6727 41.7471 12.8706 41.7676 13.0686 41.7676C13.2665 41.7676 13.4713 41.9041 13.6692 41.9041C13.8672 41.9041 14.072 41.8905 14.2699 41.8905C14.4679 41.8905 14.6726 41.8495 14.8706 41.8495C15.0686 41.8495 15.2665 41.6857 15.4645 41.6789C15.6624 41.6721 15.8672 41.754 16.0651 41.7471C16.2631 41.7403 16.4679 41.8632 16.6658 41.8563C16.857 41.8563 17.0344 41.6789 17.2256 41.6721C17.4167 41.6652 17.601 41.6721 17.7921 41.6584C17.9832 41.6448 18.1812 41.8086 18.3655 41.7949C18.5498 41.7813 18.7409 41.7198 18.9252 41.7062C19.1095 41.6925 19.3006 41.6106 19.4849 41.597C19.6692 41.5833 19.8672 41.6994 20.0583 41.6925C20.2494 41.6857 20.4201 41.4809 20.6112 41.4673C20.8023 41.4536 20.9935 41.5151 21.1778 41.5014C21.3621 41.4878 21.5532 41.4809 21.7443 41.4741C21.9354 41.4673 22.1197 41.3649 22.304 41.3512C22.5293 41.3376 22.7546 41.3444 22.9798 41.3308C23.2051 41.3171 23.4303 41.283 23.6556 41.2762C23.8808 41.2693 24.1061 41.3171 24.3314 41.3171C24.5293 41.3171 24.7272 41.4468 24.9252 41.44C25.1232 41.4332 25.3211 41.4741 25.5191 41.4741C25.717 41.4741 25.915 41.3103 26.1129 41.3103C26.3109 41.3103 26.5088 41.2284 26.7068 41.2284C26.9047 41.2284 27.1027 41.2966 27.3006 41.2898C27.4986 41.283 27.7033 41.44 27.9013 41.4331C28.0992 41.4263 28.2904 41.2284 28.4883 41.2215C28.6863 41.2147 28.8842 41.1806 29.0822 41.1738C29.2801 41.1669 29.4781 41.1601 29.676 41.1533C29.874 41.1465 30.0719 41.2147 30.2699 41.2079C30.4678 41.2011 30.659 41.1396 30.8569 41.126C31.0549 41.1123 31.2528 41.0987 31.4508 41.085C31.6487 41.0714 31.8467 41.0714 32.0446 41.0577C32.2426 41.0441 32.4337 40.969 32.6317 40.9485C32.8296 40.928 33.0481 41.1465 33.246 41.126C33.4576 41.1055 33.6556 41.0372 33.8672 41.0304C34.0788 41.0236 34.2904 40.8871 34.502 40.8939C34.7136 40.9007 34.9184 41.0645 35.13 41.0714C35.3416 41.0782 35.5532 40.9417 35.7648 40.9417C35.9354 40.9417 36.1061 41.085 36.2767 41.0782C36.4405 41.0714 36.6044 41.0099 36.7887 40.9963C36.9457 40.9895 37.1436 40.9622 37.3279 40.9553L37.3006 40.9622Z" fill="#FFD400"/>
</svg>
