<svg width="43" height="122" viewBox="0 0 43 122" fill="none" xmlns="http://www.w3.org/2000/svg">
<path d="M5.56543 17.0012C5.63143 16.7844 5.622 16.5487 5.67857 16.3318C5.73514 16.115 5.82943 15.8981 5.886 15.6718C5.94257 15.4456 6.02742 15.2287 6.09342 15.0118C6.15942 14.795 6.16885 14.5499 6.23485 14.333C6.30085 14.1161 6.39513 13.8993 6.47056 13.6824C6.54599 13.4656 6.64027 13.2676 6.7157 13.0507C6.79113 12.8339 6.88541 12.6359 6.97027 12.4285C7.05512 12.221 7.15883 12.023 7.24369 11.8156C7.32855 11.6082 7.36626 11.3725 7.46054 11.1745C7.55483 10.9765 7.73397 10.8068 7.83768 10.6088C7.9414 10.4108 8.02625 10.2033 8.12997 10.0054C8.23368 9.80735 8.3091 9.5905 8.42225 9.39251C8.53539 9.19451 8.72396 9.05307 8.84653 8.8645C8.9691 8.67593 9.07281 8.47795 9.20481 8.28938C9.33681 8.10081 9.47823 7.94052 9.61966 7.76138C9.76109 7.58224 9.85537 7.37482 9.9968 7.19568C10.1382 7.01654 10.2702 6.8374 10.4211 6.66769C10.5719 6.50741 10.6851 6.30941 10.8359 6.14912C10.9868 5.98884 11.1754 5.85684 11.3262 5.70598C11.4771 5.55513 11.6656 5.42313 11.8259 5.27227C11.9862 5.12142 12.1088 4.93286 12.2785 4.782C12.4482 4.63115 12.6368 4.52742 12.8159 4.38599C12.995 4.24457 13.193 4.15029 13.3722 4.02772C13.5513 3.90515 13.6739 3.69773 13.8625 3.57516C14.051 3.45259 14.2773 3.40544 14.4659 3.28287C14.6544 3.1603 14.843 3.05659 15.0316 2.94344C15.2202 2.8303 15.4087 2.71717 15.6067 2.62288C15.8047 2.51917 16.0121 2.42489 16.2196 2.32118C16.427 2.21747 16.6156 2.09489 16.823 1.99118C17.0304 1.88746 17.2284 1.77433 17.4358 1.68947C17.6433 1.60462 17.8884 1.60461 18.1053 1.52918C18.3221 1.45375 18.5201 1.34062 18.737 1.28404C18.9538 1.22747 19.1801 1.18976 19.4064 1.15205C19.6327 1.11433 19.8495 1.01062 20.0758 0.991765C20.2832 0.972908 20.4907 0.954049 20.6981 0.94462C20.9055 0.935192 21.1129 0.94462 21.3298 0.94462C21.5466 0.94462 21.7446 0.99176 21.9521 1.00119C22.1595 1.01062 22.3669 1.00119 22.5743 1.00119C22.7818 1.00119 22.9892 1.10491 23.1966 1.11434C23.4323 1.12377 23.668 1.14262 23.9132 1.17091C24.1583 1.19919 24.3846 1.19919 24.6297 1.22748C24.8749 1.25576 25.1106 1.26519 25.3463 1.28404C25.582 1.3029 25.8272 1.34062 26.0629 1.35005C26.2891 1.36891 26.5249 1.27462 26.7511 1.30291C26.9774 1.33119 27.1943 1.40661 27.4206 1.44433C27.6468 1.48204 27.8543 1.60461 28.0711 1.65175C28.288 1.6989 28.5143 1.75546 28.7311 1.81203C28.948 1.86861 29.2025 1.81204 29.4194 1.87804C29.6362 1.94404 29.8059 2.14204 30.0228 2.21747C30.2397 2.29289 30.4754 2.30231 30.6828 2.38717C30.8902 2.47203 31.0788 2.61345 31.2862 2.70773C31.4936 2.80202 31.7199 2.83031 31.9274 2.9246C32.1348 3.01888 32.3516 3.0943 32.5496 3.19802C32.7571 3.30173 32.9362 3.44315 33.1342 3.54686C33.3322 3.65058 33.5585 3.72602 33.7565 3.83916C33.9545 3.9523 34.1525 4.06544 34.3505 4.17858C34.5485 4.29172 34.7087 4.47085 34.8973 4.59342C35.0859 4.71599 35.3499 4.73485 35.5384 4.85742C35.727 4.97999 35.8873 5.14971 36.0759 5.28171C36.2644 5.41371 36.4247 5.56456 36.6133 5.70598C36.8018 5.84741 37.0093 5.93227 37.1884 6.07369C37.3676 6.21512 37.5373 6.36598 37.707 6.51683C37.8767 6.66769 38.0181 6.85626 38.1878 7.00711C38.3575 7.15797 38.5555 7.28053 38.7158 7.44081C38.8761 7.6011 39.0835 7.71424 39.2438 7.88395C39.4041 8.05366 39.5078 8.25166 39.6587 8.4308C39.8095 8.60994 40.0169 8.73251 40.1584 8.91165C40.2998 9.09079 40.4129 9.29821 40.5355 9.48678C40.6581 9.67535 40.7995 9.86393 40.9221 10.0525C41.0446 10.2411 41.1861 10.4296 41.2898 10.6371C41.3935 10.8445 41.4784 11.0519 41.5726 11.2688C41.6669 11.4856 41.7518 11.693 41.8272 11.9099C41.9026 12.1268 42.0064 12.3342 42.0818 12.551C42.1572 12.7679 42.2043 12.9942 42.2609 13.2205C42.3175 13.4467 42.3646 13.6636 42.4118 13.8899C42.4495 14.1067 42.4966 14.333 42.5343 14.5499C42.5721 14.7667 42.5343 15.0024 42.5532 15.2193C42.5721 15.4361 42.6852 15.653 42.7041 15.8698C42.7229 16.0867 42.6098 16.3224 42.6286 16.5487C42.6475 16.775 42.6569 16.9918 42.6663 17.2087C42.6758 17.4255 42.6946 17.6518 42.7041 17.8687C42.7135 18.0855 42.8361 18.3118 42.8361 18.5381C42.8361 18.7644 42.7606 18.9812 42.7512 19.2075C42.7418 19.4338 42.7418 19.6506 42.7229 19.8769C42.7041 20.1032 42.6569 20.3201 42.6381 20.5369C42.6192 20.7538 42.5909 20.98 42.5626 21.1969C42.5343 21.4138 42.5626 21.6495 42.5249 21.8663C42.4872 22.0926 42.3741 22.3 42.3269 22.5263C42.2798 22.7526 42.2043 22.96 42.1478 23.1863C42.0912 23.4126 41.9875 23.6106 41.9121 23.8274C41.8366 24.0443 41.8083 24.2706 41.7329 24.4874C41.6575 24.7043 41.6198 24.9306 41.5255 25.138C41.4312 25.3454 41.3464 25.5529 41.2521 25.7603C41.1578 25.9677 41.0447 26.1657 40.9504 26.3637C40.8561 26.5617 40.7807 26.788 40.6675 26.986C40.5544 27.184 40.4507 27.3914 40.347 27.5894C40.2432 27.7874 40.1489 27.9948 40.0358 28.1928C39.9227 28.3908 39.687 28.5134 39.5738 28.7114C39.4607 28.9094 39.3664 29.1262 39.2438 29.3242C39.1212 29.5222 38.9798 29.7108 38.8478 29.8994C38.7158 30.0879 38.6593 30.3331 38.5178 30.5216C38.3764 30.7102 38.2538 30.9082 38.1124 31.0873C37.971 31.2665 37.7164 31.3608 37.5656 31.5305C37.4147 31.7002 37.2638 31.8793 37.1036 32.049C36.9433 32.2188 36.7453 32.3413 36.5756 32.5016C36.4059 32.6619 36.2927 32.8787 36.1042 33.0202C35.9156 33.1616 35.727 33.2936 35.5384 33.4256C35.3499 33.5576 35.1519 33.6802 34.9539 33.8027C34.8596 33.8593 34.7559 33.9442 34.6333 34.0667C34.7559 34.2364 34.9067 34.3873 35.0293 34.5287C35.1707 34.689 35.2462 34.8964 35.3499 35.0661C35.463 35.2547 35.6516 35.3961 35.7082 35.5941C35.7647 35.7921 35.6516 36.0278 35.661 36.2353C35.661 36.4333 35.661 36.6313 35.6233 36.8481C35.5573 37.2158 35.5479 37.4421 35.6422 37.5647C35.727 37.6778 35.9439 37.7061 36.3021 37.8098C36.5284 37.8758 36.6699 38.0267 36.8207 38.1492C36.9904 38.2812 37.1884 38.3849 37.2827 38.5829C37.3676 38.7621 37.3298 38.9978 37.377 39.2146C37.4336 39.4692 37.377 39.6012 37.2638 39.7615C37.1507 39.9218 37.0659 40.0726 36.981 40.2706C37.1036 40.4592 37.1978 40.6195 37.3487 40.7798C37.4996 40.9401 37.6221 41.1192 37.7918 41.2701C37.9615 41.4209 38.1784 41.4775 38.3575 41.6095C38.5367 41.7415 38.6781 41.9018 38.8667 42.0243C39.0553 42.1469 39.159 42.2695 39.3475 42.3826C39.1872 42.524 39.1024 42.6466 38.9421 42.7786C38.7818 42.9106 38.6875 43.118 38.5367 43.2595C38.3858 43.4009 38.2255 43.5329 38.0747 43.6743C37.9238 43.8157 37.7164 43.9006 37.5656 44.0326C37.4147 44.1646 37.2261 44.2683 37.0658 44.4003C36.9056 44.5323 36.8019 44.6737 36.6416 44.8151C36.519 44.6077 36.4436 44.4286 36.3399 44.2211C36.2361 44.0137 36.0193 43.844 35.9344 43.6272C35.8496 43.4103 35.9344 43.1369 35.8779 42.9106C35.8213 42.6843 35.6327 42.4863 35.6044 42.2506C35.5762 42.0149 35.5856 41.7792 35.5762 41.5435C35.5667 41.3078 35.5856 41.0815 35.595 40.8363C35.4064 40.8269 35.2367 40.7798 35.067 40.7703C34.8879 40.7609 34.7182 40.7421 34.539 40.7232C34.2845 40.6949 34.0393 40.6949 33.8507 40.6195C33.615 40.5252 33.5019 40.3272 33.3605 40.1481C33.219 39.9689 33.0305 39.8275 32.9928 39.5729C32.955 39.3655 33.0776 39.1392 33.0965 38.8752C33.1248 38.5641 32.9928 38.3472 32.8796 38.2247C32.757 38.0927 32.5591 38.0361 32.2479 38.0927C32.0122 38.1304 31.7859 38.1304 31.5691 38.1492C31.3334 38.1681 31.1071 38.2058 30.8902 38.187C30.6545 38.1681 30.4282 38.1209 30.2208 38.0644C29.9945 37.9984 29.7682 37.9512 29.5702 37.8475C29.3722 37.7438 29.2025 37.5741 29.0422 37.4138C28.882 37.2535 28.6651 37.131 28.5425 36.933C28.42 36.7538 28.3445 36.5275 28.2597 36.3013C28.1748 36.1033 28.2031 35.8581 28.1465 35.6224C28.0994 35.415 27.9863 35.1981 27.958 34.9624C27.9391 34.7927 27.8543 34.6701 27.8166 34.4344C27.6468 34.3967 27.5431 34.2647 27.3734 34.2364C27.2037 34.2081 27.0434 34.1422 26.8737 34.1044C26.6286 34.0479 26.3551 34.1139 26.1383 34.029C25.9026 33.9347 25.714 33.765 25.5254 33.6236C25.3274 33.4822 25.1294 33.3219 24.988 33.1333C24.8466 32.9447 24.7806 32.6996 24.6769 32.4733C24.5732 32.247 24.5543 32.0302 24.5072 31.785C24.4695 31.5588 24.328 31.323 24.328 31.0685C24.328 30.8139 24.3657 30.6253 24.2715 30.4933C24.1677 30.3519 24.0169 30.2199 23.7906 30.1351C23.5926 30.0691 23.404 29.9748 23.2155 29.8899C23.0269 29.8051 22.8195 29.7485 22.6403 29.6542C22.4612 29.5599 22.2726 29.4562 22.1029 29.3431C21.9332 29.2299 21.7352 29.1451 21.5749 29.0131C21.4146 28.8811 21.2544 28.7491 21.1035 28.5982C21.0281 28.5134 20.9055 28.3908 20.7924 28.2305C20.9715 28.0797 21.2355 27.9948 21.4146 27.8817C21.6126 27.7591 21.7258 27.514 21.8955 27.3725C22.0746 27.2217 22.3009 27.1274 22.4423 26.9483C22.5838 26.7691 22.7158 26.5711 22.8289 26.3825C22.942 26.194 22.9609 25.9488 23.0458 25.732C23.1306 25.5151 23.2532 25.3266 23.3098 25.1003C23.3663 24.874 23.4512 24.6666 23.4795 24.4309C23.5077 24.1952 23.5455 23.9783 23.5549 23.7426C23.5737 23.4503 23.3852 23.2146 23.272 22.96C23.1589 22.7055 23.074 22.4415 22.8666 22.2435C22.6969 22.0832 22.4612 22.0172 22.2726 21.8946C22.0841 21.7626 21.9615 21.5175 21.7635 21.4232C21.5655 21.3289 21.3204 21.3006 21.1035 21.2346C20.8866 21.1686 20.6604 21.1403 20.4341 21.112C20.2078 21.0838 19.9815 21.0461 19.7552 21.0461C19.5289 21.0461 19.2932 21.0083 19.067 21.0461C18.869 21.0743 18.6992 21.2629 18.5013 21.3195C18.3033 21.376 18.1147 21.4326 17.9261 21.4892C17.7375 21.5458 17.5301 21.5929 17.3416 21.6495C17.0304 21.7532 16.8513 21.7155 16.7098 21.6683C16.5684 21.6212 16.4741 21.5175 16.2856 21.2346C16.1536 21.0366 15.9556 20.8763 15.833 20.6783C15.7104 20.4804 15.5973 20.2541 15.4747 20.0561C15.3521 19.8581 15.2767 19.6224 15.1542 19.4149C15.0316 19.2075 14.9467 18.9812 14.843 18.7738C14.7487 18.5758 14.5696 18.4249 14.4753 18.2364C14.381 18.0478 14.2773 17.8498 14.183 17.6518C14.0887 17.4538 13.9756 17.2747 13.8813 17.0767C13.787 16.8787 13.7116 16.6807 13.6173 16.4827C13.523 16.2847 13.4287 16.0961 13.3439 15.8981C13.259 15.7001 13.2308 15.4738 13.1459 15.2758C13.061 15.0778 12.9102 14.9081 12.8348 14.7007C12.7593 14.4933 12.6839 14.2953 12.6085 14.0973C12.533 13.8993 12.533 13.6636 12.4576 13.4656C12.3822 13.2676 12.3162 13.0602 12.2502 12.8527C12.1842 12.6453 12.0616 12.4567 11.9956 12.2493C11.9202 12.0136 11.8542 11.7779 11.8071 11.5328C11.7599 11.2876 11.7411 11.0425 11.6845 10.8068C11.6279 10.5805 11.5242 10.4485 11.4111 10.3825C11.2979 10.3165 11.1659 10.3731 10.9396 10.4579C10.6474 10.5711 10.3362 10.6748 10.1005 10.8822C9.9308 11.0331 9.72337 11.1368 9.55366 11.297C9.38395 11.4573 9.26138 11.6459 9.10109 11.8062C8.94081 11.9665 8.84652 12.1833 8.7051 12.353C8.56367 12.5227 8.33739 12.6359 8.20539 12.815C8.07339 12.9942 7.96025 13.2016 7.83768 13.3807C7.71511 13.5599 7.59254 13.7579 7.46998 13.9559C7.34741 14.1539 7.24369 14.3424 7.13055 14.5404C7.01741 14.7384 6.9797 14.9647 6.87598 15.1721C6.77227 15.3796 6.67798 15.5776 6.5837 15.785C6.47999 16.0207 6.30085 16.2187 6.18771 16.445C6.07457 16.6713 5.98971 16.9164 5.87657 17.1521C5.78228 17.1144 5.72571 17.0672 5.63143 17.0295L5.56543 17.0012Z" fill="#082C4C"/>
<path d="M27.1752 35.7353C27.1657 35.3393 27.1469 35.0942 27.062 34.9528C26.9677 34.8019 26.7603 34.7548 26.3643 34.6416C26.1192 34.5662 25.8552 34.5379 25.6289 34.4436C25.4026 34.3493 25.1575 34.2268 24.95 34.0853C24.7426 33.9439 24.5729 33.7459 24.4032 33.5479C24.2523 33.3594 24.0449 33.1802 23.9412 32.9256C23.8563 32.7182 23.9035 32.4448 23.8281 32.2279C23.7526 32.0111 23.6206 31.8037 23.6018 31.5774C23.5829 31.3511 23.5641 31.1531 23.4792 30.9928C23.3944 30.8137 23.2624 30.644 23.1021 30.5214C22.9606 30.4082 22.7438 30.38 22.5458 30.2857C22.3478 30.1914 22.2064 29.9746 22.0178 29.8708C21.8292 29.7671 21.5558 29.7671 21.3767 29.6446C21.1975 29.522 21.0467 29.3428 20.8675 29.2108C20.6318 29.0411 20.3961 28.862 20.2547 28.6169C20.1227 28.3906 20.0284 28.0889 19.9907 27.7871C20.085 27.7494 20.1981 27.7117 20.283 27.674C20.4904 27.5797 20.6507 27.4383 20.8204 27.3251C21.009 27.2026 21.2352 27.1554 21.3955 27.0234C21.5558 26.8914 21.7255 26.7217 21.8481 26.5614C21.9707 26.4012 22.1027 26.2032 22.1969 26.0146C22.2912 25.826 22.3195 25.5998 22.3855 25.3923C22.4515 25.1849 22.5647 24.9963 22.6024 24.7795C22.6401 24.572 22.6024 24.3552 22.6024 24.1289C22.6118 23.9121 22.6118 23.7141 22.5741 23.5255C22.5364 23.3181 22.4798 23.1201 22.3761 22.9504C22.2724 22.7806 22.1781 22.5921 22.0272 22.4506C21.8858 22.3187 21.6972 22.2149 21.5181 22.1018C21.3201 21.9792 21.0844 21.9132 20.8487 21.8472C20.613 21.7812 20.3867 21.7624 20.1415 21.7435C19.8964 21.7247 19.6607 21.6398 19.425 21.6587C19.1893 21.6775 18.9347 21.6964 18.699 21.753C18.4633 21.8095 18.2276 21.9038 18.0107 22.0169C17.7939 22.1301 17.5582 22.2432 17.379 22.3941C17.0773 22.6581 16.917 22.9126 16.7284 22.9126C16.5399 22.9126 16.3042 22.7052 16.0685 22.3847C15.9365 22.1961 15.8893 21.9415 15.7573 21.753C15.6253 21.5644 15.4556 21.3947 15.3236 21.2061C15.1916 21.0175 15.1445 20.7724 15.0313 20.5744C14.9182 20.3764 14.6919 20.2444 14.5882 20.0464C14.4845 19.8484 14.4562 19.6033 14.3525 19.4053C14.2488 19.2073 14.1356 19.0093 14.0319 18.8113C13.9282 18.6133 13.7773 18.4341 13.6831 18.2267C13.5888 18.0193 13.5322 17.8024 13.4285 17.595C13.3248 17.3876 13.1739 17.2179 13.0796 17.0104C12.9854 16.803 12.8628 16.6144 12.7685 16.407C12.6742 16.1996 12.7119 15.9356 12.6271 15.7282C12.5422 15.5208 12.4008 15.3322 12.3159 15.1248C12.2311 14.9173 12.1085 14.7193 12.0237 14.5119C11.9388 14.3045 11.8634 14.0876 11.7879 13.8802C11.7125 13.6728 11.6937 13.4371 11.6182 13.2202C11.5428 13.0034 11.4485 12.8054 11.3731 12.5885C11.2977 12.3717 11.1468 12.1831 11.0808 11.9757C11.0054 11.7399 10.9771 11.4948 10.8357 11.1177C10.6377 11.3157 10.5057 11.5325 10.336 11.6928C10.138 11.8814 9.91169 11.9945 9.76083 12.1831C9.60998 12.3622 9.45912 12.5225 9.3177 12.7016C9.17627 12.8808 9.04427 13.0694 8.91227 13.2579C8.78027 13.4465 8.70485 13.6728 8.58228 13.8613C8.45971 14.0499 8.27114 14.2008 8.14857 14.3988C8.026 14.5968 7.85629 14.757 7.74315 14.955C7.63001 15.153 7.64886 15.4265 7.54515 15.6245C7.44144 15.8225 7.22458 15.9733 7.12087 16.1807C7.01716 16.3882 6.94173 16.605 6.85687 16.8124C6.77202 17.0199 6.75316 17.265 6.67773 17.4724C6.60231 17.6799 6.51745 17.8967 6.44202 18.1136C6.3666 18.3304 6.30059 18.5473 6.2346 18.7641C6.1686 18.981 6.11203 19.1978 6.05546 19.4241C5.99889 19.6504 5.84803 19.839 5.80089 20.0653C5.75375 20.2915 5.73489 20.5178 5.68775 20.7441C5.64061 20.9704 5.59346 21.1872 5.55575 21.4135C5.51804 21.6398 5.46147 21.8567 5.43318 22.0829C5.40489 22.3092 5.39547 22.5355 5.36718 22.7618C5.3389 22.9881 5.39547 23.2238 5.38604 23.4501C5.37661 23.6763 5.38604 23.9026 5.38604 24.1289C5.38604 24.3552 5.38604 24.5815 5.38604 24.8078C5.38604 25.034 5.29175 25.2698 5.31061 25.496C5.32947 25.7223 5.34832 25.9297 5.37661 26.156C5.32947 26.156 5.3389 26.1277 5.28233 26.1277C5.15033 26.3446 4.99004 26.5426 4.85804 26.7595C4.72605 26.9763 4.66948 27.2309 4.53748 27.4477C4.40548 27.6646 4.3112 27.9003 4.18863 28.1171C4.06606 28.334 3.90577 28.5131 3.7832 28.7394C4.00949 28.862 4.20748 28.9186 4.3772 29.0034C4.62234 29.126 4.80147 29.258 4.97118 29.2957C5.2069 29.3523 5.43318 29.3994 5.6406 29.2957C5.80089 29.2203 5.93289 29.0223 6.14031 28.8526C6.2346 29.1166 6.31945 29.3806 6.43259 29.6351C6.54573 29.8897 6.67773 30.1348 6.80973 30.3894C6.91344 30.5968 7.09259 30.7665 7.20573 30.9645C7.31887 31.1625 7.34715 31.4265 7.46972 31.6151C7.59229 31.8037 7.80914 31.9451 7.95057 32.1337C8.092 32.3222 8.19571 32.5202 8.34657 32.7088C8.49742 32.8974 8.63885 33.0671 8.7897 33.2368C8.94056 33.4065 9.07256 33.6045 9.24227 33.7648C9.41198 33.9251 9.55341 34.1231 9.73255 34.2739C9.91169 34.4248 10.1097 34.5473 10.2983 34.6888C10.4774 34.8208 10.666 34.9339 10.8545 35.0565C11.0431 35.1791 11.2788 35.2168 11.4674 35.3299C11.6559 35.443 11.8257 35.6033 12.0237 35.6976C12.2217 35.7919 12.4008 35.9428 12.6082 36.0276C12.8156 36.1125 13.0325 36.169 13.2399 36.2445C13.4474 36.3199 13.6736 36.3482 13.8811 36.4142C14.0885 36.4802 14.3053 36.5179 14.5316 36.565C14.7579 36.6122 14.9653 36.6216 15.1916 36.6593C15.3896 36.6876 15.597 36.6876 15.795 36.7065C15.993 36.7253 16.191 36.8573 16.389 36.8667C16.587 36.8762 16.7944 36.9139 16.9924 36.9327C17.2659 36.9516 17.4262 36.9516 17.5487 37.027C17.6996 37.1119 17.7373 37.2156 17.7939 37.489C17.8693 37.8944 17.973 38.1019 18.0956 38.215C18.2181 38.3281 18.4444 38.281 18.8593 38.2999C19.0856 38.3093 19.3213 38.4413 19.5476 38.4318C19.7738 38.4224 20.0001 38.2621 20.2264 38.2527C20.4527 38.2433 20.6884 38.2621 20.9147 38.2433C21.141 38.2244 21.3861 38.3093 21.6124 38.281C21.8387 38.2527 22.0649 38.215 22.2912 38.1867C22.5175 38.1584 22.7344 38.0547 22.9606 38.017C23.1869 37.9793 23.4038 37.9133 23.6301 37.8756C23.8563 37.8379 24.0921 37.8473 24.3183 37.819C24.5446 37.7907 24.7709 37.7624 24.9972 37.7247C25.2235 37.687 25.4403 37.5644 25.6666 37.5361C25.9023 37.5079 26.1192 37.4984 26.2417 37.357C26.3643 37.2156 26.3737 37.0082 26.3737 36.763C26.3737 36.4802 26.4586 36.2539 26.5812 36.0842C26.7037 35.9145 26.9017 35.8107 27.2223 35.8107L27.1752 35.7353ZM7.55458 24.0063C7.30001 23.9686 7.10201 23.7895 6.97002 23.5066C6.85688 23.2709 6.79087 22.9881 6.83802 22.7052C6.88516 22.4507 6.97001 22.2338 7.13972 22.1207C7.30944 22.0075 7.54515 21.9887 7.79972 22.0358C8.08257 22.0924 8.27114 22.2621 8.37485 22.4695C8.47856 22.6581 8.58228 22.9032 8.53514 23.1955C8.48799 23.4501 8.26171 23.6009 8.12028 23.7518C7.95057 23.9215 7.79029 24.0252 7.54515 23.9969L7.55458 24.0063ZM17.5204 29.0694C17.4073 28.9091 17.313 28.7771 17.1904 28.6169C16.9359 28.6263 16.6907 28.6923 16.4833 28.7583C16.257 28.8337 16.0967 28.994 15.9365 29.1731C15.795 29.3334 15.6819 29.5126 15.5782 29.7671C15.5028 29.9557 15.3708 30.116 15.2765 30.2951C15.1822 30.4743 15.135 30.6817 15.0125 30.8514C14.8899 31.0211 14.6542 31.0965 14.5411 31.2568C14.4279 31.4171 14.3619 31.634 14.2488 31.7942C14.0225 32.1242 13.7491 32.0865 13.4379 31.8602C13.2494 31.7188 13.0702 31.5774 12.8816 31.4454C12.6931 31.3134 12.4574 31.2474 12.2594 31.1342C12.0519 31.0117 11.8822 30.8231 11.6937 30.8137C11.4768 30.8043 11.326 31.0022 11.1468 31.1342C10.996 31.2474 10.8357 31.3511 10.7131 31.5585C10.5905 31.7754 10.4585 32.0488 10.1945 32.2374C10.1851 32.0394 10.138 31.8131 10.1191 31.5868C9.90226 31.5868 9.77026 31.6528 9.61941 31.7754C9.46855 31.8979 9.37427 32.0771 9.22341 32.2185C9.08199 32.3411 8.91227 32.3882 8.71428 32.4637C8.80856 32.2657 8.90284 32.1148 8.94056 31.9545C8.9877 31.7471 8.95942 31.5208 8.86513 31.3605C8.78027 31.2191 8.58228 31.1248 8.36542 31.0211C8.66713 30.8702 8.90284 31.0965 9.14798 31.2191C9.39312 31.3417 9.61941 31.3605 9.89283 31.0305C9.80797 30.8514 9.72312 30.6534 9.60998 30.4177C9.8834 30.3328 10.138 30.4743 10.402 30.5403C10.6471 30.5968 10.93 30.6157 11.194 30.3517C11.128 30.2008 11.0148 30.0217 10.9394 29.8614C10.864 29.7105 10.7602 29.5691 10.6942 29.4088C10.6 29.1826 10.4491 28.9563 10.3925 28.7206C10.336 28.4849 10.4303 28.2491 10.6188 28.0229C10.7508 27.8626 10.9111 27.7777 11.0808 27.7023C11.2505 27.6269 11.4297 27.5891 11.6277 27.5797C11.8257 27.5703 11.9954 27.6174 12.1934 27.6457C12.3914 27.674 12.5611 27.608 12.8062 27.674C12.9476 27.4666 13.0702 27.2969 13.2399 27.1366C13.4191 26.9669 13.6831 26.9292 13.9093 26.8537C14.1168 26.7783 14.3431 26.7029 14.607 26.7406C14.8899 26.7689 15.0502 26.9292 15.2293 27.0706C15.4085 27.212 15.6442 27.3346 15.7479 27.5797C15.8422 27.7871 15.8516 28.0794 15.9176 28.334C16.1345 28.2869 16.3796 28.2491 16.5776 28.202C16.7756 28.1549 16.9642 28.07 17.181 28.0229C17.0679 27.7871 17.0396 27.608 16.9547 27.4477C17.0019 27.4006 16.9924 27.3534 17.0019 27.3534C17.1999 27.41 17.4167 27.4194 17.6147 27.4666C17.8127 27.5137 17.9636 27.7023 18.1333 27.8154C18.2841 27.9097 18.237 28.0794 17.9919 28.4471C17.8693 28.6357 17.709 28.8243 17.5016 29.0694H17.5204Z" fill="#FF8A95"/>
<path d="M13.3342 28.5603C13.3908 28.3811 13.485 28.202 13.5887 28.0134C13.7396 27.7494 13.8527 27.3817 14.0885 27.2026C14.3053 27.0423 14.5316 27.146 14.7107 27.2214C14.8899 27.2969 15.0313 27.4006 15.1067 27.6457C15.1822 27.8909 15.2199 28.136 15.2293 28.3811C15.2387 28.6263 15.1822 28.8714 15.1256 29.1166C15.069 29.3617 15.0219 29.5974 14.8993 29.8237C14.7956 30.0028 14.673 30.1725 14.5504 30.3517C14.4279 30.5308 14.3053 30.6911 14.1733 30.8608C14.0507 31.0305 13.9565 31.2945 13.8339 31.4737C13.5982 31.3322 13.3719 31.1154 13.155 30.9834C12.9382 30.8514 12.7119 30.7194 12.4856 30.5874C12.6082 30.2857 12.693 30.0405 12.8439 29.6634C12.6082 29.7294 12.4102 29.8143 12.2122 29.8708C12.0142 29.9274 11.7691 30.0405 11.5428 30.1065C11.4674 29.8991 11.3825 29.6445 11.3071 29.4465C11.2316 29.2485 11.2128 29.0223 11.1562 28.8148C11.0619 28.4754 11.1468 28.1549 11.4768 27.9851C11.7879 27.8249 12.1368 27.8154 12.429 28.0229C12.5799 28.136 12.6742 28.3434 12.8345 28.466C12.9759 28.5697 13.089 28.6168 13.3436 28.5508L13.3342 28.5603Z" fill="#FF8A95"/>
<path d="M34.5951 50.1798C34.5197 49.9818 34.5668 49.7555 34.5008 49.5669C34.4348 49.3784 34.3217 49.1898 34.2462 48.9918C34.1708 48.7938 34.0671 48.6052 34.0011 48.4072C33.9351 48.2092 33.9162 47.9924 33.8597 47.7944C33.7937 47.5775 33.6805 47.3701 33.6145 47.1532C33.5485 46.9364 33.426 46.729 33.3505 46.5121C33.2751 46.2953 33.2374 46.069 33.162 45.8521C33.0865 45.6353 33.0394 45.409 32.964 45.1921C32.8885 44.9753 32.7754 44.7773 32.6905 44.5604C32.6057 44.3436 32.5208 44.1361 32.4265 43.9287C32.3323 43.7213 32.2285 43.5139 32.1343 43.3065C32.04 43.099 31.9363 42.8916 31.842 42.6842C31.7477 42.4767 31.6063 42.2882 31.5026 42.0902C31.3988 41.9016 31.3988 41.6565 31.2951 41.4773C31.1914 41.2982 31.0311 41.1379 30.918 40.9588C30.8049 40.7796 30.7011 40.5911 30.588 40.4119C30.4749 40.2328 30.2863 40.1008 30.1543 39.9311C30.0223 39.7614 29.9657 39.5351 29.8243 39.3748C29.6829 39.2145 29.5037 39.0919 29.3529 38.9317C29.202 38.7714 29.0983 38.5828 28.9474 38.4319C28.7966 38.2811 28.6175 38.1585 28.4572 38.0171C28.3063 37.8945 28.1743 37.7437 28.0423 37.5834C27.9197 37.4325 27.7312 37.3288 27.5992 37.1591C27.486 36.9988 27.4389 36.8763 27.3069 36.7065C27.2503 36.9234 27.0712 37.0177 27.0618 37.1874C27.0429 37.5362 27.156 37.7625 27.0712 37.8945C26.9769 38.0359 26.7412 37.9888 26.4018 38.0831C26.2038 38.1302 26.0152 38.1962 25.8172 38.2339C25.6192 38.2717 25.4495 38.4414 25.2421 38.4791C25.0346 38.5168 24.8366 38.4979 24.6292 38.5356C24.3935 38.5734 24.1389 38.5357 23.8938 38.5734C23.6487 38.6111 23.4318 38.7525 23.1867 38.7902C22.9415 38.8279 22.7058 38.8468 22.4607 38.8845C22.2155 38.9222 21.9798 38.9599 21.7347 38.9976C21.4896 39.0354 21.2633 39.1297 21.0181 39.1674C20.7636 39.2051 20.4901 39.1202 20.2261 39.1391C19.9621 39.1579 19.7076 39.1579 19.4436 39.1674C19.1796 39.1768 18.925 39.1957 18.661 39.1957C18.4536 39.1957 18.2462 39.1768 18.0387 39.1768C17.8313 39.1768 17.6239 39.1768 17.4165 39.1768C17.209 39.1768 17.0016 39.2334 16.7942 39.2334C16.5868 39.2334 16.3699 39.2334 16.1625 39.2334C15.9645 39.4314 15.8985 39.6671 15.8891 39.8839C15.8891 40.1196 15.9173 40.3742 15.9456 40.5911C15.9739 40.8173 16.0022 41.0153 15.9739 41.1945C15.9456 41.4019 15.8513 41.5716 15.7476 41.7507C15.6533 41.911 15.5873 42.1279 15.4271 42.2882C15.2574 42.4579 15.1065 42.637 14.9462 42.8162C14.7859 42.9953 14.5785 43.1367 14.4371 43.3347C14.2957 43.5327 14.1448 43.7213 14.0222 43.9193C13.8997 44.1173 13.8148 44.353 13.6922 44.5604C13.5697 44.7678 13.5131 45.0036 13.4 45.2204C13.2868 45.4373 13.0888 45.607 12.9945 45.8238C12.9002 46.0407 12.8342 46.2764 12.74 46.5027C12.6551 46.7101 12.608 46.927 12.5325 47.1344C12.4571 47.3418 12.278 47.5115 12.2025 47.719C12.1271 47.9264 12.1648 48.1715 12.0894 48.3884C12.014 48.6052 11.9574 48.8127 11.882 49.0201C11.8065 49.2275 11.5991 49.3972 11.5331 49.6046C11.4671 49.8121 11.42 50.0384 11.3446 50.2458C11.2974 50.3684 11.288 50.4626 11.2031 50.6041C11.354 50.9152 11.3446 50.8209 11.7594 50.9812C11.9385 51.0472 12.1931 51.0378 12.4477 51.1226C12.6457 51.1886 12.8531 51.33 13.0982 51.3866C13.3057 51.4338 13.5602 51.4055 13.8054 51.4432C14.0222 51.4809 14.2391 51.6129 14.4842 51.6506C14.7011 51.6789 14.9368 51.6789 15.1819 51.7072C15.4082 51.726 15.6439 51.66 15.8891 51.6695C16.1153 51.6789 16.3511 51.6506 16.5962 51.6506C16.8225 51.6506 17.0488 51.8015 17.275 51.8015C17.5013 51.8015 17.7182 51.6506 17.9539 51.6412C18.1896 51.6318 18.4065 51.7355 18.6327 51.7166C18.859 51.6978 19.0759 51.5752 19.3022 51.5563C19.5284 51.5375 19.7641 51.594 19.9904 51.5752C20.2167 51.5563 20.443 51.4903 20.6693 51.4715C20.8956 51.4526 21.1313 51.4526 21.3576 51.4243C21.5838 51.3961 21.8101 51.3395 22.0364 51.3206C22.2627 51.3018 22.489 51.3018 22.7152 51.2735C22.9415 51.2452 23.1772 51.3018 23.4035 51.2735C23.6298 51.2452 23.8561 51.198 24.0824 51.1792C24.3087 51.1603 24.5444 51.1698 24.7612 51.1509C24.9781 51.132 25.2138 50.9906 25.4306 50.9812C25.6664 50.9718 25.8926 51.0849 26.1189 51.0849C26.3546 51.0849 26.5809 51.0095 26.7978 51.0095C27.0335 51.0095 27.2598 51.0378 27.4672 51.0566C27.6746 51.0755 27.9103 51.0189 28.1366 51.0283C28.3629 51.0378 28.5703 51.1226 28.7966 51.132C29.0229 51.1415 29.2397 51.0472 29.4566 51.0472C29.6734 51.0472 29.8997 51.1415 30.126 51.132C30.3523 51.1226 30.5691 51.0095 30.786 51C31.0028 50.9906 31.2386 51 31.4554 50.9718C31.6817 50.9529 31.8985 50.868 32.1154 50.8398C32.3417 50.8115 32.5774 50.8398 32.7848 50.8021C33.0205 50.7643 33.2468 50.7832 33.4542 50.7361C33.6994 50.6795 33.9257 50.6229 34.1048 50.5569C34.3782 50.4532 34.5102 50.2741 34.5951 50.1515V50.1798Z" fill="#E63500"/>
<path d="M30.2113 108.447C30.5318 108.381 30.8147 108.325 31.0221 108.325C31.3427 108.325 31.5124 108.494 31.6538 108.721C31.7575 108.89 31.9273 109.098 31.9933 109.428C32.0404 109.673 31.9367 109.918 31.9744 110.107C32.0215 110.361 32.1818 110.559 32.1913 110.748C32.2101 111.002 32.097 111.2 32.0404 111.398C31.9838 111.596 31.8895 111.757 31.7293 111.955C31.6161 112.096 31.5501 112.332 31.371 112.52C31.239 112.662 31.041 112.775 30.8618 112.954C30.6921 113.124 30.5413 113.303 30.3716 113.463C30.2019 113.623 29.9944 113.746 29.8153 113.897C29.6361 114.048 29.4664 114.208 29.2873 114.359C29.1082 114.51 28.9667 114.708 28.7782 114.849C28.5896 114.991 28.3539 115.066 28.1653 115.207C27.9767 115.349 27.7882 115.49 27.5996 115.622C27.411 115.754 27.2602 115.962 27.0716 116.094C26.883 116.226 26.6662 116.339 26.4682 116.461C26.2796 116.584 26.0816 116.688 25.8931 116.801C25.7045 116.914 25.4876 116.999 25.2991 117.112C25.1105 117.225 24.9691 117.423 24.7805 117.546C24.5919 117.668 24.3562 117.706 24.1677 117.829C23.9791 117.951 23.7905 118.064 23.6019 118.187C23.4134 118.309 23.2059 118.394 23.008 118.507C22.81 118.621 22.6591 118.79 22.4705 118.903C22.282 119.017 22.0934 119.139 21.9048 119.262C21.7163 119.384 21.5654 119.563 21.3768 119.686C21.1883 119.809 20.9243 119.799 20.7357 119.922C20.5566 120.025 20.3963 120.148 20.2171 120.242C20.038 120.337 19.906 120.525 19.7174 120.619C19.5289 120.714 19.3026 120.714 19.114 120.808C18.9254 120.902 18.7652 121.025 18.5766 121.119C18.4352 121.195 18.3032 121.279 18.1052 121.327C17.9637 121.364 17.8035 121.402 17.6055 121.459C17.6432 121.242 17.6526 121.025 17.6903 120.808C17.728 120.591 17.7469 120.365 17.7846 120.148C17.8223 119.931 17.8695 119.714 17.9166 119.497C17.9637 119.281 18.1429 119.092 18.19 118.885C18.2372 118.677 18.1994 118.432 18.256 118.225C18.3126 118.017 18.4823 117.829 18.5389 117.612C18.5954 117.395 18.6332 117.178 18.6897 116.971C18.7463 116.763 18.7086 116.518 18.7746 116.311C18.8406 116.103 18.916 115.896 18.982 115.688C19.048 115.481 19.0669 115.311 19.1329 115.104C18.8689 114.906 18.6992 114.802 18.4823 114.83C18.2372 114.868 17.992 114.981 17.7563 115.094C17.5489 115.189 17.3886 115.368 17.1906 115.462C16.9926 115.556 16.7475 115.566 16.54 115.66C16.3326 115.754 16.1346 115.839 15.9272 115.933C15.7198 116.028 15.5595 116.207 15.3521 116.301C15.1446 116.395 14.8995 116.386 14.6921 116.48C14.4564 116.584 14.2206 116.707 13.9567 116.791C13.8435 116.556 13.8341 116.358 13.9001 116.188C13.9755 115.999 14.1924 115.877 14.2961 115.726C14.4281 115.547 14.5224 115.349 14.6544 115.17C14.7864 114.991 14.9561 114.84 15.0881 114.661C15.2201 114.481 15.3049 114.274 15.4369 114.095C15.5689 113.916 15.7481 113.774 15.8801 113.595C16.012 113.416 16.144 113.246 16.2855 113.067C16.4269 112.888 16.4458 112.633 16.5778 112.464C16.7098 112.294 16.87 112.134 17.002 111.955C17.1246 111.785 17.2943 111.662 17.4357 111.502C17.5772 111.342 17.6526 111.144 17.794 110.984C17.9355 110.823 18.0863 110.682 18.2277 110.531C18.3503 110.408 18.4729 110.276 18.6332 110.144C18.7652 110.041 18.9349 109.984 19.1046 109.843C19.1329 110.05 19.18 110.21 19.2083 110.352C19.246 110.55 19.3026 110.72 19.3026 110.87C19.3026 111.182 19.3214 111.417 19.4723 111.606C19.6231 111.794 19.8494 111.879 20.1511 111.945C20.3868 111.992 20.6037 112.115 20.8488 112.162C21.094 112.209 21.3203 112.266 21.556 112.294C21.7917 112.322 22.0463 112.322 22.282 112.313C22.5082 112.303 22.7345 112.172 22.9608 112.153C23.1871 112.134 23.4228 112.181 23.6585 112.153C23.8942 112.124 24.1205 112.124 24.3468 112.087C24.5731 112.049 24.7994 112.002 25.0256 111.955C25.2519 111.907 25.4688 111.813 25.6856 111.757C25.9025 111.7 26.157 111.747 26.3833 111.691C26.6096 111.634 26.8265 111.568 27.0527 111.502C27.279 111.436 27.4865 111.342 27.7033 111.266C27.9202 111.191 28.1276 111.087 28.3444 111.002C28.5613 110.918 28.7404 110.748 28.9479 110.663C29.193 110.559 29.4099 110.408 29.6456 110.295C29.9001 110.173 30.1736 110.088 30.2773 109.89C30.381 109.692 30.381 109.409 30.315 109.126C30.2678 108.947 30.2396 108.721 30.249 108.466L30.2113 108.447Z" fill="#E63500"/>
<path d="M31.4934 94.9457C31.748 95.04 31.9648 95.2002 32.2288 95.2662C32.5588 95.3511 32.7285 95.5208 32.7191 95.8697C32.7191 96.0865 32.7191 96.3034 32.7191 96.5202C32.7191 96.7371 32.7568 96.9539 32.7945 97.1613C32.8323 97.3688 32.8888 97.5856 32.9265 97.7931C32.9643 98.0005 33.002 98.2174 33.0491 98.4248C33.0963 98.6322 33.1151 98.849 33.1717 99.0565C33.2283 99.2639 33.332 99.4525 33.3791 99.6693C33.4262 99.8767 33.5111 100.084 33.5205 100.282C33.5205 100.49 33.4168 100.688 33.3697 100.886C33.3225 101.084 33.2188 101.253 33.1151 101.432C33.0114 101.612 32.9831 101.819 32.8417 101.979C32.7097 102.149 32.5966 102.338 32.4646 102.498C32.3326 102.658 32.1157 102.762 31.9837 102.932C31.8517 103.101 31.7574 103.299 31.6254 103.469C31.4934 103.639 31.3426 103.79 31.2106 103.959C31.0786 104.129 30.9937 104.336 30.8523 104.497C30.7109 104.657 30.5412 104.798 30.4092 104.959C30.2772 105.119 30.0603 105.223 29.9189 105.383C29.7774 105.543 29.6455 105.713 29.504 105.873C29.2966 106.1 29.1175 106.326 29.0232 106.562C28.9289 106.797 28.9855 107.08 29.0515 107.391C29.0892 107.57 29.1457 107.749 29.1552 107.929C29.1646 108.108 29.0703 108.306 29.0986 108.475C29.1457 108.758 29.2212 109.003 29.0986 109.173C28.976 109.343 28.712 109.343 28.448 109.428C28.2218 109.503 28.0332 109.692 27.8069 109.758C27.5806 109.824 27.3261 109.805 27.0903 109.871C26.8546 109.937 26.6472 110.059 26.4209 110.125C26.1946 110.191 25.9778 110.295 25.7421 110.352C25.5064 110.408 25.2707 110.437 25.0349 110.484C24.7992 110.531 24.5729 110.597 24.3372 110.644C24.1015 110.691 23.8658 110.729 23.6301 110.767C23.3944 110.804 23.1493 110.767 22.9135 110.785C22.6778 110.804 22.4421 110.861 22.2064 110.88C21.8104 110.908 21.5747 110.88 21.4333 110.748C21.2919 110.616 21.2353 110.38 21.2164 109.993C21.1976 109.729 21.2541 109.465 21.2636 109.201C21.273 108.937 21.2636 108.673 21.2447 108.409C21.2259 108.07 21.2164 107.825 21.0844 107.702C20.9524 107.58 20.7167 107.561 20.3867 107.523C20.1604 107.495 19.9342 107.533 19.7079 107.504C19.4816 107.476 19.2553 107.476 19.0385 107.438C18.8216 107.401 18.5953 107.335 18.3785 107.297C18.1616 107.259 17.9542 107.146 17.7279 107.089C17.5016 107.033 17.2848 107.014 17.0679 106.948C16.8511 106.882 16.6531 106.76 16.4362 106.694C16.2194 106.628 15.9648 106.675 15.7574 106.599C15.5499 106.524 15.3896 106.307 15.1728 106.232C14.9559 106.156 14.7297 106.137 14.5222 106.043C14.3148 105.949 14.1168 105.854 13.9094 105.76C13.702 105.666 13.4945 105.581 13.2965 105.487C13.0985 105.392 12.9005 105.27 12.7025 105.166C12.5045 105.062 12.3537 104.893 12.1651 104.77C11.9766 104.648 11.7974 104.534 11.6183 104.402C11.4391 104.27 11.2506 104.157 11.0809 104.016C10.9111 103.874 10.6754 103.808 10.5151 103.648C10.3549 103.488 10.2229 103.309 10.0814 103.148C9.94001 102.988 9.7703 102.828 9.6383 102.658C9.5063 102.488 9.49688 102.215 9.37431 102.036C9.25174 101.857 9.0726 101.706 8.96888 101.508C8.86517 101.31 8.82746 101.093 8.72374 100.886C8.62003 100.678 8.42203 100.537 8.33718 100.339C8.24289 100.112 8.21461 99.8579 8.12032 99.6222C8.02604 99.3865 7.9129 99.1696 7.81861 98.9433C7.72433 98.7171 7.68662 98.4625 7.60176 98.2362C7.5169 98.0099 7.39433 97.7836 7.30948 97.5479C7.23405 97.3122 7.11148 97.1142 6.99834 96.9162C6.87577 96.7088 6.82863 96.4448 6.66834 96.2751C6.50806 96.1054 6.24406 96.0488 6.04607 95.9168C5.84807 95.7848 5.6595 95.6717 5.43322 95.5774C5.20694 95.4831 5.01837 95.2945 4.78266 95.2002C4.54694 95.106 4.28295 95.106 4.05667 95.0023C3.81153 94.8797 3.67953 94.71 3.62296 94.578C3.55696 94.4271 3.56639 94.2385 3.70781 93.9934C3.82095 93.7954 3.89638 93.5786 4.00952 93.3806C4.12266 93.1826 4.36781 93.0694 4.49038 92.8714C4.61295 92.6734 4.65066 92.4283 4.78266 92.2491C4.91465 92.07 5.12208 91.938 5.26351 91.7494C5.40493 91.5609 5.51808 91.3817 5.66893 91.2026C5.81979 91.0235 5.96121 90.8537 6.11206 90.684C6.26292 90.5143 6.37606 90.3069 6.53635 90.1466C6.69663 89.9863 6.85691 89.826 7.02662 89.6752C7.19634 89.5243 7.38491 89.4018 7.56405 89.2509C7.77147 89.0812 8.00718 89.0435 8.24289 89.0058C8.48803 88.968 8.71432 88.9586 8.95003 89.0529C9.17631 89.1378 9.39316 89.2415 9.5723 89.43C9.73259 89.5998 9.84573 89.8072 10.006 89.9769C10.1663 90.1466 10.4114 90.2315 10.5717 90.4012C10.7509 90.5803 10.8734 90.816 11.0809 90.9292C11.2883 91.0423 11.5523 91.0423 11.788 91.08C12.0237 91.1177 12.25 91.1366 12.4951 91.1177C12.712 91.1083 12.9288 91.1649 13.1363 91.1272C13.3531 91.0894 13.57 91.0611 13.768 91.0046C13.966 90.948 14.1922 90.9009 14.3808 90.816C14.5694 90.7312 14.7202 90.5426 14.8899 90.4106C15.0597 90.2786 15.1728 90.1089 15.3142 89.9486C15.4462 89.7977 15.6348 89.6752 15.7479 89.4866C15.8516 89.3075 15.8328 89.0718 15.9082 88.8643C15.9931 88.638 16.1722 88.5061 16.3325 88.4306C16.4928 88.3552 16.6908 88.4401 16.9171 88.4306C17.1339 88.4306 17.3508 88.2892 17.5676 88.2798C17.7845 88.2703 18.0108 88.3269 18.2276 88.3175C18.4445 88.3081 18.6707 88.3458 18.8876 88.3269C19.1045 88.308 19.3213 88.2986 19.5476 88.2892C19.7739 88.2798 19.9813 88.1855 20.1982 88.1666C20.415 88.1478 20.6413 88.2232 20.8581 88.2138C21.075 88.2043 21.2919 88.1478 21.5181 88.1384C21.7444 88.1289 21.9518 88.0629 22.1687 88.0535C22.3856 88.0441 22.6118 88.0818 22.8287 88.0723C23.0455 88.0629 23.2624 88.0158 23.4887 88.0063C23.715 87.9969 23.9318 88.0346 24.1487 88.0252C24.3655 88.0158 24.5824 87.9875 24.8087 87.9781C25.0444 87.9686 25.2801 87.978 25.5158 87.9686C25.7515 87.9592 25.9872 87.9121 26.2229 87.8932C26.4586 87.8743 26.6849 87.7706 26.9206 87.7612C27.1563 87.7518 27.392 87.7612 27.6278 87.7423C27.8635 87.7235 28.0992 87.7423 28.3349 87.7329C28.5706 87.7235 28.7969 87.6481 29.0326 87.6292C29.2683 87.6104 29.504 87.6481 29.7397 87.6292C29.966 87.6198 30.2206 87.6292 30.4186 87.7141C30.692 87.8272 30.956 87.8838 31.1917 87.8744C31.4557 87.8649 31.7103 87.7801 31.9554 87.6575C32.1817 87.5444 32.3797 87.3746 32.606 87.2144C32.804 87.0729 33.0303 86.9786 33.2377 86.8844C33.4451 86.7901 33.6714 86.6675 33.9071 86.6392C34.1428 86.6109 34.388 86.5449 34.6331 86.5826C34.8594 86.6109 35.1045 86.6864 35.3402 86.7807C35.5382 86.8655 35.6325 87.0823 35.7739 87.2049C35.9342 87.3275 36.0662 87.4406 36.1605 87.6198C36.2548 87.7801 36.3302 87.9498 36.3679 88.1572C36.4056 88.3929 36.4716 88.6192 36.4811 88.8455C36.4905 89.0718 36.4245 89.3075 36.3962 89.5337C36.3679 89.76 36.3019 89.9863 36.2454 90.2032C36.1888 90.42 36.1039 90.6369 36.0096 90.8443C35.9154 91.0517 35.8399 91.2686 35.7268 91.4666C35.6137 91.6646 35.5759 91.9191 35.4439 92.1077C35.3119 92.2963 35.0762 92.4094 34.9348 92.5886C34.7745 92.7866 34.6897 93.0411 34.5011 93.2014C34.3125 93.3617 34.058 93.4371 33.8505 93.5691C33.6431 93.7011 33.4451 93.8426 33.2094 93.9463C32.9737 94.05 32.7568 94.1442 32.5211 94.2197C32.3326 94.2762 32.1346 94.3328 31.946 94.4365C31.7574 94.5403 31.5689 94.6251 31.3897 94.7194C31.3991 94.7948 31.4651 94.8702 31.4746 94.9551L31.4934 94.9457ZM19.557 96.4259C19.5004 96.6616 19.4062 96.9068 19.3496 97.1425C19.293 97.3782 19.1987 97.6045 19.1516 97.8402C19.1045 98.0759 19.0479 98.3116 19.0102 98.5473C18.9819 98.7359 19.1045 99.047 19.2459 99.179C19.3307 99.2545 19.7173 99.1885 19.8304 99.0848C19.9813 98.9433 20.1416 98.8019 20.3113 98.6322C20.4621 98.4814 20.6319 98.3399 20.7827 98.1702C20.9241 98.0099 21.0279 97.8025 21.1693 97.6328C21.3107 97.4631 21.405 97.2556 21.5464 97.0859C21.6878 96.9162 21.8858 96.7842 22.0084 96.6145C22.131 96.4448 22.3007 96.2657 22.4138 96.0865C22.5364 95.8979 22.5741 95.6622 22.6778 95.4737C22.7815 95.2662 22.8381 95.0682 22.9135 94.8702C22.9418 94.5308 22.8853 94.6063 22.395 94.446C22.2064 94.3894 21.9424 94.3422 21.6407 94.1631C21.6973 94.0123 21.8387 93.7765 21.9801 93.5125C22.0933 93.3051 22.1593 93.0506 22.2724 92.8431C22.4138 92.5886 22.5741 92.4 22.6307 92.2491C22.4987 92.136 22.2724 92.0417 21.9613 92.0606C21.7444 92.0794 21.4993 92.136 21.2447 92.1926C21.009 92.2491 20.7639 92.3057 20.5376 92.3811C20.2924 92.4566 20.085 92.6357 19.887 92.7111C19.5099 92.8525 19.3025 92.9751 19.293 93.0034C19.1893 93.2391 18.9725 93.4371 18.8593 93.6728C18.7462 93.9086 18.7367 94.1914 18.633 94.4365C18.5293 94.6817 18.2842 94.8703 18.1993 95.1154C18.0956 95.4265 17.8316 95.8225 18.1899 95.8885C18.2748 95.9074 18.5387 96.1054 18.831 96.2279C19.1045 96.3317 19.4439 96.3882 19.557 96.4259ZM26.5718 96.5297C26.3361 96.3977 25.7798 96.4542 25.6667 96.4542C25.3367 96.4636 25.1387 96.3976 24.9312 96.3694C24.7238 96.3411 24.5069 96.3222 24.1864 96.36C24.1204 96.36 23.9035 96.5391 23.6678 96.7748C23.5358 96.9068 23.4038 97.0859 23.2624 97.2556C23.1304 97.4159 22.989 97.5762 22.8664 97.7553C22.7438 97.9345 22.593 98.1042 22.4987 98.2833C22.3855 98.4908 22.3573 98.7265 22.329 98.8962C22.2818 99.1696 22.3384 99.3205 22.4233 99.443C22.5081 99.5656 22.6213 99.707 22.8853 99.773C23.1304 99.839 23.3378 99.8862 23.6113 99.9427C23.583 100.169 23.6584 100.301 23.6113 100.442C23.5453 100.64 23.4981 100.857 23.4132 101.055C23.3284 101.253 23.1681 101.423 23.1115 101.63C23.055 101.857 23.187 102.121 23.2058 102.366C23.4792 102.338 23.7432 102.319 24.0167 102.272C24.1015 102.253 24.1298 102.121 24.2052 102.045C24.3655 101.876 24.5635 101.734 24.7332 101.564C24.9029 101.395 25.1292 101.291 25.2989 101.121C25.4686 100.952 25.6195 100.772 25.7798 100.603C25.9401 100.433 26.1192 100.273 26.2795 100.094C26.4398 99.9145 26.5246 99.6788 26.6849 99.509C26.7981 99.3865 26.8358 99.2168 26.9018 99.0376C26.9678 98.8773 27.1281 98.7265 27.2035 98.5568C27.0243 98.4625 26.7886 98.4436 26.6283 98.3493C26.4586 98.2551 26.3644 98.0288 26.2041 97.9345C26.0438 97.8402 25.7892 97.8213 25.6195 97.7271C25.7892 97.5102 26.0344 97.3499 26.1852 97.1519C26.3361 96.9539 26.4021 96.7371 26.5718 96.5108V96.5297Z" fill="#FF8A95"/>
<path d="M0.464658 82.2174C0.709798 82.1702 0.870081 82.0854 1.10579 82.0382C1.3415 81.9911 1.59607 82.0005 1.82235 81.9534C2.04863 81.9062 2.31263 81.9062 2.54834 81.8591C2.78405 81.8119 3.01034 81.6799 3.24605 81.6328C3.48176 81.5857 3.7269 81.5856 3.96261 81.5385C4.19832 81.4914 4.4246 81.3594 4.66031 81.3122C4.89603 81.2651 5.15059 81.2745 5.3863 81.2274C5.62202 81.1802 5.86715 81.1425 6.10286 81.1048C6.33858 81.0671 6.58371 81.0482 6.82885 81.0105C7.07399 80.9728 7.30028 80.8597 7.53599 80.8219C7.78113 80.7937 7.99798 80.8031 8.17712 80.7182C8.37512 80.6145 8.47883 80.426 8.59197 80.2374C8.69568 80.0771 8.76168 79.8885 8.82768 79.6528C8.88425 79.436 8.9314 79.2285 8.98797 79.0117C9.04454 78.7948 9.21425 78.6251 9.28025 78.4083C9.34625 78.1914 9.3651 77.9746 9.4311 77.7671C9.4971 77.5597 9.5631 77.3523 9.6291 77.1449C9.6951 76.9374 9.7611 76.73 9.83652 76.5226C9.91195 76.3152 10.0251 76.1266 10.1005 75.9192C10.176 75.7117 10.1665 75.476 10.2514 75.278C10.3362 75.08 10.5154 74.9197 10.6002 74.7123C10.6851 74.5049 10.6474 74.2503 10.7417 74.0523C10.8359 73.8543 11.0339 73.7035 11.1282 73.5055C11.2225 73.3075 11.3356 73.1189 11.4394 72.9303C11.5431 72.7229 11.5336 72.4589 11.6468 72.2515C11.7599 72.0441 11.8919 71.8555 12.0145 71.6575C12.1371 71.4595 12.2691 71.2709 12.4011 71.0824C12.5331 70.8938 12.6462 70.6864 12.7876 70.5072C12.9291 70.3281 13.0705 70.1395 13.2213 69.9604C13.3722 69.7812 13.5608 69.6398 13.7305 69.4795C13.9002 69.3193 14.1076 69.2061 14.2773 69.0553C14.447 68.9044 14.6073 68.7347 14.7959 68.5933C14.9656 68.4707 15.0976 68.2915 15.2767 68.1784C15.4559 68.0653 15.701 68.0653 15.8802 67.9616C16.0593 67.8578 16.1724 67.6221 16.361 67.5184C16.5496 67.4147 16.7381 67.3298 16.9267 67.2356C17.1153 67.1413 17.3416 67.113 17.5301 67.0376C17.7376 66.9433 17.9261 66.783 18.1336 66.6982C18.341 66.6133 18.5673 66.5379 18.7747 66.453C18.9821 66.3681 19.2367 66.3964 19.4535 66.321C19.6704 66.2456 19.8778 66.1419 20.0947 66.0759C20.3115 66.0099 20.5472 66.0099 20.7735 65.9439C20.9998 65.8779 21.1978 65.7553 21.4147 65.6987C21.6315 65.6422 21.8672 65.6139 22.0841 65.5667C22.3009 65.5196 22.5366 65.4819 22.7629 65.4442C22.9892 65.4065 23.2155 65.3876 23.4418 65.3499C23.668 65.3122 23.8849 65.2367 24.1112 65.2085C24.3375 65.1802 24.5543 65.0765 24.7806 65.0576C25.0069 65.0387 25.2426 65.133 25.4689 65.1236C25.6952 65.1142 25.9214 64.9633 26.1477 64.9539C26.374 64.9445 26.6097 64.9916 26.836 64.9916C27.0623 64.9916 27.2886 65.1047 27.5149 65.1236C27.7411 65.1425 27.9863 65.0199 28.2126 65.0482C28.4388 65.0765 28.6557 65.1613 28.8914 65.199C29.1271 65.2367 29.3345 65.3027 29.5608 65.3405C29.7871 65.3782 30.0228 65.3687 30.2491 65.4159C30.4659 65.463 30.6734 65.5667 30.8902 65.6233C31.1071 65.6799 31.3145 65.7553 31.5314 65.8213C31.7482 65.8873 31.9651 65.9344 32.1725 66.0099C32.3799 66.0853 32.5685 66.2267 32.7665 66.3116C32.9645 66.3964 33.2002 66.4153 33.4076 66.5096C33.6151 66.6039 33.8508 66.6227 34.0488 66.7264C34.2468 66.8301 34.4165 66.9904 34.605 67.1036C34.7936 67.2167 34.9445 67.4053 35.1236 67.5278C35.3027 67.6504 35.5196 67.7353 35.6987 67.8578C35.8779 67.9804 36.057 68.1124 36.2362 68.2538C36.4153 68.3953 36.6133 68.4896 36.783 68.631C36.9527 68.7724 37.1413 68.9044 37.3016 69.0553C37.4619 69.2061 37.5656 69.4135 37.7164 69.5738C37.8673 69.7341 38.0464 69.8755 38.1878 70.0452C38.3293 70.215 38.4236 70.4224 38.5556 70.6015C38.6876 70.7807 38.8855 70.9127 39.0081 71.0918C39.1307 71.2709 39.2533 71.4595 39.3664 71.6481C39.4795 71.8367 39.6021 72.0252 39.7152 72.2138C39.8284 72.4023 39.9604 72.5815 40.0641 72.7889C40.1678 72.9963 40.2338 73.2226 40.3375 73.4301C40.4412 73.6375 40.5827 73.826 40.677 74.0335C40.7712 74.2409 40.7712 74.4955 40.8561 74.7123C40.9409 74.9292 41.0541 75.1272 41.1295 75.344C41.2049 75.5609 41.2144 75.7966 41.2709 76.0229C41.3275 76.2492 41.4124 76.4566 41.4595 76.6829C41.5067 76.9091 41.5255 77.1354 41.5632 77.3617C41.6009 77.588 41.6952 77.8049 41.7141 78.0406C41.7424 78.3234 41.7141 78.5685 41.6669 78.7854C41.6104 79.0588 41.5349 79.2945 41.3652 79.4548C41.1955 79.6151 40.9598 79.6528 40.677 79.7C40.4601 79.7377 40.2244 79.8037 39.9415 79.7848C39.7058 79.766 39.4701 79.766 39.2438 79.7565C39.0175 79.7471 38.7724 79.6717 38.5461 79.6717C38.3198 79.6717 38.0747 79.7188 37.839 79.7188C37.6033 79.7188 37.377 79.8131 37.1413 79.832C36.9056 79.8508 36.6699 79.8131 36.4342 79.832C36.1984 79.8508 35.9627 79.8508 35.7364 79.8602C35.5102 79.8697 35.2745 79.9357 35.0387 79.9545C34.803 79.9734 34.5673 79.964 34.341 79.9828C34.1148 79.9922 33.8885 80.0582 33.6622 80.0677C33.4359 80.0771 33.2002 80.0394 32.9739 80.0582C32.7476 80.0771 32.5119 80.0111 32.2856 80.0205C32.0594 80.03 31.8331 80.0583 31.5974 80.0771C31.3617 80.096 31.1448 80.1525 30.9185 80.1714C30.6922 80.1902 30.466 80.2657 30.2397 80.2845C30.0134 80.3034 29.7777 80.2845 29.5514 80.3034C29.3251 80.3222 29.0894 80.3034 28.8631 80.3222C28.6368 80.3411 28.4106 80.3977 28.1843 80.4165C27.958 80.4354 27.7223 80.4165 27.496 80.4354C27.2697 80.4542 27.034 80.3788 26.8077 80.3977C26.5814 80.4165 26.3646 80.558 26.1289 80.5768C25.8932 80.5957 25.6763 80.6334 25.45 80.6428C25.2237 80.6522 24.988 80.6051 24.7617 80.6145C24.5355 80.624 24.3092 80.7277 24.0829 80.7371C23.8566 80.7465 23.6209 80.7088 23.3946 80.7277C23.1683 80.7465 22.9421 80.7654 22.7063 80.7842C22.4706 80.8031 22.2538 80.8408 22.0275 80.8597C21.8012 80.8785 21.5655 80.8408 21.3392 80.8597C21.1129 80.8785 20.8961 80.9445 20.6698 80.9634C20.4435 80.9822 20.2172 80.9445 19.991 80.9634C19.7647 80.9822 19.5478 81.0765 19.3215 81.0954C19.0953 81.1142 18.8595 81.0105 18.6427 81.0294C18.4258 81.0482 18.1901 81.0294 17.9638 81.0388C17.7376 81.0482 17.5301 81.2368 17.3039 81.2462C17.0776 81.2557 16.8419 81.1425 16.6156 81.1614C16.3893 81.1802 16.1724 81.3217 15.9462 81.3405C15.7199 81.3594 15.4936 81.3028 15.2673 81.3217C15.041 81.3405 14.8147 81.2651 14.5885 81.2839C14.3622 81.3028 14.1359 81.3311 13.9096 81.3405C13.6833 81.3499 13.4665 81.4159 13.2402 81.4348C13.0139 81.4536 12.7971 81.5668 12.5708 81.5762C12.3445 81.5857 12.1088 81.4725 11.8825 81.4819C11.6562 81.4914 11.4394 81.6139 11.2131 81.6328C10.9868 81.6517 10.7605 81.6328 10.5342 81.6517C10.3079 81.6705 10.0911 81.7648 9.86481 81.7837C9.63853 81.8025 9.41225 81.7931 9.18596 81.8119C8.95968 81.8308 8.72397 81.7082 8.49769 81.7271C8.27141 81.7459 8.05455 81.7931 7.82827 81.8025C7.62084 81.8214 7.41342 81.8025 7.20599 81.8025C6.99857 81.8025 6.79114 81.9156 6.58371 81.9062C6.37629 81.8968 6.16886 81.8591 5.96144 81.8685C5.70687 81.8685 5.46173 82.0005 5.20716 82.0288C4.99031 82.0476 4.76403 81.9628 4.5566 81.9816C4.34918 82.0005 4.13232 82.1325 3.91547 82.1419C3.69861 82.1514 3.47233 82.0665 3.26491 82.0854C3.05748 82.1042 2.84063 82.2268 2.62377 82.2457C2.40692 82.2645 2.18063 82.1608 1.96378 82.1796C1.74693 82.1985 1.5395 82.2456 1.32265 82.2645C1.10579 82.2834 0.898366 82.3871 0.681512 82.4059C0.63437 82.4059 0.643798 82.3022 0.445801 82.1796L0.464658 82.2174Z" fill="#0096D8"/>
<path d="M28.0713 81.3216C28.2881 81.3027 28.5239 81.2933 28.7219 81.265C28.9387 81.2461 29.1367 81.1896 29.3347 81.1613C29.5421 81.1424 29.759 81.2367 29.957 81.2084C30.155 81.1801 30.353 81.0198 30.551 81.001C30.7772 80.9821 30.9941 80.9538 31.2204 80.935C31.4467 80.9161 31.673 80.9633 31.8898 80.935C32.1067 80.9067 32.3424 80.9727 32.5687 80.9538C32.7949 80.935 33.0118 80.935 33.2381 80.9161C33.4644 80.8973 33.6718 80.7653 33.8981 80.7464C34.1243 80.7276 34.3506 80.7936 34.5769 80.7747C34.8032 80.7558 35.02 80.7464 35.2463 80.737C35.4726 80.7276 35.6895 80.6993 35.9158 80.6804C36.142 80.6616 36.3589 80.5673 36.5757 80.5579C36.7926 80.5484 37.0283 80.6144 37.2546 80.5956C37.4997 80.5861 37.7354 80.539 37.99 80.539C38.2446 80.539 38.4803 80.4824 38.7254 80.4824C38.9706 80.4824 39.2063 80.5673 39.4514 80.5767C39.6966 80.5861 39.9417 80.605 40.1868 80.6144C40.432 80.6238 40.6677 80.6144 40.9222 80.6333C40.9505 80.869 40.9223 81.1141 40.9505 81.3498C40.9788 81.5855 41.1203 81.8118 41.1485 82.0475C41.1768 82.2832 41.2334 82.5284 41.2523 82.7641C41.2711 82.9998 41.1674 83.2544 41.1863 83.4995C41.1957 83.7164 41.2711 83.9332 41.2711 84.1501C41.2711 84.3669 41.2711 84.5932 41.2617 84.8101C41.2522 85.0269 41.2523 85.2532 41.224 85.4701C41.1957 85.6869 41.0542 85.8849 41.026 86.1018C40.9977 86.3186 40.9505 86.5261 40.9128 86.7429C40.8751 86.9598 40.9223 87.1955 40.8657 87.4029C40.8091 87.6198 40.7243 87.8366 40.6771 88.0535C40.63 88.2703 40.498 88.4777 40.4508 88.6946C40.4037 88.9115 40.3565 89.1377 40.3094 89.3546C40.2623 89.5714 40.3377 89.826 40.2905 90.0429C40.2434 90.2597 40.1774 90.486 40.1303 90.7029C40.0831 90.9197 39.9323 91.1271 39.8851 91.344C39.838 91.5608 39.8851 91.806 39.8286 92.0323C39.772 92.2586 39.706 92.466 39.6494 92.6922C39.5928 92.9185 39.4514 93.1071 39.3854 93.324C39.3288 93.5408 39.3854 93.786 39.31 94.0028C39.2346 94.2197 39.1686 94.4271 39.0837 94.6345C38.9989 94.8419 38.8669 95.0305 38.7726 95.2379C38.6783 95.4454 38.5934 95.6433 38.4991 95.8413C38.4049 96.0393 38.3671 96.2751 38.254 96.4731C38.1409 96.6711 38.056 96.8785 37.9429 97.0671C37.8297 97.2556 37.6223 97.3876 37.4903 97.5762C37.3583 97.7647 37.3017 97.991 37.1697 98.1702C37.0377 98.3493 36.8586 98.5002 36.7172 98.6699C36.5663 98.8396 36.34 98.9433 36.1986 99.113C36.0572 99.2827 35.9535 99.4996 35.7932 99.6599C35.6329 99.8202 35.416 99.905 35.2369 100.037C35.0578 100.169 34.9163 100.348 34.7089 100.452C34.6146 100.32 34.5675 100.226 34.5486 100.112C34.5109 99.905 34.4638 99.6976 34.4355 99.4901C34.4072 99.2827 34.3506 99.0753 34.3223 98.8679C34.2941 98.6605 34.1715 98.4624 34.1338 98.255C34.0961 98.0476 34.1621 97.8213 34.1338 97.6139C34.1055 97.4065 33.9829 97.2085 33.9452 97.0011C33.9075 96.7936 33.9452 96.5674 33.9169 96.3599C33.8886 96.1525 33.7661 95.9545 33.7284 95.7471C33.6718 95.3699 33.6529 95.1342 33.7189 94.9834C33.7849 94.8136 34.0018 94.7477 34.3789 94.6251C34.5863 94.5497 34.7749 94.4459 34.9635 94.3611C35.1615 94.2668 35.3878 94.2197 35.5575 94.1065C35.7272 93.9934 35.8969 93.8331 36.0477 93.6823C36.1986 93.5314 36.34 93.3617 36.472 93.2014C36.604 93.0411 36.736 92.862 36.8397 92.6734C36.9435 92.4848 37.0943 92.3151 37.1792 92.1171C37.264 91.9191 37.2829 91.7023 37.3489 91.4948C37.4149 91.2874 37.4432 91.08 37.4903 90.8726C37.5374 90.6651 37.5657 90.4577 37.6034 90.2503C37.6412 90.0429 37.726 89.8449 37.7449 89.6374C37.7637 89.43 37.7449 89.2132 37.7449 89.0057C37.7449 88.7983 37.7354 88.5815 37.6977 88.374C37.66 88.1666 37.528 87.9969 37.462 87.7895C37.3866 87.5726 37.33 87.3652 37.2169 87.1766C37.1037 86.988 36.9435 86.8278 36.7926 86.6675C36.6417 86.5072 36.5475 86.2621 36.3589 86.1301C36.1703 85.9981 35.9535 85.9132 35.7555 85.8095C35.5575 85.7058 35.3406 85.6115 35.1238 85.5549C34.9069 85.4983 34.6618 85.5549 34.4355 85.5361C34.2092 85.5172 33.9924 85.5361 33.7661 85.5644C33.5398 85.5926 33.3512 85.6964 33.1344 85.7812C32.9081 85.8661 32.6347 85.8849 32.4272 86.0075C32.2198 86.1301 32.069 86.3752 31.8615 86.4978C31.6447 86.6203 31.3901 86.6486 31.0978 86.8183C30.9847 86.6109 30.8244 86.46 30.7113 86.262C30.5981 86.064 30.5698 85.8095 30.4567 85.6115C30.3435 85.4135 30.221 85.2155 30.1078 85.0081C29.9947 84.8007 29.9381 84.5744 29.825 84.3764C29.7118 84.1784 29.5327 84.0087 29.429 83.8012C29.3253 83.5938 29.2593 83.3675 29.1461 83.1601C29.033 82.9527 28.8256 82.8018 28.7219 82.5944C28.6181 82.387 28.637 82.1135 28.5239 81.9155C28.4107 81.7176 28.2033 81.5196 28.0901 81.3121L28.0713 81.3216Z" fill="#007257"/>
<path d="M29.9287 86.8658C29.6176 86.9129 29.2593 86.9601 28.9387 86.9789C28.7219 86.9978 28.505 87.0167 28.2882 87.0355C28.0713 87.0544 27.8544 87.0921 27.6376 87.1015C27.4207 87.1109 27.1945 86.9884 26.9776 87.0072C26.7607 87.0261 26.5439 87.0732 26.327 87.0827C26.1102 87.0921 25.8933 87.1675 25.6765 87.1864C25.4596 87.2052 25.2428 87.2618 25.0259 87.2712C24.8091 87.2807 24.5828 87.1958 24.3659 87.2147C24.1491 87.2335 23.9322 87.2712 23.7154 87.2807C23.4985 87.2901 23.2817 87.3561 23.0648 87.3655C22.8479 87.3749 22.6311 87.4032 22.4142 87.4221C22.1974 87.4409 21.9805 87.4315 21.7637 87.4504C21.5468 87.4692 21.3205 87.4127 21.1037 87.4221C20.8868 87.4315 20.6794 87.5541 20.4625 87.5729C20.2363 87.5824 20.01 87.4975 19.7837 87.5069C19.5574 87.5164 19.3406 87.5729 19.1143 87.5824C18.888 87.5918 18.6617 87.5447 18.4449 87.5447C18.228 87.5447 17.9923 87.5258 17.7754 87.5352C17.5586 87.5446 17.3323 87.5918 17.106 87.6012C16.842 87.6012 16.644 87.5729 16.5026 87.4598C16.3612 87.3467 16.2857 87.1675 16.248 86.8941C16.2103 86.6584 16.182 86.4227 16.1066 86.2152C16.0312 85.989 15.918 85.7815 15.8049 85.593C15.6918 85.4044 15.6069 85.1498 15.4466 84.9801C15.2863 84.8104 15.06 84.7161 14.8621 84.5841C14.6641 84.4521 14.4566 84.3767 14.2398 84.2918C14.0323 84.207 13.8155 84.1599 13.5798 84.1033C13.3629 84.0561 13.1461 84.0373 12.9386 84.0184C12.7124 83.9996 12.5049 84.0184 12.2975 84.0184C12.0901 84.0184 11.8827 84.0938 11.6752 84.1504C11.4678 84.207 11.2415 84.1975 11.0435 84.2918C10.8455 84.3861 10.6758 84.5181 10.4967 84.6501C10.3175 84.7821 10.1761 84.9235 10.0253 85.0838C9.87441 85.2347 9.73298 85.395 9.61041 85.5741C9.47841 85.7533 9.41241 85.9607 9.34641 86.187C9.28041 86.4038 9.27099 86.6301 9.21442 86.8564C9.15784 87.0827 8.9787 87.2712 8.91271 87.4786C8.82785 87.7426 8.85613 88.1575 8.65814 88.2989C8.49785 88.4121 8.09243 88.2518 7.90386 88.1198C7.78129 88.0349 7.72472 87.7238 7.78129 87.5258C7.82843 87.3184 7.89444 87.1204 7.94158 86.9129C7.98872 86.7055 8.06415 86.5075 8.11129 86.3001C8.15843 86.0927 8.25272 85.8947 8.29986 85.6967C8.347 85.4987 8.281 85.2535 8.32814 85.0461C8.37529 84.8387 8.58271 84.6784 8.62985 84.471C8.677 84.2635 8.70528 84.0561 8.76185 83.8487C8.81842 83.6413 8.76185 83.415 8.81842 83.2076C8.87499 83.0001 9.0447 82.887 9.1767 82.8022C9.3087 82.7173 9.48784 82.7362 9.68584 82.7173C9.93098 82.6984 10.1573 82.5476 10.4024 82.5287C10.6475 82.5099 10.9021 82.6041 11.1378 82.5853C11.3735 82.5664 11.6187 82.491 11.8638 82.4721C12.1089 82.4533 12.3541 82.5004 12.5992 82.4816C12.8444 82.4627 13.0801 82.3779 13.3252 82.359C13.5515 82.3402 13.7872 82.3024 14.0135 82.2836C14.2398 82.2647 14.4755 82.2836 14.7018 82.2742C14.928 82.2647 15.1638 82.2459 15.39 82.227C15.6163 82.2081 15.852 82.1799 16.0783 82.161C16.3046 82.1422 16.5403 82.1422 16.7666 82.1233C16.9929 82.1044 17.2286 82.095 17.4549 82.0761C17.6812 82.0573 17.9169 82.0667 18.1431 82.0479C18.3694 82.029 18.5957 81.8876 18.822 81.8687C19.0483 81.8499 19.284 81.9253 19.5197 81.9064C19.7554 81.8876 19.9723 81.7933 20.208 81.7744C20.4437 81.7556 20.67 81.8027 20.9057 81.7933C21.1414 81.7839 21.3677 81.7556 21.594 81.7367C21.8202 81.7179 22.056 81.7084 22.2822 81.6896C22.5085 81.6707 22.7348 81.5859 22.9705 81.567C23.2062 81.5482 23.4325 81.5199 23.6588 81.501C23.8851 81.4822 24.1302 81.5953 24.3565 81.5765C24.5828 81.5576 24.8091 81.4256 25.0353 81.4067C25.2616 81.3879 25.4973 81.3973 25.7236 81.3784C26.0159 81.3596 26.3176 81.3502 26.6099 81.3219C26.8079 81.303 27.0247 81.2936 27.1662 81.369C27.3076 81.4445 27.3642 81.6519 27.4584 81.8404C27.5527 82.029 27.7602 82.161 27.8639 82.359C27.9676 82.557 27.9299 82.8021 28.0336 82.9907C28.1373 83.1793 28.3447 83.3113 28.4484 83.4998C28.5521 83.6884 28.6276 83.8864 28.7219 84.0844C28.8161 84.2824 28.9387 84.4521 29.033 84.6407C29.1273 84.8292 29.231 85.0178 29.3347 85.2064C29.4384 85.395 29.5421 85.5835 29.6364 85.7721C29.7307 85.9607 29.7118 86.2153 29.8061 86.4038C29.8438 86.4792 29.9193 86.6206 29.9193 86.8186L29.9287 86.8658Z" fill="#FF8A95"/>
<path d="M18.9443 95.3604C18.9726 95.1059 18.9726 94.8607 19.0292 94.6627C19.1046 94.4176 19.2366 94.229 19.3309 94.0404C19.4346 93.8236 19.5949 93.6539 19.6515 93.4559C19.7552 93.3521 19.9249 93.2767 20.17 93.2296C20.3586 93.1919 20.566 93.0976 20.764 93.0882C20.9903 93.0787 21.2166 93.1259 21.3769 93.1259C21.358 93.2201 21.2449 93.4182 21.1317 93.6444C21.0469 93.8047 20.9337 93.9744 20.8489 94.1441C20.7452 94.361 20.6509 94.6344 20.632 94.7381C20.8395 94.7664 21.0469 94.7947 21.2354 94.8513C21.424 94.9078 21.5749 94.9361 21.7823 94.9644C21.7352 95.1718 21.7729 95.417 21.6786 95.6621C21.5937 95.879 21.3957 96.0581 21.2732 96.2844C21.1506 96.5107 21.1129 96.7652 20.9715 96.9632C20.83 97.1612 20.5566 97.2649 20.3963 97.4347C20.2172 97.6232 20.0757 97.859 19.8872 97.9815C19.8683 97.8307 19.8872 97.5384 19.9438 97.2461C19.9909 97.0198 20.104 96.7841 20.1512 96.5578C20.2172 96.2278 20.2266 95.945 20.1512 95.8507C20.038 95.7187 19.8212 95.615 19.5949 95.5395C19.3875 95.4641 19.1329 95.4453 18.9632 95.3793L18.9443 95.3604Z" fill="#FF8A95"/>
<path d="M23.0079 98.9056C22.8571 98.5661 23.1494 98.6133 23.3568 98.3116C23.5642 98.0099 23.5642 98.0099 23.7716 97.6987C23.9791 97.3876 23.8753 97.2745 24.2053 97.0953C24.4505 96.9633 24.4693 97.2085 24.7428 97.2462C25.0162 97.2839 25.1859 97.0293 25.2896 97.2839C25.3839 97.5196 25.1576 97.5102 24.9879 97.6987C24.8182 97.8873 24.5448 97.7836 24.6108 98.0382C24.6862 98.3399 24.8842 98.1796 25.1482 98.3493C25.4122 98.519 25.4216 98.5001 25.6762 98.6793C25.9307 98.8584 26.1759 98.7547 26.2136 99.0659C26.2513 99.377 25.9873 99.3393 25.7799 99.5656C25.5725 99.7918 25.563 99.7918 25.3556 100.028C25.1482 100.263 25.1105 100.226 24.903 100.461C24.6956 100.697 24.7239 100.725 24.5071 100.961C24.2902 101.197 24.3185 101.612 24.0828 101.404C23.8094 101.168 24.1205 101.055 24.1865 100.697C24.2525 100.339 24.2242 100.339 24.2902 99.9804C24.3562 99.6221 24.7239 99.5467 24.5165 99.2544C24.2902 98.9338 24.1111 99.1507 23.7151 99.1507C23.3191 99.1507 23.1682 99.2733 23.0079 98.915V98.9056Z" fill="#FF8A95"/>
<path d="M14.3339 85.1494C14.1548 84.9986 13.9473 84.9137 13.7588 84.8194C13.5702 84.7251 13.3534 84.6497 13.1271 84.6214C12.9008 84.5931 12.6934 84.6026 12.4671 84.6403C12.2502 84.6686 12.0428 84.7251 11.8259 84.8006C11.6185 84.8666 11.43 84.9703 11.2225 85.074C11.0245 85.1777 10.836 85.2908 10.6757 85.47C10.5248 85.6303 10.4211 85.8377 10.3174 86.0451C10.2137 86.2431 10.044 86.4317 9.97797 86.658C9.91197 86.8843 9.93083 87.12 9.91197 87.3557C9.89312 87.5914 9.94969 87.8082 9.97797 88.044C10.0063 88.2797 10.0723 88.4776 10.1477 88.7039C10.2231 88.9302 10.308 89.1188 10.4305 89.3168C10.5531 89.5148 10.6474 89.7128 10.8171 89.8825C10.9585 90.0145 11.1188 90.2031 11.3262 90.2785C11.5337 90.3539 11.7694 90.4199 11.9674 90.4199C12.1937 90.4199 12.4105 90.2879 12.6179 90.2596C12.8442 90.2314 13.0422 90.1936 13.2496 90.1276C13.4571 90.0616 13.6833 90.0428 13.8719 89.9296C14.0605 89.8165 14.2585 89.7128 14.4188 89.5525C14.5696 89.4017 14.6545 89.1848 14.7676 88.9868C14.8713 88.8077 15.0505 88.6379 15.1259 88.4211C15.2202 88.1948 15.1259 87.9214 15.173 87.6951C15.2202 87.45 15.3145 87.2331 15.305 86.9974C15.2956 86.7617 15.2673 86.5165 15.1825 86.2903C15.0976 86.064 14.9845 85.8566 14.843 85.6586C14.711 85.47 14.5319 85.3097 14.3433 85.1494H14.3339ZM11.232 88.2608C11.034 88.2231 10.8831 88.0628 10.8454 87.846C10.8077 87.6574 10.8454 87.4217 10.9114 87.2425C10.9868 87.054 11.1 86.9125 11.2508 86.856C11.4017 86.7994 11.5997 86.8088 11.7694 86.8937C11.9108 86.9691 12.0994 86.988 12.2031 87.2048C12.2502 87.318 12.2502 87.4971 12.2502 87.7517C12.1088 88.0062 11.9862 88.1854 11.8637 88.2608C11.6279 88.4211 11.4111 88.2891 11.2414 88.2608H11.232Z" fill="white"/>
</svg>
