<svg width="119" height="134" viewBox="0 0 119 134" fill="none" xmlns="http://www.w3.org/2000/svg">
<path d="M70.1996 51.0948C69.8602 51.0665 70.0581 51.2079 69.6904 51.5191C69.549 51.6416 69.3605 51.7642 69.1719 51.9622C69.0305 52.1131 68.8042 52.2074 68.6345 52.4054C68.5025 52.5656 68.3516 52.7448 68.2008 52.9428C68.0688 53.1125 67.9462 53.3105 67.8047 53.5085C67.6728 53.6876 67.5879 53.9045 67.4559 54.1025C67.3333 54.2816 67.1448 54.4325 67.0128 54.6399C66.8902 54.8285 66.8336 55.0547 66.7016 55.2622C66.5885 55.4507 66.5131 55.677 66.3905 55.875C66.2773 56.0636 66.1359 56.2522 66.0134 56.4502C65.9002 56.6387 65.7022 56.7896 65.5891 56.997C65.4759 57.195 65.4948 57.459 65.3816 57.6664C65.2685 57.8739 65.0611 58.0153 64.9574 58.2227C64.8537 58.4301 64.7594 58.6376 64.6557 58.845C64.5519 59.0524 64.5142 59.2881 64.4105 59.4956C64.3068 59.703 64.2031 59.901 64.0994 60.1178C63.9957 60.3347 63.8637 60.5138 63.7694 60.7118C63.6751 60.9098 63.6468 61.1644 63.5525 61.3624C63.4582 61.5604 63.364 61.7772 63.2697 61.9752C63.1754 62.1732 63.0811 62.3901 62.9868 62.5975C62.8925 62.8049 62.6757 62.9652 62.5908 63.1632C62.506 63.3612 62.4965 63.6158 62.4117 63.8232C62.3268 64.0306 62.1571 64.2192 62.0817 64.4172C62.0063 64.6152 61.9403 64.8509 61.8648 65.0583C61.7894 65.2658 61.7234 65.492 61.648 65.6995C61.5726 65.9163 61.4406 66.1143 61.3651 66.3217C61.2897 66.5386 61.3274 66.7931 61.2614 67.01C61.186 67.2363 61.1011 67.4437 61.0351 67.6512C60.9691 67.8774 60.8371 68.0754 60.7806 68.2828C60.7146 68.5091 60.6863 68.7354 60.6391 68.9523C60.5826 69.1786 60.5071 69.3954 60.46 69.6123C60.4128 69.848 60.4128 70.0742 60.3751 70.2911C60.3374 70.5268 60.2714 70.7437 60.2526 70.9605C60.2243 71.2057 60.2431 71.4319 60.2337 71.6394C60.2243 71.8845 60.2149 72.1108 60.2337 72.3182C60.2526 72.5822 60.3186 72.7991 60.3657 72.9782C60.4412 73.2611 60.4789 73.5062 60.6014 73.6193C60.7334 73.7608 60.7711 73.921 60.724 74.1756C60.6863 74.3548 60.6297 74.5622 60.5354 74.7885C60.46 74.977 60.3563 75.1656 60.262 75.373C60.1677 75.5616 60.0829 75.7596 59.9886 75.9576C59.8943 76.1556 59.8754 76.3819 59.7906 76.5799C59.7057 76.7779 59.5737 76.957 59.4983 77.155C59.4229 77.353 59.3192 77.5604 59.272 77.7584C59.2155 77.9753 59.1777 78.1921 59.1777 78.3996C59.1777 78.6258 59.206 78.8333 59.2814 79.0313C59.3569 79.2293 59.4889 79.4367 59.6303 79.6347C59.7623 79.8138 59.9603 79.9458 60.13 80.1155C60.2903 80.2758 60.4129 80.4833 60.6014 80.6435C60.7806 80.785 60.9314 80.9829 61.1294 81.1244C61.3274 81.2658 61.5254 81.3695 61.7328 81.5015C61.9403 81.6335 62.1194 81.7655 62.3268 81.8881C62.5343 82.0107 62.7983 82.0012 63.0151 82.1049C63.232 82.2086 63.4205 82.3501 63.6374 82.4444C63.8542 82.5387 64.0617 82.6612 64.2785 82.7461C64.5048 82.8403 64.7311 82.9063 64.9385 82.9818C65.1742 83.0666 65.3911 83.1609 65.5985 83.2175C65.7965 83.2741 66.0322 83.2646 66.2773 83.3118C66.4848 83.3589 66.7016 83.4061 66.9373 83.4438C67.1542 83.4815 67.371 83.5381 67.6068 83.5758C67.8236 83.6041 68.0405 83.6983 68.2762 83.7266C68.5119 83.7549 68.7382 83.6701 68.9645 83.6889C69.1907 83.7078 69.417 83.7361 69.6433 83.7549C69.8696 83.7738 70.0864 83.8586 70.3127 83.8775C70.539 83.8963 70.7747 83.8492 71.001 83.868C71.2273 83.8869 71.463 83.9246 71.6799 83.9435C71.9156 83.9623 72.1418 83.9529 72.3587 83.9718C72.5944 83.9906 72.8207 84.0095 73.0375 84.0189C73.2921 84.0283 73.5184 84.0472 73.7164 84.0566C74.0087 84.0661 74.2349 84.1132 74.3952 84.1226C74.5838 84.1226 74.7629 83.9906 74.9609 83.7832C75.1024 83.6418 75.2909 83.4909 75.4324 83.2741C75.5549 83.0949 75.6775 82.8875 75.7906 82.6706C75.9038 82.4727 75.9698 82.2369 76.0735 82.0295C76.1772 81.8221 76.2243 81.5864 76.3186 81.3695C76.4129 81.1432 76.5449 80.9453 76.6298 80.7378C76.7241 80.5021 76.8372 80.2852 76.9032 80.0967C77.054 79.7007 77.252 79.7855 77.1389 79.4555C77.0352 79.1538 76.9126 79.3141 76.6769 79.0218C76.5543 78.8804 76.4883 78.673 76.3846 78.4561C76.2998 78.277 76.1583 78.0979 76.13 77.8716C76.1018 77.6736 76.1678 77.4661 76.2055 77.2399C76.2338 77.0419 76.2055 76.8156 76.2998 76.5987C76.3564 76.4667 76.4506 76.2593 76.5638 75.9859C76.6392 75.8067 76.7052 75.5899 76.7995 75.3636C76.8749 75.175 76.9315 74.9582 77.0258 74.7413C77.1106 74.5433 77.2143 74.3548 77.2992 74.1379C77.384 73.9399 77.4783 73.7419 77.5726 73.5251C77.6575 73.3271 77.8272 73.1573 77.912 72.9405C77.9969 72.7236 78.0063 72.5068 78.1006 72.2899C78.1949 72.0731 78.3457 71.9128 78.4306 71.7054C78.5154 71.4979 78.5155 71.2622 78.6003 71.0548C78.6852 70.8474 78.7889 70.6494 78.8737 70.442C78.9586 70.2345 79.034 70.0271 79.1189 69.8197C79.2037 69.6123 79.3263 69.4237 79.4112 69.2163C79.496 69.0089 79.5526 68.792 79.6374 68.5846C79.7223 68.3771 79.8166 68.1791 79.9109 67.9717C80.0051 67.7643 80.1372 67.5757 80.222 67.3683C80.3069 67.1609 80.3163 66.9157 80.4106 66.7083C80.5049 66.5009 80.5803 66.2935 80.6652 66.086C80.75 65.8786 80.8537 65.6806 80.9386 65.4732C81.0234 65.2658 81.0894 65.0489 81.1743 64.8415C81.2591 64.634 81.3723 64.436 81.4571 64.2286C81.542 64.0212 81.6457 63.8138 81.7305 63.6158C81.8154 63.3989 81.9003 63.1915 81.9757 62.9935C82.0605 62.7766 82.1171 62.5598 82.1926 62.3618C82.2868 62.1449 82.4283 61.9658 82.5131 61.7678C82.6074 61.5415 82.7488 61.3529 82.8242 61.1644C82.9185 60.9287 82.994 60.7118 83.0694 60.5421C83.2297 60.1555 83.2391 60.2498 83.3428 59.9387C83.4465 59.6275 83.3051 59.6558 83.4182 59.2504C83.4654 59.0618 83.5974 58.8544 83.6728 58.6093C83.7294 58.4019 83.6917 58.1567 83.7577 57.921C83.8237 57.7136 83.9368 57.5062 84.0028 57.2799C84.0688 57.0536 84.2385 56.8744 84.3045 56.6576C84.3705 56.4407 84.4554 56.2239 84.5308 56.0165C84.6156 55.7902 84.5591 55.5262 84.644 55.3282C84.7382 55.1019 84.9268 54.9322 85.0116 54.7436C85.1342 54.489 85.2096 54.291 85.3228 54.1685C85.1059 54.1779 84.8891 54.1967 84.6534 54.225C84.4365 54.2439 84.2102 54.2816 83.9745 54.3099C83.7577 54.3382 83.5408 54.4231 83.3051 54.4513C83.0882 54.4796 82.8525 54.423 82.6168 54.4419C82.4 54.4608 82.1643 54.4419 81.938 54.4419C81.7211 54.4513 81.4948 54.5645 81.2591 54.5739C81.0423 54.5739 80.8066 54.5173 80.5709 54.5079C80.354 54.4985 80.1183 54.5173 79.8826 54.4985C79.6657 54.4796 79.4394 54.4325 79.2037 54.4042C78.9869 54.3759 78.77 54.2722 78.5343 54.2345C78.3175 54.1968 78.0818 54.225 77.8555 54.1779C77.6386 54.1308 77.4123 54.0836 77.1861 54.027C76.9692 53.9705 76.7901 53.7913 76.5638 53.7159C76.3375 53.6405 76.1206 53.6122 75.9038 53.5462C75.6869 53.4802 75.4512 53.4802 75.2249 53.3954C74.9986 53.3105 74.8195 53.1879 74.6026 53.103C74.3858 53.0182 74.1784 52.9428 73.9615 52.8579C73.7447 52.7731 73.5844 52.6034 73.3675 52.5091C73.1507 52.4148 72.9244 52.3865 72.717 52.2922C72.5095 52.1979 72.2738 52.1602 72.0664 52.0471C71.859 51.9339 71.661 51.8491 71.4536 51.7454C71.2461 51.6417 71.1235 51.3965 70.9161 51.2834C70.7087 51.1702 70.4824 51.1514 70.275 51.0288L70.1996 51.0948Z" fill="#082C4C"/>
<path d="M78.3837 33.0582L81.9382 27.7971C82.2305 27.7971 82.4756 27.8349 82.6642 27.948C82.8811 28.08 83.0885 28.2497 83.2299 28.4477C83.3714 28.6457 83.4562 28.9097 83.5788 29.0983C83.7013 29.2868 83.7391 29.532 83.8711 29.7111C84.0031 29.8902 84.135 30.0788 84.267 30.258C84.399 30.4371 84.5593 30.6068 84.7008 30.7765C84.8422 30.9462 85.0307 31.0877 85.1816 31.2574C85.3324 31.4271 85.4267 31.6439 85.5776 31.8042C85.7285 31.9645 85.9359 32.0871 86.0962 32.2474C86.2564 32.4076 86.445 32.5302 86.6053 32.6811C86.7656 32.8319 86.907 33.0111 87.0767 33.1619C87.2464 33.3128 87.3407 33.5391 87.5104 33.6805C87.6801 33.8219 87.9441 33.8596 88.1139 34.0105C88.2836 34.1613 88.3873 34.3876 88.557 34.5196C88.7267 34.6516 88.9152 34.7836 89.0944 34.925C89.2735 35.0665 89.4904 35.1325 89.6695 35.2645C89.8487 35.3965 90.0278 35.5379 90.207 35.6605C90.3861 35.783 90.5558 35.9433 90.735 36.0753C90.9141 36.2073 91.1498 36.2545 91.3384 36.377C91.5269 36.4996 91.7061 36.6222 91.8946 36.7447C92.0926 36.8767 92.2906 36.9993 92.4981 37.1219C92.7055 37.2444 92.8375 37.4802 93.0449 37.5933C93.2523 37.7064 93.5069 37.7442 93.7143 37.8573C93.9218 37.9704 94.0915 38.159 94.2989 38.2721C94.5063 38.3853 94.7232 38.4607 94.9306 38.5833C94.9306 38.9227 95.0343 39.2621 94.9306 39.545C94.8552 39.7524 94.7326 39.9504 94.6572 40.1578C94.5818 40.3653 94.6195 40.6198 94.5441 40.8272C94.4686 41.0347 94.3649 41.2327 94.2895 41.4495C94.214 41.6664 94.0632 41.8361 93.9877 42.0435C93.9123 42.2509 93.8463 42.4678 93.7615 42.6752C93.6766 42.8826 93.5635 43.0712 93.4786 43.2786C93.3938 43.4861 93.3372 43.7029 93.2429 43.9009C93.1486 44.0989 93.0261 44.2875 92.9224 44.4855C92.8186 44.6835 92.7526 44.9003 92.6489 45.0983C92.5452 45.2963 92.4321 45.4849 92.3189 45.6829C92.2058 45.8809 92.1304 46.0883 92.0172 46.2769C91.9041 46.4655 91.7249 46.6163 91.6118 46.8049C91.4987 46.9934 91.4044 47.2009 91.2818 47.38C91.1592 47.5592 91.0461 47.7572 90.9141 47.9363C90.7821 48.1154 90.6501 48.2946 90.5087 48.4643C90.3672 48.634 90.2447 48.8226 90.1032 48.9923C89.9618 49.1714 89.877 49.3977 89.7261 49.558C89.5753 49.7183 89.3772 49.8503 89.217 50.0011C89.0567 50.152 88.8587 50.2746 88.689 50.416C88.5193 50.5574 88.3401 50.6894 88.1515 50.8214C87.963 50.9534 87.7838 51.076 87.5953 51.1985C87.4067 51.3211 87.2181 51.4437 87.0201 51.5474C86.8222 51.6511 86.6524 51.8114 86.445 51.9057C86.2376 51.9999 86.0019 52.0188 85.7944 52.0942C85.587 52.1697 85.3608 52.1885 85.1439 52.2639C84.927 52.3394 84.729 52.4148 84.5122 52.4714C84.2953 52.5279 84.0785 52.5562 83.8522 52.6034C83.6259 52.6505 83.4373 52.8202 83.2205 52.8579C82.9942 52.8957 82.7679 52.8957 82.5511 52.9239C82.3342 52.9522 82.0985 52.9522 81.8816 52.9711C81.6648 52.9899 81.4385 53.0182 81.2122 53.0276C80.9859 53.0371 80.7597 53.0182 80.5428 53.0182C80.326 53.0182 80.0903 53.0748 79.864 53.0654C79.6377 53.0559 79.4114 53.0276 79.1945 52.9994C78.9777 52.9711 78.7514 52.9145 78.5346 52.8862C78.3177 52.8579 78.1103 52.7448 77.884 52.6976C77.6577 52.6505 77.422 52.7071 77.2051 52.6505C76.9883 52.5939 76.7714 52.5279 76.5546 52.4619C76.3377 52.3959 76.1492 52.2545 75.9417 52.1791C75.7343 52.1037 75.4986 52.0754 75.2912 51.9905C75.0837 51.9057 74.8952 51.7831 74.6877 51.6794C74.4803 51.5757 74.2823 51.4908 74.0843 51.3777C73.8863 51.2645 73.6978 51.142 73.5092 51.0288C73.3206 50.9157 73.1321 50.7837 72.9435 50.6611C72.7549 50.5291 72.5946 50.3688 72.4061 50.2462C72.2175 50.1237 72.0195 50.0011 71.8498 49.8691C71.6801 49.7371 71.5198 49.5486 71.3501 49.4166C71.1804 49.2846 70.9918 49.1431 70.8221 49.0017C70.6524 48.8603 70.445 48.7471 70.2847 48.5963C70.1244 48.4454 69.917 48.3323 69.7472 48.1814C69.5775 48.0306 69.4455 47.842 69.2947 47.6817C69.1438 47.5214 69.0024 47.3423 68.8516 47.1726C68.7007 47.0029 68.5593 46.8332 68.4084 46.6635C68.2576 46.4937 68.1256 46.3146 67.9936 46.1355C67.8616 45.9563 67.7767 45.7395 67.6541 45.5509C67.5316 45.3623 67.343 45.2209 67.2299 45.0229C67.1167 44.8249 67.0696 44.5986 66.9564 44.4006C66.8433 44.2026 66.6736 44.0424 66.5793 43.8444C66.485 43.6464 66.4002 43.4389 66.3153 43.2315C66.2305 43.0241 66.1173 42.8261 66.0419 42.6186C65.9664 42.4112 65.8533 42.2132 65.7779 41.9964C65.7025 41.7795 65.6553 41.5627 65.5893 41.3458C65.5233 41.129 65.4762 40.8932 65.4102 40.6764C65.4667 40.3558 65.627 40.5067 65.8439 40.1578C65.9476 39.9976 66.0042 39.7713 66.1362 39.5544C66.2493 39.3847 66.4284 39.2433 66.5604 39.0453C66.6736 38.8661 66.7113 38.6304 66.8339 38.4419C66.947 38.2627 67.079 38.0836 67.2016 37.8856C67.3242 37.6876 67.4184 37.5084 67.541 37.3199C67.6636 37.1313 67.805 36.9616 67.9181 36.773C68.0313 36.5845 68.1255 36.377 68.2387 36.1885C68.3518 35.9999 68.4744 35.8113 68.5875 35.6228C68.7007 35.4342 68.861 35.2645 68.9741 35.0759C69.0872 34.8873 69.1344 34.6422 69.2381 34.463C69.3512 34.2651 69.455 34.0671 69.5587 33.8785C69.6718 33.6711 69.7944 33.4919 69.8887 33.3033C70.0018 33.0865 70.0772 32.8696 70.1621 32.6999C70.2847 32.4454 70.3884 32.2568 70.4355 32.1154C70.4827 31.9362 70.5675 31.7288 70.6335 31.4743C70.6901 31.2763 70.7372 31.0594 70.8032 30.8331C70.8598 30.6257 70.8786 30.3994 70.9446 30.1825C71.0106 29.9657 71.1238 29.7677 71.1804 29.5508C71.2369 29.334 71.3501 29.136 71.4161 28.9191C71.4821 28.7023 71.5198 28.476 71.5764 28.2686C71.6424 28.0423 71.7178 27.8254 71.7649 27.6274C71.8309 27.3823 71.7932 27.1372 71.8404 26.958C71.9441 26.562 71.7272 26.3829 72.0572 26.364C72.3872 26.3452 72.1986 26.5432 72.3495 26.9391C72.4155 27.1183 72.4532 27.3446 72.5569 27.5803C72.6324 27.7689 72.6324 28.014 72.7361 28.2403C72.8209 28.4383 72.9152 28.6457 73.0189 28.8531C73.1132 29.0511 73.3395 29.1831 73.4526 29.3905C73.5563 29.5885 73.5752 29.8337 73.6883 30.0317C73.8015 30.2297 73.9618 30.39 74.0843 30.588C74.2069 30.786 74.32 30.9745 74.452 31.1631C74.584 31.3517 74.716 31.5308 74.848 31.71C74.98 31.8891 75.1686 32.0305 75.31 32.2097C75.4514 32.3888 75.5363 32.6056 75.6872 32.7754C75.838 32.9451 75.97 33.1336 76.1303 33.2939C76.2906 33.4542 76.5357 33.5202 76.7054 33.6711C76.8751 33.8219 77.0166 34.0011 77.2051 34.133C77.3937 34.265 77.5917 34.3593 77.7897 34.4725C77.9877 34.5856 78.1668 34.7082 78.3743 34.8119C78.5817 34.9156 78.7608 35.057 78.9777 35.1325C79.1945 35.2079 79.4302 35.1985 79.6471 35.255C79.864 35.3116 80.0902 35.3305 80.3165 35.3588C80.5428 35.387 80.7597 35.5285 80.986 35.5285C81.25 35.5285 81.4762 35.3776 81.6082 35.1985C81.7308 35.0382 81.7308 34.7836 81.7779 34.5385C81.8157 34.3216 81.8911 34.0953 81.8911 33.8691C81.8911 33.6428 81.8628 33.3976 81.8439 33.1902C81.8062 32.8036 81.8911 32.8414 81.8345 32.5114C81.7779 32.1814 81.7214 32.2568 81.6742 31.8514C81.6554 31.6534 81.5611 31.4271 81.5422 31.1725C81.5234 30.9557 81.4951 30.72 81.4857 30.4842C81.4762 30.2485 81.6176 30.0223 81.6176 29.796C81.6176 29.5697 81.5422 29.3246 81.5516 29.1077C81.5705 28.8626 81.6271 28.6363 81.6648 28.4289C81.7214 28.1554 81.7874 27.9291 81.9005 27.8066L78.3837 33.0582Z" fill="#FF8A95"/>
<path d="M62.6191 102.121C62.7606 101.923 62.8548 101.763 63.0246 101.612C63.2037 101.452 63.3734 101.292 63.5714 101.178C63.7788 101.056 63.9863 100.943 64.2031 100.877C64.42 100.811 64.6746 100.848 64.9008 100.811C65.1271 100.773 65.344 100.613 65.5797 100.594C65.8154 100.575 66.0511 100.622 66.2774 100.622C66.5037 100.622 66.7205 100.641 66.9091 100.603C67.1354 100.566 67.3428 100.518 67.5313 100.452C67.7293 100.377 67.9179 100.254 68.0876 100.141C68.2573 100.028 68.3799 99.8396 68.5214 99.6793C68.6534 99.5284 68.8608 99.4247 68.9833 99.2362C69.0965 99.0664 69.0965 98.8307 69.2096 98.6327C69.3228 98.4347 69.4265 98.2367 69.5396 98.0387C69.6528 97.8407 69.8413 97.6899 69.9545 97.5013C70.0676 97.3128 70.1053 97.0676 70.2279 96.879C70.3505 96.6905 70.5673 96.5585 70.6899 96.3699C70.8125 96.1813 70.8407 95.9362 70.9633 95.7476C71.0859 95.5591 71.1896 95.3611 71.3122 95.1725C71.4347 94.9839 71.5196 94.7671 71.6327 94.5785C71.7459 94.3899 71.9533 94.2485 72.0664 94.0505C72.1796 93.8525 72.3116 93.6734 72.4341 93.4848C72.5567 93.2962 72.6038 93.0605 72.717 92.872C72.8301 92.6834 72.981 92.5042 73.0942 92.3062C73.2073 92.1083 73.3016 91.9008 73.4147 91.7123C73.5279 91.5237 73.707 91.3634 73.8201 91.1654C73.9333 90.9674 73.9616 90.7223 74.0841 90.5243C74.2067 90.3263 74.4047 90.1754 74.5178 89.9774C74.631 89.7794 74.6498 89.5249 74.763 89.3269C74.8761 89.1289 75.0741 88.978 75.1872 88.78C75.3004 88.582 75.4324 88.3934 75.5455 88.186C75.6587 87.9786 75.6775 87.7335 75.7812 87.5355C75.8849 87.3375 75.9887 87.13 76.1018 86.9226C76.2149 86.7152 76.4507 86.5926 76.5638 86.3946C76.677 86.1966 76.7712 85.9892 76.8844 85.7818C76.9975 85.5743 77.0258 85.3386 77.1389 85.1406C77.2521 84.9426 77.3087 84.7069 77.4218 84.5089C77.5349 84.3109 77.7706 84.1789 77.8743 83.9715C77.9781 83.7641 78.0441 83.5378 78.1572 83.3398C78.2704 83.1418 78.4401 82.9721 78.5532 82.7741C78.6663 82.5761 78.6852 82.3215 78.7983 82.1235C78.9115 81.9255 78.9963 81.7087 79.1001 81.5013C79.2038 81.2938 79.3923 81.1335 79.5055 80.9356C79.6186 80.7281 79.6752 80.4641 79.8072 80.2756C79.9486 80.0681 80.1466 79.9173 80.3635 79.823C80.552 79.7476 80.7595 79.823 81.0423 79.9079C81.2592 79.9739 81.5137 79.9078 81.7212 79.9738C81.9286 80.0398 82.1077 80.2378 82.3152 80.3038C82.5226 80.3698 82.7488 80.3887 82.9657 80.4547C83.1826 80.5207 83.4183 80.5113 83.6257 80.5773C83.8331 80.6433 84.0406 80.747 84.248 80.813C84.4554 80.879 84.6628 80.9638 84.8797 81.0393C85.0966 81.1147 85.2945 81.1995 85.502 81.2844C85.7094 81.3693 85.9074 81.4635 86.1148 81.5484C86.3222 81.6333 86.5674 81.6144 86.7748 81.6993C86.9822 81.7841 87.1519 81.9538 87.3594 82.0481C87.5668 82.1424 87.7931 82.1707 88.0005 82.265C88.2079 82.3593 88.4153 82.4252 88.6228 82.5195C88.8302 82.6138 89.0094 82.7458 89.2073 82.8401C89.4053 82.9344 89.641 83.0475 89.839 83.1607C89.7448 83.3681 89.6316 83.6038 89.5468 83.8112C89.4619 84.0186 89.3488 84.2166 89.2639 84.4241C89.1791 84.6315 89.0188 84.8106 88.9245 85.0181C88.8302 85.2255 88.8773 85.4895 88.7736 85.6875C88.6699 85.8855 88.4531 86.0269 88.3399 86.2155C88.2174 86.4041 88.1796 86.6492 88.0571 86.8378C87.9345 87.0263 87.7365 87.1678 87.6139 87.3658C87.4914 87.5638 87.4348 87.79 87.3217 87.9786C87.2085 88.1672 87.1331 88.3934 87.0199 88.5914C86.9068 88.7894 86.6994 88.9214 86.5768 89.1194C86.4542 89.3174 86.4165 89.5531 86.294 89.7417C86.1714 89.9303 85.9734 90.0811 85.8602 90.2697C85.7471 90.4583 85.6905 90.694 85.568 90.8825C85.4454 91.0711 85.2851 91.2408 85.1625 91.4294C85.04 91.618 84.9834 91.8537 84.8703 92.0423C84.7571 92.2308 84.578 92.3911 84.4554 92.5797C84.3328 92.7682 84.2385 92.9757 84.116 93.1642C83.9934 93.3528 83.8331 93.5225 83.7106 93.7111C83.588 93.8996 83.4371 94.0788 83.324 94.2674C83.2108 94.4559 83.1072 94.6633 82.994 94.8613C82.8809 95.0593 82.7583 95.2479 82.6357 95.4365C82.5132 95.6251 82.4754 95.8702 82.3529 96.0588C82.2303 96.2473 81.9852 96.3605 81.8626 96.549C81.74 96.7376 81.6457 96.945 81.5231 97.1336C81.4006 97.3222 81.3063 97.5296 81.1837 97.7276C81.0612 97.9256 80.9386 98.1047 80.816 98.2933C80.7029 98.4819 80.5709 98.661 80.4578 98.8496C80.3446 99.0382 80.2409 99.2361 80.1183 99.4247C79.9958 99.6133 79.9392 99.8396 79.826 100.019C79.7129 100.198 79.628 100.415 79.5055 100.603C79.3829 100.792 79.1755 100.914 79.0529 101.103C78.9209 101.301 78.7983 101.508 78.6852 101.716C78.5721 101.923 78.5249 102.168 78.4212 102.376C78.3175 102.583 78.1761 102.781 78.0912 103.008C78.0064 103.234 77.8649 103.432 77.7989 103.658C77.7329 103.884 77.7141 104.13 77.6575 104.356C77.6009 104.582 77.5349 104.818 77.4972 105.053C77.4595 105.289 77.4501 105.525 77.4312 105.761C77.4124 105.996 77.3464 106.232 77.3369 106.468C77.3275 106.703 77.3558 106.939 77.3558 107.184C77.3558 107.411 77.3652 107.646 77.3558 107.873C77.3464 108.099 77.2332 108.325 77.2144 108.551C77.1955 108.778 77.2521 109.013 77.2144 109.249C77.1767 109.485 77.2238 109.721 77.1861 109.947C77.1484 110.173 77.0352 110.39 76.9975 110.616C76.9598 110.843 76.9786 111.078 76.9315 111.305C76.8844 111.531 76.7995 111.748 76.7524 111.974C76.7052 112.2 76.7241 112.436 76.6675 112.662C76.6109 112.889 76.4129 113.077 76.3658 113.303C76.3186 113.53 76.281 113.747 76.215 113.954C76.149 114.161 76.1961 114.425 76.1112 114.633C76.0264 114.84 75.7907 114.982 75.6964 115.189C75.6021 115.396 75.5738 115.632 75.4607 115.83C75.3475 116.028 75.1778 116.179 75.0458 116.368C74.9138 116.556 74.8195 116.764 74.6781 116.933C74.5367 117.103 74.4141 117.301 74.2633 117.471C74.1124 117.64 73.9616 117.81 73.8013 117.97C73.641 118.131 73.4241 118.225 73.2544 118.376C73.0847 118.527 72.9527 118.725 72.783 118.866C72.6133 119.008 72.4153 119.13 72.2362 119.262C72.0382 119.404 71.8024 119.479 71.6044 119.592C71.4064 119.705 71.1896 119.809 70.9728 119.903C70.7559 119.998 70.5579 120.167 70.3316 120.233C70.1053 120.299 69.8508 120.271 69.6151 120.299C69.3793 120.328 69.1436 120.318 68.9079 120.318C68.6722 120.318 68.4459 120.262 68.2102 120.224C67.9745 120.186 67.7388 120.196 67.5125 120.139C67.2862 120.082 67.0505 120.045 66.8242 119.96C66.5979 119.866 66.3528 119.809 66.1454 119.696C65.9379 119.583 65.7683 119.375 65.5797 119.234C65.3911 119.092 65.1743 118.96 65.014 118.791C64.8537 118.621 64.7782 118.376 64.6462 118.168C64.5143 117.961 64.3257 117.81 64.2314 117.584C64.1465 117.367 64.0805 117.131 64.0334 116.896C63.9863 116.669 63.958 116.443 63.9203 116.226C63.8826 116.009 63.76 115.792 63.7223 115.566C63.6846 115.34 63.7883 115.095 63.76 114.868C63.7317 114.642 63.7223 114.416 63.7034 114.19C63.6845 113.963 63.6185 113.737 63.6091 113.511C63.5997 113.285 63.5808 113.058 63.5808 112.832C63.5808 112.606 63.5714 112.379 63.5808 112.153C63.5903 111.927 63.5808 111.701 63.5997 111.474C63.6186 111.248 63.6657 111.022 63.694 110.795C63.7223 110.569 63.7317 110.343 63.7788 110.117C63.826 109.89 63.9486 109.692 64.0051 109.466C64.0617 109.24 64.1748 109.042 64.2408 108.825C64.3068 108.608 64.354 108.382 64.4388 108.174C64.5237 107.967 64.5426 107.722 64.6368 107.514C64.7311 107.307 64.8443 107.109 64.948 106.911C65.0517 106.713 65.2025 106.534 65.3157 106.336C65.4477 106.119 65.5042 105.902 65.5985 105.732C65.7305 105.487 65.872 105.317 65.9191 105.157C65.9757 104.912 65.872 104.78 65.7117 104.592C65.5985 104.46 65.4948 104.271 65.2591 104.12C65.0988 104.016 64.9103 103.913 64.6934 103.781C64.5048 103.668 64.3445 103.526 64.156 103.413C63.9674 103.3 63.8071 103.158 63.6186 103.045C63.43 102.932 63.2509 102.819 63.0717 102.696C62.9209 102.593 62.8643 102.451 62.6286 102.15L62.6191 102.121Z" fill="#FF8A95"/>
<path d="M73.6317 27.4953C73.528 27.3068 73.33 27.137 73.2546 26.8919C73.1886 26.675 73.1509 26.4393 73.1037 26.2036C73.0566 25.9679 73.132 25.7133 73.0849 25.4871C73.0377 25.2419 72.8963 25.025 72.8492 24.8176C72.7832 24.5348 72.7643 24.2708 72.6795 24.1294C72.5475 23.9314 72.3777 23.9596 72.1232 24.2613C71.9912 24.4216 71.8215 24.5725 71.6895 24.7799C71.5763 24.9591 71.4726 25.1665 71.3689 25.3739C71.2746 25.5719 71.2369 25.7982 71.1426 26.0151C71.0578 26.2131 70.8692 26.3828 70.7843 26.5996C70.6995 26.8165 70.7372 27.0616 70.6618 27.2785C70.5863 27.4953 70.4638 27.6839 70.3978 27.9007C70.3318 28.1176 70.2658 28.3345 70.1998 28.5513C70.1338 28.7682 69.9641 28.9567 69.8981 29.1736C69.8321 29.3904 69.8509 29.6356 69.7849 29.8524C69.7189 30.0693 69.5492 30.2578 69.4832 30.4747C69.4172 30.6915 69.4172 30.9367 69.3512 31.1441C69.2852 31.3516 69.1438 31.559 69.0778 31.7758C69.0118 31.9927 68.9364 32.2095 68.8609 32.4264C68.7855 32.6432 68.7101 32.8601 68.6347 33.0675C68.5498 33.2844 68.4744 33.5012 68.3895 33.6992C68.2952 33.9161 68.2198 34.1329 68.1255 34.3215C68.0124 34.5384 67.9841 34.7835 67.8615 34.9532C67.7295 35.1512 67.5127 35.2832 67.3901 35.4718C67.2581 35.6698 67.1167 35.8489 66.9847 36.0375C66.8433 36.2355 66.7678 36.4618 66.6358 36.6409C66.4944 36.8389 66.3718 37.0369 66.2398 37.216C66.089 37.414 65.957 37.612 65.825 37.7723C65.6647 37.9703 65.5421 38.1777 65.4101 38.3286C65.2216 38.5266 65.0236 38.6586 64.8821 38.7812C64.6276 38.9886 64.4013 39.0169 64.2504 39.0263C63.9864 39.0546 63.9016 38.8754 63.8167 38.6492C63.713 38.3286 63.6659 37.9703 63.5056 38.1777C63.4584 37.9703 63.3642 37.7346 63.2699 37.48C63.1944 37.2538 63.0719 37.0275 62.987 36.7918C62.8927 36.5466 62.7796 36.3109 62.7136 36.1035C62.6193 35.8112 62.6665 35.5378 62.657 35.368C62.6476 35.1418 62.5439 34.9249 62.5345 34.6986C62.525 34.4724 62.591 34.2461 62.591 34.0198C62.591 33.7935 62.5533 33.5672 62.5627 33.3409C62.5722 33.1147 62.525 32.8884 62.5345 32.6621C62.5439 32.4358 62.6853 32.219 62.6947 31.9927C62.7042 31.7664 62.7702 31.5496 62.789 31.3233C62.8079 31.097 62.723 30.8613 62.7513 30.635C62.7796 30.4087 62.7985 30.1824 62.8362 29.9656C62.8739 29.7487 63.0247 29.5413 63.0624 29.3244C63.1002 29.1076 63.0719 28.8625 63.1285 28.6456C63.185 28.4287 63.3264 28.2307 63.383 28.0139C63.4396 27.797 63.449 27.5613 63.515 27.3539C63.581 27.1465 63.7224 26.9485 63.7884 26.7316C63.8544 26.5148 63.911 26.2979 63.9864 26.0905C64.0619 25.883 64.0807 25.6473 64.1656 25.4399C64.2504 25.2325 64.3636 25.0345 64.4579 24.8271C64.5522 24.6196 64.5993 24.3934 64.703 24.1954C64.8067 23.9974 65.0141 23.8465 65.1178 23.6485C65.2216 23.4505 65.2498 23.2148 65.363 23.0168C65.4761 22.8188 65.6647 22.6774 65.7873 22.4888C65.9098 22.3003 65.957 22.0645 66.0796 21.876C66.2021 21.6874 66.3058 21.4894 66.4378 21.3008C66.5698 21.1123 66.749 20.9708 66.881 20.7917C67.013 20.6126 67.1261 20.4146 67.2675 20.2449C67.4089 20.0751 67.5221 19.8677 67.6635 19.698C67.805 19.5283 67.9369 19.3397 68.0878 19.17C68.2386 19.0003 68.4744 18.9154 68.6252 18.7551C68.7761 18.5949 68.8798 18.3686 69.0306 18.2177C69.1815 18.0669 69.3889 17.9349 69.5492 17.784C69.7095 17.6332 69.9169 17.52 70.0866 17.3692C70.2564 17.2183 70.3789 17.0203 70.5486 16.8789C70.7183 16.7375 70.8975 16.596 71.0766 16.4546C71.2558 16.3132 71.4443 16.2001 71.6235 16.0586C71.8026 15.9172 71.9252 15.7003 72.1138 15.5683C72.3023 15.4363 72.5003 15.3138 72.6889 15.1912C72.8774 15.0686 73.1603 15.0875 73.3583 14.9838C73.5563 14.8801 73.7449 14.7386 73.9523 14.6538C74.1597 14.5689 74.3389 14.3898 74.5557 14.3144C74.7726 14.2389 74.9989 14.1824 75.2157 14.1164C75.4326 14.0504 75.6777 14.0598 75.8945 14.0032C76.1114 13.9467 76.3283 13.8524 76.5545 13.8147C76.7808 13.7769 76.9977 13.6921 77.224 13.6544C77.4502 13.6166 77.686 13.6827 77.9122 13.6638C78.1385 13.6449 78.3648 13.6167 78.5911 13.6072C78.8174 13.5978 79.0437 13.5884 79.2699 13.5884C79.4962 13.5884 79.7225 13.5978 79.9488 13.6072C80.1751 13.6167 80.4014 13.5789 80.6371 13.5978C80.8728 13.6166 81.0896 13.6921 81.3159 13.7109C81.5422 13.7298 81.7685 13.7769 81.9947 13.8052C82.221 13.8335 82.4567 13.7581 82.683 13.7958C82.9093 13.8335 83.1262 13.8806 83.343 13.9278C83.5599 13.9749 83.7579 14.1164 83.9747 14.1729C84.1916 14.2295 84.4084 14.2861 84.6158 14.3615C84.8233 14.4369 85.0684 14.4181 85.2758 14.5029C85.4833 14.5878 85.6813 14.7009 85.8887 14.7858C86.0961 14.8706 86.2941 14.9743 86.5015 15.0686C86.709 15.1629 86.9164 15.2478 87.1144 15.3515C87.3124 15.4552 87.4727 15.6249 87.6612 15.7381C87.8498 15.8512 88.1044 15.87 88.293 15.9926C88.4815 16.1152 88.6135 16.3132 88.7927 16.4452C88.9718 16.5772 89.1415 16.7186 89.3207 16.86C89.4998 17.0015 89.7167 17.0769 89.8864 17.2183C90.0561 17.3597 90.1786 17.5577 90.3484 17.7086C90.5181 17.8595 90.6689 18.0103 90.8292 18.1706C90.9895 18.3309 91.1875 18.444 91.3383 18.6137C91.4892 18.7834 91.6589 18.9249 91.8097 19.0946C91.9606 19.2643 92.0832 19.4434 92.2246 19.6131C92.366 19.7828 92.4697 19.9809 92.6112 20.16C92.7526 20.3391 92.8846 20.5088 93.0166 20.6974C93.1486 20.886 93.2335 21.084 93.356 21.2726C93.4786 21.4611 93.686 21.5931 93.8086 21.7817C93.9311 21.9703 93.9877 22.1965 94.1009 22.3851C94.214 22.5831 94.3743 22.7528 94.4874 22.9508C94.6006 23.1488 94.6854 23.3657 94.7797 23.5637C94.874 23.7617 94.94 23.9879 95.0437 24.1954C95.1474 24.4028 95.2134 24.6102 95.3077 24.8176C95.402 25.025 95.5151 25.2231 95.6 25.4305C95.6849 25.6379 95.798 25.8359 95.8734 26.0528C95.9488 26.2696 95.9206 26.5148 95.9866 26.7316C96.0526 26.9485 96.2317 27.1276 96.2883 27.3445C96.3448 27.5613 96.2788 27.8159 96.326 28.0327C96.3731 28.2496 96.524 28.4476 96.5711 28.6739C96.6183 28.9002 96.6088 29.1264 96.656 29.3527C96.7031 29.579 96.8445 29.777 96.8728 30.0033C96.9011 30.2295 96.9011 30.4558 96.9294 30.6821C96.9577 30.9084 97.0048 31.1253 97.0331 31.3516C97.0614 31.5778 96.9577 31.8135 96.9765 32.0398C96.9954 32.2661 97.0897 32.483 97.1085 32.7093C97.1274 32.9355 97.2123 33.1524 97.2217 33.3787C97.2311 33.6049 97.2217 33.8312 97.2217 34.0575C97.2217 34.2838 97.1934 34.5101 97.1934 34.7364C97.1934 34.9626 97.1934 35.1889 97.1934 35.4152C97.1934 35.6415 97.184 35.8678 97.184 36.0941C97.184 36.3203 97.0708 36.5278 97.0143 36.7635C96.9577 36.9803 96.9105 37.1595 96.854 37.4046C96.6371 37.4235 96.4863 37.4612 96.2883 37.4423C96.0714 37.4235 95.864 37.4423 95.666 37.3952C95.468 37.348 95.2606 37.282 95.0626 37.216C94.8646 37.15 94.7232 36.9615 94.5346 36.8672C94.346 36.7729 94.1103 36.7823 93.9311 36.6786C93.752 36.5749 93.62 36.3863 93.4409 36.2826C93.2523 36.1789 93.0166 36.1412 92.8186 36.0092C92.6395 35.8866 92.5075 35.6792 92.3283 35.5378C92.1492 35.4058 91.9795 35.2738 91.8003 35.1323C91.6212 34.9909 91.3855 34.9343 91.2158 34.7835C91.046 34.6326 90.9235 34.4441 90.7538 34.2932C90.5841 34.1424 90.3672 34.0575 90.1975 33.8972C90.0278 33.7369 89.9146 33.5484 89.7449 33.3975C89.5752 33.2467 89.3772 33.1335 89.2075 32.9827C89.0378 32.8318 88.9529 32.6055 88.7927 32.4453C88.6324 32.285 88.4344 32.1624 88.2741 32.0021C88.1138 31.8418 87.9064 31.7381 87.7461 31.5778C87.5858 31.4175 87.4255 31.2573 87.2653 31.097C87.105 30.9367 86.9918 30.7293 86.841 30.569C86.6901 30.4087 86.5958 30.173 86.445 30.0033C86.2941 29.8336 86.1338 29.6733 85.983 29.5036C85.8321 29.3338 85.6341 29.2019 85.4927 29.0416C85.3513 28.8813 85.1439 28.7493 84.993 28.5796C84.8421 28.4099 84.6724 28.2496 84.531 28.0893C84.3896 27.929 84.3236 27.6556 84.1727 27.4953C84.0219 27.335 83.8427 27.1747 83.7013 27.005C83.5505 26.8259 83.3147 26.7316 83.1733 26.5619C83.0224 26.3828 82.9847 26.1188 82.8433 25.9585C82.683 25.7793 82.485 25.6473 82.3436 25.4871C82.1833 25.3079 82.0419 25.1288 81.9005 24.9779C81.7308 24.7894 81.6176 24.5819 81.4856 24.4499C81.2216 24.1671 81.0048 24.0822 80.9576 24.0916C80.9293 24.0916 80.9576 24.3179 80.9576 24.7422C80.9576 24.9402 80.8822 25.1665 80.8822 25.4305C80.8822 25.6473 80.9199 25.8736 80.9199 26.1282C80.9199 26.345 80.8539 26.5807 80.8539 26.8259C80.8539 27.0522 80.9576 27.2785 80.9576 27.5236C80.9576 27.7687 80.9293 27.9856 80.9293 28.2213C80.9293 28.457 80.8822 28.6833 80.8822 28.919C80.8822 29.1547 80.9671 29.381 80.9765 29.6167C80.9859 29.8524 80.9388 30.0881 80.9482 30.3144C80.9576 30.5407 80.967 30.7858 80.967 31.0121C80.967 31.2384 81.0048 31.4836 81.0048 31.7098C81.0048 31.955 80.9482 32.1907 80.9482 32.4075C80.9482 32.6527 81.0142 32.8884 81.0142 33.1052C81.0142 33.3692 80.9482 33.605 80.9482 33.803C80.9482 34.1895 80.9765 34.4252 80.9765 34.4818C80.9293 34.5195 80.7031 34.6327 80.3259 34.5667C80.1468 34.5384 79.9205 34.4535 79.6754 34.3781C79.4868 34.3121 79.3076 34.1612 79.0814 34.0575C78.8928 33.9727 78.6665 33.9255 78.4591 33.803C78.2799 33.6992 78.0914 33.5672 77.9028 33.4258C77.7331 33.3032 77.554 33.1618 77.3748 33.0109C77.2145 32.8695 77.026 32.747 76.8563 32.5867C76.7054 32.4358 76.5451 32.2755 76.3848 32.1058C76.2434 31.9455 76.0926 31.7758 75.9511 31.5967C75.8191 31.427 75.6966 31.2384 75.5551 31.0498C75.4231 30.8801 75.4043 30.6256 75.2723 30.4276C75.1497 30.2484 74.914 30.1353 74.7914 29.9373C74.6783 29.7487 74.6783 29.4941 74.5652 29.2961C74.4614 29.1076 74.254 28.9662 74.1503 28.7587C74.0466 28.5513 73.9617 28.3533 73.858 28.1553C73.7543 27.9573 73.7449 27.7216 73.6412 27.5047L73.6317 27.4953Z" fill="#007257"/>
<path d="M86.3036 40.9024C86.2941 41.1758 86.2376 41.4586 86.1527 41.6755C86.049 41.9301 85.7944 42.0715 85.6153 42.2224C85.4079 42.3921 85.2099 42.5618 84.9459 42.5524C84.7479 42.5429 84.5216 42.4958 84.3236 42.3826C84.1539 42.2789 84.0313 42.0715 83.8899 41.9112C83.7485 41.7509 83.5976 41.6001 83.5128 41.4115C83.4185 41.2135 83.2865 40.9966 83.2959 40.7986C83.2959 40.5347 83.409 40.2612 83.5316 40.0349C83.6542 39.8087 83.871 39.6107 84.069 39.4598C84.2859 39.2901 84.531 39.1958 84.7856 39.1958C85.0025 39.1958 85.1722 39.2995 85.3607 39.3938C85.5493 39.4881 85.7284 39.5729 85.8604 39.7332C85.9924 39.8935 86.0679 40.0821 86.1339 40.2801C86.1999 40.4781 86.3224 40.6666 86.313 40.8835L86.3036 40.9024Z" fill="#FFD400"/>
<path d="M74.4711 40.4406C74.4523 40.7046 74.3863 40.9403 74.3108 41.1289C74.2165 41.3835 74.0468 41.5249 73.8677 41.6474C73.6885 41.77 73.4623 41.9115 73.1983 41.8738C72.9531 41.836 72.7646 41.6474 72.5854 41.4966C72.4063 41.3457 72.2837 41.1572 72.1989 40.9403C72.114 40.7235 72.0669 40.5066 72.0951 40.2615C72.1234 40.0069 72.1423 39.7523 72.2649 39.5638C72.3969 39.3658 72.6609 39.3186 72.8777 39.2149C73.0757 39.1206 73.2925 38.9604 73.5377 38.9887C73.8017 39.0169 74.0185 39.1112 74.16 39.2244C74.3297 39.3564 74.3297 39.6015 74.3768 39.8183C74.4145 40.0069 74.49 40.2143 74.4805 40.4406H74.4711Z" fill="#FFD400"/>
<path d="M78.0442 46.2861C78.1857 46.4558 78.3554 46.6255 78.5062 46.7953C78.6382 46.9555 78.7608 47.1441 78.9211 47.3327C79.0531 47.4929 79.1568 47.6155 79.3171 47.8041C79.0625 47.7852 78.9117 47.7098 78.7137 47.6627C78.4685 47.6061 78.1951 47.6627 78.0159 47.5778C77.7991 47.4647 77.6577 47.2572 77.5257 47.0687C77.3937 46.8801 77.3559 46.6727 77.3088 46.4181C77.2617 46.1541 77.2428 45.9184 77.2711 45.6827C77.2994 45.447 77.4031 45.2207 77.5539 45.0133C77.6859 44.8247 77.8085 44.6078 78.0442 44.4476C78.2328 44.325 78.4497 44.259 78.7137 44.1553C78.6382 44.4193 78.6005 44.6361 78.5345 44.853C78.4591 45.0981 78.3742 45.3244 78.3082 45.5601C78.2422 45.7958 78.1385 46.0221 78.0631 46.2767L78.0442 46.2861Z" fill="#FFD400"/>
<path d="M64.2223 35.0001C63.8923 35.0944 64.1374 35.1981 64.0054 35.5941C63.9394 35.7827 63.7791 35.9712 63.7037 36.2069C63.6377 36.4049 63.6754 36.6595 63.6094 36.8952C63.5434 37.1026 63.4302 37.3101 63.3737 37.5363C63.3171 37.7626 63.2134 37.9606 63.1568 38.1869C63.1003 38.4132 63.0814 38.6395 63.0343 38.8658C62.9871 39.092 62.9777 39.3278 62.94 39.5446C62.9023 39.7803 62.9023 40.0066 62.874 40.2235C62.8457 40.4592 62.7043 40.6855 62.6948 40.9023C62.6948 41.1569 62.7231 41.3926 62.7608 41.6C62.808 41.8546 62.9494 42.062 63.0814 42.2128C63.2134 42.3637 63.2888 42.59 63.4303 42.8163C63.5434 42.9954 63.6943 43.1746 63.798 43.4008C63.9017 43.5988 64.0431 43.7874 64.1374 44.0137C64.2317 44.24 64.3071 44.4474 64.3825 44.6642C64.458 44.8811 64.59 45.0885 64.656 45.3148C64.722 45.5411 64.8068 45.7674 64.8539 45.9937C64.9011 46.2294 64.7974 46.4839 64.8162 46.7102C64.8445 46.9553 64.9011 47.1816 64.8822 47.3985C64.8634 47.6531 64.7691 47.8605 64.6748 48.0396C64.5617 48.2565 64.4768 48.4168 64.2411 48.5016C64.4674 48.4168 64.6277 48.2942 64.7974 48.1622C64.9671 48.0302 65.1745 47.8888 65.3065 47.6908C65.4385 47.4928 65.4762 47.2665 65.5611 47.0496C65.6459 46.8328 65.6931 46.6253 65.7308 46.3896C65.7685 46.1539 65.8534 45.9465 65.8628 45.7108C65.8722 45.4751 65.7779 45.2582 65.7591 45.0225C65.7402 44.7868 65.7119 44.57 65.6648 44.3437C65.6177 44.1174 65.6365 43.8722 65.5611 43.6554C65.4857 43.4291 65.3537 43.2311 65.25 43.0426C65.1368 42.8257 64.9859 42.656 64.8539 42.4957C64.6937 42.3071 64.6371 42.0526 64.5994 41.8263C64.5617 41.6 64.5617 41.3643 64.5994 41.1286C64.6371 40.9117 64.7031 40.676 64.7879 40.4497C64.8634 40.2329 65.0237 40.0443 65.1179 39.8274C65.2122 39.6106 65.2311 39.3655 65.3254 39.158C65.4197 38.9506 65.6271 38.7715 65.7025 38.5546C65.7874 38.3189 65.8534 38.0832 65.8911 37.8758C65.9288 37.6306 65.9382 37.376 65.8722 37.1686C65.7968 36.9329 65.7119 36.7066 65.6082 36.5086C65.4951 36.2918 65.3537 36.0938 65.2217 35.9147C65.0708 35.7072 64.8822 35.5375 64.7408 35.3961C64.4485 35.1038 64.5428 34.9341 64.2128 35.0189L64.2223 35.0001Z" fill="#007257"/>
<path d="M94.5914 30.8897C94.648 30.5691 94.714 30.7105 94.978 30.4182C95.1006 30.2768 95.242 30.1166 95.4117 29.9374C95.5531 29.796 95.7134 29.6546 95.8831 29.4943C96.034 29.3528 96.1943 29.2114 96.3734 29.0794C96.5525 28.9474 96.7034 28.806 96.8825 28.6834C97.0617 28.5608 97.2031 28.3723 97.3917 28.2686C97.5802 28.1648 97.7971 28.0894 97.9951 28.014C98.1931 27.9386 98.4382 27.9763 98.6456 27.948C98.8531 27.9197 99.0605 27.948 99.2774 27.9669C99.4942 27.9857 99.6922 28.0046 99.8996 28.08C100.098 28.1554 100.314 28.1837 100.503 28.3063C100.692 28.4289 100.908 28.5326 101.078 28.6834C101.248 28.8343 101.418 29.004 101.568 29.1737C101.719 29.3434 101.776 29.5885 101.917 29.7771C102.059 29.9657 102.191 30.1354 102.304 30.3334C102.417 30.5314 102.587 30.7011 102.69 30.8991C102.794 31.0971 102.851 31.3234 102.936 31.5402C103.02 31.7571 102.983 32.0022 103.058 32.2191C103.134 32.4359 103.266 32.6339 103.313 32.8508C103.36 33.0677 103.492 33.2845 103.53 33.5014C103.567 33.7182 103.454 33.9728 103.482 34.1991C103.511 34.4253 103.596 34.6422 103.605 34.8685C103.614 35.0948 103.605 35.321 103.605 35.5473C103.605 35.7736 103.699 36.0093 103.68 36.2356C103.662 36.4619 103.548 36.6882 103.52 36.905C103.492 37.1407 103.426 37.3482 103.379 37.565C103.332 37.8102 103.332 38.0553 103.322 38.2721C103.303 38.5173 103.426 38.7436 103.445 38.9698C103.473 39.215 103.445 39.4507 103.492 39.6581C103.558 39.8938 103.558 40.1484 103.652 40.3464C103.756 40.5727 103.935 40.7424 104.058 40.931C104.199 41.1478 104.416 41.2798 104.548 41.4307C104.831 41.7418 104.991 41.6004 104.916 41.9398C104.84 42.2792 104.736 41.9398 104.322 41.921C104.133 41.921 103.907 41.921 103.652 41.9021C103.445 41.8832 103.228 41.8078 102.992 41.7701C102.775 41.7324 102.54 41.8078 102.313 41.7512C102.087 41.6947 101.88 41.6381 101.663 41.5721C101.446 41.5061 101.276 41.3175 101.069 41.2327C100.861 41.1478 100.616 41.1478 100.418 41.0347C100.22 40.9215 100.098 40.7141 99.9185 40.5727C99.7394 40.4313 99.4848 40.3747 99.3339 40.205C99.1831 40.0353 99.0605 39.8373 98.9474 39.6393C98.8342 39.4413 98.8625 39.1961 98.7965 38.9793C98.7305 38.7719 98.6174 38.5833 98.5891 38.3476C98.5608 38.1401 98.5042 37.9139 98.5137 37.6687C98.5137 37.4519 98.6551 37.2445 98.6928 37.0087C98.7305 36.773 98.6645 36.5467 98.6834 36.3393C98.7022 36.1036 98.7399 35.8868 98.7399 35.6793C98.7399 35.4436 98.6362 35.2362 98.5985 35.0382C98.5514 34.8025 98.5514 34.5856 98.4665 34.397C98.3722 34.1802 98.2685 33.9916 98.1365 33.8219C97.9951 33.6428 97.8631 33.4637 97.684 33.3317C97.5048 33.1997 97.3257 33.0394 97.1182 32.9639C96.9108 32.8885 96.6657 32.9074 96.4488 32.8602C96.2226 32.8131 96.0057 32.6999 95.7983 32.6905C95.5531 32.6811 95.3269 32.7471 95.1289 32.7565C94.7423 32.7848 94.5537 33.1714 94.4217 32.8696C94.2897 32.5679 94.5537 32.5114 94.5537 32.1814C94.5537 31.8514 94.5349 31.8514 94.5349 31.5119C94.5349 31.1725 94.4971 31.182 94.5537 30.852L94.5914 30.8897Z" fill="#007257"/>
<path d="M91.8473 82.1614C91.6305 82.0766 91.4136 82.0294 91.2062 81.954C90.9988 81.8786 90.7819 81.7749 90.5745 81.6995C90.3671 81.624 90.1313 81.5769 89.9239 81.492C89.7165 81.4072 89.4996 81.3223 89.2828 81.2375C89.0659 81.1526 88.8868 80.9829 88.6794 80.898C88.472 80.8132 88.2174 80.8226 88.0099 80.7378C87.8025 80.6529 87.614 80.5115 87.3971 80.4266C87.1802 80.3417 86.954 80.3229 86.7371 80.2381C86.5202 80.1532 86.3317 80.0212 86.1243 79.9457C85.9168 79.8703 85.6717 79.8515 85.4643 79.776C85.2569 79.7006 85.0117 79.6818 84.8043 79.6063C84.5969 79.5309 84.38 79.4649 84.1632 79.3801C83.9463 79.2952 83.7389 79.2292 83.5314 79.1444C83.3146 79.0595 83.1354 78.8898 82.9092 78.8144C82.6829 78.7389 82.4754 78.6541 82.2586 78.5786C82.0417 78.5032 81.8343 78.3901 81.6081 78.3146C81.3818 78.2392 81.1366 78.2486 80.9198 78.1638C80.7029 78.0789 80.5049 77.9469 80.288 77.8621C80.0712 77.7772 79.8261 77.7584 79.6186 77.6735C79.4112 77.5887 79.2132 77.4472 78.9964 77.3529C78.7418 77.2398 78.5721 77.0984 78.4212 76.9947C78.1761 76.8344 78.0724 76.7212 78.0252 76.5232C77.9875 76.3441 77.9309 76.1272 78.0252 75.8538C78.0818 75.6747 78.2515 75.4955 78.3552 75.2504C78.4401 75.0618 78.4684 74.8261 78.5627 74.6093C78.6475 74.4113 78.8267 74.251 78.9209 74.0341C79.0058 73.8361 79.0624 73.6193 79.1472 73.4024C79.2321 73.2044 79.2509 72.9687 79.3358 72.7519C79.4207 72.535 79.5809 72.3747 79.6658 72.1673C79.7506 71.9599 79.8543 71.7713 79.9392 71.5639C80.0241 71.3565 80.0712 71.1396 80.1655 70.9322C80.2598 70.7247 80.3164 70.5173 80.4012 70.3099C80.4861 70.1025 80.5521 69.8856 80.6369 69.6782C80.7218 69.4708 80.8915 69.3011 80.9763 69.0936C81.0612 68.8862 81.1272 68.6693 81.212 68.4619C81.2969 68.2545 81.3723 68.0377 81.4572 67.8302C81.5421 67.6228 81.6269 67.4154 81.7118 67.1985C81.7966 66.9817 81.7966 66.7459 81.8815 66.5385C81.9663 66.3311 82.1549 66.1614 82.2397 65.9539C82.3246 65.7465 82.3718 65.5202 82.4566 65.3128C82.5415 65.1054 82.6075 64.8886 82.6829 64.6811C82.7583 64.4737 82.9092 64.2851 82.9846 64.0777C83.06 63.8703 83.0883 63.6346 83.1637 63.4271C83.2392 63.2197 83.2486 62.9746 83.324 62.7671C83.3994 62.5503 83.5597 62.3617 83.6257 62.1637C83.7012 61.9469 83.8143 61.7489 83.8803 61.5414C83.9557 61.3152 84.0217 61.0983 84.0877 60.9003C84.1537 60.6646 84.1537 60.4289 84.2103 60.2309C84.2763 59.9858 84.2574 59.75 84.2857 59.5709C84.3423 59.2315 84.3329 59.0146 84.2574 58.9298C84.3517 58.7035 84.5214 58.4961 84.6063 58.2698C84.6911 58.0435 84.7006 57.7889 84.7948 57.5721C84.8891 57.3552 85.0589 57.1667 85.1437 56.9498C85.2286 56.7329 85.2663 56.4878 85.3606 56.2615C85.4548 56.0352 85.5963 55.8467 85.6811 55.6298C85.766 55.413 85.8886 55.2055 85.9828 54.9887C86.0771 54.7718 86.1431 54.5455 86.2468 54.3287C86.3411 54.1118 86.5108 53.9327 86.6805 53.7347C86.8502 53.5367 87.0011 53.3387 87.2085 53.235C87.4065 53.1313 87.6045 53.0276 87.8025 52.9239C88.0005 52.8202 88.1797 52.6787 88.3777 52.575C88.5757 52.4713 88.8114 52.4241 88.9999 52.311C89.1885 52.1979 89.3677 52.047 89.5562 51.9339C89.7448 51.8207 89.8674 51.5944 90.0559 51.4719C90.2445 51.3493 90.4708 51.2739 90.6405 51.1324C90.8102 50.991 90.9799 50.8402 91.1402 50.6799C91.3005 50.5196 91.4985 50.4065 91.6493 50.2368C91.8002 50.067 91.8473 49.8219 91.9887 49.6428C92.1302 49.4636 92.2905 49.3033 92.4508 49.2373C92.6299 49.1525 92.8562 49.2373 93.0542 49.2845C93.2333 49.3222 93.4125 49.3788 93.5916 49.5013C93.7802 49.6239 93.9687 49.737 94.1479 49.869C94.327 50.001 94.4873 50.1613 94.6664 50.2933C94.8456 50.4253 95.0153 50.5668 95.185 50.7082C95.3547 50.8496 95.5433 50.9627 95.713 51.1136C95.8827 51.2644 96.0995 51.3493 96.2598 51.5002C96.4201 51.651 96.5898 51.8019 96.7407 51.9621C96.8915 52.1224 97.0707 52.2733 97.2121 52.4336C97.3535 52.5939 97.3818 52.8673 97.5138 53.037C97.6458 53.2067 97.7684 53.3953 97.8815 53.5838C97.9947 53.7724 98.2021 53.9044 98.3058 54.093C98.4095 54.2816 98.5321 54.4795 98.6264 54.6775C98.7207 54.8755 98.7112 55.1207 98.7867 55.3281C98.8621 55.5355 98.9752 55.7241 99.0318 55.9409C99.0884 56.1578 99.0884 56.3747 99.1355 56.601C99.1827 56.8272 99.2675 57.0252 99.2958 57.2515C99.3241 57.4684 99.3618 57.6852 99.3806 57.9021C99.3995 58.1189 99.4466 58.3358 99.4749 58.5526C99.5032 58.7695 99.4466 58.9958 99.4749 59.2126C99.5032 59.4295 99.5692 59.6463 99.5787 59.8632C99.5881 60.08 99.5598 60.3063 99.5787 60.5232C99.5975 60.74 99.5409 60.9663 99.5504 61.1832C99.5598 61.4 99.6352 61.6169 99.6446 61.8337C99.6541 62.0506 99.5786 62.2769 99.5881 62.4937C99.5975 62.7106 99.7201 62.9274 99.7295 63.1443C99.7389 63.3611 99.7201 63.578 99.7295 63.8043C99.7389 64.0305 99.7012 64.238 99.7012 64.4548C99.7012 64.6811 99.6446 64.9074 99.6446 65.1337C99.6446 65.36 99.7295 65.5957 99.7201 65.8125C99.7106 66.0294 99.7201 66.2651 99.7012 66.4914C99.6823 66.7177 99.6446 66.9439 99.6164 67.1702C99.5881 67.3965 99.5598 67.6228 99.5221 67.8491C99.4844 68.0754 99.3524 68.2828 99.3147 68.4996C99.2769 68.7165 99.3618 68.9711 99.3147 69.1879C99.2675 69.4048 99.0789 69.6028 99.0318 69.8196C98.9846 70.0365 99.0035 70.2816 98.9375 70.4985C98.8715 70.7153 98.8715 70.951 98.8055 71.1679C98.7395 71.3847 98.5698 71.5733 98.5038 71.7807C98.4378 71.9882 98.4378 72.2427 98.3624 72.4502C98.287 72.6576 98.1267 72.8461 98.0418 73.0536C97.957 73.261 97.8815 73.4779 97.7872 73.6853C97.6929 73.8927 97.5893 74.0907 97.4855 74.2981C97.3818 74.5055 97.2875 74.7035 97.1838 74.911C97.0801 75.1184 97.0141 75.3352 96.9104 75.5332C96.8067 75.7312 96.6558 75.9104 96.5427 76.1084C96.4296 76.3064 96.3541 76.5232 96.241 76.7212C96.1278 76.9192 96.0053 77.1078 95.8827 77.2964C95.7601 77.4849 95.5904 77.6452 95.4678 77.8432C95.3453 78.0412 95.3453 78.3052 95.2133 78.4938C95.0813 78.6824 94.855 78.7955 94.723 78.9841C94.5816 79.1821 94.5156 79.4272 94.3647 79.6158C94.2139 79.8043 94.0442 79.9646 93.8839 80.1438C93.7236 80.3229 93.5539 80.4832 93.3842 80.6623C93.2145 80.8415 93.1013 81.0489 92.941 81.228C92.7807 81.4072 92.611 81.5674 92.4508 81.7466C92.2905 81.9257 92.0642 82.0295 91.9039 82.2086L91.8473 82.1614Z" fill="#082C4C"/>
<path d="M71.4728 51.1325C71.1617 51.2173 71.3125 51.2833 71.1334 51.6133C71.0391 51.783 70.9071 51.9622 70.8223 52.179C70.7468 52.377 70.7562 52.6033 70.7091 52.8202C70.6619 53.037 70.5488 53.235 70.5394 53.4519C70.53 53.6687 70.5488 53.895 70.6148 54.1024C70.6808 54.3099 70.8128 54.4796 70.9637 54.6587C71.0862 54.8096 71.2748 54.9227 71.4728 55.0547C71.6331 55.1584 71.7934 55.3376 72.0102 55.4224C72.1988 55.4978 72.4345 55.4413 72.6702 55.4978C72.9059 55.5544 73.1039 55.5733 73.3113 55.6016C73.5471 55.6298 73.7545 55.7618 73.9525 55.7618C74.1882 55.7618 74.405 55.6487 74.603 55.611C74.8387 55.5638 75.0273 55.479 75.2065 55.3941C75.4139 55.2904 75.6496 55.2433 75.8005 55.1018C75.9702 54.9416 76.0928 54.7436 76.187 54.5644C76.3096 54.357 76.3945 54.1401 76.451 53.9516C76.5547 53.5933 76.8282 53.3576 76.5076 53.3481C76.187 53.3387 76.4887 53.5744 76.517 53.9704C76.5264 54.1684 76.4982 54.3947 76.583 54.6398C76.649 54.8378 76.7527 55.0358 76.8847 55.2433C76.9979 55.413 77.1299 55.6015 77.2996 55.7713C77.4504 55.9127 77.6579 56.0164 77.8653 56.1484C78.0444 56.2615 78.2141 56.4124 78.431 56.5161C78.6196 56.601 78.8647 56.6104 79.091 56.6764C79.3456 56.7612 79.5624 56.799 79.7793 56.8272C80.0433 56.865 80.2601 56.865 80.477 56.8272C80.7315 56.7895 80.9673 56.7707 81.1653 56.667C81.3821 56.5444 81.5141 56.3464 81.665 56.1672C81.8158 55.9787 81.9855 55.7995 82.0798 55.5921C82.1835 55.3564 82.1929 55.1018 82.2401 54.8944C82.3344 54.4984 82.5889 54.5173 82.3815 54.2344C82.1835 53.961 82.1741 54.1873 81.7498 54.1496C81.5612 54.1307 81.3349 54.1213 81.0804 54.0836C80.8729 54.0553 80.6467 54.0836 80.411 54.0458C80.2035 54.0176 79.9773 53.961 79.751 53.9233C79.5436 53.8856 79.3173 53.8667 79.0815 53.8196C78.8647 53.7819 78.6479 53.7441 78.4216 53.697C78.2047 53.6498 78.0161 53.4707 77.7993 53.4142C77.5824 53.3576 77.3373 53.433 77.111 53.367C76.8847 53.301 76.6867 53.2162 76.4699 53.1596C76.253 53.103 76.0456 53.0182 75.8288 52.9522C75.6119 52.8862 75.4139 52.773 75.197 52.6976C74.9802 52.6222 74.7916 52.5184 74.5748 52.4336C74.3579 52.3487 74.1222 52.3582 73.9148 52.2639C73.7074 52.1696 73.5188 52.0376 73.3113 51.9433C73.1039 51.849 72.8871 51.7925 72.6797 51.6982C72.4722 51.6039 72.3119 51.4342 72.1045 51.3305C71.8971 51.2268 71.6991 51.2362 71.5011 51.123L71.4728 51.1325Z" fill="white"/>
<path d="M71.4728 51.1325C71.1617 51.2173 71.3125 51.2833 71.1334 51.6133C71.0391 51.783 70.9071 51.9622 70.8223 52.179C70.7468 52.377 70.7562 52.6033 70.7091 52.8202C70.6619 53.037 70.5488 53.235 70.5394 53.4519C70.53 53.6687 70.5488 53.895 70.6148 54.1024C70.6808 54.3099 70.8128 54.4796 70.9637 54.6587C71.0862 54.8096 71.2748 54.9227 71.4728 55.0547C71.6331 55.1584 71.7934 55.3376 72.0102 55.4224C72.1988 55.4978 72.4345 55.4413 72.6702 55.4978C72.9059 55.5544 73.1039 55.5733 73.3113 55.6016C73.5471 55.6298 73.7545 55.7618 73.9525 55.7618C74.1882 55.7618 74.405 55.6487 74.603 55.611C74.8388 55.5638 75.0273 55.479 75.2065 55.3941C75.4139 55.2904 75.6496 55.2433 75.8005 55.1018C75.9702 54.9416 76.0928 54.7436 76.187 54.5644C76.3096 54.357 76.3945 54.1401 76.451 53.9516C76.5547 53.5933 76.8282 53.3576 76.5076 53.3481C76.187 53.3387 76.4887 53.5744 76.517 53.9704C76.5264 54.1684 76.4982 54.3947 76.583 54.6398C76.649 54.8378 76.7527 55.0358 76.8847 55.2433C76.9979 55.413 77.1299 55.6015 77.2996 55.7713C77.4504 55.9127 77.6579 56.0164 77.8653 56.1484C78.0444 56.2615 78.2141 56.4124 78.431 56.5161C78.6196 56.601 78.8647 56.6104 79.091 56.6764C79.3456 56.7612 79.5624 56.799 79.7793 56.8272C80.0433 56.865 80.2601 56.865 80.477 56.8272C80.7315 56.7895 80.9673 56.7707 81.1653 56.667C81.3821 56.5444 81.5141 56.3464 81.665 56.1672C81.8158 55.9787 81.9855 55.7995 82.0798 55.5921C82.1835 55.3564 82.1929 55.1018 82.2401 54.8944C82.3344 54.4984 82.5889 54.5173 82.3815 54.2344C82.1835 53.961 82.1741 54.1873 81.7498 54.1496C81.5612 54.1307 81.3349 54.1213 81.0804 54.0836C80.8729 54.0553 80.6467 54.0836 80.411 54.0458C80.2035 54.0176 79.9773 53.961 79.751 53.9233C79.5436 53.8856 79.3173 53.8667 79.0815 53.8196C78.8647 53.7819 78.6479 53.7441 78.4216 53.697C78.2047 53.6498 78.0161 53.4707 77.7993 53.4142C77.5824 53.3576 77.3373 53.433 77.111 53.367C76.8847 53.301 76.6867 53.2162 76.4699 53.1596C76.253 53.103 76.0456 53.0182 75.8288 52.9522C75.6119 52.8862 75.4139 52.773 75.197 52.6976C74.9802 52.6222 74.7916 52.5184 74.5748 52.4336C74.3579 52.3487 74.1222 52.3582 73.9148 52.2639C73.7074 52.1696 73.5188 52.0376 73.3113 51.9433C73.1039 51.849 72.8871 51.7925 72.6797 51.6982C72.4722 51.6039 72.3119 51.4342 72.1045 51.3305C71.8971 51.2268 71.6991 51.2362 71.5011 51.123L71.4728 51.1325Z" stroke="#FFD400" stroke-width="1.07" stroke-linecap="round" stroke-linejoin="round"/>
<path d="M76.9505 95.5211C76.9505 95.6248 76.9788 95.7191 76.9128 95.7662C76.828 95.8039 76.8374 95.7097 76.7242 95.6719C76.7054 95.6437 76.564 95.6342 76.564 95.5682C76.564 95.4174 76.6299 95.3419 76.7808 95.3514C76.8562 95.3514 76.9034 95.4268 76.9599 95.5116L76.9505 95.5211Z" fill="#082C4C"/>
<path d="M75.1309 97.8594C75.2818 97.6048 75.574 97.7651 75.5175 97.9914C75.4609 98.0951 75.3949 98.1046 75.2818 98.1046C75.178 98.0574 75.1215 98.0008 75.1309 97.8688V97.8594Z" fill="#082C4C"/>
<path d="M73.839 100.415C73.8202 100.49 73.773 100.547 73.773 100.584C73.6976 100.594 73.6599 100.688 73.5845 100.726C73.6033 100.65 73.707 100.603 73.707 100.556C73.7542 100.547 73.7636 100.462 73.839 100.415Z" fill="#082C4C"/>
<path d="M74.1598 99.9336C74.1504 100.075 74.0278 100.179 73.9713 100.16C73.943 100.056 74.0278 99.9336 74.1598 99.9336Z" fill="#082C4C"/>
<path d="M74.2256 96.021C74.0465 96.1342 73.8579 96.2662 73.7164 96.417C73.575 96.5679 73.4619 96.7659 73.3676 96.9639C73.3205 97.0582 73.3205 97.209 73.4053 97.2939C73.4713 97.3127 73.4996 97.1996 73.5373 97.1713C73.6976 97.0487 73.8956 96.9639 74.0653 96.9073C74.2539 96.8507 74.4519 96.9073 74.6404 96.9167C74.8196 96.9262 75.027 96.8979 75.2156 96.9639C75.4796 97.0582 75.7059 97.2279 75.9321 97.3881C76.1018 97.5013 76.1584 97.6993 76.2433 97.8596C76.3281 98.0199 76.4036 98.1802 76.4224 98.3782C76.4413 98.6327 76.4507 98.8873 76.347 99.123C76.3093 99.2079 76.1584 99.2927 76.1773 99.4058C76.2244 99.4058 76.2716 99.3681 76.2904 99.3587C76.3564 99.3116 76.4036 99.2644 76.4507 99.2079C76.5921 99.0381 76.7524 98.8779 76.8844 98.7082C77.0541 98.4819 77.2427 98.2744 77.2993 98.0199C77.3558 97.7653 77.271 97.4919 77.2238 97.2184C77.1955 97.0487 77.1578 96.8885 77.0824 96.7376C77.007 96.5868 76.9127 96.4642 76.7807 96.351C76.611 96.2002 76.413 96.1153 76.1961 96.021C75.9793 95.9268 75.8001 95.7382 75.5739 95.7099C75.3476 95.6816 75.1213 95.7853 74.8856 95.8325C74.6687 95.8796 74.4236 95.9079 74.2256 96.0305V96.021ZM76.677 96.4736C76.8844 96.6527 76.9221 96.8979 76.9976 97.143C77.0541 97.3505 77.073 97.5296 77.0353 97.737C76.9976 97.9445 76.9504 98.133 76.8561 98.3216C76.7619 98.5007 76.6298 98.7176 76.4979 98.8873C76.5733 98.5667 76.5827 98.2933 76.5356 98.0764C76.4979 97.9067 76.5167 97.7087 76.3942 97.5862C76.2339 97.4259 76.0264 97.3316 75.8473 97.1996C75.6681 97.0676 75.489 96.9545 75.2816 96.879C75.0459 96.7847 74.8196 96.6527 74.5839 96.6527C74.3482 96.6527 74.103 96.7376 73.8673 96.8319C73.8013 96.8602 73.6788 96.9639 73.5845 97.0487C73.5845 96.9356 73.7447 96.7282 73.8107 96.6433C73.9616 96.4642 74.0747 96.2662 74.2539 96.153C74.4519 96.0305 74.6593 95.9173 74.8667 95.8702C75.0741 95.823 75.3193 95.8325 75.5362 95.8607C75.753 95.889 75.9416 96.0305 76.1396 96.1153C76.3376 96.2002 76.5167 96.3228 76.677 96.4642V96.4736Z" fill="#082C4C"/>
<path d="M74.0651 98.7836C74.0274 99.1136 74.1406 99.3587 74.2066 99.6699C74.5837 99.6039 74.7817 99.5944 75.074 99.387C74.9702 99.1419 74.9514 98.9156 74.8571 98.6987C74.6308 98.7364 74.2066 98.7459 74.0651 98.7836ZM74.8382 99.3021C74.7534 99.387 74.5271 99.5096 74.3668 99.5473C74.4517 99.387 74.678 99.0382 74.81 98.9344C74.8194 99.0947 74.8665 99.1984 74.8382 99.3021ZM74.2726 99.4059C74.1971 99.3304 74.2065 99.0287 74.1971 98.925C74.3008 98.8401 74.4988 98.8402 74.6497 98.8402C74.546 98.991 74.3857 99.2833 74.2726 99.4059Z" fill="#082C4C"/>
<path d="M78.2231 93.2678C78.2797 93.2113 78.374 93.1264 78.4117 93.1076C78.3929 93.0321 78.374 93.0321 78.374 92.9473C78.308 93.0038 78.2986 92.9944 78.2514 93.0227C78.2609 93.0699 78.2326 93.183 78.2231 93.2678Z" fill="#082C4C"/>
<path d="M77.9873 93.6254C78.1092 93.5504 78.1092 93.5785 78.0717 93.541C77.9686 93.5598 77.9404 93.5129 77.9873 93.6254Z" fill="#082C4C"/>
<path d="M77.092 95.031C77.3277 95.0215 77.5446 94.767 77.8086 94.7481C77.8557 94.3898 77.8463 94.2578 77.7426 93.8901C77.4408 93.9656 77.1108 93.9467 76.8374 94.1353C76.8657 94.2767 77.026 94.8047 77.092 95.0216V95.031ZM77.3843 94.7481C77.4126 94.5784 77.6106 94.2484 77.7143 94.107C77.7426 94.2673 77.8086 94.5596 77.7708 94.6727C77.6954 94.7481 77.5351 94.6916 77.3843 94.7481ZM77.2051 94.6444C77.1391 94.5124 77.0637 94.3616 77.092 94.239C77.1863 94.1918 77.5163 94.0316 77.6294 94.0598C77.5728 94.2201 77.3088 94.4841 77.2146 94.6444H77.2051Z" fill="#082C4C"/>
<mask id="mask0_397_1560" style="mask-type:luminance" maskUnits="userSpaceOnUse" x="0" y="0" width="119" height="134">
<path d="M51.4562 56.4314C51.5127 54.178 51.541 52.1792 51.6164 50.1803C51.7201 47.4838 51.8993 44.7872 51.9464 42.0907C51.9747 40.5539 51.8993 39.0076 51.7296 37.4802C51.2487 33.3223 51.6259 29.1832 51.6919 25.0252C51.7484 21.433 52.003 17.8502 51.6353 14.2485C51.5127 13.0605 51.6353 11.8254 51.7767 10.6186C52.0596 8.1766 52.201 5.70638 53.1344 3.39641C53.5398 2.397 54.1338 1.68043 55.3689 1.38815C58.9046 0.577302 62.4874 0.822443 66.0514 0.652731C70.2565 0.454734 74.4332 1.07699 78.6195 1.2467C82.5794 1.40698 86.5394 1.4447 90.5087 1.52013C92.6113 1.56727 94.7044 1.55786 96.8069 1.62386C101.144 1.74643 105.481 1.87843 109.818 2.067C111.148 2.12357 112.524 2.11413 113.665 3.05697C113.92 3.2644 114.363 3.25498 114.73 3.3304C116.607 3.69811 117.634 4.84839 117.908 6.72465C118.7 12.2497 118.549 17.8031 118.436 23.3564C118.351 27.3635 118.162 31.38 117.983 35.3871C117.738 40.8367 117.436 46.2958 117.182 51.7454C117.116 53.188 117.106 54.64 117.078 56.0919C116.974 60.3442 116.89 64.587 116.776 68.8392C116.701 71.8186 116.758 74.8168 116.456 77.7868C116.116 81.1056 116.409 84.3961 116.409 87.6961C116.409 91.0526 116.352 94.4091 116.371 97.7751C116.38 99.7362 116.55 101.688 116.531 103.649C116.484 107.939 116.399 112.238 116.248 116.528C116.145 119.413 116.003 122.308 115.636 125.165C115.438 126.711 114.825 128.22 114.221 129.671C114.004 130.181 113.316 130.652 112.741 130.831C110.261 131.614 107.782 132.415 105.104 132.255C103.859 132.179 102.596 132.472 101.342 132.472C94.761 132.5 88.1705 132.538 81.5894 132.443C79.5435 132.415 77.5164 132.274 75.4704 132.443C74.2258 132.547 72.953 132.255 71.7084 132.33C65.9854 132.689 60.2435 132.434 54.5298 133.085C52.4556 133.32 50.3436 133.16 48.241 133.169C47.8168 133.169 47.4019 133.151 46.9776 133.169C42.5274 133.415 38.1338 132.858 33.7495 132.189C28.5828 131.397 23.3688 131.123 18.1549 130.869C15.1849 130.727 12.2056 130.303 9.29217 129.709C7.58562 129.36 5.89793 128.615 4.39881 127.72C2.48484 126.579 1.91913 124.476 1.7777 122.412C1.54199 119.017 1.54198 115.614 1.40998 112.21C1.23084 107.873 0.948011 103.536 0.844298 99.1893C0.721728 94.1074 0.712296 89.016 0.693439 83.9247C0.674583 77.0608 0.693439 70.1969 0.693439 63.333C0.693439 63.1916 0.674583 63.0501 0.693439 62.9087C0.768867 62.1262 0.552011 61.0607 0.985719 60.627C1.80599 59.8067 2.80542 59.0713 4.03111 58.7508C6.71822 58.0436 9.47132 57.9022 12.215 57.7796C15.7978 57.6194 19.39 57.6854 22.9823 57.5722C25.5845 57.4874 28.1867 57.2799 30.789 57.1291C31.7224 57.0819 32.6559 57.0536 33.5798 57.0348C37.6812 56.9688 41.7826 56.9876 45.8745 56.5256C47.0248 56.3936 48.2033 56.5256 49.3725 56.5256C50.0136 56.5256 50.6453 56.4691 51.4939 56.4219L51.4562 56.4314Z" fill="white"/>
</mask>
<g mask="url(#mask0_397_1560)">
<g opacity="0.55">
<path d="M27.461 111.286C27.197 111.088 27.2442 111.022 26.9802 110.824C26.7162 110.626 26.7256 110.607 26.4616 110.409C26.1976 110.211 26.009 110.39 25.8205 110.117C25.6319 109.843 25.9808 109.843 26.2165 109.494C26.3202 109.334 26.4522 109.155 26.5936 108.947C26.7067 108.778 26.9141 108.646 27.0461 108.448C27.1593 108.269 27.1499 107.995 27.2819 107.807C27.395 107.627 27.5459 107.458 27.6684 107.269C27.791 107.09 27.9513 106.93 28.0739 106.741C28.1964 106.553 28.2907 106.364 28.4227 106.175C28.5547 105.987 28.7433 105.864 28.8753 105.676C29.0073 105.487 28.9978 105.233 29.1204 105.044C29.243 104.855 29.4504 104.733 29.573 104.554C29.6956 104.375 29.771 104.148 29.8935 103.96C30.0161 103.771 30.101 103.564 30.2235 103.375C30.3461 103.187 30.497 103.017 30.6195 102.838C30.7421 102.659 30.9495 102.517 31.0721 102.338C31.1947 102.159 31.3267 101.97 31.4587 101.791C31.5907 101.612 31.6284 101.367 31.7604 101.188C31.8924 101.009 32.0526 100.839 32.1752 100.66C32.3072 100.471 32.4204 100.283 32.5429 100.104C32.6749 99.915 32.8069 99.7264 32.9295 99.5567C33.0615 99.3681 33.1463 99.1513 33.2689 98.9816C33.4103 98.7836 33.6178 98.6516 33.7309 98.4913C33.8912 98.2839 34.0043 98.1047 34.1175 97.9633C34.4569 97.9444 34.3626 98.0387 34.7397 98.2461C34.9095 98.3404 35.0697 98.5384 35.296 98.661C35.4846 98.7553 35.7392 98.7553 35.956 98.8684C36.1446 98.9721 36.3049 99.1607 36.5123 99.2738C36.7103 99.3775 36.9272 99.4436 37.1346 99.5567C37.342 99.6698 37.5117 99.8113 37.7191 99.915C37.9266 100.019 38.1246 100.122 38.3226 100.226C38.5206 100.33 38.7186 100.462 38.9166 100.566C39.1146 100.669 39.3408 100.735 39.5483 100.839C39.7557 100.943 39.982 100.99 40.1894 101.094C40.3968 101.197 40.5665 101.367 40.7645 101.471C40.972 101.574 41.1888 101.659 41.3962 101.754C41.6131 101.857 41.8394 101.914 42.0374 101.999C42.2542 102.102 42.4522 102.225 42.6502 102.31C42.8859 102.414 43.0839 102.536 43.2725 102.602C43.5459 102.706 43.8005 102.649 43.9514 102.678C44.1494 102.715 44.1116 102.989 44.0079 103.338C43.9514 103.517 43.9042 103.743 43.7816 103.979C43.6873 104.167 43.6119 104.393 43.4893 104.61C43.3856 104.799 43.1782 104.95 43.0462 105.157C42.9331 105.346 42.8859 105.591 42.7539 105.789C42.6314 105.977 42.4145 106.109 42.2825 106.307C42.1505 106.505 42.1128 106.751 41.9808 106.939C41.8488 107.128 41.6979 107.297 41.5565 107.495C41.4151 107.693 41.2265 107.816 41.0851 108.005C40.9437 108.193 40.8117 108.382 40.6797 108.57C40.5477 108.759 40.51 109.023 40.3685 109.211C40.2271 109.4 39.9914 109.513 39.85 109.702C39.7085 109.89 39.6614 110.145 39.52 110.333C39.3785 110.522 39.1617 110.654 39.0203 110.833C38.8788 111.012 38.794 111.257 38.662 111.437C38.5206 111.625 38.332 111.776 38.1906 111.955C38.0397 112.144 37.9077 112.342 37.7757 112.511C37.6249 112.709 37.4269 112.851 37.2949 113.021C37.1346 113.228 37.0969 113.501 36.9743 113.652C36.7009 113.992 36.8235 114.039 36.4935 114.142C36.1635 114.246 36.2578 114.039 35.8523 113.926C35.6638 113.878 35.428 113.869 35.1829 113.803C34.9849 113.746 34.7492 113.756 34.5135 113.699C34.3061 113.643 34.0986 113.53 33.8723 113.473C33.6649 113.417 33.4669 113.275 33.2406 113.209C33.0143 113.143 32.8069 113.096 32.5901 113.039C32.3732 112.983 32.1469 112.945 31.9301 112.879C31.7132 112.813 31.5058 112.7 31.2984 112.634C31.091 112.568 30.8175 112.653 30.6007 112.587C30.3838 112.521 30.1575 112.445 29.9501 112.379C29.7238 112.304 29.5353 112.163 29.3278 112.087C29.1016 112.012 28.8753 111.965 28.6773 111.889C28.4416 111.804 28.253 111.663 28.0739 111.578C27.8099 111.465 27.5647 111.418 27.4421 111.323L27.461 111.286Z" fill="white"/>
</g>
<path d="M17.1082 134.886C17.2402 134.688 17.4665 134.593 17.608 134.405C17.7494 134.216 17.8342 133.98 17.9756 133.782C18.1171 133.584 18.2774 133.415 18.4188 133.226C18.5508 133.047 18.6262 132.811 18.7582 132.623C18.8902 132.434 19.1354 132.34 19.2768 132.151C19.4182 131.963 19.4936 131.736 19.6256 131.557C19.7576 131.378 19.965 131.237 20.097 131.058C20.229 130.878 20.3422 130.671 20.4742 130.482C20.6062 130.294 20.7759 130.134 20.9079 129.954C21.0399 129.775 21.1153 129.54 21.2473 129.351C21.3793 129.162 21.4925 128.964 21.6339 128.785C21.7753 128.606 22.0016 128.493 22.1336 128.304C22.2656 128.116 22.3599 127.908 22.5013 127.72C22.6427 127.531 22.737 127.324 22.869 127.145C23.001 126.966 23.2273 126.843 23.3687 126.664C23.5101 126.485 23.5479 126.23 23.6893 126.051C23.8307 125.872 24.0382 125.74 24.1796 125.561C24.321 125.382 24.4436 125.184 24.5756 125.004C24.7076 124.825 24.849 124.637 24.981 124.458C25.113 124.279 25.179 124.043 25.3204 123.854C25.4618 123.675 25.6975 123.562 25.839 123.383C25.9804 123.204 26.0181 122.949 26.1595 122.77C26.301 122.591 26.4518 122.421 26.5933 122.242C26.7347 122.063 26.8573 121.865 27.0081 121.695C27.159 121.525 27.3475 121.384 27.4984 121.205C27.6492 121.026 27.819 120.875 27.9792 120.715C28.1301 120.554 28.2904 120.403 28.4412 120.224C28.5921 120.045 28.6958 119.857 28.8372 119.677C28.9787 119.498 29.1201 119.338 29.2521 119.149C29.3841 118.961 29.4972 118.782 29.6292 118.593C29.7612 118.405 29.9026 118.244 30.0252 118.046C30.1478 117.848 30.1855 117.622 30.2986 117.424C30.4118 117.226 30.5815 117.075 30.6946 116.877C30.8078 116.679 30.9492 116.509 31.0623 116.311C31.1755 116.113 31.2132 115.887 31.3169 115.689C31.4206 115.491 31.4678 115.265 31.5715 115.067C31.6752 114.869 31.8732 114.718 31.9769 114.52C32.0806 114.322 32.1466 114.096 32.2409 113.898C32.3352 113.7 32.486 113.511 32.5709 113.313C32.6557 113.115 32.6557 112.851 32.7406 112.653C32.8254 112.455 32.9857 112.267 33.0706 112.069C33.1649 111.861 33.2497 111.654 33.3346 111.456C33.4289 111.239 33.4477 111.003 33.5326 110.815C33.6269 110.598 33.7777 110.419 33.8626 110.23C33.9569 110.004 34.0983 109.825 34.1831 109.636C34.2963 109.391 34.3812 109.193 34.466 109.042C34.5226 108.929 34.5226 108.665 34.5509 108.363C34.5697 108.165 34.6074 107.939 34.6074 107.694C34.6074 107.486 34.5508 107.26 34.5414 107.024C34.5226 106.808 34.5697 106.572 34.5414 106.346C34.5131 106.119 34.4 105.912 34.3528 105.695C34.3057 105.478 34.2774 105.252 34.2114 105.035C34.1454 104.818 33.9852 104.639 33.9003 104.441C33.806 104.234 33.7589 104.017 33.6363 103.838C33.3629 103.772 33.1366 103.743 32.9292 103.772C32.6746 103.809 32.4483 103.904 32.2597 104.045C32.0617 104.187 31.9392 104.413 31.7883 104.592C31.6374 104.762 31.5055 104.96 31.3546 105.129C31.2038 105.299 30.9869 105.422 30.8361 105.601C30.6852 105.78 30.6098 106.016 30.4589 106.185C30.3081 106.355 30.1384 106.515 29.9875 106.694C29.8366 106.874 29.7046 107.062 29.5538 107.241C29.4029 107.42 29.2426 107.581 29.0918 107.76C28.9409 107.939 28.7524 108.08 28.6109 108.26C28.4695 108.439 28.3564 108.646 28.2055 108.825C28.1018 108.948 27.9792 109.155 27.7907 109.391C27.6587 109.551 27.4795 109.712 27.3192 109.9C27.1778 110.07 26.9798 110.211 26.8195 110.39C26.6592 110.57 26.5084 110.739 26.3387 110.9C26.169 111.06 26.0558 111.305 25.8861 111.446C25.6976 111.616 25.4618 111.701 25.2827 111.814C25.047 111.965 24.8207 112.088 24.6321 112.097C24.5378 111.89 24.5473 111.663 24.585 111.446C24.6133 111.248 24.6039 111.003 24.7076 110.796C24.8019 110.617 24.9527 110.438 25.0847 110.249C25.2073 110.079 25.377 109.928 25.5184 109.759C25.6598 109.589 25.7541 109.391 25.8955 109.221C26.037 109.052 26.2161 108.92 26.3575 108.759C26.499 108.599 26.6498 108.429 26.7818 108.269C26.9232 108.09 27.0458 107.911 27.159 107.741C27.291 107.552 27.3475 107.336 27.423 107.156C27.5172 106.94 27.6681 106.685 27.6492 106.487C27.4041 106.591 27.1401 106.713 26.9327 106.798C26.697 106.892 26.4612 106.968 26.2538 107.072C26.0464 107.185 25.905 107.392 25.7164 107.515C25.5278 107.637 25.3016 107.713 25.113 107.845C24.9244 107.977 24.7547 108.128 24.5661 108.26C24.3776 108.392 24.1796 108.505 24.0004 108.656C23.8213 108.806 23.6516 108.948 23.4819 109.099C23.3121 109.25 23.1707 109.429 23.001 109.598C22.8313 109.768 22.6616 109.91 22.5107 110.079C22.3599 110.249 22.1996 110.419 22.0487 110.588C21.8979 110.758 21.7376 110.928 21.5962 111.107C21.4547 111.286 21.3888 111.522 21.2568 111.71C21.1248 111.899 21.0022 112.088 20.8796 112.286C20.7571 112.484 20.5873 112.634 20.4648 112.832C20.3422 113.03 20.2479 113.238 20.1348 113.436C20.0216 113.634 19.8896 113.822 19.767 114.02C19.6445 114.218 19.5313 114.416 19.4182 114.614C19.3051 114.812 19.2485 115.048 19.1354 115.246C19.0222 115.444 18.8337 115.604 18.7299 115.812C18.6262 116.019 18.4565 116.189 18.3528 116.396C18.2491 116.604 18.2774 116.877 18.1737 117.075C18.07 117.273 17.9474 117.462 17.8531 117.66C17.7588 117.858 17.5514 118.009 17.4477 118.207C17.3439 118.405 17.2591 118.612 17.1554 118.81C17.0517 119.008 16.9951 119.234 16.8914 119.432C16.7877 119.63 16.6085 119.791 16.5048 119.979C16.4011 120.168 16.354 120.403 16.2503 120.601C16.1465 120.799 15.9391 120.941 15.8354 121.129C15.7317 121.318 15.694 121.563 15.5808 121.752C15.4677 121.94 15.3357 122.119 15.2226 122.317C15.1094 122.515 15.0434 122.732 14.9303 122.921C14.8171 123.109 14.638 123.26 14.5154 123.449C14.3929 123.637 14.2797 123.826 14.1571 124.015C14.0346 124.203 13.9591 124.42 13.8366 124.609C13.714 124.797 13.5631 124.967 13.4406 125.146C13.318 125.325 13.2049 125.523 13.0823 125.712C12.9597 125.9 12.8372 126.089 12.7052 126.268C12.5732 126.447 12.3657 126.579 12.2337 126.749C12.1017 126.918 11.9132 127.06 11.7812 127.239C11.6492 127.418 11.5266 127.607 11.3852 127.786C11.2532 127.946 11.1966 128.172 11.0646 128.333C10.9326 128.493 10.7818 128.644 10.6403 128.795C10.4989 128.946 10.3575 129.106 10.2066 129.247C10.0558 129.389 9.82949 129.474 9.67863 129.615C9.48064 129.898 9.60321 129.907 9.50893 130.303C9.46179 130.501 9.35806 130.728 9.34863 130.982C9.34863 131.199 9.48063 131.416 9.52778 131.661C9.56549 131.878 9.50892 132.142 9.61263 132.359C9.70691 132.557 9.94261 132.679 10.1029 132.868C10.2349 133.038 10.3857 133.198 10.5743 133.358C10.744 133.49 10.8855 133.679 11.1023 133.801C11.2909 133.914 11.4889 134.018 11.7152 134.122C11.9132 134.207 12.1489 134.254 12.3752 134.329C12.5826 134.395 12.7994 134.471 13.0352 134.527C13.252 134.584 13.4594 134.697 13.6952 134.744C13.912 134.782 14.1477 134.782 14.3929 134.81C14.6097 134.838 14.8454 134.829 15.0905 134.848C15.3168 134.867 15.5431 134.857 15.7788 134.876C16.0051 134.895 16.2314 134.904 16.4765 134.914C16.7028 134.914 16.9008 134.914 17.1365 134.914L17.1082 134.886Z" fill="#FF8A95"/>
<path d="M17.1082 134.886C17.2402 134.688 17.4665 134.593 17.608 134.405C17.7494 134.216 17.8342 133.98 17.9756 133.782C18.1171 133.584 18.2774 133.415 18.4188 133.226C18.5508 133.047 18.6262 132.811 18.7582 132.623C18.8902 132.434 19.1354 132.34 19.2768 132.151C19.4182 131.963 19.4936 131.736 19.6256 131.557C19.7576 131.378 19.965 131.237 20.097 131.058C20.229 130.878 20.3422 130.671 20.4742 130.482C20.6062 130.294 20.7759 130.134 20.9079 129.954C21.0399 129.775 21.1153 129.54 21.2473 129.351C21.3793 129.162 21.4925 128.964 21.6339 128.785C21.7753 128.606 22.0016 128.493 22.1336 128.304C22.2656 128.116 22.3599 127.908 22.5013 127.72C22.6427 127.531 22.737 127.324 22.869 127.145C23.001 126.966 23.2273 126.843 23.3687 126.664C23.5101 126.485 23.5479 126.23 23.6893 126.051C23.8307 125.872 24.0382 125.74 24.1796 125.561C24.321 125.382 24.4436 125.184 24.5756 125.004C24.7076 124.825 24.849 124.637 24.981 124.458C25.113 124.279 25.179 124.043 25.3204 123.854C25.4618 123.675 25.6975 123.562 25.839 123.383C25.9804 123.204 26.0181 122.949 26.1595 122.77C26.301 122.591 26.4518 122.421 26.5933 122.242C26.7347 122.063 26.8573 121.865 27.0081 121.695C27.159 121.525 27.3475 121.384 27.4984 121.205C27.6492 121.026 27.819 120.875 27.9792 120.715C28.1301 120.554 28.2904 120.403 28.4412 120.224C28.5921 120.045 28.6958 119.857 28.8372 119.677C28.9787 119.498 29.1201 119.338 29.2521 119.149C29.3841 118.961 29.4972 118.782 29.6292 118.593C29.7612 118.405 29.9026 118.244 30.0252 118.046C30.1478 117.848 30.1855 117.622 30.2986 117.424C30.4118 117.226 30.5815 117.075 30.6946 116.877C30.8078 116.679 30.9492 116.509 31.0623 116.311C31.1755 116.113 31.2132 115.887 31.3169 115.689C31.4206 115.491 31.4678 115.265 31.5715 115.067C31.6752 114.869 31.8732 114.718 31.9769 114.52C32.0806 114.322 32.1466 114.096 32.2409 113.898C32.3352 113.7 32.486 113.511 32.5709 113.313C32.6557 113.115 32.6557 112.851 32.7406 112.653C32.8254 112.455 32.9857 112.267 33.0706 112.069C33.1649 111.861 33.2497 111.654 33.3346 111.456C33.4289 111.239 33.4477 111.003 33.5326 110.815C33.6269 110.598 33.7777 110.419 33.8626 110.23C33.9569 110.004 34.0983 109.825 34.1831 109.636C34.2963 109.391 34.3812 109.193 34.466 109.042C34.5226 108.929 34.5226 108.665 34.5509 108.363C34.5697 108.165 34.6074 107.939 34.6074 107.694C34.6074 107.486 34.5509 107.26 34.5414 107.024C34.5226 106.808 34.5697 106.572 34.5414 106.346C34.5131 106.119 34.4 105.912 34.3528 105.695C34.3057 105.478 34.2774 105.252 34.2114 105.035C34.1454 104.818 33.9852 104.639 33.9003 104.441C33.806 104.234 33.7589 104.017 33.6363 103.838C33.3629 103.772 33.1366 103.743 32.9292 103.772C32.6746 103.809 32.4483 103.904 32.2597 104.045C32.0617 104.187 31.9392 104.413 31.7883 104.592C31.6375 104.762 31.5055 104.96 31.3546 105.129C31.2037 105.299 30.9869 105.422 30.8361 105.601C30.6852 105.78 30.6098 106.016 30.4589 106.185C30.3081 106.355 30.1384 106.515 29.9875 106.694C29.8366 106.874 29.7046 107.062 29.5538 107.241C29.4029 107.42 29.2426 107.581 29.0918 107.76C28.9409 107.939 28.7524 108.08 28.6109 108.26C28.4695 108.439 28.3564 108.646 28.2055 108.825C28.1018 108.948 27.9792 109.155 27.7907 109.391C27.6587 109.551 27.4795 109.712 27.3192 109.9C27.1778 110.07 26.9798 110.211 26.8195 110.39C26.6592 110.57 26.5084 110.739 26.3387 110.9C26.169 111.06 26.0558 111.305 25.8861 111.446C25.6976 111.616 25.4618 111.701 25.2827 111.814C25.047 111.965 24.8207 112.088 24.6321 112.097C24.5378 111.89 24.5473 111.663 24.585 111.446C24.6133 111.248 24.6039 111.003 24.7076 110.796C24.8019 110.617 24.9527 110.438 25.0847 110.249C25.2073 110.079 25.377 109.928 25.5184 109.759C25.6598 109.589 25.7541 109.391 25.8955 109.221C26.037 109.052 26.2161 108.92 26.3575 108.759C26.499 108.599 26.6498 108.429 26.7818 108.269C26.9232 108.09 27.0458 107.911 27.159 107.741C27.291 107.552 27.3475 107.336 27.423 107.156C27.5172 106.94 27.6681 106.685 27.6492 106.487C27.4041 106.591 27.1401 106.713 26.9327 106.798C26.697 106.892 26.4612 106.968 26.2538 107.072C26.0464 107.185 25.905 107.392 25.7164 107.515C25.5278 107.637 25.3016 107.713 25.113 107.845C24.9244 107.977 24.7547 108.128 24.5661 108.26C24.3776 108.392 24.1796 108.505 24.0004 108.656C23.8213 108.806 23.6516 108.948 23.4819 109.099C23.3121 109.25 23.1707 109.429 23.001 109.598C22.8313 109.768 22.6616 109.91 22.5107 110.079C22.3599 110.249 22.1996 110.419 22.0487 110.588C21.8979 110.758 21.7376 110.928 21.5962 111.107C21.4547 111.286 21.3888 111.522 21.2568 111.71C21.1248 111.899 21.0022 112.088 20.8796 112.286C20.7571 112.484 20.5873 112.634 20.4648 112.832C20.3422 113.03 20.2479 113.238 20.1348 113.436C20.0216 113.634 19.8896 113.822 19.767 114.02C19.6445 114.218 19.5313 114.416 19.4182 114.614C19.3051 114.812 19.2485 115.048 19.1354 115.246C19.0222 115.444 18.8337 115.604 18.7299 115.812C18.6262 116.019 18.4565 116.189 18.3528 116.396C18.2491 116.604 18.2774 116.877 18.1737 117.075C18.07 117.273 17.9474 117.462 17.8531 117.66C17.7588 117.858 17.5514 118.009 17.4477 118.207C17.3439 118.405 17.2591 118.612 17.1554 118.81C17.0517 119.008 16.9951 119.234 16.8914 119.432C16.7877 119.63 16.6085 119.791 16.5048 119.979C16.4011 120.168 16.354 120.403 16.2503 120.601C16.1465 120.799 15.9391 120.941 15.8354 121.129C15.7317 121.318 15.694 121.563 15.5808 121.752C15.4677 121.94 15.3357 122.119 15.2226 122.317C15.1094 122.515 15.0434 122.732 14.9303 122.921C14.8171 123.109 14.638 123.26 14.5154 123.449C14.3929 123.637 14.2797 123.826 14.1571 124.015C14.0346 124.203 13.9591 124.42 13.8366 124.609C13.714 124.797 13.5631 124.967 13.4406 125.146C13.318 125.325 13.2049 125.523 13.0823 125.712C12.9597 125.9 12.8372 126.089 12.7052 126.268C12.5732 126.447 12.3657 126.579 12.2337 126.749C12.1017 126.918 11.9132 127.06 11.7812 127.239C11.6492 127.418 11.5266 127.607 11.3852 127.786C11.2532 127.946 11.1966 128.172 11.0646 128.333C10.9326 128.493 10.7818 128.644 10.6403 128.795C10.4989 128.946 10.3575 129.106 10.2066 129.247C10.0558 129.389 9.82949 129.474 9.67863 129.615C9.48064 129.898 9.60321 129.907 9.50893 130.303C9.46179 130.501 9.35806 130.728 9.34863 130.982C9.34863 131.199 9.48063 131.416 9.52778 131.661C9.56549 131.878 9.50892 132.142 9.61263 132.359C9.70691 132.557 9.94261 132.679 10.1029 132.868C10.2349 133.038 10.3857 133.198 10.5743 133.358C10.744 133.49 10.8855 133.679 11.1023 133.801C11.2909 133.914 11.4889 134.018 11.7152 134.122C11.9132 134.207 12.1489 134.254 12.3752 134.329C12.5826 134.395 12.7994 134.471 13.0352 134.527C13.252 134.584 13.4594 134.697 13.6952 134.744C13.912 134.782 14.1477 134.782 14.3929 134.81C14.6097 134.838 14.8454 134.829 15.0905 134.848C15.3168 134.867 15.5431 134.857 15.7788 134.876C16.0051 134.895 16.2314 134.904 16.4765 134.914C16.7028 134.914 16.9008 134.914 17.1365 134.914L17.1082 134.886Z" stroke="#FFD400" stroke-width="0.98" stroke-linecap="round" stroke-linejoin="round"/>
<path d="M27.5554 92.4763C27.8948 92.5329 27.8194 92.4292 28.2343 92.3726C28.4323 92.3443 28.668 92.3726 28.9225 92.3349C29.13 92.3066 29.3468 92.1463 29.5825 92.118C29.7994 92.0897 30.0257 92.0709 30.2614 92.0426C30.4782 92.0143 30.7328 92.1275 30.9591 92.0897C31.1854 92.052 31.4022 91.9483 31.6285 91.9106C31.8548 91.8729 32.0905 91.854 32.3074 91.8257C32.5242 91.7975 32.7505 91.6749 32.9673 91.6466C33.203 91.6089 33.4388 91.6277 33.6462 91.59C33.8913 91.5523 34.127 91.5712 34.3345 91.524C34.5985 91.4769 34.8247 91.4392 35.0039 91.392C35.2019 91.3355 35.3905 91.1846 35.6167 91.1469C35.8242 91.1092 36.041 91.0715 36.2673 91.0432C36.4936 91.0149 36.701 91.0055 36.9178 90.9866C37.1347 90.9678 37.3516 90.9583 37.5684 90.9301C37.7853 90.9018 38.021 90.9678 38.2284 90.9301C38.4547 90.8829 38.6433 90.7509 38.8413 90.6849C39.0581 90.6095 39.2844 90.5718 39.4541 90.4586C39.6427 90.3361 39.7181 90.1192 39.8218 89.9401C39.9161 89.7892 40.0953 89.6195 40.1801 89.3555C40.2461 89.1575 40.2744 88.9312 40.3404 88.6861C40.3875 88.4787 40.4724 88.2524 40.5195 88.0261C40.5572 87.8092 40.5572 87.5735 40.5855 87.3378C40.6138 87.1021 40.6421 86.8853 40.6704 86.659C40.6987 86.4327 40.793 86.2064 40.8024 85.9801C40.8118 85.7538 40.8495 85.5087 40.8495 85.2824C40.8495 85.0467 40.8024 84.811 40.7835 84.5847C40.7647 84.3396 40.7175 84.1133 40.6798 83.9059C40.6327 83.6513 40.4818 83.4627 40.3875 83.2836C40.265 83.0384 40.199 82.7839 39.9915 82.7273C39.8218 82.6802 39.5767 82.7839 39.3032 82.765C39.1052 82.765 38.879 82.6047 38.6244 82.6142C38.4075 82.6142 38.1813 82.7179 37.9455 82.7273C37.7287 82.7367 37.5024 82.831 37.2761 82.8499C37.0498 82.8687 36.8142 82.7933 36.5879 82.8216C36.3616 82.8499 36.1353 82.9064 35.909 82.9347C35.6827 82.963 35.4565 83.0102 35.2302 83.029C34.9945 83.0573 34.7682 83.0762 34.5513 83.1044C34.3156 83.1327 34.0893 83.2082 33.8819 83.2365C33.6273 83.2742 33.3916 83.2553 33.203 83.2836C32.7882 83.3402 32.8825 83.3496 32.5525 83.4344C32.2037 83.5287 32.1659 83.3967 31.8265 83.5004C31.4871 83.6042 31.4965 83.6513 31.1571 83.755C30.8177 83.8587 30.8271 83.9153 30.4877 84.019C30.1482 84.1227 30.1294 84.0662 29.7805 84.1793C29.4317 84.2924 29.4317 84.2736 29.0923 84.3773C28.7528 84.481 28.7811 84.5847 28.4323 84.6978C28.0834 84.811 28.0457 84.679 27.7157 84.8393C27.4234 84.9901 27.5366 85.0279 27.3291 85.3861C27.2349 85.5464 27.2254 85.801 27.1123 86.0178C27.018 86.197 26.9048 86.3856 26.8106 86.6024C26.7257 86.8004 26.5183 86.9513 26.4334 87.1587C26.3486 87.3661 26.3203 87.5924 26.2543 87.7998C26.1883 88.0072 26.0657 88.2146 26.0186 88.4315C25.9714 88.6484 25.9997 88.8841 25.9714 89.1009C25.9432 89.3178 25.9903 89.5441 25.9903 89.7609C25.9903 89.9778 25.9809 90.2041 26.0186 90.4209C26.0563 90.6378 26.1223 90.8452 26.2166 91.0526C26.3109 91.26 26.3863 91.4581 26.5277 91.6372C26.6597 91.8069 26.8012 91.9766 26.9803 92.1275C27.1406 92.2595 27.3385 92.3915 27.546 92.4952L27.5554 92.4763Z" fill="#E6E4E1"/>
<path d="M1.2027 108.099C1.42898 108.156 1.6081 107.939 1.76838 107.712C1.89095 107.533 2.07011 107.354 2.19268 107.147C2.31525 106.939 2.38123 106.666 2.53209 106.524C2.7018 106.374 2.86208 106.223 3.03179 106.081C3.2015 105.94 3.38066 105.808 3.55037 105.657C3.72009 105.506 3.91809 105.403 4.0878 105.261C4.25751 105.12 4.39892 104.931 4.56863 104.799C4.73834 104.667 4.92691 104.535 5.09662 104.394C5.26633 104.252 5.46435 104.139 5.64349 104.007C5.82263 103.875 5.98292 103.715 6.15263 103.583C6.32234 103.451 6.54861 103.366 6.72775 103.243C6.90689 103.121 7.10489 103.008 7.28403 102.885C7.46317 102.763 7.63288 102.602 7.81202 102.48C7.99116 102.357 8.14203 102.187 8.3306 102.055C8.51917 101.923 8.67943 101.782 8.868 101.659C9.05657 101.537 9.20742 101.377 9.39599 101.254C9.58456 101.131 9.79201 101.047 9.98057 100.924C10.1691 100.801 10.3483 100.679 10.5368 100.556C10.7254 100.434 10.9046 100.311 11.0931 100.189C11.2817 100.066 11.442 99.9057 11.6306 99.7926C11.8191 99.6795 12.0359 99.604 12.2245 99.4909C12.4131 99.3777 12.6017 99.2552 12.7902 99.142C12.9788 99.0289 13.1957 98.9629 13.3842 98.8403C13.5728 98.7178 13.7802 98.6329 13.9688 98.5198C14.1574 98.4066 14.2894 98.1992 14.4779 98.0766C14.6665 97.9541 14.8456 97.8221 15.0342 97.7089C15.2228 97.5958 15.4208 97.5015 15.6094 97.3789C15.7885 97.2752 16.0053 97.2469 16.2033 97.1715C16.4013 97.0961 16.5805 96.9735 16.7879 96.9358C16.9953 96.8981 17.2027 96.8981 17.4102 96.8792C17.6176 96.8604 17.8345 96.9263 18.0419 96.9169C18.2493 96.9075 18.4567 96.7566 18.6642 96.7472C18.8904 96.7472 19.1167 96.7189 19.3524 96.7095C19.5882 96.7001 19.8144 96.7567 20.0407 96.7378C20.267 96.7189 20.5027 96.7378 20.729 96.7189C20.9553 96.7001 21.1721 96.5681 21.3984 96.5398C21.6247 96.5115 21.8604 96.5586 22.0867 96.5209C22.313 96.4832 22.5298 96.3889 22.7467 96.3418C22.9635 96.2947 23.1992 96.2758 23.4161 96.2192C23.633 96.1626 23.8498 96.0684 24.0667 96.0118C24.2835 95.9552 24.5192 95.9364 24.7361 95.8609C24.9529 95.7855 25.1603 95.6912 25.3772 95.6158C25.5941 95.5404 25.8109 95.4744 26.0278 95.3895C26.2446 95.3047 26.4332 95.1821 26.6406 95.0878C26.8669 94.9935 27.1026 94.9935 27.2912 94.8992C27.508 94.7955 27.6966 94.673 27.8757 94.5692C28.0737 94.4467 28.2434 94.3147 28.4132 94.1733C28.5829 94.0318 28.7903 93.9376 28.9412 93.7584C29.0731 93.6076 29.158 93.3907 29.2994 93.1927C29.422 93.0324 29.6011 92.825 29.7331 92.627C29.488 92.627 29.2146 92.5893 28.9977 92.5799C28.762 92.5799 28.5357 92.6836 28.3095 92.6836C28.0737 92.6836 27.8569 92.6836 27.6306 92.6836C27.4043 92.6836 27.178 92.6081 26.9518 92.627C26.7255 92.6458 26.5086 92.759 26.2918 92.7778C26.0749 92.7967 25.8392 92.759 25.6224 92.7778C25.4055 92.7967 25.1792 92.7213 24.9623 92.7024C24.7361 92.6835 24.4909 92.6458 24.2835 92.5044C24.0761 92.363 23.8592 92.1744 23.7649 91.9764C23.7084 91.8633 23.8498 91.5427 24.0289 91.2787C24.1704 91.0619 24.3872 90.8733 24.5475 90.7696C24.7549 90.6376 24.9906 90.5527 25.2075 90.4302C25.4244 90.3076 25.6129 90.1473 25.8298 90.0247C26.0466 89.9022 26.2823 89.8267 26.4992 89.7042C26.716 89.5816 26.9423 89.4873 27.1686 89.3742C27.3949 89.261 27.5835 89.0913 27.8003 88.9876C28.0172 88.8839 28.2057 88.7425 28.4132 88.6387C28.6206 88.535 28.8657 88.4973 29.0826 88.3936C29.2994 88.2899 29.4786 88.1296 29.686 88.0165C29.8934 87.9034 30.1103 87.8185 30.3177 87.6959C30.5251 87.5733 30.7514 87.5073 30.9589 87.3848C31.1663 87.2622 31.3454 87.1113 31.534 86.9699C31.7225 86.8285 31.93 86.7154 32.1185 86.5645C32.3071 86.4137 32.4391 86.2062 32.6088 86.0554C32.7785 85.9045 33.0331 85.8197 33.2028 85.6499C33.3725 85.4802 33.4479 85.2351 33.5988 85.056C33.7308 84.8957 33.9382 84.792 34.0608 84.6223C34.1834 84.462 34.3059 84.3017 34.4379 84.1225C34.5511 83.9623 34.6548 83.7737 34.7868 83.5946C34.8999 83.4343 34.9754 83.2457 35.1074 83.0666C34.8434 82.9629 34.5982 82.9157 34.3813 82.812C34.1268 82.6988 33.9288 82.5103 33.7025 82.4254C33.4574 82.3311 33.2028 82.2557 32.9577 82.218C32.7408 82.1897 32.524 82.1143 32.2977 82.086C32.0714 82.0577 31.8451 82.1237 31.6188 82.1048C31.3925 82.086 31.1757 82.0671 30.9494 82.0577C30.7231 82.0483 30.5157 81.9351 30.2894 81.9257C30.0631 81.9163 29.8369 82.0011 29.62 81.9917C29.4031 81.9823 29.1769 82.0011 28.9506 82.0011C28.7243 82.0011 28.5074 82.0011 28.2811 82.0011C28.0549 82.0011 27.8286 81.8974 27.6117 81.9069C27.3949 81.9163 27.1686 81.954 26.9423 81.9729C26.716 81.9917 26.4992 82.0577 26.2823 82.086C26.0655 82.1143 25.8298 82.086 25.6129 82.1237C25.3961 82.1614 25.1886 82.2651 24.9623 82.3028C24.7361 82.3405 24.5286 82.3877 24.3118 82.4348C24.0949 82.482 23.8875 82.5574 23.6707 82.6046C23.4538 82.6517 23.2369 82.68 23.0201 82.7366C22.8032 82.7931 22.577 82.812 22.3695 82.8874C22.1621 82.9628 21.9547 83.0571 21.7472 83.1325C21.5398 83.208 21.3607 83.3588 21.1533 83.4437C20.9458 83.5286 20.7195 83.5474 20.5121 83.6417C20.3047 83.736 20.0879 83.7737 19.8804 83.868C19.673 83.9622 19.5316 84.1603 19.3336 84.264C19.1356 84.3677 18.8716 84.3488 18.6736 84.4525C18.4756 84.5562 18.287 84.6788 18.0984 84.792C17.9004 84.9051 17.7213 85.0465 17.5233 85.1597C17.3253 85.2728 17.1179 85.3577 16.9199 85.4708C16.7219 85.5839 16.5239 85.6971 16.3353 85.8102C16.1468 85.9234 15.9959 86.1214 15.8073 86.2439C15.6188 86.3665 15.3925 86.4325 15.2039 86.5551C15.0153 86.6776 14.7985 86.7625 14.6099 86.8851C14.4213 87.0076 14.2328 87.1302 14.0442 87.2528C13.8557 87.3753 13.6671 87.5074 13.4785 87.6299C13.2899 87.7525 13.0919 87.875 12.9034 87.9976C12.7148 88.1202 12.564 88.3088 12.3848 88.4408C12.2057 88.5728 11.9605 88.6293 11.7814 88.7519C11.6022 88.8745 11.4703 89.1007 11.2911 89.2327C11.112 89.3647 10.8951 89.459 10.716 89.591C10.5369 89.723 10.3671 89.8833 10.188 90.0153C10.0089 90.1473 9.82028 90.2793 9.64114 90.4113C9.462 90.5433 9.28285 90.6847 9.10371 90.8262C8.92457 90.9676 8.71716 91.0619 8.52859 91.1939C8.34002 91.3259 8.13258 91.4296 7.95344 91.5616C7.7743 91.6936 7.64231 91.8916 7.46317 92.033C7.28403 92.1744 7.06719 92.2593 6.88805 92.4007C6.70891 92.5421 6.51089 92.6553 6.34118 92.7967C6.17147 92.9381 6.03946 93.1361 5.86032 93.287C5.68118 93.4378 5.45491 93.5133 5.2852 93.6547C5.11549 93.7961 4.99293 94.0035 4.82322 94.1544C4.65351 94.3052 4.53092 94.5127 4.36121 94.6635C4.19149 94.8144 3.94636 94.8804 3.77665 95.0312C3.60693 95.1821 3.43721 95.3235 3.2675 95.4744C3.09779 95.6252 3.00351 95.8515 2.8338 96.0024C2.66409 96.1532 2.51325 96.3229 2.34353 96.4738C2.17382 96.6246 1.96639 96.7283 1.80611 96.8886C1.64582 97.0489 1.5421 97.2658 1.38182 97.4261C1.22153 97.5863 1.01411 97.6995 0.853825 97.8598C0.693542 98.02 0.486127 98.1332 0.335273 98.3029C0.184417 98.4726 0.108996 98.7178 -0.0418594 98.878C-0.192714 99.0383 -0.428441 99.1326 -0.588725 99.3023C-0.749008 99.472 -0.928138 99.604 -1.07899 99.7737C-1.22985 99.9434 -1.29586 100.189 -1.44672 100.358C-1.59757 100.528 -1.8427 100.613 -1.99355 100.783C-2.08784 100.886 -2.16327 100.999 -2.38012 101.141C-2.61583 101.377 -2.57812 101.329 -2.73841 101.707C-2.81384 101.886 -2.92697 102.093 -2.99296 102.338C-3.05896 102.536 -3.05898 102.781 -3.09669 103.008C-3.13441 103.225 -3.20981 103.451 -3.21924 103.677C-3.21924 103.894 -3.16269 104.12 -3.12498 104.356C-3.08726 104.573 -3.05895 104.799 -2.98353 105.016C-2.9081 105.223 -2.81382 105.431 -2.69125 105.629C-2.57811 105.817 -2.44612 105.997 -2.28583 106.176C-2.14441 106.336 -1.93697 106.44 -1.7484 106.591C-1.58812 106.732 -1.39956 106.836 -1.19213 106.968C-1.01299 107.081 -0.871556 107.279 -0.654702 107.382C-0.466133 107.477 -0.286998 107.628 -0.0701435 107.722C0.127854 107.807 0.372976 107.816 0.58983 107.892C0.797256 107.958 0.995265 108.071 1.22155 108.137L1.2027 108.099Z" fill="#FF8A95"/>
<path d="M1.2027 108.099C1.42898 108.156 1.6081 107.939 1.76838 107.712C1.89095 107.533 2.07011 107.354 2.19268 107.147C2.31525 106.939 2.38123 106.666 2.53209 106.524C2.7018 106.374 2.86208 106.223 3.03179 106.081C3.2015 105.94 3.38066 105.808 3.55037 105.657C3.72009 105.506 3.91809 105.403 4.0878 105.261C4.25751 105.12 4.39892 104.931 4.56863 104.799C4.73834 104.667 4.92691 104.535 5.09662 104.394C5.26633 104.252 5.46435 104.139 5.64349 104.007C5.82263 103.875 5.98292 103.715 6.15263 103.583C6.32234 103.451 6.54861 103.366 6.72775 103.243C6.90689 103.121 7.10489 103.008 7.28403 102.885C7.46317 102.763 7.63288 102.602 7.81202 102.48C7.99116 102.357 8.14203 102.187 8.3306 102.055C8.51917 101.923 8.67943 101.782 8.868 101.659C9.05657 101.537 9.20742 101.377 9.39599 101.254C9.58456 101.131 9.79201 101.047 9.98057 100.924C10.1691 100.801 10.3483 100.679 10.5368 100.556C10.7254 100.434 10.9046 100.311 11.0931 100.189C11.2817 100.066 11.442 99.9057 11.6306 99.7926C11.8191 99.6795 12.036 99.604 12.2245 99.4909C12.4131 99.3777 12.6017 99.2552 12.7902 99.142C12.9788 99.0289 13.1957 98.9629 13.3842 98.8403C13.5728 98.7178 13.7802 98.6329 13.9688 98.5198C14.1574 98.4066 14.2894 98.1992 14.4779 98.0766C14.6665 97.9541 14.8456 97.8221 15.0342 97.7089C15.2228 97.5958 15.4208 97.5015 15.6094 97.3789C15.7885 97.2752 16.0053 97.2469 16.2033 97.1715C16.4013 97.0961 16.5805 96.9735 16.7879 96.9358C16.9953 96.8981 17.2027 96.8981 17.4102 96.8792C17.6176 96.8604 17.8345 96.9263 18.0419 96.9169C18.2493 96.9075 18.4567 96.7566 18.6642 96.7472C18.8904 96.7472 19.1167 96.7189 19.3524 96.7095C19.5882 96.7001 19.8144 96.7567 20.0407 96.7378C20.267 96.7189 20.5027 96.7378 20.729 96.7189C20.9553 96.7001 21.1721 96.5681 21.3984 96.5398C21.6247 96.5115 21.8604 96.5586 22.0867 96.5209C22.313 96.4832 22.5298 96.3889 22.7467 96.3418C22.9635 96.2947 23.1992 96.2758 23.4161 96.2192C23.633 96.1626 23.8498 96.0684 24.0667 96.0118C24.2835 95.9552 24.5192 95.9364 24.7361 95.8609C24.9529 95.7855 25.1603 95.6912 25.3772 95.6158C25.5941 95.5404 25.8109 95.4744 26.0278 95.3895C26.2446 95.3047 26.4332 95.1821 26.6406 95.0878C26.8669 94.9935 27.1026 94.9935 27.2912 94.8992C27.508 94.7955 27.6966 94.673 27.8757 94.5692C28.0737 94.4467 28.2434 94.3147 28.4132 94.1733C28.5829 94.0318 28.7903 93.9376 28.9411 93.7584C29.0731 93.6076 29.158 93.3907 29.2994 93.1927C29.422 93.0324 29.6011 92.825 29.7331 92.627C29.488 92.627 29.2146 92.5893 28.9977 92.5799C28.762 92.5799 28.5357 92.6836 28.3095 92.6836C28.0737 92.6836 27.8569 92.6836 27.6306 92.6836C27.4043 92.6836 27.178 92.6081 26.9518 92.627C26.7255 92.6458 26.5086 92.759 26.2918 92.7778C26.0749 92.7967 25.8392 92.759 25.6223 92.7778C25.4055 92.7967 25.1792 92.7213 24.9623 92.7024C24.7361 92.6835 24.4909 92.6458 24.2835 92.5044C24.0761 92.363 23.8592 92.1744 23.7649 91.9764C23.7084 91.8633 23.8498 91.5427 24.0289 91.2787C24.1704 91.0619 24.3872 90.8733 24.5475 90.7696C24.7549 90.6376 24.9906 90.5527 25.2075 90.4302C25.4244 90.3076 25.6129 90.1473 25.8298 90.0247C26.0466 89.9022 26.2823 89.8267 26.4992 89.7042C26.716 89.5816 26.9423 89.4873 27.1686 89.3742C27.3949 89.261 27.5835 89.0913 27.8003 88.9876C28.0172 88.8839 28.2057 88.7425 28.4132 88.6387C28.6206 88.535 28.8657 88.4973 29.0826 88.3936C29.2994 88.2899 29.4786 88.1296 29.686 88.0165C29.8934 87.9034 30.1103 87.8185 30.3177 87.6959C30.5251 87.5733 30.7514 87.5073 30.9588 87.3848C31.1663 87.2622 31.3454 87.1113 31.534 86.9699C31.7225 86.8285 31.93 86.7154 32.1185 86.5645C32.3071 86.4137 32.4391 86.2062 32.6088 86.0554C32.7785 85.9045 33.0331 85.8197 33.2028 85.6499C33.3725 85.4802 33.4479 85.2351 33.5988 85.056C33.7308 84.8957 33.9382 84.792 34.0608 84.6223C34.1834 84.462 34.3059 84.3017 34.4379 84.1225C34.5511 83.9623 34.6548 83.7737 34.7868 83.5946C34.8999 83.4343 34.9754 83.2457 35.1074 83.0666C34.8434 82.9629 34.5982 82.9157 34.3813 82.812C34.1268 82.6988 33.9288 82.5103 33.7025 82.4254C33.4574 82.3311 33.2028 82.2557 32.9577 82.218C32.7408 82.1897 32.524 82.1143 32.2977 82.086C32.0714 82.0577 31.8451 82.1237 31.6188 82.1048C31.3925 82.086 31.1757 82.0671 30.9494 82.0577C30.7231 82.0483 30.5157 81.9351 30.2894 81.9257C30.0631 81.9163 29.8369 82.0011 29.62 81.9917C29.4031 81.9823 29.1769 82.0011 28.9506 82.0011C28.7243 82.0011 28.5074 82.0011 28.2811 82.0011C28.0549 82.0011 27.8286 81.8974 27.6117 81.9069C27.3949 81.9163 27.1686 81.954 26.9423 81.9729C26.716 81.9917 26.4992 82.0577 26.2823 82.086C26.0655 82.1143 25.8298 82.086 25.6129 82.1237C25.3961 82.1614 25.1886 82.2651 24.9623 82.3028C24.7361 82.3405 24.5286 82.3877 24.3118 82.4348C24.0949 82.482 23.8875 82.5574 23.6707 82.6046C23.4538 82.6517 23.2369 82.68 23.0201 82.7366C22.8032 82.7931 22.577 82.812 22.3695 82.8874C22.1621 82.9628 21.9547 83.0571 21.7472 83.1325C21.5398 83.208 21.3607 83.3588 21.1533 83.4437C20.9458 83.5286 20.7195 83.5474 20.5121 83.6417C20.3047 83.736 20.0879 83.7737 19.8804 83.868C19.673 83.9622 19.5316 84.1603 19.3336 84.264C19.1356 84.3677 18.8716 84.3488 18.6736 84.4525C18.4756 84.5562 18.287 84.6788 18.0984 84.792C17.9004 84.9051 17.7213 85.0465 17.5233 85.1597C17.3253 85.2728 17.1179 85.3577 16.9199 85.4708C16.7219 85.5839 16.5239 85.6971 16.3353 85.8102C16.1468 85.9234 15.9959 86.1214 15.8073 86.2439C15.6188 86.3665 15.3925 86.4325 15.2039 86.5551C15.0153 86.6776 14.7985 86.7625 14.6099 86.8851C14.4213 87.0076 14.2328 87.1302 14.0442 87.2528C13.8557 87.3753 13.6671 87.5074 13.4785 87.6299C13.2899 87.7525 13.0919 87.875 12.9034 87.9976C12.7148 88.1202 12.564 88.3088 12.3848 88.4408C12.2057 88.5728 11.9605 88.6293 11.7814 88.7519C11.6022 88.8745 11.4703 89.1007 11.2911 89.2327C11.112 89.3647 10.8951 89.459 10.716 89.591C10.5369 89.723 10.3671 89.8833 10.188 90.0153C10.0089 90.1473 9.82028 90.2793 9.64114 90.4113C9.462 90.5433 9.28285 90.6847 9.10371 90.8262C8.92457 90.9676 8.71716 91.0619 8.52859 91.1939C8.34002 91.3259 8.13258 91.4296 7.95344 91.5616C7.7743 91.6936 7.64231 91.8916 7.46317 92.033C7.28403 92.1744 7.06719 92.2593 6.88805 92.4007C6.70891 92.5421 6.51089 92.6553 6.34118 92.7967C6.17147 92.9381 6.03946 93.1361 5.86032 93.287C5.68118 93.4378 5.45491 93.5133 5.2852 93.6547C5.11549 93.7961 4.99293 94.0035 4.82322 94.1544C4.65351 94.3052 4.53092 94.5127 4.36121 94.6635C4.19149 94.8144 3.94636 94.8804 3.77665 95.0312C3.60693 95.1821 3.43721 95.3235 3.2675 95.4744C3.09779 95.6252 3.00351 95.8515 2.8338 96.0024C2.66409 96.1532 2.51325 96.3229 2.34353 96.4738C2.17382 96.6246 1.96639 96.7283 1.80611 96.8886C1.64582 97.0489 1.5421 97.2658 1.38182 97.4261C1.22153 97.5863 1.01411 97.6995 0.853825 97.8598C0.693542 98.02 0.486127 98.1332 0.335272 98.3029C0.184417 98.4726 0.108996 98.7178 -0.0418593 98.878C-0.192714 99.0383 -0.428441 99.1326 -0.588725 99.3023C-0.749008 99.472 -0.928138 99.604 -1.07899 99.7737C-1.22985 99.9434 -1.29586 100.189 -1.44672 100.358C-1.59757 100.528 -1.8427 100.613 -1.99355 100.783C-2.08784 100.886 -2.16327 100.999 -2.38012 101.141C-2.61583 101.377 -2.57812 101.329 -2.73841 101.707C-2.81384 101.886 -2.92697 102.093 -2.99296 102.338C-3.05896 102.536 -3.05898 102.781 -3.09669 103.008C-3.13441 103.225 -3.20981 103.451 -3.21924 103.677C-3.21924 103.894 -3.16269 104.12 -3.12498 104.356C-3.08726 104.573 -3.05895 104.799 -2.98353 105.016C-2.9081 105.223 -2.81382 105.431 -2.69125 105.629C-2.57811 105.817 -2.44612 105.997 -2.28583 106.176C-2.14441 106.336 -1.93697 106.44 -1.7484 106.591C-1.58812 106.732 -1.39956 106.836 -1.19213 106.968C-1.01299 107.081 -0.871556 107.279 -0.654702 107.382C-0.466133 107.477 -0.286998 107.628 -0.0701435 107.722C0.127854 107.807 0.372976 107.816 0.58983 107.892C0.797256 107.958 0.995265 108.071 1.22155 108.137L1.2027 108.099Z" stroke="#FFD400" stroke-width="1.15" stroke-linecap="round" stroke-linejoin="round"/>
<path d="M39.6802 83.2457C39.5953 83.538 39.5576 83.4814 39.5199 83.8397C39.501 84.0188 39.5199 84.2357 39.5293 84.462C39.5293 84.66 39.5387 84.8674 39.5859 85.0748C39.6236 85.2351 39.6047 85.4708 39.5859 85.7725C39.5764 85.98 39.5858 86.2157 39.567 86.4702C39.5481 86.6965 39.5387 86.9322 39.5104 87.1679C39.4821 87.4036 39.3973 87.6299 39.369 87.8656C39.3407 88.1014 39.3218 88.3465 39.303 88.5633C39.2841 88.8179 39.2559 89.063 39.2559 89.2705C39.2559 89.6005 39.3124 89.855 39.3973 89.9588C39.5293 90.1096 39.765 90.1568 39.9818 90.2228C40.1987 90.2888 40.3967 90.3076 40.5947 90.2322C40.7927 90.1567 40.9247 90.0436 40.9907 89.789C41.0284 89.6476 41.0944 89.4307 41.1604 89.1667C41.2075 88.9782 41.2453 88.7708 41.3113 88.5445C41.3584 88.3465 41.4244 88.1391 41.481 87.9222C41.5281 87.7148 41.613 87.5168 41.6601 87.2999C41.7072 87.0831 41.6695 86.8662 41.6978 86.6494C41.7261 86.4325 41.811 86.2251 41.8204 86.0082C41.8298 85.782 41.8298 85.5651 41.8204 85.3671C41.8015 85.1314 41.7167 84.9334 41.6507 84.7542C41.5658 84.528 41.481 84.3205 41.4338 84.1131C41.3773 83.8774 41.481 83.6417 41.4715 83.4437C41.4527 83.1986 41.4244 82.9817 41.4621 82.7931C41.5093 82.5197 41.5753 82.3123 41.6695 82.1897C41.4527 81.9729 41.3961 82.0954 41.0567 82.1331C40.8681 82.152 40.689 82.2934 40.4815 82.3783C40.3024 82.4537 40.0573 82.4726 39.9064 82.6423C39.7839 82.7837 39.7461 83.01 39.6802 83.2363V83.2457Z" fill="#082C4C"/>
<path d="M33.6646 102.762C33.4949 102.451 33.6646 102.461 33.7589 102.074C33.8155 101.857 33.9663 101.65 34.0512 101.423C34.1455 101.188 34.202 100.924 34.334 100.773C34.5132 100.575 34.7206 100.528 34.9658 100.641C35.126 100.716 35.324 100.839 35.5503 100.961C35.7294 101.065 35.9746 101.093 36.1726 101.207C36.3612 101.32 36.5591 101.433 36.7477 101.546C36.9363 101.659 37.106 101.838 37.2946 101.942C37.5114 102.065 37.7094 102.178 37.8791 102.263C38.1808 102.413 38.4354 102.498 38.5203 102.489C38.6428 102.47 38.9068 102.593 39.2274 102.772C39.4537 102.894 39.7082 103.007 39.9062 103.158C40.1797 103.366 40.4059 103.583 40.4248 103.743C40.4248 103.847 40.3965 104.129 40.2834 104.469C40.2174 104.676 40.0854 104.893 39.9911 105.138C39.9062 105.355 39.8685 105.61 39.7742 105.836C39.6799 106.062 39.4631 106.241 39.3688 106.468C39.2651 106.713 39.2462 106.977 39.1614 107.175C39.0105 107.505 38.8408 107.722 38.7843 107.807C38.7371 107.882 38.69 108.127 38.5485 108.4C38.4637 108.57 38.3411 108.749 38.228 108.957C38.1337 109.136 38.0111 109.324 37.9074 109.513C37.8037 109.702 37.7 109.9 37.5963 110.079C37.4926 110.258 37.37 110.465 37.2569 110.626C37.1249 110.824 36.9928 111.003 36.8608 111.144C36.6723 111.361 36.4554 111.399 36.314 111.408C36.1066 111.418 35.8237 111.484 35.5409 111.408C35.2863 111.342 35.0223 111.248 34.8055 111.144C34.4095 110.965 34.202 110.767 34.3718 110.682C34.4566 110.635 34.598 110.418 34.7206 110.126C34.796 109.956 34.8714 109.749 34.9469 109.532C35.0129 109.343 35.0977 109.145 35.1732 108.938C35.2486 108.73 35.3052 108.532 35.3617 108.334C35.4183 108.136 35.3994 107.901 35.4466 107.703C35.5032 107.486 35.5786 107.279 35.6163 107.09C35.6729 106.835 35.7577 106.628 35.7671 106.477C35.786 106.27 35.7389 106.015 35.7012 105.761C35.6635 105.525 35.6729 105.27 35.6069 105.035C35.5409 104.789 35.4183 104.563 35.3429 104.356C35.2203 104.035 35.0883 103.799 35.0034 103.724C34.8903 103.63 34.5886 103.46 34.3057 103.262C33.9663 103.017 33.8626 103.121 33.6646 102.753V102.762Z" fill="#082C4C"/>
</g>
</svg>
