<svg width="49" height="112" viewBox="0 0 49 112" fill="none" xmlns="http://www.w3.org/2000/svg">
<path d="M18.4239 73.2611C18.4051 72.9971 18.3674 72.7991 18.3485 72.5728C18.3297 72.3182 18.3108 72.0825 18.2825 71.8374C18.2542 71.5922 18.1788 71.3471 18.1505 71.102C18.1222 70.8568 18.0751 70.6117 18.0468 70.3665C18.0185 70.1214 18.0468 69.8668 18.0185 69.6217C17.9902 69.3766 18.0751 69.122 18.0468 68.8769C18.0185 68.6317 17.8205 68.396 17.8017 68.1509C17.7828 67.9057 17.9242 67.6417 17.9148 67.3966C17.9054 67.1515 17.8394 66.9063 17.83 66.6612C17.8205 66.416 17.83 66.1615 17.83 65.9163C17.83 65.6712 17.6885 65.426 17.6791 65.1809C17.6697 64.9358 17.7828 64.6812 17.7734 64.4361C17.764 64.1909 17.6603 63.9458 17.6508 63.7006C17.6414 63.4555 17.5848 63.2104 17.5754 62.9558C17.566 62.7012 17.5754 62.4561 17.5754 62.211C17.5754 61.9658 17.6791 61.7112 17.6697 61.4661C17.6697 61.2021 17.5848 60.9381 17.5754 60.6741C17.566 60.4101 17.5754 60.1461 17.5565 59.8821C17.5377 59.6181 17.4623 59.3541 17.4434 59.0901C17.4245 58.8261 17.4528 58.5621 17.4434 58.2887C17.434 58.0153 17.3208 57.7607 17.3114 57.4967C17.302 57.2327 17.4151 56.9593 17.4057 56.6953C17.3868 56.3842 17.3585 55.9599 17.5188 55.8468C17.8488 55.6299 17.9714 55.3282 17.9808 55.0736C17.9902 54.8002 17.8017 54.5079 17.764 54.2251C17.7357 53.9799 17.7828 53.7254 17.764 53.4896C17.7451 53.2539 17.764 52.9994 17.7451 52.7542C17.7262 52.5091 17.5754 52.2639 17.5754 52.0188C17.5754 51.7737 17.6414 51.5285 17.6508 51.2834C17.6603 51.0382 17.6603 50.7931 17.6791 50.548C17.698 50.3028 17.7734 50.0671 17.8017 49.822C17.83 49.5768 17.9054 49.3411 17.9431 49.1054C17.9808 48.8697 17.9431 48.6151 17.9808 48.37C18.0185 48.1249 18.0751 47.8891 18.1128 47.644C18.1788 47.2857 18.1694 46.918 18.16 46.5597C18.16 46.2957 18.1317 46.2863 17.8771 46.2015C17.7545 46.1543 17.6414 46.0977 17.3774 46.0317C17.302 46.2863 17.2171 46.4749 17.1511 46.7295C17.0851 46.984 16.9908 47.2292 16.9343 47.4837C16.8777 47.7383 16.7834 47.9834 16.7457 48.2474C16.708 48.5114 16.7645 48.7754 16.7268 49.03C16.6891 49.2846 16.6231 49.5391 16.6043 49.8031C16.5854 50.0671 16.5666 50.3217 16.5477 50.5763C16.5288 50.8308 16.4911 51.0948 16.4817 51.3494C16.4723 51.604 16.4628 51.868 16.4628 52.1319C16.4628 52.3959 16.5948 52.6505 16.6043 52.9145C16.6137 53.1785 16.5477 53.4331 16.5477 53.6971C16.5477 53.9611 16.5854 54.2345 16.5948 54.4891C16.3874 54.5362 16.1046 54.4891 15.8311 54.5173C15.6048 54.5456 15.3691 54.6682 15.1051 54.6776C14.8694 54.687 14.6243 54.6965 14.3697 54.6965C14.134 54.6965 13.8794 54.6682 13.6343 54.6588C13.3892 54.6493 13.144 54.6399 12.8989 54.6211C12.6537 54.6022 12.4086 54.5173 12.1635 54.4985C11.9183 54.4796 11.6732 54.4136 11.4375 54.3853C11.2018 54.3571 10.9283 54.4513 10.6832 54.4231C10.4286 54.3853 10.1929 54.3288 9.95721 54.2816C9.70265 54.2345 9.44808 54.2345 9.2218 54.1873C8.9578 54.1308 8.73152 54.0176 8.51466 53.9516C8.24124 53.8668 8.00553 53.7913 7.83582 53.6971C7.90181 53.4708 7.9301 53.2256 7.9961 52.9899C8.0621 52.7542 8.17523 52.5374 8.24123 52.3017C8.30723 52.0659 8.30724 51.8208 8.38267 51.5851C8.45809 51.3494 8.57123 51.1325 8.64666 50.9062C8.72209 50.68 8.86352 50.4725 8.9578 50.2463C9.05209 50.0105 9.08037 49.756 9.17465 49.5203C9.26894 49.2846 9.3538 49.0488 9.44808 48.8226C9.54237 48.5963 9.74979 48.4077 9.84408 48.1814C9.93836 47.9551 9.91007 47.6629 10.0138 47.4366C10.1175 47.2103 10.2684 47.0029 10.3721 46.7766C10.4758 46.5503 10.6643 46.3617 10.7775 46.1355C10.8906 45.9092 11.0226 45.6923 11.1358 45.4755C11.2489 45.2586 11.2112 44.9475 11.3338 44.7306C11.4563 44.5138 11.5978 44.3063 11.7203 44.0801C11.8429 43.8538 12.0786 43.7029 12.2012 43.4861C12.3238 43.2692 12.418 43.0335 12.55 42.8166C12.682 42.5998 12.7009 42.3264 12.8329 42.1095C12.9649 41.8927 13.2195 41.7607 13.3515 41.5438C13.4835 41.327 13.54 41.0724 13.6814 40.865C13.8229 40.6575 14.0397 40.4973 14.1812 40.2898C14.3226 40.073 14.464 39.8561 14.596 39.6393C14.728 39.4224 14.8977 39.215 15.0391 38.9981C15.1806 38.7813 15.256 38.5173 15.3974 38.3099C15.5389 38.1024 15.6614 37.8667 15.8123 37.6593C15.9631 37.4519 16.0668 37.2067 16.2271 37.0087C16.3874 36.8107 16.5666 36.6222 16.7363 36.4242C16.906 36.2262 17.0663 36.0282 17.2454 35.8396C17.4245 35.651 17.6697 35.5379 17.8677 35.3682C18.094 35.1608 18.3014 34.9345 18.5277 34.7365C18.7539 34.5385 18.9991 34.3122 19.2254 34.1048C19.4139 34.2462 19.6779 34.3499 19.8571 34.4913C20.0362 34.6328 20.2436 34.7742 20.4322 34.9156C20.6208 35.057 20.6868 35.3588 20.8753 35.5002C21.0639 35.6416 21.2713 35.7547 21.4599 35.8962C21.6485 36.0376 21.7993 36.2167 21.9785 36.3676C22.1293 36.4902 22.3179 36.575 22.4122 36.7636C22.497 36.9427 22.6102 37.1124 22.695 37.2822C22.827 37.5179 22.9402 37.7536 23.0816 37.961C23.2325 38.1873 23.3362 38.4324 23.4965 38.6304C23.6662 38.8378 23.8265 39.0547 24.015 39.2244C24.213 39.4036 24.4582 39.5167 24.675 39.6581C24.8919 39.7995 25.1559 39.8467 25.401 39.941C25.6461 40.0353 25.8724 40.139 26.1364 40.1861C26.3816 40.2333 26.6267 40.3558 26.9001 40.3653C27.1547 40.3841 27.4187 40.337 27.6827 40.3181C27.9373 40.2993 28.1824 40.205 28.4558 40.1673C28.7292 40.1295 29.0215 40.1673 29.2667 40.0918C29.5212 39.9975 29.7946 39.9221 30.0209 39.7901C30.2472 39.6581 30.3792 39.3658 30.5772 39.1961C30.7752 39.0264 30.9826 38.8567 31.1618 38.6493C31.3409 38.4418 31.5295 38.2627 31.6709 38.027C31.7935 37.8384 31.8972 37.6499 32.0386 37.5084C32.1895 37.3576 32.3686 37.2444 32.5478 37.1219C32.7175 37.0087 32.906 36.9144 33.104 36.8296C33.3115 36.7353 33.5283 36.6504 33.7357 36.5467C33.9432 36.443 34.1034 36.2545 34.3109 36.1507C34.5183 36.047 34.688 35.8867 34.886 35.7642C35.084 35.6416 35.3009 35.5567 35.4989 35.4342C35.6968 35.3116 35.9231 35.2456 36.1211 35.123C36.3663 34.9628 36.5548 34.9816 36.7434 34.991C36.932 35.0005 37.0734 35.057 37.2808 35.255C37.46 35.4247 37.724 35.5002 37.8937 35.6793C38.0634 35.8585 38.2048 36.0659 38.3745 36.245C38.5442 36.4242 38.6762 36.6316 38.846 36.8107C39.0157 36.9899 39.2702 37.0842 39.4305 37.2633C39.5908 37.4424 39.6568 37.7159 39.8077 37.9044C39.9585 38.093 40.1848 38.225 40.3356 38.4136C40.4865 38.6021 40.5714 38.8473 40.7128 39.0453C40.8542 39.2433 41.0899 39.3753 41.2313 39.5827C41.3728 39.7901 41.4671 40.0164 41.5991 40.2238C41.7311 40.4313 41.8442 40.6481 41.9573 40.865C42.0705 41.0818 42.1459 41.3175 42.259 41.5344C42.3722 41.7512 42.5419 41.9398 42.6456 42.1661C42.7493 42.3924 42.7493 42.6564 42.8342 42.8826C42.9285 43.1278 43.0227 43.3824 43.117 43.6275C43.2113 43.8726 43.3339 44.1083 43.4282 44.3629C43.5225 44.6175 43.7016 44.8249 43.8053 45.07C43.909 45.3152 43.9845 45.5698 44.0787 45.8149C44.173 46.06 44.2202 46.324 44.305 46.5786C44.3899 46.8332 44.5879 47.0406 44.6727 47.2952C44.7576 47.5497 44.8047 47.8137 44.8801 48.0589C44.9556 48.304 44.9179 48.5963 44.9839 48.8508C45.0499 49.1054 45.1913 49.3411 45.2479 49.6051C45.3044 49.8408 45.4081 50.0765 45.4553 50.3123C45.5024 50.548 45.493 50.8025 45.5307 51.0477C45.5684 51.2928 45.6061 51.5285 45.6439 51.7737C45.6816 52.0188 45.6816 52.2639 45.7099 52.5091C45.7381 52.7542 45.7193 52.9994 45.7476 53.2445C45.7853 53.5745 45.9456 53.8291 45.9173 54.0176C45.8796 54.3005 45.6721 54.4891 45.3893 54.6116C45.2102 54.687 44.9367 54.6116 44.6161 54.6776C44.3899 54.7248 44.173 54.8568 43.9373 54.8945C43.7016 54.9322 43.4847 55.0548 43.249 55.083C43.0133 55.1113 42.7776 55.0925 42.5513 55.1302C42.3251 55.1679 42.0988 55.215 41.863 55.2716C41.5991 55.3282 41.3351 55.3376 41.0711 55.3848C40.8071 55.4319 40.5525 55.5356 40.2979 55.5733C40.0434 55.611 39.7605 55.545 39.4965 55.5733C39.2325 55.6016 38.9685 55.6582 38.7045 55.677C38.4405 55.6959 38.1765 55.6488 37.9031 55.6676C37.6297 55.6865 37.3751 55.809 37.1111 55.8185C36.8471 55.8279 36.5737 55.7148 36.3097 55.7242C36.0457 55.7336 35.7817 55.8656 35.5177 55.8656C35.2537 55.8656 34.9897 55.6959 34.7163 55.6959C34.5183 55.6959 34.2354 55.7619 33.9243 55.6865C33.9432 55.4508 34.0186 55.149 34.0374 54.9228C34.0563 54.6965 34.0563 54.4608 34.0752 54.2345C34.094 54.0082 34.1129 53.7819 34.1412 53.5556C34.1694 53.3011 34.1883 53.0371 34.226 52.7825C34.2637 52.5279 34.3486 52.2734 34.3863 52.0188C34.424 51.7642 34.49 51.5097 34.5183 51.2551C34.5466 51.0005 34.4523 50.7271 34.49 50.4725C34.5277 50.218 34.7257 49.9823 34.7634 49.7277C34.8011 49.4731 34.7069 49.1997 34.7446 48.9451C34.7634 48.8037 34.8672 48.6151 34.8012 48.5114C34.688 48.3229 34.4806 48.238 34.3203 48.0777C34.2072 48.238 34.1129 48.3511 34.0846 48.5303C34.0374 48.766 33.9337 48.9923 33.8866 49.228C33.8395 49.4637 33.6886 49.6806 33.6414 49.9163C33.5943 50.152 33.7169 50.4254 33.6697 50.6611C33.6226 50.8968 33.4812 51.1137 33.434 51.3588C33.3869 51.604 33.3963 51.8397 33.3492 52.0848C33.302 52.3299 33.2172 52.5562 33.17 52.7919C33.1229 53.0276 33.0192 53.2539 32.972 53.4896C32.9249 53.7254 33.0475 53.9988 33.0097 54.2345C32.972 54.4702 32.8872 54.7059 32.84 54.9416C32.7929 55.1773 32.8023 55.4225 32.7552 55.6676C32.6609 56.1579 32.6138 56.3182 32.7175 56.469C32.8212 56.6105 32.972 56.7896 33.434 56.9216C33.5 56.9405 33.5849 56.9404 33.7263 57.0442C33.6603 57.2893 33.566 57.5344 33.5 57.789C33.434 58.0436 33.3586 58.2793 33.2926 58.5244C33.2266 58.7696 33.104 59.0053 33.0475 59.2504C32.9909 59.4956 33.0475 59.7784 32.9909 60.0235C32.9343 60.2687 32.7363 60.4855 32.6798 60.7307C32.6232 60.9758 32.6043 61.2398 32.5478 61.485C32.4912 61.7301 32.5289 62.0035 32.4723 62.2487C32.4158 62.4938 32.2461 62.7201 32.1801 62.9652C32.1141 63.2104 32.1518 63.4838 32.0952 63.7289C32.0386 63.9741 31.8595 64.2003 31.8029 64.4455C31.7463 64.6906 31.8218 64.9735 31.7652 65.2186C31.7086 65.4638 31.4729 65.6712 31.4163 65.9258C31.3598 66.1803 31.3032 66.4255 31.2466 66.6706C31.1901 66.9157 31.2466 67.1986 31.1901 67.4437C31.1335 67.6889 31.0298 67.934 30.9732 68.1791C30.9166 68.4243 30.8884 68.6789 30.8224 68.9334C30.7564 69.188 30.7092 69.4331 30.6526 69.6783C30.5961 69.9234 30.5678 70.1874 30.5018 70.4325C30.4358 70.6777 30.3604 70.9228 30.2944 71.168C30.2284 71.4131 30.1718 71.6677 30.1058 71.9128C30.0398 72.1579 29.9078 72.4031 29.8418 72.6482C29.5872 72.6105 29.3138 72.6671 29.0592 72.6482C28.8047 72.6294 28.5595 72.4125 28.305 72.4031C28.0504 72.3937 27.7864 72.4314 27.5318 72.4314C27.2773 72.4314 27.0227 72.5445 26.7587 72.5445C26.4947 72.5445 26.2496 72.5257 25.9856 72.5445C25.7216 72.5634 25.467 72.4879 25.2124 72.5068C24.9579 72.5257 24.7033 72.6199 24.4487 72.6388C24.1942 72.6577 23.9396 72.6954 23.685 72.7237C23.4305 72.7519 23.1665 72.7237 22.9119 72.7614C22.6573 72.7991 22.4216 72.9499 22.167 72.9782C21.9125 73.0065 21.6579 73.0442 21.4033 73.0819C21.1488 73.1197 20.8848 73.0254 20.6302 73.0631C20.3756 73.1008 20.1211 73.1197 19.8665 73.1479C19.6119 73.1762 19.3668 73.3082 19.1122 73.3271C18.8577 73.3459 18.6314 73.2799 18.3768 73.2988L18.4239 73.2611Z" fill="#E63500"/>
<path d="M41.4388 26.5997C41.3633 26.3735 41.401 26.166 41.4293 25.9398C41.4576 25.7135 41.3822 25.4589 41.4199 25.2421C41.4576 25.0063 41.4859 24.8178 41.401 24.6009C41.3351 24.4124 41.2785 24.2144 41.0333 24.0541C40.8636 24.2332 40.8165 24.4595 40.7222 24.6763C40.6279 24.8932 40.3922 25.0629 40.3356 25.2892C40.2791 25.5155 40.3356 25.7795 40.2602 26.0058C40.1848 26.232 40.0433 26.4018 39.9019 26.5997C39.7699 26.5526 39.6002 26.6092 39.4965 26.5338C39.2891 26.3829 39.1759 26.1283 38.9779 25.9775C38.7799 25.8266 38.4782 25.7983 38.2802 25.6475C38.0822 25.4966 37.9125 25.3081 37.7145 25.1478C37.5165 24.9875 37.4128 24.7235 37.2242 24.5632C37.0357 24.4029 36.8188 24.2615 36.6397 24.1012C36.4605 23.9409 36.1777 23.8561 35.9985 23.6864C35.8194 23.5166 35.6497 23.3281 35.4706 23.1489C35.2914 22.9698 35.1028 22.8095 34.9237 22.6304C34.7446 22.4512 34.622 22.225 34.4523 22.0458C34.2826 21.8667 34.1223 21.6687 33.962 21.4707C33.8017 21.2727 33.6509 21.0747 33.5 20.8767C33.3492 20.6787 33.1983 20.4807 33.0475 20.2733C32.8966 20.0658 32.7646 19.8584 32.6232 19.651C32.4817 19.4436 32.3874 19.2079 32.2555 18.991C32.1235 18.7741 31.9443 18.595 31.8123 18.3782C31.6615 18.1236 31.4163 17.9162 31.19 17.6427C30.9921 17.7936 30.8223 17.935 30.6621 18.0859C30.4829 18.2462 30.3698 18.4347 30.2378 18.6233C30.1058 18.8119 30.0021 18.991 29.9266 19.2173C29.8606 19.4247 29.8606 19.6321 29.8606 19.8773C29.8606 20.1413 29.7569 20.3958 29.7381 20.6598C29.7192 20.9238 29.7003 21.1878 29.6626 21.4424C29.6249 21.697 29.5589 21.961 29.5118 22.2155C29.4646 22.4701 29.4081 22.7341 29.3704 22.9887C29.3421 23.1961 29.2855 23.4224 29.1441 23.8466C29.0309 23.6486 28.9272 23.4318 28.8329 23.2809C28.7104 23.0924 28.6067 22.9509 28.5501 22.7718C28.4652 22.5172 28.4464 22.2438 28.3615 21.9892C28.2767 21.7347 28.1352 21.499 28.0504 21.2444C27.9655 20.9898 27.9184 20.7258 27.8429 20.4713C27.7675 20.2167 27.6544 19.9716 27.5695 19.717C27.4847 19.4624 27.3715 19.2173 27.2867 18.9627C27.2018 18.7081 27.0792 18.463 27.0038 18.2084C26.9284 17.9539 26.8341 17.6993 26.7587 17.4447C26.7021 17.275 26.7587 17.0582 26.6927 16.8696C26.6361 16.7093 26.5418 16.5302 26.4664 16.3228C26.2684 16.5019 26.1364 16.7659 25.9667 16.9639C25.797 17.1619 25.6178 17.3693 25.467 17.5767C25.3161 17.7842 25.0804 17.9539 24.939 18.1802C24.7976 18.4064 24.6561 18.6327 24.5147 18.859C24.3733 19.0853 24.2696 19.3304 24.1187 19.5473C23.9679 19.7641 23.7887 19.8867 23.6096 20.0847C23.421 19.9056 23.4587 19.7641 23.4587 19.5567C23.4587 19.3399 23.4304 19.1136 23.1287 19.0381C22.8742 18.9721 22.6385 19.0193 22.4687 19.1136C22.2802 19.2173 22.1293 19.4059 21.9879 19.5661C21.8182 19.7547 21.6862 19.9716 21.5165 20.1601C21.3467 20.3487 21.1676 20.5278 21.0073 20.7164C20.847 20.905 20.6302 21.0558 20.4699 21.2538C20.3096 21.4518 20.2153 21.7064 20.0551 21.895C19.8948 22.0835 19.7439 22.291 19.5742 22.4889C19.4045 22.6869 19.1876 22.8284 19.0274 23.0169C18.8671 23.2055 18.7256 23.4224 18.5559 23.6109C18.3862 23.7995 18.2165 23.9881 18.0562 24.1766C17.9242 24.3275 17.8111 24.5066 17.6697 24.6575C17.5282 24.8083 17.3491 24.9121 17.2171 25.0629C17.1322 25.0346 17.1511 24.9969 17.0662 24.9686C17.0285 24.6292 16.84 24.3181 16.8588 23.9881C16.8777 23.6958 16.9625 23.4129 16.9814 23.1301C17.0002 22.8472 17.0002 22.555 17.0285 22.2627C17.0568 21.9704 17.1794 21.697 17.2077 21.4141C17.2265 21.2161 17.2925 20.9615 17.2831 20.7541C17.2831 20.5373 17.0945 20.4147 16.8022 20.3581C16.5005 20.3016 16.312 20.3581 16.2365 20.5561C16.1611 20.7541 16.3025 21.0558 16.2554 21.2444C16.1988 21.499 16.0197 21.7252 15.982 21.9892C15.9443 22.2532 15.916 22.5078 15.8971 22.7718C15.8783 23.0358 15.9631 23.2904 15.9631 23.5544C15.9631 23.8184 15.9443 24.0729 15.9631 24.3275C15.982 24.5821 15.8971 24.8555 15.9348 25.1101C15.9631 25.3646 16.0574 25.6192 16.0574 25.9115C16.0574 26.1566 16.0763 26.4489 16.0857 26.7506C15.9348 26.5715 15.8123 26.2792 15.6614 26.0152C15.5294 25.7889 15.3597 25.572 15.2371 25.3175C15.1146 25.0629 14.9448 24.8461 14.8506 24.5915C14.7563 24.3369 14.662 24.0635 14.596 23.8089C14.5206 23.5167 14.4451 23.2338 14.4357 22.9981C14.4169 22.7341 14.5206 22.4607 14.5111 22.1967C14.5017 21.9327 14.5111 21.6687 14.5111 21.3953C14.5111 21.1218 14.5489 20.8673 14.5583 20.5938C14.5677 20.3204 14.4829 20.0564 14.5017 19.7924C14.5206 19.5284 14.5111 19.255 14.5488 18.991C14.5771 18.7553 14.7468 18.529 14.7846 18.2933C14.8223 18.0576 14.6997 17.7842 14.7468 17.5485C14.794 17.3127 14.8128 17.0676 14.86 16.8225C14.9071 16.5773 15.0391 16.3605 15.0957 16.1248C15.1523 15.889 15.2937 15.6722 15.3503 15.4365C15.4068 15.2008 15.4634 14.9651 15.5294 14.7293C15.5954 14.4936 15.5954 14.2391 15.6614 14.0128C15.7368 13.7771 15.784 13.5414 15.8688 13.3057C15.9537 13.0699 16.0103 12.8342 16.0951 12.6079C16.18 12.3817 16.3968 12.2025 16.5005 11.9762C16.6043 11.75 16.7268 11.5425 16.8305 11.3257C16.9342 11.1088 16.9437 10.8354 17.0568 10.6185C17.17 10.4017 17.368 10.232 17.4905 10.0246C17.6131 9.81713 17.6885 9.57199 17.8205 9.36457C17.9525 9.15714 18.0279 8.912 18.1599 8.714C18.2919 8.51601 18.4239 8.29915 18.5654 8.10116C18.7068 7.90316 18.9896 7.80887 19.1405 7.62031C19.2914 7.43174 19.4422 7.23374 19.5931 7.04517C19.7439 6.8566 19.8854 6.6586 20.0551 6.47946C20.2248 6.30032 20.2813 6.0269 20.4511 5.84776C20.6113 5.67805 20.8942 5.62148 21.0639 5.46119C21.2336 5.30091 21.375 5.10291 21.5353 4.94263C21.6956 4.78234 21.8653 4.6032 22.0256 4.44292C22.1859 4.28264 22.4027 4.15064 22.563 3.99036C22.7516 3.79236 22.8647 3.51893 23.0722 3.34922C23.2796 3.17951 23.5059 3.01923 23.7321 2.8778C23.9584 2.73637 24.2413 2.68923 24.4864 2.57609C24.7316 2.46295 24.9296 2.21781 25.1936 2.14238C25.3256 2.10467 25.5236 2.09524 25.665 2.01038C25.6461 1.72753 25.5235 1.44468 25.3633 1.29382C25.203 1.14297 24.873 1.1524 24.675 1.01097C24.477 0.869543 24.4581 0.671546 24.3639 0.445263C24.5807 0.294408 24.7033 0.0869823 24.939 0.0492686C25.1841 0.00212641 25.4387 0.171839 25.6838 0.200124C25.929 0.22841 26.1835 0.200124 26.4193 0.237838C26.655 0.28498 26.8812 0.388692 27.117 0.445263C27.3527 0.501834 27.6072 0.482977 27.8335 0.567833C28.0598 0.652689 28.2484 0.812973 28.4558 0.944971C28.6632 1.07697 28.8424 1.20897 29.0215 1.38811C29.1818 1.55782 29.3986 1.73696 29.5212 1.96324C29.3798 2.19895 29.0686 2.39695 28.9744 2.66095C28.9084 2.84009 28.8989 3.21722 29.0026 3.33036C29.1158 3.45293 29.4646 3.37751 29.6343 3.32094C29.9266 3.2078 30.2189 3.06637 30.4452 2.84952C30.6338 2.67038 30.794 2.46295 30.992 2.31209C31.19 2.16124 31.4163 2.01981 31.6332 1.88781C31.85 1.75582 32.0858 1.6521 32.312 1.53896C32.5383 1.42582 32.8023 1.39754 33.038 1.31268C33.2737 1.22782 33.5283 1.19954 33.7734 1.13354C34.0186 1.06754 34.2449 0.954399 34.4994 0.907257C34.754 0.860115 34.9897 0.794115 35.2443 0.76583C35.5083 0.737545 35.7628 0.652689 36.0268 0.652689C36.2908 0.652689 36.5548 0.718688 36.8094 0.746974C37.064 0.775259 37.3185 0.860115 37.5731 0.907257C37.8277 0.954399 38.0728 1.02983 38.3179 1.10525C38.5631 1.18068 38.7705 1.35039 39.0157 1.44468C39.2608 1.53896 39.5436 1.51068 39.7794 1.62382C39.9868 1.7181 40.2036 1.79353 40.4016 1.88781C40.5996 1.9821 40.7882 2.1141 40.9956 2.23667C41.203 2.35924 41.3633 2.50066 41.5425 2.64209C41.7122 2.77409 41.797 2.91551 41.9573 3.08523C41.7405 3.21722 41.6273 3.33037 41.4482 3.44351C41.2408 3.56608 41.071 3.7075 40.873 3.81122C40.5525 3.99036 40.3734 4.15064 40.3262 4.30149C40.2696 4.48063 40.4299 4.59378 40.7505 4.82949C40.9579 4.98977 41.0522 5.28205 41.2408 5.44234C41.4293 5.60262 41.6368 5.77233 41.8065 5.95147C41.9762 6.13061 42.1176 6.35689 42.2779 6.55489C42.4382 6.75289 42.6362 6.9226 42.7776 7.13003C42.919 7.33745 43.0793 7.54488 43.2019 7.77116C43.3244 7.99744 43.4376 8.22372 43.5413 8.45944C43.645 8.69515 43.8242 8.89314 43.9184 9.13828C44.0127 9.38342 44.0693 9.62856 44.1447 9.8737C44.2201 10.1188 44.3144 10.3546 44.3899 10.5997C44.4653 10.8448 44.5313 11.09 44.5879 11.3445C44.6444 11.5991 44.7387 11.8348 44.7953 12.0894C44.8424 12.3157 44.8424 12.5608 44.8896 12.7871C44.9367 13.0134 45.0499 13.2397 45.097 13.4659C45.1441 13.6922 45.1064 13.9374 45.1441 14.1731C45.1819 14.4088 45.2573 14.6351 45.295 14.8613C45.3327 15.0876 45.3516 15.3328 45.3799 15.559C45.4081 15.7853 45.3704 16.0305 45.3893 16.2662C45.4176 16.5113 45.5401 16.7565 45.5496 17.0016C45.559 17.2467 45.4836 17.5013 45.4836 17.7464C45.4836 17.9916 45.3421 18.2367 45.3233 18.4819C45.3044 18.727 45.361 18.9816 45.3233 19.2267C45.2856 19.4719 45.3327 19.7358 45.2856 19.981C45.2384 20.2261 45.0027 20.4241 44.9367 20.6598C44.8707 20.8955 44.9273 21.1784 44.8424 21.4047C44.7576 21.631 44.6444 21.8572 44.5501 22.093C44.4559 22.3287 44.3616 22.555 44.2579 22.7718C44.1542 22.9887 44.0976 23.2527 43.9844 23.4695C43.8713 23.6864 43.6262 23.8372 43.4942 24.0446C43.3622 24.2521 43.2302 24.4595 43.0887 24.6669C42.9473 24.8743 42.9002 25.1383 42.7493 25.3363C42.5985 25.5343 42.4099 25.704 42.2496 25.8926C42.0422 26.1566 41.7122 26.298 41.3822 26.5997H41.4388Z" fill="#FFD400"/>
<g opacity="0.55">
<path d="M35.0369 84.4149C35.0369 84.1509 35.1312 83.8492 35.1407 83.5946C35.1501 83.3401 35.0747 83.0572 35.1029 82.7932C35.1312 82.5292 35.3292 82.2841 35.3575 82.0201C35.3858 81.7561 35.3009 81.4827 35.3481 81.2187C35.3952 80.9547 35.4706 80.7001 35.5272 80.4455C35.5838 80.191 35.6309 79.927 35.7064 79.6724C35.7818 79.4179 35.7912 79.1444 35.8761 78.8993C35.9609 78.6541 36.1118 78.4279 36.2155 78.1733C36.3192 77.9187 36.3569 77.6547 36.4701 77.419C36.5643 77.221 36.8378 76.9853 37.0169 76.9759C37.262 76.957 37.4978 76.8627 37.7429 76.8533C37.988 76.8439 38.2238 76.8062 38.4689 76.7873C38.714 76.7685 38.9592 76.9193 39.2043 76.9005C39.4495 76.8816 39.6852 76.7685 39.9303 76.759C40.1754 76.7496 40.4206 76.8627 40.6657 76.8439C40.9109 76.825 41.1089 76.759 41.354 76.7496C41.4294 77.0796 41.4577 77.3059 41.486 77.5793C41.5048 77.8244 41.6557 78.0602 41.6746 78.3053C41.6934 78.5504 41.6086 78.805 41.6369 79.0501C41.6651 79.2953 41.7594 79.531 41.7783 79.7761C41.7971 80.0213 41.8443 80.2664 41.8631 80.5115C41.882 80.7567 41.7783 81.0113 41.7971 81.2564C41.816 81.5015 41.8631 81.7467 41.882 81.9918C41.9008 82.237 41.882 82.4821 41.9008 82.7367C41.9197 82.9912 41.9951 83.2269 42.014 83.4721C42.0328 83.7172 42.1177 83.9624 42.1366 84.2075C42.1554 84.4526 42.2591 84.6883 42.278 84.9335C42.2968 85.1786 42.2968 85.4238 42.3157 85.6689C42.3346 85.914 42.3157 86.1592 42.3345 86.4138C42.3534 86.6683 42.41 86.904 42.4288 87.1492C42.4477 87.3943 42.3063 87.6489 42.3251 87.9034C42.344 88.158 42.3723 88.3937 42.3911 88.6389C42.41 88.884 42.5985 89.1197 42.6174 89.3649C42.6363 89.61 42.542 89.8646 42.5608 90.1097C42.5797 90.3548 42.6457 90.6 42.6645 90.8451C42.6834 91.0903 42.6646 91.3354 42.6834 91.5805C42.7023 91.8257 42.6174 92.0802 42.6363 92.3254C42.6551 92.5705 42.7871 92.8062 42.806 93.0514C42.8248 93.2965 42.8625 93.5417 42.872 93.7868C42.8908 94.0319 42.9003 94.2771 42.9097 94.5222C42.9191 94.7673 42.8625 95.0125 42.872 95.2576C42.8814 95.5028 42.872 95.7479 42.872 95.993C42.872 96.2382 43.0228 96.4739 43.0228 96.719C43.0228 96.9642 42.9568 97.2093 42.9568 97.4545C42.9568 97.6996 42.9851 97.9447 42.9945 98.1899C43.004 98.435 43.0888 98.6801 43.0888 98.9159C43.0888 99.1516 43.0511 99.4061 43.0511 99.6513C43.0511 99.8964 43.0888 100.142 43.0888 100.387C43.0888 100.632 43.0323 100.877 43.0323 101.122C43.0323 101.367 43.0323 101.612 43.0323 101.858C43.0323 102.103 43.0983 102.348 43.1077 102.584C43.1077 102.857 42.9568 103.074 42.9474 103.262C42.9285 103.564 42.9757 103.79 42.8625 103.932C42.7494 104.073 42.5514 104.215 42.2686 104.3C42.0894 104.356 41.8254 104.224 41.5708 104.281C41.3351 104.337 41.1371 104.582 40.9014 104.639C40.6657 104.695 40.4112 104.695 40.1754 104.752C39.9397 104.809 39.704 104.903 39.4589 104.95C39.2137 104.997 38.9686 105.025 38.7329 105.063C38.4972 105.101 38.2332 105.063 37.9975 105.11C37.7618 105.157 37.5072 105.167 37.2715 105.205C37.0358 105.242 36.7906 105.28 36.5455 105.318C36.3003 105.355 36.0458 105.289 35.8006 105.318C35.5555 105.346 35.3198 105.44 35.0747 105.469C34.8295 105.497 34.5938 105.582 34.3487 105.61C34.1035 105.638 33.8584 105.582 33.6132 105.61C33.3681 105.638 33.123 105.629 32.8778 105.657C32.6327 105.685 32.3875 105.704 32.1424 105.723C31.8973 105.742 31.6521 105.723 31.407 105.733C31.1619 105.742 30.9261 105.817 30.681 105.836C30.4359 105.855 30.2002 105.997 29.955 106.015C29.7099 106.034 29.4553 105.912 29.2102 105.931C28.965 105.949 28.7293 106.053 28.4842 106.072C28.239 106.091 28.0033 106.157 27.7582 106.176C27.5131 106.195 27.2679 106.251 27.0322 106.27C26.7965 106.289 26.5325 106.129 26.2874 106.147C26.0422 106.166 25.7971 106.195 25.5519 106.204C25.3068 106.213 25.0616 106.223 24.8165 106.232C24.5714 106.242 24.3357 106.345 24.0905 106.364C23.8454 106.383 23.6003 106.364 23.3551 106.383C23.11 106.402 22.8648 106.355 22.6197 106.364C22.3745 106.374 22.1388 106.515 21.8937 106.525C21.6486 106.534 21.4034 106.543 21.1583 106.562C20.9131 106.581 20.668 106.572 20.4229 106.591C20.1777 106.609 19.9326 106.515 19.6874 106.525C19.4423 106.534 19.1972 106.581 18.952 106.591C18.7069 106.6 18.4617 106.657 18.2166 106.666C17.9715 106.675 17.7263 106.723 17.4812 106.732C17.236 106.741 16.9909 106.826 16.7552 106.836C16.5195 106.845 16.2555 106.704 16.0103 106.713C15.7652 106.723 15.5295 106.883 15.2844 106.902C15.0204 106.911 14.7564 106.817 14.5018 106.826C14.2472 106.836 13.9832 106.977 13.7287 106.987C13.4741 106.996 13.2101 106.826 12.9461 106.836C12.6821 106.845 12.4275 106.845 12.1635 106.845C11.8995 106.845 11.645 106.93 11.381 106.93C11.117 106.93 10.8624 106.883 10.5984 106.883C10.3344 106.883 10.0799 106.93 9.81587 106.939C9.55188 106.949 9.29731 106.873 9.03331 106.873C8.76931 106.873 8.51475 107.053 8.25075 107.053C7.98675 107.053 7.73218 106.883 7.46819 106.883C7.18533 106.883 6.93076 106.968 6.77048 106.855C6.61019 106.741 6.46878 106.496 6.44049 106.204C6.41221 105.968 6.53477 105.704 6.50648 105.469C6.4782 105.233 6.27077 105.016 6.24249 104.771C6.2142 104.526 6.24248 104.281 6.22363 104.045C6.20477 103.809 6.19535 103.564 6.1765 103.328C6.15764 103.093 6.15763 102.848 6.13877 102.602C6.11992 102.357 6.1482 102.122 6.13877 101.876C6.12935 101.631 6.11992 101.377 6.10107 101.132C6.08221 100.886 5.98793 100.641 5.96907 100.396C5.95021 100.151 5.96906 99.8964 5.95021 99.6513C5.93135 99.4061 5.99734 99.1516 5.98792 98.9064C5.97849 98.6613 5.96906 98.4067 5.95963 98.1616C5.9502 97.9164 5.77106 97.6713 5.7522 97.4262C5.73335 97.181 5.7145 96.9265 5.70507 96.6813C5.69565 96.4362 5.72393 96.1816 5.70507 95.9365C5.68622 95.6913 5.62964 95.4462 5.62021 95.1916C5.61078 94.9371 5.71449 94.6919 5.69564 94.4373C5.67678 94.1828 5.67678 93.9376 5.66735 93.6925C5.65792 93.4474 5.57307 93.2022 5.56364 92.9477C5.55421 92.6931 5.62964 92.448 5.62021 92.2028C5.61078 91.9577 5.52592 91.7125 5.51649 91.458C5.50706 91.2034 5.59193 90.9583 5.5825 90.7131C5.57307 90.468 5.3845 90.2228 5.37507 89.9777C5.36564 89.7326 5.3845 89.478 5.37507 89.2329C5.37507 88.9783 5.46935 88.7237 5.45993 88.4692C5.4505 88.2146 5.50707 87.96 5.50707 87.7149C5.50707 87.4697 5.4505 87.2057 5.4505 86.9606C5.4505 86.7155 5.3845 86.4515 5.3845 86.2063C5.3845 85.9612 5.50707 85.6972 5.50707 85.452C5.50707 85.2069 5.32794 84.9429 5.33737 84.6883C5.34679 84.4338 5.42221 84.1792 5.43164 83.9341C5.44107 83.6889 5.34679 83.4249 5.34679 83.1704C5.34679 82.9158 5.5165 82.6707 5.52593 82.4161C5.53536 82.1615 5.46936 81.907 5.47879 81.6524C5.48821 81.3978 5.56364 81.1433 5.56364 80.8981C5.56364 80.5776 5.5825 80.3513 5.63907 80.1533C5.7145 79.8798 5.81821 79.7667 6.07278 79.6441C6.25192 79.5498 6.43105 79.333 6.74219 79.267C7.00619 79.2104 7.29848 79.2953 7.5719 79.2387C7.84532 79.1821 8.09047 79.0596 8.35446 79.0124C8.61846 78.9653 8.87303 78.8333 9.13702 78.7861C9.40102 78.739 9.68387 78.7579 9.94787 78.7201C10.2119 78.6824 10.4947 78.6824 10.7587 78.6353C11.0227 78.5881 11.3056 78.607 11.5696 78.5599C11.9184 78.5033 12.0975 78.4184 12.239 78.5127C12.3804 78.607 12.4653 78.7767 12.5218 79.135C12.5595 79.3707 12.4841 79.6253 12.5218 79.8704C12.5595 80.1156 12.6915 80.3418 12.7104 80.587C12.7293 80.8321 12.8047 81.0678 12.8235 81.313C12.8424 81.5581 12.8141 81.8032 12.8235 82.039C12.8424 82.3124 12.767 82.5858 12.7575 82.8498C12.7481 83.1138 12.8518 83.3967 12.8518 83.6607C12.8518 83.9529 12.7953 84.1792 12.7764 84.3395C12.7387 84.6223 12.6255 84.7449 12.3898 84.8581C12.239 84.9335 12.0315 84.9712 11.7487 85.0655C11.5413 85.1315 11.3621 85.2729 11.1547 85.3483C10.9473 85.4238 10.7587 85.5369 10.5607 85.6123C10.3627 85.6878 10.127 85.6972 9.91959 85.7632C9.67445 85.8386 9.4953 85.9612 9.33501 86.0838C9.14645 86.2252 8.99559 86.376 8.91074 86.5929C8.83531 86.7815 8.68445 86.9983 8.68445 87.2529C8.68445 87.498 8.80702 87.7526 8.80702 87.9977C8.80702 88.2429 8.70331 88.4974 8.70331 88.7426C8.70331 88.9877 8.7033 89.2423 8.71273 89.4874C8.72216 89.7326 8.75045 89.9871 8.75045 90.2323C8.75045 90.4774 8.71273 90.732 8.71273 90.9771C8.71273 91.2223 8.89189 91.4674 8.90131 91.7125C8.91074 91.9577 8.9013 92.2122 8.92016 92.4574C8.93902 92.7025 8.95789 92.9571 8.97674 93.2022C8.9956 93.4474 9.00502 93.7019 9.02387 93.9471C9.04273 94.1922 9.0993 94.4374 9.12759 94.6825C9.15587 94.9276 9.12759 95.1822 9.15587 95.4273C9.18416 95.6725 9.27845 95.9082 9.31617 96.1533C9.35388 96.3985 9.27845 96.6625 9.31617 96.9076C9.35388 97.1527 9.53302 97.3696 9.58016 97.6147C9.6273 97.8599 9.51415 98.1333 9.57072 98.3784C9.6273 98.6236 9.797 98.8404 9.863 99.0761C9.91015 99.2647 9.91015 99.4816 10.0044 99.6513C10.0987 99.821 10.2496 99.9718 10.3721 100.123C10.5701 100.358 10.7021 100.604 10.787 100.868C10.8719 101.132 10.9756 101.414 10.9567 101.726C10.9378 102.037 10.9284 102.263 10.985 102.47C11.0698 102.744 11.1547 102.998 11.4093 103.074C11.6073 103.13 11.8807 103.093 12.1918 103.036C12.4275 102.989 12.6633 102.904 12.8895 102.876C13.1158 102.848 13.3798 102.98 13.6155 102.97C13.8512 102.961 14.087 102.923 14.3227 102.932C14.5584 102.942 14.8035 102.81 15.0486 102.829C15.2938 102.848 15.5201 102.914 15.7558 102.942C15.9915 102.97 16.2178 103.083 16.4535 103.112C16.6892 103.14 16.9343 103.112 17.17 103.149C17.4058 103.187 17.632 103.291 17.8678 103.319C18.1317 103.357 18.4052 103.272 18.6597 103.281C18.9143 103.291 19.1877 103.413 19.4423 103.404C19.6969 103.394 19.9609 103.281 20.2249 103.262C20.4889 103.244 20.7529 103.272 21.0168 103.234C21.2808 103.196 21.526 103.102 21.7805 103.046C22.0351 102.989 22.2991 102.98 22.5537 102.923C22.8083 102.866 23.0817 102.866 23.3363 102.791C23.5908 102.716 23.7794 102.461 24.0339 102.386C24.2697 102.31 24.5619 102.404 24.7977 102.348C25.0334 102.291 25.2691 102.216 25.5142 102.169C25.7594 102.122 25.9951 102.084 26.2402 102.056C26.4853 102.027 26.7211 101.895 26.9662 101.886C27.2113 101.876 27.4659 101.82 27.711 101.829C27.9562 101.839 28.1919 101.98 28.4465 102.018C28.701 102.056 28.9462 102.037 29.1913 102.093C29.4553 102.15 29.7193 102.244 29.9927 102.244C30.2661 102.244 30.5396 102.272 30.8036 102.263C31.0393 102.263 31.2844 102.272 31.5201 102.263C31.7558 102.254 31.9915 102.065 32.2273 102.056C32.463 102.046 32.7081 102.197 32.9438 102.188C33.1795 102.178 33.4152 102.159 33.6604 102.15C33.9055 102.14 34.1318 102.046 34.3675 102.037C34.8201 102.018 35.0275 101.942 35.1878 101.792C35.3481 101.641 35.4612 101.452 35.5178 101C35.5555 100.641 35.6215 100.283 35.6404 99.9247C35.6592 99.6796 35.5461 99.4344 35.5744 99.1987C35.6026 98.963 35.6686 98.7273 35.7441 98.4916C35.8195 98.2559 35.9326 98.0673 36.0741 97.8504C36.1966 97.6619 36.2438 97.4545 36.2909 97.247C36.3381 97.0396 36.4512 96.8227 36.4229 96.5965C36.3946 96.389 36.1872 96.2193 36.1023 96.0119C36.0269 95.8233 36.0835 95.5688 36.0458 95.3613C36.0081 95.1539 35.8855 94.9371 35.8949 94.7391C35.9044 94.4939 35.9986 94.2582 36.0175 94.0131C36.0364 93.7679 36.0835 93.5322 36.1023 93.2871C36.1212 93.0419 35.9892 92.7874 36.0081 92.5517C36.0269 92.316 36.1495 92.0708 36.1589 91.8257C36.1683 91.5805 36.0741 91.3354 36.0929 91.0903C36.1118 90.8451 36.1401 90.6 36.1589 90.3643C36.1778 90.1286 36.3286 89.8928 36.3475 89.6477C36.3664 89.4026 36.2721 89.148 36.2909 88.9029C36.3098 88.6577 36.3569 88.422 36.3946 88.1769C36.4323 87.9317 36.4323 87.6866 36.4701 87.4509C36.5078 87.2152 36.6869 86.9889 36.7246 86.7532C36.7623 86.5175 36.7623 86.2629 36.8095 86.0272C36.8755 85.6595 36.9415 85.3955 36.866 85.2446C36.7906 85.0938 36.5455 84.9429 36.1966 84.8015C36.0175 84.7261 35.8101 84.7261 35.6309 84.6601C35.4518 84.5941 35.2066 84.5658 35.0275 84.4998L35.0369 84.4149Z" fill="white"/>
</g>
<path d="M2.90481 111.211C2.88596 110.956 2.89538 110.739 2.86709 110.494C2.8388 110.249 2.84824 109.994 2.82938 109.74C2.81053 109.485 2.78224 109.24 2.75395 108.995C2.72567 108.75 2.55596 108.514 2.5371 108.259C2.51825 108.005 2.5371 107.76 2.51824 107.505C2.49939 107.251 2.48995 107.005 2.4711 106.76C2.45224 106.515 2.46167 106.261 2.44281 106.015C2.42396 105.77 2.32025 105.525 2.30139 105.28C2.28254 105.035 2.30139 104.78 2.28253 104.535C2.26367 104.29 2.28254 104.036 2.27311 103.79C2.26368 103.545 2.23539 103.3 2.22596 103.046C2.21653 102.791 2.18825 102.555 2.17882 102.301C2.16939 102.046 2.2071 101.801 2.18824 101.556C2.16938 101.311 2.04683 101.066 2.0374 100.82C2.02797 100.575 2.09396 100.321 2.0751 100.076C2.05625 99.8304 1.91483 99.5853 1.9054 99.3401C1.89597 99.095 2.02797 98.8404 2.00911 98.5953C1.99026 98.3502 1.83939 98.105 1.82053 97.8599C1.80168 97.6147 1.84883 97.3602 1.82997 97.115C1.81111 96.8699 1.70739 96.6248 1.68854 96.3796C1.66968 96.1345 1.70739 95.8799 1.68854 95.6348C1.66968 95.3896 1.75454 95.1351 1.73568 94.8899C1.71682 94.6354 1.66968 94.3714 1.65083 94.1168C1.63197 93.8622 1.58483 93.5982 1.5754 93.3437C1.56597 93.0891 1.6414 92.8157 1.63197 92.5611C1.62254 92.3065 1.52826 92.0425 1.51883 91.788C1.5094 91.5334 1.5754 91.2694 1.56598 91.0054C1.55655 90.7414 1.53769 90.4868 1.51883 90.2323C1.49997 89.9777 1.40568 89.7137 1.39626 89.4591C1.38683 89.2046 1.39625 88.9406 1.3774 88.6766C1.35854 88.4126 1.33969 88.158 1.33026 87.9035C1.32084 87.6489 1.24541 87.3849 1.22655 87.1303C1.20769 86.8757 1.35854 86.6023 1.34911 86.3478C1.33968 86.0838 1.18883 85.8292 1.17941 85.5746C1.16998 85.3201 1.28311 85.0466 1.27368 84.7921C1.26425 84.5375 1.16055 84.2735 1.15112 84.0189C1.14169 83.7644 1.11341 83.5004 1.10398 83.2364C1.09455 82.9724 1.18883 82.7084 1.18883 82.4538C1.18883 82.1992 1.14169 81.9353 1.13226 81.6713C1.12283 81.4073 1.13226 81.1527 1.13226 80.8887C1.13226 80.6247 1.11341 80.3701 1.10398 80.1061C1.09455 79.8421 0.971984 79.5876 0.962556 79.333C0.953128 79.0784 0.943695 78.8144 0.943695 78.5504C0.943695 78.2959 1.00027 78.0696 1.01912 77.8622C1.04741 77.5982 1.17941 77.4096 1.25484 77.2305C1.34912 77.0136 1.45282 76.8533 1.64139 76.7307C1.8111 76.627 1.99968 76.5328 2.25425 76.4762C2.45224 76.4385 2.65966 76.297 2.92366 76.2782C3.18765 76.2593 3.45166 76.3725 3.71566 76.3442C3.97965 76.3159 4.21535 76.165 4.46992 76.1273C4.72449 76.0896 4.97906 76.0519 5.24306 76.0048C5.50706 75.9576 5.75219 75.9293 6.00676 75.8728C6.26133 75.8162 6.49705 75.7031 6.75162 75.6465C7.00619 75.5899 7.27017 75.5993 7.52474 75.5333C7.77931 75.4673 8.05274 75.5051 8.3073 75.4391C8.56187 75.3731 8.80701 75.2976 9.06158 75.2411C9.31615 75.1845 9.57071 75.1562 9.82528 75.0902C10.0799 75.0242 10.3061 74.8451 10.5607 74.7885C10.853 74.7225 11.0793 74.7602 11.249 74.7413C11.5413 74.7131 11.7298 74.7414 11.8335 75.0053C11.8901 75.1562 11.9278 75.3825 11.9938 75.6748C12.0598 75.967 12.0881 76.2688 12.1447 76.5799C12.2013 76.8628 12.1447 77.1173 12.2107 77.4379C11.9561 77.4945 11.8241 77.6642 11.6073 77.7113C11.3621 77.7679 11.1076 77.6924 10.8718 77.7396C10.6267 77.7867 10.4004 77.9753 10.1553 78.0224C9.91014 78.0696 9.62729 77.9565 9.38214 78.0036C9.13701 78.0507 8.9013 78.1639 8.64673 78.211C8.39216 78.2582 8.13759 78.2487 7.89245 78.2959C7.64731 78.343 7.4116 78.4656 7.15703 78.5127C6.90247 78.5599 6.67618 78.673 6.42162 78.7201C6.16705 78.7673 5.89362 78.6447 5.64848 78.6919C5.29962 78.7579 5.0545 78.9747 4.86593 79.1633C4.67736 79.3519 4.51707 79.6064 4.50764 79.9836C4.50764 80.2476 4.49821 80.5116 4.48878 80.785C4.47935 81.0584 4.40394 81.313 4.39451 81.577C4.38508 81.841 4.53593 82.1144 4.5265 82.3878C4.51708 82.6612 4.46049 82.9158 4.44164 83.1798C4.42278 83.4438 4.35679 83.7078 4.34736 83.9718C4.33793 84.2358 4.24364 84.4998 4.23421 84.7638C4.22478 85.0278 4.28136 85.3012 4.28136 85.5652C4.28136 85.8292 4.31907 86.0932 4.3285 86.3666C4.3285 86.6118 4.40393 86.8569 4.41335 87.102C4.42278 87.3472 4.36622 87.5923 4.37565 87.8469C4.38507 88.1014 4.3945 88.3372 4.40393 88.5823C4.41336 88.8274 4.36622 89.082 4.37565 89.3271C4.38507 89.5723 4.45107 89.8174 4.4605 90.0626C4.46993 90.3077 4.53593 90.5528 4.55479 90.798C4.57365 91.0431 4.47936 91.2977 4.49822 91.5428C4.51708 91.788 4.70564 92.0237 4.71507 92.2688C4.7245 92.514 4.58308 92.7685 4.60193 93.0137C4.62079 93.2588 4.63021 93.5039 4.64906 93.7491C4.66792 93.9942 4.79993 94.2299 4.81878 94.4751C4.83764 94.7202 4.70564 94.9748 4.72449 95.2199C4.74335 95.4651 4.76221 95.7102 4.78106 95.9553C4.79992 96.2005 4.87535 96.4456 4.88478 96.6908C4.8942 96.9359 4.93192 97.181 4.95078 97.4262C4.96964 97.6713 4.90363 97.9259 4.91306 98.171C4.92249 98.4162 4.96964 98.6613 4.97907 98.9159C4.98849 99.1704 5.04507 99.4061 5.0545 99.6607C5.06392 99.9153 5.17706 100.151 5.18649 100.396C5.19592 100.641 5.20534 100.886 5.2242 101.141C5.24306 101.396 5.07335 101.641 5.08278 101.895C5.09221 102.15 5.1582 102.386 5.17705 102.631C5.19591 102.876 5.24306 103.121 5.26192 103.366C5.28078 103.64 5.33735 103.904 5.36564 104.177C5.39392 104.45 5.33734 104.724 5.37506 104.997C5.41277 105.271 5.4222 105.535 5.45049 105.808C5.47877 106.081 5.53534 106.345 5.56362 106.609C5.60134 106.939 5.79934 107.156 5.87476 107.345C5.97848 107.618 6.05391 107.816 6.34619 107.892C6.54418 107.948 6.79875 107.92 7.13817 107.92C7.40217 107.92 7.6756 107.92 7.9396 107.92C8.20359 107.92 8.47702 108.005 8.74102 107.995C9.00501 107.986 9.27843 107.967 9.54243 107.958C9.80642 107.948 10.0799 108.033 10.3439 108.024C10.6078 108.014 10.8813 108.024 11.1453 108.024C11.3904 108.024 11.6355 107.911 11.8901 107.911C12.1447 107.911 12.3898 107.967 12.635 107.958C12.8801 107.948 13.1252 107.816 13.3704 107.807C13.6155 107.797 13.8701 107.873 14.1152 107.863C14.3604 107.854 14.6055 107.75 14.8506 107.741C15.0958 107.731 15.3503 107.788 15.5955 107.779C15.8406 107.769 16.0858 107.703 16.3309 107.694C16.576 107.684 16.8212 107.647 17.0663 107.628C17.3115 107.609 17.5566 107.609 17.8017 107.59C18.0469 107.571 18.3015 107.618 18.5466 107.609C18.7917 107.599 19.0369 107.571 19.282 107.562C19.5271 107.552 19.7817 107.637 20.0268 107.618C20.272 107.599 20.5171 107.571 20.7623 107.552C21.0074 107.533 21.2526 107.449 21.4977 107.43C21.7428 107.411 21.9974 107.43 22.2425 107.411C22.4877 107.392 22.7423 107.43 22.9874 107.411C23.2325 107.392 23.4682 107.222 23.7134 107.203C23.9585 107.185 24.2131 107.222 24.4582 107.203C24.7034 107.185 24.9485 107.185 25.2031 107.166C25.4576 107.147 25.6933 107.109 25.9385 107.09C26.1836 107.071 26.4382 107.109 26.6833 107.09C26.9285 107.071 27.1642 106.921 27.4093 106.902C27.6545 106.883 27.909 106.892 28.1542 106.873C28.3993 106.855 28.6633 107.015 28.9084 106.996C29.1536 106.977 29.3987 106.958 29.6439 106.939C29.889 106.921 30.1436 106.883 30.3887 106.864C30.6338 106.845 30.879 106.647 31.1241 106.628C31.3693 106.609 31.6238 106.619 31.8784 106.6C32.133 106.581 32.3781 106.572 32.6327 106.553C32.8872 106.534 33.1418 106.657 33.3964 106.638C33.6509 106.619 33.8867 106.525 34.1412 106.506C34.3958 106.487 34.6504 106.534 34.8955 106.506C35.1406 106.477 35.3764 106.261 35.6215 106.232C35.8666 106.204 36.1212 106.213 36.3758 106.185C36.6303 106.157 36.8755 106.119 37.1206 106.091C37.3657 106.063 37.6297 106.119 37.8749 106.091C38.12 106.063 38.3463 105.883 38.5914 105.846C38.8366 105.808 39.1006 105.836 39.3457 105.789C39.5909 105.742 39.8454 105.723 40.0906 105.667C40.3546 105.61 40.6374 105.638 40.9014 105.582C41.1654 105.525 41.42 105.403 41.684 105.346C41.948 105.289 42.2308 105.299 42.4948 105.233C42.7588 105.167 43.004 105.044 43.268 104.978C43.664 104.875 43.8902 104.771 44.0034 104.611C44.1165 104.45 44.0317 104.196 44.0222 103.8C44.0222 103.555 44.1542 103.3 44.1448 103.046C44.1354 102.791 43.9657 102.555 43.9562 102.301C43.9468 102.046 44.1165 101.792 44.1165 101.546C44.1165 101.301 43.9468 101.056 43.9374 100.802C43.9279 100.547 43.9845 100.302 43.9751 100.047C43.9657 99.7927 43.9751 99.5476 43.9751 99.293C43.9751 99.0384 43.9751 98.7933 43.9562 98.5387C43.9374 98.2842 43.9279 98.039 43.9279 97.7939C43.9279 97.5487 43.8054 97.2942 43.8054 97.049C43.8054 96.8039 43.9468 96.5493 43.9468 96.2948C43.9468 96.0402 43.8714 95.7951 43.8714 95.5499C43.8714 95.3048 43.9845 95.0502 43.9845 94.8051C43.9845 94.5505 43.9279 94.2959 43.9279 94.0414C43.9279 93.7868 43.8054 93.5322 43.8054 93.2871C43.8054 93.042 43.8902 92.778 43.8808 92.5234C43.8714 92.2688 43.8525 92.0143 43.8431 91.7691C43.8337 91.524 43.8242 91.26 43.8054 91.0148C43.7865 90.7697 43.6828 90.5151 43.6734 90.2606C43.6639 90.006 43.6451 89.7609 43.6262 89.5063C43.6074 89.2517 43.6734 88.9972 43.6545 88.7426C43.6357 88.488 43.6545 88.2334 43.6357 87.9789C43.6168 87.7243 43.5791 87.4792 43.5602 87.2246C43.5414 86.97 43.4942 86.7249 43.4754 86.4703C43.4565 86.2158 43.3151 85.98 43.2868 85.7255C43.2585 85.4709 43.4094 85.2069 43.3905 84.9523C43.3717 84.6978 43.2397 84.4621 43.2114 84.2075C43.1831 83.9529 43.07 83.7172 43.0417 83.4627C43.0134 83.2081 43.0605 82.9535 43.0417 82.699C43.0228 82.4444 42.9097 82.2087 42.8814 81.9541C42.8531 81.6995 42.9851 81.4355 42.9662 81.181C42.9474 80.9264 42.7871 80.6907 42.7683 80.4361C42.7494 80.1816 42.872 79.9176 42.8437 79.663C42.8154 79.4084 42.6174 79.1727 42.5985 78.9276C42.5797 78.6824 42.6363 78.4184 42.608 78.1639C42.5797 77.9093 42.6363 77.6547 42.608 77.4002C42.608 77.2965 42.5703 77.1833 42.5514 77.0796C42.5043 76.759 42.4665 76.4856 42.3723 76.297C42.2403 76.0425 42.014 75.8256 41.7406 75.7596C41.5331 75.703 41.2503 75.8445 40.9297 75.8728C40.6751 75.8916 40.4206 75.8728 40.166 75.8916C39.9114 75.9105 39.6569 75.9199 39.4117 75.9388C39.1666 75.9576 38.9026 75.901 38.648 75.9199C38.3934 75.9388 38.1483 76.0142 37.8937 76.033C37.6863 76.0519 37.5166 76.0048 37.2526 75.9765C37.2526 75.7502 37.2055 75.5522 37.2526 75.3353C37.2998 75.1185 37.4506 74.9299 37.5166 74.7225C37.5826 74.5151 37.6392 74.2982 37.724 74.1002C37.8089 73.9022 37.7806 73.5911 37.8655 73.3837C38.1295 73.3648 38.45 73.3837 38.7234 73.3648C38.9969 73.3459 39.2703 73.4591 39.5343 73.4402C39.7983 73.4214 40.0623 73.3837 40.3357 73.3648C40.6091 73.3459 40.8731 73.3459 41.1371 73.3271C41.4011 73.3082 41.6651 73.2517 41.9291 73.2328C42.1931 73.2139 42.4571 73.1479 42.7211 73.1291C42.9851 73.1102 43.2491 73.0254 43.5131 73.0065C43.7771 72.9877 44.0599 73.1479 44.3239 73.1385C44.7388 73.1197 45.0122 73.0631 45.2102 73.2517C45.3799 73.4214 45.5685 73.6854 45.6439 74.0908C45.6911 74.3454 45.6251 74.6188 45.6722 74.8733C45.7194 75.1279 45.8042 75.3731 45.8514 75.6276C45.8985 75.8822 45.9173 76.1462 45.9551 76.4008C45.9928 76.6553 46.0022 76.9193 46.0399 77.1739C46.0776 77.4285 46.2096 77.6736 46.2473 77.9282C46.2851 78.1827 46.2285 78.4562 46.2473 78.7107C46.2756 78.9653 46.3605 79.2104 46.3888 79.4556C46.4171 79.7007 46.3888 79.9647 46.4076 80.2193C46.4265 80.4738 46.4265 80.7284 46.4642 80.9735C46.5019 81.2187 46.4831 81.4827 46.5113 81.7278C46.5396 81.973 46.6716 82.2181 46.6999 82.4727C46.7282 82.7272 46.7942 82.9724 46.8225 83.2175C46.8508 83.4627 46.8036 83.7267 46.8319 83.9812C46.8602 84.2358 46.945 84.4809 46.9733 84.7261C47.0016 84.9712 47.0299 85.2258 47.0582 85.4803C47.0865 85.7349 47.1525 85.98 47.1808 86.2346C47.209 86.4892 47.2373 86.7343 47.2562 86.9889C47.275 87.2435 47.341 87.4886 47.3693 87.7432C47.3976 87.9977 47.3976 88.2523 47.4165 88.4974C47.4353 88.7426 47.3693 89.0066 47.3976 89.2611C47.4259 89.5157 47.4353 89.7609 47.4636 90.0154C47.4919 90.27 47.6522 90.5057 47.6805 90.7603C47.7087 91.0148 47.6145 91.2788 47.6428 91.524C47.671 91.7691 47.7653 92.0237 47.7842 92.2688C47.803 92.5234 47.7653 92.7874 47.7842 93.042C47.803 93.2965 47.9067 93.5511 47.935 93.8057C47.9633 94.0602 47.9822 94.3242 48.001 94.5788C48.0199 94.8334 47.8407 95.1068 47.8596 95.3613C47.8785 95.6159 48.0765 95.8611 48.0953 96.125C48.1142 96.389 47.9916 96.6436 48.0105 96.9076C48.0293 97.1716 48.1613 97.4167 48.1707 97.6713C48.1802 97.9259 48.1707 98.1899 48.1802 98.4444C48.1896 98.699 48.1802 98.963 48.199 99.2176C48.2179 99.4721 48.2556 99.7361 48.265 99.9907C48.2745 100.245 48.1802 100.509 48.1896 100.773C48.199 101.037 48.2179 101.292 48.2273 101.546C48.2367 101.801 48.3027 102.056 48.3122 102.32C48.3216 102.584 48.2273 102.838 48.2462 103.102C48.2556 103.366 48.2933 103.621 48.2933 103.875C48.2933 104.13 48.3405 104.394 48.331 104.658C48.3216 104.922 48.397 105.176 48.3876 105.44C48.3782 105.704 48.3027 105.959 48.2933 106.213C48.2839 106.468 48.3499 106.732 48.3499 106.996C48.3499 107.279 48.1613 107.467 48.0576 107.656C47.9445 107.863 47.8596 108.071 47.6145 108.184C47.4259 108.269 47.1902 108.297 46.9073 108.335C46.6528 108.373 46.4076 108.429 46.1625 108.457C45.9173 108.486 45.6628 108.561 45.4176 108.589C45.1725 108.618 44.9085 108.618 44.6634 108.646C44.4182 108.674 44.1542 108.627 43.8997 108.646C43.6451 108.665 43.4 108.684 43.1454 108.712C42.8908 108.74 42.6551 108.882 42.4005 108.91C42.146 108.938 41.8914 108.948 41.6463 108.967C41.3917 108.995 41.1371 109.089 40.8731 109.117C40.6091 109.146 40.3451 109.061 40.0811 109.08C39.8171 109.099 39.572 109.268 39.3174 109.287C39.0629 109.306 38.7894 109.278 38.5349 109.297C38.2803 109.315 38.0257 109.4 37.7618 109.429C37.4978 109.457 37.2338 109.41 36.9792 109.429C36.7246 109.447 36.4606 109.429 36.1966 109.457C35.9326 109.485 35.6686 109.429 35.4141 109.457C35.1595 109.485 34.9144 109.693 34.6504 109.711C34.3864 109.73 34.1224 109.645 33.8584 109.664C33.6132 109.683 33.3681 109.73 33.123 109.749C32.8778 109.768 32.6421 109.862 32.397 109.881C32.1518 109.9 31.8973 109.806 31.6521 109.834C31.407 109.862 31.1618 109.834 30.9167 109.862C30.6716 109.891 30.4359 110.013 30.1907 110.041C29.9456 110.07 29.7004 110.07 29.4553 110.089C29.2101 110.107 28.965 110.136 28.7199 110.164C28.4747 110.192 28.2202 110.089 27.975 110.117C27.7299 110.145 27.4942 110.221 27.249 110.239C27.0039 110.258 26.7682 110.371 26.5231 110.4C26.2779 110.428 26.0233 110.305 25.7782 110.324C25.5331 110.343 25.2973 110.456 25.0522 110.475C24.8071 110.494 24.5714 110.598 24.3262 110.617C24.0811 110.635 23.8265 110.541 23.5814 110.56C23.3362 110.579 23.0911 110.56 22.846 110.569C22.6008 110.579 22.3557 110.635 22.1105 110.654C21.856 110.673 21.6014 110.833 21.3468 110.852C21.0923 110.871 20.8283 110.796 20.5643 110.815C20.3003 110.833 20.0457 110.786 19.7911 110.805C19.5366 110.824 19.2726 110.805 19.018 110.815C18.7634 110.824 18.5089 110.89 18.2449 110.909C17.9809 110.928 17.7357 110.975 17.4717 110.984C17.2078 110.994 16.9626 111.06 16.6986 111.079C16.4346 111.097 16.1801 110.994 15.9161 111.003C15.6521 111.013 15.4069 111.097 15.1429 111.107C14.8789 111.116 14.6338 111.239 14.3792 111.258C14.1247 111.277 13.8607 111.22 13.6061 111.239C13.3515 111.258 13.0875 111.229 12.833 111.239C12.5784 111.248 12.3238 111.38 12.0693 111.399C11.8147 111.418 11.5507 111.399 11.2961 111.409C11.0415 111.427 10.7776 111.324 10.5324 111.352C10.2873 111.38 10.0421 111.541 9.78758 111.559C9.53301 111.578 9.28787 111.625 9.0333 111.644C8.77873 111.663 8.52416 111.597 8.2696 111.607C8.02446 111.607 7.78874 111.588 7.5436 111.588C7.29846 111.588 7.06275 111.578 6.81761 111.569C6.57247 111.559 6.33675 111.559 6.09161 111.55C5.84648 111.541 5.61077 111.503 5.37506 111.493C5.13935 111.484 4.8942 111.475 4.64906 111.465C4.40393 111.456 4.16822 111.559 3.92309 111.55C3.61195 111.541 3.33852 111.286 2.95196 111.192L2.90481 111.211Z" fill="#E6E4E1"/>
<path d="M26.0704 18.2085C26.1553 18.4347 26.325 18.5102 26.391 18.6705C26.4758 18.8873 26.5418 19.0759 26.5796 19.2645C26.6361 19.519 26.523 19.8113 26.5796 20.0564C26.6361 20.3016 26.7304 20.5561 26.8058 20.8013C26.8813 21.0464 26.985 21.2821 27.0793 21.5273C27.1735 21.7724 27.2867 21.9987 27.381 22.2438C27.4752 22.489 27.6355 22.6964 27.7392 22.9321C27.843 23.1678 27.9184 23.413 28.0315 23.6487C28.1447 23.8844 28.2861 24.0918 28.3992 24.3275C28.5124 24.5632 28.6255 24.7895 28.7481 25.0158C28.8707 25.2421 28.9084 25.5155 29.0309 25.7418C29.1535 25.9586 29.3609 26.1566 29.5589 26.2886C29.7758 26.4395 30.0964 26.6186 30.3038 26.5432C30.4546 26.4961 30.6338 26.0624 30.6149 25.8172C30.5961 25.5532 30.4452 25.2987 30.4358 25.0441C30.4264 24.7895 30.4735 24.5161 30.4641 24.2521C30.4546 23.9881 30.4735 23.7241 30.4735 23.4695C30.4735 23.215 30.4829 22.9415 30.5018 22.687C30.5206 22.4324 30.4452 22.159 30.4641 21.895C30.4829 21.631 30.6055 21.3859 30.6338 21.1219C30.6621 20.8579 30.5866 20.5844 30.6149 20.3299C30.6432 20.0753 30.7941 19.8207 30.8318 19.5662C30.8506 19.4342 30.9449 19.4059 31.0675 19.1325C31.2183 19.3116 31.2561 19.4247 31.3786 19.5756C31.5295 19.7453 31.7558 19.8207 31.8595 19.9904C31.9915 20.2073 32.0858 20.4524 32.2272 20.6693C32.3686 20.8861 32.4912 21.1124 32.642 21.3199C32.7929 21.5273 32.972 21.7158 33.1323 21.9138C33.2926 22.1118 33.5 22.2721 33.6697 22.4701C33.8394 22.6681 33.9809 22.8755 34.16 23.0641C34.3392 23.2527 34.5183 23.4318 34.6974 23.611C34.8766 23.7901 35.0557 23.9787 35.2349 24.1578C35.414 24.3369 35.6403 24.4689 35.8383 24.6387C36.0363 24.8084 36.1494 25.0629 36.3474 25.2232C36.5454 25.3835 36.8377 25.4307 37.0451 25.5815C37.2525 25.7324 37.4411 25.9021 37.6485 26.0624C37.8937 26.2415 38.1105 26.4678 38.3462 26.6658C38.5819 26.8638 38.7517 27.1466 39.0062 27.3258C39.2325 27.486 39.4588 27.5803 39.5248 27.7783C39.5908 27.9763 39.5436 28.2215 39.4211 28.4666C39.3174 28.6835 39.2985 28.938 39.1948 29.1643C39.0911 29.3906 38.9214 29.5792 38.8177 29.796C38.7139 30.0129 38.6668 30.2674 38.5442 30.4843C38.4217 30.7011 38.1954 30.8426 38.054 31.0406C37.9031 31.248 37.8465 31.5214 37.6957 31.7194C37.5448 31.9174 37.3845 32.1248 37.2243 32.3228C37.064 32.5208 36.7811 32.6057 36.6114 32.7943C36.4417 32.9828 36.338 33.228 36.1588 33.4071C35.9797 33.5862 35.8194 33.7842 35.6308 33.954C35.4423 34.1237 35.2066 34.2368 34.9991 34.3877C34.7917 34.5385 34.5937 34.6799 34.3769 34.8214C34.16 34.9628 33.9903 35.1608 33.7734 35.2834C33.5566 35.4059 33.2832 35.4437 33.0569 35.5474C32.8306 35.6511 32.6137 35.8019 32.378 35.8868C32.1423 35.9716 31.916 36.1036 31.6709 36.1791C31.4258 36.2545 31.1523 36.1602 30.8978 36.2074C30.6526 36.2545 30.3981 36.2922 30.1529 36.3394C29.9078 36.3865 29.6532 36.4336 29.4081 36.4808C29.1629 36.5279 28.9367 36.7353 28.6915 36.7731C28.4464 36.8108 28.1824 36.8202 27.9372 36.8579C27.6733 36.8956 27.4092 36.8673 27.1452 36.8768C26.8813 36.8862 26.6267 36.8108 26.3721 36.7731C26.1176 36.7353 25.863 36.6882 25.6084 36.6316C25.3539 36.5751 25.0804 36.5845 24.8353 36.5091C24.5901 36.4336 24.3544 36.3394 24.1282 36.2545C23.9019 36.1696 23.6662 36.0565 23.4399 35.9528C23.2136 35.8491 23.025 35.6605 22.8082 35.5474C22.5913 35.4342 22.365 35.3211 22.1576 35.1891C21.9502 35.0571 21.705 34.9628 21.507 34.8214C21.3091 34.6799 21.1205 34.5102 20.9225 34.35C20.7245 34.1897 20.5925 33.9728 20.4228 33.7937C20.2531 33.6145 19.9796 33.5297 19.8194 33.3411C19.6591 33.1525 19.5365 32.9263 19.3856 32.7188C19.2348 32.5114 19.0934 32.3134 18.9614 32.0966C18.8294 31.8797 18.6408 31.7006 18.5182 31.4837C18.3957 31.2669 18.358 31.0029 18.2542 30.7766C18.1505 30.5503 18.0374 30.324 17.9525 30.0883C17.8677 29.8526 17.764 29.6263 17.6885 29.3812C17.6131 29.136 17.5377 28.9003 17.4717 28.6552C17.4151 28.41 17.3774 28.1555 17.3491 27.9198C17.3208 27.6652 17.4057 27.42 17.4245 27.1843C17.4434 26.9486 17.4151 26.6846 17.4905 26.4489C17.566 26.2132 17.7922 26.0624 17.9242 25.8455C18.0468 25.6475 18.0657 25.3647 18.2354 25.1761C18.4145 24.9687 18.6502 24.8084 18.8294 24.6009C19.0085 24.3935 19.1405 24.1484 19.3196 23.941C19.4988 23.7335 19.7062 23.5544 19.8854 23.3375C20.0645 23.1207 20.1588 22.8473 20.3285 22.6398C20.4982 22.4324 20.7811 22.3004 20.9602 22.093C21.1771 21.8384 21.3939 21.5461 21.7333 21.2539C21.8182 21.4801 21.9502 21.7536 21.9502 21.9798C21.9502 22.2061 21.8276 22.4324 21.7899 22.6587C21.7522 22.885 21.5919 23.0924 21.5636 23.3187C21.5353 23.545 21.6862 23.7712 21.7333 23.9975C21.771 24.205 21.8088 24.5067 21.9502 24.7141C22.1105 24.5067 22.3273 24.2427 22.4593 24.0258C22.5913 23.809 22.629 23.5167 22.7516 23.2904C22.8742 23.0641 22.9873 22.8284 23.1099 22.5927C23.2324 22.357 23.4304 22.1778 23.553 21.9516C23.6756 21.7253 23.7699 21.4801 23.9207 21.2727C24.0716 21.0653 24.279 20.8861 24.411 20.6693C24.543 20.4524 24.5524 20.1507 24.6939 19.9339C24.8353 19.717 25.005 19.5284 25.1464 19.3116C25.2879 19.0947 25.5236 18.9627 25.6933 18.7553C25.863 18.5479 25.9384 18.3876 26.127 18.199L26.0704 18.2085ZM32.312 28.5797C32.0763 28.5043 31.8406 28.7117 31.6238 28.8532C31.4163 28.9757 31.2843 29.1266 31.1995 29.3717C31.1052 29.6452 30.9543 29.9374 31.0486 30.1637C31.1523 30.4183 31.4258 30.6634 31.6898 30.7294C31.9066 30.786 32.2083 30.6823 32.3969 30.5314C32.5666 30.3994 32.708 30.1637 32.7929 29.9374C32.8777 29.6829 32.8212 29.4189 32.7457 29.1926C32.6609 28.938 32.5289 28.6552 32.3026 28.5892L32.312 28.5797ZM24.3262 29.004C24.4016 28.806 24.2224 28.5892 24.1282 28.3912C24.0339 28.1932 23.9396 28.0612 23.7416 27.9858C23.5342 27.9009 23.289 27.75 23.1099 27.8538C22.9307 27.9575 22.7422 28.1743 22.6667 28.4006C22.5913 28.6269 22.6196 28.9286 22.695 29.136C22.7799 29.3717 22.9967 29.5886 23.2042 29.6452C23.3833 29.7017 23.619 29.5792 23.817 29.4566C23.9962 29.3434 24.2413 29.2115 24.3073 29.0135L24.3262 29.004ZM26.4664 32.2474C26.3155 32.436 26.259 32.7283 26.1741 32.9074C26.0798 33.1243 26.0327 33.294 26.0327 33.5014C26.0327 33.7088 25.9007 33.954 25.9856 34.1708C26.0704 34.3688 26.2118 34.5857 26.3627 34.6988C26.5135 34.8119 26.8153 34.8308 27.0604 34.7742C26.9944 34.5008 26.919 34.1991 26.853 33.9257C26.787 33.6522 26.6644 33.4071 26.5984 33.1337C26.5418 32.8791 26.523 32.5303 26.457 32.2474H26.4664Z" fill="#FF8A95"/>
<path d="M27.843 82.2086C27.5224 82.1521 27.4187 82.2558 27.2773 82.3595C27.0698 82.5009 26.8907 82.6235 26.7681 82.8026C26.5136 83.1703 26.259 83.2458 25.8819 83.0478C25.5047 82.8403 25.6179 82.5669 25.7593 82.2464C25.863 82.0106 25.9573 81.7655 26.0799 81.5392C26.2024 81.3129 26.2496 81.0207 26.4004 80.8132C26.5513 80.6058 26.7681 80.4361 26.9567 80.257C27.1453 80.0778 27.315 79.8704 27.5318 79.7195C27.7487 79.5687 28.0221 79.5498 28.2673 79.4461C28.4841 79.3518 28.6727 79.201 28.833 79.0784C29.0215 78.9464 29.1818 78.7861 29.3138 78.607C29.4458 78.4278 29.4741 78.2016 29.5589 77.9847C29.6344 77.7961 29.6627 77.5793 29.7192 77.353C29.7758 77.1173 29.8607 76.8816 29.9267 76.6459C29.9927 76.4102 30.1907 76.2027 30.2472 75.967C30.3038 75.7313 30.3509 75.4862 30.4075 75.2505C30.4641 75.0147 30.5489 74.779 30.6149 74.5433C30.6809 74.3076 30.5867 74.0248 30.6432 73.789C30.6998 73.5533 30.8224 73.3271 30.8884 73.0913C30.9544 72.8556 31.0109 72.6105 31.0675 72.3748C31.1241 72.1391 31.1524 71.8845 31.2184 71.6488C31.2844 71.4131 31.3504 71.1774 31.4069 70.9322C31.4635 70.6871 31.5578 70.4608 31.6144 70.2251C31.6709 69.9894 31.7275 69.7442 31.7841 69.5085C31.8406 69.2728 32.0292 69.0654 32.0858 68.8203C32.1423 68.5751 32.0386 68.3017 32.0952 68.0566C32.1518 67.8114 32.3026 67.604 32.3686 67.3589C32.4346 67.1137 32.3969 66.8591 32.4535 66.614C32.5101 66.3689 32.6892 66.1614 32.7458 65.9257C32.8023 65.69 32.8212 65.4355 32.8778 65.1997C32.9343 64.964 32.9532 64.7095 33.0098 64.4737C33.0663 64.238 33.1418 64.0023 33.2078 63.7572C33.2738 63.5121 33.3398 63.2858 33.4058 63.0406C33.4718 62.7955 33.5566 62.5692 33.6132 62.3335C33.6698 62.0978 33.7263 61.8526 33.7923 61.6169C33.8489 61.3906 34.0186 61.1832 34.0752 60.9569C34.1318 60.7307 34.0752 60.4761 34.1317 60.2498C34.1883 60.0235 34.3109 59.8067 34.358 59.5804C34.4052 59.3541 34.292 59.0901 34.3392 58.8544C34.3863 58.6187 34.4995 58.4113 34.5466 58.1756C34.5937 57.9398 34.6692 57.723 34.7163 57.4967C34.7917 57.1667 34.7635 56.9027 34.8389 56.7424C34.9614 56.469 35.1689 56.3653 35.4894 56.3464C35.678 56.337 35.9232 56.3276 36.2437 56.3464C36.4983 56.3559 36.7623 56.4407 37.0168 56.4407C37.2714 56.4407 37.5354 56.5067 37.7994 56.4973C38.0634 56.4879 38.318 56.4502 38.582 56.4407C38.846 56.4313 39.1005 56.3842 39.3551 56.3842C39.6097 56.3842 39.8737 56.4407 40.1377 56.4313C40.4017 56.4313 40.6562 56.2427 40.9485 56.2239C41.1936 56.205 41.4576 56.2804 41.7688 56.271C41.7216 56.5539 41.6745 56.7896 41.6368 57.0159C41.5991 57.2893 41.5331 57.5156 41.4671 57.7513C41.3916 58.0058 41.3916 58.2793 41.3162 58.5338C41.2408 58.7884 41.1276 59.0335 41.0522 59.2787C40.9768 59.5238 40.8542 59.769 40.7694 60.0235C40.6845 60.2781 40.5808 60.5138 40.5054 60.7684C40.4299 61.0229 40.4205 61.2964 40.3451 61.5509C40.2697 61.8055 40.0999 62.0318 40.0245 62.2769C39.9491 62.5221 39.8454 62.7766 39.7699 63.0312C39.6945 63.2858 39.7228 63.5686 39.6474 63.8232C39.572 64.0778 39.4777 64.3229 39.4022 64.5775C39.3268 64.832 39.176 65.0583 39.1005 65.3129C39.0251 65.558 38.9591 65.8126 38.8837 66.0577C38.8082 66.3029 38.7328 66.5574 38.6668 66.8026C38.6008 67.0477 38.5348 67.3023 38.4688 67.5569C38.4028 67.8114 38.2708 68.0377 38.1954 68.2923C38.12 68.5468 38.1954 68.8297 38.12 69.0843C38.0445 69.3388 37.9031 69.5651 37.8371 69.8102C37.7711 70.0554 37.658 70.3005 37.5826 70.5457C37.5071 70.7908 37.4788 71.0548 37.4034 71.2999C37.328 71.5451 37.2714 71.7996 37.1866 72.0448C37.1017 72.2899 36.9791 72.5256 36.9037 72.7708C36.8283 73.0159 36.7623 73.2705 36.6869 73.5156C36.602 73.7608 36.6114 74.0342 36.5266 74.2793C36.4417 74.5245 36.2343 74.7225 36.1589 74.9676C36.0834 75.2127 35.9986 75.4579 35.9231 75.703C35.8477 75.9482 35.8949 76.231 35.8194 76.4762C35.744 76.7213 35.6026 76.9476 35.5366 77.1927C35.4706 77.4379 35.4894 77.7113 35.414 77.9564C35.3386 78.2016 35.1406 78.4184 35.0746 78.6635C35.0086 78.9087 34.952 79.1633 34.886 79.4084C34.82 79.6535 34.7352 79.8987 34.6692 80.1532C34.6032 80.4078 34.6032 80.6718 34.5466 80.9169C34.49 81.1621 34.5089 81.4355 34.4523 81.6901C34.3957 81.9446 34.2826 82.1804 34.226 82.4255C34.1695 82.6706 34.1223 82.9252 34.0752 83.1798C34.028 83.4343 33.8866 83.6701 33.8395 83.9246C33.7923 84.1792 33.7546 84.4338 33.7169 84.6883C33.6792 84.9429 33.7735 85.2163 33.7358 85.4709C33.698 85.7255 33.5566 85.9517 33.4906 86.1969C33.4246 86.442 33.3586 86.6872 33.2738 86.9229C33.1889 87.1586 33.0758 87.3849 32.9626 87.6206C32.8495 87.8563 32.7175 88.0637 32.5949 88.2806C32.4723 88.4974 32.3309 88.7048 32.1989 88.9217C32.0669 89.1385 32.0009 89.3931 31.8501 89.6005C31.7086 89.7891 31.5201 89.94 31.3598 90.1097C31.1995 90.2794 31.0769 90.4962 30.8978 90.6471C30.7187 90.7979 30.4735 90.8451 30.2661 90.9771C30.0587 91.1091 29.8984 91.2599 29.6815 91.3542C29.4081 91.4674 29.1441 91.5334 28.8895 91.5711C28.5973 91.6088 28.3144 91.6371 28.0693 91.5711C27.7958 91.5051 27.5413 91.3731 27.3338 91.1845C27.1264 90.9959 26.9473 90.7885 26.8341 90.5151C26.7398 90.2794 26.7116 89.9965 26.6833 89.6854C26.6644 89.4308 26.6173 89.1763 26.6173 88.9311C26.6173 88.686 26.7964 88.4314 26.8153 88.1863C26.8341 87.9411 26.7681 87.6771 26.7964 87.432C26.8247 87.1869 26.7681 86.9229 26.7964 86.6683C26.8247 86.4137 26.9284 86.178 26.9661 85.9329C27.0038 85.6972 27.1359 85.4897 27.183 85.2635C27.2301 85.0372 27.1736 84.7732 27.2396 84.5469C27.3056 84.3206 27.4847 84.132 27.5507 83.9058C27.6167 83.6795 27.6356 83.4438 27.7016 83.2175C27.7864 82.8875 27.7958 82.5858 27.8807 82.1992L27.843 82.2086Z" fill="#FF8A95"/>
<path d="M10.7775 55.5922C11.0415 55.5922 11.2395 55.4791 11.5035 55.4885C11.7675 55.4979 12.0221 55.4885 12.2861 55.4979C12.5501 55.5074 12.8046 55.6394 13.0592 55.6488C13.3138 55.6582 13.5778 55.5828 13.8418 55.5922C14.1058 55.6016 14.3603 55.5451 14.6243 55.5451C14.8883 55.5451 15.1429 55.6299 15.3975 55.6299C15.652 55.6299 15.9255 55.6394 16.1895 55.6488C16.2083 55.9411 16.1895 56.2145 16.2177 56.4879C16.2366 56.7708 16.3309 57.0442 16.3403 57.3082C16.3498 57.5722 16.2932 57.8645 16.2932 58.1379C16.2932 58.383 16.3592 58.6282 16.3592 58.8827C16.3592 59.1373 16.2649 59.3824 16.2743 59.6276C16.2837 59.8727 16.4063 60.1179 16.4063 60.363C16.4063 60.6081 16.4157 60.8533 16.4252 61.0984C16.4346 61.3436 16.3969 61.5887 16.3969 61.8433C16.3969 62.0978 16.4629 62.3336 16.4723 62.5787C16.4818 62.8238 16.4629 63.069 16.4723 63.3235C16.4818 63.5781 16.5855 63.8138 16.6043 64.059C16.6232 64.3041 16.4535 64.5587 16.4629 64.8038C16.4723 65.0489 16.6043 65.2941 16.6232 65.5392C16.642 65.7844 16.6609 66.0295 16.6797 66.2746C16.6986 66.5198 16.6326 66.7743 16.6515 67.0195C16.6703 67.2646 16.6986 67.5098 16.7175 67.7549C16.7363 68 16.84 68.2358 16.8589 68.4809C16.8777 68.726 16.9532 68.9712 16.972 69.2163C16.9909 69.4614 16.9437 69.716 16.972 69.9612C17.0003 70.2063 16.9155 70.4609 16.9437 70.706C16.972 70.9511 16.9814 71.1963 17.0097 71.4414C17.038 71.6866 17.0946 71.9317 17.1229 72.1768C17.1512 72.422 17.2737 72.6577 17.302 72.9028C17.3303 73.148 17.3774 73.3931 17.4057 73.6382C17.434 73.8834 17.5283 74.1191 17.566 74.3642C17.6037 74.6094 17.5189 74.8734 17.5472 75.1091C17.5754 75.3448 17.5754 75.6088 17.6037 75.8445C17.6414 76.1179 17.8489 76.3725 17.9054 76.6459C17.962 76.9193 17.896 77.2211 17.962 77.4851C18.028 77.749 18.1883 77.9942 18.2826 78.2582C18.3769 78.5222 18.4806 78.7673 18.6031 79.0313C18.6974 79.2387 18.7069 79.4933 18.7917 79.7102C18.8766 79.927 19.0369 80.1156 19.1028 80.3419C19.1688 80.5681 19.15 80.8133 19.2066 81.0301C19.2631 81.247 19.3668 81.4639 19.4234 81.6901C19.48 81.9164 19.5554 82.1333 19.612 82.3501C19.678 82.5858 19.6403 82.9158 19.612 83.3401C19.4234 83.1893 19.1688 82.9818 19.0746 82.7933C18.9709 82.5858 18.9803 82.3218 18.8671 82.1616C18.754 82.0013 18.5937 81.9541 18.3203 81.9353C17.9526 82.2841 18.2732 82.5576 18.3014 82.897C18.3297 83.1515 18.2071 83.425 18.2354 83.6795C18.2637 83.9341 18.3391 84.1887 18.3674 84.4432C18.3957 84.6978 18.4711 84.9524 18.4994 85.2069C18.5277 85.4615 18.4994 85.7255 18.5183 85.9801C18.5371 86.2346 18.5372 86.4986 18.5654 86.7532C18.5937 87.0078 18.5466 87.2718 18.5654 87.5263C18.5843 87.7809 18.5937 88.0355 18.6126 88.2995C18.6314 88.6012 18.622 88.8935 18.5843 89.1952C18.5466 89.4969 18.5372 89.808 18.4617 90.1003C18.3957 90.3643 18.2543 90.5529 18.1223 90.7414C17.9714 90.9583 17.8583 91.1846 17.6414 91.3071C17.4246 91.4297 17.17 91.4769 16.9155 91.4863C16.6609 91.4957 16.4157 91.4863 16.1706 91.3826C15.9538 91.2883 15.7086 91.1846 15.5106 90.996C15.3503 90.8451 15.1712 90.6849 15.0203 90.5057C14.8695 90.3266 14.8223 90.0814 14.6998 89.8929C14.5772 89.7043 14.4546 89.5063 14.3603 89.2989C14.2472 89.0632 14.2189 88.7803 14.1246 88.5352C14.0304 88.29 13.9172 88.0543 13.8324 87.7998C13.7475 87.5452 13.6721 87.3001 13.6155 87.0361C13.5589 86.7721 13.5401 86.5175 13.5024 86.2535C13.4646 85.9895 13.3138 85.7349 13.3138 85.4709C13.3138 85.2069 13.4552 84.9524 13.4835 84.6884C13.5118 84.4338 13.3986 84.1604 13.4269 83.9152C13.4552 83.6701 13.5024 83.4061 13.5212 83.1515C13.5401 82.897 13.5024 82.6424 13.5118 82.3878C13.5212 82.1333 13.5684 81.8787 13.5684 81.6241C13.5684 81.3696 13.5118 81.115 13.5024 80.8604C13.4929 80.6059 13.4929 80.3513 13.4741 80.0967C13.4552 79.8422 13.5118 79.5782 13.4929 79.3236C13.4741 79.069 13.4552 78.8145 13.4269 78.5599C13.3986 78.3053 13.3798 78.0508 13.3515 77.7962C13.3232 77.5416 13.1912 77.3059 13.1441 77.0513C13.0969 76.7968 13.0121 76.5611 12.9649 76.3065C12.9178 76.0519 12.8895 75.7974 12.8424 75.5522C12.7952 75.3071 12.7481 75.0525 12.6915 74.7979C12.6444 74.5528 12.6915 74.2888 12.6444 74.0437C12.5972 73.7985 12.5595 73.5534 12.5124 73.3083C12.4652 73.0631 12.2389 72.8557 12.1824 72.62C12.1258 72.3843 12.0409 72.1391 11.9844 71.894C11.9278 71.6488 11.9278 71.3943 11.8712 71.1491C11.8147 70.904 11.7958 70.6589 11.7392 70.4137C11.6827 70.1686 11.7015 69.914 11.645 69.6689C11.5884 69.4237 11.5318 69.188 11.4752 68.9429C11.4187 68.6978 11.2395 68.4809 11.183 68.2358C11.1264 67.9906 11.2018 67.7266 11.1547 67.4815C11.1075 67.2269 11.0698 66.9818 11.0227 66.7272C10.9755 66.4726 10.9378 66.2275 10.9001 65.9729C10.8624 65.7184 10.8435 65.4638 10.8153 65.2092C10.787 64.9547 10.6361 64.7189 10.6078 64.4644C10.5795 64.2098 10.5324 63.9552 10.5135 63.7007C10.4947 63.4461 10.4664 63.1915 10.4475 62.937C10.4287 62.6824 10.4475 62.4278 10.4287 62.1733C10.4098 61.9187 10.4758 61.6641 10.4664 61.4001C10.457 61.1361 10.4381 60.891 10.4381 60.6364C10.4381 60.3819 10.3156 60.1273 10.3156 59.8727C10.3156 59.6182 10.3533 59.3636 10.3533 59.109C10.3533 58.8545 10.4758 58.5999 10.4853 58.3453C10.4947 58.0908 10.4098 57.8362 10.4098 57.5816C10.4098 57.3271 10.3721 57.0725 10.3815 56.8179C10.3815 56.5633 10.5135 56.3182 10.5513 56.0731C10.5701 55.9316 10.6644 55.8751 10.7681 55.5734L10.7775 55.5922Z" fill="#FF8A95"/>
<path d="M10.391 96.2948C10.3438 96.0779 10.2401 95.9836 10.2024 95.8045C10.1553 95.5971 10.2213 95.3991 10.2024 95.2105C10.1835 94.9465 10.193 94.6919 10.1741 94.4279C10.1553 94.1639 10.061 93.9094 10.0421 93.6548C10.0233 93.4002 9.91011 93.1362 9.89126 92.8817C9.8724 92.6271 10.0233 92.3537 10.0044 92.0897C9.98555 91.8257 9.92898 91.5711 9.91955 91.3071C9.91013 91.0431 9.81583 90.7885 9.8064 90.534C9.79697 90.2794 9.80641 90.0154 9.79698 89.7514C9.78755 89.4874 9.6744 89.2329 9.65554 88.9783C9.63669 88.7237 9.68384 88.4503 9.66498 88.1957C9.66498 88.1203 9.70269 88.0449 9.70269 87.9789C9.70269 87.6677 9.72156 87.3755 9.78756 87.1209C9.86298 86.838 9.99497 86.5835 10.2213 86.3855C10.4098 86.2158 10.6644 86.0932 10.9944 86.0083C11.249 85.9423 11.4941 85.848 11.7581 85.7349C11.9938 85.6406 12.2295 85.518 12.5029 85.4143C12.6255 85.7538 12.7764 85.9989 12.8235 86.2535C12.8801 86.5175 12.9838 86.7626 13.0215 87.0266C13.0592 87.2906 12.9272 87.5829 12.9744 87.8469C13.0215 88.1109 13.2572 88.3277 13.3232 88.5823C13.3892 88.8557 13.3986 89.1386 13.4929 89.3931C13.5872 89.6477 13.6343 89.9494 13.7663 90.1851C13.8983 90.4208 14.0869 90.6471 14.2661 90.8545C14.4452 91.062 14.6809 91.2128 14.8978 91.392C15.1146 91.5711 15.3786 91.6277 15.6332 91.7597C15.8595 91.8822 16.0952 91.9954 16.3497 92.0708C16.6043 92.1462 16.8589 92.1934 17.1229 92.2122C17.4246 92.2311 17.6886 92.2594 17.9243 92.2122C18.2166 92.1651 18.4994 92.1557 18.7163 92.0048C18.9331 91.854 19.018 91.59 19.15 91.326C19.2631 91.1091 19.4046 90.8828 19.4611 90.5811C19.5083 90.3171 19.6497 90.0531 19.678 89.7797C19.7063 89.5063 19.7346 89.2329 19.744 88.9594C19.7534 88.686 19.678 88.4126 19.678 88.1392C19.678 87.8657 19.6497 87.5923 19.6497 87.3189C19.6497 87.0455 19.7157 86.772 19.7251 86.4986C19.7251 86.244 19.6026 85.9989 19.5837 85.7349C19.5648 85.4709 19.6874 85.2541 19.6686 84.9901C19.9043 84.9146 20.1023 84.8392 20.3285 84.7732C20.5548 84.7072 20.8094 84.6695 21.0451 84.6224C21.2808 84.5752 21.5165 84.4809 21.7522 84.4338C21.9879 84.3866 22.2237 84.2452 22.4594 84.2169C22.6951 84.1886 22.9496 84.2169 23.1948 84.1886C23.4399 84.1604 23.6851 84.2452 23.9302 84.2358C24.1754 84.2264 24.4111 84.1981 24.6562 84.1981C24.9013 84.1981 25.1465 84.0944 25.3916 84.0944C25.6368 84.0944 25.929 84.0944 26.1742 84.1132C26.1365 84.3395 26.1459 84.6224 26.1082 84.8298C26.0705 85.0561 25.9196 85.2541 25.8819 85.4615C25.8442 85.6689 25.7688 85.8952 25.7499 86.112C25.731 86.3383 25.7688 86.574 25.7499 86.8003C25.731 87.0266 25.7876 87.2623 25.7688 87.498C25.7499 87.7337 25.7216 87.9506 25.7028 88.1863C25.6839 88.422 25.6556 88.6389 25.6462 88.8746C25.6368 89.1103 25.4859 89.3366 25.5048 89.5723C25.5236 89.8363 25.6556 90.072 25.7216 90.2983C25.797 90.5434 25.9008 90.7697 26.0328 90.9771C26.1648 91.1845 26.3627 91.3354 26.5419 91.5145C26.721 91.6937 26.8719 91.8728 27.0793 92.0048C27.2867 92.1368 27.4659 92.3631 27.7016 92.4574C27.9373 92.5517 28.2107 92.5045 28.4559 92.5422C28.701 92.58 28.9556 92.6837 29.2007 92.6837C29.4458 92.6837 29.691 92.5517 29.9361 92.5045C30.1813 92.4574 30.4075 92.3442 30.6244 92.2405C30.8507 92.1274 31.0675 92.0331 31.2655 91.9011C31.4635 91.7691 31.6615 91.6183 31.8407 91.458C32.0198 91.2977 32.1612 91.0997 32.3215 90.9111C32.4818 90.7225 32.6704 90.5717 32.8024 90.3643C32.9438 90.1474 33.0852 89.9306 33.2172 89.7043C33.3492 89.478 33.5095 89.2706 33.6321 89.0443C33.7546 88.818 33.7264 88.5163 33.8395 88.2806C33.9526 88.0449 34.1035 87.8374 34.1978 87.5923C34.2921 87.3472 34.4146 87.1209 34.4901 86.8757C34.5655 86.6306 34.7258 86.3949 34.7823 86.1403C34.8295 85.9329 34.7823 85.6878 34.8578 85.4992C34.8861 85.4426 35.0181 85.4143 35.1218 85.3483C35.3952 85.4238 35.5838 85.5746 35.6309 85.7632C35.678 85.9518 35.4895 86.1875 35.4801 86.4043C35.4612 86.6589 35.5838 86.9229 35.5649 87.168C35.546 87.4132 35.5178 87.6677 35.4989 87.9223C35.48 88.1769 35.3198 88.4126 35.3009 88.6672C35.2821 88.9217 35.2443 89.1669 35.2255 89.4214C35.2066 89.676 35.2632 89.9306 35.2538 90.1851C35.2349 90.4397 35.2632 90.6943 35.2538 90.9488C35.2443 91.2034 35.1595 91.4485 35.1501 91.7031C35.1406 91.9577 35.0652 92.2028 35.0558 92.4574C35.0463 92.7119 35.0935 92.9665 35.0746 93.2211C35.0558 93.4757 34.9709 93.7208 34.952 93.9848C34.9332 94.2488 34.9709 94.4185 34.952 94.6731C34.5749 94.6165 34.2732 94.7862 33.9904 94.6919C33.7358 94.6071 33.4906 94.5128 33.2266 94.4562C32.9626 94.3996 32.7269 94.2111 32.4629 94.1734C32.1989 94.1356 31.9255 94.1451 31.6521 94.1356C31.3787 94.1262 31.1052 94.1074 30.8412 94.1356C30.5773 94.1639 30.3133 94.2488 30.0493 94.2959C29.8136 94.3336 29.5873 94.4656 29.3421 94.5128C29.097 94.5599 28.8519 94.5316 28.6067 94.5788C28.3616 94.6259 28.1164 94.6165 27.8807 94.6542C27.645 94.6919 27.4187 94.8711 27.183 94.9088C26.9473 94.9465 26.7022 94.9842 26.4665 95.0313C26.2307 95.0785 25.9762 95.0879 25.7405 95.1351C25.5048 95.1822 25.2785 95.2859 25.0333 95.3331C24.7882 95.3802 24.5525 95.4085 24.3168 95.4651C24.0716 95.5216 23.8265 95.5688 23.5908 95.6159C23.3551 95.663 23.0817 95.5971 22.8365 95.6348C22.5914 95.6725 22.3557 95.7762 22.1105 95.8045C21.8654 95.8328 21.6108 95.7385 21.3657 95.7479C21.1205 95.7573 20.8848 95.9365 20.6303 95.9459C20.3757 95.9553 20.1305 95.9931 19.8854 95.9836C19.6403 95.9742 19.3951 95.8516 19.15 95.8233C18.8766 95.795 18.5937 95.8516 18.3203 95.8233C18.0469 95.795 17.7829 95.7102 17.5094 95.6819C17.236 95.6536 16.972 95.5688 16.6986 95.5499C16.4252 95.5311 16.1612 95.4273 15.8877 95.4085C15.6143 95.3896 15.3315 95.4556 15.0581 95.4273C14.7846 95.3991 14.5112 95.3613 14.2472 95.3613C13.9832 95.3613 13.7003 95.3331 13.4269 95.3613C13.1535 95.3896 12.8989 95.4933 12.6349 95.5499C12.3709 95.6065 12.1069 95.6536 11.8429 95.7385C11.579 95.8233 11.315 95.8705 11.0604 95.9836C10.8152 96.0873 10.6361 96.191 10.391 96.323V96.2948Z" fill="#E6E4E1"/>
<g opacity="0.55">
<path d="M20.8472 83.5004C20.7812 83.2552 20.7435 82.9912 20.6681 82.7461C20.5927 82.5009 20.423 82.2841 20.357 82.039C20.291 81.7938 20.2815 81.5298 20.2061 81.2847C20.1307 81.0395 20.093 80.785 20.027 80.5493C19.961 80.3135 19.7818 80.0967 19.7064 79.8516C19.631 79.6064 19.697 79.333 19.6215 79.0878C19.5461 78.8427 19.5084 78.5976 19.433 78.3524C19.3576 78.1073 19.2255 77.881 19.1595 77.6359C19.3481 77.5699 19.6121 77.5416 19.8761 77.5133C20.1307 77.485 20.3758 77.3153 20.6398 77.287C20.9038 77.2587 21.1678 77.3813 21.4318 77.3624C21.6958 77.3436 21.9409 77.2682 22.2049 77.2399C22.4689 77.2116 22.7235 77.1833 22.9781 77.1644C23.2326 77.1456 23.4966 77.1173 23.7512 77.0984C24.0058 77.0796 24.2603 77.0042 24.5243 76.9759C24.7883 76.9476 25.0335 76.8627 25.2975 76.8439C25.5615 76.825 25.816 76.8722 26.08 76.8439C26.344 76.8156 26.608 76.8722 26.8626 76.8439C27.1171 76.8156 27.3717 76.6553 27.6263 76.6365C27.9657 76.6082 28.2674 76.8062 28.6446 76.8439C28.6446 77.1173 28.6163 77.2964 28.5691 77.5227C28.522 77.7773 28.4937 78.013 28.3334 78.2016C28.192 78.3713 28.0129 78.541 27.7489 78.6636C27.4943 78.7767 27.2209 78.8427 26.9946 78.9936C26.7683 79.1444 26.542 79.3141 26.344 79.4933C26.146 79.6724 26.0046 79.9175 25.8349 80.1344C25.6652 80.3513 25.4766 80.5493 25.3352 80.7755C25.1938 81.0018 25.1655 81.2941 25.0523 81.5392C24.9392 81.7844 24.7978 82.0201 24.7129 82.2747C24.5998 82.6329 24.4301 82.8498 24.2226 82.9912C24.0152 83.1326 23.7512 83.2741 23.3835 83.2741C23.1006 83.2741 22.8178 83.2929 22.5255 83.3212C22.2332 83.3495 21.9598 83.3872 21.6769 83.4155C21.3941 83.4438 21.0924 83.4344 20.8095 83.4626L20.8472 83.5004Z" fill="white"/>
</g>
<path d="M18.7728 76.4384C18.7351 76.1839 18.7916 75.9199 18.7634 75.6936C18.7351 75.4484 18.5748 75.2316 18.5465 74.9959C18.5182 74.7602 18.6031 74.581 18.5748 74.3359C18.8199 74.3359 18.9896 74.3642 19.2348 74.3547C19.4799 74.3453 19.7156 74.2322 19.9608 74.2133C20.2059 74.1945 20.4416 74.0813 20.6868 74.0625C20.9319 74.0436 21.1865 74.1567 21.4316 74.1285C21.6767 74.1002 21.9219 74.0813 22.1576 74.053C22.3933 74.0247 22.629 73.8645 22.8647 73.8268C23.1004 73.789 23.3456 73.723 23.5813 73.6947C23.817 73.6665 24.0904 73.8079 24.3261 73.7796C24.5619 73.7513 24.7976 73.6382 25.0427 73.6099C25.2878 73.5816 25.5141 73.4685 25.7593 73.4496C26.0044 73.4308 26.259 73.5345 26.5041 73.5156C26.7493 73.4968 26.985 73.459 27.2301 73.4496C27.4752 73.4402 27.7109 73.2988 27.9561 73.2893C28.2012 73.2799 28.4464 73.4213 28.6915 73.4213C28.9366 73.4213 29.1912 73.3742 29.4364 73.393C29.5024 73.6382 29.5212 73.8739 29.5023 74.0907C29.4929 74.3265 29.4458 74.5527 29.3704 74.7696C29.2949 74.9864 29.2478 75.2222 29.1535 75.4202C29.0592 75.6276 28.5878 75.7502 28.3049 75.769C28.0692 75.7879 27.8335 75.7879 27.5978 75.7879C27.3621 75.7879 27.1264 75.7407 26.8907 75.7407C26.655 75.7407 26.4287 75.8821 26.193 75.8916C25.9573 75.901 25.7215 75.7973 25.4858 75.8161C25.2407 75.835 24.9861 75.8162 24.741 75.8444C24.4958 75.8727 24.2601 76.0236 24.015 76.0424C23.7699 76.0613 23.5247 76.0707 23.2796 76.099C23.0344 76.1273 22.7799 76.099 22.5347 76.1179C22.2896 76.1367 22.0445 76.1933 21.7993 76.2216C21.5542 76.2499 21.309 76.3347 21.0639 76.3536C20.8188 76.3724 20.5642 76.2687 20.3096 76.297C20.0645 76.3159 19.8099 76.297 19.5365 76.3253C19.3008 76.3441 19.0462 76.4479 18.7634 76.4761L18.7728 76.4384Z" fill="#E6E4E1"/>
<path d="M23.506 37.1407C23.7511 37.1879 24.0151 37.1407 24.2508 37.1879C24.4865 37.235 24.7034 37.433 24.9391 37.4801C25.1748 37.5273 25.4482 37.499 25.6839 37.5461C25.9197 37.5933 26.1459 37.763 26.3911 37.8007C26.6362 37.8384 26.8814 37.8478 27.1265 37.8667C27.3528 37.8856 27.5791 37.9327 27.8053 37.9327C28.0316 37.9327 28.2579 37.7724 28.4842 37.763C28.7105 37.7536 28.9368 37.763 29.163 37.7441C29.3893 37.7253 29.6156 37.7441 29.8419 37.7441C30.0682 37.7441 30.2945 37.7818 30.5207 37.7913C30.351 37.9798 30.1247 38.093 29.9456 38.2438C29.7476 38.4041 29.6156 38.6398 29.4082 38.7624C29.2008 38.885 28.9462 38.951 28.7199 39.0453C28.4936 39.1395 28.2674 39.2904 28.0222 39.3375C27.7771 39.3847 27.5131 39.2433 27.2679 39.2527C27.0228 39.2621 26.7871 39.2527 26.5325 39.2433C26.2591 39.215 25.9762 39.3093 25.7405 39.2433C25.486 39.1678 25.2125 39.0924 24.9957 38.9604C24.7788 38.8284 24.6185 38.5927 24.4205 38.4041C24.2414 38.2344 23.9774 38.1024 23.8266 37.8761C23.6851 37.6687 23.638 37.3953 23.5248 37.1407H23.506Z" fill="#FF8A95"/>
<path d="M11.7864 101.933C11.6073 101.622 11.9655 101.593 12.0598 101.207C12.1164 100.981 12.2578 100.736 12.2484 100.49C12.2484 100.236 12.1258 99.9718 11.975 99.7927C11.8807 99.6795 11.7393 99.4532 11.5507 99.1798C11.4187 99.0007 11.1547 98.8592 11.0133 98.633C10.8813 98.4255 10.8059 98.171 10.6833 97.9447C10.5607 97.7184 10.4287 97.5015 10.3344 97.2753C10.2307 97.0301 10.2213 96.7661 10.1741 96.5398C10.1176 96.2664 10.1176 96.0307 10.1741 95.8139C10.2401 95.5781 10.3439 95.3896 10.5796 95.2481C10.7587 95.135 10.9661 94.9464 11.2678 94.9087C11.5224 94.8804 11.777 94.871 12.0221 94.8522C12.2767 94.8333 12.5313 94.8144 12.7764 94.8144C13.031 94.8144 13.2855 94.8144 13.5307 94.8333C13.7947 94.8522 14.0492 94.8804 14.2849 94.8993C14.5489 94.9276 14.7752 95.1256 15.0109 95.1633C15.2749 95.201 15.5389 95.1256 15.7652 95.1633C16.0292 95.201 16.2743 95.2764 16.5006 95.2953C16.7835 95.3236 17.038 95.333 17.2455 95.2953C17.3869 95.2764 17.632 95.135 17.9903 95.0879C18.2072 95.0596 18.4806 95.135 18.7634 95.0973C18.9992 95.069 19.2632 95.0973 19.5272 95.069C19.7723 95.0407 20.0174 95.003 20.2814 94.9747C20.5266 94.9464 20.7623 94.739 21.0168 94.7107C21.2714 94.6824 21.526 94.6919 21.7805 94.6542C22.0351 94.6164 22.2897 94.5976 22.5443 94.5693C22.7988 94.541 23.0534 94.5033 23.308 94.475C23.5625 94.4467 23.8359 94.5222 24.0811 94.4939C24.3262 94.4656 24.5808 94.3053 24.8259 94.277C25.0899 94.2487 25.3445 94.1733 25.5896 94.1544C25.8631 94.1262 26.1271 94.1639 26.3628 94.145C26.6456 94.1167 26.9096 94.1733 27.1359 94.145C27.5413 94.1073 27.8053 94.0036 27.8902 94.0036C27.9845 94.0036 28.239 94.1262 28.6067 94.1262C28.8142 94.1262 29.0593 94.1167 29.3233 94.1167C29.5496 94.1167 29.7853 93.947 30.0399 93.947C30.2756 93.947 30.5113 94.1073 30.7564 94.1073C31.0016 94.1073 31.2373 93.9847 31.4824 93.9942C31.7276 94.0036 31.9633 94.079 32.199 94.0884C32.4347 94.0979 32.6893 94.0884 32.925 94.1073C33.1795 94.1167 33.4247 94.0507 33.651 94.0602C33.9244 94.079 34.1695 94.1073 34.3769 94.1262C34.7918 94.1733 35.0558 94.2864 35.0558 94.3713C35.0558 94.4844 34.9144 94.7579 34.8955 95.0973C34.8955 95.3236 34.9804 95.5781 34.9709 95.8327C34.9615 96.0873 34.9332 96.3418 34.9238 96.5681C34.9049 96.8981 34.9238 97.1715 34.9144 97.3035C34.9049 97.4073 34.9992 97.6807 35.0087 98.0578C35.0087 98.2841 34.8767 98.5481 34.8672 98.8121C34.8672 99.0572 34.9332 99.3212 34.9049 99.5758C34.8767 99.8304 34.8106 100.094 34.7446 100.321C34.6598 100.585 34.4712 100.754 34.311 100.924C34.1412 101.113 33.9904 101.282 33.6981 101.282C33.4812 101.282 33.2455 101.179 32.9815 101.15C32.7553 101.131 32.5007 101.197 32.2461 101.15C32.0104 101.122 31.7653 101.094 31.5201 101.056C31.275 101.018 31.0581 100.867 30.8224 100.83C30.5867 100.792 30.3416 100.754 30.0964 100.717C29.8513 100.679 29.5967 100.707 29.361 100.669C29.1159 100.632 28.8613 100.651 28.6256 100.613C28.371 100.575 28.1259 100.575 27.8996 100.547C27.6262 100.519 27.3905 100.471 27.1831 100.471C26.9379 100.471 26.6833 100.453 26.4099 100.509C26.1648 100.566 25.9196 100.641 25.6651 100.726C25.4294 100.801 25.1842 100.905 24.9391 100.999C24.6939 101.094 24.4394 101.122 24.1848 101.216C23.9302 101.311 23.7134 101.433 23.4588 101.518C23.2043 101.603 22.9497 101.641 22.7045 101.697C22.4594 101.754 22.186 101.735 21.9314 101.763C21.6768 101.791 21.4128 101.905 21.1488 101.923C20.8848 101.942 20.6114 101.914 20.3569 101.923C20.1023 101.933 19.8194 101.98 19.5649 101.98C19.2914 101.98 19.0275 102.065 18.7729 102.065C18.49 102.065 18.226 102.065 17.9809 102.055C17.6886 102.046 17.434 101.829 17.1983 101.82C17.0192 101.82 16.7552 101.839 16.4346 101.839C16.2083 101.839 15.9443 101.82 15.6709 101.82C15.4258 101.82 15.1712 101.82 14.9072 101.82C14.6432 101.82 14.3887 101.839 14.1435 101.839C13.8984 101.839 13.625 101.961 13.3798 101.961C13.097 101.961 12.833 101.961 12.6161 101.961C12.1541 101.961 11.9844 102.31 11.7864 101.98V101.933Z" fill="#0096D8"/>
</svg>
