<svg width="82" height="95" viewBox="0 0 82 95" fill="none" xmlns="http://www.w3.org/2000/svg">
<path d="M81.1202 56.8907C81.1202 57.0818 81.2295 57.2798 81.2295 57.4709C81.2295 57.662 81.0998 57.86 81.0998 58.0511C81.0998 58.2422 81.0656 58.4402 81.0656 58.6313C81.0656 58.8225 81.0452 59.0204 81.052 59.2115C81.0588 59.4027 81.1202 59.6006 81.1271 59.7917C81.1339 59.9829 81.1817 60.1808 81.1817 60.3719C81.1817 60.5631 81.0656 60.761 81.0656 60.9521C81.0656 61.1433 81.1202 61.3412 81.1202 61.5323C81.1202 61.7235 81.0042 61.9214 81.0042 62.1125C81.0042 62.3037 81.011 62.5016 81.0042 62.6928C80.9974 62.8839 81.1134 63.0818 81.1066 63.273C81.1066 63.4777 81.0998 63.6757 81.0929 63.8805C81.0861 64.0852 81.1817 64.29 81.1749 64.488C81.168 64.6859 81.0179 64.8907 81.011 65.0887C81.0042 65.2866 81.0861 65.4982 81.0793 65.6962C81.0725 65.8941 81.0042 66.0989 80.9905 66.3037C80.9769 66.5085 81.011 66.7132 81.0042 66.9112C80.9974 67.1091 80.9564 67.3139 80.9496 67.5187C80.9428 67.7235 80.8745 67.9214 80.8745 68.1262C80.8745 68.331 80.9564 68.5358 80.9564 68.7337C80.9564 68.9317 80.9428 69.1364 80.9428 69.3412C80.9428 69.546 80.8882 69.7439 80.8882 69.9487C80.8882 70.1467 80.9155 70.3446 80.9155 70.5494C80.9155 70.7542 80.8609 70.9521 80.8609 71.1501C80.8609 71.348 81.0452 71.546 81.052 71.7439C81.0588 71.9419 81.0179 72.1398 81.0315 72.3446C81.0452 72.5494 81.0247 72.7405 81.0315 72.9385C81.0383 73.1364 81.1271 73.3344 81.1339 73.5323C81.1407 73.7303 81.1544 73.9282 81.1612 74.1262C81.168 74.3241 81.0383 74.5289 81.0383 74.7269C81.0383 74.9248 81.0383 75.1228 81.0383 75.3207C81.0383 75.5187 81.1407 75.7166 81.1407 75.9078C81.1407 76.0989 80.9769 76.2968 80.9701 76.4948C80.9632 76.6927 81.0588 76.8907 81.052 77.0886C81.0452 77.2866 80.9632 77.4777 80.9632 77.6757C80.9632 77.8736 80.9359 78.0716 80.9359 78.2627C80.9359 78.4538 81.1339 78.6586 81.1271 78.8566C81.1202 79.0545 81.011 79.2456 81.011 79.4436C81.011 79.6415 80.9701 79.8327 80.9701 80.0306C80.9701 80.2286 81.0042 80.4265 81.0042 80.6245C81.0042 80.8224 81.0588 81.0204 81.0588 81.2183C81.0588 81.4163 80.9906 81.6074 80.9837 81.8054C80.9837 81.9965 80.9359 82.1808 80.9291 82.3719C80.9223 82.563 80.854 82.7473 80.8472 82.9385C80.8404 83.1296 80.9223 83.3207 80.9155 83.5118C80.9086 83.703 80.7994 83.8873 80.7926 84.0784C80.7858 84.2695 80.9086 84.4606 80.9018 84.6518C80.895 84.8429 80.9155 85.034 80.9086 85.2252C80.9018 85.4163 80.7653 85.6006 80.7585 85.7917C80.7516 85.9828 80.6766 86.1671 80.6697 86.3583C80.6629 86.5494 80.7516 86.7405 80.7448 86.9316C80.738 87.1228 80.7243 87.3139 80.7175 87.4982C80.7107 87.6825 80.7585 87.8804 80.7516 88.0716C80.7448 88.2627 80.6424 88.447 80.6356 88.6381C80.6288 88.8292 80.738 89.0204 80.7312 89.2115C80.7243 89.4026 80.6493 89.5869 80.6424 89.7781C80.6356 89.9692 80.5878 90.1535 80.581 90.3446C80.5742 90.5357 80.5059 90.72 80.4991 90.9112C80.4923 91.1159 80.4581 91.2866 80.4308 91.4436C80.4035 91.6484 80.383 91.7985 80.3148 91.9487C80.2397 92.1193 80.1646 92.2354 80.0144 92.3583C79.8916 92.4606 79.7892 92.6245 79.5981 92.7064C79.4479 92.7678 79.2909 92.877 79.0929 92.9384C78.9155 92.9931 78.6902 92.8975 78.5127 92.9521C78.3353 93.0067 78.2056 93.2183 78.0349 93.2729C77.8643 93.3275 77.6595 93.3275 77.482 93.3821C77.3046 93.4367 77.1066 93.4231 76.9291 93.4777C76.7721 93.5255 76.6015 93.5187 76.4377 93.5528C76.2738 93.5869 76.1237 93.7098 75.953 93.7166C75.7619 93.7234 75.5708 93.703 75.3796 93.7166C75.1885 93.7303 74.9974 93.7234 74.8063 93.7303C74.6151 93.7371 74.424 93.7507 74.2329 93.7576C74.0418 93.7644 73.8506 93.8258 73.6595 93.8327C73.4684 93.8395 73.2773 93.935 73.0861 93.9419C72.895 93.9487 72.697 93.8122 72.5059 93.819C72.3148 93.8258 72.1237 93.7917 71.9325 93.7985C71.7414 93.8054 71.5503 93.9009 71.3592 93.9077C71.168 93.9146 70.9769 93.9487 70.7858 93.9623C70.5947 93.976 70.4035 94.017 70.2124 94.0306C70.0213 94.0443 69.8302 94.017 69.639 94.0306C69.4479 94.0443 69.2568 94.0374 69.0657 94.0511C68.8745 94.0647 68.6766 94.0033 68.4854 94.0169C68.2943 94.0306 68.1032 94.0101 67.9121 94.0169C67.7209 94.0238 67.5298 94.017 67.3387 94.0306C67.1476 94.0443 66.9564 94.092 66.7653 94.1125C66.5742 94.1262 66.3831 94.092 66.1851 94.1125C65.9872 94.133 65.8029 94.1603 65.6117 94.174C65.4206 94.1876 65.2295 94.174 65.0384 94.1808C64.8472 94.1876 64.6561 94.2149 64.465 94.2217C64.2738 94.2286 64.0827 94.3651 63.8916 94.3719C63.7005 94.3787 63.5093 94.3446 63.3182 94.3446C63.1271 94.3446 62.936 94.1944 62.7448 94.1944C62.5537 94.1944 62.3626 94.3719 62.1646 94.3719C61.9667 94.3719 61.7824 94.174 61.5913 94.174C61.4001 94.174 61.209 94.2286 61.0179 94.2217C60.8268 94.2149 60.6288 94.3173 60.4377 94.3173C60.2465 94.3173 60.0554 94.2832 59.8643 94.2832C59.6732 94.2832 59.482 94.29 59.2909 94.2832C59.0998 94.2763 58.9087 94.2832 58.7175 94.2695C58.5264 94.2559 58.3421 94.1193 58.1442 94.1125C57.9462 94.1057 57.7619 94.0784 57.5708 94.0716C57.3797 94.0647 57.1817 94.2286 56.9906 94.2217C56.7995 94.2149 56.6083 94.2286 56.4172 94.2217C56.2261 94.2149 56.035 94.1808 55.8438 94.1808C55.6527 94.1808 55.4616 94.0169 55.2704 94.0169C55.0793 94.0169 54.8882 94.0374 54.6971 94.0306C54.5059 94.0238 54.3148 94.1466 54.1237 94.1466C53.9326 94.1466 53.7414 94.0443 53.5435 94.0443C53.3455 94.0443 53.1544 94.1125 52.9633 94.1057C52.7722 94.0989 52.581 94.0374 52.3831 94.0306C52.1851 94.0238 51.994 94.1057 51.8029 94.0989C51.6118 94.092 51.4138 94.1125 51.2227 94.0989C51.0315 94.0852 50.8336 94.1193 50.6425 94.1125C50.4513 94.1057 50.2602 94.0443 50.0691 94.0374C49.878 94.0306 49.6868 93.9828 49.4957 93.976C49.3046 93.9692 49.1135 93.9214 48.9223 93.9146C48.7312 93.9077 48.5401 93.8258 48.349 93.819C48.1578 93.8122 47.9599 93.8873 47.7687 93.8804C47.5776 93.8736 47.3865 93.8463 47.1885 93.8395C46.9906 93.8326 46.7995 93.935 46.6083 93.935C46.4172 93.935 46.2261 93.8463 46.0281 93.8463C45.837 93.8463 45.6459 93.8463 45.4548 93.8463C45.2636 93.8463 45.0725 93.7849 44.8814 93.7849C44.6903 93.7849 44.4991 93.8736 44.308 93.8736C44.1169 93.8736 43.9258 93.9282 43.7346 93.9282C43.5435 93.9282 43.3524 93.9419 43.1612 93.9419C42.9701 93.9419 42.779 93.935 42.5879 93.9419C42.3967 93.9487 42.2056 93.9077 42.0145 93.9077C41.8234 93.9077 41.6322 93.8668 41.4411 93.8668C41.25 93.8668 41.0589 93.8327 40.8677 93.8327C40.6766 93.8327 40.4855 93.8327 40.2944 93.8327C40.1032 93.8327 39.9121 93.935 39.721 93.935C39.5299 93.935 39.3387 93.7917 39.1476 93.7985C38.9565 93.8054 38.7654 93.9077 38.5742 93.9077C38.3831 93.9077 38.192 93.8873 38.0008 93.8873C37.8097 93.8873 37.6186 93.8463 37.4275 93.8463C37.2363 93.8463 37.0452 93.8463 36.8541 93.8463C36.663 93.8463 36.4718 93.8736 36.2807 93.8736C36.0896 93.8736 35.8985 93.8327 35.7073 93.8327C35.5162 93.8327 35.3251 93.86 35.134 93.86C34.9428 93.86 34.7517 93.9623 34.5606 93.9623C34.3694 93.9623 34.1783 93.9828 33.9872 93.9828C33.7961 93.9828 33.6049 93.8873 33.4138 93.8873C33.2227 93.8873 33.0316 93.8531 32.8404 93.8531C32.6493 93.8531 32.4582 93.8531 32.2671 93.8531C32.0759 93.8531 31.878 93.7985 31.6869 93.7985C31.4957 93.7985 31.2978 93.8941 31.1067 93.8941C30.9155 93.8941 30.7176 93.778 30.5265 93.778C30.3353 93.778 30.1374 93.8463 29.9462 93.8463C29.7551 93.8463 29.5572 93.8736 29.366 93.8736C29.1749 93.8736 28.977 93.9419 28.7858 93.9487C28.5947 93.9555 28.3968 93.7917 28.1988 93.7917C28.0009 93.7917 27.8097 93.819 27.6186 93.8258C27.4275 93.8326 27.2364 93.976 27.0384 93.9828C26.8405 93.9897 26.6493 94.0033 26.4582 94.0169C26.2671 94.0306 26.0759 94.0852 25.878 94.092C25.68 94.0989 25.4889 94.092 25.2978 94.1057C25.1067 94.1193 24.9087 94.1262 24.7176 94.133C24.5265 94.1398 24.3217 94.0374 24.1306 94.0443C23.9394 94.0511 23.7483 94.174 23.5572 94.1808C23.3661 94.1876 23.1613 94.0852 22.9701 94.092C22.779 94.0989 22.5879 94.1876 22.3899 94.1944C22.192 94.2013 22.0077 94.2763 21.8097 94.29C21.6118 94.3036 21.4138 94.1603 21.2227 94.174C21.0316 94.1876 20.8405 94.3105 20.6493 94.3241C20.4582 94.3378 20.2534 94.1944 20.0623 94.2012C19.8712 94.2081 19.68 94.3378 19.4889 94.3446C19.2978 94.3514 19.0998 94.3105 18.9087 94.3173C18.7176 94.3241 18.5265 94.3036 18.3353 94.3173C18.1442 94.3309 17.9531 94.4265 17.762 94.4265C17.5708 94.4265 17.3797 94.3105 17.1818 94.3173C16.9838 94.3241 16.7995 94.4402 16.6084 94.4402C16.4173 94.4402 16.2261 94.3036 16.035 94.2968C15.8439 94.29 15.6459 94.447 15.4548 94.4402C15.2637 94.4333 15.0725 94.3992 14.8814 94.3924C14.6903 94.3856 14.4992 94.3924 14.308 94.3856C14.1169 94.3787 13.9258 94.3446 13.7347 94.3309C13.5435 94.3173 13.3592 94.1876 13.1681 94.174C12.977 94.1603 12.7859 94.1398 12.5947 94.1262C12.4036 94.1125 12.2057 94.1876 12.0145 94.1671C11.8234 94.1466 11.6459 94.0306 11.4548 94.0101C11.2637 93.9896 11.0521 94.1398 10.8609 94.1193C10.6698 94.0989 10.4855 94.0511 10.2944 94.0169C10.1033 93.9828 9.93945 93.7985 9.75515 93.7712C9.57085 93.7439 9.36607 93.7576 9.18177 93.7234C8.99747 93.6893 8.81317 93.6074 8.62887 93.5733C8.44457 93.5391 8.23296 93.6074 8.04184 93.5733C7.85071 93.5391 7.67324 93.4641 7.48894 93.4163C7.30464 93.3685 7.13399 93.2661 6.94286 93.2183C6.74491 93.1705 6.56744 93.1159 6.38996 93.0545C6.20566 92.9862 5.97358 93.0204 5.80293 92.9316C5.62546 92.8361 5.43433 92.7542 5.27734 92.6449C5.12034 92.5357 5.04525 92.3036 4.90874 92.1671C4.77222 92.0306 4.71761 91.8327 4.60157 91.6757C4.48553 91.5187 4.37631 91.3753 4.28075 91.2047C4.18519 91.034 3.93945 90.9453 3.86437 90.761C3.78928 90.5767 3.9258 90.3309 3.86437 90.1398C3.80294 89.9555 3.60498 89.819 3.55038 89.6279C3.49577 89.4368 3.39338 89.2661 3.35242 89.0818C3.31147 88.8975 3.36608 88.6791 3.33195 88.4948C3.29782 88.3105 3.22956 88.1193 3.19543 87.9282C3.1613 87.7371 3.1613 87.5391 3.13399 87.348C3.10669 87.1569 3.08621 86.9658 3.06574 86.7746C3.04526 86.5835 3.10669 86.3856 3.08621 86.1944C3.06574 85.9965 2.977 85.8054 2.95652 85.6074C2.93604 85.4095 2.96335 85.2047 2.94969 85.0067C2.93604 84.8088 2.82 84.6176 2.79952 84.4197C2.77905 84.2217 2.89509 84.0101 2.87461 83.8122C2.85413 83.6142 2.72444 83.4299 2.70396 83.232C2.68348 83.034 2.78587 82.8224 2.76539 82.6245C2.74492 82.4265 2.62888 82.2354 2.6084 82.0374C2.58792 81.8395 2.6084 81.6347 2.58109 81.4368C2.55379 81.2388 2.58109 81.034 2.56744 80.8361C2.55379 80.6381 2.55379 80.4402 2.53331 80.2422C2.51283 80.0443 2.49918 79.8463 2.48553 79.6484C2.47188 79.4504 2.38314 79.2593 2.36949 79.0613C2.35584 78.8634 2.23297 78.6723 2.21249 78.4743C2.19202 78.2764 2.18519 78.0784 2.16471 77.8805C2.14423 77.6825 2.07598 77.4846 2.06232 77.2866C2.04867 77.0886 2.22615 76.877 2.20567 76.6723C2.18519 76.4675 1.98724 76.29 1.97359 76.0921C1.95993 75.8941 1.97359 75.6893 1.95993 75.4914C1.94628 75.2934 1.93946 75.0955 1.9258 74.8975C1.91215 74.6996 1.98724 74.4948 1.97359 74.2968C1.95993 74.0989 2.02819 73.9009 2.01454 73.7098C2.00089 73.5187 1.76881 73.3344 1.76198 73.1364C1.75516 72.9385 1.76198 72.7474 1.76198 72.5494C1.76198 72.3514 1.76881 72.1603 1.76198 71.9624C1.75516 71.7644 1.85072 71.5665 1.83707 71.3753C1.82342 71.1842 1.74833 70.9863 1.7415 70.7951C1.73468 70.604 1.72785 70.4061 1.72103 70.2081C1.7142 70.0102 1.7415 69.819 1.73468 69.6211C1.72785 69.4231 1.66642 69.232 1.65959 69.0409C1.65277 68.8497 1.57086 68.6518 1.56403 68.4607C1.5572 68.2695 1.75516 68.0579 1.74833 67.8668C1.7415 67.6757 1.65277 67.4777 1.63912 67.2866C1.62546 67.0955 1.50942 66.9044 1.49577 66.7064C1.48212 66.5085 1.52307 66.3105 1.50942 66.1194C1.49577 65.9214 1.5299 65.7166 1.51625 65.5187C1.5026 65.3207 1.57086 65.116 1.5572 64.918C1.54355 64.7201 1.33195 64.5358 1.3183 64.3378C1.30465 64.1399 1.46164 63.9282 1.44799 63.7303C1.43434 63.5323 1.44799 63.3344 1.44116 63.1364C1.43434 62.9385 1.36608 62.7405 1.35243 62.5426C1.33877 62.3446 1.21591 62.1535 1.20226 61.9556C1.1886 61.7576 1.1613 61.5597 1.14082 61.3617C1.12035 61.1637 1.12717 60.9658 1.10669 60.7678C1.08622 60.5699 1.12717 60.3651 1.10669 60.1672C1.08622 59.9692 0.983827 59.7781 0.970175 59.5801C0.956523 59.3822 1.10669 59.1706 1.08622 58.9726C1.06574 58.7747 0.86096 58.5904 0.840482 58.3924C0.820004 58.1945 0.833656 57.9965 0.813178 57.7986C0.7927 57.6006 0.847308 57.3958 0.833656 57.1979C0.820004 56.9999 0.744919 56.8088 0.724441 56.6109C0.703963 56.4129 0.669834 56.2149 0.656182 56.017C0.64253 55.819 0.758571 55.6074 0.744919 55.4095C0.731267 55.2115 0.649356 55.0204 0.635704 54.8225C0.622052 54.6245 0.601574 54.4266 0.587923 54.2286C0.574271 54.0307 0.656182 53.8259 0.635704 53.6279C0.615226 53.43 0.622052 53.232 0.6084 53.0341C0.594748 52.8361 0.451404 52.645 0.430926 52.447C0.410448 52.2491 0.342189 52.058 0.321711 51.86C0.301234 51.6621 0.321711 51.4641 0.308059 51.2661C0.294408 51.075 0.2398 50.8839 0.226148 50.6928C0.212496 50.5016 0.198845 50.3037 0.192019 50.1126C0.185193 49.9214 0.335363 49.7167 0.328537 49.5255C0.321711 49.3344 0.27393 49.1433 0.267104 48.9522C0.260278 48.761 0.198845 48.5699 0.192019 48.3788C0.185193 48.1877 0.253452 47.9897 0.246626 47.7986C0.2398 47.6075 0.301234 47.4095 0.294408 47.2184C0.287582 47.0272 0.253452 46.8361 0.246626 46.6382C0.2398 46.4402 0.178367 46.2559 0.171541 46.058C0.164715 45.86 0.0691519 45.6757 0.062326 45.4846C0.0555001 45.2935 0.00771854 45.1023 0.000892615 44.9044C-0.00593331 44.7201 0.0281963 44.5358 0.0418482 44.3583C0.0555001 44.1808 0.212496 44.0238 0.246626 43.8464C0.280756 43.6689 0.267104 43.4846 0.328537 43.3139C0.389971 43.1433 0.567445 43.0409 0.649356 42.8771C0.731267 42.7133 0.67666 42.488 0.779049 42.3378C0.881438 42.1877 0.915567 41.9965 1.02478 41.8464C1.14082 41.6894 1.44116 41.6621 1.5572 41.5051C1.67325 41.3481 1.62546 41.0614 1.74833 40.9044C1.8712 40.7474 2.14423 40.7064 2.2671 40.5494C2.38997 40.3924 2.39679 40.1467 2.51283 39.9897C2.62888 39.8327 2.84731 39.7508 2.97017 39.5938C3.09304 39.4368 3.07939 39.1706 3.20225 39.0204C3.32512 38.8703 3.50942 38.761 3.63911 38.604C3.76881 38.447 3.87119 38.2832 4.00089 38.1331C4.13058 37.9829 4.26027 37.8327 4.38314 37.6825C4.50601 37.5324 4.68348 37.4163 4.80635 37.2662C4.92921 37.116 4.98382 36.8976 5.10669 36.7474C5.22956 36.5972 5.3729 36.4539 5.50259 36.3037C5.63228 36.1535 5.7415 35.9897 5.87119 35.8395C6.00088 35.6894 6.26027 35.6552 6.38996 35.5051C6.51966 35.3549 6.56744 35.1365 6.69713 34.9863C6.82682 34.8361 6.96334 34.6928 7.09303 34.5426C7.22273 34.3924 7.40703 34.2901 7.53672 34.1467C7.66641 34.0034 7.72785 33.7849 7.85754 33.6416C7.98723 33.4982 8.18518 33.4027 8.31487 33.2593C8.44457 33.116 8.60839 32.9863 8.73808 32.843C8.86778 32.6996 8.99064 32.5358 9.12033 32.3856C9.25003 32.2355 9.27733 31.9965 9.41385 31.8464C9.54354 31.703 9.72784 31.6075 9.85754 31.4641C9.98723 31.3208 10.2057 31.2525 10.3354 31.1092C10.465 30.9658 10.6084 30.8293 10.7381 30.686C10.8678 30.5426 10.9292 30.331 11.0589 30.1877C11.1886 30.0443 11.4207 29.9965 11.5504 29.8532C11.6801 29.7099 11.6801 29.4436 11.8166 29.3071C11.9531 29.1706 12.1374 29.075 12.2739 28.9317C12.4104 28.7884 12.4514 28.5699 12.5811 28.4266C12.7108 28.2832 12.9565 28.2491 13.0862 28.1058C13.2159 27.9624 13.3115 27.7849 13.4411 27.6416C13.5708 27.4983 13.7142 27.3686 13.8439 27.2252C13.9736 27.0819 14.1715 27 14.308 26.8566C14.4446 26.7133 14.4719 26.4812 14.6016 26.3378C14.7312 26.1945 14.9019 26.0853 15.0384 25.9488C15.1749 25.8123 15.2159 25.587 15.3524 25.4436C15.4889 25.3003 15.6528 25.1979 15.7893 25.0546C15.9258 24.9112 16.0896 24.8088 16.2261 24.6655C16.3626 24.5222 16.506 24.3993 16.6357 24.2559C16.7654 24.1126 16.9429 24.0102 17.0725 23.8669C17.2022 23.7235 17.1886 23.4505 17.3251 23.3071C17.4616 23.1638 17.5777 23.0136 17.7142 22.8703C17.8507 22.7269 17.9872 22.5972 18.1169 22.4539C18.2466 22.3105 18.4377 22.2218 18.5674 22.0785C18.6971 21.9351 18.8268 21.7918 18.9565 21.6484C19.0862 21.5051 19.2705 21.4095 19.407 21.2662C19.5435 21.1228 19.564 20.8839 19.6937 20.7406C19.8234 20.5972 19.9599 20.4607 20.0964 20.3174C20.2193 20.1809 20.3422 20.0443 20.465 19.901C20.5879 19.7577 20.779 19.6826 20.9019 19.546C21.0248 19.4095 21.2091 19.3208 21.3319 19.1774C21.4548 19.0341 21.5231 18.8566 21.6459 18.7133C21.7688 18.5699 21.8234 18.3788 21.9394 18.2355C22.0555 18.0921 22.2876 18.0375 22.4036 17.901C22.5196 17.7645 22.663 17.6348 22.7858 17.4914C22.9087 17.3481 22.8814 17.0887 23.0043 16.9454C23.1271 16.802 23.2159 16.6382 23.3387 16.5017C23.4616 16.3652 23.6118 16.2491 23.7347 16.1058C23.8643 15.9624 24.0077 15.8396 24.1374 15.6962C24.2671 15.5529 24.3695 15.3891 24.4992 15.2457C24.6288 15.1024 24.7381 14.9454 24.8678 14.802C24.9974 14.6587 25.1817 14.5699 25.3114 14.4266C25.4411 14.2833 25.605 14.174 25.7346 14.0375C25.8643 13.901 26.0282 13.7918 26.1579 13.6484C26.2875 13.5051 26.349 13.3003 26.4787 13.1638C26.6084 13.0273 26.7927 12.9317 26.9224 12.7952C27.0521 12.6587 27.0452 12.3856 27.1749 12.2491C27.3046 12.1126 27.5572 12.0785 27.68 11.9351C27.8029 11.7918 27.8234 11.5461 27.9531 11.4027C28.0828 11.2594 28.2398 11.1433 28.3626 11C28.4855 10.8566 28.6084 10.7065 28.7312 10.5631C28.8541 10.4198 28.9838 10.2764 29.1135 10.1331C29.2432 9.98975 29.4207 9.89418 29.5435 9.75084C29.6732 9.60749 29.9121 9.55289 30.0418 9.40271C30.1715 9.25254 30.1783 8.99998 30.3148 8.85664C30.4514 8.7133 30.5674 8.5563 30.6971 8.41296C30.8268 8.26961 30.9633 8.11944 31.093 7.97609C31.2227 7.83275 31.3797 7.70988 31.5094 7.55971C31.6391 7.40954 31.7415 7.23889 31.8712 7.09555C32.0009 6.95221 32.1852 6.84982 32.3148 6.69965C32.4445 6.54948 32.5128 6.35152 32.6425 6.20135C32.7722 6.05118 33.0179 6.01023 33.1476 5.86006C33.2773 5.70989 33.4275 5.58019 33.5572 5.43685C33.6869 5.2935 33.8029 5.12968 33.9326 4.98634C34.0623 4.84299 34.0759 4.58361 34.2056 4.44026C34.3353 4.29692 34.5879 4.25596 34.7176 4.10579C34.8473 3.95562 34.9087 3.74402 35.0384 3.60067C35.1681 3.45733 35.2295 3.2389 35.3592 3.09556C35.4889 2.95221 35.7415 2.91125 35.8712 2.76108C36.0077 2.61091 36.1783 2.50852 36.3285 2.37201C36.4787 2.23549 36.5196 1.98293 36.6766 1.85324C36.8336 1.72354 37.0316 1.64846 37.1886 1.52559C37.3456 1.40272 37.4616 1.21842 37.6186 1.09556C37.7892 0.965865 38.0145 0.952213 38.1988 0.883953C38.3899 0.808868 38.5742 0.747435 38.779 0.740609C38.9838 0.733783 39.1613 0.808869 39.366 0.849824C39.5572 0.89078 39.7278 0.979516 39.9189 1.06143C40.1715 1.16382 40.4514 1.17747 40.7107 1.23208C40.895 1.27303 41.0725 1.36177 41.25 1.40955C41.4275 1.45733 41.6254 1.47781 41.8029 1.53242C41.9804 1.58702 42.1237 1.75085 42.3012 1.81228C42.4787 1.87371 42.7176 1.78498 42.895 1.85324C43.0725 1.92149 43.2159 2.06484 43.3865 2.14675C43.5572 2.22866 43.6732 2.41296 43.837 2.5017C44.0008 2.59044 44.2739 2.48805 44.4377 2.58361C44.6015 2.67917 44.7585 2.78839 44.9223 2.89078C45.0862 2.99317 45.2295 3.11603 45.3865 3.22525C45.5435 3.33446 45.6186 3.55289 45.7756 3.66211C45.9326 3.77132 46.1715 3.7645 46.3217 3.87371C46.4718 3.98293 46.5606 4.18088 46.7107 4.29692C46.8609 4.41296 46.9633 4.58361 47.1066 4.69965C47.25 4.81569 47.4411 4.88395 47.5845 5.00682C47.7278 5.12968 47.8097 5.32763 47.9462 5.4505C48.0759 5.56654 48.3285 5.59385 48.4855 5.74402C48.622 5.87371 48.7176 6.05801 48.8677 6.20135C49.0042 6.33787 49.1135 6.50852 49.2568 6.65869C49.3933 6.79521 49.564 6.90442 49.7073 7.05459C49.8507 7.20477 49.9804 7.34128 50.1237 7.48463C50.267 7.62797 50.424 7.75084 50.5606 7.89418C50.6971 8.03753 50.8063 8.215 50.936 8.35835C51.0657 8.50169 51.1885 8.67917 51.3182 8.82251C51.4616 8.97268 51.6527 9.06824 51.7824 9.21159C51.9257 9.36859 52.0008 9.56654 52.1237 9.70988C52.2739 9.8737 52.5469 9.90783 52.6561 10.0375C52.8541 10.2696 52.9906 10.4539 53.0315 10.5222C53.1339 10.6928 53.1339 10.9385 53.25 11.1024C53.366 11.2662 53.5162 11.4095 53.639 11.5734C53.7619 11.7372 53.9599 11.8327 54.0896 11.9897C54.2193 12.1467 54.2739 12.3583 54.4104 12.5085C54.5469 12.6587 54.5879 12.8976 54.7244 13.0478C54.8609 13.1979 54.9906 13.3549 55.1339 13.4983C55.2773 13.6416 55.4889 13.7235 55.6254 13.8669C55.7619 14.0102 55.8302 14.2286 55.9667 14.3788C56.1032 14.529 56.3558 14.5699 56.4923 14.7133C56.6288 14.8566 56.7244 15.0478 56.8609 15.1979C56.9974 15.3481 57.2022 15.4368 57.3387 15.587C57.4752 15.7372 57.5435 15.942 57.68 16.099C57.8165 16.2559 58.0145 16.3447 58.1442 16.5017C58.2739 16.6587 58.424 16.7952 58.5537 16.9454C58.6834 17.0955 58.6971 17.3549 58.8268 17.5119C58.9565 17.6689 59.1271 17.7918 59.2568 17.942C59.3865 18.0921 59.523 18.2491 59.6527 18.3993C59.7824 18.5495 59.9667 18.6655 60.0964 18.8157C60.2329 18.9658 60.2739 19.1979 60.4035 19.3549C60.5332 19.5119 60.6288 19.6962 60.7585 19.8532C60.8882 20.0102 61.1203 20.0716 61.2568 20.2218C61.3933 20.372 61.5708 20.4812 61.7073 20.6314C61.8438 20.7815 62.0008 20.9112 62.1442 21.0546C62.2875 21.1979 62.3353 21.4368 62.4786 21.5802C62.6288 21.7235 62.8131 21.8191 62.9564 21.9624C63.0998 22.1058 63.2295 22.2628 63.366 22.4061C63.5025 22.5495 63.6936 22.6587 63.8233 22.8157C63.953 22.9727 63.9803 23.2116 64.11 23.3686C64.2397 23.5256 64.3489 23.6894 64.4786 23.8464C64.6083 24.0034 64.8131 24.0921 64.9428 24.2559C65.0725 24.4198 65.2022 24.5631 65.325 24.7269C65.4479 24.8907 65.523 25.0887 65.6459 25.2457C65.7687 25.4027 65.8916 25.5665 66.0145 25.7303C66.1373 25.8942 66.2329 26.0716 66.3558 26.2355C66.4786 26.3993 66.7312 26.4607 66.854 26.6177C66.9769 26.7747 66.9291 27.0614 67.052 27.2184C67.1749 27.3754 67.3728 27.471 67.4957 27.6279C67.6186 27.7849 67.7892 27.901 67.9121 28.058C68.0349 28.215 68.1578 28.372 68.2807 28.529C68.4035 28.686 68.4581 28.8976 68.581 29.0546C68.7039 29.2116 68.8472 29.3481 68.9701 29.5051C69.093 29.6621 69.2226 29.8122 69.3523 29.9692C69.482 30.1262 69.6254 30.2628 69.7482 30.4198C69.8711 30.5767 70.0281 30.7064 70.151 30.8634C70.2738 31.0204 70.3626 31.2047 70.4854 31.3617C70.6083 31.5187 70.6902 31.7099 70.8131 31.8668C70.9291 32.017 71.0042 32.2081 71.1271 32.3583C71.2499 32.5085 71.3387 32.686 71.4547 32.8361C71.5708 32.9863 71.7892 33.0682 71.9052 33.2252C72.0213 33.3822 72.0554 33.6006 72.1714 33.7508C72.2875 33.901 72.4786 34.0034 72.6015 34.1535C72.7243 34.3037 72.779 34.5017 72.9018 34.6587C73.0247 34.8157 73.2363 34.8907 73.3523 35.0477C73.4684 35.2047 73.4547 35.4573 73.5708 35.6143C73.6868 35.7713 73.994 35.7781 74.11 35.9351C74.2261 36.0921 74.2943 36.2832 74.4104 36.4334C74.5264 36.5836 74.54 36.8225 74.6561 36.9726C74.7721 37.1228 75.0179 37.1842 75.1339 37.3412C75.2499 37.4982 75.2841 37.7167 75.4001 37.8668C75.5162 38.017 75.7551 38.0853 75.8711 38.2423C75.9871 38.3993 75.9803 38.645 76.0964 38.7952C76.2124 38.9453 76.4035 39.0477 76.5196 39.2047C76.6356 39.3617 76.697 39.5597 76.8131 39.7098C76.9291 39.86 77.0998 39.9761 77.2158 40.1331C77.3319 40.2901 77.325 40.5358 77.4411 40.686C77.5503 40.8361 77.837 40.8566 77.9394 41.0068C78.0418 41.1569 78.1168 41.3344 78.2192 41.4914C78.3216 41.6484 78.3694 41.8395 78.465 41.9965C78.5605 42.1535 78.7448 42.2559 78.8404 42.4129C78.936 42.5699 78.9428 42.7883 79.0383 42.9453C79.1339 43.1023 79.2431 43.2593 79.3318 43.4163C79.4206 43.5733 79.4206 43.7918 79.5162 43.9556C79.6117 44.1194 79.7346 44.2559 79.8301 44.4129C79.9462 44.6109 80.1032 44.7883 80.1714 45.0136C80.2397 45.2389 80.2124 45.4778 80.2397 45.7098C80.267 45.9078 80.3967 46.0853 80.424 46.2832C80.4513 46.4812 80.424 46.6791 80.4513 46.8771C80.4786 47.075 80.5605 47.2593 80.581 47.4573C80.6015 47.6552 80.622 47.8532 80.6424 48.0443C80.6629 48.2354 80.6015 48.447 80.622 48.645C80.6424 48.8429 80.6288 49.0409 80.6493 49.2388C80.6697 49.4368 80.7448 49.6279 80.7585 49.8259C80.7721 50.0238 80.9018 50.2081 80.9155 50.4061C80.9291 50.604 80.7585 50.8156 80.7721 51.0136C80.7858 51.2115 80.9018 51.4027 80.9155 51.5938C80.9291 51.7849 80.8677 51.9897 80.8813 52.1876C80.895 52.3856 80.8745 52.5835 80.8813 52.7815C80.8882 52.9795 80.9906 53.1706 81.0042 53.3685C81.0179 53.5665 81.0656 53.7576 81.0725 53.9556C81.0793 54.1535 81.052 54.3515 81.0656 54.5494C81.0793 54.7474 80.9974 54.9453 81.0042 55.1433C81.011 55.3412 81.0042 55.5392 81.011 55.7371C81.0179 55.9351 81.2226 56.1262 81.2295 56.3242C81.2363 56.5221 81.1407 56.7201 81.1407 56.918L81.1202 56.8907Z" fill="#0096D8"/>
</svg>
