<svg width="57" height="101" viewBox="0 0 57 101" fill="none" xmlns="http://www.w3.org/2000/svg">
<path d="M12.9846 31.4232C13.2015 31.508 13.4089 31.6306 13.6163 31.6966C13.8238 31.7626 14.0406 31.8663 14.248 31.9323C14.4555 31.9983 14.71 31.9417 14.9269 31.9983C15.1437 32.0549 15.3417 32.2152 15.5586 32.2529C15.7754 32.2906 16.0206 32.2246 16.2374 32.2529C16.4543 32.2812 16.6806 32.3094 16.9068 32.3283C17.1331 32.3471 17.35 32.3472 17.5763 32.3566C17.8026 32.366 18.0288 32.4886 18.2457 32.4792C18.4625 32.4697 18.6982 32.4603 18.9245 32.4414C19.1508 32.4226 19.3771 32.3943 19.594 32.366C19.8108 32.3377 20.0371 32.2812 20.2539 32.234C20.4708 32.1869 20.6688 32.0266 20.8856 31.97C21.1025 31.9135 21.3476 31.97 21.5645 31.904C21.7814 31.838 21.9793 31.7343 22.1962 31.6589C22.4131 31.5835 22.6299 31.5363 22.8373 31.4515C23.0448 31.3666 23.2428 31.2629 23.4502 31.1686C23.6576 31.0743 23.865 31.0083 24.0725 30.9046C24.2799 30.8009 24.4496 30.65 24.6476 30.5463C24.8456 30.4426 25.0813 30.4049 25.2699 30.2918C25.4584 30.1786 25.6847 30.1126 25.8827 29.9995C26.0807 29.8863 26.241 29.7166 26.4296 29.5941C26.6181 29.4715 26.7879 29.2641 26.9764 29.1321C27.1933 29.1981 27.429 29.3301 27.6458 29.3961C27.8627 29.4621 28.0701 29.5658 28.2964 29.6318C28.5227 29.6978 28.7301 29.7638 28.9564 29.8203C29.1827 29.8769 29.4184 29.8486 29.6447 29.9052C29.871 29.9618 30.0878 30.0372 30.3047 30.0843C30.5215 30.1315 30.7384 30.2352 30.9647 30.2729C31.1909 30.3106 31.4266 30.2729 31.6529 30.2918C31.8792 30.3106 32.0961 30.4143 32.3223 30.4426C32.5486 30.4709 32.7749 30.4898 33.0012 30.4992C33.2275 30.5086 33.4632 30.4992 33.6895 30.4992C33.9158 30.4992 34.1515 30.5275 34.3777 30.5275C34.604 30.5275 34.8303 30.4049 35.0566 30.386C35.2829 30.3672 35.5092 30.3766 35.7354 30.3483C35.9617 30.32 36.1974 30.3766 36.4237 30.3389C36.65 30.3012 36.848 30.1315 37.0649 30.0843C37.2817 30.0372 37.508 30.0089 37.7343 29.9523C37.9605 29.8958 38.2057 29.9429 38.4226 29.8675C38.6394 29.7921 38.8091 29.6035 39.026 29.5186C39.2428 29.4338 39.4408 29.3395 39.6482 29.2452C39.8557 29.1509 40.1102 29.1698 40.3177 29.0566C40.5251 28.9435 40.6759 28.7738 40.8739 28.6512C41.0719 28.5286 41.2417 28.3778 41.4302 28.2552C41.6188 28.1326 41.8168 28.0289 42.0053 27.8969C42.1939 27.7649 42.3731 27.6424 42.5616 27.5009C42.7502 27.3595 42.9293 27.2275 43.1085 27.0767C43.3348 27.1804 43.3819 27.3972 43.429 27.6047C43.4762 27.8121 43.4573 28.0478 43.5139 28.2552C43.5705 28.4626 43.6836 28.6606 43.7402 28.8775C43.7968 29.0943 43.891 29.2923 43.9476 29.4998C44.0042 29.7072 44.0702 29.9241 44.1173 30.1315C44.1645 30.3389 44.1927 30.5652 44.2493 30.782C44.3059 30.9989 44.3436 31.2063 44.4002 31.4232C44.4567 31.64 44.5322 31.838 44.5887 32.0549C44.6453 32.2717 44.749 32.4697 44.8056 32.6772C44.8622 32.8846 44.9187 33.1014 44.9753 33.3089C45.0319 33.5163 44.9753 33.7614 45.0225 33.9783C45.0696 34.1951 45.1262 34.4026 45.1827 34.6194C45.2393 34.8363 45.409 35.0154 45.4656 35.2228C45.5222 35.4303 45.5316 35.6565 45.5882 35.8734C45.6447 36.0902 45.739 36.2882 45.7956 36.4957C45.8522 36.7125 45.8239 36.9482 45.8899 37.1651C45.9559 37.3819 46.0501 37.5799 46.1161 37.7968C46.1821 38.0136 46.2764 38.2116 46.3424 38.4285C46.4084 38.6453 46.4556 38.8622 46.5216 39.0696C46.5876 39.2771 46.6347 39.5033 46.7101 39.7108C46.7856 39.9182 46.8421 40.135 46.9176 40.3519C46.993 40.5688 47.1439 40.7385 47.2287 40.9553C47.3136 41.1722 47.2947 41.4079 47.3701 41.6153C47.4456 41.8227 47.5587 42.0207 47.6436 42.2282C47.7284 42.4356 47.7473 42.6713 47.8227 42.8787C47.8981 43.0861 48.0396 43.2747 48.1244 43.4821C48.2093 43.6896 48.3035 43.8876 48.3884 44.095C48.4733 44.3024 48.5676 44.5004 48.6618 44.7078C48.7561 44.9153 48.8221 45.1227 48.907 45.3301C48.9918 45.5375 49.1615 45.7073 49.2558 45.9053C49.3501 46.1127 49.3972 46.339 49.4915 46.5464C49.5858 46.7538 49.6895 46.9518 49.7838 47.1592C49.8781 47.3667 49.9064 47.6024 50.0007 47.8098C50.095 48.0172 50.161 48.2341 50.2647 48.4415C50.3684 48.6489 50.5287 48.8281 50.623 49.0261C50.7172 49.2241 50.7738 49.4598 50.8681 49.6672C50.9624 49.8746 51.1132 50.0538 51.2169 50.2612C51.3206 50.4686 51.4244 50.6666 51.5187 50.874C51.6129 51.0815 51.6978 51.2983 51.7921 51.4963C51.8864 51.6943 51.9524 51.9206 52.0561 52.128C52.1598 52.3354 52.3012 52.5146 52.4049 52.722C52.5086 52.9294 52.5275 53.1651 52.6312 53.3726C52.7349 53.58 52.9329 53.7309 53.0366 53.9383C53.1403 54.1457 53.1498 54.3908 53.2535 54.5888C53.3572 54.7868 53.4986 54.9754 53.5929 55.1828C53.6872 55.3903 53.6966 55.6354 53.8003 55.8428C53.904 56.0502 54.0172 56.2483 54.1115 56.4557C54.2058 56.6537 54.3566 56.8234 54.4697 57.0214C54.5829 57.2194 54.7432 57.3702 54.8563 57.5682C54.9695 57.7662 55.0166 57.9925 55.1392 58.1811C55.2617 58.3697 55.3843 58.5488 55.5069 58.7374C55.6294 58.9259 55.8086 59.0674 55.9312 59.2559C56.0537 59.4445 56.1669 59.6331 56.2894 59.8122C56.4686 60.0856 56.5534 60.3496 56.544 60.5759C56.5252 60.8116 56.3083 60.9908 56.1103 61.2265C55.9123 61.4527 55.6766 61.6507 55.4597 61.8582C55.29 62.0279 55.1674 62.207 54.9883 62.2824C54.7903 62.3673 54.5735 62.405 54.3566 62.3862C54.1586 62.3673 53.9606 62.273 53.7438 62.1882C53.5175 62.0939 53.3195 62.009 53.1309 61.943C52.8952 61.8582 52.6783 61.8487 52.4898 61.8016C52.2446 61.7356 52.0561 61.6319 51.8581 61.6225C51.6318 61.6225 51.4527 61.7356 51.2547 61.8299C51.0849 61.9147 50.8492 61.9525 50.6607 62.1127C50.5192 62.2353 50.4344 62.4616 50.2647 62.6407C50.1232 62.7822 49.9441 62.9047 49.7838 63.0839C49.6518 63.2253 49.4727 63.3384 49.3407 63.4893C49.2087 63.6401 49.1333 63.8381 49.0013 63.989C48.8693 64.1398 48.7184 64.2719 48.577 64.4133C48.4355 64.5547 48.247 64.649 48.1055 64.781C47.917 64.9507 47.8133 65.1487 47.6624 65.2147C47.4644 65.2995 47.2381 65.3467 47.0307 65.2618C46.8799 65.1958 46.7479 65.0073 46.5593 64.847C46.4084 64.715 46.2764 64.5641 46.135 64.4227C45.9936 64.2813 45.7862 64.2153 45.6353 64.0739C45.4844 63.9324 45.3242 63.8193 45.1827 63.6873C45.0413 63.5553 44.9753 63.3196 44.815 63.197C44.6076 63.0273 44.4002 62.8764 44.2116 62.7633C43.9759 62.6219 43.7213 62.5842 43.5045 62.537C43.2593 62.4899 43.0236 62.5464 42.7879 62.6219C42.5805 62.6879 42.4108 62.8482 42.1939 63.0084C42.0242 63.1404 41.8262 63.2724 41.6471 63.4704C41.4868 63.6401 41.2888 63.7816 41.1285 63.9607C40.9682 64.1398 40.7891 64.3001 40.6382 64.4793C40.4874 64.6584 40.2988 64.8093 40.1385 64.9884C39.9782 65.1676 39.9028 65.4127 39.7331 65.5918C39.5351 65.7993 39.3465 65.9784 39.1863 66.1104C38.9505 66.299 38.7148 66.4215 38.498 66.4498C38.2811 66.4781 38.0077 66.4498 37.7343 66.3273C37.5457 66.2424 37.3948 65.9972 37.1497 65.8464C36.9611 65.7332 36.7254 65.6955 36.5369 65.5824C36.3483 65.4693 36.1786 65.3184 35.9994 65.1958C35.8203 65.0733 35.5752 65.0355 35.3866 64.9224C35.198 64.8093 35.0566 64.6207 34.8774 64.4981C34.6983 64.3756 34.538 64.2058 34.3589 64.0833C34.1798 63.9513 34.0006 63.8381 33.8215 63.7533C33.6235 63.659 33.4066 63.659 33.2086 63.6119C33.0012 63.5647 32.8032 63.5081 32.5958 63.5081C32.3883 63.5081 32.1809 63.527 31.9735 63.593C31.7849 63.6496 31.6246 63.8004 31.4361 63.9041C31.2664 63.9984 31.0872 64.1021 30.9175 64.2436C30.7289 64.4038 30.5404 64.5547 30.3518 64.7244C30.1632 64.8941 29.9747 65.0356 29.7955 65.2053C29.6164 65.375 29.4184 65.5258 29.2392 65.6955C29.0601 65.8653 28.9093 66.0727 28.7301 66.233C28.5321 66.4027 28.2964 66.5441 28.089 66.7044C27.8815 66.8647 27.693 67.0627 27.4761 67.2135C27.2404 67.3738 26.9481 67.3455 26.6936 67.3644C26.439 67.3832 26.1939 67.3361 25.9487 67.1947C25.7319 67.0721 25.5056 66.9872 25.2887 66.8647C25.0719 66.7421 24.855 66.6384 24.6382 66.5158C24.4213 66.3932 24.1856 66.299 23.9876 66.1575C23.7896 66.0161 23.6388 65.7992 23.4502 65.639C23.2522 65.4693 23.0165 65.4033 22.875 65.2807C22.6676 65.111 22.5733 64.8753 22.4225 64.7621C22.2245 64.6207 21.9888 64.6207 21.7719 64.5547C21.5928 64.4981 21.3948 64.4039 21.1308 64.3661C20.9422 64.3378 20.6876 64.385 20.4236 64.3567C20.4614 64.1587 20.5179 63.923 20.5556 63.725C20.5934 63.527 20.5934 63.3196 20.6405 63.1216C20.6971 62.8953 20.8008 62.6784 20.8574 62.4522C20.9139 62.2259 20.9328 61.9902 20.9894 61.7639C21.0459 61.5376 21.1779 61.3302 21.2439 61.1039C21.3099 60.8776 21.3099 60.6325 21.3665 60.4062C21.4231 60.1799 21.4891 59.9536 21.5456 59.7273C21.6022 59.5011 21.7342 59.2936 21.8002 59.0673C21.8662 58.8411 21.8945 58.6054 21.9511 58.3791C22.0076 58.1528 22.1208 57.9359 22.1773 57.7097C22.2339 57.4834 22.2151 57.2382 22.2716 57.012C22.3282 56.7857 22.4413 56.5688 22.4979 56.3425C22.5545 56.1162 22.6205 55.89 22.677 55.6637C22.7336 55.4374 22.8185 55.2111 22.8656 54.9848C22.9128 54.7586 22.9128 54.5228 22.9599 54.306C23.007 54.0891 23.0165 53.8534 23.0731 53.6271C23.1296 53.4009 23.2522 53.2029 23.2993 52.9766C23.3465 52.7503 23.3842 52.5334 23.4408 52.3072C23.4973 52.0809 23.4973 51.8546 23.5445 51.6283C23.5916 51.402 23.7048 51.1946 23.7519 50.9778C23.799 50.7609 23.8933 50.544 23.931 50.3178C23.9687 50.0915 23.9499 49.8558 23.997 49.6295C24.0442 49.4032 24.1762 49.1958 24.2233 48.9789C24.2705 48.7621 24.2705 48.5264 24.3082 48.3001C24.3459 48.0738 24.327 47.8381 24.3647 47.6118C24.4025 47.3855 24.4779 47.1687 24.5062 46.9424C24.5344 46.7161 24.5345 46.4898 24.5722 46.2635C24.6099 46.0373 24.7042 45.8204 24.7325 45.5941C24.7607 45.3678 24.8267 45.1415 24.855 44.9153C24.8833 44.689 24.7796 44.4533 24.7984 44.2176C24.8173 43.9818 24.921 43.7744 24.9399 43.5481C24.9587 43.3219 24.8645 43.0862 24.8833 42.8599C24.9022 42.6336 24.9116 42.4073 24.921 42.181C24.9304 41.9359 24.9493 41.7002 24.9587 41.455C24.9682 41.2099 24.9682 40.9742 24.9682 40.729C24.9682 40.4839 25.1002 40.2388 25.1002 40.0031C25.1002 39.7673 24.9776 39.5222 24.9682 39.2771C24.9587 39.0319 24.9399 38.7962 24.921 38.5511C24.9022 38.2211 24.921 37.9194 25.0247 37.6931C25.1284 37.4668 25.3642 37.2499 25.6187 37.0614C25.8356 36.9011 26.1184 36.8351 26.3164 36.656C26.5144 36.4768 26.6464 36.2222 26.8444 36.0431C27.033 35.864 27.1933 35.6565 27.2593 35.4208C27.3064 35.2417 27.2876 34.9494 27.1556 34.808C27.0707 34.7231 26.769 34.8174 26.6087 34.8834C26.439 34.9494 26.3353 35.1191 26.2127 35.2605C26.043 35.4302 25.7979 35.5151 25.6187 35.6754C25.4396 35.8357 25.2604 35.9771 25.0719 36.128C24.8833 36.2788 24.723 36.4485 24.5344 36.59C24.3459 36.7314 24.129 36.8351 23.931 36.9671C23.733 37.0991 23.5916 37.3159 23.3842 37.4385C23.1768 37.5611 22.9693 37.6742 22.7619 37.7874C22.5545 37.9005 22.3471 38.0231 22.1396 38.1268C21.9322 38.2305 21.6871 38.2682 21.4702 38.3719C21.2534 38.4756 21.0176 38.5228 20.8008 38.6265C20.5839 38.7208 20.4048 38.9188 20.1879 39.0131C19.9711 39.1074 19.7542 39.2205 19.5374 39.3148C19.3205 39.4091 19.066 39.4185 18.8491 39.5128C18.6322 39.6071 18.406 39.673 18.1797 39.7579C17.9534 39.8428 17.7365 39.9276 17.5103 39.9936C17.284 40.0596 17.0766 40.2105 16.8503 40.2765C16.624 40.3425 16.3694 40.3236 16.1431 40.3708C15.9169 40.4179 15.6906 40.5028 15.4549 40.5405C15.3417 40.5593 15.2286 40.5593 15.1154 40.5782C14.8326 40.6253 14.5969 40.7668 14.3989 40.7762C14.0689 40.795 13.8332 40.6913 13.6823 40.5688C13.5315 40.4462 13.4278 40.2293 13.39 39.8993C13.3712 39.7013 13.4372 39.4562 13.4372 39.1639C13.4372 38.9282 13.3146 38.7019 13.3146 38.4662C13.3146 38.2305 13.4089 38.0042 13.4089 37.7685C13.4089 37.5328 13.3429 37.3065 13.3429 37.0708C13.3429 36.8351 13.3335 36.6088 13.324 36.3731C13.3146 36.1374 13.4372 35.9111 13.4277 35.6754C13.4183 35.4397 13.3806 35.2134 13.3618 34.9777C13.3429 34.742 13.258 34.5251 13.2392 34.2894C13.2203 34.0537 13.3146 33.818 13.2863 33.5823C13.258 33.3466 13.2015 33.1203 13.1543 32.894C13.1072 32.6677 12.9469 32.4603 12.8998 32.234C12.862 32.0643 12.9658 31.8475 12.994 31.4232H12.9846Z" fill="#FFD400"/>
<path d="M26.6272 27.8966C26.7215 27.6986 26.8347 27.4818 26.9195 27.2838C27.0044 27.0858 27.1458 26.8972 27.2212 26.6992C27.2967 26.5012 27.3721 26.2844 27.4381 26.0769C27.5041 25.8695 27.4098 25.6149 27.457 25.4075C27.5041 25.2001 27.7021 25.021 27.7492 24.8041C27.7964 24.5872 27.7304 24.361 27.7587 24.1441C27.787 23.9273 27.7869 23.7104 27.8058 23.4936C27.8247 23.2767 27.9001 23.0693 27.9095 22.8524C27.9189 22.6356 27.9661 22.4187 27.9661 22.2019C27.9661 21.9756 27.9944 21.7399 27.9849 21.5136C27.9755 21.2873 27.8529 21.061 27.8341 20.8347C27.8152 20.6085 27.8812 20.3727 27.8435 20.1465C27.8058 19.9202 27.7587 19.6939 27.721 19.477C27.6832 19.2602 27.5324 19.0528 27.4852 18.8265C27.4381 18.6002 27.3627 18.3928 27.3061 18.1665C27.2495 17.9402 27.2967 17.6951 27.2212 17.4782C27.1458 17.2613 27.0892 17.0445 27.0232 16.8277C26.9572 16.6108 26.8913 16.3939 26.8158 16.1771C26.7404 15.9602 26.6178 15.7622 26.533 15.5454C26.4575 15.338 26.2878 15.1682 26.2124 14.9608C26.137 14.7534 26.2124 14.4988 26.137 14.2914C26.0616 14.084 25.9201 13.9048 25.8447 13.688C25.7693 13.4711 25.6844 13.2731 25.6184 13.0657C25.5524 12.8583 25.4581 12.6508 25.3921 12.4434C25.3261 12.236 25.3261 12.0003 25.2601 11.7929C25.1941 11.5854 25.0527 11.3969 24.9867 11.1894C24.9207 10.982 24.9678 10.7369 24.9018 10.52C24.8358 10.3032 24.7038 10.124 24.6378 9.90717C24.5718 9.69031 24.4964 9.49232 24.4304 9.27546C24.3644 9.06804 24.2984 8.85119 24.2701 8.64376C24.2419 8.42691 24.355 8.21006 24.3739 8.00263C24.3927 7.79521 24.421 7.58778 24.4776 7.38035C24.5341 7.17293 24.5247 6.94665 24.619 6.74865C24.7133 6.55065 24.9207 6.43751 25.0433 6.25837C25.1753 6.06037 25.279 5.85294 25.4204 5.66437C25.5618 5.4758 25.6561 5.24953 25.807 5.07039C25.9578 4.89125 26.1275 4.72153 26.2878 4.56125C26.4481 4.40096 26.5895 4.18411 26.7592 4.03326C26.929 3.8824 27.1741 3.79755 27.3532 3.65612C27.5324 3.5147 27.7398 3.39212 27.9284 3.26955C28.1169 3.14698 28.2867 2.95842 28.4941 2.84528C28.7015 2.73214 28.9184 2.64728 29.1352 2.553C29.3521 2.45871 29.5689 2.37386 29.7858 2.289C30.0026 2.20415 30.2383 2.15699 30.4646 2.10042C30.6909 2.04385 30.936 2.07214 31.1623 2.02499C31.3886 1.97785 31.6055 1.91186 31.8412 1.88357C32.0769 1.85529 32.3032 1.81758 32.5389 1.79872C32.7746 1.77986 33.0009 1.71387 33.2366 1.71387C33.4534 1.71387 33.6514 1.83643 33.8683 1.88357C34.0852 1.93071 34.3114 1.88358 34.5189 1.93072C34.7263 1.97786 34.9243 2.10043 35.1317 2.16643C35.3391 2.23243 35.5654 2.22299 35.7728 2.27956C35.9143 2.31728 36.0651 2.39271 36.2065 2.44928C36.4234 2.53414 36.5931 2.73213 36.7911 2.82642C36.9891 2.9207 37.1965 3.02442 37.404 3.12813C37.6114 3.23185 37.8094 3.32613 38.0074 3.4487C38.2054 3.57127 38.4128 3.65612 38.6014 3.78812C38.7899 3.92012 39.0162 4.00497 39.1954 4.13697C39.3745 4.26897 39.4876 4.50468 39.6574 4.65554C39.8271 4.80639 40.0722 4.88182 40.2325 5.0421C40.3928 5.20239 40.4871 5.42867 40.6379 5.59838C40.7888 5.76809 40.9491 5.92837 41.0905 6.10751C41.2319 6.28665 41.3073 6.51294 41.4393 6.69208C41.5713 6.87122 41.7505 7.0315 41.873 7.2295C41.9956 7.42749 42.1559 7.59721 42.269 7.79521C42.3822 7.9932 42.3727 8.2572 42.4765 8.45519C42.5802 8.65319 42.8065 8.80404 42.9007 9.01147C42.995 9.21889 43.0705 9.43576 43.1647 9.65261C43.259 9.86946 43.2402 10.1146 43.325 10.3315C43.4099 10.5483 43.4947 10.7652 43.5702 10.9914C43.6456 11.2177 43.7304 11.4346 43.8059 11.6609C43.8813 11.8871 44.0039 12.0946 44.0699 12.3209C44.1359 12.5471 44.1641 12.7829 44.2207 13.0091C44.2773 13.2354 44.4093 13.4523 44.4564 13.6785C44.5036 13.9048 44.5224 14.15 44.5696 14.3763C44.6167 14.6025 44.6261 14.8477 44.6639 15.074C44.7016 15.3002 44.777 15.536 44.8147 15.7622C44.8524 15.9885 44.8053 16.2431 44.8336 16.4694C44.8618 16.6957 44.9939 16.9219 45.0221 17.1576C45.041 17.3651 45.0033 17.5819 45.041 17.7893C45.0787 17.9968 45.1259 18.1948 45.1541 18.4022C45.1824 18.6096 45.2296 18.8076 45.2767 19.015C45.3238 19.2225 45.3899 19.4205 45.437 19.6185C45.4841 19.8165 45.4936 20.0333 45.5313 20.2407C45.569 20.4482 45.6256 20.6462 45.6727 20.8536C45.7198 21.0893 45.6916 21.3156 45.6727 21.5324C45.6539 21.7493 45.5878 21.9284 45.4276 22.1359C45.2956 22.315 45.2107 22.5319 45.0787 22.7016C44.9467 22.8713 44.7581 23.0127 44.6262 23.1918C44.4942 23.371 44.3433 23.5313 44.2113 23.7104C44.0793 23.8895 44.051 24.1441 43.919 24.3233C43.787 24.5024 43.5796 24.625 43.4476 24.8041C43.3156 24.9832 43.2119 25.1812 43.0799 25.3604C42.9479 25.5489 42.7782 25.7092 42.6367 25.8884C42.4953 26.0675 42.3633 26.2655 42.2125 26.4258C42.0616 26.5861 41.9296 26.7935 41.7693 26.9538C41.609 27.1141 41.411 27.2461 41.2413 27.3969C41.0716 27.5478 40.8925 27.7081 40.7133 27.8401C40.5342 27.9721 40.2702 28.0004 40.0722 28.1135C39.8742 28.2266 39.6951 28.3681 39.4876 28.4623C39.2802 28.5566 39.0634 28.6226 38.8465 28.7075C38.6297 28.7923 38.4411 28.9149 38.2242 28.9809C38.0074 29.0469 37.8 29.16 37.5831 29.2166C37.3663 29.2732 37.1211 29.2355 36.8948 29.2732C36.6685 29.3109 36.4611 29.3958 36.2254 29.4335C35.9897 29.4712 35.7634 29.4146 35.5371 29.4335C35.3109 29.4523 35.094 29.5937 34.8677 29.6032C34.6414 29.6126 34.4151 29.6032 34.1794 29.6032C33.9437 29.6032 33.7269 29.5655 33.4912 29.556C33.2554 29.556 33.0292 29.4995 32.7935 29.49C32.5577 29.4806 32.3315 29.4335 32.0957 29.4146C31.86 29.3958 31.6338 29.3769 31.4075 29.3486C31.1812 29.3203 30.936 29.3675 30.7098 29.3298C30.4835 29.292 30.2666 29.1789 30.0404 29.1223C29.8141 29.0658 29.5878 29.0469 29.3615 28.9809C29.1352 28.9149 28.8807 28.9809 28.6544 28.896C28.4281 28.8112 28.2301 28.6886 28.0132 28.6038C27.7775 28.5095 27.5795 28.3398 27.3344 28.2172C27.1175 28.1041 26.8535 28.0192 26.6084 27.8966H26.6272Z" fill="#0096D8"/>
<path d="M50.632 64.0269C50.6792 64.2437 50.7169 64.404 50.764 64.6114C50.8112 64.8188 50.9337 65.0357 50.9809 65.2431C51.028 65.4506 51.0374 65.6863 51.0752 65.9031C51.1129 66.12 51.1883 66.3274 51.226 66.5443C51.2637 66.7611 51.2637 66.9874 51.3014 67.1948C51.3391 67.4022 51.3014 67.6474 51.3392 67.8642C51.3769 68.0811 51.5277 68.2697 51.5749 68.4865C51.622 68.7034 51.6503 68.9202 51.6974 69.1277C51.7446 69.3351 51.7446 69.5613 51.7917 69.7782C51.8389 69.9951 51.8389 70.2119 51.8766 70.4288C51.9237 70.6456 52.1217 70.8248 52.1689 71.0416C52.216 71.2585 52.2349 71.4753 52.2914 71.6922C52.348 71.909 52.414 72.1165 52.4611 72.3333C52.5083 72.5502 52.4611 72.7859 52.5083 73.0027C52.5554 73.2196 52.6969 73.4176 52.744 73.625C52.7911 73.8324 52.81 74.0681 52.8571 74.2756C52.9043 74.483 52.8854 74.7187 52.9326 74.9356C52.9797 75.1524 53.1306 75.341 53.1777 75.5578C53.2248 75.7747 53.2814 75.9916 53.3286 76.2084C53.3757 76.4253 53.3757 76.6516 53.4228 76.8684C53.47 77.0853 53.4511 77.3115 53.5077 77.5284C53.5643 77.7452 53.6774 77.9432 53.7246 78.1601C53.7717 78.377 53.7245 78.6127 53.7623 78.8295C53.8 79.0464 53.9508 79.2349 54.0074 79.4518C54.064 79.6686 54.1583 79.8761 54.2054 80.0835C54.2525 80.2909 54.2714 80.5172 54.3185 80.734C54.3657 80.9509 54.3468 81.1772 54.4034 81.394C54.4505 81.6109 54.5354 81.8278 54.5825 82.0446C54.6297 82.2615 54.724 82.4689 54.7805 82.6952C54.8371 82.9215 54.7994 83.1477 54.856 83.374C54.9125 83.6003 54.922 83.8172 54.9691 84.0434C55.0162 84.2697 55.2142 84.4489 55.2614 84.6657C55.3085 84.8826 55.2614 85.1277 55.3085 85.3446C55.3557 85.5614 55.4311 85.7783 55.4782 85.9951C55.5254 86.212 55.6102 86.4288 55.6668 86.6457C55.7234 86.8625 55.7517 87.0888 55.7988 87.3057C55.8459 87.5225 55.9025 87.7394 55.9591 87.9657C56.0157 88.192 56.1005 88.39 56.1571 88.6162C56.2137 88.8425 56.2608 89.0594 56.3079 89.2762C56.3551 89.4931 56.3645 89.7288 56.4117 89.9456C56.4682 90.2002 56.5248 90.3888 56.5342 90.5396C56.5342 90.7754 56.4777 90.9074 56.2797 91.0394C56.1571 91.1242 55.9591 91.1619 55.714 91.2562C55.4971 91.3316 55.2991 91.4919 55.0728 91.5673C54.8465 91.6428 54.6203 91.6993 54.394 91.7748C54.1677 91.8502 53.9508 91.9539 53.7246 92.0199C53.4983 92.0859 53.2437 92.067 53.0174 92.133C52.7911 92.199 52.5837 92.3216 52.348 92.3782C52.1406 92.4253 51.9049 92.3782 51.6974 92.4253C51.49 92.4725 51.3014 92.6045 51.0846 92.661C50.8677 92.7176 50.6509 92.6893 50.4435 92.7365C50.236 92.7836 50.0475 92.9439 49.84 92.991C49.6326 93.0382 49.4063 92.991 49.1895 93.0382C48.9726 93.0853 48.784 93.189 48.5672 93.2362C48.3503 93.2833 48.1335 93.2644 47.9261 93.3116C47.7186 93.3587 47.5112 93.4436 47.3038 93.4813C47.0964 93.519 46.8606 93.4624 46.6532 93.5002C46.3421 93.5567 46.1064 93.6416 45.9272 93.6322C45.6349 93.6133 45.4087 93.5002 45.2955 93.2456C45.2201 93.0759 45.2767 92.8025 45.2201 92.5007C45.173 92.2745 45.041 92.0576 45.0032 91.8313C44.9655 91.6051 44.8807 91.3788 44.843 91.143C44.8052 90.9073 44.8995 90.6528 44.8524 90.4265C44.8052 90.2002 44.7298 89.9739 44.6827 89.7382C44.6355 89.5025 44.5507 89.2857 44.5035 89.0594C44.4564 88.8331 44.447 88.5974 44.3998 88.3616C44.3527 88.1259 44.3055 87.8997 44.2678 87.6734C44.2301 87.4471 44.2584 87.202 44.2207 86.9663C44.183 86.7305 44.0887 86.5137 44.051 86.278C44.0133 86.0423 43.9567 85.816 43.919 85.5897C43.8813 85.3634 43.8435 85.1277 43.8058 84.892C43.7681 84.6563 43.6927 84.43 43.6644 84.2037C43.6267 83.9774 43.7398 83.7323 43.7021 83.5154C43.6644 83.2986 43.6173 83.0723 43.589 82.846C43.5607 82.6198 43.523 82.4029 43.4853 82.1766C43.4476 81.9503 43.4193 81.7335 43.391 81.5072C43.3627 81.2809 43.2873 81.0641 43.2496 80.8378C43.2118 80.6115 43.2401 80.3852 43.2118 80.1589C43.1836 79.9326 43.0798 79.7158 43.0516 79.4989C43.0233 79.2821 42.929 79.0558 42.8913 78.8389C42.8536 78.6221 42.9478 78.3769 42.9196 78.1507C42.8913 77.9244 42.8819 77.6981 42.8441 77.4718C42.8064 77.2455 42.6556 77.0381 42.6273 76.8212C42.599 76.6044 42.6556 76.3593 42.6273 76.133C42.599 75.9067 42.5424 75.6898 42.5047 75.4635C42.467 75.2373 42.4576 75.011 42.4198 74.7941C42.3821 74.5773 42.4198 74.3416 42.3916 74.1153C42.3633 73.889 42.2879 73.6721 42.2596 73.4459C42.2313 73.2196 42.1276 73.0027 42.0993 72.7859C42.071 72.569 42.0616 72.3333 42.0239 72.107C41.9861 71.8807 41.9767 71.6545 41.939 71.4376C41.9013 71.2208 41.939 70.9851 41.9013 70.7588C41.8636 70.5325 41.8259 70.3156 41.7976 70.0893C41.7693 69.8536 41.7881 69.6085 41.7599 69.3634C41.7316 69.1182 41.5996 68.8919 41.5807 68.6562C41.5619 68.4205 41.5619 68.1754 41.543 67.9302C41.5242 67.6851 41.4676 67.4494 41.4487 67.2137C41.4299 66.978 41.477 66.7328 41.4676 66.4877C41.4582 66.2425 41.411 66.0068 41.3922 65.7711C41.3827 65.5731 41.4959 65.3186 41.6279 65.0451C41.7316 64.8283 41.807 64.5643 41.9673 64.3569C42.1276 64.1494 42.3067 63.942 42.4764 63.7817C42.7027 63.5743 42.9667 63.4706 43.1553 63.4329C43.3438 63.3952 43.5984 63.48 43.7587 63.6026C43.9661 63.7629 44.183 63.9232 44.381 64.1023C44.579 64.2814 44.7298 64.5077 44.9278 64.6869C45.1258 64.866 45.3427 65.0263 45.5501 65.196C45.7481 65.3563 45.965 65.4411 46.1441 65.5637C46.3515 65.7051 46.5307 65.8654 46.7287 65.9503C46.9644 66.054 47.1812 66.1388 47.3981 66.1671C47.6338 66.1954 47.8884 66.2331 48.1146 66.1671C48.3221 66.1106 48.5483 65.988 48.7558 65.8465C48.9349 65.7334 49.0481 65.4977 49.2366 65.3186C49.3969 65.1677 49.5478 64.998 49.708 64.8094C49.84 64.6586 50.0852 64.6114 50.2455 64.4417C50.3775 64.3097 50.4623 64.1683 50.6226 63.9986L50.632 64.0269Z" fill="#007257"/>
<path d="M22.7144 66.5253C22.9124 66.6385 23.1104 66.6573 23.2518 66.7422C23.4404 66.8553 23.5535 67.0345 23.7138 67.1193C23.9212 67.2231 24.1381 67.2985 24.3361 67.4022C24.5341 67.5059 24.7698 67.553 24.9772 67.6473C25.1846 67.7416 25.3826 67.8548 25.5901 67.9396C25.8163 68.0339 26.0049 68.2225 26.2218 68.279C26.4575 68.3356 26.7026 68.2602 26.9289 68.2696C27.1646 68.2696 27.3909 68.2507 27.6172 68.2036C27.8435 68.1565 28.1074 68.213 28.3243 68.1093C28.5317 68.015 28.692 67.817 28.89 67.6662C29.0692 67.5342 29.2483 67.3833 29.418 67.2042C29.5877 67.0345 29.7763 66.8742 29.946 66.7045C30.1157 66.5348 30.2854 66.3651 30.4551 66.1954C30.6248 66.0256 30.8134 65.8748 30.9831 65.7051C31.1151 65.5825 31.2471 65.4599 31.4074 65.3279C31.5394 65.2242 31.7185 65.0545 31.8883 64.9131C31.926 65.3468 31.926 65.6202 31.8977 65.8654C31.8694 66.1011 31.8694 66.3368 31.8505 66.5725C31.8317 66.8082 31.7751 67.0345 31.7563 67.2702C31.7374 67.5059 31.7563 67.7416 31.728 67.9773C31.6997 68.213 31.6243 68.4393 31.596 68.675C31.5677 68.9107 31.5583 69.1464 31.5394 69.3822C31.5205 69.6179 31.464 69.8442 31.4451 70.0799C31.4263 70.3156 31.4357 70.5513 31.4074 70.787C31.3791 71.0227 31.2754 71.249 31.2471 71.4753C31.2188 71.7016 31.266 71.9467 31.2471 72.1824C31.2283 72.4181 31.1528 72.6444 31.1245 72.8801C31.0963 73.1158 31.0585 73.3421 31.0303 73.5778C31.002 73.8041 31.002 74.021 30.9737 74.2472C30.9454 74.4735 30.87 74.6809 30.8417 74.9072C30.8134 75.1335 30.804 75.3504 30.7757 75.5766C30.7474 75.8029 30.7286 76.0198 30.7003 76.2461C30.672 76.4724 30.672 76.6986 30.6437 76.9155C30.6154 77.1323 30.606 77.3586 30.5683 77.5849C30.5306 77.8112 30.4551 78.0186 30.4268 78.2449C30.3986 78.4712 30.3137 78.6786 30.2854 78.9049C30.2571 79.1312 30.2854 79.3575 30.2571 79.5743C30.2288 79.7912 30.1817 80.0174 30.1534 80.2343C30.1251 80.4511 30.1157 80.6774 30.078 80.9037C30.0403 81.13 29.9931 81.3468 29.9554 81.5637C29.9177 81.7806 29.88 82.0068 29.8517 82.2237C29.8234 82.4406 29.8989 82.6857 29.8706 82.9025C29.8423 83.1194 29.7951 83.3457 29.7669 83.5625C29.7386 83.7794 29.682 84.0057 29.6537 84.2225C29.6254 84.4394 29.5783 84.6657 29.55 84.8825C29.5217 85.0994 29.484 85.3257 29.4651 85.5519C29.4369 85.7782 29.3897 86.0045 29.3709 86.2308C29.352 86.4571 29.3709 86.6928 29.3426 86.919C29.3143 87.1453 29.2389 87.3716 29.22 87.5979C29.2011 87.8242 29.22 88.0599 29.2106 88.2862C29.2011 88.5125 29.1257 88.7387 29.1069 88.965C29.088 89.1913 29.1446 89.427 29.1257 89.6533C29.1069 89.8796 29.022 90.1059 29.0032 90.3322C28.9843 90.5584 29.022 90.7941 29.0032 91.0204C28.9843 91.2467 28.9654 91.473 28.956 91.6993C28.9371 92.0104 28.9749 92.2461 28.9466 92.4253C28.89 92.7176 28.7486 92.8024 28.4563 92.859C28.2866 92.8967 28.0697 92.9438 27.7492 92.9627C27.5135 92.9721 27.2777 92.925 27.042 92.9438C26.8063 92.9627 26.58 92.9721 26.3443 92.991C26.1086 93.0098 25.8823 93.123 25.6561 93.1324C25.4298 93.1418 25.1846 93.0475 24.9489 93.057C24.7132 93.0664 24.4869 93.1136 24.2512 93.1324C24.0155 93.1513 23.7892 93.2738 23.5535 93.2738C23.3178 93.2738 23.0821 93.2833 22.8558 93.2927C22.6107 93.2927 22.3655 93.2455 22.1204 93.2361C21.8752 93.2267 21.6395 93.189 21.3944 93.1701C21.1493 93.1512 20.9136 93.0853 20.6684 93.057C20.4233 93.0287 20.1876 93.0098 19.9424 92.991C19.6973 92.9721 19.4616 92.9438 19.2164 92.9155C18.9713 92.8967 18.7922 92.8872 18.6507 92.8401C18.4244 92.7647 18.2642 92.6798 18.2642 92.4536C18.2642 92.3121 18.2924 92.1141 18.349 91.869C18.3962 91.6521 18.415 91.4353 18.4622 91.2184C18.5093 91.0016 18.5847 90.7941 18.6413 90.5773C18.6979 90.3604 18.7167 90.1436 18.7639 89.9267C18.811 89.7099 18.8959 89.5025 18.9524 89.295C19.009 89.0876 19.0184 88.8613 19.075 88.6445C19.1316 88.4276 19.1881 88.2202 19.2353 88.0033C19.2824 87.7865 19.3296 87.5696 19.3767 87.3528C19.4239 87.1359 19.5181 86.9285 19.5653 86.7211C19.6124 86.5136 19.6313 86.2873 19.6784 86.0705C19.7256 85.8536 19.8764 85.6556 19.9141 85.4482C19.9613 85.2314 19.9141 84.9862 19.9613 84.7694C20.0084 84.5525 20.0084 84.3168 20.0556 84.1C20.1027 83.8831 20.131 83.6568 20.1687 83.4305C20.2064 83.2043 20.2724 82.9874 20.3101 82.7705C20.3478 82.5537 20.4516 82.3368 20.4893 82.12C20.527 81.9031 20.593 81.6769 20.6307 81.46C20.6684 81.2431 20.7533 81.0263 20.791 80.8C20.8287 80.5737 20.8193 80.3474 20.857 80.1306C20.8947 79.9137 20.857 79.678 20.9041 79.4517C20.9513 79.2255 21.0927 79.0275 21.1304 78.8106C21.1681 78.5938 21.1493 78.358 21.187 78.1318C21.2247 77.9055 21.2153 77.6792 21.253 77.4623C21.2907 77.236 21.2907 76.9909 21.3284 76.7646C21.3661 76.5383 21.5641 76.3309 21.6018 76.1046C21.6395 75.8783 21.6207 75.6332 21.6584 75.4069C21.6961 75.1806 21.7244 74.9449 21.7621 74.7092C21.7998 74.4735 21.8093 74.2472 21.847 74.0115C21.8847 73.7758 21.9318 73.5495 21.9601 73.3233C21.9884 73.097 22.0638 72.8612 22.0921 72.635C22.1204 72.4087 22.177 72.1824 22.2052 71.9561C22.2335 71.7298 22.2052 71.4941 22.2241 71.2678C22.243 71.0416 22.2335 70.8153 22.2524 70.5796C22.2712 70.3439 22.2713 70.127 22.2901 69.8913C22.309 69.6556 22.4032 69.4387 22.4221 69.2125C22.441 68.9862 22.4221 68.7599 22.4504 68.5242C22.4787 68.2885 22.4787 68.0716 22.4975 67.8453C22.5164 67.6285 22.507 67.4116 22.5447 67.1665C22.573 66.9685 22.6578 66.7705 22.6955 66.5253H22.7144Z" fill="#007257"/>
<g opacity="0.55">
<path d="M18.1891 4.97612C18.274 5.21183 18.3023 5.41926 18.3871 5.63611C18.472 5.86239 18.67 6.04153 18.7454 6.26781C18.8208 6.48467 18.8868 6.71096 18.9622 6.92782C19.0377 7.14467 19.132 7.36151 19.2074 7.57837C19.2828 7.79522 19.3582 8.01209 19.4431 8.23837C19.5279 8.46465 19.6034 8.67208 19.6882 8.88893C19.7731 9.10579 19.7542 9.36035 19.8297 9.57721C19.9051 9.79406 20.0654 9.98263 20.1502 10.1995C20.2351 10.4163 20.3105 10.6332 20.3859 10.85C20.4614 11.0669 20.5934 11.2649 20.6688 11.4912C20.7442 11.7175 20.6971 11.972 20.7725 12.1889C20.8856 12.5 21.0931 12.8583 21.0271 13.1694C20.9799 13.3863 20.8856 13.5937 20.8479 13.82C20.8102 14.0463 20.8291 14.2631 20.8102 14.4894C20.7914 14.7157 20.7913 14.9326 20.7913 15.1588C20.7913 15.3851 20.7913 15.602 20.7913 15.8188C20.7913 16.0357 20.7914 16.262 20.8291 16.4883C20.8668 16.7145 20.9234 16.922 20.9799 17.1388C21.0365 17.3557 21.0176 17.5914 21.0836 17.7988C21.1214 17.9308 21.1402 18.1194 21.1213 18.3645C20.9234 18.2702 20.6971 18.1288 20.5274 18.0157C20.3388 17.8931 20.1408 17.8082 19.9899 17.6668C19.8391 17.5254 19.7354 17.318 19.6128 17.1482C19.4902 16.9785 19.4525 16.7711 19.3677 16.5637C19.2828 16.3468 19.1602 16.1488 19.066 15.932C18.9717 15.7151 18.802 15.536 18.7171 15.3191C18.6322 15.1023 18.604 14.8666 18.5191 14.6497C18.4343 14.4328 18.2834 14.2443 18.1985 14.0274C18.1137 13.8106 18.1514 13.5466 18.0665 13.3297C17.9817 13.1129 17.8214 12.9243 17.7365 12.7074C17.6517 12.4906 17.5668 12.2737 17.482 12.0569C17.3971 11.84 17.35 11.6137 17.2651 11.3969C17.1991 11.2366 17.1048 11.0103 17.02 10.7463C16.9445 10.5389 16.9163 10.2938 16.8314 10.0769C16.7466 9.86006 16.6617 9.63377 16.5674 9.42635C16.4543 9.20007 16.228 9.04922 16.1054 8.88893C15.9357 8.66265 15.7849 8.44579 15.5963 8.43636C15.4643 8.43636 15.238 8.41751 14.9834 8.41751C14.7949 8.41751 14.578 8.41751 14.3612 8.41751C14.1443 8.41751 13.9275 8.44579 13.7389 8.46464C13.4843 8.49293 13.2863 8.60608 13.1543 8.65322C12.9375 8.72865 12.7018 8.73807 12.4755 8.79464C12.2492 8.85121 12.0418 8.94549 11.8155 8.99263C11.5892 9.03977 11.3629 9.03978 11.1366 9.08692C10.9104 9.13407 10.6746 9.09636 10.4484 9.15293C10.2221 9.2095 10.0429 9.3792 9.82609 9.46406C9.63752 9.53948 9.45838 9.64321 9.26981 9.72806C9.08124 9.81292 8.89266 9.87891 8.71352 9.98262C8.53438 10.0863 8.36468 10.19 8.20439 10.322C8.04411 10.454 7.90268 10.5955 7.76125 10.7463C7.61983 10.8972 7.45012 11.0198 7.33698 11.1989C7.22384 11.3686 7.14841 11.6232 7.15784 11.9155C7.16726 12.1323 7.26155 12.3774 7.31812 12.6226C7.37469 12.8489 7.51612 13.0563 7.60097 13.292C7.68583 13.5277 7.78954 13.7351 7.88383 13.952C7.98754 14.1877 8.03467 14.4329 8.13839 14.6308C8.27038 14.8854 8.44954 15.0646 8.56268 15.206C8.69468 15.3757 8.78896 15.5737 8.9021 15.7434C9.01524 15.9131 9.1378 16.1017 9.24151 16.2903C9.34522 16.4788 9.44894 16.6674 9.52437 16.8654C9.60922 17.0917 9.61866 17.3462 9.69409 17.5725C9.76952 17.7988 9.83551 18.0345 9.91094 18.2608C9.98637 18.4871 10.1278 18.6945 10.2032 18.9302C10.2786 19.1659 10.3446 19.3922 10.4201 19.6185C10.4955 19.8448 10.5898 20.0711 10.6558 20.2973C10.7218 20.5236 10.7218 20.7782 10.7972 21.0139C10.8915 21.3062 10.9858 21.589 11.1178 21.8719C11.2403 22.1265 11.2969 22.3622 11.4195 22.5036C11.5798 22.6922 11.7778 22.8242 12.0323 22.8524C12.2115 22.8713 12.4378 22.7676 12.7206 22.7393C12.8903 22.7204 13.06 22.645 13.2392 22.6167C13.4089 22.5885 13.6069 22.579 13.786 22.5413C13.8992 22.7016 14.05 22.8524 14.1349 23.0127C14.2292 23.173 14.2952 23.3804 14.3894 23.5973C14.2669 23.701 14.1066 23.7859 13.9935 23.8047C13.7766 23.8424 13.5692 23.965 13.3523 24.0121C13.1355 24.0593 12.9186 24.1159 12.7018 24.1536C12.4849 24.1913 12.2492 24.1536 12.0323 24.1913C11.8155 24.229 11.6175 24.361 11.3912 24.4081C11.1649 24.4553 10.9481 24.4553 10.7312 24.493C10.5144 24.5307 10.2975 24.625 10.0807 24.6533C9.8638 24.6816 9.62809 24.5873 9.40181 24.6156C9.15667 24.6438 8.96809 24.7947 8.81724 24.7664C8.60981 24.7287 8.53438 24.5401 8.42124 24.3516C8.34582 24.2196 8.2704 24.0593 8.19497 23.833C8.12897 23.6256 8.10067 23.3993 8.03467 23.1919C7.96867 22.9844 7.86496 22.7864 7.79896 22.5696C7.73296 22.3527 7.63869 22.1642 7.57269 21.9473C7.50669 21.7305 7.45955 21.523 7.39355 21.3156C7.32755 21.1082 7.20497 20.9102 7.13897 20.7028C7.07298 20.4953 7.1107 20.2502 7.0447 20.0428C6.9787 19.8353 6.87499 19.6374 6.80899 19.4205C6.74299 19.2036 6.71469 18.9868 6.64869 18.7794C6.58269 18.5719 6.49785 18.3645 6.44128 18.1571C6.38471 17.9497 6.19614 17.7705 6.13014 17.5631C6.06414 17.3557 5.98871 17.1482 5.92271 16.9314C5.85671 16.7145 5.85671 16.4883 5.79071 16.2808C5.72472 16.0734 5.71528 15.8471 5.64928 15.6303C5.58328 15.4134 5.41358 15.2437 5.34758 15.0363C5.28158 14.8194 5.30986 14.5837 5.24386 14.3669C5.17786 14.15 4.9893 13.9803 4.9233 13.7634C4.8573 13.5466 4.7913 13.3392 4.7253 13.1317C4.6593 12.9243 4.60272 12.7074 4.52729 12.4906C4.45187 12.2737 4.43301 12.0569 4.36701 11.84C4.30101 11.6232 4.21616 11.4252 4.15016 11.2083C4.08416 10.9915 4.02759 10.784 3.9616 10.5672C3.85788 10.2466 3.74474 10.0109 3.73531 9.83178C3.71645 9.54892 3.88617 9.39806 4.18788 9.2472C4.3576 9.16235 4.61215 9.13406 4.91386 9.03978C5.12129 8.97378 5.30043 8.8135 5.51728 8.7475C5.73414 8.6815 5.93214 8.60607 6.13956 8.54007C6.34699 8.47407 6.60156 8.54007 6.80899 8.4835C7.01641 8.42693 7.19554 8.23837 7.40297 8.1818C7.6104 8.12523 7.8461 8.14409 8.06296 8.07809C8.27981 8.01209 8.46839 7.89894 8.67581 7.83294C8.88324 7.76694 9.11895 7.77638 9.32638 7.71038C9.5338 7.64438 9.70351 7.44638 9.91094 7.38038C10.1184 7.31438 10.3352 7.26723 10.5426 7.21066C10.7501 7.15409 11.0046 7.21067 11.2121 7.14467C11.4195 7.07867 11.6175 6.98438 11.8343 6.91838C12.0512 6.85238 12.2209 6.68268 12.4283 6.61668C12.6358 6.55068 12.8715 6.5601 13.0789 6.4941C13.2957 6.4281 13.4937 6.30553 13.7106 6.23011C13.9275 6.15468 14.1349 6.0604 14.3517 5.98497C14.5686 5.90955 14.8232 5.96611 15.04 5.89068C15.2569 5.81525 15.4549 5.69269 15.6717 5.61726C15.8886 5.54184 16.0866 5.4287 16.3034 5.35327C16.5203 5.27784 16.7371 5.22127 16.954 5.14584C17.1708 5.07041 17.3783 4.97613 17.5951 4.91013C17.7365 4.86299 17.8874 4.97613 18.1891 4.93842V4.97612Z" fill="white"/>
</g>
<path d="M7.43104 24.6063C7.12933 24.644 6.80876 24.6346 6.56362 24.6629C6.27134 24.7006 6.01678 24.776 5.76221 24.8326C5.39451 24.908 5.17765 24.908 5.03622 24.8326C4.89479 24.7571 4.81937 24.5686 4.6968 24.2009C4.6308 24.0029 4.52708 23.8143 4.46109 23.6163C4.39509 23.4183 4.31023 23.2297 4.24424 23.0223C4.17824 22.8149 4.24423 22.5886 4.17823 22.3906C4.11223 22.1926 4.06509 21.9852 3.99909 21.7872C3.93309 21.5892 3.79166 21.4101 3.73509 21.2121C3.67852 21.0141 3.59367 20.8161 3.5371 20.6181C3.4711 20.4012 3.39567 20.1938 3.3391 19.9864C3.28253 19.7789 3.30138 19.5338 3.23539 19.3264C3.16939 19.1189 3.07511 18.9115 3.00911 18.7041C2.94311 18.4967 2.96197 18.261 2.9054 18.0441C2.84883 17.8272 2.74511 17.6292 2.67911 17.4218C2.61311 17.2144 2.46225 17.0258 2.40568 16.809C2.34911 16.5921 2.32083 16.3753 2.26426 16.1584C2.20769 15.9416 2.18883 15.7153 2.13226 15.5078C2.07569 15.3004 2.02855 15.0741 1.97198 14.8667C1.91541 14.6593 1.83055 14.4424 1.77397 14.235C1.7174 14.0276 1.54769 13.839 1.4817 13.6316C1.4157 13.4242 1.4817 13.1696 1.4157 12.9622C1.3497 12.7547 1.23656 12.5567 1.17999 12.3399C1.12342 12.123 1.13285 11.8873 1.07628 11.6799C1.01971 11.4725 0.859422 11.2839 0.793423 11.0671C0.727424 10.8502 0.74628 10.6239 0.68971 10.4071C0.633139 10.1902 0.510575 10.0016 0.444575 9.78479C0.388005 9.5868 0.293719 9.38879 0.237149 9.1908C0.180578 8.9928 0.180577 8.77594 0.133435 8.56852C0.0768647 8.30452 0.0579968 8.07824 0.0485684 7.88967C0.03914 7.61624 0.123998 7.43711 0.227711 7.25797C0.331424 7.07882 0.463422 6.95626 0.699133 6.82427C0.868845 6.72998 1.06685 6.64512 1.31199 6.55083C1.52884 6.46598 1.7457 6.37169 1.97198 6.28684C2.19826 6.20198 2.40568 6.1077 2.63197 6.02284C2.85825 5.93799 3.06568 5.82485 3.28253 5.74942C3.49938 5.674 3.71624 5.57028 3.94252 5.49485C4.1688 5.41942 4.37623 5.28742 4.59308 5.212C4.80994 5.13657 5.08336 5.212 5.30022 5.12714C5.51707 5.04229 5.71506 4.90085 5.94134 4.82543C6.16763 4.75 6.41278 4.75001 6.62963 4.67458C6.84648 4.59915 7.07276 4.52372 7.28962 4.44829C7.50647 4.37287 7.70446 4.21258 7.93074 4.14658C8.15703 4.08058 8.36445 3.95801 8.58131 3.88258C8.79816 3.80716 9.04331 3.79774 9.2696 3.73174C9.49588 3.66574 9.71273 3.57146 9.92958 3.49603C10.1464 3.4206 10.401 3.43002 10.6179 3.35459C10.8347 3.27916 11.0421 3.1566 11.2684 3.08117C11.4947 3.00575 11.721 2.94917 11.9378 2.88317C12.1547 2.81717 12.3998 2.77946 12.6167 2.71347C12.8335 2.64747 13.0598 2.58147 13.2861 2.50604C13.5124 2.43061 13.7292 2.34576 13.9461 2.27033C14.1629 2.1949 14.3515 2.03461 14.5684 1.96861C14.7852 1.90261 14.9832 1.78005 15.2001 1.71405C15.4169 1.64805 15.6621 1.66691 15.8789 1.59148C16.0958 1.51605 16.3032 1.43119 16.5201 1.36519C16.7369 1.29919 16.9538 1.22376 17.1706 1.15776C17.3875 1.09177 17.5949 0.969206 17.8118 0.903207C17.9909 0.846637 18.1889 0.82777 18.3775 0.790056C18.566 0.752342 18.7546 0.724056 18.9432 0.686343C19.1317 0.648629 19.3203 0.667488 19.5089 0.629774C19.754 0.592061 19.9237 0.544922 20.0746 0.544922C20.3009 0.544922 20.4894 0.544914 20.6026 0.742911C20.6686 0.865481 20.6497 1.08234 20.7251 1.31805C20.7911 1.52547 20.7817 1.76119 20.8383 1.96861C20.8949 2.17604 21.0174 2.37404 21.074 2.58147C21.1306 2.78889 21.2814 2.97746 21.338 3.19431C21.3946 3.41116 21.3568 3.64687 21.4134 3.8543C21.47 4.06172 21.5643 4.26915 21.6208 4.486C21.6774 4.70286 21.7906 4.89143 21.8471 5.10828C21.9037 5.32514 21.8377 5.57028 21.9037 5.77771C21.9697 5.98513 22.0451 6.19255 22.1205 6.39997C22.196 6.6074 22.2808 6.81483 22.3563 7.01283C22.4317 7.22968 22.5166 7.42768 22.5543 7.62567C22.6014 7.85196 22.5543 8.05939 22.5448 8.26681C22.5448 8.4931 22.6297 8.71938 22.5637 8.9268C22.4977 9.13423 22.3751 9.32279 22.2525 9.51136C22.1488 9.6905 22.0357 9.87908 21.8848 10.0488C21.7528 10.1996 21.5643 10.3316 21.3946 10.4825C21.2343 10.2091 21.0929 9.96392 21.008 9.69993C20.942 9.4925 20.81 9.31337 20.744 9.11537C20.678 8.91737 20.6309 8.70052 20.5649 8.50253C20.4989 8.30453 20.3857 8.11596 20.3197 7.90853C20.2537 7.7011 20.1877 7.50311 20.1311 7.29569C20.0746 7.08826 20.0557 6.87141 19.9897 6.66398C19.9237 6.45656 19.9426 6.23026 19.8766 6.03227C19.8106 5.83427 19.7729 5.61742 19.7163 5.41C19.6597 5.20257 19.5655 5.00458 19.5089 4.80658C19.4335 4.55201 19.3674 4.33515 19.292 4.1843C19.1694 3.96745 18.9715 3.86374 18.7263 3.86374C18.566 3.86374 18.368 3.97687 18.104 4.0523C17.8778 4.1183 17.6515 4.14658 17.4252 4.21258C17.1989 4.27858 16.9726 4.30687 16.7463 4.37287C16.5201 4.43886 16.3032 4.51429 16.0864 4.58029C15.8695 4.64629 15.6526 4.75943 15.4358 4.82543C15.2189 4.89143 14.9549 4.84429 14.7381 4.91029C14.5212 4.97629 14.3232 5.146 14.1064 5.212C13.8895 5.27799 13.635 5.26857 13.4181 5.33457C13.2012 5.40057 12.9844 5.49484 12.7581 5.56084C12.5318 5.62684 12.3338 5.74942 12.1075 5.81542C11.8813 5.88141 11.655 5.9097 11.4287 5.9757C11.2024 6.0417 11.0044 6.16427 10.7781 6.23027C10.5613 6.29627 10.3444 6.36227 10.1181 6.42827C9.89187 6.49427 9.66558 6.51312 9.44872 6.57912C9.23187 6.64512 9.00559 6.7017 8.78874 6.7677C8.57188 6.8337 8.36446 6.93741 8.14761 7.00341C7.93075 7.06941 7.72332 7.17312 7.50647 7.23912C7.28961 7.30512 7.07276 7.37111 6.84648 7.43711C6.6202 7.50311 6.39391 7.53139 6.17705 7.59739C5.9602 7.66339 5.73392 7.70111 5.51707 7.76711C5.30021 7.83311 5.08336 7.90853 4.8665 7.98396C4.64965 8.05939 4.46109 8.20081 4.24424 8.28566C4.02738 8.37052 3.79166 8.37052 3.57481 8.45538C3.31081 8.56852 3.15996 8.72881 3.02796 8.84195C2.83939 9.00223 2.66026 9.12481 2.66969 9.3888C2.66969 9.56794 2.73568 9.79423 2.82053 10.0676C2.88653 10.2845 2.91481 10.5108 2.98081 10.7182C3.04681 10.9256 3.12224 11.1425 3.18824 11.3593C3.25424 11.5762 3.4051 11.7648 3.4711 11.9816C3.5371 12.1985 3.61252 12.4059 3.67852 12.6227C3.74452 12.8396 3.75394 13.0659 3.81994 13.2827C3.88594 13.4996 3.93309 13.7164 3.99909 13.9333C4.06509 14.1502 4.07452 14.3764 4.14052 14.5933C4.20652 14.8101 4.34794 14.9987 4.41394 15.2156C4.47994 15.4324 4.50822 15.6587 4.57422 15.8661C4.64022 16.083 4.6968 16.3093 4.77223 16.5261C4.84765 16.743 5.02679 16.9221 5.09279 17.139C5.15879 17.3558 5.15878 17.601 5.23421 17.8084C5.30964 18.0158 5.37564 18.2421 5.44164 18.459C5.50764 18.6758 5.66793 18.8644 5.74335 19.0812C5.81878 19.2981 5.76221 19.5527 5.82821 19.7695C5.89421 19.9864 6.0545 20.1749 6.12992 20.3918C6.20535 20.6086 6.31848 20.8066 6.38448 21.0235C6.45048 21.2403 6.44106 21.4855 6.50705 21.7023C6.57305 21.9192 6.74277 22.1078 6.80877 22.3246C6.87477 22.5415 6.83706 22.796 6.91249 23.0129C6.99734 23.2675 7.07277 23.522 7.1482 23.7955C7.2142 24.05 7.35561 24.3423 7.43104 24.6157V24.6063Z" fill="#E6E4E1"/>
<path d="M26.4952 94.2163C26.4952 94.3954 26.4764 94.5746 26.4764 94.7349C26.4764 94.914 26.5424 95.0837 26.5141 95.244C26.4764 95.4891 26.3538 95.7249 26.3161 95.9606C26.2784 96.1963 26.3444 96.4697 26.3161 96.7054C26.2878 96.9411 26.1275 97.1768 26.0898 97.422C26.0521 97.6671 26.0898 97.9311 26.0332 98.1668C25.9767 98.4025 25.9201 98.61 25.8541 98.7891C25.7692 99.0154 25.6561 99.1945 25.543 99.3548C25.411 99.5339 25.2884 99.7319 25.0904 99.8356C24.9207 99.9205 24.685 99.8733 24.4398 99.9111C24.2513 99.9393 24.0438 100.062 23.8081 100.071C23.5913 100.081 23.3744 100.071 23.1576 100.071C22.9407 100.071 22.7239 100.005 22.507 100.005C22.2901 100.005 22.0733 99.9865 21.8659 99.9865C21.6584 99.9865 21.4322 100.053 21.2153 100.043C20.9985 100.034 20.7816 100.062 20.5647 100.053C20.3479 100.043 20.1405 99.9205 19.9236 99.9205C19.7256 99.9205 19.5276 99.9205 19.3296 99.9017C19.1316 99.8828 18.9242 99.9488 18.7262 99.9299C18.5282 99.9111 18.3396 99.8262 18.1322 99.7979C17.9248 99.7696 17.7362 99.7885 17.5382 99.7602C17.3119 99.7319 17.0668 99.7979 16.8499 99.7602C16.6331 99.7225 16.3974 99.6565 16.1805 99.5905C15.9542 99.5245 15.7468 99.3831 15.5394 99.2794C15.332 99.1757 15.0774 99.1096 14.8982 98.9682C14.7191 98.8268 14.606 98.5911 14.4645 98.4025C14.3231 98.214 14.2477 98.016 14.1723 97.7803C14.0968 97.5728 13.9648 97.3654 13.9554 97.1203C13.946 96.9034 14.0214 96.6771 14.0591 96.4226C14.0968 96.2057 14.0968 95.9888 14.1534 95.8003C14.2194 95.5929 14.2854 95.3854 14.3891 95.2063C14.4928 95.0271 14.5965 94.8197 14.738 94.6594C14.8794 94.4992 15.1245 94.4614 15.2942 94.3389C15.464 94.2163 15.596 94.0372 15.794 93.9523C15.992 93.8675 16.1805 93.7543 16.3974 93.7166C16.5954 93.6789 16.8216 93.7449 17.0385 93.7449C17.2459 93.7449 17.4534 93.6789 17.6608 93.6977C17.8682 93.7166 18.0662 93.7732 18.2736 93.792C18.481 93.8109 18.6696 93.9146 18.877 93.9429C19.0845 93.9712 19.2919 93.9523 19.4899 93.9712C19.6879 93.99 19.9047 93.9429 20.1027 93.9523C20.3385 93.9523 20.5647 93.9994 20.8005 94.0089C21.0362 94.0183 21.2624 94.0749 21.4981 94.0843C21.7339 94.0937 21.9601 94.0937 22.1959 94.1032C22.4316 94.1126 22.6673 94.0372 22.8936 94.0466C23.1199 94.056 23.3556 94.1409 23.5913 94.1409C23.827 94.1409 24.0627 94.0466 24.289 94.0466C24.5153 94.0466 24.751 94.1597 24.9867 94.1597C25.2224 94.1597 25.4487 94.1597 25.6844 94.1691C25.9012 94.1691 26.1275 94.1503 26.4858 94.1974L26.4952 94.2163Z" fill="#082C4C"/>
<path d="M18.0287 17.2522C18.2173 17.4031 18.387 17.5822 18.5756 17.7237C18.7642 17.8651 18.981 17.9594 19.1602 18.1008C19.3393 18.2422 19.5373 18.3742 19.7164 18.5157C19.8956 18.6571 19.9804 18.9211 20.169 19.0625C20.3481 19.2039 20.5556 19.3076 20.7536 19.3736C20.961 19.4396 21.159 19.5339 21.3287 19.6376C21.5078 19.7508 21.6587 19.9111 21.7907 20.0619C21.9227 20.2128 22.0453 20.3919 22.149 20.5616C22.2527 20.7313 22.2904 20.9482 22.3847 21.1368C22.479 21.3253 22.6487 21.4668 22.7335 21.6553C22.8278 21.8533 22.7807 22.1079 22.8844 22.2965C22.9881 22.485 23.205 22.6076 23.3181 22.7773C23.4312 22.947 23.5727 23.1073 23.7141 23.2676C23.8555 23.4279 23.9592 23.607 24.1195 23.7484C24.2798 23.8899 24.4024 24.069 24.5815 24.1916C24.7229 24.2953 24.7889 24.4461 24.9492 24.6159C24.8172 24.795 24.6946 24.9364 24.5532 25.0967C24.4118 25.257 24.3269 25.4927 24.1666 25.6341C24.0064 25.7756 23.7518 25.8227 23.5821 25.9641C23.4124 26.1055 23.2332 26.2187 23.0541 26.3413C22.875 26.4638 22.7807 26.709 22.5921 26.8315C22.4035 26.9541 22.2244 27.0578 22.0358 27.171C21.8473 27.2841 21.6398 27.3501 21.4513 27.4632C21.2627 27.5764 21.0741 27.6989 20.8761 27.8215C20.7253 27.5952 20.5838 27.3784 20.4424 27.1804C20.2916 26.9635 20.1407 26.7561 20.037 26.5392C19.9333 26.313 19.8861 26.0773 19.7541 25.917C19.6033 25.7473 19.3676 25.6813 19.1602 25.5776C18.9716 25.4833 18.7736 25.4361 18.5284 25.389C18.3022 25.3513 18.1042 25.2004 17.8873 25.1344C17.6705 25.0684 17.4159 25.0778 17.2085 24.9836C17.001 24.8893 16.803 24.7573 16.6145 24.6347C16.4259 24.5121 16.3222 24.2764 16.1525 24.1161C15.9828 23.9559 15.8225 23.8239 15.6716 23.6447C15.5208 23.4656 15.4076 23.2864 15.2851 23.0885C15.1908 22.9376 15.0305 22.815 14.9456 22.5982C14.8891 22.4379 14.8796 22.2493 14.7948 22.0325C15.2474 22.1927 15.4265 22.2682 15.5773 22.3907C15.8131 22.5793 16.0582 22.749 16.3033 22.9187C16.4448 23.013 16.7088 23.1262 16.8785 23.0507C16.9633 23.013 16.9445 22.6547 16.8785 22.5133C16.7842 22.2776 16.6239 22.0608 16.4636 21.8533C16.3128 21.6648 16.1242 21.495 15.9922 21.297C15.8602 21.099 15.8696 20.8068 15.7565 20.5993C15.6433 20.3919 15.4736 20.2033 15.3794 19.9865C15.2851 19.7696 15.2096 19.5339 15.1248 19.3171C15.0399 19.1002 14.9079 18.8834 14.8231 18.6571C14.7382 18.4308 14.7005 18.1857 14.6251 17.9594C14.5402 17.7142 14.4271 17.4408 14.4459 17.1768C14.4648 16.894 14.6722 16.7525 14.8514 16.6677C15.0305 16.5828 15.2379 16.564 15.4736 16.7148C15.6999 16.8562 15.8602 17.0825 16.0582 17.2522C16.3128 17.4597 16.5485 17.5351 16.7088 17.62C16.9445 17.752 17.0765 17.7425 17.3688 17.6105C17.5385 17.5351 17.7647 17.4314 18.0382 17.2617L18.0287 17.2522Z" fill="#FF8A95"/>
<path d="M52.9796 93.2075C53.0173 93.4244 52.9607 93.7072 52.9702 93.9146C52.9796 94.1315 53.0079 94.3389 52.989 94.5464C52.9702 94.7538 52.9513 94.9706 52.9136 95.178C52.8759 95.3855 52.9041 95.6117 52.8476 95.8192C52.791 96.0266 52.725 96.234 52.6684 96.432C52.6119 96.63 52.4987 96.828 52.4327 97.026C52.3573 97.2806 51.9236 97.4597 51.6219 97.5917C51.4145 97.6766 51.2165 97.7709 51.009 97.8463C50.8016 97.9217 50.6225 98.0726 50.4056 98.1386C50.1888 98.2046 49.9531 98.1763 49.7456 98.2329C49.5382 98.2894 49.3308 98.4026 49.1233 98.4497C48.9159 98.4969 48.6991 98.6006 48.4822 98.6383C48.2654 98.676 48.0297 98.5629 47.8034 98.5817C47.5771 98.6006 47.3697 98.6289 47.1528 98.6383C46.936 98.6477 46.7191 98.6854 46.4928 98.6854C46.2665 98.6854 46.0497 98.7514 45.8328 98.7326C45.616 98.7137 45.3991 98.61 45.1823 98.5817C44.956 98.5534 44.7108 98.6194 44.5034 98.5629C44.296 98.5063 44.0697 98.412 43.8623 98.3271C43.6548 98.2423 43.438 98.148 43.2494 98.0349C43.0609 97.9217 42.91 97.7332 42.7309 97.5917C42.5517 97.4503 42.316 97.3843 42.1557 97.224C41.9954 97.0637 41.8635 96.8752 41.722 96.7054C41.5806 96.5357 41.4957 96.3189 41.3732 96.1303C41.2223 95.9135 41.0997 95.7155 41.0055 95.508C40.9017 95.2723 40.7603 95.0555 40.732 94.8198C40.7038 94.5746 40.7226 94.3201 40.7697 94.0749C40.8169 93.8487 40.9112 93.6129 41.0337 93.3866C41.1375 93.1792 41.2977 93.0001 41.4675 92.7927C41.5995 92.6324 41.6655 92.4061 41.8069 92.2552C41.9483 92.1044 42.2029 92.0572 42.3632 91.9347C42.5894 91.7555 42.7874 91.6707 43.0137 91.6612C43.2683 91.6424 43.5323 91.6518 43.7209 91.8215C43.8906 91.963 43.9566 92.2269 44.0414 92.4909C44.0603 92.5664 44.1451 92.6135 44.1734 92.689C44.2488 92.9247 44.3431 93.1226 44.4374 93.3206C44.5506 93.5375 44.5883 93.7921 44.7297 93.9524C44.89 94.1221 45.1445 94.1503 45.352 94.254C45.55 94.3389 45.7385 94.4709 45.9837 94.4898C46.1911 94.5086 46.4174 94.4426 46.6625 94.4143C46.8888 94.3861 47.1245 94.4521 47.3508 94.4143C47.5771 94.3766 47.8034 94.3389 48.0202 94.3012C48.2371 94.2635 48.4728 94.2541 48.6991 94.2069C48.9254 94.1598 49.1328 94.0655 49.3591 94.0183C49.5853 93.9712 49.8211 93.9901 50.0379 93.9524C50.2548 93.9146 50.4716 93.7826 50.6885 93.7355C50.9053 93.6884 51.1222 93.5658 51.3485 93.5281C51.603 93.4809 51.8859 93.5752 52.1593 93.5092C52.395 93.4527 52.6684 93.2546 52.9607 93.1981L52.9796 93.2075Z" fill="#082C4C"/>
<path d="M23.3839 9.61489C23.5631 9.96374 23.7328 10.0769 23.7893 10.2372C23.8648 10.4446 23.8459 10.6897 23.9213 10.9066C23.9968 11.1235 24.0911 11.3214 24.1665 11.5289C24.2419 11.7363 24.3739 11.9343 24.4493 12.1417C24.5248 12.3491 24.487 12.6037 24.5625 12.8111C24.6379 13.0186 24.7039 13.2354 24.7793 13.4523C24.8548 13.6691 25.0056 13.8483 25.081 14.0557C25.1565 14.2631 25.2602 14.4705 25.3356 14.678C25.411 14.8854 25.4205 15.1211 25.4959 15.338C25.5713 15.5548 25.675 15.7528 25.741 15.9602C25.807 16.1677 25.8542 16.3939 25.9296 16.6014C26.005 16.8088 26.1747 16.9879 26.2407 17.2048C26.3067 17.4216 26.2219 17.6762 26.2785 17.8931C26.335 18.1099 26.4199 18.3173 26.467 18.5342C26.5142 18.7511 26.6933 18.9396 26.7405 19.1659C26.7876 19.3922 26.7782 19.6185 26.8159 19.8353C26.8536 20.0522 26.8159 20.2879 26.8442 20.5047C26.8725 20.7216 26.9762 20.9479 26.995 21.1647C27.0139 21.3816 26.9196 21.6173 26.9196 21.8436C26.9196 22.0699 26.9102 22.2867 26.9007 22.513C26.8913 22.7299 26.8536 22.9373 26.8253 23.1636C26.797 23.371 26.7876 23.5878 26.7499 23.8236C26.7216 24.031 26.6839 24.2195 26.6556 24.4553C26.4482 24.361 26.2407 24.3421 26.0522 24.2478C25.8636 24.1535 25.6562 24.0404 25.4676 23.9367C25.279 23.833 25.147 23.6161 24.9679 23.4936C24.7888 23.371 24.5719 23.2956 24.4116 23.1353C24.2513 22.975 24.1099 22.8147 23.9874 22.6261C23.8648 22.4376 23.7988 22.2113 23.6856 22.0133C23.5725 21.8153 23.4028 21.655 23.2896 21.4664C23.1765 21.2779 23.1011 21.0516 22.9974 20.8536C22.8936 20.6556 22.7899 20.4482 22.6956 20.2502C22.6014 20.0522 22.5259 19.8353 22.4411 19.6279C22.3562 19.4205 22.2525 19.2225 22.1771 19.0056C22.1017 18.7888 22.0451 18.5719 21.9791 18.3645C21.9131 18.1571 21.7905 17.9496 21.7339 17.7328C21.6774 17.5159 21.7528 17.2708 21.7151 17.0539C21.6774 16.8371 21.6585 16.6108 21.6397 16.3845C21.6208 16.1582 21.5171 15.9414 21.5171 15.7151C21.5171 15.4888 21.5925 15.272 21.6114 15.0457C21.6302 14.8194 21.6302 14.6025 21.6585 14.3763C21.6868 14.1594 21.6585 13.9331 21.6774 13.7068C21.6962 13.4805 21.7057 13.2637 21.7434 13.0468C21.7811 12.83 21.9414 12.632 21.9885 12.4151C22.0357 12.1983 22.1111 11.9909 22.1865 11.7834C22.2619 11.576 22.3185 11.3686 22.4034 11.1612C22.4882 10.9537 22.5542 10.7463 22.6768 10.5577C22.7805 10.3975 22.9219 10.256 23.0539 10.0863C23.1671 9.94489 23.2519 9.78461 23.3934 9.60547L23.3839 9.61489ZM24.1853 15.3757C24.1759 15.1871 24.0816 15.0174 23.9874 14.876C23.9025 14.744 23.7988 14.5931 23.5536 14.6025C23.3274 14.612 23.1576 14.7345 23.0445 14.8665C22.9314 14.9985 22.9314 15.1871 22.9125 15.404C22.8936 15.6208 22.8465 15.8565 22.9596 16.0168C23.0822 16.2054 23.3085 16.3751 23.5065 16.3751C23.7045 16.3751 23.8648 16.1771 23.9874 15.9697C24.0816 15.8094 24.1853 15.6114 24.1853 15.3757Z" fill="#FF8A95"/>
<path d="M9.9389 30.3294C10.118 30.1597 10.2595 30.0182 10.2972 29.8297C10.3443 29.6223 10.2029 29.4054 10.184 29.198C10.1652 28.9906 10.1558 28.7454 10.2029 28.5474C10.25 28.3683 10.4198 28.1891 10.6366 28.0477C10.7686 28.1986 11.0703 28.3494 11.108 28.5286C11.1457 28.7454 11.1552 28.9717 11.2023 29.198C11.2495 29.4243 11.24 29.6505 11.2872 29.8674C11.3343 30.0843 11.4757 30.2822 11.5229 30.5085C11.57 30.7348 11.4757 30.9799 11.5229 31.1968C11.57 31.4137 11.7303 31.6117 11.7774 31.8285C11.8246 32.0454 11.7963 32.2811 11.834 32.5074C11.8717 32.7336 11.966 32.9411 12.0037 33.1674C12.0414 33.3936 12.0697 33.6105 12.098 33.8368C12.1263 34.0631 12.0603 34.2893 12.0697 34.5156C12.0792 34.7419 12.1829 34.9588 12.1829 35.185C12.1829 35.4113 12.0792 35.6282 12.0697 35.8545C12.0603 36.0807 12.0603 36.2787 12.032 36.4956C11.8152 36.5333 11.6266 36.6087 11.438 36.571C11.2306 36.5333 11.0326 36.4484 10.844 36.3542C10.6555 36.2599 10.5517 36.043 10.3915 35.9299C10.2029 35.7979 9.97662 35.713 9.79748 35.5716C9.61834 35.4302 9.40148 35.317 9.23177 35.1662C9.06206 35.0153 8.87349 34.8739 8.70378 34.7136C8.53407 34.5533 8.35493 34.4025 8.19465 34.2328C8.03437 34.063 7.8835 33.8839 7.74207 33.7048C7.60065 33.5256 7.57236 33.2522 7.43093 33.0731C7.28951 32.8939 7.15751 32.7054 7.03494 32.5168C6.91237 32.3282 6.77095 32.1397 6.65781 31.9417C6.54467 31.7437 6.42209 31.5457 6.32781 31.3288C6.23352 31.1119 6.21467 30.8762 6.13924 30.6594C6.06381 30.4425 5.91296 30.254 5.84696 30.0277C5.79039 29.8203 5.81868 29.594 5.76211 29.3865C5.70554 29.1791 5.64897 28.9811 5.60183 28.7737C5.55469 28.5663 5.41325 28.3777 5.38496 28.1703C5.35668 27.9629 5.28125 27.746 5.28125 27.5386C5.28125 27.3312 5.44153 27.1237 5.46982 26.9069C5.50753 26.6051 5.40383 26.2752 5.49811 25.9829C5.5924 25.6906 5.79039 25.5586 5.95068 25.4832C6.11096 25.4077 6.33724 25.37 6.60124 25.5492C6.79924 25.6812 6.97837 25.8603 7.15751 26.0394C7.33665 26.2186 7.49694 26.4072 7.61951 26.6052C7.73265 26.7843 7.77036 27.0106 7.87407 27.1992C7.97778 27.3877 8.20407 27.5009 8.30779 27.6894C8.4115 27.878 8.42092 28.1137 8.52464 28.2928C8.62835 28.472 8.7132 28.6794 8.81691 28.8586C8.92063 29.0377 9.00549 29.2451 9.11863 29.4243C9.22234 29.6034 9.44863 29.6977 9.59005 29.858C9.72205 30.0088 9.8352 30.1597 9.97662 30.3294H9.9389Z" fill="#FF8A95"/>
<path d="M14.7663 21.3534C14.5494 21.4383 14.2666 21.4383 14.0875 21.5043C13.8612 21.5891 13.6632 21.6645 13.4935 21.7211C13.2483 21.806 13.0503 21.8248 12.8806 21.8531C12.5977 21.9003 12.3903 21.9945 12.2489 21.872C12.1169 21.7683 12.098 21.5231 12.0038 21.278C11.9472 21.1083 11.9 20.9103 11.8246 20.6746C11.768 20.4954 11.5795 20.3351 11.4946 20.1183C11.4192 19.9014 11.4758 19.6374 11.4003 19.4206C11.3249 19.2037 11.2401 18.9963 11.1646 18.7794C11.0892 18.5626 10.9666 18.3646 10.9006 18.1477C10.8346 17.9309 10.7121 17.7329 10.6366 17.516C10.5612 17.2992 10.4952 17.0823 10.4198 16.8655C10.3349 16.6015 10.2689 16.3846 10.2501 16.2149C10.2218 15.9603 10.3161 15.7435 10.4952 15.5832C10.6178 15.4701 10.7969 15.3381 11.0515 15.2155C11.2401 15.1212 11.4663 15.0835 11.6549 14.9892C11.8435 14.8949 12.0698 14.8572 12.2583 14.7724C12.4469 14.6875 12.5978 14.4895 12.7957 14.4046C12.9937 14.3198 13.2389 14.3481 13.4369 14.2632C13.6349 14.1784 13.8235 14.0746 14.012 13.9898C14.2006 13.9049 14.3986 13.8107 14.5966 13.7258C14.7946 13.6409 14.9737 13.5184 15.1623 13.4335C15.3509 13.3487 15.5489 13.2544 15.7469 13.1695C15.9071 13.0941 16.0863 12.981 16.2466 12.981C16.4068 12.981 16.5671 13.1035 16.6803 13.2827C16.7934 13.4618 16.8311 13.6881 16.9348 13.8767C17.0385 14.0652 17.1328 14.2444 17.2271 14.4424C17.3214 14.6404 17.51 14.7818 17.5854 14.9798C17.6608 15.1778 17.6514 15.4041 17.7174 15.6115C17.7834 15.8095 17.8683 15.9981 17.9154 16.2149C17.642 16.1583 17.4063 16.0923 17.1894 16.0452C16.9254 15.9886 16.6897 15.9698 16.4446 15.932C16.2183 15.9038 16.0014 15.8095 15.7751 15.7906C15.5489 15.7718 15.3037 15.7718 15.0869 15.7906C14.8417 15.8095 14.6532 15.9698 14.4646 16.0358C14.2289 16.1112 14.0592 16.196 13.9083 16.3186C13.7386 16.46 13.6349 16.6109 13.5594 16.8278C13.4935 17.0163 13.3426 17.2143 13.3709 17.4595C13.3897 17.6575 13.418 17.8932 13.4935 18.1289C13.5689 18.3552 13.7574 18.5437 13.8423 18.77C13.9272 18.9963 14.0215 19.2131 14.1157 19.4394C14.21 19.6657 14.21 19.9203 14.2949 20.1466C14.3609 20.3446 14.5212 20.5048 14.5683 20.7123C14.6154 20.9103 14.6814 21.1554 14.7286 21.3723L14.7663 21.3534Z" fill="#E6E4E1"/>
<path d="M19.5182 29.5657C19.7256 29.4526 19.8765 29.2923 20.0745 29.1791C20.2725 29.066 20.5459 29.066 20.7439 28.9623C20.9419 28.8586 21.0833 28.6134 21.2908 28.5003C21.4793 28.3966 21.6773 28.3211 21.8659 28.208C22.0545 28.0949 22.2147 27.9723 22.3939 27.8592C22.573 27.746 22.771 27.6612 22.9502 27.5386C23.1293 27.416 23.299 27.3029 23.4687 27.1709C23.6384 27.0389 23.7987 26.9069 23.959 26.7654C24.1193 26.624 24.3173 26.5297 24.4681 26.3789C24.619 26.228 24.7887 26.096 24.9301 25.9357C25.0716 25.7755 25.2036 25.6058 25.3261 25.4266C25.4298 25.2852 25.5336 25.1532 25.675 25.0778C25.8164 25.0023 25.9955 24.8892 26.1841 24.9929C26.3821 25.0966 26.4481 25.304 26.4575 25.4643C26.467 25.6246 26.3633 25.8037 26.2973 25.964C26.2124 26.1903 26.0804 26.4072 25.9767 26.6335C25.873 26.8597 25.7504 27.0766 25.675 27.3123C25.5713 27.614 25.4958 28.0006 25.5713 28.2929C25.6278 28.5191 25.6844 28.7171 25.609 28.8586C25.5335 29.0188 25.345 29.1131 25.1564 29.2074C24.9678 29.3017 24.7981 29.4148 24.6096 29.5091C24.421 29.6034 24.2324 29.6977 24.0533 29.7825C23.8741 29.8674 23.629 29.8674 23.4499 29.9617C23.2707 30.056 23.1199 30.2445 22.9313 30.3294C22.7427 30.4143 22.5259 30.452 22.3373 30.5274C22.1488 30.6028 21.979 30.7631 21.781 30.8291C21.4982 30.9328 21.2342 30.8951 21.0268 30.9234C20.7439 30.9517 20.5176 30.9422 20.3196 30.8008C20.1593 30.6783 19.9896 30.4991 19.8199 30.2445C19.7068 30.0654 19.6408 29.8391 19.5088 29.5846L19.5182 29.5657Z" fill="#E63500"/>
<path d="M8.37399 25.747C8.59084 25.7281 8.82655 25.6904 9.02455 25.6715C9.24141 25.6527 9.44884 25.6433 9.64683 25.6244C9.84483 25.6055 10.0711 25.615 10.2691 25.5867C10.4671 25.5584 10.6745 25.4924 10.882 25.4547C11.1177 25.417 11.3628 25.4264 11.6079 25.3792C11.8531 25.3321 12.0699 25.219 12.3056 25.1718C12.5414 25.1247 12.7959 25.1718 13.0316 25.1153C13.2673 25.0587 13.4842 24.9455 13.7199 24.889C13.9556 24.8324 14.1913 24.7664 14.4176 24.7098C14.7948 24.6156 14.9456 24.6061 15.1059 24.691C15.2379 24.757 15.3605 24.889 15.6056 25.1813C15.4359 25.3321 15.2568 25.4264 15.0588 25.5301C14.8608 25.6338 14.6816 25.7941 14.4648 25.8695C14.2479 25.945 14.0122 25.9261 13.7953 25.9921C13.5785 26.0581 13.3616 26.1241 13.1542 26.209C12.9374 26.2938 12.7111 26.3692 12.4848 26.4447C12.2585 26.5201 12.0417 26.6049 11.8154 26.6709C11.5891 26.7369 11.3722 26.8407 11.146 26.9067C10.9197 26.9727 10.6934 27.0575 10.4671 27.1235C10.1654 27.2084 9.92969 27.2555 9.75055 27.2838C9.46769 27.3215 9.32627 27.1895 9.1377 26.9727C9.02456 26.8407 8.90198 26.6521 8.73227 26.3881C8.63799 26.2278 8.51542 26.0675 8.3457 25.747H8.37399Z" fill="#E6E4E1"/>
<path d="M9.69385 14.4518C9.47699 14.7912 9.2507 14.7724 9.92012 14.9232C10.0804 14.9609 10.3067 15.0647 10.5613 14.9987C10.7498 14.9515 10.9478 14.8384 11.1647 14.7535C11.3532 14.6781 11.5607 14.5932 11.7587 14.5084C11.9567 14.4235 12.1264 14.2821 12.3244 14.1878C12.5224 14.0935 12.7015 13.9615 12.8806 13.8673C13.0881 13.7635 13.3238 13.7635 13.5029 13.6692C13.7104 13.5655 13.8895 13.4713 14.0781 13.4053C14.2949 13.3298 14.4835 13.2073 14.6721 13.1601C14.8983 13.1035 15.1152 13.0941 15.2943 13.047C15.5112 12.981 15.662 12.8678 15.8035 12.7075C15.992 12.4907 16.1523 12.3493 16.256 12.2267C16.388 12.0758 16.5012 11.9533 16.3692 11.6327C16.3126 11.5007 16.1995 11.3027 16.1712 11.0576C16.1429 10.869 16.0958 10.6616 16.058 10.4541C16.0203 10.2467 16.1146 10.011 16.058 9.82244C15.992 9.60559 15.8412 9.42645 15.7092 9.30388C15.5772 9.18131 15.3698 9.09645 15.1246 9.14359C14.9643 9.18131 14.7475 9.25674 14.4929 9.28503C14.2949 9.30389 14.0875 9.36989 13.8518 9.38874C13.6444 9.4076 13.4275 9.37931 13.2012 9.39817C12.9938 9.41702 12.7675 9.3793 12.5507 9.40759C12.3338 9.43588 12.1264 9.52074 11.9095 9.54902C11.6927 9.57731 11.4758 9.62445 11.2684 9.66216C11.0421 9.7093 10.8252 9.72816 10.6273 9.7753C10.401 9.8413 10.203 9.94501 10.0333 10.0299C9.79756 10.143 9.61841 10.2656 9.52413 10.407C9.39213 10.605 9.213 10.7653 9.03386 10.9067C8.84529 11.0576 8.60957 11.133 8.421 11.2556C8.19472 11.397 8.01557 11.5761 7.90243 11.727C7.77044 11.8967 7.81758 12.0758 7.96844 12.3493C8.07215 12.5473 8.157 12.7641 8.29843 12.9338C8.43985 13.1035 8.60015 13.2827 8.751 13.4335C8.92071 13.6032 9.07157 13.7824 9.22242 13.9238C9.41099 14.1124 9.59956 14.2727 9.67498 14.4424L9.69385 14.4518Z" fill="white"/>
</svg>
