<svg width="91" height="101" viewBox="0 0 91 101" fill="none" xmlns="http://www.w3.org/2000/svg">
<path d="M53.3838 99.6381C53.1859 99.6381 52.9879 99.522 52.79 99.522C52.592 99.522 52.394 99.679 52.2029 99.679C52.0118 99.679 51.807 99.6176 51.6091 99.6176C51.4111 99.6176 51.2132 99.5767 51.0152 99.5767C50.8173 99.5767 50.6193 99.679 50.4282 99.679C50.237 99.679 50.0323 99.5016 49.8343 99.5016C49.6364 99.5016 49.4384 99.5016 49.2473 99.5016C49.0562 99.5016 48.8514 99.5493 48.6603 99.5493C48.4691 99.5493 48.2644 99.6517 48.0732 99.6517C47.8821 99.6517 47.6773 99.6313 47.4794 99.6313C47.2814 99.6313 47.0835 99.6722 46.8855 99.6722C46.6876 99.6722 46.4896 99.5425 46.2985 99.5425C46.1074 99.5425 45.9026 99.5084 45.7115 99.5084C45.5203 99.5084 45.3156 99.6995 45.1176 99.6995C44.9197 99.6995 44.7217 99.4743 44.5306 99.4743C44.3394 99.4743 44.1347 99.5289 43.9367 99.5289C43.7388 99.5289 43.5408 99.6381 43.3429 99.6381C43.1449 99.6381 42.947 99.5835 42.749 99.5835C42.5511 99.5835 42.3531 99.5357 42.1552 99.5357C41.9572 99.5357 41.7592 99.6244 41.5613 99.6244C41.3633 99.6244 41.1654 99.5698 40.9674 99.5698C40.7695 99.5698 40.5715 99.6108 40.3736 99.6108C40.1756 99.6108 39.9777 99.5084 39.7797 99.5084C39.5818 99.5084 39.3838 99.6449 39.1859 99.6449C38.9879 99.6449 38.79 99.6244 38.592 99.6244C38.3941 99.6244 38.1961 99.5698 37.9982 99.5698C37.8002 99.5698 37.6022 99.6449 37.4043 99.6381C37.2063 99.6313 37.0084 99.6381 36.8104 99.6381C36.6125 99.6381 36.4145 99.5289 36.2166 99.5289C36.0186 99.5289 35.8207 99.5084 35.6227 99.5084C35.4248 99.5084 35.2268 99.5971 35.0289 99.5971C34.8309 99.5971 34.633 99.4674 34.435 99.4674C34.2371 99.4674 34.0391 99.6586 33.8412 99.6586C33.6432 99.6586 33.4453 99.6108 33.2473 99.6108C33.0494 99.6108 32.8446 99.6176 32.6466 99.6244C32.4487 99.6313 32.2439 99.604 32.0459 99.6108C31.848 99.6176 31.6432 99.5152 31.4453 99.5152C31.2473 99.5152 31.0494 99.6176 30.8446 99.6244C30.6398 99.6313 30.4419 99.5357 30.2371 99.5425C30.0323 99.5494 29.8412 99.6381 29.6364 99.6449C29.4316 99.6517 29.2405 99.7268 29.0357 99.7337C28.8309 99.7405 28.633 99.6313 28.4282 99.6381C28.2234 99.6449 28.0255 99.6927 27.8275 99.6995C27.6296 99.7063 27.4316 99.7678 27.2268 99.7746C27.0221 99.7814 26.8241 99.7405 26.6262 99.7473C26.4282 99.7541 26.2303 99.8156 26.0255 99.8224C25.8207 99.8292 25.6227 99.7746 25.4248 99.7814C25.2268 99.7883 25.0289 99.8633 24.8241 99.8702C24.6193 99.877 24.4214 99.7405 24.2166 99.7473C24.0118 99.7541 23.8207 99.9589 23.6227 99.9657C23.4248 99.9657 23.2268 99.8838 23.0289 99.8906C22.8309 99.8975 22.633 99.9111 22.435 99.918C22.2371 99.9248 22.0391 99.9316 21.8412 99.9384C21.6432 99.9453 21.4521 100.041 21.2541 100.048C21.0562 100.054 20.8582 100.082 20.6671 100.089C20.476 100.095 20.2712 100.007 20.0733 100.014C19.8753 100.02 19.6774 99.9794 19.4794 99.9862C19.2815 99.993 19.0903 100.082 18.8924 100.089C18.6944 100.095 18.4965 100.123 18.2985 100.13C18.1006 100.136 17.9026 100.041 17.7047 100.048C17.5067 100.054 17.3088 100.116 17.1176 100.116C16.9265 100.116 16.7217 99.993 16.5238 99.993C16.3258 99.993 16.1279 100.184 15.9231 100.184C15.7183 100.184 15.5204 100.02 15.3224 100.02C15.1245 100.02 14.9197 100.034 14.7217 100.041C14.5238 100.048 14.3258 100.198 14.121 100.198C13.9163 100.198 13.7183 100.184 13.5204 100.184C13.3224 100.184 13.1176 100.075 12.9197 100.075C12.7217 100.075 12.517 100.102 12.319 100.102C12.1211 100.102 11.9163 100.014 11.7183 100.014C11.5204 100.014 11.3156 100.041 11.1176 100.041C10.9197 100.041 10.7149 100.218 10.517 100.211C10.319 100.205 10.1142 100.095 9.91627 100.095C9.71832 100.095 9.51355 100.048 9.3156 100.048C9.11765 100.048 8.91287 100.109 8.71491 100.102C8.51696 100.095 8.31218 100.177 8.11423 100.171C7.91628 100.164 7.71833 99.9521 7.52038 99.9521C7.3156 99.9521 7.11764 99.9589 6.91969 99.9453C6.72174 99.9316 6.49649 100.095 6.29854 100.068C6.10059 100.041 5.92993 99.8019 5.72515 99.7678C5.52038 99.7337 5.29512 99.9043 5.09717 99.877C4.89922 99.8497 4.70127 99.7814 4.50332 99.7473C4.30536 99.7132 4.10742 99.6449 3.90946 99.6108C3.71151 99.5767 3.52721 99.4265 3.32926 99.3992C3.104 99.3651 2.91287 99.3514 2.72857 99.29C2.51697 99.2149 2.35998 99.1193 2.20298 98.9965C2.03233 98.8668 1.88898 98.7439 1.77977 98.5732C1.67055 98.4026 1.58865 98.2251 1.52039 98.0203C1.45213 97.8156 1.27465 97.6586 1.24052 97.447C1.20639 97.2354 1.37021 97.0169 1.35656 96.8053C1.34291 96.621 1.28831 96.4436 1.27465 96.2593C1.261 96.075 1.27465 95.8907 1.27465 95.7132C1.27465 95.5357 1.09718 95.3514 1.09035 95.1739C1.08352 94.9965 1.13813 94.8053 1.1313 94.621C1.12448 94.4367 1.06988 94.2593 1.06305 94.075C1.05623 93.8907 1.0767 93.7064 1.06987 93.5221C1.06305 93.3378 1.11765 93.1535 1.11083 92.9692C1.11083 92.778 1.13813 92.5869 1.1313 92.4026C1.12448 92.2183 1.04257 92.0272 1.03574 91.8361C1.02892 91.6449 1.01527 91.4606 1.00844 91.2695C1.00162 91.0784 0.96066 90.8941 0.953834 90.7029C0.947008 90.5118 0.906052 90.3275 0.899226 90.1364C0.8924 89.9453 1.02209 89.7542 1.01527 89.563C1.00844 89.3719 1.01527 89.1876 1.01527 88.9965C1.01527 88.8053 0.844621 88.6279 0.837795 88.4367C0.830969 88.2456 0.803667 88.0613 0.796841 87.8702C0.790015 87.6791 0.769531 87.4948 0.769531 87.3036C0.769531 87.1125 0.899226 86.9214 0.899226 86.7303C0.899226 86.5391 0.769531 86.3548 0.769531 86.1637C0.769531 85.9726 0.858272 85.7815 0.858272 85.5972C0.858272 85.4129 0.803663 85.2217 0.803663 85.0306C0.803663 84.8395 0.803663 84.6552 0.803663 84.4641C0.803663 84.2661 0.776353 84.075 0.776353 83.877C0.776353 83.6791 0.851439 83.4879 0.851439 83.29C0.851439 83.092 0.919705 82.9009 0.933357 82.7098C0.947009 82.5187 0.783189 82.3139 0.796841 82.1159C0.810493 81.918 0.987962 81.7337 0.994788 81.5357C1.00161 81.3378 0.960659 81.1398 0.974311 80.9487C0.987963 80.7576 1.03575 80.5596 1.0494 80.3685C1.06305 80.1774 1.09035 79.9794 1.09717 79.7815C1.104 79.5835 0.974314 79.3856 0.987966 79.1876C1.00162 78.9897 1.06987 78.7985 1.0767 78.6074C1.08352 78.4163 1.22005 78.2252 1.2337 78.0272C1.24735 77.8292 1.20639 77.6313 1.21321 77.4402C1.22004 77.249 1.15861 77.0443 1.16544 76.8531C1.17226 76.662 1.15861 76.4641 1.16544 76.2661C1.16544 76.075 1.14496 75.8839 1.15178 75.6927C1.15861 75.5016 1.31561 75.3105 1.31561 75.1194C1.31561 74.9282 1.26782 74.7371 1.26782 74.546C1.26782 74.3549 1.17909 74.1637 1.17909 73.9726C1.17909 73.7815 1.24052 73.5903 1.24052 73.3992C1.24052 73.2081 1.24052 73.017 1.24052 72.8258C1.24052 72.6347 1.33608 72.4436 1.33608 72.2525C1.33608 72.0613 1.26782 71.8702 1.26782 71.6791C1.26782 71.488 1.24734 71.2968 1.24734 71.1057C1.24734 70.9146 1.29513 70.7235 1.29513 70.5323C1.29513 70.3412 1.31561 70.1501 1.31561 69.959C1.31561 69.7678 1.34291 69.5767 1.34291 69.3856C1.34291 69.1944 1.1313 69.0033 1.1313 68.8122C1.1313 68.6211 1.28148 68.4299 1.27465 68.2388C1.26783 68.0477 1.21321 67.8566 1.21321 67.6654C1.21321 67.4675 1.15179 67.2695 1.14496 67.0716C1.13813 66.8736 1.15861 66.6757 1.15861 66.4709C1.15861 66.2661 1.17909 66.075 1.17909 65.8702C1.17909 65.6654 1.26782 65.4675 1.26782 65.2695C1.26782 65.0716 1.11765 64.8736 1.11083 64.6757C1.104 64.4777 1.2337 64.2729 1.2337 64.075C1.2337 63.877 1.2337 63.6791 1.2337 63.4743C1.2337 63.2695 1.15861 63.0784 1.15178 62.8805C1.14496 62.6825 1.20639 62.4777 1.19957 62.2798C1.19274 62.0818 1.104 61.8839 1.09717 61.6859C1.09035 61.488 1.06988 61.29 1.06305 61.0921C1.05623 60.8941 1.02209 60.6962 1.01527 60.4982C1.00844 60.3003 1.05622 60.1023 1.0494 59.8975C1.04257 59.6928 1.0767 59.5016 1.06987 59.2968C1.06305 59.0921 1.02209 58.9009 1.01527 58.703C1.00844 58.505 1.1313 58.3003 1.1313 58.1023C1.1313 57.9044 1.06988 57.7064 1.06305 57.5085C1.05623 57.3105 1.10401 57.1126 1.10401 56.9078C1.10401 56.7098 1.06987 56.5119 1.06987 56.3139C1.06987 56.116 0.899226 55.918 0.899226 55.7201C0.899226 55.5221 0.967489 55.3242 0.967489 55.1262C0.967489 54.9283 0.987962 54.7303 0.994788 54.5323C1.00161 54.3344 1.1313 54.1364 1.1313 53.9385C1.1313 53.7405 1.05622 53.5426 1.05622 53.3446C1.05622 53.1467 1.08353 52.9487 1.08353 52.7508C1.08353 52.5528 0.919703 52.3549 0.919703 52.1569C0.919703 51.959 0.994788 51.761 0.994788 51.5631C0.994788 51.3651 1.11765 51.1672 1.11765 50.9692C1.11765 50.7713 1.06987 50.5733 1.06987 50.3754C1.06987 50.1774 1.06987 49.9795 1.06987 49.7815C1.06987 49.5835 0.926525 49.3856 0.926525 49.1876C0.926525 48.9897 1.00161 48.7917 1.00161 48.5938C1.00161 48.4914 1.01527 48.2935 1.01527 48.0204C1.01527 47.8566 1.09717 47.6655 1.09717 47.447C1.09717 47.2696 0.906048 47.0853 0.906048 46.8737C0.906048 46.6962 1.06305 46.4982 1.06305 46.3003C1.06305 46.116 1.0494 45.9249 1.0494 45.7269C1.0494 45.5426 1.0767 45.3515 1.0767 45.1535C1.0767 44.9692 1.09717 44.7781 1.09717 44.5801C1.09717 44.3822 1.12448 44.2047 1.12448 44.0068C1.12448 43.8088 1.00844 43.6245 1.01527 43.4334C1.02209 43.2423 1.10401 43.058 1.10401 42.86C1.10401 42.6621 1.01526 42.4778 1.02209 42.2866C1.02891 42.0955 0.960663 41.9044 0.967489 41.7133C0.974315 41.5221 1.09718 41.3378 1.10401 41.1467C1.11083 40.9556 1.11766 40.7645 1.12448 40.5733C1.13131 40.3822 1.17908 40.1911 1.19274 39.9999C1.20639 39.8088 1.104 39.6109 1.11765 39.4197C1.1313 39.2286 1.31561 39.0443 1.32926 38.8532C1.34291 38.6621 1.24735 38.4641 1.261 38.273C1.27465 38.0819 1.28148 37.8907 1.29513 37.6996C1.30878 37.5085 1.27465 37.3105 1.29513 37.1194C1.31561 36.9283 1.4453 36.7508 1.46578 36.5597C1.48626 36.3685 1.47943 36.1706 1.50673 35.9863C1.53404 35.802 1.61595 35.6109 1.64325 35.4266C1.67055 35.2423 1.70468 35.0443 1.73881 34.86C1.77294 34.6689 1.77294 34.4709 1.8139 34.2935C1.85485 34.1023 1.74564 33.8771 1.7866 33.6996C1.83438 33.5085 2.05281 33.3651 2.10742 33.1945C2.16885 33.0102 2.10741 32.7918 2.17567 32.6143C2.24393 32.4368 2.42823 32.2935 2.48284 32.1092C2.53744 31.9249 2.48284 31.7064 2.53744 31.5221C2.59205 31.3378 2.7081 31.174 2.76953 30.9965C2.83097 30.8191 2.90605 30.6348 2.96748 30.4573C3.02892 30.2798 3.11765 30.1023 3.17908 29.9249C3.24052 29.7474 3.30878 29.5631 3.37704 29.3856C3.4453 29.2082 3.45212 29.0034 3.52038 28.8259C3.58864 28.6484 3.7866 28.5187 3.85485 28.3413C3.92311 28.1638 3.98454 27.9795 4.0528 27.802C4.12106 27.6245 4.20298 27.4539 4.27124 27.2696C4.3395 27.0853 4.24393 26.8464 4.31901 26.6689C4.3941 26.4914 4.51697 26.3344 4.59206 26.157C4.66714 25.9795 4.76271 25.8157 4.83779 25.6382C4.91288 25.4607 4.85826 25.2286 4.94018 25.058C5.02209 24.8873 5.25417 24.7781 5.32926 24.6006C5.40434 24.4232 5.46577 24.2457 5.54768 24.0682C5.62959 23.8908 5.61594 23.6791 5.69785 23.5017C5.77977 23.3242 5.97089 23.2082 6.05281 23.0375C6.13472 22.8669 6.08693 22.628 6.17567 22.4573C6.2644 22.2867 6.49648 22.1911 6.57839 22.0204C6.66031 21.8498 6.61935 21.6109 6.70809 21.4402C6.79683 21.2696 6.85826 21.0853 6.95382 20.9215C7.04939 20.7577 7.28147 20.6621 7.37704 20.4983C7.4726 20.3276 7.61594 20.1774 7.7115 20.0068C7.80706 19.8361 7.90946 19.6587 8.00502 19.488C8.10058 19.3174 8.0528 19.058 8.15519 18.8873C8.25758 18.7167 8.4214 18.587 8.52379 18.4164C8.62618 18.2457 8.69443 18.0546 8.79682 17.8839C8.89921 17.7133 9.08351 17.5972 9.19273 17.4266C9.30194 17.2559 9.36338 17.0648 9.47259 16.8942C9.58181 16.7235 9.7661 16.6143 9.87532 16.4505C9.98454 16.2867 9.94358 16.0205 10.0596 15.8566C10.1757 15.6928 10.4351 15.6382 10.5511 15.4744C10.6671 15.3106 10.674 15.0717 10.7968 14.9147C10.9197 14.7577 11.0221 14.587 11.1449 14.43C11.2678 14.273 11.3702 14.0955 11.4931 13.9454C11.6159 13.7952 11.7729 13.6587 11.9026 13.5085C12.0323 13.3583 12.2576 13.2969 12.3941 13.1467C12.5306 12.9966 12.6262 12.8191 12.7627 12.6758C12.8992 12.5324 13.0903 12.4437 13.2269 12.3071C13.3634 12.1706 13.5272 12.0478 13.6637 11.9112C13.8002 11.7747 13.8821 11.5768 14.0255 11.4403C14.1688 11.3037 14.3463 11.2082 14.4897 11.0717C14.633 10.9351 14.7217 10.7372 14.8651 10.6075C15.0084 10.4778 15.2132 10.4095 15.3634 10.2799C15.5135 10.1502 15.691 10.0546 15.8412 9.93173C15.9914 9.80886 16.0801 9.60408 16.2371 9.48122C16.3941 9.35835 16.4965 9.17405 16.6535 9.05801C16.8105 8.94197 17.0494 8.92832 17.2064 8.81227C17.3634 8.69623 17.5545 8.62115 17.7115 8.51193C17.8685 8.40272 17.9982 8.2389 18.162 8.12968C18.3258 8.02047 18.4896 7.90443 18.6535 7.80204C18.8173 7.69965 18.9675 7.5563 19.1313 7.45391C19.2951 7.35153 19.4999 7.30374 19.6705 7.20136C19.8412 7.09897 19.9572 6.90101 20.1279 6.80545C20.2985 6.70989 20.5647 6.78497 20.7354 6.69624C20.906 6.6075 21.0084 6.38224 21.1791 6.30033C21.3497 6.21842 21.534 6.15699 21.7047 6.06825C21.8753 5.97951 22.0118 5.82252 22.1825 5.73378C22.3531 5.64504 22.5989 5.70648 22.7695 5.62457C22.9402 5.54265 23.0903 5.40614 23.261 5.3174C23.4316 5.22866 23.6501 5.24231 23.8207 5.15358C23.9914 5.06484 24.1552 4.95563 24.3258 4.87371C24.4965 4.7918 24.6535 4.66894 24.8241 4.58702C24.9948 4.50511 25.1927 4.46416 25.3634 4.38225C25.534 4.30034 25.7115 4.22525 25.889 4.15017C26.0664 4.07508 26.2439 4.01365 26.4214 3.93174C26.5989 3.84982 26.7627 3.75426 26.9333 3.67235C27.104 3.59044 27.3019 3.56314 27.4794 3.48805C27.6637 3.41296 27.8002 3.22866 27.9845 3.16041C28.1688 3.09215 28.3599 3.03754 28.5442 2.96928C28.7285 2.90102 28.9197 2.84641 29.104 2.77815C29.2883 2.70989 29.4521 2.5802 29.6432 2.51877C29.8343 2.45733 30.0391 2.45051 30.2234 2.38908C30.4077 2.32764 30.6057 2.27986 30.79 2.22525C30.9743 2.17065 31.1586 2.08191 31.3497 2.0273C31.5408 1.97269 31.732 1.93856 31.9231 1.88396C32.1142 1.82935 32.3053 1.78157 32.4965 1.73379C32.6876 1.686 32.8787 1.64505 33.0767 1.60409C33.2746 1.56314 33.4726 1.56314 33.6637 1.52218C33.8548 1.48123 34.0528 1.46757 34.2507 1.43345C34.4487 1.39932 34.6261 1.31058 34.8241 1.27645C35.022 1.24232 35.2132 1.21502 35.4111 1.18771C35.6091 1.16041 35.7866 1.02389 35.9845 0.996586C36.1825 0.969282 36.3804 0.914675 36.5852 0.887371C36.79 0.860067 37.0152 1.03072 37.2132 1.00341C37.4111 0.976108 37.5954 0.812286 37.7934 0.784982C37.9913 0.757678 38.1893 0.675767 38.3872 0.648463C38.5852 0.62116 38.8104 0.757678 39.0084 0.730374C39.2063 0.703071 39.3906 0.532422 39.5886 0.505119C39.7865 0.477815 39.9845 0.395904 40.1825 0.3686C40.3804 0.341296 40.592 0.375426 40.79 0.354948C40.9879 0.334471 41.2132 0.477815 41.4111 0.450511C41.6091 0.423208 41.7934 0.232082 41.9913 0.211604C42.1893 0.191126 42.4009 0.266211 42.6057 0.245733C42.8104 0.225256 43.0016 0.116041 43.2063 0.102389C43.4111 0.0887371 43.6159 0.1843 43.8207 0.177474C44.0255 0.170648 44.2234 0.0477815 44.4214 0.0409556C44.6193 0.0341296 44.8241 0 45.0289 0C45.2336 0 45.4316 0.0750852 45.6364 0.0750852C45.8411 0.0750852 46.0391 0.0409556 46.2439 0.0409556C46.4487 0.0409556 46.6603 0.0341296 46.865 0.0341296C47.0766 0.0341296 47.2883 0.0546074 47.4999 0.0614334C47.7115 0.0682593 47.9162 0.122867 48.1278 0.136519C48.3394 0.15017 48.551 0.095563 48.7558 0.102389C48.9606 0.109215 49.1654 0.225256 49.377 0.232082C49.5886 0.238908 49.7934 0.163822 50.005 0.163822C50.1961 0.163822 50.3872 0.334471 50.5783 0.341296C50.7695 0.348122 50.9606 0.300341 51.1517 0.307167C51.3428 0.313993 51.5408 0.177474 51.7319 0.1843C51.9231 0.191126 52.1074 0.348122 52.2985 0.361774C52.4896 0.375426 52.6807 0.354948 52.8719 0.3686C53.063 0.382252 53.2609 0.300341 53.4521 0.320819C53.6432 0.341296 53.8343 0.3686 54.0254 0.389078C54.2166 0.409556 54.3804 0.607508 54.5715 0.634811C54.7626 0.662115 54.9606 0.607508 55.1517 0.634811C55.3428 0.662115 55.534 0.682593 55.7183 0.716723C55.9026 0.750852 56.1005 0.77133 56.2848 0.80546C56.4691 0.839589 56.6534 0.907849 56.8377 0.948804C57.022 0.98976 57.2336 0.941978 57.4179 0.982934C57.6022 1.02389 57.7524 1.23549 57.9367 1.28327C58.121 1.33106 58.2985 1.41297 58.4828 1.46075C58.6671 1.50853 58.865 1.5017 59.0493 1.55631C59.2336 1.61092 59.4589 1.51536 59.6432 1.57679C59.8275 1.63822 59.9708 1.8157 60.1483 1.87713C60.3258 1.93856 60.5442 1.86348 60.7217 1.92491C60.8992 1.98635 61.0152 2.22525 61.1927 2.27986C61.3701 2.33447 61.5476 2.40955 61.7251 2.46416C61.9026 2.51877 62.1073 2.49829 62.2848 2.5529C62.4623 2.60751 62.6193 2.72355 62.8036 2.78498C62.9879 2.84641 63.1585 2.90102 63.336 2.96245C63.5135 3.02389 63.7319 2.96245 63.9094 3.02389C64.0869 3.08532 64.237 3.21501 64.4145 3.27645C64.592 3.33788 64.7558 3.42662 64.9333 3.48805C65.1107 3.54948 65.3155 3.52218 65.493 3.58361C65.6705 3.64505 65.8343 3.74061 66.0118 3.80204C66.2029 3.8703 66.4282 3.86348 66.6125 3.93856C66.7968 4.01365 66.906 4.27303 67.0903 4.35494C67.2746 4.43685 67.5135 4.40955 67.691 4.49829C67.8684 4.58702 68.0459 4.69624 68.2234 4.7918C68.4009 4.88737 68.6124 4.92149 68.7899 5.02388C68.9674 5.12627 69.1312 5.24914 69.3019 5.35153C69.4725 5.45392 69.5886 5.65187 69.7592 5.76108C69.9299 5.8703 70.0664 6.02047 70.237 6.13651C70.4077 6.25255 70.5783 6.35494 70.7421 6.47098C70.906 6.58702 71.0903 6.68258 71.2541 6.79863C71.4179 6.91467 71.5886 7.02388 71.7524 7.13992C71.9162 7.25596 72.1142 7.33105 72.278 7.45391C72.4281 7.56996 72.5715 7.69282 72.7217 7.80886C72.8718 7.9249 73.0152 8.04777 73.1585 8.17064C73.3019 8.2935 73.4657 8.38907 73.6159 8.51193C73.766 8.6348 73.9367 8.72354 74.08 8.8464C74.2234 8.96927 74.4008 9.05801 74.5442 9.18087C74.6875 9.30374 74.7353 9.53582 74.8787 9.65869C75.022 9.78156 75.1039 9.97268 75.2404 10.1024C75.377 10.2321 75.5339 10.3413 75.6705 10.471C75.807 10.6007 76.08 10.587 76.2165 10.7167C76.3531 10.8464 76.4691 10.9966 76.6056 11.1331C76.7421 11.2696 76.7831 11.488 76.9196 11.6246C77.0561 11.7611 77.2336 11.8498 77.3633 11.9795C77.493 12.1092 77.5271 12.3413 77.6568 12.4778C77.7865 12.6143 77.964 12.7099 78.0937 12.8464C78.2234 12.9829 78.3599 13.1194 78.4828 13.256C78.6124 13.3993 78.7626 13.5222 78.8855 13.6723C79.0083 13.8225 79.2268 13.8976 79.3428 14.0546C79.4589 14.2116 79.4589 14.4505 79.5749 14.6075C79.6909 14.7645 79.9298 14.8327 80.0391 14.9897C80.1483 15.1467 80.1619 15.3788 80.2711 15.5358C80.3804 15.6928 80.5647 15.8089 80.6739 15.9658C80.7831 16.1228 80.865 16.3071 80.9742 16.4641C81.0834 16.6211 81.1039 16.8464 81.2131 17.0034C81.3292 17.1672 81.4725 17.3174 81.5885 17.4812C81.7046 17.645 81.923 17.7406 82.0391 17.9044C82.1551 18.0682 82.1073 18.3481 82.2234 18.5187C82.3394 18.6894 82.592 18.7577 82.708 18.9283C82.8241 19.0989 82.9605 19.2491 83.0766 19.4129C83.1926 19.5768 83.1517 19.8498 83.2609 20.0205C83.3701 20.1911 83.609 20.273 83.7251 20.4437C83.8411 20.6143 83.8752 20.8327 83.9845 21.0034C84.0937 21.174 84.1278 21.3788 84.2302 21.5495C84.3326 21.7201 84.4486 21.8839 84.5374 22.0546C84.6261 22.2252 84.7831 22.3754 84.8718 22.5529C84.9605 22.7303 85.1039 22.8873 85.1858 23.0648C85.2677 23.2423 85.3223 23.4402 85.3974 23.6245C85.4725 23.8088 85.5612 23.9931 85.6295 24.1774C85.6978 24.3617 85.7592 24.5529 85.8275 24.744C85.8957 24.9351 85.9776 25.1126 86.0459 25.3037C86.1141 25.4948 86.1824 25.6791 86.2507 25.8634C86.3189 26.0477 86.3462 26.2525 86.4145 26.4368C86.4691 26.587 86.3872 26.8191 86.4554 27.0375C86.5032 27.2082 86.6466 27.3652 86.7012 27.5699C86.749 27.7474 86.7216 27.9522 86.7763 28.1501C86.8172 28.3276 86.9606 28.4983 87.0083 28.6962C87.0493 28.8805 87.1995 29.0443 87.2472 29.2423C87.2882 29.4266 87.1585 29.6518 87.2063 29.8498C87.2472 30.0341 87.2746 30.2252 87.3155 30.4232C87.3565 30.6211 87.4384 30.7918 87.4725 30.9829C87.5066 31.174 87.4725 31.3788 87.5066 31.5699C87.5408 31.761 87.6841 31.9249 87.7251 32.1228C87.766 32.3208 87.7797 32.5051 87.8138 32.703C87.8479 32.901 87.9981 33.0648 88.0322 33.2559C88.0664 33.4471 88.0322 33.6518 88.0664 33.843C88.1005 34.0341 88.039 34.2389 88.0732 34.43C88.1073 34.6211 88.3257 34.7781 88.3599 34.9692C88.394 35.1604 88.3053 35.372 88.3394 35.5631C88.3735 35.7542 88.5237 35.9249 88.5578 36.116C88.592 36.3071 88.4896 36.5187 88.5237 36.7098C88.5578 36.901 88.6875 37.0784 88.7216 37.2696C88.7558 37.4607 88.7216 37.6655 88.7558 37.8566C88.7899 38.0477 88.8991 38.232 88.9264 38.4232C88.9537 38.6143 88.9059 38.8259 88.9333 39.017C88.9606 39.2081 88.9879 39.4061 89.0152 39.5972C89.0425 39.7883 89.1449 39.9726 89.1722 40.1638C89.1995 40.3549 89.1039 40.5733 89.1312 40.7644C89.1585 40.9556 89.1858 41.1535 89.2199 41.3447C89.2541 41.5358 89.4725 41.6996 89.4998 41.8907C89.5271 42.0819 89.3838 42.3071 89.4111 42.4982C89.4384 42.6894 89.4793 42.8873 89.5066 43.0716C89.5339 43.2559 89.6704 43.4402 89.6978 43.6313C89.7251 43.8225 89.8138 44.0136 89.8411 44.2047C89.8684 44.3958 89.7114 44.6211 89.7387 44.8122C89.766 45.0034 89.9162 45.1877 89.9435 45.372C89.9708 45.5563 90.0391 45.7542 90.0664 45.9453C90.0937 46.1433 89.964 46.3549 89.9913 46.546C90.0186 46.744 90.1005 46.9351 90.121 47.1194C90.1414 47.3242 90.0664 47.5289 90.0868 47.7132C90.1073 47.918 90.1414 48.1092 90.1551 48.2866C90.1756 48.4982 90.2507 48.6894 90.2575 48.86C90.2711 49.0921 90.4213 49.29 90.4213 49.4402C90.4213 49.645 90.278 49.8498 90.2711 50.0614C90.2643 50.273 90.2506 50.4777 90.2506 50.6825C90.2506 50.8873 90.3189 51.0989 90.3121 51.3037C90.3053 51.5085 90.3599 51.7201 90.353 51.9248C90.3462 52.1296 90.2506 52.3412 90.2506 52.546C90.2506 52.7508 90.3462 52.9624 90.3394 53.1672C90.3326 53.3719 90.2233 53.5835 90.2233 53.7883C90.2233 53.9863 90.2575 54.1774 90.2506 54.3754C90.2438 54.5733 90.2097 54.7644 90.2029 54.9624C90.196 55.1603 90.1414 55.3515 90.1346 55.5494C90.1278 55.7474 90.3053 55.9453 90.3053 56.1364C90.3053 56.3276 90.237 56.5255 90.237 56.7235C90.237 56.9214 90.2097 57.1126 90.2097 57.3105C90.2097 57.5085 90.2302 57.6996 90.2302 57.8975C90.2302 58.0955 90.0664 58.2866 90.0664 58.4846C90.0664 58.6825 90.1892 58.8805 90.1892 59.0716C90.1892 59.2627 90.0732 59.4607 90.0664 59.6586C90.0595 59.8566 90.0527 60.0477 90.0459 60.2457C90.0391 60.4436 90.0322 60.6347 90.0322 60.8327C90.0322 61.0306 90.1619 61.2286 90.1619 61.4197C90.1619 61.6108 90.1687 61.8088 90.1619 62.0067C90.1551 62.2047 90.2165 62.3958 90.2097 62.5938C90.2029 62.7917 90.0868 62.9829 90.08 63.1808C90.0732 63.3788 90.1346 63.5699 90.1346 63.7678C90.1346 63.9658 90.0732 64.1569 90.0732 64.3549C90.0732 64.5528 90.2097 64.7508 90.2097 64.9419C90.2097 65.133 90.0527 65.331 90.0459 65.5289C90.0391 65.7269 90.1141 65.918 90.1141 66.116C90.1141 66.3139 90.0527 66.505 90.0527 66.703C90.0527 66.9009 90.0664 67.0921 90.0664 67.29C90.0664 67.488 90.1141 67.6791 90.1141 67.877C90.1141 68.0682 90.1278 68.2661 90.121 68.4572C90.1141 68.6484 89.9571 68.8463 89.9571 69.0374C89.9571 69.2286 90.1141 69.4265 90.1141 69.6245C90.1141 69.8224 90.039 70.0136 90.039 70.2047C90.039 70.3958 89.9367 70.5938 89.9367 70.7849C89.9367 70.976 90.0664 71.174 90.0595 71.3651C90.0527 71.5562 90.08 71.7542 90.0732 71.9453C90.0663 72.1364 90.1005 72.3344 90.1005 72.5255C90.1005 72.7166 90.08 72.9146 90.0732 73.1057C90.0663 73.2968 90.0732 73.4948 90.0732 73.6859C90.0732 73.877 90.0732 74.075 90.0732 74.2661C90.0732 74.4572 90.1005 74.6552 90.1005 74.8463C90.1005 75.0374 90.0459 75.2354 90.0459 75.4265C90.0459 75.6176 90.0322 75.8156 90.0254 76.0067C90.0186 76.1979 89.8889 76.3958 89.8889 76.5869C89.8889 76.7781 89.8616 76.976 89.8616 77.1671C89.8616 77.3583 89.9435 77.5562 89.9367 77.7473C89.9298 77.9385 90.0868 78.1364 90.08 78.3344C90.0732 78.5323 89.9367 78.7234 89.9298 78.9146C89.923 79.1057 90.0049 79.3036 89.9981 79.4948C89.9913 79.6859 90.0186 79.8839 90.0117 80.075C90.0049 80.2661 89.8411 80.4572 89.8411 80.6552C89.8411 80.8531 89.8684 81.0443 89.8684 81.2354C89.8684 81.4265 89.9298 81.6245 89.9298 81.8156C89.9298 82.0067 89.7865 82.1978 89.7797 82.3958C89.7728 82.5938 89.8548 82.7849 89.8479 82.9828C89.8411 83.1808 89.7524 83.3651 89.7455 83.563C89.7455 83.761 89.8752 83.9589 89.8684 84.1569C89.8616 84.3548 89.9298 84.5528 89.923 84.7507C89.9162 84.9487 89.9093 85.1466 89.9025 85.3378C89.8957 85.5289 89.7524 85.72 89.7387 85.918C89.7251 86.1159 89.6909 86.3071 89.6773 86.505C89.6636 86.703 89.6977 86.9009 89.6909 87.0989C89.6841 87.2968 89.6363 87.4879 89.6227 87.6859C89.609 87.8838 89.7182 88.0886 89.7046 88.2797C89.6909 88.4709 89.6773 88.6688 89.6636 88.8668C89.65 89.0647 89.609 89.2559 89.5954 89.4538C89.5817 89.6518 89.609 89.8497 89.5954 90.0477C89.5817 90.2456 89.3292 90.4231 89.3155 90.6142C89.3018 90.8053 89.2882 91.0033 89.2746 91.2012C89.2609 91.3992 89.3633 91.604 89.3496 91.8019C89.336 91.9999 89.2677 92.191 89.2541 92.3821C89.2404 92.5732 89.2063 92.7712 89.1858 92.9692C89.1653 93.1671 89.2472 93.3719 89.2336 93.563C89.2199 93.7405 89.1449 93.918 89.1175 94.0954C89.0902 94.2729 89.0356 94.4436 89.0015 94.621C88.9674 94.7985 89.0356 94.9965 89.0015 95.1739C88.9674 95.3514 88.8309 95.5016 88.7831 95.6722C88.7353 95.8429 88.5851 95.9862 88.5305 96.1569C88.4759 96.3275 88.5851 96.5528 88.5305 96.7234C88.4691 96.9214 88.3053 97.1398 88.1346 97.3173C87.964 97.4948 87.7251 97.5835 87.5408 97.6791C87.3769 97.761 87.2609 97.918 87.0971 97.9999C86.9333 98.0818 86.7694 98.1569 86.6124 98.2319C86.4554 98.307 86.2165 98.2388 86.0527 98.3207C85.8889 98.4026 85.7455 98.505 85.5817 98.5869C85.4179 98.6688 85.2268 98.6893 85.0698 98.778C84.906 98.8668 84.7967 99.0442 84.6261 99.1193C84.4554 99.1944 84.2643 99.2081 84.0937 99.2763C83.923 99.3446 83.7387 99.3719 83.5612 99.4265C83.3838 99.4811 83.2336 99.6108 83.0493 99.6517C82.865 99.6927 82.6944 99.7883 82.51 99.8087C82.3258 99.8292 82.1346 99.761 81.9503 99.7678C81.7524 99.7678 81.5544 99.8156 81.3565 99.8156C81.1585 99.8156 80.9606 99.8361 80.7626 99.8361C80.5647 99.8361 80.3667 99.9453 80.1688 99.9453C79.9708 99.9453 79.7729 99.8975 79.5749 99.8975C79.377 99.8975 79.179 99.8975 78.981 99.8975C78.7831 99.8975 78.5851 99.8702 78.3872 99.877C78.1892 99.8838 77.9913 99.9248 77.7933 99.9248C77.5954 99.9248 77.3974 99.9453 77.1995 99.9521C77.0015 99.9589 76.8036 99.8702 76.6056 99.8702C76.4077 99.8702 76.2097 99.8907 76.0118 99.8975C75.8138 99.9043 75.6159 99.8429 75.4179 99.8429C75.22 99.8429 75.022 100.007 74.8241 100.007C74.6261 100.007 74.4281 99.8565 74.2302 99.8565C74.0322 99.8565 73.8343 99.8633 73.6363 99.8702C73.4384 99.877 73.2404 99.8975 73.0425 99.8975C72.8445 99.8975 72.6466 99.9726 72.4486 99.9726C72.2507 99.9726 72.0527 99.8292 71.8548 99.8292C71.6568 99.8292 71.4589 99.918 71.2609 99.918C71.063 99.918 70.865 100.041 70.6671 100.041C70.4691 100.041 70.2712 99.9248 70.0732 99.9248C69.8753 99.9248 69.6773 99.8975 69.4793 99.8975C69.2814 99.8975 69.0835 99.9589 68.8855 99.9589C68.6875 99.9589 68.4896 99.9862 68.2916 99.9862C68.0937 99.9862 67.9026 99.8019 67.7046 99.8019C67.5067 99.8019 67.3087 99.8633 67.1107 99.8633C66.9128 99.8633 66.7149 99.9521 66.5169 99.9521C66.3189 99.9521 66.121 99.9657 65.923 99.9589C65.7251 99.9521 65.5271 99.877 65.3292 99.8702C65.1312 99.8633 64.9333 99.8292 64.7353 99.8224C64.5374 99.8156 64.3394 99.8019 64.1415 99.7951C63.9435 99.7883 63.7456 99.836 63.5476 99.8292C63.3497 99.8224 63.1585 99.6995 62.9606 99.6859C62.7626 99.6722 62.5578 99.8633 62.3599 99.8497C62.1619 99.8429 61.9572 99.8224 61.7592 99.8156C61.5613 99.8087 61.3633 99.604 61.1654 99.5971C60.9674 99.5903 60.7626 99.5835 60.5647 99.5767C60.3667 99.5698 60.162 99.6176 59.964 99.6108C59.766 99.604 59.5613 99.7268 59.3565 99.72C59.1517 99.7132 58.9538 99.6995 58.7558 99.6927C58.5579 99.6859 58.3599 99.5357 58.1551 99.5289C57.9504 99.522 57.7524 99.5562 57.5544 99.5493C57.3565 99.5425 57.1517 99.5562 56.9538 99.5493C56.7558 99.5425 56.551 99.6176 56.3531 99.6176C56.1551 99.6176 55.9572 99.5289 55.7524 99.522C55.5476 99.5152 55.3497 99.6449 55.1449 99.6381C54.9401 99.6313 54.749 99.4333 54.551 99.4265C54.3531 99.4197 54.1483 99.5971 53.9435 99.5903C53.7387 99.5835 53.5408 99.4606 53.3428 99.4538C53.3428 99.4811 53.3428 99.5562 53.3428 99.5835L53.3838 99.6381Z" fill="#007257"/>
</svg>
