<svg width="93" height="96" viewBox="0 0 93 96" fill="none" xmlns="http://www.w3.org/2000/svg">
<path d="M92.052 51.6072C92.0383 51.7915 92.1134 51.9758 92.0998 52.1669C92.0861 52.3581 91.9837 52.5355 91.9701 52.7198C91.9564 52.9041 91.9974 53.0953 91.9837 53.2864C91.9701 53.4775 91.9564 53.6618 91.9428 53.8461C91.9291 54.0304 91.9905 54.2215 91.9837 54.4127C91.9769 54.6038 91.9086 54.7813 91.895 54.9724C91.8813 55.1635 91.8062 55.341 91.7926 55.5321C91.7789 55.7233 91.7653 55.9075 91.7516 56.0918C91.738 56.2761 91.7175 56.4673 91.7039 56.6516C91.6902 56.8359 91.8677 57.0406 91.8472 57.2318C91.8267 57.4229 91.7721 57.6072 91.7516 57.7915C91.7312 57.9758 91.6834 58.1669 91.6629 58.3512C91.6424 58.5423 91.581 58.7267 91.5537 58.9178C91.5264 59.1089 91.4786 59.2932 91.4513 59.4843C91.424 59.6754 91.383 59.8598 91.3489 60.0509C91.3148 60.242 91.2056 60.4127 91.1783 60.6038C91.151 60.7949 91.2875 61.0133 91.2534 61.1976C91.2192 61.3819 91.1373 61.5662 91.0964 61.7505C91.0554 61.9348 90.9257 62.1055 90.8848 62.2898C90.8438 62.4741 90.8711 62.6789 90.8301 62.8632C90.7892 63.0475 90.6936 63.2249 90.6527 63.4092C90.6117 63.5799 90.5571 63.7505 90.5093 63.9212C90.4616 64.0918 90.5298 64.3103 90.4684 64.4741C90.4069 64.6379 90.1817 64.7471 90.1134 64.9109C90.0452 65.0748 90.0179 65.2591 89.9428 65.4229C89.8677 65.5867 89.9155 65.8051 89.8404 65.969C89.7653 66.1328 89.7243 66.3103 89.6493 66.4741C89.5742 66.6447 89.308 66.7403 89.2329 66.9109C89.1578 67.0816 89.0895 67.2659 89.0145 67.4365C88.9394 67.6072 88.9667 67.8324 88.8916 68.0031C88.8165 68.1737 88.7209 68.3444 88.6459 68.5219C88.5708 68.6993 88.4069 68.829 88.325 69.0065C88.2431 69.184 88.1953 69.3683 88.1203 69.5389C88.0452 69.7096 88.0452 69.9212 87.9633 70.0987C87.8813 70.2761 87.8063 70.4468 87.7243 70.6174C87.6424 70.7881 87.6015 70.986 87.5196 71.1567C87.4377 71.3273 87.1646 71.4024 87.0759 71.5662C86.9871 71.73 86.9871 71.9485 86.8916 72.1123C86.796 72.2761 86.7824 72.4946 86.6868 72.6584C86.5912 72.8222 86.4138 72.9451 86.3182 73.1089C86.2226 73.2727 86.093 73.416 85.9837 73.5799C85.8745 73.7437 85.854 73.9553 85.7517 74.1123C85.6493 74.2693 85.5264 74.4195 85.4172 74.5833C85.308 74.7471 85.1919 74.8973 85.0827 75.0543C84.9735 75.2113 84.7482 75.2864 84.639 75.4434C84.5298 75.6003 84.5503 75.8461 84.4411 76.0031C84.3319 76.1601 84.1749 76.2829 84.0657 76.4399C83.9564 76.5969 83.9018 76.7949 83.7926 76.9519C83.6834 77.1089 83.5878 77.2795 83.4786 77.4365C83.3694 77.5935 83.11 77.6481 83.0008 77.8051C82.9053 77.9416 82.837 78.0918 82.7141 78.2079C82.5912 78.3239 82.4001 78.358 82.2772 78.4604C82.1544 78.5628 82.0793 78.7539 81.9701 78.8768C81.8404 79.0201 81.7653 79.2113 81.6424 79.3614C81.5196 79.5116 81.2943 79.573 81.1715 79.7232C81.0486 79.8734 80.9599 80.0508 80.8302 80.1942C80.7005 80.3375 80.5776 80.4877 80.4411 80.6174C80.2977 80.7539 80.2431 80.986 80.0998 81.1225C79.9564 81.259 79.7039 81.2795 79.5537 81.416C79.4035 81.5526 79.2807 81.7027 79.1305 81.8392C78.9803 81.9758 78.8506 82.1191 78.7005 82.2488C78.5503 82.3785 78.4001 82.5082 78.2568 82.6447C78.1134 82.7812 78.0247 82.9792 77.8745 83.1089C77.7244 83.2386 77.4581 83.2386 77.308 83.3683C77.1578 83.498 77.0827 83.7232 76.9325 83.8461C76.7824 83.9689 76.6049 84.0713 76.4479 84.1942C76.2909 84.3239 76.168 84.4877 76.0042 84.6174C75.8404 84.7471 75.7039 84.8973 75.5469 85.0201C75.3899 85.143 75.1169 85.1225 74.953 85.2522C74.7892 85.3819 74.68 85.5594 74.5162 85.6823C74.3524 85.8051 74.1476 85.8666 73.9837 85.9894C73.8199 86.1123 73.7653 86.3717 73.6015 86.4945C73.4377 86.6174 73.267 86.7198 73.1032 86.8427C72.9394 86.9655 72.7414 87.0338 72.5776 87.1498C72.4138 87.2659 72.2022 87.3205 72.0384 87.4434C71.8745 87.5662 71.7107 87.6823 71.5469 87.7983C71.3831 87.9143 71.3148 88.1669 71.1442 88.2829C70.9735 88.399 70.7005 88.3512 70.5298 88.4672C70.3728 88.5765 70.2363 88.7198 70.0793 88.8222C69.9223 88.9246 69.8199 89.1294 69.6629 89.2317C69.5059 89.3341 69.3626 89.4775 69.1988 89.5798C69.035 89.6822 68.8506 89.7505 68.6868 89.8529C68.523 89.9553 68.3319 90.0099 68.1681 90.1055C68.0042 90.201 67.8063 90.242 67.6425 90.3375C67.4786 90.4331 67.3762 90.6515 67.2056 90.7403C67.035 90.829 66.7756 90.7403 66.6049 90.8222C66.4343 90.9041 66.2841 91.0269 66.1134 91.1157C65.9428 91.2044 65.7858 91.3136 65.6152 91.3956C65.4445 91.4775 65.2807 91.5799 65.1032 91.6549C64.9257 91.73 64.7824 91.8802 64.6049 91.9484C64.4274 92.0167 64.209 91.9962 64.0315 92.0645C63.8541 92.1328 63.6766 92.2078 63.4991 92.2761C63.3217 92.3444 63.1237 92.3717 62.9462 92.4331C62.7687 92.4945 62.5776 92.4945 62.4002 92.556C62.2227 92.6174 62.0725 92.7403 61.895 92.8017C61.7176 92.8631 61.5264 92.8631 61.3489 92.9246C61.1715 92.986 61.0077 93.0747 60.8302 93.1362C60.6527 93.1976 60.5162 93.3614 60.3387 93.4229C60.1612 93.4843 59.9906 93.5525 59.8131 93.614C59.6356 93.6754 59.4786 93.7915 59.308 93.8461C59.1373 93.9007 58.8916 93.7778 58.721 93.8392C58.5503 93.9007 58.366 93.9485 58.1885 94.0099C58.0111 94.0713 57.8882 94.2897 57.7107 94.3444C57.5196 94.4058 57.3285 94.5014 57.1305 94.5423C56.9326 94.5833 56.7141 94.4945 56.5094 94.5218C56.3046 94.5491 56.1135 94.6242 55.9155 94.6515C55.738 94.6788 55.5537 94.6583 55.3763 94.6788C55.1988 94.6993 55.0213 94.7676 54.8438 94.788C54.6664 94.8085 54.4752 94.7266 54.2978 94.7471C54.0998 94.7676 53.9087 94.8973 53.7107 94.9246C53.5128 94.9519 53.2875 94.8222 53.0896 94.8563C52.8916 94.8904 52.7005 94.9996 52.5026 95.0269C52.3046 95.0543 52.1135 95.143 51.9087 95.1703C51.7039 95.1976 51.506 95.2249 51.308 95.2522C51.1101 95.2795 50.8985 95.2317 50.7005 95.2522C50.5026 95.2727 50.2909 95.2044 50.093 95.2181C49.895 95.2317 49.6971 95.4228 49.4923 95.4228C49.2875 95.4228 49.0828 95.4228 48.8848 95.4228C48.6869 95.4228 48.4821 95.2181 48.2773 95.2181C48.0725 95.2181 47.8677 95.3682 47.6698 95.3614C47.4718 95.3546 47.2671 95.2181 47.0691 95.2112C46.8712 95.2044 46.6664 95.2249 46.4616 95.2112C46.2568 95.1976 46.0589 95.143 45.8609 95.1293C45.663 95.1157 45.4514 95.259 45.2466 95.2454C45.0418 95.2317 44.8439 95.2181 44.6391 95.2044C44.4343 95.1908 44.2363 95.1157 44.0384 95.102C43.8404 95.0884 43.6357 95.0611 43.4309 95.0474C43.2466 95.0338 43.0759 94.9246 42.8916 94.9109C42.7073 94.8972 42.5026 95.0747 42.3251 95.0543C42.1476 95.0338 41.977 94.8904 41.7995 94.8631C41.622 94.8358 41.4377 94.8222 41.2534 94.7949C41.0691 94.7676 40.8916 94.7198 40.7142 94.6925C40.5367 94.6652 40.3524 94.6242 40.1749 94.5969C39.9974 94.5696 39.82 94.5014 39.6357 94.4809C39.4718 94.4604 39.2671 94.474 39.1032 94.5082C38.9121 94.5491 38.7346 94.5696 38.5435 94.5764C38.3524 94.5833 38.1613 94.6788 37.9701 94.6583C37.779 94.6379 37.5811 94.6447 37.3899 94.6037C37.1988 94.5628 37.0282 94.4536 36.8439 94.399C36.6596 94.3512 36.4957 94.2488 36.3114 94.201C36.1271 94.1532 35.9155 94.2147 35.7312 94.1669C35.5469 94.1191 35.4036 93.9212 35.2261 93.8734C35.0486 93.8256 34.8643 93.771 34.68 93.7232C34.4957 93.6754 34.3114 93.6549 34.1271 93.6072C33.9428 93.5594 33.7654 93.4979 33.5811 93.4502C33.3968 93.4024 33.2193 93.3478 33.035 93.2932C32.8507 93.2385 32.6186 93.3819 32.4343 93.3341C32.25 93.2863 32.1271 93.0406 31.9428 92.986C31.7585 92.9314 31.5469 92.986 31.3695 92.9314C31.1852 92.8768 30.9872 92.8495 30.8097 92.7812C30.6323 92.713 30.4411 92.6583 30.2637 92.5901C30.0862 92.5218 29.9155 92.4263 29.7381 92.3444C29.5606 92.2625 29.4445 92.0645 29.2739 91.9758C29.1033 91.887 28.9121 91.8392 28.7415 91.7505C28.5708 91.6618 28.3524 91.6549 28.1886 91.5526C28.0248 91.4502 27.936 91.2317 27.7722 91.1293C27.6084 91.027 27.3763 91.0338 27.2125 90.9314C27.0487 90.829 26.919 90.672 26.762 90.5696C26.605 90.4672 26.407 90.4058 26.25 90.3034C26.0794 90.1874 25.977 89.9689 25.8063 89.8529C25.6357 89.7369 25.4582 89.6208 25.2876 89.5116C25.1169 89.4024 24.919 89.3205 24.7483 89.2044C24.5777 89.0884 24.3661 89.0269 24.1954 88.9177C24.0248 88.8085 23.7927 88.7812 23.6152 88.6652C23.4377 88.5491 23.2876 88.4058 23.1169 88.2898C22.9463 88.1737 22.7551 88.0781 22.5845 87.9621C22.4139 87.8461 22.3046 87.6413 22.1408 87.5184C21.9838 87.4024 21.8541 87.259 21.6971 87.143C21.5401 87.027 21.4173 86.87 21.2603 86.7539C21.1033 86.6379 20.8575 86.6515 20.7005 86.5355C20.5435 86.4194 20.4139 86.2693 20.2569 86.1532C20.0999 86.0372 19.9975 85.8529 19.8405 85.7369C19.6835 85.6208 19.5197 85.5116 19.3695 85.3956C19.2193 85.2795 18.9599 85.2863 18.8098 85.1703C18.6596 85.0543 18.4958 84.9382 18.3456 84.8154C18.1954 84.6925 18.0862 84.515 17.936 84.399C17.7859 84.2829 17.6016 84.201 17.4446 84.0782C17.2876 83.9553 17.1647 83.8051 17.0145 83.6823C16.8644 83.5594 16.6801 83.4775 16.5299 83.3478C16.3797 83.2181 16.2364 83.0952 16.0862 82.9655C15.936 82.8358 15.8268 82.672 15.6835 82.5423C15.5401 82.4126 15.4104 82.2625 15.2739 82.1328C15.1374 82.0031 14.9872 81.8734 14.8439 81.7369C14.7005 81.6003 14.5299 81.5048 14.3934 81.3683C14.2569 81.2317 14.1067 81.1021 13.977 80.9587C13.8473 80.8154 13.7722 80.6174 13.6425 80.4741C13.5128 80.3307 13.3354 80.2215 13.2125 80.0782C13.0896 79.9348 13.0077 79.7573 12.8917 79.6072C12.7756 79.457 12.6937 79.2864 12.5777 79.1362C12.4616 78.986 12.2569 78.8973 12.1545 78.7403C12.0521 78.5833 12.0726 78.3376 11.9702 78.1806C11.8678 78.0236 11.6289 77.9485 11.5265 77.7915C11.4241 77.6345 11.4787 77.3683 11.3763 77.2113C11.2739 77.0474 11.0692 76.9382 10.9668 76.7744C10.8644 76.6106 10.762 76.4399 10.6596 76.2761C10.5572 76.1123 10.4685 75.9348 10.3593 75.771C10.25 75.6072 10.2227 75.3956 10.1135 75.2318C10.0043 75.0679 9.89509 74.9109 9.7927 74.7403C9.69031 74.5696 9.47189 74.4809 9.3695 74.3102C9.26711 74.1396 9.30124 73.8939 9.19885 73.7232C9.09646 73.5526 8.96676 73.4024 8.8712 73.2386C8.77563 73.0747 8.51626 72.9929 8.42069 72.829C8.32513 72.6652 8.19544 72.5082 8.09987 72.3376C7.99749 72.1737 7.97701 71.9621 7.87462 71.7915C7.77223 71.6208 7.61523 71.498 7.51284 71.3273C7.41046 71.1567 7.31489 70.9928 7.2125 70.829C7.11011 70.6652 7.04868 70.4741 6.94629 70.3103C6.8439 70.1464 6.77565 69.9621 6.67326 69.7915C6.57087 69.6208 6.59134 69.3888 6.49578 69.2181C6.40021 69.0475 6.17496 68.9519 6.07939 68.7881C5.98383 68.6243 5.99748 68.3922 5.89509 68.2215C5.7927 68.0509 5.56745 67.9621 5.47189 67.7915C5.37632 67.6208 5.26028 67.4638 5.17155 67.2932C5.08281 67.1225 5.13742 66.87 5.04868 66.6993C4.95995 66.5287 4.76881 66.4127 4.68008 66.2352C4.59134 66.0577 4.59817 65.8324 4.50943 65.655C4.42069 65.4775 4.25687 65.3341 4.16813 65.1567C4.0794 64.9792 3.9224 64.829 3.84731 64.6447C3.77223 64.4604 3.84049 64.2147 3.76541 64.0304C3.69032 63.8461 3.60159 63.6686 3.53333 63.4775C3.46507 63.2864 3.24663 63.1567 3.17837 62.9724C3.11012 62.7881 3.15108 62.5628 3.08964 62.3717C3.02821 62.1806 3.00773 61.9826 2.9463 61.7915C2.88486 61.6004 2.70738 61.4434 2.65278 61.2522C2.59817 61.0611 2.63913 60.8427 2.58452 60.6516C2.52991 60.4604 2.40022 60.2898 2.35244 60.0918C2.30466 59.8939 2.2637 59.7028 2.21592 59.5116C2.16813 59.3205 2.2637 59.0953 2.22275 58.8973C2.18179 58.6994 2.03845 58.5287 1.99749 58.3307C1.95654 58.1328 1.99749 57.928 1.96336 57.7301C1.92923 57.5321 1.96336 57.3273 1.93606 57.1294C1.90876 56.9314 1.87463 56.7403 1.8405 56.5424C1.80637 56.3444 1.69715 56.1601 1.66985 55.9621C1.64255 55.771 1.54015 55.5936 1.51285 55.4024C1.48554 55.2113 1.48554 55.0134 1.45824 54.8222C1.43093 54.6311 1.52651 54.4263 1.4992 54.2352C1.4719 54.0441 1.28077 53.8734 1.26029 53.6823C1.23981 53.4912 1.25347 53.2932 1.23299 53.1021C1.21251 52.9109 1.15108 52.7198 1.13743 52.5287C1.12378 52.3376 1.23981 52.1328 1.22616 51.9417C1.21251 51.7506 1.11694 51.5594 1.11012 51.3683C1.10329 51.1772 1.06234 50.986 1.05551 50.7881C1.04868 50.5901 1.1579 50.399 1.15107 50.2011C1.14425 50.0031 0.973602 49.8188 0.973602 49.6277C0.973602 49.4366 1.1579 49.2386 1.15107 49.0475C1.14425 48.8564 1.06916 48.6584 1.07599 48.4673C1.08281 48.2762 1.02138 48.0782 1.02138 47.8871C1.02138 47.6959 1.06234 47.498 1.06916 47.3069C1.07599 47.1157 1.06917 46.9178 1.08282 46.7267C1.09647 46.5355 1.04186 46.3376 1.05551 46.1465C1.06916 45.9553 1.25347 45.771 1.27394 45.5799C1.29442 45.3888 1.19886 45.184 1.21251 44.9929C1.22617 44.8018 1.21251 44.6038 1.23299 44.4127C1.25347 44.2216 1.43094 44.0441 1.45142 43.8529C1.47189 43.6618 1.35585 43.4502 1.37633 43.2591C1.39681 43.068 1.37634 42.87 1.40364 42.6789C1.43094 42.4878 1.56063 42.3103 1.59476 42.1192C1.62889 41.928 1.73128 41.7506 1.75858 41.5594C1.78588 41.3683 1.73128 41.1635 1.76541 40.9724C1.79954 40.7813 1.88145 40.6038 1.91558 40.4127C1.94971 40.2215 2.05892 40.0509 2.09988 39.8598C2.14083 39.6686 1.97019 39.4434 2.01115 39.2523C2.0521 39.0611 2.09987 38.8768 2.14083 38.6857C2.18179 38.4946 2.41387 38.3512 2.45483 38.1601C2.49578 37.969 2.37974 37.7437 2.4207 37.5594C2.46848 37.3683 2.47531 37.1635 2.52309 36.9724C2.57087 36.7813 2.63913 36.5902 2.68691 36.399C2.73469 36.2079 2.80978 36.0236 2.86439 35.8325C2.919 35.6413 2.93946 35.4434 2.99407 35.2523C3.04868 35.0611 3.17838 34.8905 3.23298 34.7062C3.28759 34.5219 3.30125 34.3103 3.35586 34.126C3.41046 33.9417 3.47871 33.7506 3.54015 33.5595C3.60158 33.3683 3.64936 33.1772 3.7108 32.9929C3.77223 32.8086 3.80637 32.6038 3.8678 32.4195C3.92923 32.2352 4.0794 32.0714 4.14766 31.8871C4.21591 31.7028 4.19544 31.4844 4.2637 31.3001C4.33195 31.1158 4.55722 30.9861 4.62548 30.8018C4.69374 30.6175 4.56404 30.3581 4.63912 30.1738C4.71421 29.9895 4.87121 29.8393 4.93947 29.655C5.00773 29.4707 5.07598 29.2864 5.15107 29.1021C5.22615 28.9178 5.29442 28.7335 5.3695 28.5492C5.44459 28.3649 5.52649 28.1874 5.6084 28.0031C5.69032 27.8188 5.7927 27.6482 5.87461 27.4707C5.95653 27.2932 6.05209 27.1158 6.134 26.9383C6.21591 26.7608 6.35244 26.6038 6.43435 26.4263C6.51626 26.2489 6.56404 26.0509 6.64595 25.8734C6.72786 25.696 6.83024 25.5253 6.91898 25.3479C7.00772 25.1772 7.15106 25.0338 7.2398 24.8632C7.32854 24.6926 7.22616 24.4264 7.32172 24.2557C7.41728 24.0851 7.48554 23.9076 7.57428 23.7369C7.66301 23.5663 7.84049 23.4434 7.92923 23.2728C8.01796 23.1021 8.15448 22.9588 8.24321 22.7881C8.33195 22.6175 8.37974 22.4264 8.4753 22.2557C8.57087 22.0851 8.78247 21.9895 8.87803 21.8188C8.97359 21.6482 8.91216 21.3956 9.00772 21.225C9.10329 21.0543 9.16471 20.87 9.2671 20.7062C9.36949 20.5424 9.49919 20.3922 9.59476 20.2284C9.69032 20.0646 9.80635 19.9076 9.90874 19.7438C10.0111 19.5799 10.0726 19.3888 10.175 19.225C10.2773 19.0612 10.5367 18.9997 10.6391 18.8359C10.7415 18.6721 10.7142 18.4264 10.8234 18.2625C10.9326 18.0987 11.1169 17.9963 11.2262 17.8325C11.3354 17.6687 11.3763 17.4707 11.4924 17.3137C11.6084 17.1567 11.7313 17.0134 11.8405 16.8564C11.9497 16.6994 12.0589 16.5424 12.175 16.3854C12.291 16.2284 12.5436 16.1806 12.6596 16.0304C12.7756 15.8803 12.8029 15.6619 12.919 15.5049C13.035 15.3479 13.1784 15.2182 13.2944 15.068C13.4104 14.9178 13.5606 14.7881 13.6767 14.638C13.7927 14.4878 13.7995 14.2421 13.9224 14.0987C14.0453 13.9554 14.1545 13.7847 14.2773 13.6414C14.4002 13.498 14.5913 13.4025 14.7142 13.2591C14.8371 13.1158 15.0418 13.0339 15.1647 12.8905C15.2944 12.7472 15.3968 12.5765 15.5265 12.4332C15.6562 12.2898 15.7108 12.0714 15.8473 11.9281C15.9838 11.7847 16.2091 11.7301 16.3456 11.5936C16.4821 11.4571 16.5504 11.2455 16.6937 11.1158C16.8371 10.9861 17.0896 10.9656 17.233 10.8359C17.3763 10.7062 17.4173 10.4673 17.5674 10.3308C17.7176 10.1943 17.8678 10.0782 18.0111 9.95537C18.1545 9.83251 18.3456 9.75061 18.4958 9.62774C18.6459 9.50488 18.7825 9.36834 18.9326 9.24547C19.0828 9.1226 19.1579 8.89735 19.3149 8.78131C19.4719 8.66527 19.7517 8.71306 19.9087 8.59702C20.0657 8.48098 20.1818 8.31032 20.3388 8.2011C20.4958 8.09189 20.6528 7.97585 20.8166 7.86664C20.9804 7.75743 21.1511 7.66869 21.3149 7.5663C21.4787 7.46391 21.6289 7.34106 21.7995 7.23867C21.9702 7.13628 22.1545 7.08165 22.3251 6.98609C22.4958 6.89053 22.6459 6.76084 22.8166 6.6721C22.9872 6.58337 23.1306 6.43319 23.308 6.34445C23.4855 6.25571 23.663 6.18064 23.8405 6.09873C24.0179 6.01682 24.1954 5.93491 24.3729 5.853C24.5504 5.77109 24.7415 5.71647 24.919 5.64138C25.0964 5.5663 25.2261 5.382 25.4036 5.30008C25.5811 5.21817 25.7927 5.23183 25.9702 5.15675C26.1476 5.08166 26.3115 4.97245 26.4889 4.90419C26.6664 4.83593 26.8439 4.75401 27.0214 4.68575C27.1988 4.6175 27.3763 4.52877 27.5538 4.46051C27.7312 4.39225 27.9702 4.46051 28.1476 4.39908C28.3251 4.33764 28.4411 4.07825 28.6186 4.00999C28.7961 3.94173 29.0418 4.05778 29.2261 3.99635C29.4104 3.93492 29.5333 3.71648 29.7176 3.64822C29.9019 3.57996 30.134 3.67551 30.3114 3.61408C30.4889 3.55264 30.6391 3.37518 30.8234 3.32057C31.0077 3.26596 31.1715 3.14993 31.3558 3.09532C31.5401 3.04071 31.7517 3.06802 31.936 3.01341C32.1203 2.95881 32.3114 2.93831 32.5026 2.89053C32.6937 2.84275 32.8575 2.71307 33.0418 2.66528C33.2261 2.6175 33.4309 2.63797 33.6152 2.59019C33.7995 2.54241 34.0111 2.59702 34.2022 2.55607C34.3865 2.51511 34.5367 2.31035 34.7278 2.26939C34.9189 2.22843 35.1169 2.26937 35.3012 2.22842C35.4855 2.18746 35.6698 2.11921 35.8541 2.08508C36.0384 2.05095 36.25 2.15335 36.4411 2.11922C36.6323 2.08509 36.8097 2.00318 36.994 1.96905C37.1783 1.93492 37.349 1.79157 37.5401 1.75745C37.7312 1.72332 37.9087 1.64822 38.0998 1.61409C38.291 1.57996 38.4957 1.66188 38.68 1.62775C38.8643 1.59362 39.0623 1.57996 39.2466 1.55265C39.4241 1.51853 39.6084 1.50488 39.7858 1.47075C39.9633 1.43662 40.134 1.36154 40.3114 1.32741C40.4889 1.29328 40.68 1.30692 40.8575 1.27279C41.035 1.23866 41.2125 1.17041 41.3899 1.14993C41.5674 1.12945 41.7517 1.12262 41.936 1.10214C42.134 1.08166 42.3251 0.951977 42.5299 0.938325C42.7346 0.924673 42.9326 0.917849 43.1374 0.897371C43.3422 0.876893 43.5537 1.01341 43.7585 0.999756C43.9633 0.986104 44.1476 0.801806 44.3456 0.788154C44.5435 0.774502 44.7551 0.81545 44.9531 0.801798C45.151 0.788146 45.3558 0.801812 45.5606 0.794986C45.7654 0.78816 45.9701 0.842766 46.1681 0.83594C46.366 0.829114 46.5708 0.706246 46.7688 0.706246C46.9667 0.706246 47.1715 0.685755 47.3763 0.692581C47.5742 0.692581 47.7654 0.767684 47.9633 0.774509C48.1613 0.781335 48.3592 0.665278 48.5572 0.672104C48.7551 0.67893 48.9462 0.733548 49.1442 0.7472C49.3421 0.760852 49.5264 0.876887 49.7244 0.890539C49.9223 0.90419 50.1271 0.822288 50.3182 0.83594C50.5094 0.849592 50.7073 0.92468 50.8985 0.945158C51.0896 0.965636 51.2944 0.945143 51.4923 0.972446C51.6903 0.99975 51.8677 1.14993 52.0589 1.17724C52.25 1.20454 52.4616 1.1431 52.6527 1.1704C52.8438 1.19771 53.0281 1.31375 53.2261 1.34105C53.424 1.36836 53.6425 1.23866 53.8336 1.27279C54.0247 1.30692 54.2022 1.42978 54.4002 1.46391C54.5981 1.49804 54.7824 1.56631 54.9735 1.60044C55.1647 1.63457 55.3831 1.54584 55.5742 1.5868C55.7653 1.62775 55.9496 1.7233 56.1408 1.76426C56.3319 1.80521 56.5435 1.76426 56.7346 1.80521C56.9258 1.84617 57.0759 2.08508 57.267 2.13286C57.4582 2.18064 57.6766 2.09873 57.8677 2.14651C58.0589 2.19429 58.2568 2.22843 58.4548 2.28303C58.6527 2.33764 58.7961 2.54241 58.994 2.59702C59.192 2.65163 59.3899 2.67211 59.581 2.72672C59.7722 2.78132 59.9701 2.81545 60.1612 2.87689C60.3524 2.93832 60.5298 3.02706 60.721 3.08849C60.9121 3.14992 61.1169 3.16358 61.308 3.22502C61.4991 3.28645 61.7039 3.30693 61.8882 3.37519C62.0725 3.44345 62.2773 3.48439 62.4616 3.55265C62.6459 3.62091 62.8507 3.64821 63.0418 3.7233C63.2329 3.79838 63.3899 3.93491 63.5742 4.00999C63.7585 4.08508 63.9155 4.23524 64.0998 4.3035C64.2841 4.37176 64.4479 4.50145 64.6322 4.57654C64.8165 4.65162 65.0418 4.62433 65.2329 4.69942C65.4104 4.7745 65.5401 4.93832 65.7107 5.01341C65.8814 5.08849 66.0384 5.19088 66.209 5.2728C66.3797 5.35471 66.5981 5.33423 66.7619 5.42297C66.9257 5.5117 67.0964 5.60044 67.2602 5.696C67.424 5.79156 67.6288 5.81886 67.7858 5.92125C67.9428 6.02363 68.0042 6.28304 68.1612 6.38543C68.3182 6.48781 68.5708 6.44686 68.7278 6.55607C68.8848 6.66529 69.0281 6.78816 69.1783 6.89737C69.3285 7.00658 69.5196 7.07483 69.6698 7.18405C69.8199 7.29326 69.9292 7.46392 70.0793 7.57996C70.2295 7.696 70.4206 7.75743 70.5708 7.87347C70.7209 7.98951 70.8643 8.11237 71.0145 8.22841C71.1646 8.34445 71.2466 8.54242 71.3899 8.66528C71.5332 8.78815 71.6493 8.93831 71.7994 9.06118C71.9496 9.18404 72.1339 9.24549 72.2773 9.36835C72.4206 9.49122 72.482 9.70964 72.6254 9.83251C72.7687 9.95538 73.0349 9.93489 73.1783 10.0578C73.3216 10.1806 73.4104 10.3649 73.5537 10.4878C73.6971 10.6107 73.7858 10.795 73.9223 10.9247C74.0588 11.0544 74.2431 11.1294 74.3865 11.2591C74.5298 11.3888 74.6186 11.5595 74.7551 11.6892C74.8916 11.8189 75.1646 11.8052 75.3012 11.9349C75.4377 12.0646 75.5264 12.2489 75.6561 12.3786C75.7858 12.5083 75.8404 12.7267 75.9769 12.8564C76.1203 12.9997 76.2568 13.1499 76.3933 13.2933C76.5298 13.4366 76.7414 13.5185 76.8848 13.6618C77.0281 13.8052 77.151 13.9622 77.2875 14.1124C77.424 14.2625 77.4991 14.4605 77.6356 14.6175C77.7721 14.7745 77.895 14.9315 78.0247 15.0817C78.1544 15.2318 78.3933 15.3001 78.523 15.4571C78.6527 15.6141 78.639 15.8803 78.7619 16.0441C78.8848 16.2079 79.1715 16.2352 79.2943 16.3991C79.4172 16.5629 79.5332 16.7267 79.6561 16.8837C79.779 17.0407 79.7721 17.3001 79.8882 17.4639C80.0042 17.6277 80.2158 17.7301 80.3319 17.8939C80.4479 18.0578 80.5435 18.2421 80.6595 18.4059C80.7756 18.5697 80.8097 18.7881 80.9189 18.9519C81.0281 19.1158 81.2875 19.184 81.3967 19.3479C81.5059 19.5117 81.4513 19.7915 81.5605 19.9554C81.6697 20.1192 81.7653 20.2967 81.8745 20.4605C81.9837 20.6243 82.25 20.6926 82.3592 20.8564C82.4684 21.0202 82.5366 21.2113 82.6459 21.382C82.7551 21.5526 82.8643 21.7165 82.9667 21.8871C83.0691 22.0578 83.2329 22.1943 83.3353 22.3649C83.4377 22.5356 83.3626 22.8086 83.465 22.9793C83.5674 23.1499 83.7994 23.2455 83.895 23.4161C83.9906 23.5868 84.0179 23.8052 84.1134 23.9758C84.209 24.1465 84.3796 24.283 84.4752 24.4605C84.5708 24.6379 84.5912 24.8496 84.6868 25.027C84.7824 25.2045 84.953 25.3342 85.0486 25.5117C85.1441 25.6891 85.2192 25.8735 85.308 26.0509C85.3967 26.2284 85.5059 26.399 85.5878 26.5765C85.6697 26.754 85.6288 26.9929 85.7039 27.1772C85.779 27.3615 85.8063 27.5663 85.8882 27.7506C85.9632 27.9281 86.2158 28.0304 86.2909 28.2147C86.366 28.399 86.4069 28.5833 86.482 28.7676C86.5571 28.9519 86.6868 29.1021 86.7619 29.2864C86.837 29.4707 86.8711 29.6618 86.9394 29.8461C87.0076 30.0304 87.0076 30.2352 87.0759 30.4195C87.1441 30.6038 87.11 30.8223 87.1783 30.9997C87.2465 31.1772 87.4376 31.3137 87.5059 31.498C87.5742 31.6823 87.6902 31.8461 87.7585 32.0236C87.8267 32.2011 87.8336 32.4127 87.895 32.5902C87.9564 32.7676 88.0247 32.9588 88.0861 33.1362C88.1476 33.3137 88.2909 33.4775 88.3591 33.655C88.4274 33.8325 88.3728 34.0577 88.4411 34.242C88.5093 34.4263 88.68 34.5697 88.7414 34.754C88.8028 34.9383 88.796 35.1431 88.8643 35.3274C88.9325 35.5117 88.8574 35.7437 88.9189 35.9212C88.9803 36.0987 89.0827 36.2762 89.1441 36.4605C89.2124 36.6516 89.3626 36.8086 89.424 36.9997C89.4854 37.1908 89.5469 37.382 89.6083 37.5731C89.6697 37.7642 89.6629 37.9758 89.7243 38.167C89.7858 38.3581 89.9018 38.5355 89.9564 38.7267C90.011 38.9178 90.0998 39.1021 90.1544 39.2932C90.209 39.4844 90.168 39.7028 90.2226 39.8939C90.2772 40.085 90.3796 40.2693 90.4274 40.4605C90.4752 40.6516 90.5366 40.8427 90.5844 41.0407C90.6322 41.2386 90.5844 41.4502 90.6322 41.6482C90.68 41.8461 90.8302 42.0168 90.8711 42.2079C90.9121 42.399 90.953 42.597 90.994 42.7949C91.0349 42.9929 91.0554 43.1908 91.0964 43.3888C91.1373 43.5867 91.151 43.7847 91.1851 43.9826C91.2192 44.1806 91.1305 44.399 91.1646 44.597C91.1987 44.7949 91.2875 44.9792 91.3216 45.1772C91.3489 45.3751 91.4445 45.5594 91.4718 45.7574C91.4991 45.9553 91.5605 46.1396 91.5878 46.3376C91.6151 46.5355 91.4991 46.7471 91.5196 46.9383C91.54 47.1294 91.7243 47.3069 91.7448 47.5048C91.7653 47.7028 91.6151 47.9144 91.6356 48.1123C91.6561 48.3103 91.6834 48.5014 91.7039 48.6994C91.7243 48.8973 91.854 49.0816 91.8745 49.2796C91.895 49.4775 91.7653 49.6891 91.7858 49.8871C91.8063 50.085 91.9428 50.2625 91.9632 50.4673C91.9837 50.6721 91.9291 50.87 91.9496 51.068C91.9701 51.2659 91.9974 51.457 92.0179 51.655L92.052 51.6072Z" fill="#FF8A95"/>
</svg>
