<svg width="34" height="50" viewBox="0 0 34 50" fill="none" xmlns="http://www.w3.org/2000/svg">
<path d="M33.1291 35.9459C33.1291 35.663 33.1573 35.3802 33.1573 35.0973C33.1573 34.8145 33.0913 34.5316 33.0913 34.2488C33.0913 33.9659 33.1385 33.683 33.1385 33.4002C33.1385 33.1173 33.1196 32.8345 33.1196 32.5516C33.1196 32.2688 33.0819 31.9859 33.0819 31.7031C33.0819 31.4202 33.0819 31.1374 33.0819 30.8545C33.0819 30.5717 33.2139 30.2888 33.2139 30.006C33.2139 29.7231 33.0725 29.4402 33.0725 29.1574C33.0725 28.8745 33.1856 28.5917 33.195 28.3088C33.2045 28.026 33.1008 27.7431 33.1008 27.4603C33.1008 27.1774 33.1856 26.8946 33.1856 26.6117C33.1856 26.3289 33.1479 26.046 33.1479 25.7632C33.1479 25.4803 33.2233 25.1974 33.2233 24.9146C33.2233 24.6317 33.129 24.3489 33.1385 24.066C33.1479 23.7832 33.2422 23.5003 33.2422 23.2175C33.2422 22.9346 33.2422 22.6518 33.2422 22.3689C33.2422 22.0766 33.2422 21.7844 33.2422 21.5015C33.2422 21.2187 33.1291 20.9169 33.1291 20.6341C33.1291 20.3512 33.1762 20.0495 33.1762 19.7572C33.1762 19.465 33.1762 19.1727 33.1667 18.8898C33.1573 18.607 33.1856 18.3053 33.1762 18.013C33.1668 17.7207 33.1385 17.4284 33.1385 17.1456C33.1385 16.8627 33.1856 16.561 33.1856 16.2687C33.1856 15.9764 33.0819 15.6936 33.0819 15.4013C33.0819 15.109 33.1573 14.8167 33.1573 14.5245C33.1573 14.2322 33.0348 13.9493 33.0348 13.657C33.0348 13.3648 33.0442 13.0725 33.0348 12.7802C33.0253 12.4879 33.0913 12.1956 33.0819 11.9033C33.0725 11.6111 33.0253 11.3188 33.0159 11.0359C33.0159 10.6305 32.9782 10.3288 32.9028 10.1025C32.799 9.7631 32.601 9.64996 32.2333 9.58396C31.9976 9.54625 31.6959 9.54624 31.2999 9.5651C31.0265 9.58396 30.7437 9.52738 30.4702 9.54624C30.1968 9.5651 29.9234 9.6311 29.6405 9.64053C29.3577 9.64996 29.0842 9.55568 28.8108 9.55568C28.5374 9.55568 28.2545 9.53682 27.9811 9.53682C27.7171 9.53682 27.4814 9.53681 27.2646 9.46139C27.0289 9.37653 26.7743 9.31053 26.6046 9.12196C26.4537 8.95225 26.416 8.69769 26.3311 8.42427C26.2463 8.15084 26.0671 7.9057 25.954 7.6417C25.8409 7.37771 25.7748 7.09484 25.6806 6.82142C25.5863 6.548 25.4731 6.28401 25.36 6.02001C25.2469 5.75602 25.096 5.51088 24.9546 5.25631C24.8132 5.00174 24.7095 4.72831 24.5492 4.4926C24.3889 4.25688 24.172 4.04946 23.9929 3.83261C23.8138 3.61575 23.6157 3.39891 23.4177 3.19148C23.2197 2.98405 23.0029 2.80491 22.7861 2.61634C22.5881 2.44663 22.4655 2.18264 22.2486 2.01293C22.0318 1.84321 21.7489 1.79607 21.5321 1.65464C21.3152 1.51321 21.0795 1.38122 20.8438 1.27751C20.6081 1.1738 20.3724 1.05123 20.1178 0.985229C19.8632 0.91923 19.6181 0.834367 19.3447 0.81551C19.0524 0.796653 18.7695 0.81551 18.4773 0.81551C18.185 0.81551 17.9021 0.796653 17.6193 0.81551C17.3364 0.834367 17.0441 0.890942 16.7707 0.938084C16.4973 0.985226 16.2144 1.07008 15.941 1.15493C15.6676 1.23979 15.3659 1.25865 15.1019 1.38122C14.8379 1.50379 14.6304 1.71121 14.3759 1.86207C14.1213 2.01292 13.9045 2.16378 13.6687 2.35235C13.433 2.54092 13.2539 2.72948 13.0465 2.94633C12.839 3.16319 12.6505 3.35177 12.4713 3.57805C12.2828 3.81376 12.0094 3.98346 11.8302 4.2286C11.6511 4.47374 11.5568 4.77546 11.3871 5.0206C11.2174 5.26574 10.9911 5.48259 10.8308 5.73716C10.6611 6.00115 10.5762 6.30286 10.4348 6.57629C10.2934 6.84971 10.1237 7.11371 10.0199 7.40599C9.91623 7.69828 9.78424 7.99056 9.7371 8.29227C9.68996 8.59398 9.78422 8.90511 9.80308 9.22568C9.82193 9.57453 9.73709 9.87624 9.5768 10.0648C9.41652 10.2534 9.11481 10.3194 8.78482 10.3665C8.44539 10.4231 8.09654 10.4514 7.74768 10.4891C7.39883 10.5268 7.05941 10.6305 6.71999 10.6682C6.42771 10.7059 6.12599 10.6965 5.83371 10.7342C5.54143 10.7719 5.24916 10.7908 4.95687 10.8285C4.66459 10.8662 4.37232 10.9039 4.08004 10.9417C3.78775 10.9794 3.49545 10.9982 3.20317 11.0265C2.91089 11.0548 2.61861 11.1397 2.32633 11.1774C1.99634 11.2245 1.70406 11.3094 1.53435 11.5074C1.36463 11.7054 1.24208 11.9882 1.2515 12.3371C1.26093 12.7048 1.20434 13.0725 1.20434 13.4402C1.20434 13.7419 1.2515 14.0342 1.2515 14.3359C1.2515 14.6376 1.33636 14.9299 1.33636 15.2316C1.33636 15.5333 1.35521 15.8256 1.36464 16.1273C1.37407 16.429 1.2892 16.7307 1.2892 17.023C1.2892 17.3153 1.33636 17.617 1.33636 17.9187C1.33636 18.2204 1.38349 18.5221 1.38349 18.8144C1.38349 19.1067 1.2892 19.4084 1.2892 19.7101C1.2892 20.0024 1.37407 20.2947 1.36464 20.5869C1.35521 20.8792 1.29863 21.1715 1.2892 21.4638C1.27977 21.7561 1.25149 22.0484 1.24207 22.3406C1.23264 22.6329 1.17605 22.9252 1.16662 23.2175C1.15719 23.5098 1.27034 23.802 1.26091 24.1038C1.25148 24.4055 1.13836 24.6883 1.12893 24.9806C1.1195 25.2729 1.11007 25.5652 1.10065 25.8574C1.09122 26.1497 1.08179 26.442 1.07236 26.7343C1.06293 27.0266 1.13836 27.3188 1.12893 27.6111C1.1195 27.9034 1.14777 28.1957 1.13834 28.488C1.12891 28.7803 1.09121 29.0725 1.09121 29.3648C1.09121 29.6571 1.0252 29.9494 1.0252 30.2417C1.0252 30.534 1.11007 30.8262 1.10065 31.1185C1.09122 31.4108 0.968634 31.7031 0.968634 31.9954C0.968634 32.2876 1.0912 32.5799 1.08177 32.8722C1.08177 33.1456 1.05349 33.4096 1.05349 33.683C1.05349 33.9565 1.05349 34.2205 1.05349 34.4939C1.05349 34.7673 1.07234 35.0313 1.08177 35.2953C1.0912 35.5593 1.06293 35.8327 1.07236 36.1062C1.08179 36.3796 1.1195 36.6436 1.12893 36.9076C1.13836 37.1716 1.12893 37.445 1.12893 37.7184C1.12893 37.9918 1.11007 38.2558 1.12893 38.5293C1.14779 38.8027 1.24208 39.0667 1.2515 39.3307C1.26093 39.5947 1.24208 39.8681 1.2515 40.1415C1.2515 40.4244 1.25149 40.7167 1.24207 40.9995C1.23264 41.2824 1.23263 41.5746 1.20434 41.8575C1.18549 42.1404 1.12893 42.4232 1.10065 42.7061C1.07236 42.9889 1.04408 43.2718 1.01579 43.5546C0.987508 43.8375 0.949787 44.1203 0.949787 44.4032C0.949787 44.686 0.93093 44.9783 0.949787 45.2706C0.968644 45.5629 1.14778 45.8269 1.17606 46.1192C1.20435 46.4114 1.16662 46.6943 1.19491 46.9866C1.23262 47.3637 1.26092 47.6654 1.29863 47.92C1.35521 48.3537 1.39292 48.6365 1.56263 48.8063C1.73234 48.976 2.01521 48.9854 2.45834 48.9854C2.70348 48.9854 3.01461 49.0514 3.39175 49.0231C3.66517 49.0043 3.96689 48.9477 4.31575 48.9194C4.57974 48.9194 4.88143 48.9005 5.20199 48.8817C5.47542 48.8723 5.76772 48.7874 6.07886 48.7685C6.36171 48.7497 6.66343 48.7685 6.96514 48.7685C7.25742 48.7591 7.5497 48.7025 7.85141 48.6931C8.15312 48.6837 8.44539 48.7403 8.7471 48.7403C9.04881 48.7403 9.3411 48.778 9.64281 48.778C9.94452 48.778 10.2368 48.646 10.5385 48.646C10.8213 48.646 11.1042 48.7497 11.3871 48.7591C11.6699 48.7686 11.9528 48.7403 12.2356 48.7403C12.5185 48.7403 12.8013 48.6743 13.0842 48.6743C13.367 48.6743 13.6499 48.7214 13.9327 48.7214C14.2156 48.7214 14.4984 48.7403 14.7813 48.7308C15.0641 48.7214 15.347 48.6366 15.6299 48.6271C15.9127 48.6177 16.1956 48.6271 16.4784 48.6271C16.7613 48.6271 17.0441 48.6648 17.327 48.6554C17.6098 48.646 17.8927 48.6083 18.1755 48.5988C18.4584 48.5894 18.7412 48.514 19.0241 48.5046C19.3069 48.4951 19.5898 48.4857 19.8727 48.4763C20.1555 48.4668 20.4384 48.4574 20.7212 48.448C21.0041 48.4386 21.2964 48.514 21.5792 48.5046C21.8621 48.4951 22.1449 48.4008 22.4278 48.382C22.7106 48.3631 22.9935 48.4008 23.2763 48.382C23.5592 48.3631 23.842 48.382 24.1249 48.3631C24.4077 48.3443 24.6811 48.2311 24.9734 48.2123C25.2657 48.1934 25.5486 48.316 25.8314 48.2971C26.1143 48.2783 26.3972 48.2406 26.68 48.2217C26.9629 48.2028 27.2457 48.0991 27.5286 48.0803C27.8114 48.0614 28.1037 48.1368 28.3866 48.118C28.6694 48.0991 28.9523 48.0708 29.2351 48.0426C29.518 48.0143 29.8008 48.0143 30.0837 47.9954C30.3665 47.9766 30.6494 47.8917 30.9322 47.8728C31.2433 47.854 31.4979 47.7974 31.7336 47.7597C32.0542 47.7126 32.3088 47.6749 32.5068 47.5806C32.7708 47.458 32.9876 47.326 33.1102 47.062C33.2045 46.864 33.2139 46.5906 33.2516 46.27C33.2799 46.0437 33.2799 45.7703 33.2988 45.4686C33.3082 45.3083 33.3365 45.148 33.3365 44.9783C33.3365 44.7049 33.4119 44.422 33.4025 44.1486C33.393 43.8752 33.2422 43.6018 33.2328 43.3283C33.2233 43.0549 33.261 42.7721 33.2516 42.4986C33.2422 42.2252 33.2139 41.9518 33.2045 41.6689C33.195 41.3861 33.1762 41.1127 33.1667 40.8392C33.1573 40.5658 33.1196 40.2924 33.1102 40.0095C33.1007 39.7267 33.0913 39.4533 33.0819 39.1798C33.0725 38.9064 33.1008 38.6235 33.1008 38.3501C33.1008 38.0767 33.1573 37.7939 33.1479 37.5204C33.1385 37.247 33.0913 36.9736 33.0819 36.6907C33.0725 36.4079 33.0913 36.1344 33.0913 35.861L33.1291 35.9459ZM13.6876 8.10369C13.7819 7.84912 13.9139 7.61341 14.027 7.36827C14.1402 7.12313 14.2062 6.84971 14.3476 6.62343C14.489 6.39715 14.6776 6.19914 14.8379 5.98229C14.9981 5.76544 15.1584 5.54858 15.3376 5.35059C15.5167 5.15259 15.6864 4.93574 15.8939 4.76603C16.1013 4.59632 16.3182 4.4266 16.5444 4.27574C16.7707 4.12489 17.0536 4.09661 17.2987 3.97404C17.5344 3.85147 17.7135 3.63462 17.9398 3.58747C18.185 3.54033 18.4301 3.65347 18.6752 3.70061C18.9015 3.74775 19.1655 3.73832 19.3918 3.86089C19.6464 4.00232 19.8538 4.20975 20.0801 4.37004C20.3064 4.53032 20.5704 4.67174 20.7778 4.85088C20.9852 5.03002 21.1455 5.28459 21.3246 5.50144C21.5038 5.7183 21.7489 5.88801 21.8998 6.12372C22.0506 6.35944 22.0884 6.66114 22.2015 6.91571C22.3146 7.17028 22.4089 7.42485 22.4843 7.69827C22.5598 7.9717 22.6163 8.23569 22.6635 8.51854C22.7106 8.79197 22.8332 9.08425 22.852 9.37653C22.588 9.39539 22.3335 9.37653 22.1261 9.37653C21.8809 9.39539 21.6641 9.40481 21.4472 9.41424C21.1644 9.41424 20.8815 9.3954 20.5986 9.3954C20.3158 9.3954 20.0329 9.42367 19.7595 9.4331C19.4861 9.44253 19.1938 9.37653 18.911 9.38596C18.6281 9.39539 18.3453 9.48025 18.0718 9.48025C17.7984 9.48025 17.5061 9.3954 17.2233 9.3954C16.9404 9.3954 16.6576 9.50853 16.3841 9.50853C16.1107 9.50853 15.8184 9.48967 15.545 9.48967C15.2716 9.48967 14.9793 9.4331 14.6964 9.4331C14.3664 9.4331 14.1119 9.46139 13.9233 9.40482C13.631 9.31053 13.4896 9.12197 13.4896 8.82026C13.4896 8.62226 13.565 8.37712 13.6782 8.06598L13.6876 8.10369Z" fill="#FFD400"/>
<path d="M23.7759 30.4395L23.1725 30.1755C23.116 29.8644 23.0405 29.6098 22.9934 29.3646C22.9274 29.0441 22.8991 28.7612 22.8331 28.5349C22.7294 28.2238 22.5503 28.0352 22.3428 27.8749C22.1543 27.7241 21.9374 27.5921 21.598 27.5355C21.3623 27.4978 21.0888 27.4978 20.7588 27.4884C20.4571 27.4884 20.212 27.5827 19.9857 27.6864C19.7406 27.809 19.552 27.9787 19.3823 28.1861C19.2126 28.3935 18.9769 28.5821 18.8826 28.8367C18.7789 29.1006 18.8449 29.4212 18.7883 29.6569C18.694 30.1095 18.7883 30.0812 18.5715 30.4206C18.298 30.5338 18.0623 30.6846 17.77 30.7412C17.4778 30.7978 17.176 30.7601 16.8838 30.7883C16.5915 30.8166 16.2992 30.8732 16.0069 30.8826C15.7429 30.892 15.5543 30.7695 15.4035 30.628C15.2526 30.4866 15.0829 30.3263 15.0546 30.0624C15.0075 29.6946 15.0924 29.2986 14.9981 28.9498C14.9132 28.6198 14.7152 28.3369 14.4889 28.1578C14.2626 27.9787 13.9421 27.8372 13.6215 27.7807C13.3387 27.7241 13.1124 27.8938 12.9238 28.0164C12.7352 28.139 12.5278 28.3181 12.4147 28.5349C12.2921 28.7612 12.1978 29.0064 12.1224 29.2609C12.047 29.5155 11.9621 29.7701 11.915 30.0246C11.8301 30.4489 11.8113 30.6846 11.6698 30.8166C11.5284 30.9486 11.2927 30.9203 10.859 30.9392C10.5573 30.9486 10.2839 31.0429 10.0481 31.0146C9.72758 30.9863 9.5013 30.8449 9.29388 30.7412C9.03931 30.6186 8.78472 30.5055 8.68101 30.2415C8.59615 30.0246 8.5773 29.7512 8.56787 29.4306C8.56787 29.1949 8.65273 28.9309 8.69045 28.6292C8.69987 28.5444 8.69045 28.4595 8.69045 28.3841C8.69045 28.0541 8.72815 27.743 8.80358 27.4695C8.88844 27.1584 8.98273 26.8473 9.16187 26.6115C9.34101 26.3758 9.58615 26.159 9.869 25.9987C10.1141 25.8573 10.4253 25.8101 10.7553 25.7347C10.8307 25.7158 10.8873 25.6027 10.9627 25.5838C11.2173 25.5084 11.4907 25.5178 11.7076 25.4141C11.9433 25.2916 12.179 25.1596 12.3487 24.9804C12.5184 24.8013 12.6315 24.5561 12.7258 24.3016C12.8012 24.0847 12.7635 23.8302 12.773 23.5473C12.7824 23.1984 13.0841 22.8685 13.2161 22.5196C13.3198 22.265 13.3764 22.001 13.5272 21.803C13.6875 21.5956 13.9138 21.4542 14.1401 21.3222C14.3475 21.1996 14.5926 21.1053 14.8661 21.0488C15.1301 20.9922 15.3941 20.9262 15.6675 20.8885C15.9409 20.8508 16.2143 20.8602 16.4783 20.8225C16.7423 20.7848 17.0158 20.7093 17.2798 20.6905C17.5438 20.6716 17.8266 20.6433 18.0906 20.6339C18.3546 20.6245 18.6375 20.5962 18.9015 20.5962C19.1655 20.5962 19.4389 20.7188 19.7123 20.7282C19.9857 20.7376 20.2591 20.6339 20.5326 20.6528C20.806 20.6716 21.0794 20.6999 21.3434 20.7282C21.6263 20.7565 21.8903 20.8602 22.1354 20.9639C22.3805 21.0676 22.5974 21.2468 22.8143 21.4165C23.0311 21.5862 23.2385 21.7465 23.4271 21.9633C23.6251 22.199 23.7854 22.4442 23.9457 22.6893C24.1059 22.9344 24.2757 23.189 24.4077 23.453C24.5397 23.717 24.6716 23.9904 24.7754 24.2639C24.8791 24.5373 24.8885 24.8484 24.9545 25.1313C25.0205 25.4141 25.1713 25.697 25.2091 25.9893C25.2468 26.2815 25.2656 26.5833 25.2751 26.8755C25.2845 27.1678 25.3034 27.4695 25.2939 27.7618C25.2845 28.0541 25.2468 28.3558 25.2091 28.6481C25.1713 28.9404 25.0205 29.2044 24.9733 29.4966C24.8131 29.7512 24.7282 29.9681 24.5585 30.1001C24.3134 30.2792 24.0682 30.2886 23.8514 30.2981C23.4365 30.3263 23.3894 30.4866 23.1631 30.1849L23.7759 30.4395ZM14.3475 24.8673C14.6869 24.905 14.9886 24.9427 15.2621 24.9427C15.6392 24.9427 15.9503 24.9521 16.2049 24.905C16.6103 24.8296 16.8366 24.641 16.9686 24.4147C17.0912 24.1979 17.1478 23.915 17.0629 23.5096C17.0063 23.255 16.8932 22.9627 16.7517 22.6233C16.4406 22.5479 16.1578 22.5479 15.9032 22.5385C15.5732 22.5196 15.3092 22.5479 15.0829 22.6327C14.8095 22.7365 14.5266 22.8496 14.3946 23.123C14.3004 23.3399 14.3852 23.651 14.3758 23.9904C14.3758 24.245 14.2909 24.5467 14.3381 24.8673H14.3475ZM18.6469 23.2456C18.6374 23.5284 18.694 23.7736 18.7412 23.9716C18.8072 24.245 18.9109 24.4713 19.0994 24.6033C19.2692 24.7258 19.5237 24.7353 19.8066 24.7541C20.2026 24.7824 20.4949 24.773 20.6834 24.6127C20.872 24.4524 20.9568 24.1601 20.9663 23.7641C20.9757 23.4813 20.9191 23.2456 20.872 23.0476C20.806 22.7742 20.7023 22.6139 20.5043 22.4913C20.3346 22.3782 20.1271 22.2085 19.8349 22.199C19.3917 22.1896 19.156 22.3499 18.9863 22.4725C18.7977 22.6045 18.6563 22.8025 18.6469 23.255V23.2456Z" fill="#0096D8"/>
<path d="M12.528 30.2794C12.5657 29.8457 12.6505 29.5535 12.8108 29.3366C13.0088 29.0538 13.2445 28.9595 13.6594 28.9972C13.9988 29.0255 14.2345 29.1763 14.4137 29.4592C14.574 29.7137 14.6588 30.006 14.6305 30.3643C14.5928 30.7603 14.4703 31.062 14.244 31.2789C13.9988 31.5051 13.6877 31.6749 13.3011 31.6466C12.924 31.6183 12.6411 31.4769 12.5091 31.2034C12.4054 30.9866 12.4903 30.6754 12.5186 30.2889L12.528 30.2794Z" fill="#0096D8"/>
<path d="M13.0463 30.3638C13.084 29.9773 13.3103 29.8736 13.6026 29.9018C13.8572 29.9207 14.0457 30.1093 14.0174 30.411C13.9892 30.7315 13.7629 30.8918 13.4612 30.873C13.1972 30.8541 13.0086 30.7221 13.0463 30.3733V30.3638Z" fill="#FFD400"/>
<path d="M21.7112 28.4594C21.9375 28.6291 22.1261 28.8082 22.2392 28.9874C22.3901 29.2137 22.4089 29.4588 22.3806 29.7039C22.3524 29.9208 22.2204 30.0999 22.0601 30.3356C21.8432 30.6373 21.5887 30.7882 21.2493 30.8353C20.9098 30.8825 20.5704 30.8825 20.2687 30.6562C20.0518 30.4959 19.835 30.3168 19.7407 30.0999C19.6464 29.8736 19.6464 29.5814 19.6936 29.3268C19.7313 29.1005 19.9198 28.9025 20.0707 28.6762C20.3064 28.3368 20.5233 28.0728 20.8061 28.0634C21.0607 28.054 21.3718 28.2142 21.7112 28.4688V28.4594Z" fill="#0096D8"/>
<path d="M20.5138 29.6191C20.5515 29.2325 20.7023 29.1099 20.9946 29.1288C21.2492 29.1477 21.4755 29.3551 21.4472 29.6568C21.4189 29.9774 21.1549 30.1754 20.8532 30.1471C20.5892 30.1282 20.4855 29.9585 20.5138 29.6097V29.6191Z" fill="#FFD400"/>
</svg>
