<svg width="82" height="75" viewBox="0 0 82 75" fill="none" xmlns="http://www.w3.org/2000/svg">
<path d="M81.461 40.8018C81.4747 40.9861 81.4405 41.1704 81.3928 41.3684C81.3518 41.5459 81.2085 41.6892 81.1334 41.8735C81.0583 42.0442 81.1402 42.2967 81.0446 42.4674C80.9491 42.638 80.7443 42.7336 80.6419 42.8974C80.5327 43.0749 80.4918 43.3001 80.3757 43.4708C80.2597 43.6414 80.1573 43.8326 80.0344 43.9964C79.9115 44.1602 79.7272 44.2831 79.5975 44.4469C79.4678 44.6107 79.4132 44.836 79.2767 44.993C79.1402 45.15 78.9969 45.307 78.8535 45.4571C78.7102 45.6073 78.5395 45.737 78.3894 45.8803C78.2392 46.0237 78.1163 46.2012 77.9662 46.3377C77.8228 46.4674 77.6931 46.6039 77.5498 46.7336C77.4064 46.8633 77.2153 46.9315 77.072 47.0612C76.9286 47.1909 76.717 47.2387 76.5805 47.3684C76.444 47.4981 76.4235 47.7643 76.2802 47.8872C76.1368 48.01 75.8569 47.9896 75.7136 48.1192C75.5702 48.2489 75.4474 48.3923 75.3109 48.522C75.1743 48.6517 75.0788 48.836 74.9423 48.9657C74.8057 49.0954 74.6283 49.1841 74.4849 49.3138C74.3416 49.4435 74.246 49.6141 74.1027 49.7438C73.9593 49.8735 73.7546 49.9281 73.6112 50.051C73.4679 50.1739 73.4201 50.4059 73.2767 50.5356C73.1334 50.6653 72.9081 50.6926 72.7648 50.8223C72.6214 50.952 72.5259 51.1295 72.3825 51.2523C72.2392 51.3752 72.1232 51.5322 71.973 51.6551C71.8296 51.7779 71.6044 51.8052 71.4542 51.9281C71.304 52.051 71.2289 52.2558 71.0788 52.3718C70.9286 52.4878 70.8262 52.6653 70.676 52.7814C70.5259 52.8974 70.287 52.9042 70.1368 53.0203C69.9866 53.1363 69.8228 53.2387 69.6726 53.3547C69.5225 53.4708 69.3382 53.5459 69.188 53.6619C69.0378 53.7779 68.9354 53.9554 68.7784 54.0715C68.6214 54.1875 68.5395 54.3854 68.3825 54.4947C68.2255 54.6039 68.0481 54.6858 67.8979 54.8018C67.7477 54.9179 67.618 55.0612 67.4679 55.1773C67.3177 55.2933 67.147 55.382 66.9969 55.5049C66.8467 55.6278 66.7238 55.7779 66.5668 55.9008C66.4098 56.0237 66.2051 56.0646 66.0549 56.1875C65.9047 56.3104 65.775 56.4537 65.6249 56.5766C65.4747 56.6994 65.3859 56.8974 65.2358 57.0203C65.0856 57.1431 64.8945 57.2114 64.7443 57.3342C64.5941 57.4571 64.4508 57.5868 64.3006 57.7097C64.1505 57.8325 63.9866 57.9349 63.8365 58.051C63.6863 58.167 63.5088 58.2626 63.3586 58.3854C63.2085 58.5083 63.0242 58.5902 62.874 58.7063C62.7238 58.8223 62.56 58.9315 62.4099 59.0544C62.2597 59.1772 62.1505 59.3479 62.0003 59.4639C61.8501 59.58 61.7409 59.7643 61.5907 59.8803C61.4406 59.9964 61.2153 60.0305 61.0651 60.1534C60.915 60.2762 60.8194 60.4605 60.6692 60.5834C60.5191 60.7063 60.3416 60.795 60.1914 60.9179C60.0413 61.0407 59.8501 61.109 59.7 61.2318C59.5498 61.3547 59.4952 61.5936 59.3518 61.7165C59.2085 61.8394 58.9423 61.8257 58.7921 61.9486C58.6419 62.0714 58.6078 62.3308 58.4576 62.4537C58.3075 62.5766 58.1641 62.7062 58.0208 62.8291C57.8774 62.952 57.6931 63.0407 57.543 63.1636C57.3928 63.2865 57.1334 63.2796 56.9832 63.4093C56.8331 63.539 56.6761 63.6551 56.5327 63.7848C56.3894 63.9145 56.2529 64.0646 56.1095 64.1875C55.9662 64.3104 55.8911 64.5356 55.7409 64.6585C55.5908 64.7813 55.4406 64.911 55.2972 65.0407C55.1539 65.1704 54.9832 65.2728 54.8331 65.4025C54.6829 65.5322 54.4849 65.5936 54.3348 65.7233C54.1846 65.853 54.0822 66.0305 53.932 66.1602C53.7819 66.2899 53.6181 66.3991 53.4747 66.5288C53.3314 66.6585 53.2085 66.8155 53.0583 66.9451C52.9081 67.0748 52.7921 67.2387 52.6488 67.3684C52.5054 67.4981 52.2324 67.4844 52.0891 67.6141C51.9457 67.7438 51.8297 67.9076 51.6795 68.0373C51.5293 68.167 51.3928 68.3035 51.2426 68.4332C51.0924 68.5629 50.9559 68.6994 50.8058 68.8291C50.6556 68.9588 50.5873 69.1704 50.4372 69.3001C50.287 69.4298 50.1573 69.58 50.014 69.7028C49.8706 69.8257 49.5839 69.8052 49.4406 69.9349C49.2972 70.0646 49.1812 70.2284 49.031 70.3581C48.8809 70.4878 48.6897 70.5629 48.5464 70.6926C48.403 70.8223 48.3757 71.0953 48.2256 71.2182C48.0754 71.3411 47.8911 71.4298 47.7409 71.5527C47.5908 71.6755 47.3655 71.7165 47.2222 71.8462C47.0788 71.9759 47.0106 72.1943 46.8604 72.324C46.7034 72.4537 46.4645 72.481 46.3075 72.6039C46.1505 72.7267 46.0208 72.8905 45.8501 72.9998C45.6795 73.109 45.502 73.1977 45.3246 73.2933C45.1471 73.3888 45.0174 73.58 44.8399 73.6687C44.6624 73.7574 44.4713 73.8462 44.2802 73.9212C44.0891 73.9963 43.8911 74.0441 43.7 74.1056C43.5089 74.167 43.3109 74.1192 43.1266 74.1397C42.9423 74.1602 42.7444 74.283 42.5532 74.2694C42.3621 74.2557 42.2051 74.0919 42.014 74.0373C41.8365 73.9895 41.6181 74.0373 41.4338 73.9622C41.2495 73.8871 41.0583 73.853 40.8809 73.7847C40.7034 73.7165 40.5601 73.5458 40.3758 73.4776C40.1915 73.4093 40.0413 73.2728 39.8638 73.2045C39.6863 73.1363 39.427 73.2591 39.2495 73.1841C39.072 73.109 38.9013 73.0066 38.7239 72.9315C38.5464 72.8564 38.4372 72.6312 38.2597 72.5492C38.0822 72.4673 37.8433 72.5219 37.6727 72.4332C37.502 72.3445 37.4065 72.1192 37.2427 72.0236C37.0788 71.9281 36.8877 71.8735 36.7239 71.7643C36.5601 71.6551 36.3485 71.6209 36.1983 71.4981C36.0481 71.3752 35.9389 71.2114 35.7956 71.0748C35.6454 70.9315 35.5293 70.7677 35.3792 70.6312C35.229 70.4947 34.9901 70.4537 34.8399 70.324C34.6897 70.1943 34.5669 70.0237 34.4167 69.8871C34.2665 69.7506 34.1642 69.5595 34.014 69.4298C33.8638 69.3001 33.7 69.1704 33.5498 69.0407C33.3997 68.911 33.2973 68.7131 33.1471 68.5834C32.9969 68.4537 32.7444 68.44 32.5874 68.3172C32.4304 68.1943 32.3689 67.9486 32.2188 67.8189C32.0686 67.6892 31.8092 67.6892 31.6522 67.5595C31.4952 67.4298 31.3177 67.3411 31.1607 67.2114C31.0038 67.0817 30.9082 66.8837 30.758 66.754C30.6079 66.6243 30.4167 66.5356 30.2666 66.3991C30.1232 66.2694 30.014 66.0851 29.8433 65.9554C29.6932 65.8325 29.5293 65.7028 29.3655 65.5732C29.2017 65.4435 29.113 65.2387 28.9492 65.1158C28.7853 64.9929 28.5464 64.9793 28.3826 64.8564C28.2188 64.7336 28.13 64.5151 27.9662 64.3923C27.8024 64.2694 27.5294 64.2967 27.3655 64.1738C27.2017 64.051 27.0788 63.8667 26.9219 63.7438C26.7649 63.6209 26.642 63.4366 26.485 63.3138C26.3212 63.1841 26.1164 63.109 25.9662 62.9861C25.8092 62.8564 25.6044 62.7677 25.4543 62.638C25.3041 62.5083 25.2427 62.2626 25.0925 62.126C24.9423 61.9895 24.7648 61.8803 24.6215 61.737C24.4782 61.5936 24.2597 61.5186 24.1164 61.3752C23.973 61.2319 23.8502 61.0612 23.7137 60.9179C23.5771 60.7745 23.4747 60.5834 23.3314 60.44C23.1881 60.2967 23.113 60.0851 22.9628 59.9418C22.8126 59.7984 22.5669 59.7779 22.4099 59.6414C22.2529 59.5049 22.1574 59.3206 21.9935 59.1909C21.8502 59.0749 21.7068 58.9452 21.543 58.8087C21.3928 58.6926 21.2495 58.5561 21.0857 58.4332C20.9355 58.3172 20.7444 58.2353 20.5874 58.1124C20.4304 57.9895 20.2802 57.8735 20.1232 57.7506C19.9662 57.6278 19.8502 57.4571 19.6932 57.3411C19.5362 57.225 19.3519 57.1295 19.2017 57.0134C19.0515 56.8974 18.9014 56.7541 18.7444 56.638C18.5874 56.522 18.3621 56.4742 18.212 56.365C18.0481 56.2421 17.8775 56.1397 17.7273 56.0237C17.5567 55.9008 17.4201 55.7575 17.27 55.6482C17.113 55.539 16.9696 55.4093 16.8195 55.3001C16.6693 55.1909 16.5533 55.0203 16.4031 54.9042C16.2529 54.7882 15.9935 54.8087 15.8434 54.6858C15.6932 54.5629 15.6659 54.2967 15.5157 54.1738C15.3655 54.051 15.1812 53.9827 15.0311 53.8599C14.8809 53.737 14.7239 53.6346 14.5806 53.5049C14.4372 53.3752 14.3143 53.2319 14.171 53.109C14.0277 52.9861 13.8092 52.9384 13.6659 52.8155C13.5225 52.6926 13.4611 52.4742 13.3178 52.3445C13.1744 52.2148 13.0311 52.0988 12.8877 51.9691C12.7444 51.8394 12.6079 51.7165 12.4645 51.5868C12.3212 51.4571 12.1232 51.4025 11.9799 51.2728C11.8365 51.1431 11.7 51.0203 11.5567 50.8906C11.4133 50.7609 11.3792 50.5151 11.2359 50.3923C11.0925 50.2694 10.8809 50.2216 10.7376 50.0988C10.5942 49.9759 10.5055 49.7848 10.3621 49.6619C10.2188 49.539 9.96622 49.5459 9.81605 49.423C9.66588 49.3001 9.60445 49.0885 9.45428 48.9657C9.30411 48.8428 9.15395 48.7336 8.99695 48.6175C8.83995 48.5015 8.67612 48.4128 8.51913 48.2967C8.34165 48.1602 8.16418 48.0578 8.00718 47.9418C7.82971 47.8053 7.67272 47.6756 7.52255 47.5595C7.34507 47.4298 7.12665 47.382 6.97648 47.266C6.79901 47.1363 6.75123 46.8633 6.59423 46.7472C6.43041 46.6244 6.21197 46.5834 6.04814 46.4537C5.89797 46.3308 5.67954 46.2831 5.50889 46.1466C5.36554 46.0305 5.26317 45.8394 5.09252 45.696C4.94917 45.5732 4.78534 45.4503 4.61469 45.307C4.47135 45.1841 4.36898 44.9861 4.20515 44.836C4.04816 44.6995 3.95259 44.5152 3.81607 44.3445C3.68638 44.1739 3.57033 43.9964 3.44063 43.8257C3.31094 43.6551 3.13348 43.5117 2.98331 43.3616C2.83314 43.2114 2.67613 43.0271 2.47817 42.9384C2.33483 42.8769 2.1642 42.8155 2.0072 42.6448C1.89116 42.5083 1.78195 42.3513 1.66591 42.1739C1.56352 42.01 1.54302 41.8053 1.45428 41.6278C1.36555 41.4503 1.22221 41.3001 1.16077 41.1227C1.09252 40.9247 1.0106 40.7404 0.990126 40.5629C0.962823 40.3377 1.03792 40.1602 1.10618 40.01C1.17444 39.8462 1.19491 39.6619 1.27682 39.5049C1.35874 39.3479 1.39287 39.1568 1.49526 39.0066C1.59765 38.8565 1.73417 38.7336 1.85703 38.6039C1.99355 38.4537 2.20516 38.3855 2.32802 38.2353C2.45089 38.0851 2.41675 37.8053 2.53279 37.6551C2.64883 37.5049 2.84678 37.4025 2.956 37.2455C3.06521 37.0885 3.19491 36.9384 3.30413 36.7746C3.41334 36.6107 3.49525 36.4332 3.60447 36.2762C3.71368 36.1193 3.8502 35.9691 3.95941 35.8121C4.06863 35.6551 4.17783 35.4913 4.29387 35.3343C4.40991 35.1773 4.46454 34.9793 4.5874 34.8223C4.71027 34.6653 4.80582 34.4947 4.93551 34.3445C5.06521 34.1944 5.26317 34.1193 5.39969 33.9759C5.53621 33.8394 5.76828 33.7984 5.89797 33.6619C6.02766 33.5254 6.08911 33.307 6.22562 33.1705C6.36214 33.0339 6.53962 32.9452 6.67614 32.8087C6.81266 32.6722 6.93551 32.5288 7.07203 32.3923C7.20855 32.2558 7.35191 32.1329 7.48843 31.9964C7.62494 31.8599 7.63858 31.6073 7.7751 31.4708C7.91162 31.3343 8.15052 31.3002 8.28022 31.1636C8.40991 31.0271 8.43723 30.7814 8.57375 30.6449C8.71026 30.5083 8.93552 30.4606 9.06521 30.324C9.19491 30.1875 9.33142 30.051 9.46794 29.9145C9.60446 29.778 9.78875 29.6892 9.92527 29.5527C10.0618 29.4162 10.1505 29.2319 10.287 29.0954C10.4236 28.9589 10.5942 28.8633 10.7307 28.7268C10.8673 28.5903 10.997 28.4469 11.1335 28.3104C11.27 28.1739 11.3928 28.0305 11.5294 27.894C11.6659 27.7575 11.8092 27.6278 11.9458 27.4913C12.0823 27.3548 12.1027 27.1022 12.2393 26.9657C12.3758 26.8292 12.5191 26.6995 12.6556 26.563C12.7922 26.4264 12.9833 26.3514 13.1198 26.2148C13.2563 26.0783 13.3656 25.9008 13.5021 25.7575C13.6386 25.6142 13.8638 25.5595 14.0072 25.423C14.1505 25.2865 14.1983 25.0544 14.3348 24.9179C14.4714 24.7814 14.6625 24.6858 14.799 24.5425C14.9355 24.3991 15.0242 24.208 15.1608 24.0647C15.2973 23.9213 15.5225 23.8667 15.6591 23.7234C15.7956 23.58 16.0003 23.5049 16.1369 23.3616C16.2734 23.2182 16.3212 22.9862 16.4645 22.8496C16.6079 22.7131 16.7853 22.6108 16.9218 22.4742C17.0584 22.3377 17.1608 22.1534 17.3041 22.0169C17.4474 21.8804 17.5976 21.7507 17.741 21.6142C17.8843 21.4776 17.9458 21.2592 18.0891 21.1227C18.2324 20.9862 18.5055 20.9794 18.642 20.8428C18.7853 20.6995 18.8331 20.4538 18.9765 20.3172C19.1198 20.1807 19.3519 20.1193 19.4952 19.9828C19.6386 19.8462 19.7341 19.6483 19.8843 19.5049C20.0345 19.3616 20.2256 19.2729 20.369 19.1364C20.5123 18.9998 20.7171 18.9179 20.8672 18.7746C21.0174 18.6312 21.072 18.3991 21.2154 18.2626C21.3587 18.1261 21.5021 17.9759 21.6522 17.8394C21.8024 17.7029 21.9389 17.5527 22.0891 17.4162C22.2393 17.2797 22.3963 17.15 22.5464 17.0135C22.6966 16.877 22.8604 16.7609 23.0106 16.6244C23.1608 16.4879 23.3246 16.365 23.4747 16.2285C23.6181 16.0988 23.7751 15.9896 23.9184 15.8599C24.0618 15.7302 24.2051 15.6005 24.3485 15.4708C24.4918 15.3411 24.6556 15.2387 24.799 15.109C24.9423 14.9794 25.0925 14.8633 25.2358 14.7336C25.3792 14.6039 25.502 14.4538 25.6454 14.3241C25.7887 14.1944 25.8502 13.976 25.9935 13.8463C26.1369 13.7166 26.3962 13.7166 26.5396 13.5869C26.6829 13.4572 26.6966 13.1841 26.8399 13.0544C26.9833 12.9248 27.188 12.8633 27.3314 12.7336C27.4747 12.6039 27.5703 12.4196 27.7136 12.2968C27.857 12.1739 28.1232 12.1739 28.2666 12.0442C28.4099 11.9145 28.485 11.7097 28.6283 11.58C28.7717 11.4504 28.9287 11.3411 29.072 11.2114C29.2154 11.0818 29.2768 10.8633 29.4201 10.7336C29.5635 10.6039 29.7205 10.4947 29.8638 10.365C30.0072 10.2353 30.1369 10.092 30.2802 9.96912C30.4235 9.84626 30.5669 9.70974 30.7102 9.58005C30.8536 9.45036 31.072 9.40258 31.2153 9.27971C31.3587 9.15684 31.5498 9.07493 31.6932 8.94524C31.8365 8.81554 31.898 8.59711 32.0413 8.46742C32.1846 8.33773 32.3348 8.21486 32.4781 8.08517C32.6215 7.95548 32.7717 7.83261 32.915 7.70292C33.0584 7.57323 33.1676 7.4094 33.3109 7.27971C33.4543 7.15001 33.6112 7.0408 33.7546 6.91111C33.8979 6.78142 34.13 6.76094 34.2734 6.63125C34.4167 6.50155 34.5737 6.39234 34.7171 6.26947C34.8604 6.14661 34.8945 5.89405 35.0379 5.77118C35.1812 5.64832 35.3041 5.49814 35.4474 5.36844C35.5908 5.23875 35.8433 5.24558 35.9867 5.12271C36.13 4.99984 36.2734 4.87698 36.4235 4.75411C36.5737 4.63125 36.6556 4.44012 36.799 4.31726C36.9423 4.19439 37.1403 4.13296 37.2836 4.01009C37.427 3.88722 37.4816 3.64831 37.6249 3.52545C37.7682 3.40258 37.9594 3.3275 38.1027 3.21146C38.2461 3.09542 38.4508 3.04081 38.601 2.92477C38.7512 2.80873 38.9014 2.69952 39.0584 2.58347C39.2154 2.46743 39.3382 2.32409 39.4884 2.20805C39.6385 2.09201 39.7478 1.91452 39.9048 1.80531C40.0618 1.69609 40.2665 1.65514 40.4235 1.55275C40.5805 1.45036 40.7921 1.42307 40.9491 1.31385C41.1744 1.16368 41.3177 0.890636 41.543 0.740465C41.7068 0.63125 41.857 0.508389 42.014 0.426478C42.1846 0.337741 42.3553 0.242174 42.5327 0.187567C42.7171 0.126133 42.915 0.119308 43.0925 0.092004C43.2699 0.0647003 43.4611 0.180747 43.6454 0.194399C43.8297 0.208051 44.0413 0.0783505 44.2256 0.132958C44.3962 0.180739 44.5873 0.242172 44.7648 0.324083C44.9286 0.399168 45.0379 0.603948 45.2085 0.699511C45.3792 0.8019 45.5703 0.870162 45.7341 0.979377C45.8979 1.08859 46.13 1.10225 46.2938 1.21829C46.4576 1.33433 46.6078 1.46402 46.7648 1.58688C46.9218 1.70975 47.0037 1.93501 47.1539 2.05788C47.3041 2.18074 47.4269 2.34456 47.5771 2.47426C47.7273 2.60395 47.9116 2.69268 48.0618 2.8292C48.2119 2.96572 48.2802 3.1705 48.4235 3.31384C48.5669 3.45719 48.7921 3.50497 48.9286 3.64832C49.0652 3.79166 49.2222 3.92135 49.3518 4.07152C49.4815 4.21487 49.659 4.31726 49.7887 4.4606C49.9184 4.60395 49.9593 4.83603 50.089 4.97937C50.2187 5.12272 50.4508 5.17732 50.5805 5.32067C50.7102 5.46401 50.717 5.7234 50.8467 5.86674C50.9764 6.01009 51.0993 6.16026 51.2358 6.3036C51.3723 6.44695 51.5293 6.56299 51.659 6.70633C51.7887 6.84968 52.0071 6.91794 52.1368 7.06128C52.2665 7.20463 52.4167 7.33432 52.5464 7.47766C52.6761 7.62101 52.7853 7.78482 52.9218 7.92817C53.0583 8.07151 53.2085 8.19438 53.3382 8.33773C53.4679 8.48107 53.5908 8.63807 53.7273 8.77459C53.8638 8.91111 53.9935 9.06128 54.13 9.20462C54.2665 9.34797 54.4167 9.47083 54.5464 9.61417C54.6829 9.75752 54.7307 9.98278 54.8604 10.1193C54.9901 10.2558 55.0788 10.4469 55.2153 10.5903C55.3518 10.7336 55.4884 10.8702 55.6249 11.0067C55.7614 11.1432 56.0344 11.1568 56.1709 11.2934C56.3075 11.4299 56.4372 11.58 56.5737 11.7166C56.7102 11.8531 56.7785 12.0647 56.9082 12.208C57.0378 12.3514 57.188 12.4811 57.3245 12.6244C57.461 12.7678 57.5293 12.9725 57.659 13.1159C57.7887 13.2592 57.9525 13.3753 58.089 13.5186C58.2255 13.662 58.3279 13.8326 58.4645 13.9759C58.601 14.1193 58.8536 14.1466 58.9832 14.2899C59.1129 14.4333 59.2495 14.5766 59.386 14.72C59.5225 14.8633 59.6112 15.0476 59.7477 15.1841C59.8843 15.3207 59.9593 15.5186 60.0959 15.6619C60.2324 15.8053 60.4576 15.8599 60.5873 16.0032C60.717 16.1466 60.7785 16.3582 60.915 16.5015C61.0515 16.6449 61.2768 16.6995 61.4133 16.8428C61.5498 16.9862 61.6317 17.1705 61.7682 17.3138C61.9047 17.4572 62.0003 17.6346 62.13 17.778C62.2597 17.9213 62.3621 18.092 62.4986 18.2353C62.6351 18.3787 62.8331 18.4606 62.9628 18.6039C63.0924 18.7473 63.1471 18.9589 63.2836 19.109C63.4201 19.2592 63.6795 19.2729 63.8092 19.423C63.9389 19.5732 63.9867 19.7916 64.1232 19.9418C64.2597 20.092 64.3621 20.2558 64.4986 20.406C64.6351 20.5561 64.7716 20.6927 64.9013 20.8428C65.031 20.993 65.2563 21.0544 65.3928 21.1978C65.5293 21.3411 65.543 21.5937 65.6795 21.7439C65.816 21.894 66.089 21.9008 66.2255 22.051C66.3621 22.2012 66.4713 22.365 66.601 22.5084C66.7307 22.6517 66.7443 22.9111 66.874 23.0613C67.0037 23.2114 67.1539 23.3411 67.2904 23.4845C67.4269 23.6278 67.5907 23.7438 67.7273 23.8872C67.8638 24.0305 68.0617 24.1124 68.1982 24.2626C68.3348 24.4128 68.4371 24.5766 68.5668 24.7268C68.6965 24.8769 68.7511 25.0886 68.8877 25.2387C69.0242 25.3889 69.2836 25.4162 69.4133 25.5595C69.543 25.7029 69.6044 25.9213 69.7341 26.0715C69.8638 26.2217 70.0276 26.3377 70.1573 26.4879C70.287 26.638 70.4371 26.7677 70.5668 26.9179C70.6965 27.0681 70.7034 27.3275 70.8331 27.4708C70.9627 27.6142 71.2085 27.6688 71.3382 27.8189C71.4679 27.9691 71.5702 28.1397 71.6999 28.2899C71.8296 28.4401 72.0208 28.5357 72.1505 28.6858C72.2801 28.836 72.2665 29.109 72.3894 29.2592C72.5122 29.4094 72.6351 29.5664 72.7648 29.7165C72.8945 29.8667 73.1675 29.894 73.2972 30.051C73.4269 30.208 73.4337 30.4537 73.5566 30.6039C73.6795 30.7541 73.7682 30.9384 73.8979 31.0954C74.0276 31.2524 74.1982 31.3616 74.3211 31.5118C74.4371 31.6619 74.5941 31.778 74.7102 31.9213C74.8262 32.0647 74.9423 32.2217 75.0583 32.365C75.1743 32.5083 75.2426 32.7063 75.3655 32.8428C75.4883 32.9793 75.5839 33.15 75.7136 33.2933C75.8433 33.4367 76.0412 33.5049 76.1641 33.6483C76.287 33.7916 76.3757 33.9623 76.5054 34.0988C76.6351 34.2353 76.758 34.3787 76.8876 34.5152C77.0173 34.6517 77.2494 34.6858 77.3791 34.8223C77.5088 34.9589 77.5088 35.2182 77.6385 35.3548C77.7682 35.4913 78.0344 35.4981 78.1641 35.6346C78.2938 35.7711 78.2938 36.0305 78.4235 36.167C78.5532 36.3036 78.7375 36.3923 78.8672 36.5288C78.9969 36.6653 79.072 36.8496 79.2016 36.9862C79.3313 37.1227 79.4474 37.2728 79.5702 37.4094C79.7272 37.5868 80.0549 37.6141 80.2051 37.7916C80.3552 37.9691 80.3689 38.2831 80.5327 38.4537C80.6624 38.5834 80.915 38.6107 81.0105 38.7541C81.1061 38.8974 81.188 39.0817 81.2562 39.2524C81.3245 39.423 81.3723 39.5937 81.4064 39.778C81.4405 39.9486 81.2562 40.1466 81.2699 40.3377C81.2836 40.5083 81.3996 40.679 81.3996 40.8633L81.461 40.8018Z" fill="#0096D8"/>
</svg>
