<svg width="56" height="53" viewBox="0 0 56 53" fill="none" xmlns="http://www.w3.org/2000/svg">
<path d="M41.3328 51.5404C41.2786 51.5338 41.2248 51.5512 41.171 51.5686C41.1173 51.5859 41.0635 51.6033 41.0093 51.5967C40.9007 51.5835 40.8042 51.4998 40.6961 51.4832C40.5909 51.4704 40.484 51.4437 40.3759 51.4271C40.3216 51.4204 40.2657 51.4273 40.2097 51.4341C40.1538 51.441 40.0979 51.4479 40.047 51.4417C39.9385 51.4284 39.8391 51.3684 39.7309 51.3518C39.6767 51.3452 39.6208 51.352 39.5644 51.3622C39.5081 51.3725 39.4522 51.3793 39.3979 51.3727C39.2928 51.3599 39.1987 51.256 39.0906 51.2394C38.982 51.2262 38.8801 51.1864 38.7716 51.1731C38.7173 51.1665 38.6631 51.1599 38.608 51.16C38.5533 51.1568 38.4986 51.1535 38.4477 51.1473C38.3934 51.1407 38.3383 51.1408 38.2832 51.1409C38.2281 51.141 38.1731 51.1411 38.1188 51.1345C38.0645 51.1279 38.0094 51.128 37.9539 51.1315C37.9018 51.1354 37.8467 51.1355 37.7924 51.1289C37.6839 51.1156 37.5836 51.0624 37.4755 51.0458C37.367 51.0325 37.2626 51.0129 37.1545 50.9963C37.1002 50.9897 37.0459 50.9831 36.9913 50.9798C36.937 50.9732 36.8823 50.9699 36.8314 50.9637C36.7229 50.9505 36.618 50.9069 36.5129 50.8941C36.4043 50.8808 36.2987 50.844 36.1939 50.8278C36.0854 50.8145 35.9868 50.7478 35.8782 50.7345C35.8206 50.7275 35.7625 50.7238 35.704 50.7235C35.6489 50.7237 35.5908 50.72 35.5366 50.7134C35.4789 50.7063 35.4184 50.7229 35.3608 50.7432C35.3002 50.7598 35.2393 50.7797 35.185 50.7731C35.0697 50.759 34.966 50.6779 34.854 50.6643C34.7964 50.6572 34.7405 50.6641 34.6807 50.6739C34.6214 50.6804 34.5651 50.6906 34.5074 50.6836C34.3955 50.6699 34.2942 50.5686 34.1793 50.5512C34.125 50.5445 34.0661 50.5476 34.0077 50.5473C33.9521 50.5508 33.8932 50.5539 33.836 50.5435C33.7241 50.5298 33.6154 50.4892 33.5001 50.4751C33.3847 50.461 33.2803 50.4141 33.1688 50.3971C33.1111 50.39 33.0526 50.3897 32.9971 50.3932C32.9386 50.3929 32.8797 50.396 32.8255 50.3894C32.7135 50.3757 32.5994 50.3515 32.4875 50.3379C32.3755 50.3242 32.2627 50.2899 32.1507 50.2762C32.0965 50.2696 32.0388 50.2626 31.9837 50.2627C31.926 50.2557 31.8676 50.2554 31.8099 50.2483C31.7556 50.2417 31.6967 50.2448 31.6408 50.2516C31.5819 50.2547 31.5226 50.2612 31.4649 50.2541C31.3564 50.2409 31.2457 50.2171 31.1371 50.2039C31.0252 50.1902 30.9228 50.1264 30.8109 50.1127C30.7566 50.1061 30.7011 50.1096 30.6422 50.1127C30.5867 50.1162 30.5308 50.123 30.4735 50.1126C30.365 50.0994 30.2543 50.0756 30.1461 50.059C30.0885 50.0519 30.0334 50.0521 29.9787 50.0488C29.924 50.0456 29.8651 50.0486 29.8112 50.0386C29.6993 50.025 29.5977 49.9544 29.4892 49.9412C29.4315 49.9342 29.3764 49.9343 29.3209 49.9378C29.2624 49.9375 29.2069 49.9409 29.1526 49.9343C29.0407 49.9207 28.9383 49.8569 28.8268 49.8398C28.7725 49.8332 28.7154 49.8502 28.6548 49.8667C28.5977 49.8837 28.5405 49.9007 28.4829 49.8936C28.3743 49.8804 28.2802 49.7492 28.1682 49.7355C28.0597 49.7223 27.9485 49.7019 27.8404 49.6853C27.7827 49.6782 27.7256 49.6952 27.6646 49.7151C27.6071 49.7354 27.5499 49.7524 27.4923 49.7454C27.3837 49.7321 27.2738 49.7016 27.1653 49.6884C27.111 49.6818 27.0525 49.6815 26.9974 49.6816C26.9423 49.6817 26.8838 49.6814 26.8296 49.6748C26.7176 49.6611 26.6161 49.5906 26.5079 49.574C26.4503 49.5669 26.396 49.5603 26.3409 49.5604C26.2858 49.5605 26.2281 49.5535 26.1743 49.5435C26.12 49.5369 26.0657 49.5303 26.0115 49.5236C25.9538 49.5166 25.8995 49.51 25.8419 49.5029C25.7333 49.4897 25.6363 49.3821 25.5247 49.365C25.4705 49.3584 25.4141 49.3687 25.3548 49.3751C25.2985 49.3853 25.2388 49.3951 25.1849 49.3851C25.0764 49.3719 24.9644 49.3582 24.8529 49.3412C24.7444 49.328 24.6328 49.3109 24.5247 49.2943C24.4704 49.2877 24.4161 49.2811 24.3585 49.274C24.3042 49.2674 24.2461 49.2637 24.1923 49.2537C24.0841 49.2371 23.9784 49.1729 23.8706 49.1529C23.7591 49.1359 23.6539 49.0957 23.5457 49.0791C23.4914 49.0725 23.4363 49.0726 23.3808 49.0761C23.3219 49.0791 23.2664 49.0826 23.2092 49.0722C23.1015 49.0522 23.0058 48.9619 22.898 48.9419C22.8442 48.9319 22.7878 48.9421 22.7277 48.9553C22.6676 48.9685 22.6112 48.9787 22.5574 48.9687C22.5035 48.9587 22.4488 48.9555 22.3946 48.9489C22.3369 48.9418 22.2822 48.9386 22.225 48.9282C22.1176 48.9048 22.0333 48.7782 21.9264 48.7515C21.819 48.7281 21.7113 48.7081 21.6044 48.6814C21.4975 48.6547 21.3927 48.6111 21.2858 48.5844C21.2323 48.571 21.1718 48.5876 21.1112 48.6041C21.0507 48.6207 20.9901 48.6372 20.9367 48.6239C20.8298 48.5972 20.75 48.4609 20.6431 48.4341C20.5863 48.4204 20.5304 48.4272 20.4706 48.437C20.4113 48.4435 20.3554 48.4503 20.3015 48.4403C20.1942 48.417 20.0961 48.3469 19.9888 48.3235C19.8814 48.3001 19.7766 48.2566 19.6693 48.2332C19.6124 48.2194 19.5485 48.2356 19.485 48.2483C19.4214 48.2611 19.3613 48.2743 19.3041 48.2639C19.1862 48.2427 19.0796 48.1852 18.9651 48.1644C18.9044 48.1536 18.8463 48.1499 18.7849 48.1458C18.7268 48.1421 18.6687 48.1385 18.6115 48.1281C18.497 48.1072 18.3965 47.9992 18.282 47.9784C18.221 47.971 18.1599 47.9635 18.1022 47.9565C18.0446 47.9494 17.9869 47.9424 17.9292 47.9354C17.8716 47.9283 17.8127 47.9314 17.75 47.9374C17.6907 47.9439 17.6314 47.9503 17.5707 47.9395C17.4558 47.922 17.3537 47.8275 17.2354 47.8096C17.1777 47.8026 17.1172 47.8192 17.0528 47.8387C16.9923 47.8552 16.928 47.8747 16.8707 47.8643C16.7588 47.8507 16.6579 47.746 16.5464 47.729C16.4921 47.7224 16.4332 47.7254 16.3739 47.7319C16.3146 47.7383 16.2591 47.7418 16.2014 47.7348C16.1472 47.7281 16.0891 47.7245 16.0306 47.7242C15.9755 47.7243 15.917 47.724 15.8631 47.714C15.7478 47.6999 15.6371 47.6762 15.5252 47.6625C15.4132 47.6488 15.314 47.5307 15.2021 47.517C15.0902 47.5034 14.9748 47.4893 14.8629 47.4757C14.8086 47.469 14.7489 47.4788 14.6888 47.492C14.632 47.5056 14.5723 47.5154 14.5146 47.5084C14.4027 47.4947 14.3027 47.3833 14.1907 47.3697C14.1365 47.3631 14.0784 47.3594 14.0233 47.3595C13.9648 47.3592 13.9063 47.3589 13.8491 47.3485C13.7371 47.3349 13.6252 47.3212 13.5141 47.3008C13.4564 47.2938 13.4009 47.2972 13.342 47.3003C13.2827 47.3068 13.2238 47.3098 13.1699 47.2998C13.1156 47.2932 13.0614 47.2866 13.0105 47.2804C12.9528 47.2733 12.8952 47.2663 12.8375 47.2593C12.7264 47.2389 12.6327 47.1317 12.525 47.1117C12.4712 47.1017 12.4123 47.1048 12.3563 47.1116C12.297 47.1181 12.2381 47.1211 12.1843 47.1111C12.0731 47.0907 11.9742 47.0274 11.8635 47.0036C11.8096 46.9936 11.7553 46.987 11.701 46.9804C11.6434 46.9733 11.5891 46.9667 11.5352 46.9567C11.4245 46.9329 11.3193 46.8927 11.212 46.8694C11.1013 46.8456 10.9889 46.8353 10.8812 46.8153C10.8273 46.8053 10.7684 46.8084 10.7091 46.8148C10.6532 46.8217 10.5943 46.8248 10.5404 46.8148C10.4327 46.7948 10.3291 46.7411 10.2214 46.7211C10.1103 46.7007 10.0071 46.6437 9.89892 46.627C9.7912 46.6071 9.68841 46.5466 9.58028 46.53C9.47255 46.51 9.36482 46.49 9.25709 46.4701C9.20282 46.4634 9.14691 46.4703 9.08718 46.4801C9.03085 46.4903 8.97452 46.5006 8.92025 46.4939C8.81211 46.4773 8.70398 46.4607 8.59584 46.4441C8.48771 46.4275 8.38286 46.3839 8.27473 46.3673C8.16659 46.3507 8.06174 46.3071 7.9536 46.2905C7.89933 46.2838 7.84506 46.2772 7.79079 46.2706C7.73651 46.264 7.68224 46.2573 7.62796 46.2507C7.51983 46.2341 7.41498 46.1905 7.30726 46.1705C7.25299 46.1639 7.19871 46.1573 7.14402 46.154C7.08975 46.1474 7.03466 46.1475 6.9774 46.1371C6.92313 46.1305 6.8668 46.1407 6.80667 46.1539C6.74993 46.1675 6.6902 46.1773 6.63593 46.1707C6.5282 46.1507 6.42501 46.0937 6.31728 46.0737C6.20956 46.0537 6.10636 45.9966 5.99822 45.98C5.8905 45.96 5.78482 45.9232 5.6771 45.9032C5.62323 45.8932 5.56773 45.8967 5.51223 45.9002C5.45672 45.9037 5.39741 45.9101 5.34396 45.8967C5.23624 45.8768 5.1431 45.7936 5.03918 45.7706C4.93187 45.7473 4.83339 45.7079 4.72649 45.6812C4.67304 45.6678 4.61713 45.6747 4.56162 45.6781C4.50231 45.6846 4.4434 45.6877 4.39335 45.6747C4.29025 45.645 4.19383 45.5888 4.08775 45.5553C4.03811 45.539 3.98342 45.5358 3.93254 45.5296C3.87488 45.5225 3.81721 45.5155 3.76417 45.4987C3.66148 45.4657 3.55962 45.4259 3.45734 45.3895C3.35507 45.3531 3.26831 45.2741 3.16984 45.2347C3.06797 45.1949 2.98461 45.1163 2.88655 45.0736C2.83772 45.0505 2.78304 45.0472 2.72497 45.0436C2.66689 45.0399 2.60542 45.0358 2.5566 45.0128C2.45936 44.9633 2.3798 44.8817 2.28595 44.8327C2.19252 44.7802 2.11676 44.6957 2.02373 44.6399C1.93071 44.5841 1.80315 44.5856 1.71054 44.5264C1.62131 44.4677 1.58308 44.3296 1.49427 44.2675C1.40546 44.2053 1.32004 44.1436 1.23503 44.0785C1.15003 44.0134 1.05783 43.9508 0.98629 43.86C0.911358 43.7688 0.817401 43.6923 0.78523 43.5892C0.750079 43.4823 0.746695 43.369 0.721308 43.2668C0.693353 43.1573 0.622631 43.0598 0.604441 42.9549C0.586661 42.8467 0.565908 42.7347 0.554912 42.6274C0.544328 42.5166 0.565089 42.4029 0.567662 42.2972C0.570646 42.1881 0.661833 42.0897 0.678386 41.9823C0.694938 41.8749 0.614353 41.7453 0.644063 41.6429C0.673773 41.5405 0.756926 41.4515 0.800204 41.3507C0.843071 41.2534 0.931375 41.1786 0.98781 41.0829C1.04383 40.9906 1.08033 40.889 1.14951 40.8016C1.21489 40.7173 1.22455 40.5816 1.30309 40.5023C1.37443 40.4255 1.49295 40.3852 1.57487 40.3063C1.65639 40.2307 1.73154 40.151 1.81305 40.0754C1.89457 39.9999 2.0063 39.9588 2.0874 39.8866C2.16851 39.8144 2.2198 39.7044 2.30132 39.6288C2.38283 39.5532 2.44267 39.4579 2.52419 39.3824C2.6057 39.3068 2.75064 39.304 2.83215 39.2284C2.91367 39.1529 2.92796 39.0075 3.00608 38.9315C3.0876 38.856 3.18997 38.8069 3.27149 38.7314C3.353 38.6558 3.47964 38.6336 3.56116 38.5581C3.64267 38.4825 3.69059 38.3721 3.77169 38.2999C3.85279 38.2277 3.91005 38.1252 3.99115 38.053C4.07267 37.9775 4.12314 37.8742 4.20466 37.7986C4.28617 37.7231 4.42217 37.7089 4.50327 37.6367C4.58479 37.5611 4.66888 37.4927 4.75039 37.4171C4.83191 37.3416 4.85216 37.2038 4.93368 37.1283C5.01519 37.0527 5.15118 37.0385 5.23229 36.9663C5.3138 36.8908 5.40426 36.8266 5.48537 36.7544C5.56647 36.6822 5.62671 36.5835 5.70823 36.5079C5.78974 36.4324 5.88616 36.3757 5.96726 36.3035C6.04878 36.228 6.10563 36.1289 6.18674 36.0567C6.26784 35.9845 6.34042 35.8976 6.42193 35.822C6.50304 35.7498 6.58495 35.6709 6.66606 35.5987C6.74716 35.5265 6.84574 35.4804 6.92685 35.4082C7.00754 35.3394 7.08525 35.2668 7.16934 35.1984C7.25003 35.1296 7.36434 35.0956 7.44504 35.0268C7.52573 34.958 7.58257 34.8589 7.66327 34.7901C7.74396 34.7213 7.79186 34.6108 7.87255 34.542C7.95664 34.4736 8.10332 34.4847 8.18699 34.4196C8.27108 34.3512 8.35475 34.2862 8.43843 34.2211C8.52251 34.1527 8.61215 34.0953 8.69285 34.0264C8.77693 33.958 8.77972 33.7942 8.86041 33.7254C8.94449 33.657 9.06989 33.6449 9.15398 33.5765C9.23807 33.5081 9.32174 33.4431 9.40541 33.378C9.48611 33.3092 9.52507 33.1874 9.60576 33.1186C9.69026 33.0468 9.79223 33.0011 9.87631 32.9327C9.96081 32.8609 10.0479 32.7963 10.1324 32.7245C10.2169 32.6528 10.3129 32.5995 10.3974 32.5277C10.4819 32.4559 10.554 32.3724 10.6381 32.304C10.7226 32.2322 10.7918 32.1449 10.8759 32.0765C10.96 32.0081 11.0415 31.9325 11.1256 31.8641C11.2097 31.7957 11.3665 31.808 11.4506 31.7396C11.5347 31.6712 11.6158 31.599 11.7003 31.5272C11.7844 31.4588 11.8599 31.3757 11.9444 31.3039C12.0285 31.2355 12.0679 31.1103 12.1524 31.0386C12.2369 30.9668 12.3031 30.8757 12.3872 30.8073C12.4712 30.7389 12.577 30.6902 12.6611 30.6218C12.7452 30.5534 12.8833 30.5497 12.9708 30.4817C13.0549 30.4133 13.0823 30.273 13.1664 30.2046C13.2539 30.1366 13.3652 30.0989 13.4493 30.0305C13.5334 29.9621 13.5821 29.8449 13.6662 29.7765C13.7503 29.7081 13.8586 29.6666 13.9427 29.5982C14.0302 29.5302 14.1535 29.5076 14.2376 29.4392C14.3216 29.3708 14.4121 29.3066 14.4996 29.2386C14.5836 29.1702 14.6111 29.0299 14.6952 28.9615C14.7827 28.8935 14.9238 28.8936 15.0113 28.8256C15.0954 28.7572 15.1769 28.6816 15.261 28.6132C15.3484 28.5452 15.4087 28.4466 15.4928 28.3782C15.5802 28.3102 15.6912 28.2758 15.7786 28.2078C15.8661 28.1398 15.8965 28.0033 15.9806 27.9349C16.0681 27.8669 16.1611 27.8099 16.2486 27.7419C16.3327 27.6735 16.4734 27.6769 16.5609 27.609C16.6484 27.541 16.7414 27.4839 16.8289 27.4159C16.913 27.3475 16.9672 27.2413 17.0547 27.1733C17.1422 27.1053 17.2263 27.0369 17.3133 26.9722C17.4008 26.9043 17.4611 26.8056 17.5451 26.7372C17.6326 26.6692 17.7018 26.5819 17.7893 26.5139C17.8768 26.4459 17.9638 26.3812 18.0513 26.3132C18.1354 26.2448 18.2437 26.2033 18.3312 26.1353C18.4153 26.0669 18.4998 25.9952 18.5839 25.9268C18.6713 25.8588 18.7793 25.8206 18.8668 25.7526C18.9542 25.6846 18.9996 25.567 19.087 25.4991C19.1745 25.4311 19.3212 25.4421 19.4053 25.3737C19.4928 25.3057 19.5832 25.2415 19.6673 25.1731C19.7548 25.1051 19.7733 24.9535 19.8608 24.8855C19.9449 24.8171 20.0413 24.7604 20.1283 24.6958C20.2158 24.6278 20.3536 24.6275 20.4377 24.5591C20.5251 24.4911 20.5913 24.4 20.6788 24.332C20.7663 24.264 20.8235 24.1616 20.911 24.0936C20.9951 24.0252 21.0971 23.9795 21.1845 23.9115C21.272 23.8435 21.3442 23.7599 21.4317 23.6919C21.5191 23.6239 21.642 23.6047 21.7261 23.5363C21.8131 23.4717 21.8972 23.4033 21.9847 23.3353C22.0684 23.2703 22.1588 23.2061 22.2459 23.1414C22.3296 23.0764 22.3962 22.9819 22.4832 22.9173C22.5703 22.8527 22.6276 22.7502 22.7146 22.6856C22.8017 22.621 22.9096 22.5828 22.9971 22.5148C23.0808 22.4498 23.1712 22.3856 23.2583 22.321C23.3454 22.2563 23.4116 22.1652 23.4991 22.0972C23.5827 22.0322 23.6941 21.9945 23.7811 21.9299C23.8682 21.8652 23.9761 21.8271 24.0632 21.7625C24.1502 21.6979 24.2433 21.6408 24.3303 21.5762C24.4174 21.5116 24.5283 21.4772 24.6154 21.4126C24.7025 21.348 24.775 21.2611 24.8621 21.1964C24.9492 21.1318 25.0034 21.0256 25.0939 20.9614C25.181 20.8967 25.3064 20.8847 25.393 20.8234C25.4835 20.7592 25.5735 20.6984 25.6602 20.6371C25.7473 20.5725 25.7934 20.4482 25.8801 20.3869C25.9671 20.3223 26.081 20.2917 26.1677 20.2305C26.2581 20.1663 26.3363 20.0903 26.4233 20.0257C26.5104 19.961 26.5796 19.8737 26.67 19.8095C26.7571 19.7449 26.8438 19.6836 26.9342 19.6194C27.0209 19.5582 27.0934 19.4713 27.1839 19.4071C27.2705 19.3458 27.355 19.274 27.4451 19.2132C27.5317 19.1519 27.6661 19.1512 27.7565 19.087C27.8432 19.0258 27.9337 18.9616 28.0237 18.9007C28.1108 18.8361 28.1893 18.7568 28.276 18.6955C28.366 18.6347 28.4267 18.5326 28.5171 18.4684C28.6076 18.4042 28.7002 18.3505 28.7902 18.2897C28.8803 18.2288 29.0228 18.2462 29.1128 18.1854C29.2029 18.1245 29.2869 18.0561 29.377 17.9953C29.467 17.9345 29.569 17.8888 29.6586 17.8313C29.7483 17.7738 29.8477 17.721 29.9377 17.6601C30.0278 17.5993 30.0509 17.4379 30.141 17.3771C30.2344 17.3167 30.3854 17.3488 30.4754 17.288C30.5655 17.2271 30.6415 17.1406 30.7311 17.0831C30.8211 17.0223 30.9142 16.9653 31.0038 16.9078C31.0972 16.8474 31.1958 16.8012 31.2888 16.7442C31.3789 16.6834 31.4689 16.6225 31.559 16.5617C31.649 16.5008 31.7331 16.4324 31.8232 16.3716C31.9166 16.3112 32.0301 16.284 32.1197 16.2265C32.2098 16.1657 32.2559 16.0413 32.346 15.9805C32.436 15.9197 32.558 15.9072 32.6485 15.843C32.7389 15.7788 32.8286 15.7213 32.9186 15.6605C33.0087 15.5996 33.1017 15.5426 33.1918 15.4817C33.2822 15.4175 33.3816 15.3647 33.4721 15.3005C33.5591 15.2358 33.6027 15.1043 33.6932 15.0401C33.7802 14.9755 33.8528 14.8886 33.9437 14.821C34.0312 14.753 34.154 14.7338 34.2415 14.6658C34.3324 14.5982 34.4582 14.5828 34.5456 14.5148C34.6365 14.4472 34.7236 14.3826 34.8111 14.3146C34.9019 14.247 34.9119 14.0807 34.9994 14.0127C35.0869 13.9447 35.2335 13.9557 35.3244 13.8882C35.4119 13.8202 35.4334 13.6723 35.5209 13.6043C35.6083 13.5363 35.7763 13.5705 35.8638 13.5025C35.9512 13.4345 36.0179 13.34 36.1053 13.272C36.1962 13.2045 36.2982 13.1588 36.389 13.0912C36.4765 13.0232 36.5427 12.9321 36.6336 12.8645C36.7211 12.7965 36.8201 12.747 36.9109 12.6794C36.9984 12.6114 37.071 12.5245 37.1618 12.4569C37.2527 12.3894 37.3606 12.3512 37.4515 12.2837C37.539 12.2157 37.615 12.1292 37.7054 12.065C37.7929 11.997 37.8953 11.9479 37.9861 11.8803C38.0736 11.8123 38.1343 11.7103 38.2251 11.6427C38.316 11.5751 38.3796 11.4769 38.4705 11.4093C38.5614 11.3417 38.6514 11.2809 38.7423 11.2133C38.8328 11.1491 38.95 11.1189 39.0409 11.0513C39.1318 10.9838 39.2014 10.8931 39.2918 10.8289C39.3823 10.7646 39.4817 10.7118 39.5726 10.6442C39.6634 10.5766 39.7479 10.5049 39.8388 10.4373C39.9297 10.3697 40.0436 10.3391 40.1344 10.2716C40.2219 10.2036 40.3217 10.1473 40.4088 10.0827C40.4996 10.0151 40.5991 9.96228 40.6865 9.89429C40.7774 9.82671 40.847 9.73602 40.9379 9.66844C41.0287 9.60086 41.1426 9.57029 41.2335 9.50271C41.3244 9.43513 41.3731 9.31795 41.464 9.25037C41.5548 9.18279 41.6214 9.08831 41.7123 9.02073C41.7998 8.95274 41.9201 8.92637 42.0105 8.86216C42.1014 8.79459 42.1889 8.72659 42.2759 8.66197C42.3668 8.59439 42.4457 8.51168 42.5328 8.44706C42.6237 8.37948 42.7555 8.37162 42.8463 8.30404C42.9338 8.23604 43.0302 8.17941 43.1211 8.11183C43.2086 8.04383 43.2662 7.938 43.3571 7.87042C43.4442 7.8058 43.5346 7.74159 43.6217 7.67697C43.7088 7.61235 43.7869 7.53637 43.874 7.47175C43.9644 7.40754 44.0336 7.32022 44.1207 7.25559C44.2111 7.19138 44.2833 7.10784 44.3733 7.047C44.4634 6.98617 44.6126 7.00438 44.7027 6.94354C44.7893 6.88229 44.8734 6.81388 44.9639 6.74967C45.0539 6.68884 45.0911 6.55314 45.1816 6.48894C45.2721 6.42473 45.432 6.46819 45.522 6.40735C45.6121 6.34651 45.7051 6.28946 45.7952 6.22862C45.8852 6.16778 45.9288 6.03629 46.0184 5.97882C46.1119 5.91839 46.2365 5.91307 46.3265 5.85224C46.4199 5.79181 46.5185 5.7457 46.6086 5.68486C46.702 5.62443 46.7972 5.57791 46.8906 5.51748C46.9807 5.45664 47.0622 5.38108 47.1518 5.32361C47.2449 5.26656 47.3464 5.22423 47.4394 5.16717C47.5325 5.11012 47.5935 5.0047 47.6866 4.94765C47.7724 4.89313 47.8233 4.78647 47.9061 4.72818C47.9924 4.6703 48.1255 4.6797 48.2083 4.6214C48.2882 4.55932 48.3476 4.46738 48.4275 4.4053C48.5074 4.34322 48.5608 4.24372 48.6407 4.18164C48.721 4.11619 48.8336 4.09573 48.9139 4.03028C48.9938 3.9682 49.0945 3.93261 49.1748 3.86716C49.2619 3.80254 49.337 3.72278 49.4207 3.65774C49.5078 3.59312 49.5978 3.53228 49.6815 3.46725C49.769 3.39925 49.8616 3.34557 49.9452 3.28053C50.0289 3.2155 50.0538 3.06804 50.1375 3.003C50.2216 2.9346 50.3533 2.92673 50.4374 2.85833C50.5215 2.78992 50.5575 2.66434 50.6416 2.59593C50.7286 2.53131 50.8157 2.46669 50.8994 2.40165C50.9864 2.33703 51.1063 2.31403 51.19 2.249C51.277 2.18438 51.3373 2.0857 51.4209 2.02066C51.508 1.95604 51.6279 1.93304 51.7115 1.868C51.7986 1.80338 51.8231 1.65929 51.9102 1.59467C52.0124 1.51822 52.165 1.50948 52.2728 1.44397C52.384 1.37887 52.4807 1.29149 52.592 1.22639C52.7028 1.16467 52.8281 1.12523 52.9359 1.05973C53.0323 1.00309 53.122 0.945618 53.2189 0.912982C53.3196 0.877391 53.4203 0.814423 53.5249 0.803251C53.6334 0.789122 53.7508 0.786346 53.8525 0.798765C53.9577 0.811597 54.0445 0.917966 54.143 0.957345C54.2381 0.996311 54.3336 1.03191 54.4224 1.09405C54.5044 1.15536 54.5594 1.24074 54.6322 1.32145C54.702 1.39837 54.858 1.41742 54.9122 1.50953C54.9697 1.60207 55.0007 1.71529 55.0472 1.81332C55.0938 1.91135 55.1543 2.00767 55.1937 2.10824C55.2331 2.20882 55.2149 2.32973 55.2466 2.43621C55.2754 2.53891 55.2441 2.6548 55.2618 2.763C55.2834 2.86824 55.4096 2.96231 55.4172 3.06927C55.4248 3.17623 55.3354 3.28845 55.3324 3.39753C55.3299 3.50325 55.3616 3.60974 55.359 3.71545C55.3565 3.82117 55.3162 3.9257 55.3132 4.03479C55.3106 4.1405 55.4246 4.25018 55.422 4.3559C55.4195 4.46162 55.2969 4.56296 55.2939 4.67204C55.2914 4.77776 55.3435 4.88673 55.3409 4.99244C55.3349 5.09775 55.3837 5.2063 55.3777 5.3116C55.3717 5.41691 55.3039 5.5215 55.2979 5.6268C55.292 5.7321 55.2279 5.83374 55.2215 5.94241C55.2122 6.0473 55.3084 6.16165 55.299 6.26654C55.2931 6.37184 55.1985 6.46975 55.1887 6.57801C55.1794 6.68289 55.2413 6.79648 55.2319 6.90137C55.2225 7.00625 55.2263 7.11617 55.2136 7.22064C55.2008 7.32512 55.0829 7.41676 55.0698 7.5246C55.0566 7.63245 55.0545 7.73479 55.0413 7.84264C55.0247 7.95007 55.0998 8.06868 55.0832 8.17611C55.0667 8.28354 54.9861 8.37973 54.9695 8.48716C54.953 8.59459 54.9602 8.70492 54.9436 8.81235C54.9271 8.91978 54.9648 9.03384 54.9482 9.14127C54.9283 9.24828 54.8579 9.34572 54.8413 9.45315C54.8248 9.56058 54.7777 9.66429 54.7611 9.77172C54.7446 9.87915 54.7077 9.98409 54.6915 10.0882C54.675 10.1956 54.655 10.3026 54.6385 10.41C54.6185 10.517 54.6999 10.6399 54.68 10.7469C54.6634 10.8543 54.6299 10.9597 54.6134 11.0671C54.5968 11.1745 54.5599 11.2795 54.5434 11.3869C54.5268 11.4943 54.4462 11.5905 54.4297 11.698C54.4097 11.805 54.464 11.9245 54.4474 12.0319C54.4301 12.1461 54.453 12.2686 54.4356 12.3827C54.4182 12.4969 54.2855 12.597 54.2681 12.7112C54.2542 12.8258 54.2364 12.9433 54.219 13.0575C54.205 13.1721 54.2822 13.3012 54.2678 13.4192C54.2504 13.5333 54.2394 13.6517 54.2221 13.7659C54.2047 13.88 54.1534 13.9901 54.1356 14.1076C54.1148 14.2214 54.0296 14.3273 54.0089 14.441C53.9915 14.5552 54.0547 14.686 54.0339 14.7998C54.014 14.9068 53.913 15.0005 53.8931 15.1075C53.8731 15.2145 53.9372 15.3387 53.9168 15.449C53.8965 15.5594 53.8935 15.6685 53.8735 15.7755C53.8536 15.8825 53.7158 15.9683 53.6924 16.0749C53.6725 16.182 53.7497 16.3111 53.7297 16.4181C53.7098 16.5251 53.703 16.6372 53.6796 16.7438C53.6597 16.8508 53.5219 16.9366 53.5019 17.0436C53.4786 17.1502 53.5358 17.2735 53.5155 17.3839C53.4921 17.4905 53.4654 17.5966 53.445 17.707C53.4247 17.8174 53.4217 17.9265 53.3984 18.0331C53.3784 18.1401 53.3046 18.2371 53.2809 18.3471C53.2609 18.4541 53.2541 18.5662 53.2342 18.6732C53.2143 18.7802 53.1303 18.876 53.1099 18.9864C53.0866 19.093 53.1781 19.217 53.1582 19.324C53.1417 19.4315 53.0276 19.5202 53.008 19.6238C52.9915 19.7312 53.0428 19.8469 53.0262 19.9544C53.0063 20.0614 53.0037 20.1671 52.9871 20.2745C52.9706 20.382 52.907 20.4802 52.8908 20.5843C52.8747 20.6884 52.8683 20.797 52.8483 20.904C52.8318 21.0115 52.8593 21.1243 52.8398 21.2279C52.8233 21.3354 52.7397 21.4278 52.7197 21.5348C52.699 21.6486 52.6515 21.7556 52.6311 21.866C52.6104 21.9798 52.7045 22.111 52.6837 22.2247C52.663 22.3385 52.5616 22.4356 52.5413 22.546C52.5171 22.6593 52.4764 22.7672 52.456 22.8776C52.4353 22.9913 52.5091 23.1201 52.4849 23.2334C52.4641 23.3472 52.4268 23.4555 52.4065 23.5659C52.3857 23.6796 52.3887 23.7963 52.3683 23.9067C52.3476 24.0204 52.3069 24.1283 52.2861 24.2421C52.2653 24.3558 52.1674 24.4533 52.147 24.5637C52.1266 24.6741 52.1865 24.8045 52.1695 24.9153C52.1487 25.0291 52.0338 25.1245 52.0135 25.2349C51.9935 25.3419 52.0003 25.4556 51.9837 25.5631C51.9638 25.6701 51.9841 25.7854 51.9676 25.8929C51.9476 25.9999 51.8501 26.094 51.8301 26.201C51.8136 26.3084 51.8844 26.4334 51.8679 26.5408C51.8479 26.6478 51.7737 26.7482 51.7571 26.8557C51.7372 26.9627 51.7206 27.0701 51.7007 27.1771C51.6841 27.2845 51.7384 27.404 51.7185 27.5111C51.7019 27.6185 51.6515 27.7218 51.6349 27.8292C51.6183 27.9366 51.5645 28.0395 51.5479 28.1469C51.5314 28.2544 51.5721 28.3722 51.5555 28.4796C51.539 28.5871 51.5292 28.6953 51.5126 28.8028C51.4961 28.9102 51.4456 29.0135 51.4325 29.1213C51.4159 29.2288 51.3824 29.3341 51.3692 29.442C51.3527 29.5494 51.3429 29.6577 51.3298 29.7655C51.3132 29.8729 51.3441 29.9862 51.3276 30.0936C51.3144 30.2014 51.2911 30.308 51.2779 30.4159C51.2614 30.5233 51.2143 30.627 51.1977 30.7344C51.1812 30.8419 51.1443 30.9468 51.1277 31.0543C51.1112 31.1617 51.1896 31.2807 51.1764 31.3885C51.1599 31.496 51.1365 31.6026 51.12 31.71L51.0805 32.0335C51.064 32.141 51.0508 32.2488 51.0342 32.3563C51.0211 32.4641 50.9944 32.5703 50.9812 32.6781C50.968 32.786 50.8429 32.8802 50.8268 32.9842C50.8136 33.0921 50.9158 33.214 50.9026 33.3218C50.8895 33.4297 50.8153 33.5301 50.8021 33.6379C50.7889 33.7458 50.752 33.8507 50.7389 33.9585C50.7257 34.0664 50.682 34.1705 50.6689 34.2784C50.6523 34.3858 50.7409 34.506 50.7278 34.6139C50.7146 34.7217 50.5997 34.8172 50.5865 34.925C50.5734 35.0329 50.6861 35.1526 50.673 35.2605C50.6598 35.3683 50.6398 35.4753 50.6271 35.5798C50.6143 35.6843 50.4787 35.7806 50.4655 35.8885C50.4557 35.9967 50.5549 36.1148 50.5452 36.2231C50.532 36.3309 50.512 36.438 50.4993 36.5424C50.4895 36.6507 50.4187 36.7515 50.406 36.856C50.3928 36.9638 50.3864 37.0725 50.3737 37.177C50.3609 37.2814 50.3372 37.3914 50.3278 37.4963C50.3146 37.6041 50.3117 37.7132 50.2989 37.8177C50.2862 37.9222 50.3341 38.0375 50.3209 38.1453C50.3111 38.2536 50.2335 38.3536 50.2204 38.4614C50.2072 38.5693 50.2657 38.6824 50.2559 38.7907C50.2428 38.8985 50.1516 38.9968 50.1384 39.1047C50.1287 39.213 50.085 39.3171 50.0718 39.4249C50.0586 39.5328 50.1171 39.6459 50.104 39.7538C50.0942 39.862 50.0878 39.9707 50.0751 40.0752C50.0653 40.1834 50.0318 40.2888 50.019 40.3933C50.0059 40.5011 49.952 40.604 49.9393 40.7085C49.9295 40.8167 49.9575 40.9262 49.9477 41.0344C49.9345 41.1423 49.9112 41.2489 49.9018 41.3538C49.8887 41.4616 49.8925 41.5715 49.8831 41.6764C49.8699 41.7842 49.9352 41.8982 49.9221 42.0061C49.9089 42.1139 49.8109 42.2114 49.8012 42.3197C49.788 42.4275 49.799 42.5349 49.7858 42.6428C49.7727 42.7506 49.7324 42.8551 49.723 42.96C49.7099 43.0679 49.6933 43.1753 49.684 43.2802C49.67 43.3948 49.7141 43.513 49.7035 43.628C49.6895 43.7426 49.7268 43.86 49.7162 43.975C49.7022 44.0896 49.6102 44.1947 49.5996 44.3097C49.589 44.4247 49.6264 44.5421 49.6158 44.6571C49.6052 44.7721 49.5403 44.8805 49.5297 44.9955C49.5191 45.1105 49.5768 45.2304 49.5666 45.342C49.556 45.457 49.4301 45.5579 49.4195 45.6729C49.4089 45.7879 49.3987 45.8995 49.3881 46.0145C49.3775 46.1295 49.4556 46.2519 49.4454 46.3636C49.4314 46.4782 49.4178 46.5894 49.4072 46.7044C49.3933 46.8189 49.3216 46.9265 49.308 47.0377C49.2974 47.1527 49.3585 47.273 49.3445 47.3876C49.3322 47.4887 49.3126 47.5924 49.2999 47.6968C49.2842 47.7975 49.2443 47.8987 49.2285 47.9994C49.2128 48.1001 49.2238 48.2074 49.2077 48.3115C49.1886 48.4118 49.0948 48.503 49.0757 48.6032C49.0566 48.7035 49.0773 48.8155 49.0582 48.9158C49.0391 49.016 49.0569 49.1242 49.0373 49.2279C49.0178 49.3315 48.9618 49.4239 48.9422 49.5275C48.9331 49.5743 48.8911 49.6923 48.8816 49.8553C48.873 49.9535 48.9006 50.0663 48.8926 50.1884C48.8832 50.2933 48.9074 50.4057 48.893 50.5237C48.8798 50.6315 48.8594 50.7419 48.8425 50.8527C48.8255 50.9635 48.775 51.0668 48.7517 51.1734C48.728 51.2834 48.7242 51.3992 48.6911 51.5012C48.6571 51.6099 48.6033 51.7128 48.5604 51.8102C48.5095 51.9168 48.4025 51.9756 48.3409 52.057C48.2675 52.1507 48.2477 52.2851 48.1555 52.3354C48.0599 52.3853 47.9406 52.4597 47.8181 52.4481C47.7672 52.4419 47.715 52.4184 47.6598 52.3912C47.608 52.3643 47.5558 52.3409 47.4981 52.3338C47.393 52.321 47.2787 52.3549 47.1633 52.3409C47.0582 52.328 46.943 52.3413 46.831 52.3277C46.7225 52.3144 46.6242 52.2169 46.5123 52.2033C46.4614 52.1971 46.4071 52.1904 46.3524 52.1872C46.2981 52.1806 46.2397 52.1803 46.1824 52.1699C46.0739 52.1566 45.9674 52.1265 45.8558 52.1095C45.8016 52.1029 45.7469 52.0996 45.6918 52.0997C45.6367 52.0998 45.5816 52.1 45.5243 52.0895C45.4701 52.0829 45.4154 52.0797 45.3607 52.0764C45.306 52.0732 45.2509 52.0733 45.1937 52.0629C45.0851 52.0496 44.9782 52.0229 44.8667 52.0059C44.7581 51.9926 44.6483 51.9621 44.5401 51.9455C44.4859 51.9389 44.4274 51.9386 44.3719 51.9421C44.3163 51.9455 44.2613 51.9457 44.207 51.939C44.095 51.9254 44.0001 51.8009 43.8919 51.7843C43.8377 51.7777 43.7771 51.7942 43.7195 51.8146C43.6586 51.8345 43.601 51.8548 43.5472 51.8448C43.4352 51.8312 43.3316 51.7775 43.2231 51.7642C43.1111 51.7506 43.0083 51.6902 42.8998 51.6769C42.8421 51.6699 42.7845 51.6628 42.726 51.6625C42.6717 51.6559 42.62 51.6564 42.5691 51.6502C42.4538 51.6362 42.3452 51.6229 42.2401 51.6101C42.1247 51.596 42.0104 51.63 41.9087 51.6175C41.8137 51.6059 41.717 51.5805 41.6224 51.5655C41.5274 51.5539 41.4341 51.5288 41.3391 51.5172L41.3231 51.5358" fill="#FFD400"/>
</svg>
