<svg width="46" height="39" viewBox="0 0 46 39" fill="none" xmlns="http://www.w3.org/2000/svg">
<path id="shape2" d="M18.326 38.9335C18.2338 38.9335 18.1416 38.9104 18.0493 38.9104C17.9571 38.9104 17.8648 38.9854 17.7726 38.9854C17.6803 38.9854 17.5852 38.9104 17.4929 38.9104C17.4007 38.9104 17.3084 38.9219 17.2133 38.9219C17.1211 38.9219 17.0288 38.9335 16.9366 38.9335C16.8443 38.9335 16.7521 38.9941 16.6598 38.9941C16.5676 38.9941 16.4753 38.9335 16.3802 38.9335C16.2851 38.9335 16.1957 38.9335 16.1034 38.9335C16.0112 38.9335 15.9189 38.9912 15.8238 38.9912C15.7316 38.9912 15.6393 38.9479 15.5471 38.9479C15.4548 38.9479 15.3626 38.9364 15.2703 38.9335C15.1723 38.9335 15.0743 38.945 14.9792 38.945C14.8812 38.945 14.7831 39.0028 14.6851 38.9999C14.5871 38.997 14.492 38.9161 14.3969 38.9132C14.2988 38.9104 14.2008 38.9797 14.1028 38.9768C14.0048 38.9739 13.9097 38.919 13.8145 38.9161C13.7165 38.9132 13.6185 38.9392 13.5234 38.9364C13.4254 38.9335 13.3302 38.9161 13.2322 38.9132C13.1342 38.9104 13.0391 38.9104 12.9411 38.9075C12.8431 38.9075 12.745 38.9421 12.6499 38.9392C12.5519 38.9392 12.4568 38.9046 12.3588 38.9017C12.2607 38.8988 12.1656 38.8844 12.0676 38.8844C11.9725 38.8844 11.8773 38.9132 11.7822 38.9161C11.6871 38.9161 11.5919 38.9017 11.4968 38.9046C11.4017 38.9046 11.3037 38.8353 11.2085 38.8381C11.1134 38.841 11.0183 38.8613 10.9231 38.8641C10.828 38.867 10.7329 38.9017 10.6377 38.9046C10.5426 38.9075 10.4475 38.8815 10.3495 38.8844C10.2543 38.8872 10.1592 38.9306 10.0641 38.9335C9.96895 38.9335 9.87382 38.9335 9.77869 38.9364C9.68356 38.9364 9.58842 38.893 9.49329 38.893C9.39816 38.893 9.30592 38.9797 9.21079 38.9768C9.11566 38.9768 9.02052 38.9797 8.92827 38.9768C8.83314 38.9768 8.7409 38.9566 8.64577 38.9566C8.55063 38.9566 8.45838 38.8988 8.36325 38.8988C8.26812 38.8988 8.17299 38.9508 8.08074 38.9508C7.9885 38.9508 7.89336 38.9277 7.79823 38.9277C7.7031 38.9277 7.61085 38.9219 7.51572 38.919C7.42059 38.9161 7.32834 38.919 7.23321 38.919C7.13808 38.919 7.04583 38.8584 6.9507 38.8555C6.85557 38.8555 6.76332 38.8468 6.66819 38.8439C6.57306 38.841 6.47793 38.867 6.38568 38.8641C6.29344 38.8641 6.20119 38.9306 6.10894 38.9277C6.01669 38.9248 5.92732 38.9219 5.83508 38.919C5.74283 38.9161 5.65635 38.8526 5.5641 38.8497C5.47185 38.8468 5.38248 38.8064 5.29312 38.8035C5.20087 38.8006 5.10863 38.8757 5.01638 38.8728C4.92413 38.8699 4.83476 38.841 4.7454 38.8353C4.65315 38.8324 4.56378 38.8208 4.47154 38.8179C4.37929 38.815 4.28992 38.8179 4.19768 38.8122C4.10543 38.8093 4.01606 38.7631 3.9267 38.7573C3.83445 38.7544 3.7422 38.8035 3.65284 38.7977C3.56059 38.7948 3.47122 38.789 3.37897 38.7862C3.28672 38.7833 3.19736 38.7515 3.108 38.7486C3.01863 38.7457 2.92638 38.7688 2.83413 38.7631C2.74188 38.7602 2.65252 38.7284 2.56315 38.7255C2.47091 38.7226 2.37866 38.7573 2.28929 38.7515C2.19704 38.7486 2.10768 38.7024 2.01832 38.6995C1.9203 38.6966 1.82517 38.7457 1.75022 38.7342C1.6522 38.7197 1.56572 38.6735 1.49365 38.6417C1.41294 38.6042 1.37546 38.5147 1.3178 38.4454C1.2688 38.3847 1.26015 38.3038 1.21979 38.2114C1.18808 38.1392 1.11025 38.0785 1.08142 37.9861C1.05548 37.9024 1.018 37.8186 0.989172 37.7348C0.960345 37.6511 0.943049 37.5616 0.917101 37.4778C0.891157 37.394 0.894041 37.2987 0.868098 37.215C0.84215 37.1283 0.775847 37.0561 0.749903 36.9724C0.726839 36.8944 0.775851 36.8019 0.761435 36.724C0.747023 36.6431 0.657652 36.5738 0.654772 36.4958C0.651888 36.4034 0.729723 36.3081 0.723959 36.2156C0.721075 36.1232 0.674948 36.0337 0.672068 35.9413C0.669184 35.8488 0.654772 35.7564 0.651888 35.6669C0.649008 35.5744 0.611529 35.4849 0.608645 35.3925C0.605765 35.3001 0.654772 35.2048 0.651888 35.1152C0.649008 35.0228 0.605765 34.9333 0.599997 34.8408C0.597117 34.7484 0.597117 34.656 0.594237 34.5636C0.591353 34.4711 0.594233 34.3787 0.588469 34.2863C0.585585 34.1939 0.545226 34.1043 0.542345 34.0119C0.539462 33.9195 0.602881 33.8242 0.599997 33.7318C0.594233 33.6393 0.533694 33.5498 0.52793 33.4574C0.522162 33.365 0.565405 33.2725 0.559641 33.1801C0.553874 33.0877 0.499102 32.9981 0.493338 32.9057C0.48757 32.8133 0.52505 32.718 0.516402 32.6285C0.510634 32.536 0.48181 32.4465 0.473162 32.3541C0.467394 32.2616 0.46451 32.1692 0.455859 32.0768C0.447211 31.9844 0.412619 31.8948 0.406855 31.8024C0.401087 31.71 0.432803 31.6147 0.427035 31.5223C0.421271 31.4298 0.421271 31.3374 0.418387 31.245C0.415503 31.1526 0.409735 31.0601 0.406855 30.9677C0.406855 30.8753 0.383792 30.7829 0.383792 30.6904C0.383792 30.598 0.34632 30.5056 0.34632 30.4132C0.34632 30.3208 0.375144 30.2283 0.375144 30.1359C0.375144 30.0435 0.352084 29.9511 0.354968 29.8586C0.354968 29.7662 0.354968 29.6738 0.354968 29.5814C0.354968 29.4889 0.432799 29.3994 0.435683 29.307C0.435683 29.2146 0.3665 29.1221 0.36938 29.0297C0.36938 28.9373 0.421267 28.8478 0.424151 28.7553C0.427031 28.6629 0.378028 28.5705 0.380912 28.4781C0.383792 28.3856 0.435683 28.2961 0.438563 28.2037C0.441447 28.1113 0.458743 28.0188 0.461627 27.9264C0.464511 27.834 0.487574 27.7416 0.490458 27.652C0.493338 27.5596 0.435683 27.4672 0.438563 27.3748C0.438563 27.2823 0.490454 27.1928 0.493338 27.1004C0.493338 27.0079 0.435683 26.9155 0.438563 26.8231C0.438563 26.7307 0.490458 26.6411 0.490458 26.5487C0.490458 26.4563 0.461627 26.3639 0.464507 26.2714C0.464507 26.179 0.52505 26.0866 0.52505 25.9942C0.52505 25.9018 0.478923 25.8093 0.478923 25.7169C0.478923 25.6245 0.522166 25.5321 0.52505 25.4396C0.52505 25.3472 0.484687 25.2519 0.487571 25.1595C0.490455 25.0671 0.476043 24.9746 0.48181 24.8822C0.484691 24.7898 0.553874 24.7003 0.559642 24.6078C0.565406 24.5154 0.536582 24.4201 0.539462 24.3277C0.542346 24.2352 0.504866 24.1399 0.510634 24.0475C0.513518 23.9551 0.614413 23.8684 0.620181 23.7731C0.623061 23.6807 0.597117 23.5854 0.599997 23.493C0.602881 23.4005 0.631713 23.3081 0.634593 23.2157C0.637477 23.1233 0.571174 23.028 0.576941 22.9355C0.579822 22.8431 0.672069 22.7536 0.674952 22.6612C0.674952 22.5687 0.680716 22.4763 0.6836 22.3839C0.6836 22.2915 0.640357 22.1961 0.640357 22.1037C0.640357 22.0113 0.6836 21.9189 0.6836 21.8265C0.6836 21.734 0.617297 21.6416 0.617297 21.5492C0.617297 21.4568 0.660537 21.3643 0.660537 21.2719C0.660537 21.1795 0.677833 21.0871 0.677833 20.9946C0.677833 20.9022 0.643241 20.8098 0.643241 20.7174C0.643241 20.625 0.637477 20.5325 0.637477 20.4401C0.637477 20.3477 0.672069 20.2553 0.669185 20.1628C0.669185 20.0704 0.663421 19.978 0.663421 19.8856C0.663421 19.7931 0.597118 19.7036 0.597118 19.6112C0.597118 19.5188 0.628829 19.4263 0.628829 19.3339C0.628829 19.2415 0.58847 19.1491 0.58559 19.0595C0.58559 18.9671 0.654773 18.8747 0.654773 18.7823C0.654773 18.6898 0.634593 18.5974 0.634593 18.5079C0.634593 18.4155 0.654773 18.323 0.651889 18.2306C0.651889 18.1382 0.640357 18.0458 0.640357 17.9562C0.640357 17.8638 0.660537 17.7714 0.660537 17.679C0.660537 17.5865 0.594238 17.4941 0.594238 17.4046C0.594238 17.3121 0.553878 17.2197 0.553878 17.1273C0.553878 17.0349 0.54523 16.9425 0.54523 16.85C0.54523 16.7576 0.646125 16.6652 0.646125 16.5756C0.646125 16.4832 0.59135 16.3908 0.59135 16.2984C0.59135 16.206 0.56829 16.1135 0.56829 16.0211C0.56829 15.9287 0.620181 15.8391 0.620181 15.7467C0.620181 15.6543 0.631713 15.5619 0.634593 15.4723C0.634593 15.3799 0.56829 15.2846 0.56829 15.1922C0.56829 15.0998 0.654773 15.0073 0.654773 14.912C0.654773 14.8196 0.677833 14.7243 0.677833 14.6319C0.677833 14.5394 0.611533 14.447 0.611533 14.3517C0.611533 14.2564 0.669189 14.164 0.666305 14.0716C0.666305 13.9791 0.623062 13.8867 0.620181 13.7914C0.620181 13.699 0.649005 13.6037 0.646125 13.5112C0.646125 13.4188 0.591354 13.3264 0.58847 13.234C0.585586 13.1415 0.539462 13.0491 0.533698 12.9567C0.530815 12.8643 0.522167 12.7718 0.519283 12.6765C0.516399 12.5812 0.525051 12.4888 0.522167 12.3964C0.519287 12.304 0.510635 12.2115 0.507755 12.1162C0.501987 12.0238 0.591354 11.9256 0.58559 11.8332C0.579822 11.7407 0.54523 11.6483 0.539463 11.5559C0.533699 11.4635 0.527935 11.3711 0.522167 11.2757C0.516403 11.1833 0.501987 11.0909 0.496219 10.9985C0.490455 10.906 0.493339 10.8107 0.487571 10.7183C0.481807 10.6259 0.45298 10.5335 0.447212 10.441C0.441448 10.3486 0.487575 10.2533 0.481811 10.1609C0.476043 10.0685 0.435684 9.97604 0.429916 9.88361C0.424152 9.79119 0.415504 9.69877 0.41262 9.60345C0.406856 9.51103 0.406856 9.41572 0.403972 9.3233C0.398208 9.23087 0.360733 9.13845 0.354969 9.04603C0.352085 8.9536 0.372261 8.86118 0.366497 8.76875C0.363613 8.67633 0.366497 8.58391 0.366497 8.49148C0.366497 8.39906 0.354965 8.30664 0.352081 8.21421C0.352081 8.12179 0.337673 8.02937 0.337673 7.93694C0.337673 7.84452 0.357849 7.7521 0.357849 7.65967C0.357849 7.56725 0.415504 7.47771 0.415504 7.38529C0.415504 7.29287 0.331905 7.19756 0.334785 7.10802C0.337669 7.0156 0.412624 6.92606 0.418388 6.83653C0.424156 6.7441 0.38956 6.65168 0.395324 6.55926C0.401092 6.46683 0.378029 6.37441 0.386677 6.28199C0.392444 6.18956 0.424156 6.10003 0.432804 6.0076C0.441452 5.91518 0.421272 5.81987 0.432804 5.73033C0.441452 5.63791 0.550995 5.55704 0.562526 5.4675C0.574058 5.37508 0.481807 5.2711 0.493339 5.18157C0.504871 5.09203 0.579819 5.00828 0.59135 4.91585C0.605766 4.82632 0.571174 4.72523 0.58559 4.63569C0.600002 4.54616 0.637478 4.45662 0.654774 4.36709C0.672069 4.27755 0.674953 4.18224 0.692249 4.09271C0.709545 4.00317 0.804676 3.92808 0.824852 3.83854C0.845032 3.74901 0.830623 3.65081 0.850803 3.56127C0.870983 3.47174 0.879627 3.37931 0.902691 3.28978C0.925751 3.19447 0.960342 3.11071 0.992054 3.02406C1.02665 2.93452 1.09584 2.86809 1.13908 2.78722C1.18232 2.70347 1.15926 2.57927 1.21403 2.50707C1.2688 2.43197 1.37258 2.39442 1.43888 2.33088C1.50518 2.26445 1.57726 2.21247 1.65221 2.1547C1.72716 2.09982 1.77616 2.00451 1.85688 1.9583C1.9376 1.91498 2.03561 1.90342 2.12498 1.86588C2.20858 1.83122 2.27776 1.74457 2.37001 1.71569C2.45649 1.68681 2.56892 1.73302 2.65828 1.70703C2.74765 1.68103 2.8399 1.67525 2.92926 1.65504C3.01863 1.63482 3.10511 1.59727 3.19448 1.57994C3.28384 1.56261 3.37033 1.5164 3.46257 1.50196C3.55482 1.48752 3.6413 1.43553 3.73067 1.42398C3.82292 1.40954 3.91805 1.42975 4.0103 1.4182C4.10254 1.40665 4.19479 1.39798 4.28704 1.38932C4.38217 1.38065 4.47442 1.35755 4.56955 1.34888C4.66468 1.34022 4.7627 1.34888 4.85783 1.34022C4.95296 1.33155 5.05097 1.34022 5.1461 1.32867C5.24123 1.32 5.33924 1.35177 5.43438 1.34311C5.52951 1.33444 5.62175 1.30267 5.71688 1.29401C5.81202 1.28534 5.8985 1.18714 5.99363 1.17848C6.08876 1.16981 6.18966 1.21603 6.28479 1.20736C6.37992 1.1987 6.46928 1.13804 6.56441 1.12938C6.65955 1.12071 6.76044 1.18714 6.85558 1.17848C6.95071 1.16981 7.04295 1.12938 7.13808 1.12071C7.23322 1.11205 7.33123 1.12649 7.42636 1.12071C7.52149 1.11205 7.6195 1.13516 7.71463 1.12649C7.80976 1.11783 7.90201 1.08317 7.99714 1.0745C8.09227 1.06584 8.18741 1.06584 8.28254 1.06006C8.37767 1.0514 8.47568 1.06006 8.56793 1.05428C8.66306 1.04562 8.75819 1.0254 8.85332 1.01963C8.94846 1.01096 9.0407 0.961861 9.13583 0.956085C9.23096 0.94742 9.3261 0.94742 9.42123 0.938755C9.51636 0.930091 9.61437 0.96475 9.7095 0.956085C9.80463 0.94742 9.89688 0.901208 9.99201 0.895432C10.0843 0.886767 10.1794 0.889655 10.2716 0.880991C10.3639 0.875214 10.4561 0.846332 10.5513 0.840556C10.6464 0.834779 10.7415 0.875214 10.8338 0.872326C10.926 0.86655 11.0183 0.831891 11.1134 0.826114C11.2057 0.823226 11.3008 0.860773 11.3959 0.854997C11.4882 0.852109 11.5804 0.762573 11.6727 0.759685C11.7649 0.756797 11.8629 0.84922 11.958 0.846332C12.0503 0.843444 12.1454 0.843444 12.2377 0.840556C12.3299 0.837667 12.4222 0.745244 12.5144 0.739467C12.6067 0.736579 12.7018 0.742356 12.794 0.739468C12.8863 0.736579 12.9785 0.701921 13.0737 0.699032C13.1659 0.693256 13.2639 0.733691 13.3562 0.730803C13.4484 0.725026 13.5407 0.707697 13.6358 0.70192C13.7281 0.696144 13.8232 0.684591 13.9154 0.678815C14.0106 0.673038 14.1115 0.742356 14.2066 0.733691C14.3017 0.727915 14.3911 0.658597 14.4862 0.652821C14.5814 0.647044 14.6765 0.635491 14.7716 0.626827C14.8667 0.618162 14.9619 0.612385 15.057 0.603721C15.1521 0.597944 15.2473 0.577727 15.3424 0.57195C15.4375 0.563285 15.5355 0.597944 15.6307 0.592168C15.7258 0.583503 15.8238 0.597944 15.9161 0.592168C16.0112 0.583503 16.1034 0.534403 16.1986 0.525738C16.2937 0.517074 16.3946 0.57195 16.4897 0.563285C16.5849 0.554621 16.6742 0.467974 16.7694 0.459309C16.8645 0.450644 16.9567 0.418874 17.0519 0.410209C17.147 0.401544 17.2479 0.485303 17.343 0.476638C17.4382 0.467974 17.5333 0.456421 17.6284 0.450644C17.7236 0.44198 17.8187 0.450644 17.9138 0.444868C18.0089 0.436203 18.0954 0.32645 18.1906 0.317786C18.2857 0.309121 18.3895 0.401544 18.4817 0.39288C18.5768 0.384215 18.6662 0.309121 18.7613 0.303345C18.8565 0.29468 18.9545 0.32645 19.0496 0.317786C19.1448 0.309121 19.2399 0.320674 19.335 0.314898C19.4301 0.306233 19.5195 0.213809 19.6118 0.208033C19.7069 0.199368 19.8049 0.222474 19.9 0.216698C19.9952 0.208033 20.0874 0.176262 20.1825 0.170486C20.2777 0.161821 20.3786 0.234027 20.4737 0.225362C20.5688 0.219586 20.664 0.199368 20.7591 0.193592C20.8542 0.187815 20.9465 0.127162 21.0416 0.121386C21.1339 0.11561 21.2319 0.173374 21.3241 0.167598C21.4164 0.161821 21.5028 0.0636213 21.5951 0.0578449C21.6873 0.0520684 21.7854 0.121386 21.8776 0.11561C21.9698 0.109833 22.0592 0.0607331 22.1515 0.0549567C22.2437 0.0520684 22.336 0.0231861 22.4282 0.0202979C22.5205 0.0174096 22.6127 0.0202979 22.705 0.0145214C22.7972 0.0116332 22.8923 0.095392 22.9846 0.0896155C23.0768 0.0867273 23.1691 0.0809508 23.2613 0.0780626C23.3536 0.0751743 23.4429 0.00296852 23.5352 8.02949e-05C23.6274 -0.00280793 23.7226 0.0722861 23.8148 0.0693979C23.9071 0.0665097 23.9993 0.0376273 24.0916 0.0318509C24.1809 0.0289627 24.2616 0.0260744 24.3452 0.0318509C24.4317 0.0405156 24.524 0.0058568 24.6076 0.0260744C24.6912 0.0462921 24.7805 0.057845 24.8612 0.0896156C24.942 0.118498 24.991 0.222474 25.0659 0.260021C25.1409 0.297568 25.2418 0.291792 25.3167 0.338004C25.3888 0.381327 25.4407 0.459309 25.5099 0.511298C25.5877 0.569062 25.6742 0.609498 25.7491 0.667262C25.827 0.725027 25.8904 0.794345 25.9682 0.852109C26.0432 0.909874 26.1268 0.958974 26.2017 1.01674C26.2767 1.0745 26.3862 1.08894 26.4612 1.14671C26.5361 1.20447 26.5938 1.28534 26.6687 1.346C26.7437 1.40376 26.7985 1.48752 26.8734 1.54817C26.9484 1.60883 26.9974 1.69547 27.0723 1.75613C27.1473 1.81678 27.2165 1.87743 27.2914 1.93808C27.3664 1.99874 27.4788 2.0074 27.5537 2.06806C27.6258 2.12871 27.7008 2.18936 27.7728 2.25001C27.8449 2.31067 27.9026 2.38865 27.9775 2.45219C28.0496 2.51284 28.1072 2.59371 28.1793 2.65437C28.2514 2.71791 28.3292 2.77278 28.4013 2.83344C28.4733 2.89409 28.531 2.97496 28.6002 3.0385C28.6722 3.10204 28.7558 3.15114 28.825 3.2118C28.8971 3.27534 29.0153 3.28111 29.0874 3.34465C29.1594 3.4082 29.2056 3.49773 29.2776 3.56127C29.3497 3.62481 29.3958 3.71146 29.4679 3.775C29.5371 3.83854 29.6005 3.91364 29.6697 3.97718C29.7389 4.04072 29.8455 4.06671 29.9147 4.13314C29.9839 4.19668 30.0185 4.30066 30.0906 4.3642C30.1597 4.42774 30.2203 4.50284 30.2924 4.56638C30.3615 4.62992 30.474 4.64436 30.5403 4.7079C30.6066 4.77144 30.6585 4.85231 30.7277 4.91585C30.7968 4.97939 30.8891 5.01405 30.9583 5.07759C31.0275 5.14114 31.0938 5.20468 31.1629 5.26822C31.2321 5.33176 31.2754 5.41841 31.3446 5.48195C31.4137 5.54549 31.4599 5.63214 31.5291 5.69568C31.5982 5.75922 31.7136 5.76788 31.7827 5.83142C31.8519 5.89496 31.898 5.98161 31.9672 6.04515C32.0364 6.10869 32.0825 6.19534 32.1488 6.25888C32.2152 6.32242 32.3247 6.34264 32.3939 6.40618C32.4631 6.46972 32.4775 6.59103 32.5438 6.65457C32.6101 6.71811 32.6822 6.77876 32.7513 6.8423C32.8205 6.90585 32.8984 6.95783 32.9647 7.02138C33.0339 7.08492 33.1261 7.12246 33.1953 7.18312C33.2645 7.24666 33.3164 7.32753 33.3856 7.39107C33.4547 7.45461 33.5499 7.48638 33.6191 7.54992C33.6882 7.61346 33.7603 7.67123 33.8295 7.73477C33.8987 7.79831 33.9535 7.8734 34.0226 7.93695C34.0918 8.00049 34.112 8.11313 34.1812 8.17667C34.2504 8.24021 34.3801 8.23443 34.4493 8.29797C34.5185 8.36152 34.5588 8.45394 34.628 8.51748C34.6972 8.58102 34.7404 8.67056 34.8096 8.73121C34.8788 8.79475 34.9624 8.84096 35.0316 8.9045C35.1008 8.96804 35.2132 8.98249 35.2824 9.04603C35.3516 9.10957 35.3891 9.20488 35.4582 9.26842C35.5274 9.33196 35.5995 9.38973 35.6687 9.45038C35.7379 9.51392 35.7782 9.60634 35.8474 9.667C35.9137 9.72765 36.0031 9.75942 36.0723 9.81719C36.1386 9.87495 36.2222 9.91539 36.2885 9.97315C36.3548 10.0309 36.3692 10.1522 36.4384 10.21C36.5047 10.2678 36.6286 10.262 36.6949 10.3197C36.7641 10.3775 36.8131 10.4555 36.8794 10.5132C36.9486 10.571 36.9775 10.6721 37.0466 10.7299C37.1158 10.7876 37.2081 10.8136 37.2773 10.8714C37.3465 10.9292 37.4301 10.9667 37.4992 11.0245C37.5655 11.0822 37.6578 11.114 37.7241 11.1718C37.7904 11.2295 37.8135 11.3422 37.8798 11.3999C37.9489 11.4606 38.0124 11.527 38.0816 11.5877C38.1507 11.6483 38.2689 11.6541 38.3381 11.7148C38.4073 11.7754 38.4275 11.888 38.4967 11.9516C38.5659 12.0122 38.6264 12.0816 38.6927 12.1451C38.7619 12.2058 38.8484 12.2491 38.9147 12.3097C38.9839 12.3704 39.0357 12.4484 39.1049 12.509C39.1741 12.5697 39.2606 12.6101 39.3298 12.6708C39.3961 12.7314 39.4768 12.7834 39.5431 12.8469C39.6123 12.9076 39.6815 12.9682 39.7478 13.0318C39.8141 13.0953 39.866 13.1733 39.9352 13.2369C40.0043 13.2975 40.0735 13.3582 40.1398 13.4217C40.209 13.4824 40.2465 13.5777 40.3157 13.6383C40.3849 13.699 40.4742 13.7365 40.5434 13.7972C40.6126 13.8578 40.7135 13.8838 40.7798 13.9445C40.849 14.0051 40.8576 14.1322 40.9268 14.1929C40.996 14.2564 41.0652 14.3199 41.1344 14.3835C41.2036 14.447 41.2699 14.5163 41.3391 14.577C41.4082 14.6405 41.5524 14.6232 41.6216 14.6839C41.6908 14.7474 41.7225 14.8543 41.7945 14.9178C41.8637 14.9813 41.9329 15.0478 42.0021 15.1084C42.0713 15.172 42.1808 15.1893 42.2529 15.2528C42.3221 15.3164 42.3769 15.4001 42.446 15.4608C42.5152 15.5243 42.5844 15.5879 42.6536 15.6514C42.7228 15.715 42.7833 15.7901 42.8525 15.8536C42.9217 15.9171 43.0024 15.9662 43.0745 16.0298C43.1437 16.0933 43.2273 16.1395 43.2993 16.2031C43.3685 16.2666 43.4435 16.3273 43.5127 16.3879C43.5818 16.4515 43.5905 16.5814 43.6626 16.645C43.7317 16.7085 43.8038 16.7692 43.873 16.8327C43.9422 16.8962 44.0229 16.9482 44.0921 17.0118C44.1613 17.0753 44.2737 17.0926 44.3429 17.1562C44.415 17.2226 44.5043 17.2717 44.5706 17.3439C44.6369 17.4132 44.6831 17.5057 44.7465 17.5808C44.807 17.6559 44.8128 17.7772 44.8733 17.8523C44.9339 17.9273 45.052 17.9591 45.1126 18.0342C45.176 18.118 45.1962 18.2219 45.2279 18.3086C45.2625 18.401 45.3317 18.4934 45.3346 18.5887C45.3374 18.6841 45.3 18.7851 45.2798 18.8833C45.2596 18.9758 45.1847 19.0538 45.1472 19.1462C45.0982 19.2675 45.029 19.3859 45.003 19.513C44.9829 19.6025 45.0405 19.7094 45.0175 19.796C44.9944 19.8856 44.8964 19.952 44.8704 20.0358C44.8445 20.1224 44.8214 20.209 44.7897 20.2957C44.758 20.3823 44.758 20.4777 44.7234 20.5614C44.6888 20.6452 44.6196 20.7116 44.5793 20.7954C44.5418 20.8762 44.5649 20.9918 44.5245 21.0726C44.4813 21.1535 44.4294 21.2286 44.3833 21.3066C44.3371 21.3846 44.2276 21.425 44.1786 21.5001C44.1296 21.5781 44.0719 21.6445 44.0229 21.7225C43.9739 21.7976 43.9595 21.8958 43.9047 21.9709C43.8528 22.046 43.7981 22.1182 43.7433 22.1904C43.6885 22.2626 43.6597 22.355 43.6049 22.4272C43.5473 22.4994 43.5098 22.5832 43.4521 22.6525C43.3945 22.7218 43.3339 22.7911 43.2734 22.8576C43.2129 22.9269 43.135 22.976 43.0745 23.0453C43.0168 23.1088 42.9563 23.1839 42.8842 23.2619C42.8237 23.3255 42.7343 23.3746 42.6651 23.4468C42.6017 23.5132 42.5729 23.6172 42.5008 23.6865C42.4345 23.7529 42.3077 23.7616 42.2385 23.828C42.1722 23.8944 42.1001 23.958 42.0309 24.0244C41.9617 24.0908 41.956 24.2266 41.8868 24.2901C41.8176 24.3566 41.7398 24.4143 41.6706 24.4779C41.5985 24.5443 41.4803 24.5587 41.4111 24.6223C41.3391 24.6916 41.2872 24.7753 41.218 24.8389C41.143 24.9082 41.0969 25.0006 41.0306 25.0613C40.9499 25.1335 40.8634 25.1797 40.8 25.2346C40.6904 25.3299 40.6184 25.4108 40.5867 25.431C40.5031 25.4801 40.3964 25.4916 40.3157 25.5465C40.235 25.6014 40.1571 25.6591 40.0793 25.7169C40.0015 25.7747 39.9207 25.8324 39.8458 25.8931C39.7708 25.9537 39.7132 26.0375 39.6411 26.101C39.5662 26.1646 39.52 26.257 39.448 26.3234C39.3759 26.3899 39.2865 26.4332 39.2145 26.4996C39.1424 26.566 39.0732 26.6296 39.0012 26.6989C38.932 26.7653 38.8801 26.8549 38.8109 26.9213C38.7417 26.9877 38.6495 27.0339 38.5803 27.1004C38.5111 27.1668 38.4188 27.2101 38.3468 27.2766C38.2747 27.343 38.1969 27.4007 38.1248 27.4643C38.0527 27.5278 37.9576 27.5683 37.8855 27.6318C37.8135 27.6953 37.7558 27.7762 37.6808 27.8398C37.6059 27.9033 37.5627 28.0015 37.4906 28.065C37.4156 28.1286 37.3061 28.1488 37.234 28.2123C37.1591 28.2759 37.0841 28.3336 37.0092 28.3972C36.9342 28.4607 36.9025 28.5705 36.8304 28.634C36.7584 28.6976 36.6632 28.7351 36.5883 28.7987C36.5162 28.8622 36.4528 28.9373 36.3778 29.0008C36.3058 29.0644 36.2481 29.151 36.1761 29.2146C36.104 29.2781 36.0319 29.3445 35.9598 29.4081C35.8878 29.4716 35.833 29.5554 35.7609 29.6218C35.6889 29.6882 35.6254 29.7575 35.5563 29.8269C35.4871 29.8962 35.3718 29.9193 35.3055 29.9886C35.2392 30.0579 35.17 30.1272 35.1008 30.1937C35.0316 30.263 34.9739 30.341 34.9019 30.4074C34.8298 30.4738 34.7866 30.5691 34.7116 30.6327C34.6395 30.6962 34.5617 30.7569 34.4868 30.8204C34.4118 30.884 34.2879 30.8811 34.21 30.9446C34.1351 31.0053 34.0659 31.0746 33.988 31.1323C33.9102 31.193 33.8266 31.2392 33.7488 31.2999C33.6709 31.3576 33.5873 31.4096 33.5095 31.4674C33.4317 31.5251 33.4173 31.6696 33.3394 31.7273C33.2616 31.7851 33.129 31.7706 33.0511 31.8284C32.9733 31.8862 32.9128 31.967 32.8349 32.0248C32.76 32.0826 32.6822 32.1403 32.6072 32.1981C32.5323 32.2559 32.4487 32.305 32.3708 32.3627C32.2959 32.4205 32.2209 32.4812 32.146 32.5418C32.071 32.6025 32.0018 32.6689 31.9269 32.7266C31.8519 32.7844 31.7568 32.8191 31.6818 32.8768C31.6069 32.9375 31.5723 33.0472 31.4973 33.105C31.4224 33.1657 31.3186 33.1859 31.2437 33.2436C31.1687 33.3043 31.0938 33.3621 31.0188 33.4198C30.9439 33.4776 30.866 33.5325 30.7911 33.5931C30.7161 33.6538 30.6354 33.7029 30.5576 33.7606C30.4826 33.8184 30.448 33.931 30.3731 33.9917C30.301 34.0495 30.2405 34.1246 30.1684 34.1794C30.0963 34.2372 29.9925 34.2574 29.9205 34.3123C29.8455 34.3701 29.7417 34.3845 29.6668 34.4394C29.5918 34.4971 29.5198 34.552 29.4448 34.6098C29.3728 34.6675 29.3641 34.8091 29.2892 34.8639C29.2142 34.9217 29.0902 34.9102 29.0182 34.9679C28.9461 35.0257 28.9259 35.1499 28.851 35.2076C28.776 35.2654 28.6377 35.2365 28.5656 35.2914C28.4906 35.3492 28.4359 35.4271 28.3609 35.482C28.286 35.5398 28.1995 35.5773 28.1245 35.6322C28.0525 35.69 27.9948 35.768 27.9198 35.8257C27.8449 35.8835 27.7613 35.9268 27.6892 35.9817C27.6143 36.0366 27.5566 36.1117 27.4817 36.1694C27.4067 36.2272 27.3174 36.259 27.2424 36.3167C27.1675 36.3745 27.1069 36.4467 27.0348 36.5016C26.9599 36.5564 26.8763 36.5998 26.8042 36.6575C26.7293 36.7124 26.6803 36.8019 26.6053 36.8568C26.5304 36.9117 26.4785 36.9983 26.4035 37.0532C26.3286 37.1081 26.2536 37.1601 26.1787 37.2179C26.1066 37.2698 26.0115 37.2901 25.9394 37.342C25.8673 37.394 25.8068 37.4634 25.7347 37.5125C25.6598 37.5615 25.5791 37.5991 25.5041 37.6453C25.4292 37.6915 25.3571 37.7464 25.2821 37.7955C25.2072 37.8417 25.112 37.859 25.0371 37.9052C24.9621 37.9515 24.8785 37.989 24.8036 38.0352C24.7286 38.0814 24.645 38.1161 24.5701 38.1623C24.4951 38.2085 24.4317 38.2778 24.3568 38.3212C24.2616 38.376 24.1492 38.3876 24.0397 38.4222C23.9301 38.4569 23.835 38.5349 23.7254 38.5493C23.6303 38.5609 23.5409 38.6042 23.4487 38.6158C23.3536 38.6273 23.2556 38.5984 23.1604 38.61C23.0653 38.6215 22.973 38.6331 22.8779 38.6446C22.7828 38.6562 22.6905 38.6822 22.5983 38.6937C22.5032 38.7053 22.4051 38.6533 22.31 38.6649C22.2149 38.6735 22.1198 38.6764 22.0275 38.6851C21.9324 38.6937 21.843 38.7457 21.7479 38.7544C21.6527 38.7631 21.5605 38.7688 21.4654 38.7775C21.3702 38.7862 21.278 38.8064 21.1829 38.8122C21.0877 38.8179 20.9955 38.8526 20.9003 38.8584C20.8052 38.8641 20.713 38.893 20.6178 38.8988C20.5227 38.9046 20.4247 38.8237 20.3296 38.8295C20.2344 38.8353 20.1422 38.8468 20.0471 38.8526C19.9519 38.8584 19.8626 38.9392 19.7674 38.9421C19.6723 38.9479 19.5743 38.8439 19.4791 38.8497C19.384 38.8526 19.2918 38.8526 19.1966 38.8555C19.1015 38.8555 19.0093 38.9335 18.9141 38.9364C18.819 38.9364 18.7239 38.8873 18.6287 38.8873C18.5336 38.8873 18.4414 38.8988 18.3462 38.9017" fill="#007257"/>
</svg>
