<svg width="46" height="39" viewBox="0 0 46 39" fill="none" xmlns="http://www.w3.org/2000/svg">
<path id="shape3" d="M18.7899 38.9335C18.6977 38.9335 18.6054 38.9104 18.5132 38.9104C18.4209 38.9104 18.3287 38.9854 18.2364 38.9854C18.1442 38.9854 18.049 38.9104 17.9568 38.9104C17.8646 38.9104 17.7723 38.9219 17.6772 38.9219C17.5849 38.9219 17.4927 38.9335 17.4004 38.9335C17.3082 38.9335 17.2159 38.9941 17.1237 38.9941C17.0314 38.9941 16.9392 38.9335 16.8441 38.9335C16.7489 38.9335 16.6596 38.9335 16.5673 38.9335C16.4751 38.9335 16.3828 38.9912 16.2877 38.9912C16.1954 38.9912 16.1032 38.9479 16.0109 38.9479C15.9187 38.9479 15.8264 38.9364 15.7342 38.9335C15.6362 38.9335 15.5382 38.945 15.443 38.945C15.345 38.945 15.247 39.0028 15.149 38.9999C15.051 38.997 14.9559 38.9161 14.8607 38.9132C14.7627 38.9104 14.6647 38.9797 14.5667 38.9768C14.4687 38.9739 14.3735 38.919 14.2784 38.9161C14.1804 38.9132 14.0824 38.9392 13.9872 38.9364C13.8892 38.9335 13.7941 38.9161 13.6961 38.9132C13.5981 38.9104 13.5029 38.9104 13.4049 38.9075C13.3069 38.9075 13.2089 38.9421 13.1138 38.9392C13.0158 38.9392 12.9206 38.9046 12.8226 38.9017C12.7246 38.8988 12.6295 38.8844 12.5315 38.8844C12.4363 38.8844 12.3412 38.9132 12.2461 38.9161C12.1509 38.9161 12.0558 38.9017 11.9607 38.9046C11.8655 38.9046 11.7675 38.8353 11.6724 38.8381C11.5773 38.841 11.4821 38.8613 11.387 38.8641C11.2919 38.867 11.1967 38.9017 11.1016 38.9046C11.0065 38.9075 10.9114 38.8815 10.8133 38.8844C10.7182 38.8872 10.6231 38.9306 10.5279 38.9335C10.4328 38.9335 10.3377 38.9335 10.2426 38.9364C10.1474 38.9364 10.0523 38.893 9.95716 38.893C9.86203 38.893 9.76979 38.9797 9.67465 38.9768C9.57952 38.9768 9.48439 38.9797 9.39214 38.9768C9.29701 38.9768 9.20476 38.9566 9.10963 38.9566C9.0145 38.9566 8.92225 38.8988 8.82712 38.8988C8.73199 38.8988 8.63686 38.9508 8.54461 38.9508C8.45236 38.9508 8.35723 38.9277 8.2621 38.9277C8.16697 38.9277 8.07472 38.9219 7.97959 38.919C7.88446 38.9161 7.79221 38.919 7.69708 38.919C7.60195 38.919 7.5097 38.8584 7.41457 38.8555C7.31944 38.8555 7.22719 38.8468 7.13206 38.8439C7.03693 38.841 6.9418 38.867 6.84955 38.8641C6.7573 38.8641 6.66505 38.9306 6.57281 38.9277C6.48056 38.9248 6.39119 38.9219 6.29894 38.919C6.2067 38.9161 6.12021 38.8526 6.02796 38.8497C5.93572 38.8468 5.84635 38.8064 5.75699 38.8035C5.66474 38.8006 5.57249 38.8757 5.48025 38.8728C5.38799 38.8699 5.29863 38.841 5.20926 38.8353C5.11702 38.8324 5.02765 38.8208 4.9354 38.8179C4.84316 38.815 4.75379 38.8179 4.66154 38.8122C4.5693 38.8093 4.47993 38.7631 4.39056 38.7573C4.29832 38.7544 4.20607 38.8035 4.11671 38.7977C4.02445 38.7948 3.93509 38.789 3.84284 38.7862C3.75059 38.7833 3.66123 38.7515 3.57186 38.7486C3.4825 38.7457 3.39025 38.7688 3.298 38.7631C3.20575 38.7602 3.11639 38.7284 3.02702 38.7255C2.93477 38.7226 2.84252 38.7573 2.75316 38.7515C2.66091 38.7486 2.57155 38.7024 2.48218 38.6995C2.38417 38.6966 2.28904 38.7457 2.21409 38.7342C2.11607 38.7197 2.02959 38.6735 1.95752 38.6417C1.8768 38.6042 1.83933 38.5147 1.78167 38.4454C1.73266 38.3847 1.72402 38.3038 1.68366 38.2114C1.65195 38.1392 1.57412 38.0785 1.54529 37.9861C1.51934 37.9024 1.48187 37.8186 1.45304 37.7348C1.42421 37.6511 1.40692 37.5616 1.38097 37.4778C1.35502 37.394 1.35791 37.2987 1.33196 37.215C1.30602 37.1283 1.23971 37.0561 1.21377 36.9724C1.19071 36.8944 1.23972 36.8019 1.2253 36.724C1.21089 36.6431 1.12152 36.5738 1.11864 36.4958C1.11576 36.4034 1.19359 36.3081 1.18783 36.2156C1.18494 36.1232 1.13882 36.0337 1.13594 35.9413C1.13305 35.8488 1.11864 35.7564 1.11576 35.6669C1.11288 35.5744 1.0754 35.4849 1.07251 35.3925C1.06963 35.3001 1.11864 35.2048 1.11576 35.1152C1.11288 35.0228 1.06963 34.9333 1.06386 34.8408C1.06098 34.7484 1.06098 34.656 1.0581 34.5636C1.05522 34.4711 1.0581 34.3787 1.05234 34.2863C1.04945 34.1939 1.00909 34.1043 1.00621 34.0119C1.00333 33.9195 1.06675 33.8242 1.06386 33.7318C1.0581 33.6393 0.997561 33.5498 0.991797 33.4574C0.986029 33.365 1.02927 33.2725 1.02351 33.1801C1.01774 33.0877 0.962969 32.9981 0.957205 32.9057C0.951437 32.8133 0.988917 32.718 0.980269 32.6285C0.974501 32.536 0.945677 32.4465 0.937029 32.3541C0.931262 32.2616 0.928378 32.1692 0.919726 32.0768C0.911078 31.9844 0.876486 31.8948 0.870722 31.8024C0.864955 31.71 0.89667 31.6147 0.890902 31.5223C0.885138 31.4298 0.885138 31.3374 0.882254 31.245C0.87937 31.1526 0.873602 31.0601 0.870722 30.9677C0.870722 30.8753 0.847659 30.7829 0.847659 30.6904C0.847659 30.598 0.810187 30.5056 0.810187 30.4132C0.810187 30.3208 0.839011 30.2283 0.839011 30.1359C0.839011 30.0435 0.815951 29.9511 0.818835 29.8586C0.818835 29.7662 0.818835 29.6738 0.818835 29.5814C0.818835 29.4889 0.896666 29.3994 0.89955 29.307C0.89955 29.2146 0.830367 29.1221 0.833247 29.0297C0.833247 28.9373 0.885134 28.8478 0.888018 28.7553C0.890898 28.6629 0.841895 28.5705 0.844779 28.4781C0.847659 28.3856 0.89955 28.2961 0.90243 28.2037C0.905314 28.1113 0.92261 28.0188 0.925494 27.9264C0.928378 27.834 0.951442 27.7416 0.954325 27.652C0.957206 27.5596 0.89955 27.4672 0.90243 27.3748C0.90243 27.2823 0.954322 27.1928 0.957206 27.1004C0.957206 27.0079 0.89955 26.9155 0.90243 26.8231C0.90243 26.7307 0.954325 26.6411 0.954325 26.5487C0.954325 26.4563 0.925494 26.3639 0.928374 26.2714C0.928374 26.179 0.988917 26.0866 0.988917 25.9942C0.988917 25.9018 0.94279 25.8093 0.94279 25.7169C0.94279 25.6245 0.986033 25.5321 0.988917 25.4396C0.988917 25.3472 0.948554 25.2519 0.951438 25.1595C0.954322 25.0671 0.93991 24.9746 0.945678 24.8822C0.948558 24.7898 1.01774 24.7003 1.02351 24.6078C1.02927 24.5154 1.00045 24.4201 1.00333 24.3277C1.00621 24.2352 0.968734 24.1399 0.974502 24.0475C0.977385 23.9551 1.07828 23.8684 1.08405 23.7731C1.08693 23.6807 1.06098 23.5854 1.06386 23.493C1.06675 23.4005 1.09558 23.3081 1.09846 23.2157C1.10134 23.1233 1.03504 23.028 1.04081 22.9355C1.04369 22.8431 1.13594 22.7536 1.13882 22.6612C1.13882 22.5687 1.14458 22.4763 1.14747 22.3839C1.14747 22.2915 1.10422 22.1961 1.10422 22.1037C1.10422 22.0113 1.14747 21.9189 1.14747 21.8265C1.14747 21.734 1.08116 21.6416 1.08116 21.5492C1.08116 21.4568 1.1244 21.3643 1.1244 21.2719C1.1244 21.1795 1.1417 21.0871 1.1417 20.9946C1.1417 20.9022 1.10711 20.8098 1.10711 20.7174C1.10711 20.625 1.10134 20.5325 1.10134 20.4401C1.10134 20.3477 1.13594 20.2553 1.13305 20.1628C1.13305 20.0704 1.12729 19.978 1.12729 19.8856C1.12729 19.7931 1.06098 19.7036 1.06098 19.6112C1.06098 19.5188 1.0927 19.4263 1.0927 19.3339C1.0927 19.2415 1.05234 19.1491 1.04946 19.0595C1.04946 18.9671 1.11864 18.8747 1.11864 18.7823C1.11864 18.6898 1.09846 18.5974 1.09846 18.5079C1.09846 18.4155 1.11864 18.323 1.11576 18.2306C1.11576 18.1382 1.10422 18.0458 1.10422 17.9562C1.10422 17.8638 1.1244 17.7714 1.1244 17.679C1.1244 17.5865 1.0581 17.4941 1.0581 17.4046C1.0581 17.3121 1.01775 17.2197 1.01775 17.1273C1.01775 17.0349 1.0091 16.9425 1.0091 16.85C1.0091 16.7576 1.10999 16.6652 1.10999 16.5756C1.10999 16.4832 1.05522 16.3908 1.05522 16.2984C1.05522 16.206 1.03216 16.1135 1.03216 16.0211C1.03216 15.9287 1.08405 15.8391 1.08405 15.7467C1.08405 15.6543 1.09558 15.5619 1.09846 15.4723C1.09846 15.3799 1.03216 15.2846 1.03216 15.1922C1.03216 15.0998 1.11864 15.0073 1.11864 14.912C1.11864 14.8196 1.1417 14.7243 1.1417 14.6319C1.1417 14.5394 1.0754 14.447 1.0754 14.3517C1.0754 14.2564 1.13306 14.164 1.13017 14.0716C1.13017 13.9791 1.08693 13.8867 1.08405 13.7914C1.08405 13.699 1.11287 13.6037 1.10999 13.5112C1.10999 13.4188 1.05522 13.3264 1.05234 13.234C1.04945 13.1415 1.00333 13.0491 0.997566 12.9567C0.994682 12.8643 0.986034 12.7718 0.98315 12.6765C0.980266 12.5812 0.988918 12.4888 0.986034 12.3964C0.983154 12.304 0.974502 12.2115 0.971622 12.1162C0.965854 12.0238 1.05522 11.9256 1.04946 11.8332C1.04369 11.7407 1.0091 11.6483 1.00333 11.5559C0.997566 11.4635 0.991802 11.3711 0.986034 11.2757C0.98027 11.1833 0.965854 11.0909 0.960086 10.9985C0.954322 10.906 0.957206 10.8107 0.951438 10.7183C0.945674 10.6259 0.916847 10.5335 0.911079 10.441C0.905315 10.3486 0.951442 10.2533 0.945678 10.1609C0.93991 10.0685 0.899551 9.97604 0.893783 9.88361C0.888019 9.79119 0.879371 9.69877 0.876487 9.60345C0.870723 9.51103 0.870723 9.41572 0.867839 9.3233C0.862075 9.23087 0.8246 9.13845 0.818836 9.04603C0.815952 8.9536 0.836128 8.86118 0.830364 8.76875C0.82748 8.67633 0.830364 8.58391 0.830364 8.49148C0.830364 8.39906 0.818832 8.30664 0.815948 8.21421C0.815948 8.12179 0.80154 8.02937 0.80154 7.93694C0.80154 7.84452 0.821716 7.7521 0.821716 7.65967C0.821716 7.56725 0.879371 7.47771 0.879371 7.38529C0.879371 7.29287 0.795772 7.19756 0.798652 7.10802C0.801536 7.0156 0.876491 6.92606 0.882255 6.83653C0.888023 6.7441 0.853428 6.65168 0.859192 6.55926C0.864959 6.46683 0.841896 6.37441 0.850544 6.28199C0.856312 6.18956 0.888023 6.10003 0.896671 6.0076C0.905319 5.91518 0.885139 5.81987 0.896671 5.73033C0.905319 5.63791 1.01486 5.55704 1.02639 5.4675C1.03793 5.37508 0.945675 5.2711 0.957206 5.18157C0.968738 5.09203 1.04369 5.00828 1.05522 4.91585C1.06963 4.82632 1.03504 4.72523 1.04946 4.63569C1.06387 4.54616 1.10134 4.45662 1.11864 4.36709C1.13594 4.27755 1.13882 4.18224 1.15612 4.09271C1.17341 4.00317 1.26854 3.92808 1.28872 3.83854C1.3089 3.74901 1.29449 3.65081 1.31467 3.56127C1.33485 3.47174 1.34349 3.37931 1.36656 3.28978C1.38962 3.19447 1.42421 3.11071 1.45592 3.02406C1.49051 2.93452 1.5597 2.86809 1.60294 2.78722C1.64619 2.70347 1.62312 2.57927 1.67789 2.50707C1.73267 2.43197 1.83644 2.39442 1.90275 2.33088C1.96905 2.26445 2.04112 2.21247 2.11607 2.1547C2.19102 2.09982 2.24003 2.00451 2.32075 1.9583C2.40146 1.91498 2.49948 1.90342 2.58884 1.86588C2.67244 1.83122 2.74163 1.74457 2.83388 1.71569C2.92036 1.68681 3.03279 1.73302 3.12215 1.70703C3.21152 1.68103 3.30376 1.67525 3.39313 1.65504C3.4825 1.63482 3.56898 1.59727 3.65834 1.57994C3.74771 1.56261 3.83419 1.5164 3.92644 1.50196C4.01869 1.48752 4.10517 1.43553 4.19454 1.42398C4.28679 1.40954 4.38192 1.42975 4.47416 1.4182C4.56641 1.40665 4.65866 1.39798 4.75091 1.38932C4.84604 1.38065 4.93829 1.35755 5.03342 1.34888C5.12855 1.34022 5.22656 1.34888 5.32169 1.34022C5.41682 1.33155 5.51484 1.34022 5.60997 1.32867C5.7051 1.32 5.80311 1.35177 5.89824 1.34311C5.99337 1.33444 6.08562 1.30267 6.18075 1.29401C6.27588 1.28534 6.36237 1.18714 6.4575 1.17848C6.55263 1.16981 6.65353 1.21603 6.74866 1.20736C6.84379 1.1987 6.93315 1.13804 7.02828 1.12938C7.12341 1.12071 7.22431 1.18714 7.31944 1.17848C7.41457 1.16981 7.50682 1.12938 7.60195 1.12071C7.69708 1.11205 7.7951 1.12649 7.89023 1.12071C7.98536 1.11205 8.08337 1.13516 8.1785 1.12649C8.27363 1.11783 8.36588 1.08317 8.46101 1.0745C8.55614 1.06584 8.65128 1.06584 8.74641 1.06006C8.84154 1.0514 8.93955 1.06006 9.0318 1.05428C9.12693 1.04562 9.22206 1.0254 9.31719 1.01963C9.41232 1.01096 9.50457 0.961861 9.5997 0.956085C9.69483 0.94742 9.78996 0.94742 9.88509 0.938755C9.98022 0.930091 10.0782 0.96475 10.1734 0.956085C10.2685 0.94742 10.3607 0.901208 10.4559 0.895432C10.5481 0.886767 10.6433 0.889655 10.7355 0.880991C10.8278 0.875214 10.92 0.846332 11.0151 0.840556C11.1103 0.834779 11.2054 0.875214 11.2976 0.872326C11.3899 0.86655 11.4821 0.831891 11.5773 0.826114C11.6695 0.823226 11.7646 0.860773 11.8598 0.854997C11.952 0.852109 12.0443 0.762573 12.1365 0.759685C12.2288 0.756797 12.3268 0.84922 12.4219 0.846332C12.5142 0.843444 12.6093 0.843444 12.7015 0.840556C12.7938 0.837667 12.886 0.745244 12.9783 0.739467C13.0705 0.736579 13.1657 0.742356 13.2579 0.739468C13.3502 0.736579 13.4424 0.701921 13.5375 0.699032C13.6298 0.693256 13.7278 0.733691 13.8201 0.730803C13.9123 0.725026 14.0045 0.707697 14.0997 0.70192C14.1919 0.696144 14.2871 0.684591 14.3793 0.678815C14.4744 0.673038 14.5753 0.742356 14.6705 0.733691C14.7656 0.727915 14.855 0.658597 14.9501 0.652821C15.0452 0.647044 15.1404 0.635491 15.2355 0.626827C15.3306 0.618162 15.4257 0.612385 15.5209 0.603721C15.616 0.597944 15.7111 0.577727 15.8063 0.57195C15.9014 0.563285 15.9994 0.597944 16.0945 0.592168C16.1897 0.583503 16.2877 0.597944 16.3799 0.592168C16.4751 0.583503 16.5673 0.534403 16.6624 0.525738C16.7576 0.517074 16.8585 0.57195 16.9536 0.563285C17.0487 0.554621 17.1381 0.467974 17.2332 0.459309C17.3284 0.450644 17.4206 0.418874 17.5157 0.410209C17.6109 0.401544 17.7118 0.485303 17.8069 0.476638C17.902 0.467974 17.9972 0.456421 18.0923 0.450644C18.1874 0.44198 18.2826 0.450644 18.3777 0.444868C18.4728 0.436203 18.5593 0.32645 18.6544 0.317786C18.7496 0.309121 18.8533 0.401544 18.9456 0.39288C19.0407 0.384215 19.1301 0.309121 19.2252 0.303345C19.3203 0.29468 19.4184 0.32645 19.5135 0.317786C19.6086 0.309121 19.7037 0.320674 19.7989 0.314898C19.894 0.306233 19.9834 0.213809 20.0756 0.208033C20.1708 0.199368 20.2688 0.222474 20.3639 0.216698C20.459 0.208033 20.5513 0.176262 20.6464 0.170486C20.7415 0.161821 20.8424 0.234027 20.9376 0.225362C21.0327 0.219586 21.1278 0.199368 21.223 0.193592C21.3181 0.187815 21.4103 0.127162 21.5055 0.121386C21.5977 0.11561 21.6957 0.173374 21.788 0.167598C21.8802 0.161821 21.9667 0.0636213 22.059 0.0578449C22.1512 0.0520684 22.2492 0.121386 22.3415 0.11561C22.4337 0.109833 22.5231 0.0607331 22.6153 0.0549567C22.7076 0.0520684 22.7998 0.0231861 22.8921 0.0202979C22.9843 0.0174096 23.0766 0.0202979 23.1688 0.0145214C23.2611 0.0116332 23.3562 0.095392 23.4484 0.0896155C23.5407 0.0867273 23.6329 0.0809508 23.7252 0.0780626C23.8174 0.0751743 23.9068 0.00296852 23.9991 8.02949e-05C24.0913 -0.00280793 24.1864 0.0722861 24.2787 0.0693979C24.3709 0.0665097 24.4632 0.0376273 24.5554 0.0318509C24.6448 0.0289627 24.7255 0.0260744 24.8091 0.0318509C24.8956 0.0405156 24.9878 0.0058568 25.0714 0.0260744C25.155 0.0462921 25.2444 0.057845 25.3251 0.0896156C25.4058 0.118498 25.4548 0.222474 25.5298 0.260021C25.6047 0.297568 25.7056 0.291792 25.7806 0.338004C25.8527 0.381327 25.9046 0.459309 25.9737 0.511298C26.0516 0.569062 26.1381 0.609498 26.213 0.667262C26.2908 0.725027 26.3543 0.794345 26.4321 0.852109C26.507 0.909874 26.5906 0.958974 26.6656 1.01674C26.7405 1.0745 26.8501 1.08894 26.925 1.14671C27 1.20447 27.0577 1.28534 27.1326 1.346C27.2076 1.40376 27.2623 1.48752 27.3373 1.54817C27.4122 1.60883 27.4612 1.69547 27.5362 1.75613C27.6111 1.81678 27.6803 1.87743 27.7553 1.93808C27.8302 1.99874 27.9427 2.0074 28.0176 2.06806C28.0897 2.12871 28.1646 2.18936 28.2367 2.25001C28.3088 2.31067 28.3664 2.38865 28.4414 2.45219C28.5134 2.51284 28.5711 2.59371 28.6432 2.65437C28.7152 2.71791 28.7931 2.77278 28.8651 2.83344C28.9372 2.89409 28.9949 2.97496 29.064 3.0385C29.1361 3.10204 29.2197 3.15114 29.2889 3.2118C29.361 3.27534 29.4792 3.28111 29.5512 3.34465C29.6233 3.4082 29.6694 3.49773 29.7415 3.56127C29.8136 3.62481 29.8597 3.71146 29.9318 3.775C30.0009 3.83854 30.0644 3.91364 30.1335 3.97718C30.2027 4.04072 30.3094 4.06671 30.3786 4.13314C30.4478 4.19668 30.4824 4.30066 30.5544 4.3642C30.6236 4.42774 30.6842 4.50284 30.7562 4.56638C30.8254 4.62992 30.9378 4.64436 31.0041 4.7079C31.0704 4.77144 31.1223 4.85231 31.1915 4.91585C31.2607 4.97939 31.353 5.01405 31.4221 5.07759C31.4913 5.14114 31.5576 5.20468 31.6268 5.26822C31.696 5.33176 31.7392 5.41841 31.8084 5.48195C31.8776 5.54549 31.9237 5.63214 31.9929 5.69568C32.0621 5.75922 32.1774 5.76788 32.2466 5.83142C32.3158 5.89496 32.3619 5.98161 32.4311 6.04515C32.5003 6.10869 32.5464 6.19534 32.6127 6.25888C32.679 6.32242 32.7886 6.34264 32.8577 6.40618C32.9269 6.46972 32.9413 6.59103 33.0077 6.65457C33.074 6.71811 33.146 6.77876 33.2152 6.8423C33.2844 6.90585 33.3622 6.95783 33.4285 7.02138C33.4977 7.08492 33.59 7.12246 33.6592 7.18312C33.7283 7.24666 33.7802 7.32753 33.8494 7.39107C33.9186 7.45461 34.0137 7.48638 34.0829 7.54992C34.1521 7.61346 34.2242 7.67123 34.2934 7.73477C34.3625 7.79831 34.4173 7.8734 34.4865 7.93695C34.5557 8.00049 34.5759 8.11313 34.6451 8.17667C34.7142 8.24021 34.844 8.23443 34.9132 8.29797C34.9823 8.36152 35.0227 8.45394 35.0919 8.51748C35.1611 8.58102 35.2043 8.67056 35.2735 8.73121C35.3427 8.79475 35.4263 8.84096 35.4955 8.9045C35.5647 8.96804 35.6771 8.98249 35.7463 9.04603C35.8155 9.10957 35.8529 9.20488 35.9221 9.26842C35.9913 9.33196 36.0634 9.38973 36.1326 9.45038C36.2017 9.51392 36.2421 9.60634 36.3113 9.667C36.3776 9.72765 36.467 9.75942 36.5361 9.81719C36.6024 9.87495 36.686 9.91539 36.7523 9.97315C36.8187 10.0309 36.8331 10.1522 36.9023 10.21C36.9686 10.2678 37.0925 10.262 37.1588 10.3197C37.228 10.3775 37.277 10.4555 37.3433 10.5132C37.4125 10.571 37.4413 10.6721 37.5105 10.7299C37.5797 10.7876 37.6719 10.8136 37.7411 10.8714C37.8103 10.9292 37.8939 10.9667 37.9631 11.0245C38.0294 11.0822 38.1217 11.114 38.188 11.1718C38.2543 11.2295 38.2773 11.3422 38.3436 11.3999C38.4128 11.4606 38.4762 11.527 38.5454 11.5877C38.6146 11.6483 38.7328 11.6541 38.802 11.7148C38.8712 11.7754 38.8914 11.888 38.9605 11.9516C39.0297 12.0122 39.0903 12.0816 39.1566 12.1451C39.2258 12.2058 39.3122 12.2491 39.3785 12.3097C39.4477 12.3704 39.4996 12.4484 39.5688 12.509C39.638 12.5697 39.7245 12.6101 39.7937 12.6708C39.86 12.7314 39.9407 12.7834 40.007 12.8469C40.0762 12.9076 40.1453 12.9682 40.2117 13.0318C40.278 13.0953 40.3298 13.1733 40.399 13.2369C40.4682 13.2975 40.5374 13.3582 40.6037 13.4217C40.6729 13.4824 40.7104 13.5777 40.7796 13.6383C40.8487 13.699 40.9381 13.7365 41.0073 13.7972C41.0765 13.8578 41.1774 13.8838 41.2437 13.9445C41.3129 14.0051 41.3215 14.1322 41.3907 14.1929C41.4599 14.2564 41.5291 14.3199 41.5983 14.3835C41.6674 14.447 41.7337 14.5163 41.8029 14.577C41.8721 14.6405 42.0163 14.6232 42.0854 14.6839C42.1546 14.7474 42.1863 14.8543 42.2584 14.9178C42.3276 14.9813 42.3968 15.0478 42.466 15.1084C42.5352 15.172 42.6447 15.1893 42.7168 15.2528C42.7859 15.3164 42.8407 15.4001 42.9099 15.4608C42.9791 15.5243 43.0483 15.5879 43.1175 15.6514C43.1867 15.715 43.2472 15.7901 43.3164 15.8536C43.3856 15.9171 43.4663 15.9662 43.5383 16.0298C43.6075 16.0933 43.6911 16.1395 43.7632 16.2031C43.8324 16.2666 43.9073 16.3273 43.9765 16.3879C44.0457 16.4515 44.0544 16.5814 44.1264 16.645C44.1956 16.7085 44.2677 16.7692 44.3369 16.8327C44.4061 16.8962 44.4868 16.9482 44.556 17.0118C44.6251 17.0753 44.7376 17.0926 44.8068 17.1562C44.8788 17.2226 44.9682 17.2717 45.0345 17.3439C45.1008 17.4132 45.1469 17.5057 45.2103 17.5808C45.2709 17.6559 45.2766 17.7772 45.3372 17.8523C45.3977 17.9273 45.5159 17.9591 45.5765 18.0342C45.6399 18.118 45.6601 18.2219 45.6918 18.3086C45.7264 18.401 45.7955 18.4934 45.7984 18.5887C45.8013 18.6841 45.7638 18.7851 45.7437 18.8833C45.7235 18.9758 45.6485 19.0538 45.611 19.1462C45.562 19.2675 45.4929 19.3859 45.4669 19.513C45.4467 19.6025 45.5044 19.7094 45.4813 19.796C45.4583 19.8856 45.3602 19.952 45.3343 20.0358C45.3084 20.1224 45.2853 20.209 45.2536 20.2957C45.2219 20.3823 45.2219 20.4777 45.1873 20.5614C45.1527 20.6452 45.0835 20.7116 45.0431 20.7954C45.0057 20.8762 45.0287 20.9918 44.9884 21.0726C44.9451 21.1535 44.8932 21.2286 44.8471 21.3066C44.801 21.3846 44.6914 21.425 44.6424 21.5001C44.5934 21.5781 44.5358 21.6445 44.4868 21.7225C44.4378 21.7976 44.4234 21.8958 44.3686 21.9709C44.3167 22.046 44.2619 22.1182 44.2071 22.1904C44.1524 22.2626 44.1235 22.355 44.0688 22.4272C44.0111 22.4994 43.9736 22.5832 43.916 22.6525C43.8583 22.7218 43.7978 22.7911 43.7373 22.8576C43.6767 22.9269 43.5989 22.976 43.5383 23.0453C43.4807 23.1088 43.4202 23.1839 43.3481 23.2619C43.2875 23.3255 43.1982 23.3746 43.129 23.4468C43.0656 23.5132 43.0367 23.6172 42.9647 23.6865C42.8984 23.7529 42.7715 23.7616 42.7023 23.828C42.636 23.8944 42.564 23.958 42.4948 24.0244C42.4256 24.0908 42.4198 24.2266 42.3507 24.2901C42.2815 24.3566 42.2036 24.4143 42.1344 24.4779C42.0624 24.5443 41.9442 24.5587 41.875 24.6223C41.8029 24.6916 41.751 24.7753 41.6819 24.8389C41.6069 24.9082 41.5608 25.0006 41.4945 25.0613C41.4138 25.1335 41.3273 25.1797 41.2639 25.2346C41.1543 25.3299 41.0822 25.4108 41.0505 25.431C40.9669 25.4801 40.8603 25.4916 40.7796 25.5465C40.6988 25.6014 40.621 25.6591 40.5432 25.7169C40.4653 25.7747 40.3846 25.8324 40.3097 25.8931C40.2347 25.9537 40.1771 26.0375 40.105 26.101C40.03 26.1646 39.9839 26.257 39.9118 26.3234C39.8398 26.3899 39.7504 26.4332 39.6783 26.4996C39.6063 26.566 39.5371 26.6296 39.465 26.6989C39.3958 26.7653 39.3439 26.8549 39.2748 26.9213C39.2056 26.9877 39.1133 27.0339 39.0441 27.1004C38.975 27.1668 38.8827 27.2101 38.8106 27.2766C38.7386 27.343 38.6607 27.4007 38.5887 27.4643C38.5166 27.5278 38.4215 27.5683 38.3494 27.6318C38.2773 27.6953 38.2197 27.7762 38.1447 27.8398C38.0698 27.9033 38.0265 28.0015 37.9545 28.065C37.8795 28.1286 37.77 28.1488 37.6979 28.2123C37.6229 28.2759 37.548 28.3336 37.473 28.3972C37.3981 28.4607 37.3664 28.5705 37.2943 28.634C37.2222 28.6976 37.1271 28.7351 37.0522 28.7987C36.9801 28.8622 36.9167 28.9373 36.8417 29.0008C36.7696 29.0644 36.712 29.151 36.6399 29.2146C36.5679 29.2781 36.4958 29.3445 36.4237 29.4081C36.3516 29.4716 36.2969 29.5554 36.2248 29.6218C36.1527 29.6882 36.0893 29.7575 36.0201 29.8269C35.9509 29.8962 35.8356 29.9193 35.7693 29.9886C35.703 30.0579 35.6338 30.1272 35.5647 30.1937C35.4955 30.263 35.4378 30.341 35.3657 30.4074C35.2937 30.4738 35.2504 30.5691 35.1755 30.6327C35.1034 30.6962 35.0256 30.7569 34.9506 30.8204C34.8757 30.884 34.7517 30.8811 34.6739 30.9446C34.5989 31.0053 34.5297 31.0746 34.4519 31.1323C34.3741 31.193 34.2905 31.2392 34.2126 31.2999C34.1348 31.3576 34.0512 31.4096 33.9734 31.4674C33.8955 31.5251 33.8811 31.6696 33.8033 31.7273C33.7255 31.7851 33.5929 31.7706 33.515 31.8284C33.4372 31.8862 33.3766 31.967 33.2988 32.0248C33.2239 32.0826 33.146 32.1403 33.0711 32.1981C32.9961 32.2559 32.9125 32.305 32.8347 32.3627C32.7597 32.4205 32.6848 32.4812 32.6098 32.5418C32.5349 32.6025 32.4657 32.6689 32.3907 32.7266C32.3158 32.7844 32.2207 32.8191 32.1457 32.8768C32.0708 32.9375 32.0362 33.0472 31.9612 33.105C31.8863 33.1657 31.7825 33.1859 31.7075 33.2436C31.6326 33.3043 31.5576 33.3621 31.4827 33.4198C31.4077 33.4776 31.3299 33.5325 31.2549 33.5931C31.18 33.6538 31.0993 33.7029 31.0214 33.7606C30.9465 33.8184 30.9119 33.931 30.8369 33.9917C30.7649 34.0495 30.7043 34.1246 30.6323 34.1794C30.5602 34.2372 30.4564 34.2574 30.3843 34.3123C30.3094 34.3701 30.2056 34.3845 30.1307 34.4394C30.0557 34.4971 29.9836 34.552 29.9087 34.6098C29.8366 34.6675 29.828 34.8091 29.753 34.8639C29.6781 34.9217 29.5541 34.9102 29.482 34.9679C29.41 35.0257 29.3898 35.1499 29.3148 35.2076C29.2399 35.2654 29.1015 35.2365 29.0295 35.2914C28.9545 35.3492 28.8997 35.4271 28.8248 35.482C28.7498 35.5398 28.6633 35.5773 28.5884 35.6322C28.5163 35.69 28.4587 35.768 28.3837 35.8257C28.3088 35.8835 28.2252 35.9268 28.1531 35.9817C28.0781 36.0366 28.0205 36.1117 27.9455 36.1694C27.8706 36.2272 27.7812 36.259 27.7063 36.3167C27.6313 36.3745 27.5708 36.4467 27.4987 36.5016C27.4238 36.5564 27.3402 36.5998 27.2681 36.6575C27.1931 36.7124 27.1441 36.8019 27.0692 36.8568C26.9942 36.9117 26.9423 36.9983 26.8674 37.0532C26.7924 37.1081 26.7175 37.1601 26.6425 37.2179C26.5705 37.2698 26.4753 37.2901 26.4033 37.342C26.3312 37.394 26.2707 37.4634 26.1986 37.5125C26.1236 37.5615 26.0429 37.5991 25.968 37.6453C25.893 37.6915 25.8209 37.7464 25.746 37.7955C25.671 37.8417 25.5759 37.859 25.501 37.9052C25.426 37.9515 25.3424 37.989 25.2675 38.0352C25.1925 38.0814 25.1089 38.1161 25.034 38.1623C24.959 38.2085 24.8956 38.2778 24.8206 38.3212C24.7255 38.376 24.6131 38.3876 24.5035 38.4222C24.394 38.4569 24.2989 38.5349 24.1893 38.5493C24.0942 38.5609 24.0048 38.6042 23.9126 38.6158C23.8174 38.6273 23.7194 38.5984 23.6243 38.61C23.5292 38.6215 23.4369 38.6331 23.3418 38.6446C23.2467 38.6562 23.1544 38.6822 23.0622 38.6937C22.967 38.7053 22.869 38.6533 22.7739 38.6649C22.6787 38.6735 22.5836 38.6764 22.4914 38.6851C22.3962 38.6937 22.3069 38.7457 22.2117 38.7544C22.1166 38.7631 22.0244 38.7688 21.9292 38.7775C21.8341 38.7862 21.7419 38.8064 21.6467 38.8122C21.5516 38.8179 21.4593 38.8526 21.3642 38.8584C21.2691 38.8641 21.1768 38.893 21.0817 38.8988C20.9866 38.9046 20.8886 38.8237 20.7934 38.8295C20.6983 38.8353 20.6061 38.8468 20.5109 38.8526C20.4158 38.8584 20.3264 38.9392 20.2313 38.9421C20.1362 38.9479 20.0381 38.8439 19.943 38.8497C19.8479 38.8526 19.7556 38.8526 19.6605 38.8555C19.5654 38.8555 19.4731 38.9335 19.378 38.9364C19.2829 38.9364 19.1877 38.8873 19.0926 38.8873C18.9975 38.8873 18.9052 38.8988 18.8101 38.9017" fill="#0096D8"/>
</svg>
