<svg width="44" height="48" viewBox="0 0 44 48" fill="none" xmlns="http://www.w3.org/2000/svg">
<path id="shape4" d="M25.1027 27.8013C25.0815 28.6189 25.0724 29.3403 25.0451 30.0647C25.0087 31.0416 24.9421 32.0155 24.9239 32.9925C24.9148 33.5486 24.9391 34.1077 25.0057 34.6607C25.1784 36.1637 25.0421 37.6636 25.0178 39.1666C24.9936 40.4651 24.9027 41.7637 25.039 43.0653C25.0814 43.4981 25.039 43.943 24.9875 44.3788C24.8815 45.2596 24.833 46.1583 24.4907 46.994C24.3422 47.3547 24.1271 47.6162 23.6757 47.7214C22.3851 48.016 21.0763 47.9258 19.7766 47.9859C18.2436 48.0581 16.7197 47.8326 15.1928 47.7695C13.7477 47.7094 12.3026 47.7004 10.8544 47.6703C10.091 47.6553 9.32449 47.6553 8.558 47.6342C6.97655 47.5891 5.39206 47.541 3.81061 47.4749C3.32587 47.4539 2.826 47.4569 2.40791 47.1172C2.31702 47.0391 2.15343 47.0451 2.02012 47.018C1.33543 46.8858 0.959759 46.4679 0.862812 45.7886C0.575001 43.7897 0.6265 41.7787 0.668916 39.7678C0.699212 38.3159 0.768899 36.8641 0.83555 35.4152C0.923406 33.4403 1.03247 31.4685 1.12639 29.4936C1.15062 28.9706 1.15366 28.4445 1.16578 27.9215C1.20213 26.3825 1.23545 24.8465 1.27484 23.3074C1.30513 22.2283 1.28393 21.1432 1.393 20.0701C1.51418 18.8707 1.41117 17.6774 1.40814 16.484C1.40814 15.2697 1.42935 14.0523 1.42329 12.8379C1.42026 12.1285 1.35664 11.4191 1.36573 10.7127C1.38391 9.15865 1.41421 7.6046 1.47177 6.05054C1.50813 5.0075 1.56266 3.95844 1.69596 2.92441C1.76564 2.36531 1.98982 1.81824 2.21098 1.29221C2.28975 1.10584 2.54121 0.937508 2.75025 0.87138C3.65611 0.588826 4.56196 0.300251 5.53749 0.357365C5.99193 0.384415 6.45243 0.279217 6.91293 0.279217C9.31238 0.2702 11.7148 0.25517 14.1143 0.288236C14.8596 0.30026 15.6018 0.348352 16.3501 0.288236C16.5834 0.267194 16.8197 0.288232 17.056 0.306268C17.2772 0.324304 17.5014 0.342344 17.7195 0.327314C19.8069 0.198061 21.9034 0.288237 23.9878 0.0537741C24.5089 -0.00333572 25.039 0.00567846 25.5662 0.0146964C25.8055 0.0207084 26.0449 0.0237106 26.2812 0.0207047C26.3387 0.0207047 26.3963 0.0207047 26.4539 0.0207047C26.5508 0.0207047 26.6447 0.0237107 26.7417 0.0207047C28.3655 -0.0664648 29.9652 0.134928 31.5678 0.375399C33.4523 0.66096 35.3548 0.760165 37.2574 0.853347C38.339 0.904449 39.4266 1.05775 40.49 1.27417C41.1111 1.40042 41.7291 1.67095 42.2745 1.99559C42.9713 2.4104 43.1803 3.16788 43.2318 3.91636C43.3166 5.14577 43.3166 6.3782 43.3681 7.60762C43.4318 9.1767 43.5378 10.7488 43.5772 12.3179C43.6226 14.1575 43.6256 16.0001 43.6317 17.8427C43.6408 20.3256 43.6317 22.8085 43.6317 25.2944C43.6317 25.3455 43.6378 25.3965 43.6317 25.4476C43.6044 25.7302 43.6832 26.118 43.5257 26.2713C43.2257 26.5689 42.8622 26.8334 42.4138 26.9506C41.4322 27.2061 40.4294 27.2602 39.4266 27.3023C38.1178 27.3594 36.809 27.3384 35.5003 27.3774C34.552 27.4075 33.6007 27.4857 32.6524 27.5368C32.3131 27.5548 31.9738 27.5668 31.6315 27.5698C30.1348 27.5939 28.6382 27.5879 27.1476 27.7532C26.875 27.7832 26.5993 27.7742 26.3236 27.7652C26.1721 27.7592 26.0237 27.7562 25.8722 27.7562C25.6389 27.7562 25.4056 27.7772 25.0996 27.7923" fill="#FF8A95"/>
</svg>
