<svg width="112" height="103" viewBox="0 0 112 103" fill="none" xmlns="http://www.w3.org/2000/svg">
<path d="M111.635 56.3146C111.654 56.5691 111.606 56.8237 111.54 57.0971C111.484 57.3423 111.286 57.5403 111.182 57.7948C111.078 58.0305 111.192 58.3794 111.06 58.6151C110.928 58.8508 110.645 58.9828 110.503 59.2091C110.352 59.4542 110.296 59.7654 110.136 60.0011C109.975 60.2368 109.834 60.5008 109.664 60.7271C109.494 60.9534 109.24 61.1231 109.061 61.3494C108.882 61.5756 108.806 61.8868 108.618 62.1036C108.429 62.3205 108.231 62.5373 108.033 62.7448C107.835 62.9522 107.599 63.1313 107.392 63.3293C107.184 63.5273 107.015 63.7725 106.807 63.961C106.609 64.1402 106.43 64.3287 106.232 64.5079C106.034 64.687 105.77 64.7813 105.572 64.9604C105.374 65.1396 105.082 65.2056 104.893 65.3847C104.705 65.5639 104.676 65.9316 104.479 66.1013C104.281 66.271 103.894 66.2427 103.696 66.4219C103.498 66.601 103.328 66.799 103.14 66.9781C102.951 67.1573 102.819 67.4118 102.631 67.591C102.442 67.7701 102.197 67.8927 101.999 68.0718C101.801 68.251 101.669 68.4867 101.471 68.6658C101.273 68.845 100.99 68.9204 100.792 69.0901C100.594 69.2598 100.528 69.5804 100.33 69.7595C100.132 69.9387 99.8208 69.9764 99.6228 70.1555C99.4248 70.3347 99.2928 70.5798 99.0948 70.7495C98.8968 70.9192 98.7366 71.1361 98.5292 71.3058C98.3312 71.4755 98.02 71.5132 97.8126 71.6829C97.6052 71.8526 97.5014 72.1355 97.294 72.2958C97.0866 72.4561 96.9452 72.7012 96.7377 72.8615C96.5303 73.0218 96.2003 73.0312 95.9929 73.1915C95.7855 73.3518 95.5592 73.4932 95.3518 73.6535C95.1443 73.8138 94.8898 73.9175 94.6823 74.0777C94.4749 74.238 94.3335 74.4832 94.1166 74.6435C93.8998 74.8037 93.7866 75.0772 93.5698 75.228C93.3529 75.3789 93.1078 75.492 92.9004 75.6523C92.693 75.8126 92.5138 76.0106 92.3064 76.1709C92.099 76.3311 91.8632 76.4537 91.6558 76.6234C91.4484 76.7931 91.2787 77.0006 91.0618 77.1703C90.845 77.34 90.5621 77.3966 90.3547 77.5663C90.1473 77.736 89.9681 77.934 89.7607 78.1037C89.5533 78.2734 89.4307 78.5468 89.2233 78.7165C89.0158 78.8863 88.7518 78.9805 88.5444 79.1502C88.337 79.32 88.139 79.4991 87.9316 79.6688C87.7242 79.8385 87.4979 79.9799 87.2904 80.1402C87.083 80.3005 86.8379 80.4325 86.6304 80.6022C86.423 80.7719 86.1685 80.8851 85.961 81.0454C85.7536 81.2057 85.5273 81.3565 85.3199 81.5262C85.1125 81.6959 84.9616 81.9316 84.7542 82.0919C84.5468 82.2522 84.3959 82.5068 84.1885 82.6671C83.9811 82.8273 83.6699 82.8745 83.4625 83.0442C83.2551 83.2139 83.1231 83.4685 82.9156 83.6382C82.7082 83.8079 82.4631 83.9305 82.2557 84.1002C82.0482 84.2699 81.7842 84.3642 81.5768 84.5339C81.3694 84.7036 81.294 85.0336 81.096 85.2033C80.898 85.373 80.5302 85.3542 80.3228 85.5239C80.1154 85.6936 80.0683 86.0519 79.8608 86.2216C79.6534 86.3913 79.4554 86.5704 79.2574 86.7401C79.0594 86.9098 78.8048 87.0324 78.5974 87.2021C78.39 87.3719 78.0317 87.3624 77.8243 87.5415C77.6169 87.7207 77.4 87.881 77.202 88.0601C77.004 88.2393 76.8154 88.4467 76.6174 88.6164C76.4194 88.7861 76.3158 89.0973 76.1083 89.267C75.9009 89.4367 75.6935 89.6158 75.4955 89.795C75.2975 89.9741 75.0618 90.1155 74.8543 90.2947C74.6469 90.4738 74.3735 90.5587 74.166 90.7378C73.9586 90.9169 73.8172 91.1621 73.6098 91.3412C73.4023 91.5204 73.1761 91.6712 72.9781 91.8504C72.7801 92.0295 72.6104 92.2463 72.4029 92.4255C72.1955 92.6046 72.0352 92.8309 71.8372 93.0101C71.6392 93.1892 71.2621 93.1703 71.0641 93.3495C70.8661 93.5286 70.7058 93.7549 70.4984 93.934C70.291 94.1132 70.1024 94.3018 69.895 94.4809C69.6875 94.66 69.499 94.8486 69.2916 95.0277C69.0841 95.2069 68.9898 95.4992 68.7824 95.6783C68.575 95.8574 68.3959 96.0649 68.1979 96.2346C67.9999 96.4043 67.6039 96.376 67.4059 96.5551C67.2079 96.7343 67.0476 96.9606 66.8402 97.1397C66.6327 97.3188 66.3687 97.4226 66.1707 97.6017C65.9727 97.7809 65.935 98.158 65.7276 98.3277C65.5202 98.4974 65.2656 98.62 65.0582 98.7897C64.8508 98.9594 64.5396 99.016 64.3416 99.1951C64.1436 99.3743 64.0493 99.6759 63.8419 99.8551C63.6251 100.034 63.2951 100.072 63.0782 100.242C62.8614 100.411 62.6822 100.638 62.4465 100.789C62.2108 100.939 61.9657 101.062 61.7205 101.194C61.4754 101.326 61.2962 101.59 61.0511 101.712C60.806 101.835 60.542 101.958 60.278 102.061C60.014 102.165 59.7406 102.231 59.4766 102.316C59.2126 102.401 58.9391 102.335 58.6846 102.363C58.43 102.391 58.1566 102.561 57.8926 102.542C57.6286 102.523 57.4117 102.297 57.1477 102.222C56.9026 102.156 56.6009 102.222 56.3463 102.118C56.0917 102.014 55.8277 101.967 55.5826 101.873C55.3375 101.779 55.1395 101.543 54.8849 101.449C54.6303 101.354 54.4229 101.166 54.1778 101.071C53.9326 100.977 53.5744 101.147 53.3292 101.043C53.0841 100.939 52.8484 100.798 52.6032 100.694C52.3581 100.591 52.2072 100.279 51.9621 100.166C51.7169 100.053 51.387 100.129 51.1513 100.006C50.9155 99.8834 50.7835 99.5722 50.5573 99.4402C50.331 99.3082 50.067 99.2328 49.8407 99.082C49.6144 98.9311 49.3221 98.884 49.1147 98.7143C48.9073 98.5445 48.7564 98.3183 48.5584 98.1297C48.351 97.9317 48.1907 97.7054 47.9833 97.5169C47.7759 97.3283 47.4459 97.2717 47.2384 97.0926C47.031 96.9134 46.8613 96.6777 46.6539 96.4892C46.4464 96.3006 46.305 96.0366 46.0976 95.8574C45.8902 95.6783 45.6639 95.4992 45.4565 95.32C45.249 95.1409 45.1076 94.8675 44.9002 94.6883C44.6928 94.5092 44.3439 94.4903 44.1271 94.3206C43.9102 94.1509 43.8253 93.8115 43.6179 93.6323C43.4105 93.4532 43.0522 93.4532 42.8354 93.2741C42.6185 93.0949 42.3734 92.9723 42.1565 92.7932C41.9397 92.6141 41.8077 92.3406 41.6002 92.1615C41.3928 91.9823 41.1288 91.8598 40.9214 91.6712C40.7234 91.4921 40.5725 91.2375 40.3368 91.0584C40.1294 90.8887 39.9031 90.7095 39.6768 90.5304C39.4505 90.3512 39.328 90.0684 39.1017 89.8987C38.8754 89.729 38.5454 89.7101 38.3191 89.5404C38.0928 89.3707 37.9703 89.069 37.744 88.8993C37.5177 88.7295 37.1406 88.7672 36.9143 88.5975C36.688 88.4278 36.5183 88.1733 36.3015 88.0036C36.0846 87.8339 35.9149 87.5793 35.698 87.4096C35.4717 87.2304 35.1889 87.1267 34.9815 86.957C34.7646 86.7779 34.4818 86.6553 34.2743 86.4761C34.0669 86.297 33.982 85.9576 33.7746 85.769C33.5672 85.5804 33.322 85.4296 33.1241 85.2316C32.9261 85.0336 32.6244 84.9299 32.4264 84.7319C32.2284 84.5339 32.0587 84.2982 31.8701 84.1002C31.6815 83.9022 31.5401 83.6382 31.3421 83.4402C31.1441 83.2422 31.0404 82.9499 30.8329 82.7519C30.6255 82.5539 30.2861 82.5256 30.0692 82.3371C29.8524 82.1485 29.7204 81.8939 29.4941 81.7148C29.2961 81.5545 29.0981 81.3754 28.8718 81.1868C28.6644 81.0265 28.4664 80.838 28.2401 80.6682C28.0327 80.508 27.7687 80.3948 27.5519 80.2251C27.335 80.0554 27.1276 79.8951 26.9107 79.7254C26.6939 79.5557 26.5336 79.32 26.3167 79.1597C26.0999 78.9994 25.8453 78.8674 25.6379 78.7071C25.4304 78.5468 25.223 78.3488 25.0062 78.1886C24.7893 78.0283 24.4782 77.9622 24.2708 77.8114C24.0445 77.6417 23.8088 77.5003 23.6014 77.34C23.3656 77.1703 23.1771 76.9723 22.9696 76.8214C22.7528 76.6706 22.5548 76.4914 22.3474 76.3406C22.1399 76.1897 21.9797 75.954 21.7722 75.7937C21.5648 75.6334 21.2065 75.6617 20.9991 75.492C20.7917 75.3223 20.7539 74.9546 20.5465 74.7849C20.3391 74.6152 20.0845 74.5209 19.8771 74.3512C19.6697 74.1815 19.4528 74.04 19.2548 73.8609C19.0568 73.6818 18.8871 73.4838 18.6891 73.314C18.4911 73.1443 18.1894 73.0783 17.9914 72.9086C17.7934 72.7389 17.7086 72.4372 17.5106 72.2581C17.3126 72.0789 17.1146 71.9186 16.9166 71.7395C16.7186 71.5604 16.53 71.3906 16.332 71.2115C16.134 71.0324 15.8606 70.9569 15.6626 70.7778C15.4646 70.5986 15.276 70.4289 15.078 70.2498C14.88 70.0707 14.8329 69.7312 14.6349 69.5615C14.4369 69.3918 14.1446 69.3258 13.9466 69.1561C13.7486 68.9864 13.6261 68.7224 13.4281 68.5527C13.2301 68.383 12.8812 68.3924 12.6738 68.2227C12.4663 68.053 12.3815 67.7607 12.1741 67.591C11.9666 67.4213 11.7592 67.2704 11.5424 67.1101C11.3255 66.9498 11.0992 66.8273 10.8824 66.667C10.6372 66.4784 10.3921 66.337 10.1752 66.1767C9.93009 65.9882 9.71325 65.809 9.50582 65.6487C9.26068 65.4696 8.95898 65.4036 8.75156 65.2433C8.50642 65.0642 8.44042 64.687 8.22357 64.5267C7.99728 64.357 7.69556 64.3005 7.46927 64.1213C7.26185 63.9516 6.96013 63.8856 6.72442 63.697C6.52642 63.5368 6.38501 63.2728 6.1493 63.0748C5.9513 62.905 5.72501 62.7353 5.4893 62.5373C5.2913 62.3676 5.1499 62.0942 4.92361 61.8868C4.70676 61.6982 4.57475 61.4436 4.38619 61.2079C4.20705 60.9722 4.04674 60.7271 3.8676 60.4914C3.68846 60.2557 3.44334 60.0577 3.23591 59.8502C3.02849 59.6428 2.81162 59.3882 2.53819 59.2657C2.34019 59.1808 2.10451 59.096 1.88765 58.8602C1.72737 58.6717 1.57652 58.4548 1.41623 58.2097C1.27481 57.9834 1.24649 57.7006 1.12392 57.4554C1.00136 57.2103 0.803365 57.0028 0.718509 56.7577C0.624224 56.4843 0.511083 56.2297 0.482798 55.9846C0.445084 55.6734 0.54881 55.4283 0.643094 55.2209C0.737378 54.9946 0.765664 54.74 0.878805 54.5232C0.991946 54.3063 1.0391 54.0423 1.18052 53.8349C1.32195 53.6275 1.51052 53.4577 1.68023 53.2786C1.8688 53.0712 2.16108 52.9769 2.33079 52.7695C2.5005 52.5621 2.45335 52.1755 2.61363 51.9681C2.77392 51.7606 3.04734 51.6192 3.19819 51.4024C3.34905 51.1855 3.5282 50.9781 3.67905 50.7518C3.82991 50.5255 3.94305 50.2804 4.09391 50.0635C4.24476 49.8467 4.43332 49.6392 4.58417 49.4224C4.73503 49.2055 4.88588 48.9792 5.04616 48.7624C5.20644 48.5455 5.28189 48.2721 5.4516 48.0553C5.62132 47.8384 5.75329 47.6027 5.93243 47.3953C6.11158 47.1878 6.38502 47.0841 6.57359 46.8861C6.76216 46.6976 7.08271 46.641 7.26185 46.4524C7.44099 46.2639 7.52585 45.9621 7.71442 45.7736C7.90299 45.585 8.14814 45.4624 8.3367 45.2739C8.52527 45.0853 8.69497 44.8873 8.88354 44.6987C9.07211 44.5102 9.27012 44.3405 9.45869 44.1519C9.64726 43.9633 9.6661 43.6145 9.85467 43.4259C10.0432 43.2373 10.3732 43.1902 10.5524 43.0016C10.7315 42.813 10.7692 42.4736 10.9578 42.285C11.1464 42.0965 11.4575 42.0305 11.6367 41.8419C11.8158 41.6534 12.0044 41.4648 12.1929 41.2762C12.3815 41.0876 12.6361 40.9651 12.8246 40.7765C13.0132 40.5879 13.1358 40.3334 13.3243 40.1448C13.5129 39.9562 13.7486 39.8242 13.9372 39.6357C14.1258 39.4471 14.3049 39.2491 14.4935 39.0605C14.682 38.872 14.8517 38.674 15.0403 38.4854C15.2289 38.2968 15.4269 38.1177 15.6155 37.9291C15.804 37.7405 15.8323 37.3917 16.0209 37.2031C16.2094 37.0145 16.4074 36.8354 16.596 36.6468C16.7846 36.4583 17.0486 36.3546 17.2372 36.166C17.4257 35.9774 17.5766 35.7323 17.7651 35.5343C17.9537 35.3363 18.2648 35.2609 18.4628 35.0723C18.6608 34.8837 18.7268 34.5632 18.9154 34.3746C19.104 34.186 19.368 34.054 19.5565 33.856C19.7451 33.658 19.8677 33.394 20.0562 33.196C20.2448 32.998 20.556 32.9226 20.7445 32.7246C20.9331 32.5266 21.2159 32.4229 21.4045 32.2249C21.5931 32.0269 21.6591 31.7063 21.8571 31.5178C22.0551 31.3292 22.3002 31.1878 22.4888 30.9992C22.6773 30.8106 22.8188 30.5561 23.0168 30.3675C23.2148 30.1789 23.4222 29.9998 23.6202 29.8112C23.8182 29.6227 23.9031 29.3209 24.1011 29.1324C24.2991 28.9438 24.6762 28.9344 24.8648 28.7458C25.0628 28.5478 25.1287 28.2084 25.3267 28.0198C25.5247 27.8313 25.8453 27.7464 26.0433 27.5578C26.2413 27.3693 26.3733 27.0958 26.5807 26.8978C26.7881 26.6998 27.0522 26.5773 27.2502 26.3887C27.4482 26.2001 27.731 26.087 27.9384 25.889C28.1458 25.691 28.2213 25.3704 28.4193 25.1819C28.6173 24.9933 28.8153 24.7859 29.0227 24.5973C29.2301 24.4087 29.4187 24.2013 29.6261 24.0127C29.8335 23.8242 30.0504 23.645 30.2578 23.4565C30.4653 23.2679 30.6915 23.1076 30.899 22.919C31.1064 22.7305 31.3327 22.5608 31.5401 22.3722C31.7381 22.193 31.9549 22.0422 32.1529 21.8631C32.3509 21.6839 32.5489 21.5048 32.7469 21.3256C32.9449 21.1465 33.1712 21.0051 33.3692 20.8259C33.5672 20.6468 33.7746 20.4865 33.9726 20.3074C34.1706 20.1282 34.3403 19.9208 34.5383 19.7417C34.7363 19.5625 34.8212 19.2608 35.0192 19.0817C35.2172 18.9025 35.5754 18.9025 35.7734 18.7234C35.9714 18.5442 35.9903 18.1671 36.1883 17.988C36.3863 17.8088 36.6691 17.724 36.8671 17.5448C37.0651 17.3657 37.1971 17.1111 37.3951 16.9414C37.5931 16.7717 37.9609 16.7717 38.1589 16.5926C38.3569 16.4134 38.4606 16.1306 38.6586 15.9514C38.8566 15.7723 39.0734 15.6214 39.2714 15.4423C39.4694 15.2632 39.5542 14.9614 39.7522 14.7823C39.9502 14.6032 40.1671 14.4523 40.3651 14.2732C40.5631 14.094 40.7422 13.896 40.9402 13.7263C41.1382 13.5566 41.3362 13.368 41.5342 13.1889C41.7322 13.0098 42.0339 12.9438 42.2319 12.774C42.4299 12.6043 42.6939 12.4912 42.8919 12.312C43.0899 12.1329 43.1748 11.8312 43.3728 11.6521C43.5708 11.4729 43.7782 11.3032 43.9762 11.1241C44.1742 10.9449 44.3816 10.7752 44.5796 10.5961C44.7776 10.4169 44.9285 10.1906 45.1265 10.0115C45.3245 9.83237 45.5413 9.68152 45.7393 9.50238C45.9373 9.32324 46.2579 9.29495 46.4559 9.11581C46.6539 8.93667 46.8707 8.78581 47.0687 8.6161C47.2667 8.44639 47.3139 8.09754 47.5119 7.92783C47.7099 7.75812 47.8796 7.55068 48.0776 7.37154C48.2756 7.1924 48.6244 7.20183 48.8224 7.03211C49.0204 6.8624 49.2184 6.6927 49.4258 6.52299C49.6333 6.35327 49.7464 6.08928 49.9444 5.91957C50.1424 5.74985 50.4158 5.665 50.6138 5.49529C50.8118 5.32558 50.8872 4.99558 51.0852 4.82586C51.2832 4.65615 51.5472 4.55245 51.7452 4.39216C51.9432 4.23188 52.2261 4.15645 52.4335 3.99617C52.6409 3.83589 52.8484 3.68503 53.0652 3.52475C53.2821 3.36447 53.4518 3.16647 53.6592 3.00618C53.8666 2.8459 54.0175 2.60075 54.2343 2.44989C54.4512 2.29904 54.7341 2.24247 54.9509 2.10105C55.1678 1.95962 55.46 1.92191 55.6769 1.77106C55.988 1.56363 56.186 1.18648 56.4972 0.979059C56.7234 0.828204 56.9309 0.6585 57.1477 0.545359C57.3834 0.42279 57.6192 0.290786 57.8643 0.215358C58.1189 0.130502 58.3923 0.121074 58.6374 0.0833605C58.8825 0.0456468 59.1466 0.205939 59.4011 0.224796C59.6557 0.243653 59.948 0.0645014 60.2025 0.139929C60.4382 0.205928 60.7022 0.290783 60.9474 0.403924C61.1737 0.507637 61.3245 0.790493 61.5602 0.922491C61.7959 1.06392 62.06 1.15821 62.2862 1.30906C62.5125 1.45992 62.8331 1.47878 63.0593 1.63906C63.2856 1.79934 63.4931 1.97848 63.7099 2.14819C63.9268 2.3179 64.0399 2.62904 64.2473 2.79876C64.4548 2.96847 64.6245 3.19475 64.8319 3.37389C65.0393 3.55303 65.2939 3.67559 65.5013 3.86416C65.7088 4.05273 65.803 4.33559 66.001 4.53358C66.199 4.73158 66.5102 4.79759 66.6987 4.99558C66.8873 5.19358 67.1042 5.37272 67.2833 5.58014C67.4624 5.77814 67.7076 5.91957 67.8867 6.11757C68.0659 6.31557 68.1224 6.63613 68.3016 6.83413C68.4807 7.03212 68.8013 7.10755 68.9804 7.30555C69.1595 7.50354 69.169 7.86183 69.3481 8.05983C69.5273 8.25782 69.697 8.46525 69.8856 8.66325C70.0741 8.86124 70.291 9.02152 70.4701 9.21952C70.6493 9.41752 70.9509 9.51181 71.1301 9.7098C71.3092 9.9078 71.5167 10.0869 71.6958 10.2849C71.8749 10.4829 72.0258 10.7092 72.2144 10.9072C72.4029 11.1052 72.6104 11.2749 72.7895 11.4729C72.9686 11.6709 73.1384 11.8878 73.3269 12.0763C73.5155 12.2649 73.6946 12.4723 73.8832 12.6703C74.0718 12.8683 74.2792 13.038 74.4584 13.236C74.6469 13.434 74.7129 13.7452 74.8921 13.9337C75.0712 14.1223 75.1938 14.3863 75.3823 14.5843C75.5709 14.7823 75.7595 14.9709 75.948 15.1594C76.1366 15.348 76.5137 15.3669 76.7023 15.5554C76.8909 15.744 77.07 15.9514 77.2586 16.14C77.4471 16.3286 77.5414 16.6208 77.7206 16.8188C77.8997 17.0168 78.1071 17.196 78.2957 17.394C78.4843 17.592 78.5786 17.8748 78.7577 18.0728C78.9369 18.2708 79.1631 18.4311 79.3517 18.6291C79.5403 18.8271 79.6817 19.0628 79.8703 19.2608C80.0588 19.4588 80.4077 19.4965 80.5868 19.6945C80.766 19.8925 80.9545 20.0905 81.1431 20.2885C81.3317 20.4865 81.4543 20.7411 81.6428 20.9296C81.8314 21.1182 81.9351 21.3916 82.1236 21.5896C82.3122 21.7876 82.6234 21.8631 82.8025 22.061C82.9816 22.259 83.0665 22.5513 83.2551 22.7493C83.4436 22.9473 83.7548 23.0228 83.9434 23.2208C84.1319 23.4188 84.2451 23.6733 84.4336 23.8713C84.6222 24.0693 84.7542 24.3145 84.9333 24.5124C85.1125 24.7104 85.2539 24.9462 85.4425 25.1442C85.6311 25.3421 85.9045 25.4553 86.0836 25.6533C86.2627 25.8513 86.3382 26.1436 86.5267 26.351C86.7153 26.5584 87.0736 26.5773 87.2527 26.7847C87.4319 26.9921 87.4979 27.2938 87.6865 27.5013C87.875 27.7087 88.0164 27.935 88.205 28.1424C88.3936 28.3498 88.5821 28.5384 88.7613 28.7458C88.9404 28.9532 89.2516 29.0381 89.4401 29.2361C89.6287 29.4341 89.6476 29.7829 89.8361 29.9904C90.0247 30.1978 90.4018 30.2072 90.5904 30.4146C90.779 30.6221 90.9298 30.8484 91.109 31.0463C91.2881 31.2443 91.307 31.6026 91.4861 31.8101C91.6653 32.0175 91.8727 32.1966 92.0612 32.3946C92.2498 32.5926 92.4761 32.7529 92.6647 32.9509C92.8532 33.1489 93.1267 33.262 93.3152 33.4695C93.5038 33.6769 93.6452 33.9032 93.8243 34.1106C94.0035 34.318 94.0789 34.6103 94.2675 34.8177C94.4561 35.0252 94.8144 35.0629 94.9935 35.2609C95.1726 35.4589 95.2575 35.7606 95.4366 35.968C95.6158 36.1754 95.842 36.3357 96.0212 36.5431C96.2003 36.7506 96.4077 36.9297 96.5869 37.1371C96.766 37.3446 96.7755 37.7028 96.9546 37.9008C97.1337 38.0988 97.4732 38.1742 97.6523 38.3817C97.8314 38.5891 97.9729 38.8248 98.152 39.0322C98.3311 39.2397 98.5951 39.3717 98.7743 39.5791C98.9534 39.7865 98.9346 40.1636 99.1043 40.3711C99.274 40.5785 99.4437 40.7954 99.6228 41.0028C99.802 41.2102 100.179 41.2479 100.358 41.4648C100.537 41.6816 100.547 42.021 100.717 42.2285C100.886 42.4359 101.009 42.6905 101.188 42.9073C101.367 43.1242 101.603 43.275 101.773 43.4825C101.933 43.6899 102.15 43.8502 102.31 44.0482C102.47 44.2462 102.631 44.463 102.791 44.661C102.951 44.859 103.045 45.1324 103.215 45.321C103.385 45.5096 103.517 45.7453 103.696 45.9433C103.875 46.1413 104.148 46.2356 104.318 46.4336C104.488 46.6316 104.61 46.8673 104.79 47.0558C104.969 47.2444 105.138 47.4424 105.318 47.631C105.497 47.8195 105.817 47.8667 105.996 48.0553C106.176 48.2438 106.176 48.6021 106.355 48.7907C106.534 48.9792 106.902 48.9887 107.081 49.1772C107.26 49.3658 107.26 49.7241 107.439 49.9127C107.618 50.1012 107.873 50.2238 108.052 50.4124C108.231 50.6009 108.335 50.8555 108.514 51.0441C108.693 51.2326 108.853 51.4401 109.023 51.6286C109.24 51.8738 109.692 51.9115 109.9 52.1566C110.107 52.4018 110.126 52.8355 110.352 53.0712C110.532 53.2503 110.88 53.288 111.012 53.486C111.144 53.684 111.258 53.9386 111.352 54.1743C111.446 54.41 111.512 54.6457 111.559 54.9003C111.606 55.136 111.352 55.4094 111.371 55.6734C111.39 55.9091 111.55 56.1449 111.55 56.3994L111.635 56.3146Z" fill="#0096D8"/>
</svg>
