<svg width="16" height="16" viewBox="0 0 16 16" fill="none" xmlns="http://www.w3.org/2000/svg">
<circle cx="8" cy="8" r="8" fill="#E33500"/>
<path d="M14 11.4945C13.9973 11.4636 13.9899 11.4307 13.9865 11.395C13.9838 11.3635 13.9892 11.3292 13.9865 11.2949C13.9838 11.2627 13.9879 11.2284 13.9852 11.1948C13.9825 11.1612 13.9717 11.1296 13.9683 11.0953C13.9649 11.0611 13.9514 11.0302 13.9481 10.9966C13.9447 10.963 13.9629 10.928 13.9602 10.8944C13.9575 10.8608 13.9555 10.8272 13.9528 10.7943C13.9501 10.7614 13.9359 10.7284 13.9326 10.6955C13.9292 10.6626 13.9305 10.6277 13.9278 10.5954C13.9245 10.5611 13.9164 10.5282 13.913 10.4959C13.9096 10.461 13.9157 10.4267 13.9123 10.3958C13.909 10.3616 13.9042 10.328 13.9009 10.2937C13.8975 10.2594 13.8995 10.2251 13.8968 10.1909C13.8941 10.1566 13.8766 10.1237 13.8732 10.0894C13.8699 10.0551 13.8611 10.0215 13.8584 9.98726C13.8557 9.95299 13.8584 9.91872 13.8557 9.88445C13.853 9.85018 13.8523 9.81591 13.849 9.78164C13.8456 9.74737 13.8321 9.71444 13.8294 9.68017C13.8267 9.6459 13.8321 9.61096 13.8294 9.57669C13.826 9.54376 13.8355 9.50882 13.8328 9.47589C13.8301 9.44297 13.8186 9.41004 13.8152 9.37711C13.8119 9.34419 13.8146 9.30992 13.8112 9.27699C13.8078 9.24406 13.793 9.21181 13.7896 9.17821C13.7862 9.14461 13.7842 9.11169 13.7808 9.07876C13.7775 9.04583 13.7835 9.01156 13.7802 8.97796C13.7768 8.94436 13.7775 8.91144 13.7741 8.87784C13.7707 8.84424 13.7653 8.81131 13.7626 8.77839C13.7599 8.74546 13.7539 8.71186 13.7505 8.67894C13.7471 8.64601 13.7465 8.61241 13.7438 8.57881C13.7411 8.54521 13.7377 8.51229 13.7343 8.47936C13.731 8.44643 13.7074 8.41485 13.7047 8.38192C13.7013 8.34765 13.6986 8.31406 13.6952 8.27978C13.6918 8.24551 13.6878 8.21192 13.6844 8.17832C13.6811 8.14472 13.6939 8.1091 13.6905 8.07483C13.6871 8.04056 13.6682 8.00831 13.6649 7.97471C13.6615 7.94111 13.6797 7.90482 13.677 7.87055C13.6743 7.83628 13.6682 7.80269 13.6655 7.76909C13.6628 7.73549 13.6514 7.70189 13.648 7.66829C13.6446 7.63469 13.6406 7.60042 13.6372 7.56682C13.6339 7.53322 13.6271 7.49895 13.6237 7.46536C13.6204 7.43176 13.6156 7.39749 13.6123 7.36389C13.6089 7.33029 13.6015 7.29669 13.5988 7.26242C13.5961 7.22815 13.6022 7.19388 13.5988 7.15961C13.5954 7.12534 13.5947 7.09174 13.592 7.05747C13.5893 7.0232 13.5826 6.9896 13.5799 6.956C13.5772 6.9224 13.5752 6.88813 13.5725 6.85386C13.5698 6.81959 13.5604 6.78532 13.5577 6.75105C13.555 6.71678 13.5684 6.68049 13.5657 6.64622C13.563 6.61195 13.5415 6.57903 13.5388 6.54408C13.5361 6.50914 13.5341 6.47487 13.5314 6.4406C13.5287 6.40633 13.5394 6.37071 13.5367 6.33644C13.5341 6.30217 13.5253 6.2679 13.5226 6.23363C13.5199 6.19936 13.5199 6.16442 13.5172 6.13015C13.5145 6.09588 13.5118 6.06094 13.5091 6.02667C13.5064 5.99239 13.5118 5.95745 13.5091 5.92251C13.5064 5.88757 13.4889 5.85464 13.4862 5.82037C13.4835 5.7861 13.501 5.74981 13.4983 5.71554C13.4956 5.68127 13.4855 5.647 13.4828 5.61273C13.4801 5.57846 13.4734 5.54419 13.4707 5.50992C13.468 5.47565 13.474 5.44003 13.4713 5.40576C13.4686 5.37149 13.4552 5.33789 13.4525 5.30295C13.4498 5.26801 13.443 5.23441 13.441 5.20014C13.439 5.16587 13.4504 5.13026 13.4477 5.09531C13.445 5.06037 13.4423 5.0261 13.4396 4.99183C13.437 4.9589 13.4194 4.92732 13.4167 4.89372C13.414 4.86012 13.4093 4.82787 13.4059 4.79494C13.4026 4.76202 13.3965 4.72976 13.3924 4.69683C13.3884 4.66391 13.3965 4.62964 13.3904 4.59671C13.3844 4.56378 13.3729 4.53287 13.3648 4.50062C13.3567 4.46836 13.3399 4.43947 13.3291 4.40789C13.3183 4.3763 13.3102 4.34539 13.2967 4.31448C13.2778 4.27148 13.263 4.23452 13.2333 4.21033C13.2036 4.18614 13.1672 4.16732 13.1187 4.16463C13.0836 4.16262 13.0479 4.15926 13.0128 4.1559C12.9777 4.15254 12.942 4.15052 12.9069 4.14716C12.8719 4.1438 12.8355 4.15321 12.8004 4.14985C12.7653 4.14649 12.7303 4.13641 12.6952 4.13439C12.6608 4.13305 12.6264 4.14179 12.592 4.14044C12.5577 4.1391 12.5246 4.11692 12.4902 4.11558C12.4558 4.11424 12.4208 4.13305 12.3864 4.13171C12.352 4.13036 12.3189 4.1055 12.2846 4.10416C12.2502 4.10281 12.2151 4.12163 12.1807 4.12028C12.1463 4.11894 12.1119 4.11558 12.0775 4.11424C12.0432 4.11289 12.0088 4.11424 11.9744 4.11289C11.94 4.11155 11.9063 4.09072 11.8719 4.09004C11.8375 4.08937 11.8024 4.10819 11.768 4.10684C11.7336 4.1055 11.6999 4.08131 11.6655 4.08064C11.6312 4.07996 11.5968 4.08064 11.5624 4.07929C11.528 4.07795 11.4929 4.09744 11.4585 4.09609C11.4241 4.09475 11.3904 4.0766 11.356 4.07593C11.323 4.07593 11.29 4.08131 11.2576 4.08064C11.2252 4.07996 11.1915 4.09273 11.1591 4.09273C11.1268 4.09273 11.0937 4.06989 11.0607 4.06989C11.0276 4.06989 10.9946 4.07593 10.9622 4.07593C10.9299 4.07593 10.8962 4.08265 10.8638 4.08265C10.8314 4.08265 10.7984 4.07795 10.7653 4.07795C10.7323 4.07795 10.6999 4.07123 10.6669 4.07123C10.6339 4.07123 10.6008 4.08534 10.5684 4.08534C10.5361 4.08534 10.503 4.07728 10.47 4.07728C10.437 4.07728 10.4039 4.08131 10.3715 4.08131C10.3392 4.08131 10.3055 4.08736 10.2731 4.08668C10.2407 4.08601 10.2077 4.07056 10.1746 4.07056C10.1416 4.07056 10.1092 4.07056 10.0762 4.07056C10.0432 4.07056 10.0101 4.07526 9.97775 4.07459C9.94538 4.07392 9.91234 4.06989 9.8793 4.06921C9.84626 4.06854 9.81389 4.06518 9.78085 4.06451C9.74781 4.06384 9.71409 4.06854 9.68038 4.06787C9.64666 4.0672 9.61362 4.06585 9.58058 4.06585C9.54754 4.06585 9.51382 4.0672 9.48078 4.0672C9.44774 4.0672 9.41403 4.07324 9.38098 4.07257C9.34794 4.0719 9.31423 4.06451 9.28119 4.06451C9.24815 4.06451 9.21443 4.07324 9.18139 4.07324C9.14835 4.07324 9.11463 4.05779 9.08159 4.05779C9.04855 4.05779 9.01483 4.05779 8.98179 4.05779C8.94875 4.05779 8.91504 4.06182 8.882 4.06182C8.84895 4.06182 8.81524 4.07459 8.7822 4.07459C8.74916 4.07459 8.71544 4.06317 8.6824 4.06317C8.64936 4.06317 8.61564 4.05376 8.5826 4.05376C8.54956 4.05376 8.51585 4.0672 8.48281 4.0672C8.44976 4.0672 8.41605 4.06787 8.38301 4.0672C8.34997 4.06653 8.31625 4.07392 8.28321 4.07324C8.25017 4.07257 8.21713 4.04973 8.18341 4.04905C8.1497 4.04838 8.11666 4.0504 8.08361 4.04905C8.05057 4.04771 8.01686 4.06384 7.98314 4.06317C7.94943 4.06249 7.91706 4.0504 7.88334 4.04973C7.84963 4.04838 7.81659 4.04099 7.78355 4.03965C7.75051 4.0383 7.71679 4.0336 7.68375 4.03293C7.65071 4.03225 7.61699 4.03293 7.58328 4.03225C7.54956 4.03158 7.51652 4.02889 7.4828 4.02822C7.44909 4.02755 7.41537 4.04771 7.38166 4.04704C7.34794 4.04637 7.3149 4.04032 7.28186 4.03965C7.24882 4.03897 7.2151 4.02621 7.18206 4.02553C7.14902 4.02486 7.11463 4.03427 7.08159 4.0336C7.04855 4.03293 7.01483 4.02621 6.98179 4.02553C6.94875 4.02486 6.91504 4.02218 6.88132 4.0215C6.84761 4.02083 6.81456 4.02486 6.78085 4.02352C6.74713 4.02218 6.71409 4.01411 6.68105 4.01344C6.64801 4.01277 6.61362 4.02553 6.58058 4.02486C6.54754 4.02419 6.5145 4.00806 6.48078 4.00739C6.44842 4.00605 6.41605 4.00202 6.38368 4.00202C6.35131 4.00202 6.31895 4.00806 6.28658 4.00806C6.25421 4.00806 6.22185 4.00941 6.19016 4.00941C6.15846 4.00941 6.12542 4 6.09305 4C6.06069 4 6.029 4.00538 5.99663 4.00605C5.96426 4.00672 5.93257 4.0168 5.9002 4.01747C5.86716 4.01814 5.83412 4.01008 5.8004 4.01075C5.76669 4.01142 5.73432 4.01344 5.70128 4.01344C5.66824 4.01344 5.6352 4.02419 5.60216 4.02486C5.56912 4.02553 5.53608 4.02822 5.50303 4.02889C5.46999 4.02957 5.43695 4.02755 5.40391 4.02822C5.37087 4.02889 5.33783 4.01008 5.30411 4.01075C5.2704 4.01142 5.23803 4.02957 5.20499 4.02957C5.17195 4.02957 5.13891 4.0336 5.10587 4.03427C5.07283 4.03494 5.03978 4.02621 5.00674 4.02688C4.9737 4.02755 4.94066 4.03629 4.90762 4.03629C4.87458 4.03629 4.84086 4.02016 4.80782 4.02083C4.77478 4.0215 4.74174 4.03561 4.7087 4.03561C4.67566 4.03561 4.64194 4.02016 4.6089 4.02083C4.57586 4.0215 4.54282 4.02688 4.50978 4.02755C4.47674 4.02822 4.4437 4.02554 4.41065 4.02688C4.37761 4.02822 4.34457 4.02554 4.31153 4.02688C4.27849 4.02822 4.24545 4.04166 4.21241 4.04233C4.17937 4.04368 4.14565 4.04233 4.11194 4.04233C4.07822 4.04233 4.04518 4.04301 4.01146 4.04301C3.97775 4.04301 3.94471 4.04166 3.91099 4.04099C3.87728 4.04032 3.84423 4.05309 3.81052 4.05309C3.7768 4.05309 3.74376 4.05309 3.71005 4.05309C3.67633 4.05309 3.64262 4.04166 3.6089 4.04233C3.57519 4.04301 3.54147 4.04099 3.50843 4.04233C3.47539 4.04368 3.44167 4.04771 3.40796 4.0504C3.37289 4.05241 3.33783 4.04435 3.30276 4.04502C3.2677 4.04569 3.23264 4.04771 3.19825 4.04771C3.16386 4.04771 3.12879 4.06653 3.09373 4.0672C3.05866 4.06787 3.02428 4.06249 2.98921 4.06451C2.95415 4.06653 2.92111 4.07862 2.88604 4.08332C2.85165 4.08803 2.82333 4.09408 2.79703 4.10416C2.76534 4.11625 2.73432 4.12163 2.71274 4.14179C2.69117 4.16195 2.68375 4.19218 2.67094 4.22309C2.66015 4.2493 2.63924 4.27551 2.63452 4.30978C2.6298 4.34203 2.62508 4.37429 2.62104 4.40654C2.61699 4.4388 2.61227 4.47105 2.60755 4.50331C2.60283 4.53556 2.59609 4.56714 2.59137 4.5994C2.58665 4.63165 2.60013 4.6666 2.59541 4.69885C2.59069 4.7311 2.57991 4.76269 2.57519 4.79494C2.57047 4.8272 2.5617 4.85878 2.55698 4.89103C2.55226 4.92329 2.55361 4.95621 2.54889 4.98847C2.54417 5.02072 2.52866 5.05164 2.52461 5.08389C2.52057 5.11614 2.5145 5.1484 2.51045 5.18065C2.50641 5.21291 2.51787 5.24718 2.51382 5.27943C2.50978 5.31169 2.51045 5.34461 2.50641 5.37687C2.50236 5.41047 2.48213 5.44272 2.47876 5.47699C2.47539 5.51126 2.48281 5.54621 2.47876 5.5798C2.47471 5.6134 2.4673 5.647 2.46392 5.68127C2.46055 5.71554 2.4619 5.74981 2.45853 5.78341C2.45516 5.81701 2.45516 5.85195 2.45111 5.88555C2.44707 5.91915 2.43358 5.95208 2.43021 5.98635C2.42684 6.02062 2.41605 6.05354 2.412 6.08714C2.40796 6.12074 2.39987 6.15434 2.39649 6.18861C2.39312 6.22288 2.39852 6.25715 2.39514 6.29142C2.39177 6.32569 2.39649 6.35996 2.39312 6.39423C2.38975 6.4285 2.38098 6.46143 2.37761 6.4957C2.37424 6.52997 2.3675 6.56357 2.36413 6.59717C2.36076 6.63077 2.35199 6.66437 2.34862 6.69864C2.34525 6.73291 2.3385 6.76583 2.33446 6.8001C2.33041 6.83437 2.32771 6.86797 2.32367 6.90224C2.31962 6.93651 2.33176 6.97146 2.32839 7.00573C2.32502 7.04 2.30951 7.07225 2.30614 7.10652C2.30276 7.14079 2.29602 7.17439 2.29265 7.20799C2.28928 7.24159 2.28928 7.27653 2.28591 7.31013C2.28254 7.34373 2.28726 7.37867 2.28388 7.41294C2.28051 7.44721 2.2731 7.48014 2.26972 7.51441C2.26635 7.54734 2.26028 7.57959 2.25691 7.61252C2.25354 7.64544 2.25354 7.67837 2.25084 7.7113C2.24815 7.74422 2.24275 7.77648 2.23938 7.8094C2.23601 7.84233 2.22859 7.87459 2.22522 7.90751C2.22185 7.94044 2.21578 7.97269 2.21308 8.00562C2.21038 8.03855 2.21982 8.07215 2.21713 8.10507C2.21443 8.138 2.19622 8.16958 2.1942 8.20251C2.19218 8.23543 2.18813 8.26836 2.18611 8.30129C2.18341 8.33623 2.1942 8.37252 2.19218 8.40813C2.19016 8.44375 2.1915 8.47869 2.18881 8.5143C2.18611 8.54992 2.18004 8.58486 2.17734 8.6198C2.17465 8.65474 2.17465 8.69036 2.17262 8.72597C2.1706 8.76159 2.16251 8.79586 2.16049 8.83147C2.15846 8.86709 2.16049 8.90203 2.15779 8.93764C2.15509 8.97326 2.15914 9.00887 2.15711 9.04382C2.15509 9.07876 2.14565 9.1137 2.14363 9.14932C2.1416 9.18493 2.12879 9.2192 2.1261 9.25414C2.1234 9.28909 2.13756 9.32604 2.13486 9.36099C2.13284 9.39458 2.11328 9.42684 2.11059 9.46044C2.10789 9.49404 2.11194 9.52831 2.10924 9.56191C2.10654 9.5955 2.11396 9.62977 2.11194 9.66337C2.10991 9.69697 2.09912 9.7299 2.0971 9.7635C2.09508 9.7971 2.08429 9.83002 2.08227 9.86362C2.08024 9.89722 2.0971 9.93216 2.09508 9.96576C2.09305 9.99936 2.08901 10.033 2.08631 10.0666C2.08361 10.1002 2.06743 10.1331 2.06473 10.1667C2.06204 10.2003 2.07215 10.2345 2.07013 10.2681C2.06811 10.3017 2.04922 10.334 2.04653 10.3676C2.04383 10.4012 2.04922 10.4355 2.04653 10.4691C2.04383 10.5027 2.0526 10.5369 2.05057 10.5705C2.04855 10.6041 2.04248 10.6377 2.03978 10.6713C2.03709 10.7049 2.03506 10.7385 2.03304 10.7721C2.03102 10.8057 2.03169 10.8393 2.02967 10.8729C2.02765 10.9065 2.01011 10.9394 2.00809 10.973C2.00607 11.0066 2.02428 11.0416 2.02225 11.0752C2.02023 11.1088 2.01618 11.1424 2.01416 11.176C2.01214 11.2069 2 11.2385 2 11.2701C2 11.3016 2.01483 11.3319 2.01753 11.3635C2.02023 11.395 2.0027 11.4293 2.00809 11.4602C2.01349 11.4911 2.0209 11.5234 2.03034 11.5536C2.04113 11.5892 2.06541 11.6195 2.0762 11.6517C2.08833 11.6867 2.08833 11.725 2.10115 11.7572C2.11396 11.7915 2.13149 11.8231 2.14498 11.856C2.15846 11.8889 2.17802 11.9199 2.19218 11.9528C2.20634 11.9857 2.21645 12.02 2.23061 12.0529C2.24477 12.0858 2.25759 12.1181 2.27175 12.1517C2.28591 12.1853 2.30074 12.2155 2.31423 12.2505C2.32637 12.2827 2.35064 12.3123 2.36278 12.3472C2.37424 12.3808 2.38233 12.4124 2.40256 12.4366C2.42414 12.4628 2.44504 12.4924 2.47404 12.5085C2.50303 12.5246 2.53675 12.5381 2.57047 12.5441C2.6062 12.5508 2.64464 12.5441 2.68105 12.5488C2.71746 12.5535 2.75388 12.5656 2.79029 12.567C2.8267 12.5683 2.86379 12.5542 2.9002 12.5535C2.91841 12.5535 2.95347 12.5596 3.00067 12.5582C3.02967 12.5576 3.06271 12.5468 3.10047 12.5455C3.13149 12.5441 3.16521 12.5602 3.20162 12.5589C3.23331 12.5576 3.26703 12.5535 3.30209 12.5522C3.33446 12.5508 3.3675 12.5401 3.40256 12.5387C3.43493 12.5374 3.46864 12.5374 3.50303 12.5361C3.53742 12.5347 3.56912 12.5313 3.60351 12.5307C3.6379 12.53 3.67026 12.5401 3.70398 12.5394C3.73769 12.5387 3.77006 12.5226 3.80378 12.5219C3.83749 12.5213 3.87121 12.5394 3.90425 12.5381C3.93729 12.5367 3.971 12.5347 4.00472 12.5334C4.03844 12.532 4.07148 12.5233 4.10519 12.5226C4.13891 12.5219 4.17262 12.5253 4.20634 12.5246C4.24005 12.524 4.27377 12.5112 4.30681 12.5105C4.33985 12.5098 4.37424 12.5253 4.40796 12.5253C4.44167 12.5253 4.47539 12.5273 4.50843 12.5266C4.54147 12.526 4.57586 12.5085 4.6089 12.5078C4.64194 12.5072 4.67701 12.5139 4.70937 12.5139C4.74444 12.5139 4.77748 12.5219 4.80984 12.5219C4.84491 12.5219 4.87862 12.5065 4.91032 12.5065C4.94606 12.5065 4.97977 12.5193 5.01011 12.5206C5.0445 12.5219 5.07957 12.5132 5.11396 12.5145C5.14835 12.5159 5.18274 12.5132 5.21713 12.5145C5.25152 12.5159 5.28523 12.534 5.31962 12.5354C5.35401 12.5367 5.3884 12.5421 5.42279 12.5434C5.45718 12.5448 5.49225 12.5347 5.52663 12.5361C5.56102 12.5374 5.59541 12.5414 5.6298 12.5421C5.66419 12.5428 5.69858 12.5441 5.73297 12.5448C5.76736 12.5455 5.80175 12.5441 5.83614 12.5448C5.87053 12.5455 5.90492 12.5475 5.93931 12.5481C5.9737 12.5488 6.00809 12.5434 6.04248 12.5441C6.07687 12.5448 6.11126 12.5555 6.14565 12.5569C6.18004 12.5582 6.21443 12.5488 6.24949 12.5495C6.28456 12.5502 6.31827 12.5495 6.35266 12.5502C6.38705 12.5508 6.42144 12.5663 6.45583 12.5663C6.49022 12.5663 6.52461 12.5589 6.559 12.5589C6.59339 12.5589 6.62778 12.5629 6.66217 12.5629C6.69656 12.5629 6.73095 12.5495 6.76534 12.5495C6.79973 12.5495 6.83412 12.5616 6.86851 12.5609C6.90223 12.5609 6.93661 12.5522 6.97033 12.5522C7.00405 12.5522 7.03844 12.5555 7.07215 12.5555C7.10587 12.5555 7.14026 12.5596 7.17397 12.5596C7.20769 12.5596 7.24208 12.5475 7.27579 12.5475C7.30951 12.5475 7.3439 12.5555 7.37761 12.5555C7.41133 12.5555 7.44572 12.5455 7.47943 12.5461C7.51315 12.5468 7.54754 12.5502 7.58125 12.5502C7.61497 12.5502 7.64936 12.5663 7.68307 12.5663C7.71679 12.5663 7.75118 12.5549 7.7849 12.5549C7.81861 12.5549 7.853 12.5549 7.88672 12.5549C7.92043 12.5549 7.95482 12.5508 7.98854 12.5515C8.02225 12.5522 8.05664 12.5535 8.09036 12.5542C8.12407 12.5549 8.15846 12.5582 8.19218 12.5582C8.22589 12.5582 8.26028 12.571 8.294 12.571C8.32771 12.571 8.3621 12.569 8.39582 12.569C8.42886 12.569 8.4619 12.5528 8.49427 12.5528C8.52664 12.5528 8.55968 12.5528 8.59272 12.5528C8.62576 12.5528 8.65813 12.5609 8.69117 12.5609C8.72421 12.5609 8.75657 12.5549 8.78962 12.5549C8.82266 12.5549 8.85502 12.5609 8.88806 12.5609C8.92111 12.5609 8.95415 12.571 8.98651 12.5703C9.01888 12.5696 9.05192 12.5549 9.08496 12.5542C9.118 12.5535 9.15105 12.5656 9.18409 12.5649C9.21915 12.5636 9.25354 12.5569 9.2886 12.5549C9.32367 12.5528 9.35738 12.5401 9.39245 12.5381C9.42751 12.5361 9.46258 12.5394 9.49697 12.5381C9.53135 12.5367 9.56777 12.5522 9.60216 12.5502C9.63655 12.5481 9.67026 12.5233 9.70533 12.5219C9.74039 12.5206 9.77478 12.5186 9.80984 12.5166C9.84491 12.5145 9.87997 12.5219 9.91504 12.5199C9.9501 12.5179 9.98449 12.5172 10.0196 12.5159C10.0546 12.5145 10.089 12.5125 10.1241 12.5112C10.1591 12.5098 10.1942 12.5166 10.2286 12.5152C10.263 12.5139 10.298 12.5132 10.3331 12.5125C10.3668 12.5119 10.4005 12.5119 10.4343 12.5112C10.468 12.5105 10.501 12.4977 10.5347 12.4971C10.5684 12.4964 10.6022 12.5011 10.6359 12.5004C10.6696 12.4998 10.7026 12.4857 10.7363 12.485C10.7701 12.4843 10.8038 12.5058 10.8375 12.5051C10.8712 12.5045 10.9049 12.5038 10.9386 12.5031C10.9724 12.5025 11.0061 12.4984 11.0398 12.4977C11.0735 12.4971 11.1072 12.4944 11.1409 12.4944C11.1746 12.4944 11.2084 12.4877 11.2421 12.4877C11.2758 12.4877 11.3095 12.491 11.3432 12.4904C11.3769 12.4897 11.4107 12.4917 11.4444 12.4917C11.4781 12.4917 11.5118 12.4883 11.5455 12.4877C11.5792 12.487 11.6129 12.4944 11.6467 12.4937C11.6804 12.493 11.7134 12.4762 11.7471 12.4756C11.7808 12.4749 11.8146 12.4762 11.8483 12.4756C11.882 12.4749 11.9157 12.4897 11.9494 12.489C11.9831 12.4883 12.0162 12.4749 12.0499 12.4742C12.0836 12.4736 12.1173 12.4729 12.151 12.4722C12.1848 12.4715 12.2185 12.4816 12.2522 12.4809C12.2859 12.4803 12.3189 12.4675 12.3527 12.4668C12.3877 12.4662 12.4208 12.4789 12.4525 12.4796C12.4875 12.4803 12.5212 12.4682 12.5529 12.4702C12.5866 12.4722 12.6197 12.4722 12.6527 12.4742C12.6858 12.4762 12.7181 12.4742 12.7519 12.4756C12.7842 12.4762 12.8166 12.4924 12.8517 12.491C12.8833 12.4904 12.9164 12.4843 12.9515 12.4816C12.9804 12.4796 13.0128 12.4816 13.0472 12.4809C13.0775 12.4809 13.1106 12.4809 13.1436 12.4809C13.1767 12.4809 13.2077 12.4783 13.2401 12.4762C13.2724 12.4742 13.3028 12.4554 13.3338 12.4507C13.3668 12.4453 13.4019 12.4547 13.4309 12.4447C13.4626 12.4339 13.4929 12.4198 13.5185 12.4017C13.5442 12.3835 13.5529 12.3492 13.5698 12.321C13.5819 12.2995 13.6096 12.274 13.6318 12.237C13.648 12.2101 13.6669 12.1806 13.6858 12.1483C13.7026 12.1201 13.7296 12.0952 13.7478 12.0643C13.7653 12.0354 13.7775 12.0018 13.7943 11.9716C13.8112 11.9414 13.826 11.9098 13.8429 11.8795C13.8597 11.8493 13.886 11.8224 13.9016 11.7929C13.9184 11.7606 13.9258 11.725 13.9393 11.6961C13.9555 11.6618 13.9771 11.6322 13.9879 11.6034C14.004 11.5603 14 11.5227 13.998 11.5005L14 11.4945Z" fill="white"/>
<path d="M13.4415 6.1489C13.4361 6.11799 13.4226 6.08506 13.4179 6.04811C13.4138 6.01585 13.4253 5.98024 13.4212 5.94395C13.4179 5.91102 13.4152 5.87675 13.4118 5.84114C13.4091 5.80754 13.4024 5.77394 13.3997 5.73833C13.397 5.70271 13.3815 5.67113 13.3794 5.63619C13.3774 5.60124 13.3855 5.56697 13.3828 5.53203C13.3801 5.49709 13.3875 5.46282 13.3848 5.42855C13.3821 5.39428 13.366 5.36135 13.3639 5.32641C13.3619 5.29147 13.3579 5.25787 13.3552 5.2236C13.3525 5.18933 13.3424 5.15506 13.3397 5.12079C13.337 5.08651 13.3558 5.04956 13.3525 5.01529C13.3491 4.98102 13.3437 4.94674 13.3397 4.91247C13.3356 4.8782 13.3161 4.84528 13.312 4.81168C13.308 4.77741 13.3154 4.74381 13.312 4.7129C13.3093 4.67796 13.3134 4.64503 13.312 4.61412C13.31 4.5785 13.312 4.54625 13.3113 4.51601C13.31 4.47905 13.3066 4.44613 13.3046 4.4179C13.3026 4.37624 13.2992 4.3413 13.2918 4.31912C13.2817 4.28956 13.2473 4.25125 13.2324 4.24924C13.194 4.24386 13.19 4.24588 13.1482 4.26671C13.1023 4.29023 13.1036 4.27477 13.0497 4.29964C13.0214 4.31308 12.9931 4.33727 12.9607 4.35272C12.9283 4.36818 12.8939 4.37826 12.8649 4.39237C12.8238 4.41186 12.7894 4.42798 12.7719 4.43739C12.7429 4.45352 12.7152 4.47502 12.6842 4.49316C12.6552 4.50996 12.6215 4.52139 12.5912 4.53953C12.5608 4.55767 12.5392 4.58657 12.5096 4.60538C12.4799 4.6242 12.4435 4.6289 12.4132 4.64705C12.3828 4.66519 12.3525 4.68064 12.3228 4.69879C12.2931 4.71693 12.2675 4.74112 12.2378 4.75926C12.2082 4.77741 12.1798 4.7969 12.1502 4.81571C12.1205 4.83453 12.0854 4.84393 12.0564 4.86275C12.0274 4.88156 11.9998 4.90374 11.9701 4.92255C11.9405 4.94137 11.9155 4.96758 11.8865 4.98572C11.8575 5.00386 11.8231 5.01596 11.7941 5.0341C11.7651 5.05224 11.7355 5.0724 11.7065 5.09055C11.6775 5.10869 11.6519 5.13624 11.6235 5.15371C11.5932 5.17253 11.5649 5.19336 11.5366 5.21016C11.5082 5.22696 11.4792 5.24308 11.4516 5.25988C11.4239 5.27668 11.3862 5.2787 11.3579 5.29617C11.3295 5.31364 11.3113 5.3459 11.2837 5.36337C11.256 5.38084 11.2297 5.40167 11.2021 5.41914C11.1744 5.43661 11.1421 5.44736 11.1144 5.46483C11.0868 5.48231 11.0639 5.50717 11.0355 5.52464C11.0072 5.54211 10.9708 5.54614 10.9438 5.56361C10.9169 5.58109 10.896 5.61065 10.8683 5.62812C10.8407 5.64559 10.8043 5.6503 10.7766 5.66777C10.749 5.68524 10.724 5.70742 10.6964 5.72489C10.6687 5.74236 10.6397 5.75781 10.6121 5.77596C10.5844 5.7941 10.5548 5.80888 10.5271 5.82635C10.4995 5.84383 10.4786 5.87205 10.4509 5.89019C10.4233 5.90834 10.3943 5.92379 10.3666 5.94126C10.339 5.95873 10.3113 5.9762 10.283 5.99368C10.2547 6.01115 10.2264 6.02727 10.1987 6.04475C10.1704 6.06222 10.1481 6.09044 10.1198 6.10858C10.0915 6.12673 10.0625 6.1442 10.0342 6.16167C10.0059 6.17914 9.97081 6.1872 9.94249 6.20535C9.91416 6.22349 9.8845 6.23895 9.8555 6.25642C9.8265 6.27389 9.80021 6.29405 9.77121 6.31219C9.74222 6.33033 9.70918 6.33974 9.68085 6.35721C9.65253 6.37468 9.62421 6.3935 9.59589 6.41164C9.56757 6.42978 9.54802 6.46204 9.51969 6.47951C9.49137 6.49698 9.45901 6.50908 9.43069 6.52722C9.40236 6.54536 9.37809 6.56956 9.34977 6.5877C9.32145 6.60584 9.29245 6.62264 9.26413 6.64078C9.23581 6.65893 9.20142 6.66699 9.17242 6.68446C9.14343 6.70193 9.1205 6.72814 9.09218 6.74561C9.06386 6.76308 9.02745 6.76846 8.99913 6.7866C8.97081 6.80474 8.94181 6.82154 8.91349 6.83969C8.88517 6.85783 8.85617 6.8753 8.82785 6.89277C8.79953 6.91024 8.76919 6.9257 8.74087 6.94317C8.71255 6.96064 8.69299 6.99357 8.66467 7.01104C8.63635 7.02851 8.60398 7.04061 8.57566 7.05808C8.54734 7.07555 8.51565 7.08899 8.48733 7.10713C8.45901 7.12528 8.43271 7.14678 8.40439 7.16425C8.37607 7.18172 8.341 7.18978 8.31268 7.20726C8.28436 7.22473 8.25469 7.24085 8.2257 7.259C8.1967 7.27714 8.17647 7.30671 8.14815 7.32485C8.11983 7.34299 8.09286 7.36315 8.06454 7.3813C8.03621 7.39944 7.99913 7.4028 7.97013 7.42094C7.9526 7.43169 7.94181 7.45454 7.92428 7.46731C7.92428 7.46731 7.92226 7.46328 7.92158 7.46328C7.87708 7.49016 7.88045 7.49486 7.83594 7.52174C7.79144 7.54862 7.79346 7.55198 7.74963 7.57886C7.7058 7.60573 7.70041 7.59767 7.6559 7.62455C7.6114 7.65143 7.60803 7.64605 7.56352 7.67293C7.51902 7.69981 7.51565 7.69511 7.47249 7.72333C7.43541 7.74752 7.4408 7.75626 7.40439 7.78179C7.36797 7.80733 7.37269 7.81405 7.33628 7.83958C7.29987 7.86512 7.29717 7.86108 7.26009 7.88662C7.223 7.91215 7.22165 7.91014 7.18524 7.935C7.18524 7.935 7.18254 7.92962 7.18254 7.92895C7.15826 7.94642 7.13669 7.95785 7.11848 7.97129L7.12725 7.98338C7.09488 8.0069 7.06116 8.01631 7.03621 8.0358C7.00857 8.0573 6.97957 8.07611 6.95193 8.09762C6.92428 8.11912 6.89933 8.14331 6.87168 8.16414C6.84404 8.18497 6.82246 8.2132 6.79481 8.2347C6.76717 8.2562 6.73817 8.27502 6.71052 8.29585C6.68288 8.31668 6.65456 8.33684 6.62691 8.35767C6.59926 8.3785 6.57431 8.40269 6.54667 8.4242C6.51902 8.4457 6.4907 8.46519 6.46305 8.48602C6.43541 8.50685 6.40506 8.52432 6.37741 8.54582C6.34977 8.56732 6.3201 8.58547 6.29245 8.6063C6.26481 8.62713 6.24458 8.65804 6.21626 8.6782C6.18861 8.69836 6.15152 8.7071 6.12387 8.72725C6.09623 8.74741 6.06791 8.7669 6.03959 8.78706C6.01127 8.80722 5.99104 8.83813 5.96339 8.85762C5.93574 8.8771 5.90944 8.90062 5.88112 8.92078C5.8528 8.94094 5.82178 8.95707 5.79346 8.97656C5.76514 8.99604 5.7375 9.01687 5.70917 9.03636C5.68085 9.05585 5.64916 9.07063 5.62017 9.09012C5.59117 9.10961 5.56487 9.13178 5.53655 9.15127C5.50823 9.17076 5.48261 9.19427 5.45361 9.21309C5.42597 9.23123 5.39495 9.244 5.3673 9.26147C5.33965 9.27894 5.30661 9.28902 5.27897 9.30717C5.25132 9.32531 5.23244 9.35622 5.20479 9.37436C5.17715 9.39251 5.14006 9.39587 5.11241 9.41334C5.08476 9.43081 5.05982 9.45366 5.03217 9.47113C5.00452 9.4886 4.9816 9.5148 4.95395 9.53228C4.9263 9.54975 4.89394 9.56117 4.86629 9.57864C4.83864 9.59611 4.80695 9.60754 4.77863 9.62568C4.75031 9.64382 4.73412 9.67742 4.7058 9.69556C4.67748 9.71371 4.64984 9.72984 4.62219 9.74798C4.59454 9.76612 4.55948 9.77217 4.53183 9.79031C4.50419 9.80846 4.48328 9.83668 4.45631 9.85482C4.42934 9.87297 4.39225 9.87834 4.36528 9.89648C4.33831 9.91463 4.3147 9.93949 4.28773 9.95831C4.26076 9.97712 4.23986 10.0047 4.21221 10.0235C4.18389 10.043 4.15354 10.0598 4.1259 10.0793C4.09825 10.0987 4.06926 10.1182 4.04161 10.1384C4.01396 10.1586 3.98766 10.1807 3.95934 10.2002C3.93102 10.2197 3.89461 10.2278 3.86696 10.2473C3.83932 10.2667 3.82246 10.303 3.79481 10.3232C3.76717 10.3433 3.73817 10.3615 3.70985 10.3816C3.68153 10.4018 3.64714 10.4119 3.61949 10.432C3.59185 10.4522 3.57094 10.4824 3.5433 10.5026C3.51565 10.5228 3.47519 10.5254 3.44687 10.5449C3.41855 10.5644 3.3909 10.5846 3.36325 10.6047C3.33561 10.6249 3.31538 10.6558 3.28773 10.676C3.26009 10.6961 3.22435 10.7055 3.1967 10.7257C3.16905 10.7459 3.14343 10.7694 3.11578 10.7895C3.08814 10.8097 3.06319 10.8339 3.03554 10.854C3.00789 10.8742 2.97755 10.8903 2.94923 10.9105C2.92091 10.9306 2.89326 10.9501 2.86561 10.9703C2.83797 10.9905 2.81167 11.0126 2.78402 11.0328C2.75638 11.0529 2.73547 11.0832 2.70783 11.1033C2.68018 11.1235 2.64714 11.1369 2.61949 11.1571C2.59185 11.1773 2.55813 11.1887 2.52981 11.2088C2.50149 11.229 2.47317 11.2478 2.44552 11.268C2.41787 11.2881 2.39697 11.3177 2.36865 11.3372C2.34033 11.3567 2.30729 11.3694 2.27964 11.3896C2.26683 11.399 2.25334 11.4219 2.23783 11.4286C2.2257 11.4333 2.19063 11.4393 2.15961 11.4534C2.12455 11.4696 2.09758 11.4891 2.09758 11.4958L2.08072 11.4951L2.08409 11.4964C2.08409 11.5032 2.09421 11.5079 2.0969 11.5126C2.09893 11.5166 2.09893 11.5253 2.10297 11.5287C2.11915 11.5583 2.14815 11.5717 2.18524 11.5798C2.21558 11.5865 2.25064 11.5993 2.28706 11.5979C2.32145 11.5966 2.35584 11.5784 2.38888 11.5744C2.42731 11.5697 2.4644 11.5831 2.4934 11.5811C2.52913 11.5784 2.56487 11.5737 2.60061 11.5704C2.63635 11.567 2.67141 11.5563 2.70715 11.5536C2.74289 11.5509 2.77863 11.5522 2.81504 11.5495C2.85145 11.5468 2.88584 11.5327 2.92158 11.5307C2.95732 11.5287 2.99373 11.5428 3.03015 11.5408C3.06656 11.5388 3.10162 11.5408 3.13736 11.5401C3.16973 11.5401 3.20142 11.522 3.23379 11.522C3.26615 11.522 3.29785 11.5294 3.33021 11.53C3.36258 11.5307 3.39427 11.5401 3.42664 11.5408C3.45901 11.5415 3.49137 11.5274 3.52374 11.528C3.55611 11.5287 3.5878 11.5415 3.62017 11.5428C3.65253 11.5442 3.6849 11.5347 3.71727 11.5354C3.74963 11.5361 3.78133 11.5327 3.81369 11.5321C3.84741 11.5321 3.88112 11.5482 3.91484 11.5482C3.94855 11.5482 3.98227 11.5515 4.01599 11.5515C4.0497 11.5515 4.08342 11.5401 4.11713 11.5395C4.15085 11.5388 4.18456 11.5415 4.21828 11.5415C4.25199 11.5415 4.28571 11.5401 4.31942 11.5401C4.35314 11.5401 4.38686 11.5368 4.42057 11.5361C4.45429 11.5354 4.488 11.5361 4.52172 11.5354C4.55543 11.5347 4.58915 11.528 4.62286 11.5274C4.65658 11.5267 4.69029 11.5361 4.72401 11.5361C4.75773 11.5361 4.79144 11.526 4.82516 11.5253C4.85887 11.5247 4.89259 11.5233 4.9263 11.5233C4.96002 11.5233 4.99373 11.5368 5.02745 11.5368C5.06116 11.5368 5.09488 11.528 5.12859 11.5274C5.16231 11.5267 5.19603 11.53 5.22974 11.5294C5.26346 11.5287 5.29717 11.5159 5.33089 11.5153C5.3646 11.5146 5.39832 11.5267 5.43203 11.526C5.46575 11.5253 5.49946 11.518 5.53318 11.5173C5.5669 11.5173 5.60061 11.5206 5.63433 11.52C5.66804 11.5193 5.70176 11.5233 5.73547 11.5227C5.76919 11.522 5.8029 11.5099 5.83662 11.5092C5.87033 11.5085 5.90405 11.5153 5.93777 11.5146C5.97148 11.5139 6.0052 11.5032 6.03891 11.5025C6.07263 11.5018 6.10634 11.5045 6.14006 11.5038C6.17377 11.5032 6.20816 11.518 6.24188 11.5166C6.27559 11.5153 6.30931 11.5038 6.34303 11.5032C6.37674 11.5025 6.41046 11.5012 6.44417 11.5005C6.47789 11.4998 6.5116 11.4951 6.54532 11.4951C6.57903 11.4951 6.61275 11.4958 6.64646 11.4951C6.68018 11.4944 6.71389 11.4978 6.74761 11.4978C6.782 11.4978 6.81639 11.5099 6.85145 11.5092C6.88652 11.5085 6.92023 11.5065 6.9553 11.5065C6.99036 11.5065 7.02408 11.4904 7.05914 11.4904C7.09421 11.4904 7.12792 11.4904 7.16298 11.4904C7.19805 11.4904 7.23176 11.4985 7.26683 11.4985C7.30189 11.4985 7.33561 11.4924 7.37067 11.4924C7.40574 11.4924 7.43945 11.4991 7.47452 11.4991C7.50958 11.4991 7.54329 11.5099 7.57836 11.5099C7.61342 11.5099 7.64781 11.4958 7.6822 11.4964C7.71659 11.4971 7.75098 11.5099 7.78537 11.5099C7.81976 11.5099 7.85415 11.5045 7.88922 11.5052C7.92428 11.5059 7.95867 11.4938 7.99306 11.4938C8.02745 11.4938 8.06184 11.4991 8.0969 11.4991C8.13197 11.4991 8.16568 11.5173 8.20007 11.5173C8.23446 11.5173 8.26818 11.4951 8.30257 11.4958C8.33696 11.4964 8.37067 11.4971 8.40506 11.4971C8.43945 11.4971 8.47317 11.5065 8.50756 11.5065C8.54195 11.5065 8.57566 11.5079 8.61005 11.5085C8.64444 11.5092 8.67816 11.5085 8.71255 11.5085C8.74694 11.5085 8.78065 11.5166 8.81504 11.5173C8.84943 11.518 8.88315 11.5179 8.91754 11.5179C8.95193 11.5179 8.98564 11.5186 9.02003 11.5186C9.05172 11.5186 9.08476 11.5072 9.11983 11.5072C9.1522 11.5072 9.18524 11.5126 9.21963 11.5119C9.25199 11.5119 9.28503 11.4985 9.31942 11.4978C9.35381 11.4971 9.38551 11.5186 9.4199 11.5186C9.45429 11.5186 9.48598 11.5173 9.51969 11.5173C9.55341 11.5173 9.58578 11.5132 9.61949 11.5126C9.65321 11.5119 9.68557 11.5099 9.71929 11.5092C9.753 11.5085 9.78537 11.5032 9.81909 11.5025C9.8528 11.5018 9.88584 11.5059 9.91956 11.5059C9.95327 11.5059 9.98564 11.5079 10.0194 11.5072C10.0531 11.5065 10.0861 11.5038 10.1192 11.5038C10.1522 11.5038 10.1859 11.5106 10.2196 11.5106C10.2533 11.5106 10.2864 11.4938 10.3201 11.4938C10.3538 11.4938 10.3869 11.4958 10.4206 11.4958C10.4543 11.4958 10.488 11.5106 10.521 11.5106C10.5541 11.5106 10.5885 11.4978 10.6215 11.4978C10.6546 11.4978 10.6889 11.4978 10.722 11.4978C10.755 11.4978 10.7887 11.5085 10.8218 11.5092C10.8548 11.5099 10.8892 11.4985 10.9223 11.4991C10.9553 11.4998 10.9897 11.5126 11.0221 11.5139C11.0544 11.5153 11.0902 11.5025 11.1225 11.5032C11.1569 11.5045 11.1906 11.5032 11.223 11.5052C11.2574 11.5065 11.2911 11.5052 11.3235 11.5072C11.3585 11.5092 11.3909 11.5267 11.4226 11.5287C11.4577 11.5287 11.4907 11.5247 11.5237 11.524C11.5568 11.5233 11.5905 11.5247 11.6242 11.524C11.6579 11.5233 11.6896 11.522 11.7247 11.5206C11.7564 11.5193 11.7894 11.5173 11.8245 11.5159C11.8562 11.5146 11.8885 11.4985 11.9243 11.4978C11.956 11.4971 11.989 11.5132 12.0248 11.5132C12.0564 11.5132 12.0895 11.5132 12.1252 11.5139C12.1569 11.5139 12.1906 11.4971 12.2257 11.4978C12.2574 11.4978 12.2911 11.5092 12.3262 11.5106C12.3579 11.5112 12.3916 11.5132 12.4266 11.5146C12.459 11.5159 12.492 11.5274 12.5264 11.5294C12.5588 11.5307 12.5925 11.5267 12.6276 11.5287C12.66 11.5307 12.6937 11.5294 12.7281 11.5314C12.749 11.5307 12.784 11.5395 12.8272 11.5368C12.8562 11.5354 12.8892 11.524 12.925 11.522C12.956 11.52 12.9897 11.526 13.0241 11.524C13.0558 11.522 13.0888 11.5146 13.1219 11.5126C13.1549 11.5106 13.1866 11.4944 13.2196 11.4924C13.2527 11.4904 13.2864 11.4931 13.3188 11.4911C13.3531 11.4891 13.3869 11.5005 13.4179 11.4991C13.4536 11.4971 13.486 11.4763 13.515 11.4743C13.5575 11.4716 13.5918 11.4783 13.6141 11.477C13.6674 11.479 13.6633 11.4817 13.7213 11.4803C13.7571 11.4803 13.7962 11.4823 13.8292 11.4763C13.8778 11.4669 13.9162 11.4454 13.9061 11.4118C13.902 11.3997 13.8912 11.3654 13.8858 11.3123C13.8831 11.2834 13.873 11.2498 13.8697 11.2109C13.867 11.1793 13.8751 11.1443 13.8724 11.108C13.8697 11.0758 13.873 11.0409 13.8703 11.0052C13.8676 10.9723 13.8663 10.938 13.8643 10.9031C13.8622 10.8682 13.8575 10.8359 13.8548 10.801C13.8521 10.766 13.8373 10.7338 13.8353 10.6995C13.8332 10.6652 13.8407 10.6303 13.8386 10.596C13.8366 10.5617 13.8386 10.5268 13.8366 10.4932C13.8346 10.4596 13.8218 10.4247 13.8198 10.3911C13.8177 10.3575 13.8049 10.3225 13.8029 10.2896C13.8009 10.254 13.8049 10.219 13.8029 10.1868C13.8009 10.1505 13.8043 10.1155 13.8022 10.084C13.8002 10.045 13.7962 10.0107 13.7948 9.98182C13.7908 9.91732 13.7921 9.93075 13.7881 9.87969C13.784 9.82862 13.7928 9.83937 13.786 9.77553C13.7833 9.74596 13.7685 9.71169 13.7651 9.67339C13.7618 9.64114 13.7557 9.60686 13.7523 9.57058C13.749 9.53698 13.7624 9.50069 13.7591 9.46575C13.7557 9.43081 13.7321 9.39855 13.7287 9.36428C13.7254 9.33001 13.7395 9.29305 13.7361 9.25878C13.7328 9.22451 13.7112 9.19024 13.7078 9.15664C13.7045 9.12036 13.7213 9.0834 13.7186 9.05114C13.7152 9.01217 13.7031 8.9779 13.7004 8.94833C13.695 8.88853 13.7004 8.85023 13.7004 8.84485C13.7004 8.84082 13.6903 8.80453 13.6849 8.7454C13.6822 8.71717 13.6701 8.68492 13.6667 8.64729C13.664 8.61705 13.6606 8.58345 13.6573 8.54784C13.6546 8.51626 13.6573 8.48266 13.6546 8.44771C13.6519 8.41546 13.6498 8.38253 13.6471 8.34826C13.6444 8.31601 13.6337 8.28308 13.631 8.24948C13.6283 8.21588 13.6262 8.18363 13.6229 8.15003C13.6195 8.11643 13.6208 8.08351 13.6181 8.05058C13.6154 8.01765 13.6154 7.98405 13.6121 7.95046C13.6087 7.91686 13.6074 7.88326 13.604 7.85033C13.6006 7.81741 13.606 7.78246 13.6033 7.75021C13.6006 7.71795 13.5831 7.68436 13.5804 7.6521C13.577 7.61783 13.5804 7.58423 13.5784 7.55198C13.575 7.51703 13.575 7.48344 13.5723 7.45185C13.5689 7.41624 13.5649 7.38331 13.5622 7.3524C13.5588 7.31477 13.5487 7.28184 13.546 7.25362C13.5413 7.19986 13.5379 7.16425 13.5379 7.15417C13.5379 7.13468 13.5406 7.09907 13.5366 7.05337C13.5339 7.02381 13.5325 6.98954 13.5291 6.95258C13.5264 6.921 13.5103 6.88874 13.5069 6.85313C13.5042 6.82087 13.5035 6.7866 13.5001 6.75233C13.4968 6.71806 13.5028 6.68446 13.4995 6.65086C13.4961 6.61726 13.4941 6.58299 13.4907 6.5494C13.4873 6.5158 13.4759 6.4822 13.4725 6.44927C13.4691 6.41366 13.459 6.38073 13.4556 6.34915C13.4516 6.31152 13.4496 6.27792 13.4462 6.24835C13.4408 6.1993 13.4462 6.16234 13.4442 6.14689L13.4415 6.1489Z" fill="#FFD100"/>
<path d="M8.21754 7.6253C8.18855 7.61992 8.15821 7.6132 8.12651 7.60581C8.09482 7.59842 8.06583 7.59237 8.03548 7.58498C8.00581 7.57759 7.97547 7.56952 7.9458 7.5628C7.91613 7.55608 7.88444 7.54936 7.85544 7.54332C7.84802 7.54197 7.84263 7.5413 7.83791 7.54063C7.83791 7.54063 7.83656 7.53996 7.83589 7.53996C7.83589 7.5366 7.83656 7.53256 7.83723 7.52719C7.83723 7.52114 7.83791 7.52114 7.83858 7.51778C7.84061 7.50636 7.83993 7.50636 7.84263 7.49426C7.84937 7.46066 7.85611 7.42706 7.86218 7.39279C7.86825 7.35852 7.87567 7.3256 7.88241 7.29133C7.88241 7.28797 7.88241 7.28797 7.88241 7.28461C7.88578 7.26781 7.89118 7.24496 7.87297 7.22413C7.87028 7.22077 7.86556 7.21875 7.86151 7.21808C7.85072 7.21808 7.84195 7.21674 7.83454 7.21607C7.80959 7.21338 7.78531 7.21069 7.77655 7.25101C7.77115 7.2752 7.76643 7.30208 7.76036 7.32963C7.75362 7.35852 7.7462 7.38809 7.74013 7.41698C7.73339 7.4479 7.728 7.47746 7.72328 7.50501C7.72193 7.5124 7.72058 7.51912 7.7199 7.52383L7.72058 7.52584C7.72058 7.52584 7.71923 7.52584 7.71856 7.52584C7.71384 7.5245 7.70844 7.52114 7.70102 7.51912C7.69496 7.51778 7.69428 7.51912 7.68821 7.51711C7.66259 7.51039 7.6309 7.50098 7.59651 7.49292C7.56549 7.48553 7.53312 7.47746 7.50413 7.47074C7.46434 7.46133 7.42995 7.45529 7.41107 7.4526C7.405 7.45193 7.39961 7.45394 7.39624 7.45865C7.38477 7.4741 7.3814 7.4862 7.3787 7.49695C7.37736 7.50165 7.37601 7.50569 7.37398 7.51039C7.37196 7.51442 7.37196 7.51912 7.37398 7.52316C7.37601 7.52719 7.3787 7.53055 7.38342 7.53256C7.38612 7.53324 7.38814 7.53727 7.39084 7.53996C7.39489 7.54399 7.39961 7.54802 7.40635 7.55003C7.45018 7.56146 7.45018 7.56011 7.49401 7.57154C7.53784 7.58296 7.53717 7.58363 7.581 7.59439C7.61606 7.60334 7.65135 7.61253 7.68686 7.62194C7.69293 7.62328 7.70035 7.6253 7.70102 7.62395C7.7017 7.62731 7.70035 7.64008 7.699 7.6468C7.69563 7.67301 7.69226 7.69921 7.68889 7.72542C7.68484 7.75364 7.68079 7.78187 7.67675 7.81076C7.6727 7.83965 7.66933 7.86788 7.66596 7.8961C7.66259 7.92432 7.66259 7.95255 7.66191 7.98278C7.66191 7.9969 7.66124 8.01101 7.66057 8.02512C7.66057 8.02982 7.66259 8.03453 7.66596 8.03789C7.66933 8.04125 7.67405 8.04326 7.67945 8.04259C7.71721 8.03856 7.71721 8.03923 7.75564 8.0352C7.75834 8.0352 7.76036 8.03251 7.76239 8.03184C7.76643 8.02915 7.77048 8.02512 7.77115 8.01974C7.7716 8.01437 7.77205 8.00899 7.7725 8.00362C7.77385 7.99219 7.77452 7.98211 7.77587 7.97136C7.77992 7.93104 7.77924 7.93104 7.78396 7.89072C7.78801 7.85242 7.79206 7.81479 7.7961 7.77649C7.80015 7.73819 7.80622 7.70056 7.81094 7.66293C7.81296 7.64814 7.81431 7.64546 7.81431 7.64478C7.81498 7.64478 7.8197 7.64411 7.83454 7.6468C7.83993 7.64747 7.84533 7.64882 7.85072 7.65016C7.85544 7.6515 7.85949 7.65217 7.86421 7.65285C7.90871 7.66158 7.90871 7.66158 7.95389 7.67032C7.98356 7.67637 8.0139 7.68107 8.04357 7.68712C8.07324 7.69316 8.10291 7.70056 8.13258 7.7066C8.16158 7.71265 8.16697 7.71198 8.19125 7.71467C8.20001 7.71534 8.19934 7.71668 8.2081 7.71736C8.2162 7.71803 8.22361 7.71265 8.22631 7.70526C8.22631 7.70324 8.22766 7.70056 8.22901 7.69787C8.23777 7.67368 8.24452 7.6515 8.23643 7.63739C8.23305 7.63134 8.22699 7.62664 8.22024 7.6253H8.21754Z" fill="black"/>
<path d="M8.21754 7.6253C8.18855 7.61992 8.15821 7.6132 8.12651 7.60581C8.09482 7.59842 8.06583 7.59237 8.03548 7.58498C8.00581 7.57759 7.97547 7.56952 7.9458 7.5628C7.91613 7.55608 7.88444 7.54936 7.85544 7.54332C7.84802 7.54197 7.84263 7.5413 7.83791 7.54063C7.83791 7.54063 7.83656 7.53996 7.83589 7.53996C7.83589 7.5366 7.83656 7.53256 7.83723 7.52719C7.83723 7.52114 7.83791 7.52114 7.83858 7.51778C7.84061 7.50636 7.83993 7.50636 7.84263 7.49426C7.84937 7.46066 7.85611 7.42706 7.86218 7.39279C7.86825 7.35852 7.87567 7.3256 7.88241 7.29133C7.88241 7.28797 7.88241 7.28797 7.88241 7.28461C7.88578 7.26781 7.89118 7.24496 7.87297 7.22413C7.87028 7.22077 7.86556 7.21875 7.86151 7.21808C7.85072 7.21808 7.84195 7.21674 7.83454 7.21607C7.80959 7.21338 7.78531 7.21069 7.77655 7.25101C7.77115 7.2752 7.76643 7.30208 7.76036 7.32963C7.75362 7.35852 7.7462 7.38809 7.74013 7.41698C7.73339 7.4479 7.728 7.47746 7.72328 7.50501C7.72193 7.5124 7.72058 7.51912 7.7199 7.52383L7.72058 7.52584C7.72058 7.52584 7.71923 7.52584 7.71856 7.52584C7.71384 7.5245 7.70844 7.52114 7.70102 7.51912C7.69496 7.51778 7.69428 7.51912 7.68821 7.51711C7.66259 7.51039 7.6309 7.50098 7.59651 7.49292C7.56549 7.48553 7.53312 7.47746 7.50413 7.47074C7.46434 7.46133 7.42995 7.45529 7.41107 7.4526C7.405 7.45193 7.39961 7.45394 7.39624 7.45865C7.38477 7.4741 7.3814 7.4862 7.3787 7.49695C7.37736 7.50165 7.37601 7.50569 7.37398 7.51039C7.37196 7.51442 7.37196 7.51912 7.37398 7.52316C7.37601 7.52719 7.3787 7.53055 7.38342 7.53256C7.38612 7.53324 7.38814 7.53727 7.39084 7.53996C7.39489 7.54399 7.39961 7.54802 7.40635 7.55003C7.45018 7.56146 7.45018 7.56011 7.49401 7.57154C7.53784 7.58296 7.53717 7.58363 7.581 7.59439C7.61606 7.60334 7.65135 7.61253 7.68686 7.62194C7.69293 7.62328 7.70035 7.6253 7.70102 7.62395C7.7017 7.62731 7.70035 7.64008 7.699 7.6468C7.69563 7.67301 7.69226 7.69921 7.68889 7.72542C7.68484 7.75364 7.68079 7.78187 7.67675 7.81076C7.6727 7.83965 7.66933 7.86788 7.66596 7.8961C7.66259 7.92432 7.66259 7.95255 7.66191 7.98278C7.66191 7.9969 7.66124 8.01101 7.66057 8.02512C7.66057 8.02982 7.66259 8.03453 7.66596 8.03789C7.66933 8.04125 7.67405 8.04326 7.67945 8.04259C7.71721 8.03856 7.71721 8.03923 7.75564 8.0352C7.75834 8.0352 7.76036 8.03251 7.76239 8.03184C7.76643 8.02915 7.77048 8.02512 7.77115 8.01974C7.7716 8.01437 7.77205 8.00899 7.7725 8.00362C7.77385 7.99219 7.77452 7.98211 7.77587 7.97136C7.77992 7.93104 7.77924 7.93104 7.78396 7.89072C7.78801 7.85242 7.79206 7.81479 7.7961 7.77649C7.80015 7.73819 7.80622 7.70056 7.81094 7.66293C7.81296 7.64814 7.81431 7.64546 7.81431 7.64478C7.81498 7.64478 7.8197 7.64411 7.83454 7.6468C7.83993 7.64747 7.84533 7.64882 7.85072 7.65016C7.85544 7.6515 7.85949 7.65217 7.86421 7.65285C7.90871 7.66158 7.90871 7.66158 7.95389 7.67032C7.98356 7.67637 8.0139 7.68107 8.04357 7.68712C8.07324 7.69316 8.10291 7.70056 8.13258 7.7066C8.16158 7.71265 8.16697 7.71198 8.19125 7.71467C8.20001 7.71534 8.19934 7.71668 8.2081 7.71736C8.2162 7.71803 8.22361 7.71265 8.22631 7.70526C8.22631 7.70324 8.22766 7.70056 8.22901 7.69787C8.23777 7.67368 8.24452 7.6515 8.23643 7.63739C8.23305 7.63134 8.22699 7.62664 8.22024 7.6253H8.21754Z" stroke="white" stroke-width="0.934096" stroke-miterlimit="10"/>
<path d="M7.11039 10.2036C7.10297 10.221 7.09488 10.2385 7.08949 10.2573C7.05982 10.3588 7.01396 10.4515 6.94856 10.5349C6.86224 10.6451 6.74896 10.6874 6.61275 10.674C6.44619 10.6572 6.30864 10.5819 6.19468 10.4623C6.08611 10.3487 5.99441 10.2231 5.94856 10.0699C5.94046 10.0423 5.94046 10.0121 5.93102 9.98518C5.91551 9.94083 5.91417 9.89648 5.91147 9.85012C5.90607 9.74327 5.93507 9.64718 5.98699 9.55579C6.0261 9.48658 6.07533 9.4261 6.13601 9.37369C6.1994 9.31792 6.27155 9.28029 6.35381 9.26349C6.39427 9.25542 6.43541 9.24937 6.47586 9.24534C6.57297 9.23526 6.65928 9.26819 6.73817 9.31993C6.7793 9.34681 6.81774 9.37907 6.85415 9.41266C6.89866 9.45365 6.89394 9.47986 6.84134 9.51346C6.82381 9.52421 6.80695 9.53765 6.7874 9.54303C6.74019 9.55579 6.69569 9.55042 6.6586 9.51346C6.63298 9.48792 6.60466 9.46575 6.57971 9.43954C6.51025 9.36831 6.42597 9.371 6.34572 9.40662C6.21019 9.46777 6.11174 9.56856 6.06993 9.71505C6.04363 9.80778 6.05577 9.90119 6.07937 9.99392C6.11106 10.1182 6.17445 10.2231 6.25671 10.3205C6.29178 10.3615 6.32819 10.3984 6.37067 10.4314C6.45226 10.4939 6.54464 10.5281 6.64646 10.5362C6.72873 10.5429 6.79616 10.5066 6.84067 10.4408C6.91417 10.3312 6.96204 10.2096 6.96406 10.0752C6.96406 10.0403 6.958 10.004 6.94788 9.96973C6.93642 9.93344 6.92293 9.93075 6.88989 9.94822C6.84404 9.97174 6.79818 9.99459 6.75368 10.0208C6.72064 10.0403 6.68557 10.0423 6.64916 10.0396C6.62691 10.0383 6.6114 10.0268 6.60196 10.006C6.58915 9.97712 6.58982 9.96906 6.61747 9.95024C6.7058 9.89111 6.79346 9.83063 6.8845 9.77553C6.92833 9.74932 6.97822 9.73387 7.0261 9.71505C7.047 9.70699 7.06454 9.709 7.0787 9.73185C7.14478 9.84205 7.21221 9.95158 7.27829 10.0618C7.30729 10.1102 7.33696 10.1586 7.36528 10.2069C7.38011 10.2318 7.37742 10.2486 7.35381 10.2641C7.33426 10.2775 7.31268 10.2903 7.29043 10.299C7.22839 10.3225 7.20816 10.3151 7.16973 10.26C7.15624 10.2405 7.14208 10.2217 7.1286 10.2029C7.1232 10.2029 7.11781 10.2029 7.11241 10.2029L7.11039 10.2036Z" fill="black"/>
<path d="M8.05437 8.9517C8.11169 9.03301 8.15754 9.13246 8.17912 9.24132C8.20677 9.37638 8.19261 9.51078 8.15619 9.64316C8.15485 9.64786 8.15282 9.65323 8.1508 9.65727C8.04831 9.83534 7.91614 9.97108 7.69227 9.97511C7.65451 9.97578 7.61607 9.98048 7.57966 9.97376C7.54662 9.96772 7.51493 9.95226 7.48526 9.93613C7.39355 9.88708 7.31196 9.82526 7.24251 9.74798C7.11371 9.60552 7.01257 9.44896 6.99234 9.25207C6.98762 9.20436 6.9802 9.15665 6.97683 9.10894C6.97346 9.04779 6.98492 8.98933 7.01392 8.93557C7.05842 8.85292 7.11708 8.78438 7.20002 8.73398C7.28634 8.68224 7.37467 8.63923 7.47514 8.62243C7.62012 8.59824 7.75161 8.62378 7.86624 8.72054C7.94042 8.7837 7.99706 8.86098 8.05505 8.9517H8.05437ZM7.86287 9.02965C7.82309 8.96379 7.76442 8.89189 7.6916 8.83343C7.53246 8.70508 7.29578 8.7622 7.20812 8.94699C7.16833 9.03099 7.17642 9.11767 7.18991 9.20369C7.20879 9.32061 7.26206 9.42476 7.32005 9.52623C7.36995 9.61359 7.43334 9.68885 7.5129 9.75134C7.62821 9.84273 7.80083 9.88506 7.93367 9.77285C7.9539 9.75537 7.97481 9.73454 7.98492 9.71102C8.05572 9.55042 8.04291 9.38982 7.97413 9.23325C7.94514 9.1674 7.90535 9.10692 7.86354 9.02965H7.86287Z" fill="black"/>
<path d="M8.34574 8.89198C8.39834 8.97665 8.46577 9.0593 8.55343 9.1265C8.65525 9.20378 8.75774 9.19168 8.85754 9.13591C8.97689 9.06938 9.02814 8.95716 9.03353 8.82411C9.03556 8.77573 9.03016 8.72937 9.01533 8.68233C8.97824 8.56608 9.00993 8.53651 9.11985 8.51434C9.22099 8.49418 9.20413 8.48746 9.24122 8.58892C9.26347 8.65007 9.25943 8.71391 9.24999 8.77708C9.23448 8.88594 9.19132 8.98471 9.13198 9.0761C9.11445 9.10231 9.08681 9.12247 9.0632 9.14464C9.03758 9.16749 9.00993 9.18832 8.98566 9.21184C8.92497 9.2703 8.85282 9.30256 8.76988 9.31129C8.68492 9.32003 8.6013 9.30928 8.51904 9.29181C8.49274 9.28643 8.46644 9.27501 8.44351 9.26022C8.37136 9.21319 8.30258 9.1601 8.25268 9.08954C8.163 8.96321 8.08613 8.82882 8.05309 8.67561C8.03623 8.59766 8.02679 8.51635 8.02477 8.43639C8.02207 8.30938 8.08815 8.21262 8.17581 8.12661C8.27359 8.03052 8.39631 7.98751 8.5278 7.97273C8.66132 7.95794 8.77325 8.00901 8.86091 8.11048C8.87237 8.12325 8.88384 8.13602 8.8953 8.14878C8.91553 8.17163 8.91755 8.19179 8.898 8.21195C8.84136 8.26974 8.76786 8.28519 8.70312 8.22136C8.70043 8.21867 8.6984 8.21665 8.69638 8.21396C8.5777 8.08965 8.45161 8.10443 8.32551 8.18843C8.29719 8.20724 8.27157 8.23144 8.24864 8.2563C8.19941 8.30871 8.17716 8.37188 8.18323 8.44445C8.19402 8.57481 8.23178 8.69577 8.29921 8.80799C8.31405 8.83285 8.32753 8.85906 8.34641 8.89198H8.34574Z" fill="black"/>
<path d="M9.98012 7.65208C9.96596 7.62319 9.93629 7.56876 9.91201 7.51231C9.87155 7.41891 9.85739 7.32214 9.88302 7.22135C9.89718 7.16692 9.90662 7.11182 9.93494 7.06075C9.98079 6.97675 10.0509 6.92366 10.1339 6.882C10.206 6.84572 10.2829 6.83093 10.3625 6.82488C10.4204 6.82085 10.4764 6.83026 10.529 6.85243C10.7037 6.92568 10.8324 7.04865 10.9154 7.21866C10.9531 7.29594 10.9875 7.37388 10.9983 7.4599C11.0172 7.60639 10.9788 7.73876 10.8985 7.85972C10.8635 7.91213 10.8297 7.96656 10.7745 8.00218C10.7569 8.0136 10.7401 8.02704 10.7212 8.03309C10.5755 8.07945 10.4353 8.09088 10.2964 8.00083C10.1521 7.90676 10.0563 7.78379 9.97944 7.65208H9.98012ZM10.6969 7.21328C10.6335 7.10174 10.5371 7.0211 10.4569 6.98616C10.3995 6.96062 10.3395 6.93912 10.2768 6.95793C10.1932 6.98347 10.1278 7.03387 10.09 7.11585C10.0341 7.23949 10.0462 7.36313 10.0867 7.48678C10.1197 7.58757 10.1777 7.67493 10.2458 7.75489C10.2667 7.77908 10.291 7.80193 10.3166 7.82075C10.3409 7.83889 10.3719 7.84964 10.3955 7.86846C10.4724 7.92826 10.558 7.93901 10.6497 7.91885C10.709 7.90609 10.7987 7.8483 10.8034 7.77102C10.8122 7.62923 10.8277 7.4861 10.7643 7.35104C10.7428 7.30467 10.7192 7.25898 10.6969 7.21261V7.21328Z" fill="black"/>
<path d="M9.24665 8.22588C9.28374 8.27292 9.32015 8.32063 9.35791 8.367C9.40376 8.42277 9.46445 8.45906 9.52986 8.48594C9.60066 8.51483 9.67214 8.50475 9.74159 8.47989C9.78475 8.46376 9.8097 8.42748 9.82184 8.38514C9.85285 8.27763 9.86162 8.17011 9.81981 8.0626C9.80633 8.02698 9.81644 8.00817 9.85151 7.99405C9.86297 7.99002 9.87443 7.98733 9.88657 7.98465C9.96209 7.96718 9.96479 7.96718 9.99244 8.03908C10.0106 8.08544 10.0309 8.13114 10.0403 8.17952C10.0572 8.26217 10.0282 8.33945 9.99783 8.41404C9.95198 8.52424 9.86836 8.59748 9.75778 8.64116C9.74969 8.64452 9.74159 8.64855 9.7335 8.64923C9.62292 8.65931 9.51435 8.65863 9.41321 8.5995C9.30329 8.53499 9.21428 8.45099 9.14146 8.3455C9.02008 8.16877 8.98434 7.97188 8.98434 7.76491C8.98434 7.69772 9.0039 7.63253 9.03627 7.57273C9.0484 7.55055 9.06459 7.52838 9.08482 7.51359C9.16573 7.45379 9.25407 7.4081 9.35521 7.39398C9.48198 7.37584 9.58853 7.41885 9.67821 7.50688C9.69372 7.52233 9.70923 7.53913 9.72136 7.55795C9.73687 7.58079 9.73148 7.59894 9.70855 7.61439C9.64652 7.6574 9.57234 7.6453 9.52649 7.58617C9.52244 7.58079 9.51907 7.57474 9.51435 7.56937C9.48131 7.53107 9.44355 7.50956 9.38826 7.51628C9.30599 7.52636 9.23586 7.56131 9.1745 7.61103C9.15157 7.62985 9.13539 7.66344 9.1273 7.69368C9.10235 7.78507 9.11381 7.8778 9.13674 7.96785C9.15966 8.05991 9.19271 8.14794 9.24598 8.22857L9.24665 8.22588Z" fill="black"/>
<path d="M8.21776 7.62591C8.16179 7.61448 8.09773 7.59903 8.0357 7.58357C7.97501 7.56879 7.91163 7.55333 7.85566 7.54191C7.84824 7.54057 7.84285 7.53989 7.83813 7.53922C7.83813 7.53922 7.83745 7.53922 7.83678 7.53922C7.83678 7.53586 7.83678 7.53183 7.83678 7.52645C7.83678 7.52041 7.83678 7.51973 7.83745 7.51638L7.84217 7.49353C7.85498 7.42566 7.8678 7.35846 7.88128 7.29059L7.88263 7.28455C7.886 7.26775 7.8914 7.2449 7.87319 7.22407C7.87049 7.22071 7.86577 7.21869 7.86173 7.21869C7.85094 7.21869 7.84217 7.21735 7.83475 7.21668C7.8098 7.21399 7.78553 7.2113 7.77744 7.25162C7.77204 7.27581 7.76665 7.30269 7.75991 7.32957C7.74642 7.38937 7.73293 7.45187 7.72349 7.50562C7.72214 7.51302 7.72147 7.51974 7.7208 7.52444C7.7208 7.52444 7.7208 7.52511 7.7208 7.52578C7.7208 7.52578 7.72012 7.52578 7.71945 7.52578C7.71473 7.52444 7.70866 7.52242 7.70124 7.52108L7.68843 7.51772C7.60819 7.49756 7.45916 7.45993 7.41129 7.45321C7.40522 7.45254 7.39915 7.45455 7.39578 7.45993C7.38432 7.47538 7.38094 7.48815 7.37825 7.49823C7.3769 7.50294 7.37555 7.50697 7.37353 7.51167C7.3715 7.5157 7.3715 7.52108 7.37353 7.52511C7.37555 7.52914 7.37892 7.5325 7.38297 7.53452C7.38566 7.53519 7.38836 7.53855 7.39106 7.54124C7.3951 7.54527 7.39915 7.5493 7.40589 7.55132L7.57987 7.59701L7.68573 7.62456C7.6918 7.62591 7.69922 7.62792 7.69922 7.62658C7.69989 7.62994 7.69854 7.64203 7.69719 7.64943C7.69382 7.67563 7.69045 7.70184 7.68641 7.72805C7.67899 7.78449 7.6709 7.84161 7.66483 7.89873C7.66146 7.92695 7.66146 7.95517 7.66078 7.98541C7.66078 7.99952 7.66078 8.01363 7.66011 8.02775C7.66011 8.03245 7.66213 8.03715 7.6655 8.04051C7.66887 8.04387 7.67359 8.04522 7.67831 8.04522L7.75451 8.03715C7.75451 8.03715 7.75991 8.03581 7.76193 8.03446C7.76597 8.03178 7.76935 8.02707 7.76935 8.0217L7.77069 8.00557C7.77204 7.99415 7.77272 7.98407 7.77407 7.97332L7.78283 7.89268C7.79092 7.81675 7.79902 7.74081 7.80846 7.66488C7.81048 7.6501 7.8125 7.64741 7.8125 7.64741C7.81318 7.64741 7.81722 7.64607 7.83273 7.64875C7.83813 7.64943 7.84352 7.65077 7.84891 7.65211C7.85363 7.65346 7.85768 7.65413 7.8624 7.6548L7.95208 7.67227C8.01142 7.6837 8.07144 7.69579 8.13078 7.70789C8.15977 7.71393 8.16449 7.71461 8.18944 7.71729L8.2063 7.71931C8.21439 7.71998 8.22181 7.71528 8.2245 7.70789C8.2245 7.70587 8.22585 7.70318 8.2272 7.7005C8.23597 7.6763 8.24271 7.6548 8.23394 7.64069C8.23057 7.63464 8.2245 7.63061 8.21776 7.62927V7.62591Z" fill="black"/>
<path d="M4.29446 7.90346C4.29918 7.91354 4.30255 7.92429 4.30862 7.93303C4.37874 8.02979 4.4482 8.12723 4.51967 8.22332C4.54665 8.26028 4.548 8.27574 4.51091 8.30127C4.42797 8.35839 4.34435 8.41551 4.25939 8.46994C4.21489 8.49883 4.16634 8.49211 4.12992 8.45448C4.07328 8.39535 4.02203 8.33151 3.97955 8.26095C3.93842 8.19174 3.89122 8.12589 3.84537 8.06003C3.77861 7.96461 3.71118 7.86919 3.64172 7.77512C3.57092 7.67903 3.49742 7.58495 3.4246 7.48953C3.3956 7.4519 3.36661 7.41427 3.33828 7.37597C3.31873 7.34976 3.32075 7.33968 3.3484 7.31952C3.36391 7.30877 3.37942 7.29869 3.3956 7.28928C3.46371 7.24762 3.52844 7.2026 3.58845 7.14951C3.60329 7.13607 3.62149 7.12666 3.63903 7.11591C3.67072 7.0971 3.69162 7.09979 3.71522 7.12801C3.74422 7.16228 3.77119 7.19789 3.79749 7.23418C3.88582 7.35514 3.97281 7.47743 4.06114 7.59839C4.08542 7.63199 4.11172 7.66491 4.13734 7.69784C4.14341 7.70523 4.1515 7.71061 4.16229 7.72002C4.16971 7.70859 4.17847 7.69986 4.18117 7.69045C4.21758 7.57823 4.20477 7.37126 4.2223 7.25031C4.22837 7.23082 4.23309 7.21133 4.24051 7.19252C4.25467 7.15422 4.44483 7.04132 4.4745 7.02251C4.50147 7.00571 4.401 7.50498 4.43606 7.51506C4.519 7.53993 4.63566 7.56748 4.7186 7.59234C4.85953 7.634 5.03147 7.70187 5.1724 7.74421C5.18319 7.74757 5.19398 7.75294 5.20342 7.75899C5.23512 7.78049 5.23849 7.81409 5.20747 7.83694C5.19061 7.84971 4.97281 7.99149 4.92965 8.0345C4.89864 8.06541 4.86627 8.07549 4.82446 8.06272C4.73073 8.03383 4.63566 8.00896 4.5426 7.97805C4.47382 7.95588 4.40706 7.92765 4.34031 7.90145C4.32547 7.8954 4.31131 7.88801 4.29446 7.90414V7.90346Z" fill="#E50012"/>
<path d="M8.18057 5.32098C8.22305 5.40632 8.26216 5.47352 8.31813 5.52929C8.32555 5.53668 8.33229 5.5434 8.33903 5.55079C8.39905 5.61866 8.47322 5.6227 8.55212 5.58977C8.5656 5.58439 8.57841 5.57767 8.5919 5.5723C8.63034 5.5555 8.6708 5.57835 8.67686 5.62068C8.68293 5.661 8.6681 5.69527 8.64247 5.72416C8.61011 5.76045 8.57572 5.79606 8.53863 5.82765C8.50694 5.85453 8.4712 5.8767 8.43546 5.89753C8.37814 5.93113 8.31409 5.9439 8.248 5.94457C8.22373 5.94457 8.21092 5.95331 8.20148 5.97414C8.18866 6.00169 8.17383 6.02789 8.16169 6.05544C8.13 6.12735 8.07403 6.1764 8.01267 6.22008C7.9803 6.2436 7.94524 6.26577 7.90815 6.2819C7.81038 6.32491 7.7153 6.31751 7.62224 6.26308C7.52784 6.20731 7.47457 6.12399 7.45097 6.0205C7.43411 5.94726 7.45704 5.88006 7.5002 5.82093C7.53728 5.76986 7.58044 5.72282 7.62022 5.67377C7.65461 5.63076 7.68765 5.58775 7.72002 5.54407C7.73755 5.51988 7.75508 5.49301 7.75441 5.46344C7.75374 5.44798 7.76722 5.3996 7.72407 5.35727C7.71125 5.34786 7.69844 5.33845 7.68496 5.32972C7.60943 5.28201 7.51503 5.31023 7.48536 5.39423C7.46985 5.43858 7.46581 5.48696 7.45771 5.53332C7.45569 5.5434 7.45771 5.55348 7.45636 5.56356C7.45367 5.57902 7.44423 5.58843 7.42737 5.59044C7.38354 5.59649 7.34645 5.58439 7.31881 5.55012C7.31004 5.5387 7.3033 5.5219 7.30397 5.50779C7.30734 5.44462 7.31476 5.38146 7.34645 5.32434C7.35117 5.3156 7.40309 5.18793 7.44962 5.14963C7.57639 5.04346 7.72272 5.01187 7.88388 5.04278C7.9594 5.05757 8.01874 5.10192 8.06527 5.16105C8.10977 5.2175 8.14955 5.27797 8.18125 5.32232L8.18057 5.32098ZM7.87106 5.64957C7.8569 5.66436 7.84274 5.67444 7.83465 5.68855C7.81712 5.71812 7.79959 5.74835 7.78745 5.78061C7.74834 5.87872 7.77666 5.98287 7.84477 6.06082C7.85353 6.0709 7.86904 6.0756 7.88185 6.08098C7.89804 6.08703 7.91017 6.08098 7.91692 6.06552C7.93917 6.01849 7.95805 5.97145 7.95266 5.91702C7.94524 5.83437 7.92029 5.75709 7.88927 5.68116C7.8859 5.67242 7.87916 5.66503 7.87039 5.65092L7.87106 5.64957Z" fill="#E50012"/>
<path d="M8.50303 4.47302C8.59608 4.42598 8.67363 4.37693 8.7687 4.36752C8.80579 4.36349 8.8422 4.36214 8.87929 4.37558C8.89345 4.38096 8.90356 4.38835 8.91166 4.40179C8.93323 4.44009 8.95549 4.47772 8.97706 4.51603C8.98178 4.52409 8.98448 4.53283 8.9865 4.54156C8.99392 4.56844 8.99122 4.57516 8.96762 4.58591C8.95683 4.59061 8.94537 4.59465 8.93391 4.59935C8.90626 4.6101 8.87996 4.60809 8.85299 4.58725C8.78084 4.53081 8.69655 4.54022 8.64733 4.60876C8.61563 4.65244 8.63452 4.75256 8.68307 4.78347C8.69925 4.79422 8.72218 4.79893 8.74038 4.79758C8.78556 4.79422 8.83074 4.78885 8.87457 4.77877C8.92717 4.76667 8.98044 4.7613 9.03573 4.76667C9.05326 4.76869 9.07012 4.76802 9.08765 4.76667C9.14294 4.76331 9.19419 4.77809 9.24072 4.81438C9.27511 4.84059 9.31017 4.86679 9.33917 4.89905C9.39244 4.95617 9.42413 5.02336 9.4275 5.10131C9.4302 5.15574 9.40997 5.20076 9.3857 5.24377C9.34928 5.30895 9.29399 5.35666 9.23398 5.39765C9.10923 5.48434 8.96695 5.53003 8.81456 5.54952C8.7977 5.55153 8.78151 5.55624 8.76466 5.5596C8.72959 5.56699 8.71543 5.56094 8.69655 5.526C8.68441 5.50382 8.67565 5.4803 8.66553 5.45746C8.65272 5.42856 8.63924 5.39967 8.62575 5.37145C8.62035 5.35935 8.61496 5.34725 8.61024 5.33516C8.6035 5.3197 8.60754 5.30828 8.61968 5.29887C8.64868 5.2767 8.68374 5.27065 8.71746 5.26326C8.72757 5.26124 8.74173 5.26863 8.75185 5.27535C8.78151 5.29282 8.81118 5.30626 8.84423 5.3103C8.92649 5.32038 8.97639 5.27871 9.00471 5.21152C9.01685 5.18262 9.00336 5.14029 8.97369 5.11677C8.94942 5.09728 8.92245 5.07914 8.8948 5.06704C8.87794 5.05965 8.85434 5.05965 8.83748 5.0657C8.75185 5.09459 8.66014 5.08989 8.57046 5.0872C8.49763 5.08519 8.43222 5.0489 8.38502 4.98103C8.34861 4.92862 8.32636 4.87083 8.31624 4.80968C8.29871 4.70888 8.3358 4.62892 8.39783 4.56306C8.43155 4.52745 8.47201 4.49855 8.50033 4.47436L8.50303 4.47302Z" fill="#E50012"/>
<path d="M6.64253 5.9427C6.65265 5.92725 6.66276 5.91851 6.66546 5.90776C6.69445 5.80024 6.76998 5.74111 6.87315 5.71557C6.93181 5.70079 6.9925 5.69676 7.05386 5.70549C7.12736 5.71557 7.1894 5.74648 7.24132 5.79688C7.34381 5.89499 7.40922 6.01326 7.42068 6.15572C7.42945 6.27062 7.38899 6.36537 7.28852 6.42854C7.23997 6.45877 7.1894 6.487 7.13747 6.51253C7.1105 6.5253 7.07948 6.52933 7.05049 6.53739C7.02014 6.54546 7.0161 6.55419 7.03161 6.57906C7.11725 6.71614 7.20356 6.85188 7.28785 6.98963C7.31279 7.02995 7.33437 7.07296 7.35393 7.11596C7.37011 7.15225 7.36809 7.16233 7.33168 7.17778C7.26627 7.20533 7.21569 7.25304 7.15973 7.29269C7.13747 7.30882 7.10713 7.31688 7.07948 7.32159C7.06735 7.3236 7.05049 7.31151 7.03903 7.3021C7.02824 7.29336 7.02217 7.27858 7.01475 7.26648C6.93383 7.13679 6.85561 7.00509 6.772 6.87741C6.64388 6.68052 6.51104 6.48633 6.3809 6.29078C6.33437 6.2209 6.29122 6.14967 6.24604 6.07978C6.23458 6.06164 6.22986 6.04686 6.25008 6.0314C6.32898 5.97025 6.41192 5.91515 6.50228 5.87282C6.50632 5.8708 6.51037 5.86946 6.51441 5.86811C6.57308 5.8493 6.57915 5.85131 6.61354 5.90373C6.62095 5.91515 6.62972 5.92657 6.64253 5.94472V5.9427ZM7.05925 6.12749C7.02284 6.06433 6.98238 6.02401 6.92237 5.98167C6.87921 5.96084 6.82055 6.01796 6.81448 6.02199C6.80706 6.0267 6.80369 6.04081 6.80302 6.05156C6.80234 6.06433 6.80504 6.07709 6.80909 6.08986C6.82662 6.149 6.84752 6.20679 6.88124 6.25987C6.91091 6.30624 6.94058 6.34656 7.00531 6.34387C7.03431 6.34252 7.11522 6.28137 7.11522 6.25181C7.11522 6.23904 7.11185 6.22627 7.10646 6.21485C7.09162 6.18528 7.07544 6.15639 7.05993 6.12749H7.05925Z" fill="#E50012"/>
<path d="M5.59113 6.66841C5.54393 6.68655 5.51022 6.72082 5.47515 6.75173C5.43334 6.78869 5.39289 6.78869 5.3558 6.74636C5.33759 6.7262 5.32343 6.70268 5.3086 6.67983C5.29646 6.66102 5.30253 6.64153 5.31736 6.62944C5.33557 6.61398 5.35647 6.59785 5.37873 6.59113C5.42458 6.57702 5.45695 6.5441 5.4974 6.52259C5.47313 6.48362 5.4502 6.44935 5.4293 6.41373C5.41042 6.38148 5.39356 6.34855 5.37535 6.3163C5.36457 6.29748 5.36794 6.28001 5.37738 6.26321C5.39963 6.22424 5.41986 6.18459 5.44548 6.1483C5.47313 6.10799 5.50415 6.06968 5.53584 6.03205C5.54865 6.0166 5.56416 6.00316 5.58102 5.99241C5.61743 5.96822 5.63564 5.96889 5.66194 6.00517C5.69902 6.05624 5.73206 6.11067 5.76578 6.16443C5.78601 6.19601 5.80287 6.22961 5.82242 6.2612C5.8413 6.29211 5.84467 6.29076 5.87704 6.27262C5.9121 6.25313 5.94852 6.23566 5.9856 6.22088C6.00988 6.21147 6.03011 6.22693 6.04697 6.24372C6.0591 6.25582 6.06922 6.26993 6.08068 6.2827C6.1063 6.31092 6.10765 6.32167 6.07798 6.34721C6.04629 6.37409 6.01123 6.39761 5.97751 6.4218C5.9647 6.43053 5.95121 6.4386 5.93503 6.44868C5.94784 6.47219 5.95796 6.49235 5.97009 6.51117C6.04629 6.62675 6.12114 6.743 6.20003 6.85723C6.22903 6.89957 6.2796 6.91166 6.32815 6.91838C6.34231 6.9204 6.36119 6.90293 6.37468 6.89016C6.39019 6.87538 6.40098 6.85589 6.41649 6.84043C6.432 6.82364 6.44885 6.80751 6.46773 6.79474C6.49403 6.77593 6.51291 6.77861 6.52977 6.80549C6.54393 6.82834 6.55472 6.85387 6.56281 6.87941C6.57158 6.90696 6.56281 6.93249 6.54461 6.95601C6.47785 7.03934 6.40907 7.12132 6.32748 7.19053C6.24993 7.25571 6.15755 7.28394 6.05708 7.27251C6.00381 7.26646 5.96065 7.23287 5.92559 7.19456C5.85142 7.11325 5.7914 7.02254 5.73948 6.92443C5.697 6.84447 5.65115 6.76585 5.60597 6.68723C5.6026 6.68118 5.5972 6.67647 5.59113 6.67043V6.66841Z" fill="#E50012"/>
<path d="M3.10918 6.663C3.12671 6.6845 3.14896 6.69928 3.17189 6.71272C3.18268 6.71944 3.19279 6.70936 3.20088 6.7013C3.22381 6.68047 3.24741 6.65964 3.27101 6.63881C3.27641 6.6341 3.28315 6.6294 3.28922 6.62738C3.329 6.61529 3.34519 6.6294 3.33305 6.66636C3.32091 6.70264 3.3108 6.73893 3.28247 6.77051C3.26899 6.7853 3.2791 6.79269 3.28787 6.80008C3.32024 6.82763 3.35328 6.85518 3.38497 6.88273C3.39508 6.89147 3.4052 6.90088 3.41262 6.91163C3.42947 6.93649 3.41734 6.95799 3.3843 6.96606C3.35058 6.97412 3.32293 6.96807 3.29866 6.9506C3.26831 6.92843 3.23797 6.90625 3.20763 6.88542C3.18942 6.87265 3.18537 6.874 3.16649 6.89012C3.14222 6.91163 3.11862 6.93313 3.09299 6.95329C3.06332 6.97681 3.02421 6.97681 2.99926 6.95665C2.9878 6.94791 2.98713 6.92507 3.00129 6.9076C3.02287 6.88139 3.04647 6.85653 3.06872 6.83166C3.07546 6.82427 3.08221 6.81688 3.09165 6.8068C3.07276 6.79202 3.05591 6.77858 3.03838 6.76581C3.03028 6.75976 3.02152 6.76581 3.0141 6.77186C2.99994 6.78462 2.98713 6.79739 2.97229 6.80949C2.94465 6.83301 2.91363 6.84577 2.87924 6.84779C2.86171 6.84846 2.84552 6.84645 2.83676 6.83166C2.84957 6.78933 2.87115 6.75237 2.90284 6.7181C2.92846 6.68988 2.92711 6.68988 2.89947 6.66837C2.87317 6.64754 2.8462 6.62671 2.8226 6.60386C2.81181 6.59311 2.80506 6.57699 2.80169 6.56153C2.80034 6.55414 2.80844 6.5407 2.81585 6.53465C2.84417 6.51113 2.87587 6.51113 2.90419 6.52188C2.92509 6.52995 2.94397 6.54204 2.96218 6.55414C2.97701 6.56355 2.9905 6.5743 3.00331 6.58505C3.01477 6.59446 3.02489 6.59244 3.03703 6.58169C3.05726 6.56422 3.07883 6.54742 3.10041 6.53062C3.10581 6.52592 3.11255 6.52188 3.11929 6.5192C3.14964 6.50508 3.17256 6.51785 3.16852 6.54675C3.16447 6.57631 3.15503 6.60454 3.13345 6.63007C3.12536 6.63948 3.11794 6.64889 3.10783 6.66165L3.10918 6.663Z" fill="black"/>
<path d="M5.51701 7.33511C5.54938 7.38618 5.59118 7.45338 5.63367 7.52058C5.65592 7.55552 5.65524 7.56829 5.62288 7.59315C5.59388 7.61465 5.56354 7.63347 5.53252 7.65295C5.49813 7.67446 5.46441 7.69596 5.428 7.71478C5.40373 7.72687 5.37743 7.73561 5.35113 7.74165C5.32348 7.7477 5.30325 7.73695 5.28505 7.71276C5.2048 7.60524 5.11849 7.5031 5.04162 7.39357C4.93373 7.24036 4.83259 7.08312 4.72942 6.92655C4.70649 6.89161 4.72065 6.85667 4.76111 6.84659C4.79145 6.8392 4.80899 6.84659 4.84 6.84726C4.88518 6.8486 4.93306 6.81837 4.95868 6.7841C4.9688 6.76998 4.97689 6.75453 4.98835 6.74176C4.99981 6.72765 5.01263 6.71287 5.02746 6.70279C5.06253 6.6786 5.08275 6.68397 5.10636 6.71959C5.1812 6.83248 5.25605 6.94537 5.3309 7.05826C5.38889 7.14562 5.44756 7.23364 5.51566 7.33646L5.51701 7.33511Z" fill="#E50012"/>
<path d="M5.13836 5.31241C5.14982 5.303 5.16398 5.30233 5.17814 5.30435C5.20242 5.30838 5.22669 5.31308 5.25029 5.31711C5.2685 5.32047 5.2712 5.31711 5.27457 5.29897C5.27996 5.26672 5.28738 5.23446 5.2948 5.20221C5.29884 5.18541 5.31031 5.17533 5.32514 5.16794C5.34267 5.15987 5.35953 5.16525 5.36493 5.18406C5.37032 5.20153 5.37302 5.21968 5.37437 5.23715C5.37639 5.26403 5.37639 5.29091 5.37572 5.31778C5.37572 5.33122 5.37976 5.33862 5.39325 5.34063C5.41348 5.34399 5.43371 5.34668 5.45394 5.35138C5.47214 5.35609 5.49035 5.36281 5.50788 5.36953C5.52002 5.37423 5.52878 5.38364 5.53215 5.39708C5.53553 5.41052 5.52878 5.42463 5.5153 5.42866C5.50721 5.43135 5.49844 5.43202 5.48967 5.43269C5.45528 5.43404 5.42157 5.43068 5.38853 5.42127C5.3683 5.41522 5.3629 5.41925 5.35886 5.43874C5.35751 5.44344 5.35683 5.44815 5.35683 5.45285C5.35549 5.48712 5.34335 5.51938 5.33256 5.55096C5.32649 5.56709 5.32177 5.57112 5.30424 5.57045C5.29547 5.57045 5.28671 5.5691 5.27861 5.56709C5.26041 5.56238 5.25097 5.55029 5.25029 5.53147C5.24827 5.49183 5.24692 5.45285 5.25569 5.41388C5.26041 5.3917 5.25704 5.387 5.23479 5.38297C5.21456 5.37893 5.19433 5.37759 5.17342 5.37557C5.15656 5.37423 5.14308 5.36684 5.13162 5.35542C5.11813 5.34265 5.1188 5.32047 5.13903 5.31174L5.13836 5.31241Z" fill="black"/>
<path d="M4.14559 5.93385C4.20628 6.03532 4.24337 6.14485 4.26562 6.25842C4.27169 6.29 4.27573 6.32225 4.2791 6.35451C4.2818 6.37937 4.26899 6.39348 4.24809 6.39953C4.22179 6.40759 4.19482 6.40087 4.17189 6.3834C4.16245 6.37668 4.15638 6.36123 4.15368 6.34846C4.14222 6.29873 4.13345 6.24901 4.12199 6.19995C4.1166 6.17576 4.10918 6.15157 4.09974 6.12873C4.06939 6.05615 4.03703 5.98425 3.99455 5.91705C3.98376 5.90093 3.97566 5.88346 3.98915 5.86867C4.00264 5.85322 4.01882 5.84112 4.04377 5.84717C4.09165 5.85859 4.12266 5.89085 4.14559 5.93385Z" fill="black"/>
<path d="M6.24451 4.72835C6.25058 4.72297 6.25597 4.71894 6.26002 4.71491C6.29643 4.67527 6.32678 4.69206 6.35375 4.72768C6.35914 4.7344 6.36251 4.74313 6.36454 4.75187C6.38139 4.81235 6.39893 4.87282 6.39421 4.93666C6.39286 4.95279 6.39016 4.97026 6.38409 4.98504C6.3733 5.01125 6.36117 5.03679 6.34701 5.06098C6.32947 5.0892 6.31261 5.08718 6.28699 5.08248C6.28092 5.08181 6.27283 5.07307 6.27216 5.06702C6.27013 5.04821 6.26811 5.02872 6.27553 5.00991C6.28362 4.98975 6.29104 4.96824 6.29576 4.94674C6.31127 4.88022 6.29441 4.81907 6.26069 4.76128C6.25462 4.75053 6.2499 4.73977 6.24384 4.72835H6.24451Z" fill="black"/>
<path d="M4.69581 6.45191C4.77201 6.4116 4.83404 6.42705 4.89878 6.47745C4.94328 6.51239 4.96014 6.57421 4.94396 6.62931C4.92642 6.6871 4.88529 6.72406 4.83876 6.75766C4.81112 6.77715 4.77808 6.77379 4.74638 6.76841C4.68232 6.75766 4.63445 6.71936 4.60073 6.66762C4.57309 6.62528 4.59938 6.55338 4.62568 6.51709C4.64726 6.48753 4.66344 6.47207 4.69514 6.45191H4.69581Z" fill="#E50012"/>
<path d="M6.1274 4.77404C6.14223 4.76598 6.15841 4.76329 6.17257 4.77337C6.19078 4.78614 6.20831 4.79891 6.22382 4.81436C6.23933 4.82982 6.25282 4.84796 6.2663 4.86476C6.27777 4.87887 6.27777 4.89365 6.269 4.91045C6.26091 4.92591 6.24742 4.92725 6.23259 4.92524C6.21775 4.92322 6.20562 4.91784 6.19752 4.90441C6.17662 4.86946 6.14897 4.8399 6.12065 4.81033C6.10447 4.79353 6.10649 4.78547 6.12672 4.77404H6.1274Z" fill="black"/>
<path d="M6.1833 4.93323C6.19409 4.94331 6.17993 4.96414 6.16172 4.96817C6.13947 4.97354 6.11857 4.9722 6.10171 4.95204C6.08283 4.92987 6.0626 4.90904 6.04304 4.88753C6.039 4.88283 6.03495 4.87812 6.03293 4.87275C6.02888 4.86267 6.03091 4.85393 6.04102 4.84789C6.05788 4.83848 6.07608 4.83377 6.09362 4.84587C6.1071 4.85461 6.12059 4.86334 6.13138 4.87409C6.14756 4.89022 6.16172 4.90836 6.1833 4.93323Z" fill="black"/>
<path d="M5.87263 4.80238C5.85847 4.79701 5.84161 4.78088 5.82948 4.77282C5.81127 4.76072 5.80318 4.75333 5.77823 4.73384C5.77418 4.73183 5.77216 4.72712 5.77014 4.72242C5.75395 4.71704 5.74249 4.72376 5.7317 4.73855C5.72159 4.74997 5.71821 4.76408 5.72968 4.77819C5.73305 4.7829 5.7344 4.78357 5.73912 4.7876C5.76204 4.80507 5.78632 4.82187 5.80857 4.84069C5.8288 4.85749 5.85443 4.87294 5.87735 4.84808C5.88949 4.83598 5.89016 4.81784 5.88342 4.80642C5.88005 4.80574 5.876 4.8044 5.87196 4.80238H5.87263Z" fill="black"/>
<path d="M5.78361 4.72644C5.77147 4.71905 5.77012 4.69486 5.78496 4.6794C5.80721 4.65521 5.83216 4.66932 5.85172 4.68478C5.87262 4.70225 5.89555 4.7177 5.9178 4.7345C5.92252 4.73786 5.92387 4.73853 5.92724 4.74324C5.93803 4.75668 5.93466 4.77012 5.92387 4.78154C5.91105 4.79834 5.89757 4.80506 5.87801 4.79431C5.86385 4.78893 5.847 4.7728 5.83486 4.76474C5.81665 4.75265 5.80856 4.74525 5.78361 4.72577V4.72644Z" fill="black"/>
<path d="M3.53998 6.4056C3.54605 6.40022 3.55144 6.39619 3.55549 6.39216C3.5919 6.35251 3.62225 6.36931 3.64922 6.40492C3.65461 6.41164 3.65799 6.42038 3.66001 6.42912C3.67687 6.48959 3.6944 6.55007 3.68968 6.61391C3.68833 6.63004 3.68563 6.64751 3.67956 6.66229C3.66877 6.6885 3.65664 6.71403 3.64248 6.73822C3.62494 6.76645 3.60809 6.76443 3.58246 6.75973C3.57639 6.75905 3.5683 6.75032 3.56763 6.74427C3.5656 6.72546 3.56358 6.70597 3.571 6.68715C3.57909 6.66699 3.58651 6.64549 3.59123 6.62399C3.60674 6.55746 3.58988 6.49631 3.55616 6.43852C3.5501 6.42777 3.54538 6.41702 3.53931 6.4056H3.53998Z" fill="black"/>
<path d="M3.42281 6.45129C3.43764 6.44323 3.45382 6.44054 3.46798 6.45062C3.48619 6.46338 3.50372 6.47615 3.51923 6.49161C3.53474 6.50706 3.54823 6.52521 3.56171 6.54201C3.57318 6.55612 3.57318 6.5709 3.56441 6.5877C3.55632 6.60315 3.54283 6.6045 3.528 6.60248C3.51316 6.60047 3.50103 6.59509 3.49293 6.58165C3.47203 6.54671 3.44438 6.51714 3.41606 6.48758C3.39988 6.47078 3.4019 6.46271 3.42213 6.45129H3.42281Z" fill="black"/>
<path d="M3.47932 6.6112C3.49011 6.62128 3.47595 6.64212 3.45774 6.64615C3.43549 6.65152 3.41459 6.65018 3.39773 6.63002C3.37885 6.60785 3.35862 6.58701 3.33906 6.56551C3.33502 6.56081 3.33097 6.5561 3.32895 6.55073C3.3249 6.54065 3.32693 6.53191 3.33704 6.52586C3.3539 6.51646 3.37211 6.51175 3.38964 6.52385C3.40312 6.53258 3.41661 6.54132 3.4274 6.55207C3.44358 6.5682 3.45774 6.58634 3.47932 6.6112Z" fill="black"/>
<path d="M3.8832 6.39957C3.84409 6.40562 3.807 6.38479 3.77868 6.33977C3.75912 6.30818 3.77059 6.27929 3.7834 6.26182C3.78205 6.25913 3.7807 6.25644 3.77868 6.25308C3.77059 6.2383 3.76317 6.22351 3.75305 6.21007C3.73215 6.18118 3.7099 6.1543 3.68967 6.12541C3.66607 6.09248 3.64786 6.06963 3.61482 6.05888C3.61145 6.05754 3.60673 6.05821 3.60336 6.05888C3.55885 6.07232 3.54739 6.10659 3.57571 6.15363C3.63303 6.24972 3.69439 6.34447 3.75643 6.4372C3.79082 6.48827 3.8306 6.53598 3.86836 6.58503C3.88522 6.60654 3.9068 6.61527 3.93107 6.61729C3.95939 6.61931 3.95737 6.61191 3.9776 6.5978C3.98569 6.59243 3.98839 6.58033 3.98299 6.56824C3.9722 6.54337 3.96546 6.51717 3.9486 6.49432C3.92972 6.46878 3.91219 6.44191 3.89466 6.4157C3.89129 6.41032 3.88792 6.40562 3.88454 6.39957H3.8832Z" fill="black"/>
<path d="M4.04913 6.28191C4.04171 6.27653 4.03295 6.27048 4.02485 6.26914C4.0026 6.26444 3.98035 6.25839 3.95877 6.25772C3.91224 6.25704 3.85291 6.26981 3.80638 6.27116C3.80503 6.27116 3.80368 6.27116 3.80233 6.27116C3.79289 6.27384 3.77941 6.30207 3.79626 6.32894C3.81312 6.35582 3.84347 6.38808 3.88392 6.37934C3.88392 6.37934 3.8846 6.37934 3.88527 6.37934C3.89134 6.37733 3.89606 6.37598 3.90078 6.37598C3.92438 6.37329 3.96956 6.36322 3.99316 6.35918C4.01339 6.35582 4.03429 6.35112 4.05183 6.34238C4.07408 6.33163 4.07206 6.29938 4.0498 6.28258L4.04913 6.28191Z" fill="black"/>
<path d="M4.22635 5.72826C4.22635 5.72826 4.25804 5.8015 4.31873 5.81158C4.35042 5.81696 4.38818 5.80956 4.41516 5.7632C4.42932 5.73162 4.41988 5.70406 4.41178 5.67315C4.40571 5.64896 4.38616 5.63418 4.36795 5.62477C4.33694 5.60932 4.31401 5.60596 4.28299 5.61738C4.26883 5.62276 4.24388 5.6456 4.23242 5.65971C4.21758 5.67786 4.22095 5.71414 4.22702 5.72826H4.22635ZM4.29783 5.6792C4.35851 5.64762 4.40032 5.74841 4.343 5.76723C4.29917 5.78067 4.25467 5.69734 4.29783 5.6792Z" fill="black"/>
<path d="M4.68552 6.04821C4.67878 6.04216 4.44277 5.90777 4.42726 5.89903C4.4104 5.88963 4.37534 5.86006 4.35781 5.83452C4.34432 5.83856 4.33016 5.83923 4.31667 5.83721C4.2634 5.82848 4.22497 5.77674 4.20676 5.74582C4.20272 5.74381 4.19934 5.74179 4.19665 5.73978C4.1899 5.73574 4.18451 5.7297 4.17777 5.72634C4.15754 5.71559 4.13596 5.71962 4.12315 5.73575C4.11236 5.74986 4.11438 5.76666 4.12922 5.78749C4.13596 5.79689 4.1427 5.8063 4.15147 5.81369C4.18788 5.84796 4.22429 5.88156 4.26138 5.91583C4.33623 5.98437 4.41715 6.04418 4.50818 6.0845C4.55808 6.10667 4.60798 6.12616 4.66125 6.12952C4.68013 6.13086 4.69698 6.12549 4.7044 6.106C4.71114 6.08786 4.70373 6.06501 4.68619 6.04821H4.68552Z" fill="black"/>
<path d="M4.90955 5.66381C4.90618 5.63962 4.91967 5.61475 4.94799 5.58922C4.94731 5.58586 4.94664 5.5825 4.94597 5.5778C4.93585 5.51329 4.8873 5.38091 4.88528 5.37553C4.87247 5.34462 4.84684 5.33387 4.8138 5.34193C4.76997 5.35269 4.63781 5.43198 4.58723 5.46826C4.54543 5.4985 4.50092 5.52337 4.49553 5.57578C4.4935 5.59325 4.50362 5.61139 4.51845 5.61677C4.55082 5.62887 4.59465 5.60468 4.62567 5.58183C4.67422 5.55428 4.69782 5.53748 4.7376 5.51463C4.75379 5.50522 4.77132 5.4938 4.79357 5.47969C4.79897 5.49716 4.83201 5.56637 4.83403 5.57847C4.84617 5.67792 4.8374 5.74579 4.82122 5.81635C4.81245 5.85532 4.79087 5.90437 4.79762 5.95746C4.80234 5.99509 4.81313 6.01458 4.85224 6.01458C4.90079 6.00047 4.90955 5.98971 4.91697 5.92789C4.92169 5.88556 4.94462 5.77065 4.95271 5.72832C4.95338 5.72429 4.95406 5.7216 4.95541 5.71824C4.94057 5.71017 4.91427 5.6927 4.91023 5.66381H4.90955Z" fill="black"/>
<path d="M5.23347 5.71005C5.19436 5.66234 5.1566 5.64957 5.09726 5.63009C5.05748 5.61732 5.01432 5.60791 4.96442 5.60657C4.93543 5.61396 4.93273 5.64353 4.93475 5.65898C4.93813 5.68586 4.95701 5.69661 4.95768 5.69661C4.95768 5.69661 4.97993 5.70132 4.98128 5.70132C5.04804 5.70669 5.08108 5.73021 5.14446 5.75373C5.18357 5.76851 5.20246 5.77792 5.22606 5.76246C5.24022 5.74499 5.24763 5.72551 5.23415 5.70938L5.23347 5.71005Z" fill="black"/>
<path d="M6.06527 5.22762C6.07066 5.21216 6.07066 5.1826 6.04167 5.15034C6.0329 5.14093 6.02413 5.13623 6.01402 5.13623C5.99312 5.13623 5.95535 5.15639 5.95266 5.15773C5.88185 5.19536 5.82319 5.24778 5.76655 5.30288C5.75509 5.31363 5.74767 5.32841 5.73958 5.34253C5.7362 5.3479 5.73418 5.35462 5.73553 5.36C5.73958 5.37747 5.74497 5.39427 5.75104 5.41107C5.75508 5.42383 5.76587 5.42787 5.77869 5.42316C5.80229 5.41375 5.82724 5.40368 5.84881 5.39091C5.87781 5.37411 5.90478 5.35395 5.93243 5.33446C5.97424 5.30355 6.01807 5.27466 6.05583 5.23971C6.0592 5.23635 6.06257 5.23299 6.06594 5.22896L6.06527 5.22762Z" fill="black"/>
<path d="M6.07201 5.05978C6.03155 5.0067 5.98839 4.9563 5.94659 4.90389C5.92973 4.88238 5.91287 4.86088 5.89669 4.8387C5.89467 4.84542 5.89129 4.85214 5.8859 4.85819C5.88253 4.86222 5.87848 4.86491 5.87444 4.8676C5.85488 4.87969 5.83061 4.87432 5.80296 4.85147C5.7888 4.84005 5.77396 4.82863 5.75913 4.81787C5.75778 4.8172 5.75711 4.81653 5.75576 4.81519C5.75373 4.81653 5.75104 4.81787 5.74901 4.81989C5.69507 4.86088 5.6391 4.9012 5.57841 4.93345C5.54672 4.95025 5.51638 4.9731 5.49682 5.00535C5.47794 5.03761 5.47929 5.05508 5.50761 5.07524C5.51031 5.07725 5.51301 5.0786 5.51503 5.07994C5.542 5.10212 5.5474 5.10279 5.57774 5.0833C5.6391 5.04433 5.70046 5.00468 5.76183 4.96504C5.77599 4.95563 5.7888 4.9442 5.80566 4.93076C5.8596 4.99931 5.91152 5.0665 5.96412 5.1337C5.97221 5.12698 5.99177 5.11354 6.01402 5.11488C6.0302 5.11488 6.04436 5.12228 6.0565 5.13572C6.07605 5.15722 6.08482 5.17939 6.08752 5.19754C6.09628 5.1841 6.10438 5.17066 6.11314 5.15722C6.11719 5.1505 6.11584 5.1384 6.11247 5.13101C6.10033 5.10615 6.08887 5.07994 6.07201 5.05844V5.05978Z" fill="black"/>
<path d="M6.80743 4.76463C6.8162 4.75387 6.82294 4.71826 6.78788 4.67929C6.77911 4.66988 6.77034 4.66517 6.76023 4.66517C6.73933 4.6645 6.69684 4.68937 6.69145 4.69273C6.63278 4.73573 6.57412 4.77941 6.51545 4.82376C6.48646 4.84526 6.48579 4.85064 6.49725 4.88424C6.49792 4.88692 6.4986 4.89028 6.49927 4.89297C6.50871 4.92724 6.52489 4.93531 6.56198 4.92859C6.59974 4.92187 6.63211 4.90104 6.65908 4.87752C6.70494 4.8372 6.75416 4.8036 6.80541 4.77067C6.80541 4.76866 6.80541 4.76597 6.80743 4.76463Z" fill="black"/>
<path d="M6.81495 4.54108C6.77988 4.48329 6.74617 4.42348 6.70976 4.36637C6.69492 4.34285 6.67402 4.32269 6.65446 4.30186C6.64839 4.29581 6.63761 4.28976 6.62951 4.29178C6.59715 4.2985 6.56276 4.30253 6.53376 4.31731C6.48724 4.34083 6.44475 4.37107 6.40092 4.39996C6.3726 4.41811 6.34428 4.43692 6.31798 4.45843C6.29775 4.47455 6.28022 4.49404 6.26269 4.51286C6.25325 4.52294 6.25392 4.53503 6.26404 4.54309C6.2782 4.55452 6.29236 4.56594 6.30719 4.57602C6.31191 4.57938 6.31933 4.57938 6.3254 4.57871C6.34091 4.57602 6.35777 4.57401 6.37193 4.56729C6.44408 4.53369 6.51421 4.4974 6.57422 4.44364C6.57894 4.43961 6.58501 4.4376 6.59445 4.43222C6.63963 4.50546 6.68481 4.57737 6.73066 4.65128C6.73875 4.64725 6.74887 4.64456 6.75966 4.64523C6.77584 4.64523 6.79 4.65263 6.80214 4.66607C6.83113 4.69832 6.83653 4.7299 6.83248 4.75275C6.8608 4.73259 6.87361 4.70706 6.88171 4.67547C6.88575 4.66069 6.88373 4.64994 6.87564 4.63784C6.85406 4.60626 6.83316 4.57401 6.81293 4.54108H6.81495Z" fill="black"/>
<path d="M12.797 10.1533C12.828 10.1533 12.8583 10.1519 12.8893 10.1519C12.9204 10.1519 12.9521 10.1519 12.9824 10.1519C13.0127 10.1519 13.0458 10.1519 13.0755 10.1519C13.1024 10.1801 13.1206 10.2037 13.1429 10.2231C13.1638 10.2413 13.1854 10.2588 13.2063 10.2769C13.2272 10.295 13.2488 10.3125 13.271 10.3293C13.2926 10.3461 13.3027 10.3663 13.3027 10.3918C13.3027 10.412 13.3027 10.4328 13.3034 10.453C13.304 10.4872 13.3034 10.5208 13.3047 10.5551C13.3061 10.5894 13.3074 10.623 13.3081 10.6572C13.3088 10.6915 13.3101 10.7251 13.3108 10.7594C13.3115 10.7936 13.3108 10.8272 13.3121 10.8615C13.3135 10.8958 13.3142 10.9294 13.3148 10.9637C13.3155 10.9865 13.3094 11.0013 13.2912 11.0154C13.2616 11.0396 13.2299 11.0604 13.1968 11.0792C13.1638 11.0981 13.1294 11.1135 13.0937 11.1269C13.0579 11.1404 13.0229 11.1532 12.9858 11.1626C12.9487 11.172 12.9136 11.176 12.8792 11.176C12.8421 11.176 12.8071 11.17 12.7734 11.1599C12.7396 11.1498 12.7066 11.1364 12.6749 11.1169C12.6452 11.0987 12.6176 11.0759 12.5906 11.0503C12.5684 11.0302 12.565 11.0053 12.565 10.9791C12.565 10.9401 12.565 10.9012 12.565 10.8622C12.565 10.8232 12.565 10.7842 12.565 10.7453C12.565 10.7063 12.5664 10.6673 12.5664 10.6283C12.5664 10.5947 12.5664 10.5618 12.5664 10.5282C12.5664 10.4946 12.5677 10.4617 12.5684 10.4281C12.5684 10.4005 12.5819 10.3817 12.6048 10.3629C12.6324 10.3394 12.6587 10.3145 12.685 10.2897C12.7113 10.2648 12.7376 10.2399 12.7632 10.2144C12.7788 10.1983 12.7848 10.1748 12.7956 10.1512L12.797 10.1533Z" fill="white"/>
<path d="M13.1281 10.0242C13.1072 10.0564 13.091 10.0813 13.0681 10.1169C13.0384 10.1156 13.0088 10.1142 12.9771 10.1135C12.9454 10.1129 12.9164 10.1115 12.8854 10.1102C12.8544 10.1088 12.8247 10.1075 12.7943 10.1062C12.7835 10.0685 12.7782 10.0322 12.7768 9.99528C12.7755 9.95832 12.7782 9.92069 12.7829 9.88239C12.8206 9.87433 12.8577 9.8703 12.8941 9.86895C12.9305 9.86761 12.969 9.86962 13.0061 9.87298C13.0169 9.87433 13.029 9.88508 13.0364 9.89516C13.0432 9.90389 13.0472 9.91599 13.0492 9.92741C13.058 9.97378 13.0789 10.0107 13.1281 10.0242Z" fill="white"/>
</svg>
