<svg width="26" height="20" viewBox="0 0 26 20" fill="none" xmlns="http://www.w3.org/2000/svg">
<path fill-rule="evenodd" clip-rule="evenodd" d="M2 0.77832C0.895431 0.77832 0 1.67375 0 2.77832L0 17.2218C0 18.3264 0.89543 19.2218 2 19.2218H24C25.1046 19.2218 26 18.3264 26 17.2218V2.77832C26 1.67375 25.1046 0.77832 24 0.77832L2 0.77832ZM2.36563 2.00305C1.90645 1.69618 1.28544 1.81965 0.978571 2.27884C0.671702 2.73802 0.795179 3.35903 1.25436 3.6659L12.4443 11.1441C12.7807 11.3688 13.2193 11.3688 13.5556 11.1441L24.7456 3.6659C25.2048 3.35903 25.3283 2.73802 25.0214 2.27884C24.7145 1.81965 24.0935 1.69618 23.6343 2.00305L13 9.10987L2.36563 2.00305Z" fill="white"/>
</svg>
