<svg width="135" height="124" viewBox="0 0 135 124" fill="none" xmlns="http://www.w3.org/2000/svg">
<path d="M134.08 67.8153C134.1 68.1153 133.74 68.3953 133.67 68.7253C133.6 69.0153 133.76 69.4053 133.63 69.7153C133.51 69.9953 133.22 70.2153 133.06 70.5053C132.91 70.7853 132.78 71.0653 132.61 71.3453C132.42 71.6353 132.35 72.0053 132.16 72.2953C131.97 72.5853 131.58 72.7253 131.38 73.0053C131.17 73.2853 130.92 73.5153 130.71 73.7853C130.49 74.0553 130.49 74.5053 130.27 74.7653C130.04 75.0253 129.71 75.1953 129.47 75.4453C129.23 75.6953 128.93 75.8753 128.68 76.1153C128.44 76.3553 128.2 76.6053 127.95 76.8353C127.71 77.0453 127.63 77.4253 127.39 77.6353C127.16 77.8453 126.85 77.9753 126.61 78.1853C126.38 78.3953 126.2 78.6653 125.96 78.8853C125.73 79.0953 125.35 79.1553 125.12 79.3653C124.88 79.5753 124.78 79.9353 124.54 80.1453C124.31 80.3553 123.98 80.4753 123.75 80.6853C123.51 80.8953 123.36 81.2053 123.13 81.4153C122.89 81.6253 122.57 81.7453 122.33 81.9553C122.1 82.1653 121.91 82.4353 121.68 82.6453C121.44 82.8553 121.11 82.9653 120.88 83.1753C120.64 83.3853 120.49 83.6953 120.25 83.9053C120.01 84.1153 119.85 84.4153 119.61 84.6253C119.38 84.8353 119.17 85.0853 118.93 85.2953C118.69 85.5053 118.47 85.7253 118.23 85.9353C117.99 86.1353 117.7 86.2953 117.46 86.4953C117.21 86.6953 116.85 86.7553 116.6 86.9553C116.36 87.1553 116.16 87.4153 115.91 87.6053C115.66 87.8053 115.36 87.9253 115.11 88.1253C114.86 88.3253 114.61 88.5153 114.36 88.7053C114.11 88.8953 114 89.2853 113.75 89.4753C113.5 89.6653 113.19 89.7953 112.94 89.9853C112.69 90.1753 112.44 90.3653 112.18 90.5553C111.93 90.7453 111.69 90.9553 111.44 91.1553C111.19 91.3453 110.85 91.4253 110.6 91.6153C110.35 91.8153 110.01 91.8853 109.76 92.0853C109.51 92.2853 109.44 92.7153 109.19 92.9153C108.94 93.1153 108.62 93.2253 108.37 93.4253C108.12 93.6253 107.93 93.9053 107.68 94.1053C107.43 94.3053 107.07 94.3653 106.82 94.5653C106.56 94.7653 106.26 94.8953 106.01 95.0953C105.76 95.2953 105.48 95.4553 105.23 95.6553C104.97 95.8553 104.87 96.2353 104.61 96.4353C104.36 96.6353 104.06 96.7653 103.81 96.9653C103.56 97.1653 103.3 97.3553 103.05 97.5553C102.8 97.7553 102.54 97.9453 102.28 98.1453C102.03 98.3453 101.86 98.6453 101.61 98.8453C101.36 99.0453 101.1 99.2353 100.85 99.4353C100.6 99.6353 100.25 99.7053 99.9998 99.9053C99.7498 100.105 99.5098 100.325 99.2598 100.525C99.0198 100.725 98.8198 100.995 98.5698 101.195C98.3198 101.395 98.1497 101.705 97.8997 101.905C97.6598 102.105 97.4197 102.325 97.1697 102.535C96.9297 102.735 96.6097 102.865 96.3698 103.065C96.1198 103.265 95.9497 103.575 95.7097 103.775C95.4597 103.985 95.1198 104.075 94.8798 104.285C94.6298 104.495 94.4798 104.805 94.2298 105.015C93.9798 105.225 93.5598 105.225 93.3098 105.435C93.0598 105.645 92.9197 105.985 92.6697 106.195C92.4197 106.405 92.0898 106.525 91.8398 106.735C91.5998 106.945 91.4797 107.315 91.2397 107.525C90.9897 107.735 90.5798 107.765 90.3398 107.975C90.0898 108.185 89.8297 108.375 89.5797 108.595C89.3297 108.805 89.2298 109.185 88.9798 109.395C88.7298 109.605 88.3597 109.675 88.1097 109.885C87.8697 110.095 87.5898 110.275 87.3398 110.485C87.0998 110.695 87.0298 111.115 86.7798 111.325C86.5398 111.535 86.2897 111.755 86.0497 111.965C85.7997 112.175 85.5798 112.425 85.3398 112.635C85.0898 112.845 84.8197 113.035 84.5797 113.245C84.3297 113.455 84.1097 113.695 83.8597 113.915C83.6097 114.125 83.2798 114.235 83.0298 114.455C82.7898 114.665 82.4998 114.835 82.2498 115.045C82.0098 115.255 81.6897 115.395 81.4497 115.605C81.1997 115.815 81.1697 116.275 80.9197 116.485C80.6797 116.695 80.3597 116.835 80.1097 117.045C79.8697 117.255 79.5098 117.345 79.2598 117.555C79.0198 117.765 78.7198 117.915 78.4698 118.135C78.2198 118.355 78.1497 118.755 77.8997 118.965C77.6497 119.175 77.2297 119.185 76.9897 119.405C76.7397 119.615 76.5197 119.865 76.2697 120.075C76.0197 120.295 75.7798 120.535 75.5098 120.735C75.2398 120.935 75.0898 121.305 74.8098 121.485C74.5298 121.675 74.1298 121.665 73.8398 121.835C73.5397 122.005 73.2498 122.145 72.9398 122.295C72.6398 122.445 72.4198 122.765 72.0998 122.895C71.7898 123.015 71.4198 122.995 71.0998 123.105C70.7798 123.205 70.4797 123.235 70.1697 123.275C69.8497 123.305 69.5498 123.365 69.2298 123.335C68.9198 123.305 68.5498 123.455 68.2298 123.365C67.9398 123.285 67.7198 122.915 67.4098 122.795C67.1098 122.675 66.7197 122.795 66.4197 122.675C66.1197 122.555 65.8798 122.275 65.5898 122.155C65.2897 122.035 64.9498 122.025 64.6497 121.905C64.3497 121.785 64.0697 121.625 63.7697 121.505C63.4697 121.385 63.1798 121.265 62.8798 121.145C62.5898 121.015 62.2298 121.015 61.9398 120.875C61.6498 120.735 61.4098 120.495 61.1298 120.345C60.8498 120.195 60.5898 119.995 60.3098 119.825C60.0398 119.665 59.7097 119.575 59.4497 119.385C59.1897 119.205 58.9597 118.965 58.6997 118.765C58.4597 118.565 58.3898 118.165 58.1497 117.935C57.8997 117.705 57.6098 117.515 57.3698 117.295C57.1198 117.065 56.7897 116.915 56.5497 116.695C56.2897 116.475 56.1097 116.175 55.8597 115.955C55.5997 115.735 55.2598 115.625 54.9998 115.405C54.7398 115.185 54.4897 114.965 54.2397 114.755C53.9797 114.545 53.8198 114.205 53.5698 113.985C53.3098 113.775 52.8597 113.785 52.6097 113.575C52.3497 113.365 52.0798 113.165 51.8198 112.945C51.5698 112.735 51.3498 112.475 51.0898 112.255C50.8398 112.045 50.6997 111.685 50.4497 111.465C50.1897 111.255 49.8097 111.185 49.5497 110.955C49.2997 110.735 49.0898 110.475 48.8398 110.245C48.5998 110.035 48.3398 109.805 48.0698 109.585C47.8098 109.375 47.5398 109.185 47.2598 108.965C46.9998 108.755 46.8497 108.395 46.5797 108.185C46.3197 107.985 46.0498 107.765 45.7798 107.555C45.5098 107.355 45.1798 107.225 44.9098 107.025C44.6398 106.815 44.2098 106.815 43.9398 106.615C43.6698 106.405 43.3898 106.205 43.1298 106.005C42.8498 105.795 42.7097 105.425 42.4497 105.225C42.1697 105.005 41.9897 104.695 41.7397 104.495C41.4697 104.275 41.0398 104.265 40.7898 104.035C40.5298 103.805 40.3398 103.505 40.0998 103.275C39.8498 103.035 39.6297 102.785 39.3897 102.545C39.1497 102.305 38.8997 102.075 38.6697 101.835C38.4297 101.595 38.2998 101.245 38.0598 101.005C37.8298 100.765 37.4598 100.655 37.2198 100.415C36.9798 100.175 36.7498 99.9353 36.4998 99.7053C36.2498 99.4753 36.0698 99.1753 35.8098 98.9553C35.5598 98.7353 35.2398 98.5853 34.9698 98.3753C34.7298 98.1853 34.5298 97.9053 34.2598 97.6953C34.0098 97.5053 33.6698 97.4053 33.3997 97.1953C33.1497 96.9953 32.9798 96.6853 32.7198 96.4753C32.4598 96.2753 32.0798 96.2353 31.8198 96.0253C31.5598 95.8253 31.3397 95.5653 31.0797 95.3653C30.8197 95.1653 30.6597 94.8353 30.3997 94.6353C30.1297 94.4353 29.9297 94.1453 29.6797 93.9553C29.4097 93.7553 29.0297 93.7053 28.7697 93.5153C28.4997 93.3153 28.2097 93.1453 27.9597 92.9653C27.6697 92.7553 27.4197 92.5453 27.1797 92.3653C26.9197 92.1853 26.7198 91.9053 26.4698 91.7253C26.2098 91.5353 25.8697 91.4653 25.6197 91.2753C25.3597 91.0853 25.2598 90.7053 25.0098 90.5053C24.7598 90.3053 24.3498 90.3253 24.0998 90.1253C23.8498 89.9253 23.7897 89.5053 23.5497 89.3053C23.2997 89.1053 22.9698 89.0053 22.7298 88.8053C22.4898 88.6053 22.2297 88.4153 21.9897 88.2053C21.7497 87.9953 21.4297 87.8753 21.1997 87.6653C20.9597 87.4553 20.8497 87.1053 20.6097 86.8953C20.3797 86.6853 20.0498 86.5753 19.8098 86.3653C19.5798 86.1553 19.3497 85.9353 19.1097 85.7253C18.8797 85.5153 18.6597 85.2953 18.4197 85.0753C18.1897 84.8653 17.8698 84.7453 17.6298 84.5353C17.3998 84.3253 17.3197 83.9353 17.0797 83.7253C16.8397 83.5153 16.4698 83.4653 16.2298 83.2553C15.9898 83.0453 15.8597 82.7153 15.6198 82.5153C15.3798 82.3153 15.0298 82.2453 14.7798 82.0353C14.5398 81.8353 14.3897 81.5253 14.1397 81.3253C13.8897 81.1253 13.5998 80.9953 13.3398 80.7953C13.0898 80.6053 12.8498 80.3953 12.5998 80.2053C12.3098 79.9853 11.9698 79.8553 11.7198 79.6653C11.4198 79.4453 11.2298 79.1353 10.9698 78.9453C10.6698 78.7253 10.4097 78.5153 10.1497 78.3253C9.85975 78.1053 9.57976 77.9153 9.31976 77.7153C9.03976 77.5053 8.73976 77.3553 8.46976 77.1453C8.21976 76.9453 7.87976 76.8353 7.59976 76.6053C7.35976 76.4053 7.15976 76.1153 6.87976 75.8753C6.63976 75.6753 6.32974 75.5153 6.04974 75.2653C5.80974 75.0553 5.53974 74.8453 5.26974 74.5953C5.00974 74.3653 4.96975 73.9153 4.74975 73.6153C4.53975 73.3353 4.13974 73.1953 3.91974 72.9053C3.69974 72.6153 3.60974 72.2453 3.35974 72.0053C3.09974 71.7553 2.74974 71.7153 2.41974 71.5653C2.18974 71.4553 1.98974 71.0853 1.73974 70.7853C1.54974 70.5553 1.38974 70.2653 1.19974 69.9753C1.02974 69.7053 0.939742 69.3853 0.799742 69.0953C0.659742 68.7953 0.339745 68.5653 0.239745 68.2653C0.129745 67.9353 0.199758 67.5653 0.159758 67.2753C0.109758 66.8953 -0.0702467 66.5053 0.0297533 66.2553C0.139753 65.9853 0.419752 65.7753 0.559752 65.5153C0.699752 65.2553 0.759737 64.9353 0.919737 64.6853C1.08974 64.4353 1.42976 64.3253 1.62976 64.1053C1.85976 63.8653 1.94975 63.5053 2.14975 63.2653C2.35975 63.0153 2.66975 62.8453 2.86975 62.5953C3.06975 62.3353 3.12976 61.9853 3.31976 61.7153C3.50976 61.4453 3.64974 61.1553 3.82974 60.8853C4.00974 60.6153 4.37976 60.4753 4.56976 60.2153C4.74976 59.9453 4.83975 59.6153 5.02975 59.3553C5.20975 59.0953 5.27977 58.7453 5.47977 58.4753C5.66977 58.2153 6.12974 58.1653 6.32974 57.9053C6.52974 57.6553 6.64975 57.3453 6.86975 57.0953C7.07975 56.8553 7.34975 56.6753 7.58975 56.4453C7.80975 56.2153 7.85975 55.8253 8.08975 55.5953C8.30975 55.3653 8.75977 55.3553 8.97977 55.1353C9.19977 54.9053 9.42976 54.6853 9.65976 54.4553C9.87976 54.2253 9.98976 53.8853 10.2198 53.6553C10.4498 53.4253 10.7798 53.3053 10.9998 53.0753C11.2298 52.8453 11.2898 52.4553 11.5098 52.2253C11.7298 51.9953 12.0598 51.8753 12.2898 51.6453C12.5198 51.4153 12.7798 51.2353 13.0098 51.0053C13.2298 50.7753 13.3797 50.4753 13.6097 50.2453C13.8297 50.0153 14.0497 49.7853 14.2697 49.5553C14.4997 49.3253 14.8098 49.1853 15.0298 48.9653C15.2498 48.7353 15.4697 48.5053 15.6997 48.2753C15.9297 48.0453 15.9998 47.6653 16.2198 47.4453C16.4498 47.2153 16.7598 47.0753 16.9798 46.8453C17.2098 46.6153 17.3398 46.2953 17.5598 46.0653C17.7898 45.8353 18.1898 45.7853 18.4098 45.5653C18.6398 45.3353 18.8197 45.0653 19.0497 44.8453C19.2697 44.6153 19.5497 44.4453 19.7697 44.2153C19.9997 43.9853 20.1997 43.7353 20.4297 43.5153C20.6597 43.2853 20.9497 43.1053 21.1797 42.8753C21.4097 42.6453 21.4797 42.2553 21.7097 42.0153C21.9497 41.7853 22.0798 41.4553 22.3098 41.2253C22.5498 40.9953 22.7597 40.7353 22.9897 40.5053C23.2197 40.2753 23.6997 40.2853 23.9297 40.0553C24.1597 39.8253 24.2597 39.4553 24.4897 39.2153C24.7197 38.9853 24.8897 38.6853 25.1197 38.4553C25.3597 38.2253 25.7098 38.1153 25.9398 37.8753C26.1698 37.6453 26.4298 37.4353 26.6598 37.2053C26.8998 36.9753 26.9598 36.5653 27.1898 36.3353C27.4298 36.1053 27.8698 36.0853 28.0998 35.8553C28.3398 35.6253 28.6197 35.4553 28.8597 35.2253C29.0897 34.9953 29.1698 34.6053 29.4098 34.3753C29.6498 34.1453 30.0398 34.0553 30.2798 33.8253C30.5198 33.5953 30.6698 33.2553 30.9098 33.0253C31.1498 32.7953 31.4798 32.6453 31.7198 32.4153C31.9698 32.1853 32.0998 31.8353 32.3398 31.5953C32.5898 31.3653 32.7298 31.0253 32.9698 30.7953C33.2198 30.5653 33.4497 30.3253 33.6997 30.0953C33.9497 29.8653 34.2298 29.6753 34.4798 29.4453C34.7198 29.2153 34.9597 28.9853 35.2097 28.7553C35.4597 28.5253 35.9197 28.5353 36.1697 28.3053C36.4197 28.0753 36.5898 27.7653 36.8398 27.5353C37.0898 27.3053 37.3297 27.0753 37.5797 26.8453C37.8197 26.6353 38.0297 26.3853 38.2697 26.1753C38.5097 25.9653 38.7598 25.7553 38.9998 25.5453C39.2298 25.3353 39.4097 25.0453 39.6497 24.8353C39.8898 24.6253 40.2398 24.5353 40.4798 24.3253C40.7198 24.1153 40.8697 23.8053 41.1097 23.5853C41.3497 23.3753 41.5798 23.1453 41.8198 22.9353C42.0598 22.7253 42.2998 22.5153 42.5398 22.3053C42.7798 22.0953 42.9397 21.7853 43.1797 21.5753C43.4097 21.3553 43.7097 21.2053 43.9497 20.9953C44.1897 20.7853 44.4397 20.5853 44.6797 20.3653C44.9198 20.1553 45.1398 19.9153 45.3698 19.7053C45.6098 19.4953 45.8298 19.2453 46.0598 19.0353C46.2998 18.8253 46.5798 18.6553 46.8198 18.4453C47.0598 18.2353 47.4297 18.1553 47.6697 17.9453C47.8997 17.7353 47.9397 17.2853 48.1697 17.0753C48.4097 16.8653 48.8198 16.8353 49.0598 16.6153C49.2998 16.3953 49.4498 16.0953 49.6898 15.8753C49.9198 15.6653 50.0998 15.3753 50.3398 15.1553C50.5698 14.9453 50.8697 14.7853 51.1097 14.5753C51.3497 14.3653 51.5198 14.0753 51.7598 13.8653C51.9998 13.6553 52.4597 13.6953 52.6997 13.4753C52.9397 13.2653 52.9297 12.7753 53.1697 12.5653C53.4097 12.3553 53.7898 12.2953 54.0298 12.0753C54.2698 11.8653 54.3898 11.5253 54.6298 11.3053C54.8698 11.0953 55.1497 10.9353 55.3897 10.7253C55.6197 10.5153 55.8298 10.2653 56.0598 10.0553C56.2998 9.84531 56.7197 9.84531 56.9497 9.63531C57.1897 9.42531 57.3498 9.12531 57.5898 8.91531C57.8198 8.70531 58.0297 8.46531 58.2697 8.26531C58.5097 8.05531 58.7698 7.87531 59.0098 7.66531C59.2498 7.45531 59.5798 7.35531 59.8198 7.15531C60.0598 6.95531 60.1097 6.51532 60.3597 6.31532C60.5997 6.11532 60.9697 6.06532 61.2097 5.86532C61.4597 5.66532 61.7198 5.48531 61.9698 5.29531C62.2098 5.09531 62.3498 4.76532 62.5998 4.56532C62.8498 4.37532 63.1797 4.27532 63.4297 4.08532C63.6797 3.89532 63.8198 3.54531 64.0698 3.35531C64.3298 3.16531 64.7297 3.19532 64.9897 3.00532C65.2497 2.82532 65.5397 2.68531 65.7997 2.51531C66.0597 2.33531 66.2897 2.10531 66.5497 1.93531C66.9197 1.68531 67.2397 1.34532 67.6097 1.09532C67.8797 0.915316 68.0897 0.645314 68.3597 0.515314C68.6397 0.375314 68.9897 0.34532 69.2697 0.25532C69.5697 0.15532 69.8898 0.0953175 70.1898 0.0653175C70.4998 0.0253175 70.8198 -0.0146801 71.1298 0.00531994C71.4298 0.0353199 71.7298 0.15531 72.0398 0.24531C72.3198 0.32531 72.5897 0.485321 72.8897 0.615321C73.1597 0.735321 73.3597 0.995308 73.6397 1.16531C73.9197 1.33531 74.2398 1.43532 74.5098 1.61532C74.7898 1.79532 75.2398 1.72531 75.5098 1.91531C75.7798 2.10531 75.9397 2.45531 76.1997 2.65531C76.4697 2.85531 76.8398 2.91531 77.0998 3.12531C77.3498 3.33531 77.4398 3.74531 77.6898 3.96531C77.9298 4.18531 78.2497 4.32531 78.4897 4.54531C78.7297 4.76531 78.9098 5.05532 79.1497 5.28532C79.3798 5.51532 79.5298 5.82532 79.7598 6.06532C79.9898 6.30532 80.2798 6.48532 80.4998 6.72532C80.7098 6.96532 80.9098 7.22531 81.1198 7.46531C81.3398 7.70531 81.5098 7.98532 81.7298 8.22532C81.9498 8.46532 82.1997 8.67531 82.4197 8.91531C82.6397 9.15531 82.9597 9.29532 83.1797 9.53532C83.3997 9.77532 83.6097 10.0253 83.8297 10.2653C84.0497 10.5053 84.1597 10.8353 84.3897 11.0753C84.6097 11.3153 84.9297 11.4553 85.1497 11.6953C85.3698 11.9353 85.5697 12.1853 85.7997 12.4253C86.0197 12.6653 86.2897 12.8453 86.5197 13.0853C86.7397 13.3253 86.8398 13.6653 87.0698 13.9053C87.2898 14.1453 87.5898 14.3053 87.8098 14.5353C88.0398 14.7753 88.1498 15.1053 88.3798 15.3453C88.5998 15.5753 89.0298 15.6153 89.2498 15.8553C89.4798 16.0953 89.4497 16.5553 89.6797 16.7953C89.8997 17.0353 90.1198 17.2753 90.3398 17.5153C90.5598 17.7553 91.0098 17.7753 91.2298 18.0053C91.4598 18.2453 91.6598 18.5053 91.8798 18.7353C92.1098 18.9653 92.3998 19.1353 92.6298 19.3753C92.8498 19.6153 92.9598 19.9553 93.1898 20.1853C93.4098 20.4153 93.6697 20.6253 93.8997 20.8553C94.1198 21.0853 94.3597 21.3153 94.5898 21.5453C94.8098 21.7753 94.8398 22.1953 95.0698 22.4353C95.2998 22.6753 95.6697 22.7553 95.8997 22.9953C96.1198 23.2253 96.3597 23.4553 96.5797 23.6853C96.8097 23.9153 97.0398 24.1553 97.2598 24.3853C97.4798 24.6253 97.7397 24.8253 97.9597 25.0653C98.1898 25.2953 98.3098 25.6353 98.5298 25.8653C98.7498 26.1053 98.9297 26.3853 99.1497 26.6253C99.3698 26.8653 99.7097 26.9953 99.9297 27.2353C100.15 27.4753 100.22 27.8553 100.44 28.0853C100.66 28.3153 101.09 28.3653 101.31 28.6053C101.53 28.8453 101.82 29.0253 102.04 29.2553C102.26 29.4953 102.25 29.9453 102.47 30.1853C102.69 30.4253 102.92 30.6553 103.14 30.8953C103.36 31.1353 103.54 31.4153 103.76 31.6553C103.97 31.8953 104.46 31.8953 104.68 32.1353C104.9 32.3753 104.86 32.8553 105.08 33.0953C105.3 33.3353 105.7 33.4253 105.92 33.6753C106.14 33.9153 106.26 34.2553 106.48 34.4953C106.71 34.7353 106.88 35.0253 107.1 35.2653C107.32 35.5053 107.76 35.5553 107.98 35.7953C108.21 36.0353 108.35 36.3553 108.57 36.5953C108.79 36.8353 109.08 37.0253 109.3 37.2653C109.52 37.5053 109.55 37.9353 109.77 38.1753C109.99 38.4153 110.24 38.6353 110.46 38.8753C110.68 39.1153 111.03 39.2453 111.26 39.4853C111.48 39.7253 111.53 40.1253 111.75 40.3653C111.97 40.6053 112.43 40.6353 112.65 40.8753C112.87 41.1153 112.91 41.5353 113.13 41.7753C113.35 42.0153 113.69 42.1553 113.91 42.3953C114.13 42.6453 114.41 42.8253 114.63 43.0753C114.85 43.3253 115.05 43.5753 115.27 43.8253C115.49 44.0753 115.48 44.5153 115.7 44.7653C115.92 45.0153 116.14 45.2553 116.36 45.5053C116.58 45.7553 116.97 45.8453 117.19 46.0953C117.4 46.3453 117.41 46.7753 117.63 47.0153C117.84 47.2653 118.12 47.4553 118.33 47.7053C118.55 47.9553 118.77 48.1953 118.98 48.4453C119.19 48.6953 119.53 48.8453 119.74 49.0953C119.95 49.3453 120.19 49.5753 120.4 49.8253C120.61 50.0753 120.62 50.4953 120.83 50.7553C121.04 51.0053 121.39 51.1453 121.6 51.3953C121.81 51.6553 121.92 51.9853 122.12 52.2453C122.32 52.4853 122.56 52.6953 122.76 52.9353C122.96 53.1753 123.12 53.4553 123.32 53.6953C123.52 53.9353 123.76 54.1453 123.96 54.3853C124.17 54.6253 124.52 54.7253 124.73 54.9553C124.94 55.1853 125.08 55.4853 125.29 55.7153C125.5 55.9453 125.63 56.2453 125.85 56.4753C126.06 56.7053 126.18 57.0153 126.4 57.2453C126.61 57.4753 126.82 57.7053 127.04 57.9353C127.25 58.1653 127.63 58.2353 127.85 58.4553C128.06 58.6853 128.28 58.9053 128.5 59.1353C128.72 59.3653 128.88 59.6453 129.09 59.8653C129.31 60.0953 129.47 60.3753 129.68 60.6053C129.9 60.8353 130.13 61.0453 130.35 61.2753C130.56 61.5053 130.71 61.7853 130.92 62.0153C131.19 62.3053 131.49 62.5653 131.74 62.8653C132 63.1653 132.44 63.2753 132.72 63.5553C132.94 63.7753 133.06 64.0953 133.21 64.3353C133.37 64.5853 133.4 64.9053 133.51 65.1853C133.61 65.4553 133.63 65.7353 133.69 66.0353C133.74 66.3153 133.96 66.5853 133.98 66.8953C134 67.1753 134.07 67.4753 134.08 67.7853" fill="#EBE8DC"/>
</svg>
