<svg width="90" height="57" viewBox="0 0 90 57" fill="none" xmlns="http://www.w3.org/2000/svg">
<path d="M44.1832 48.0275C44.0662 48.1497 44.0356 48.2415 43.9288 48.3586C43.8118 48.4809 43.6693 48.5675 43.5574 48.6847C43.4455 48.807 43.3387 48.9344 43.2318 49.0465C43.1199 49.1637 42.9673 49.2452 42.8554 49.3573C42.7384 49.4745 42.6926 49.6579 42.5756 49.77C42.4382 49.9025 42.2042 49.9229 42.0618 50.0502C41.9193 50.1776 41.7769 50.2948 41.6294 50.412C41.4818 50.5292 41.4309 50.7788 41.2834 50.8909C41.1461 50.9928 40.9934 51.0744 40.851 51.1763C40.7086 51.2731 40.4949 51.2629 40.3524 51.3597C40.21 51.4565 40.093 51.589 39.9505 51.6807C39.8081 51.7724 39.6962 51.9252 39.5537 52.0119C39.4062 52.1036 39.2333 52.1647 39.0857 52.2513C38.9331 52.3379 38.7957 52.45 38.638 52.5316C38.4854 52.6131 38.287 52.6131 38.1293 52.6895C37.9716 52.7659 37.8139 52.8373 37.6562 52.9086C37.4985 52.9799 37.3306 53.0411 37.1678 53.1022C37.005 53.1634 36.8626 53.2755 36.6947 53.3366C36.5319 53.3977 36.3895 53.52 36.2216 53.5761C36.0537 53.6321 35.8705 53.6372 35.7078 53.6933C35.5501 53.7442 35.3974 53.7952 35.2397 53.8461C35.0871 53.9022 34.9498 54.0092 34.7971 54.0652C34.6445 54.1212 34.4716 54.1263 34.3138 54.1824C34.1561 54.2384 33.9883 54.2384 33.8306 54.2792C33.683 54.32 33.5304 54.3454 33.3829 54.3811C33.2353 54.4219 33.0725 54.4015 32.925 54.4372C32.7775 54.4728 32.635 54.5492 32.4875 54.5798C32.34 54.6155 32.2026 54.7225 32.0551 54.7581C31.9025 54.7887 31.7346 54.7276 31.582 54.7581C31.4141 54.7938 31.2513 54.8193 31.0834 54.8499C30.9155 54.8855 30.7731 55.0231 30.6052 55.0588C30.4373 55.0893 30.2593 55.0588 30.0914 55.0944C29.9235 55.125 29.7607 55.181 29.5929 55.2065C29.425 55.2371 29.2673 55.3135 29.0994 55.339C28.9315 55.3645 28.7636 55.395 28.5958 55.4205C28.4279 55.446 28.2651 55.5122 28.0972 55.5377C27.9293 55.5632 27.7614 55.5937 27.5936 55.6192C27.4257 55.6396 27.2425 55.5479 27.0746 55.5683C26.9068 55.5887 26.7389 55.6039 26.571 55.6243C26.4031 55.6396 26.2353 55.6906 26.0674 55.7058C25.8995 55.7211 25.7367 55.8128 25.5688 55.823C25.4009 55.8383 25.228 55.8434 25.0601 55.8536C24.8922 55.8638 24.7142 55.7364 24.5412 55.7415C24.3733 55.7517 24.2054 55.7772 24.0325 55.7823C23.8646 55.7874 23.6916 55.767 23.5237 55.7721C23.3559 55.7721 23.188 55.7568 23.0252 55.7568C22.8573 55.7568 22.6894 55.9402 22.5215 55.9351C22.3537 55.9351 22.1909 55.7619 22.0281 55.7517C21.8602 55.7415 21.6923 55.7772 21.5244 55.7619C21.3565 55.7466 21.1938 55.7262 21.0259 55.7109C20.858 55.6906 20.6952 55.6447 20.5324 55.6243C20.3696 55.5988 20.2017 55.5785 20.039 55.553C19.8762 55.5224 19.7083 55.5122 19.5455 55.4766C19.3827 55.4409 19.2301 55.3492 19.0724 55.3084C18.9096 55.2728 18.7213 55.3441 18.5586 55.2982C18.3958 55.2575 18.2584 55.1301 18.1007 55.0842C17.9379 55.0384 17.7853 54.9874 17.6225 54.9365C17.4648 54.8855 17.3122 54.8193 17.1545 54.7632C16.9968 54.7072 16.8492 54.6308 16.6915 54.5696C16.5338 54.5085 16.3354 54.5594 16.1828 54.4932C16.0302 54.427 15.8572 54.4015 15.7046 54.3302C15.552 54.2639 15.435 54.1162 15.2823 54.0448C15.1348 53.9735 15.028 53.8155 14.8754 53.7391C14.7278 53.6627 14.5803 53.5812 14.4379 53.5047C14.2903 53.4232 14.0512 53.5047 13.9088 53.4232C13.7663 53.3417 13.6951 53.1277 13.5527 53.036C13.4102 52.9494 13.1864 52.9901 13.0439 52.8984C12.9015 52.8067 12.871 52.557 12.7336 52.4653C12.5963 52.3736 12.4335 52.3176 12.2961 52.2259C12.1588 52.129 12.0519 52.0017 11.9196 51.8998C11.7874 51.803 11.6246 51.7418 11.4923 51.6399C11.36 51.538 11.2532 51.4157 11.121 51.3087C10.9938 51.2017 10.8411 51.1304 10.714 51.0234C10.5868 50.9164 10.4952 50.7737 10.3731 50.6616C10.251 50.5496 10.1035 50.468 9.9814 50.3559C9.8593 50.2438 9.75756 50.1114 9.64055 49.9942C9.52355 49.877 9.35566 49.8159 9.23865 49.6936C9.12165 49.5764 8.95886 49.5 8.84694 49.3828C8.72993 49.2656 8.6231 49.1382 8.51118 49.0159C8.39926 48.8936 8.3382 48.7255 8.23137 48.5981C8.12454 48.4758 7.97701 48.379 7.87018 48.2516C7.76334 48.1243 7.67686 47.9816 7.57003 47.8542C7.46319 47.7268 7.35129 47.6046 7.24445 47.4772C7.14271 47.3498 7.09183 47.1766 6.99009 47.0492C6.88834 46.9167 6.80185 46.7741 6.70518 46.6416C6.60853 46.5091 6.52205 46.3664 6.42539 46.2289C6.32873 46.0964 6.19138 45.9894 6.09472 45.8518C5.99807 45.7143 5.95737 45.541 5.86071 45.3984C5.76914 45.2608 5.59108 45.1742 5.4995 45.0315C5.40793 44.8889 5.27058 44.7768 5.1841 44.629C5.09761 44.4863 5.07217 44.3029 4.99077 44.1552C4.90429 44.0074 4.81781 43.8647 4.73641 43.717C4.65502 43.5692 4.54819 43.4367 4.47188 43.2839C4.39557 43.1361 4.41084 42.9374 4.33453 42.7846C4.25822 42.6317 4.19717 42.4789 4.12595 42.326C4.05472 42.1731 3.91228 42.056 3.84614 41.898C3.77492 41.7452 3.71388 41.5872 3.64774 41.4343C3.58161 41.2815 3.49513 41.1337 3.42899 40.9758C3.36286 40.8178 3.25602 40.6803 3.19497 40.5223C3.13392 40.3644 3.03727 40.2217 2.98131 40.0638C2.92535 39.9058 3.01182 39.6918 2.95586 39.5339C2.89991 39.3759 2.83378 39.2231 2.77782 39.06C2.72186 38.9021 2.54379 38.7849 2.49292 38.6218C2.44205 38.4588 2.56924 38.2448 2.51837 38.0817C2.4675 37.9187 2.42679 37.7608 2.381 37.5977C2.33522 37.4347 2.16735 37.3073 2.12156 37.1442C2.07577 36.9863 2.12155 36.8029 2.08085 36.6449C2.03507 36.487 2.01472 36.3239 1.96893 36.166C1.92824 36.008 1.9028 35.845 1.85701 35.687C1.81631 35.5291 1.74 35.3813 1.69931 35.2183C1.65861 35.0603 1.64844 34.8922 1.60774 34.7342C1.56705 34.5763 1.45004 34.4387 1.40935 34.2757C1.36864 34.1177 1.24145 33.9802 1.20584 33.8171C1.16514 33.6592 1.25671 33.4656 1.22111 33.3076C1.18549 33.1497 1.09393 33.0019 1.05832 32.8389C1.02271 32.6809 0.920966 32.5331 0.885359 32.3752C0.849745 32.2121 0.895522 32.0389 0.859908 31.8759C0.824301 31.7128 0.844649 31.5447 0.814124 31.3816C0.783606 31.2186 0.727637 31.0657 0.697112 30.9027C0.666586 30.7397 0.651328 30.5766 0.62081 30.4187C0.590285 30.2556 0.585196 30.0926 0.554671 29.9295C0.524146 29.7614 0.351187 29.6187 0.325751 29.4557C0.300315 29.2875 0.381713 29.1092 0.361365 28.9411C0.341017 28.7729 0.203658 28.6201 0.18331 28.4519C0.162963 28.2838 0.152785 28.1157 0.137526 27.9475C0.122267 27.7794 0.19348 27.6061 0.18331 27.438C0.173133 27.2699 0.101905 27.1068 0.091727 26.9387C0.0815494 26.7705 0.162947 26.5973 0.157866 26.4292C0.152777 26.261 0.00524788 26.0929 0.000159084 25.9247C-0.00492971 25.7566 0.117171 25.5885 0.117171 25.4203C0.117171 25.2522 0.0764683 25.084 0.0815571 24.9159C0.086646 24.7478 0.132438 24.5796 0.137526 24.4115C0.147704 24.2433 0.137519 24.0752 0.147696 23.9071C0.157866 23.7389 0.117179 23.5657 0.137526 23.3976C0.152785 23.2294 0.162963 23.0613 0.18331 22.8931C0.203658 22.725 0.346091 22.5721 0.366446 22.404C0.386794 22.2359 0.391891 22.0677 0.422416 21.8996C0.447852 21.7314 0.519073 21.5735 0.549598 21.4104C0.580115 21.2423 0.442748 21.0436 0.473273 20.8806C0.508887 20.7073 0.580123 20.5443 0.615729 20.371C0.651343 20.1978 0.661506 20.0246 0.697112 19.8513C0.732726 19.6781 0.844649 19.5252 0.875175 19.352C0.910781 19.1788 1.02779 19.0259 1.0634 18.8527C1.09901 18.6795 0.971831 18.4757 1.00745 18.3024C1.04306 18.1292 1.22111 17.9916 1.26181 17.8184C1.3025 17.6502 1.29742 17.4668 1.34321 17.2987C1.38899 17.1305 1.49073 16.9777 1.5416 16.8095C1.58739 16.6516 1.4704 16.4376 1.52127 16.2847C1.57214 16.1268 1.79089 16.0249 1.84685 15.8669C1.9028 15.709 1.87737 15.5256 1.93333 15.3727C1.99438 15.2199 1.98421 15.0313 2.04526 14.8785C2.1063 14.7256 2.25892 14.6084 2.33014 14.4556C2.39628 14.3027 2.54381 14.1906 2.61503 14.0429C2.68625 13.8951 2.62012 13.676 2.69643 13.5283C2.77274 13.3805 2.96096 13.2939 3.04236 13.1512C3.12376 13.0035 3.10341 12.8099 3.1899 12.6621C3.27129 12.5194 3.33742 12.3615 3.4239 12.2239C3.51038 12.0813 3.72914 12.0252 3.82071 11.8876C3.91228 11.7501 3.98859 11.6023 4.08017 11.4647C4.17174 11.3272 4.15647 11.1132 4.25314 10.9807C4.34979 10.8482 4.52784 10.7718 4.62958 10.6393C4.73133 10.5069 4.79746 10.354 4.89921 10.2215C5.00095 10.0941 5.04674 9.91072 5.14848 9.78334C5.25532 9.65596 5.42319 9.58463 5.53003 9.45725C5.63686 9.33497 5.77932 9.23816 5.89123 9.11588C6.00316 8.9936 6.13032 8.89169 6.24734 8.76941C6.35925 8.64713 6.47627 8.52994 6.58819 8.41275C6.7052 8.29556 6.71536 8.07647 6.83237 7.95928C6.94938 7.84209 7.08674 7.74529 7.20375 7.6281C7.32075 7.516 7.4632 7.4192 7.58529 7.3071C7.70739 7.19501 7.89562 7.15425 8.01772 7.04216C8.13981 6.93006 8.19577 6.74154 8.32295 6.63455C8.45013 6.52755 8.53661 6.3696 8.6638 6.2626C8.79098 6.1556 9.03008 6.18617 9.16235 6.08427C9.29462 5.98237 9.4218 5.88047 9.55407 5.77856C9.68633 5.67666 9.73213 5.46266 9.86439 5.36076C9.99667 5.26395 10.1289 5.15696 10.2612 5.06015C10.3935 4.96334 10.5664 4.91239 10.7038 4.81558C10.8412 4.72387 11.0345 4.71368 11.1718 4.62197C11.3092 4.53025 11.3804 4.33154 11.5228 4.24493C11.6653 4.15321 11.8688 4.1685 12.0112 4.08188C12.1537 3.99526 12.23 3.80165 12.3724 3.71503C12.5149 3.62841 12.6421 3.51632 12.7896 3.4348C12.932 3.35328 13.166 3.42461 13.3085 3.34309C13.456 3.26156 13.5272 3.04757 13.6748 2.97114C13.8223 2.89471 13.9597 2.79281 14.1072 2.71638C14.2547 2.63996 14.4786 2.71638 14.6312 2.64505C14.7787 2.56863 14.8754 2.39029 15.028 2.31896C15.1755 2.24763 15.3332 2.18139 15.4807 2.11006C15.6334 2.03873 15.7707 1.94702 15.9233 1.87569C16.076 1.80945 16.2591 1.81454 16.4117 1.74831C16.5643 1.68207 16.7068 1.59545 16.8594 1.52922C17.012 1.46298 17.2053 1.48845 17.3579 1.42731C17.5157 1.36617 17.6072 1.14708 17.7649 1.09103C17.9226 1.03499 18.1261 1.11651 18.2889 1.06556C18.4466 1.01461 18.5789 0.866849 18.7366 0.820992C18.8994 0.775136 19.0571 0.713994 19.2199 0.673233C19.3827 0.632472 19.5608 0.663043 19.7235 0.632472C19.8863 0.596806 20.0491 0.55095 20.2119 0.520379C20.3747 0.489808 20.5324 0.398095 20.6952 0.37262C20.858 0.347144 21.0411 0.423572 21.2039 0.398096C21.3718 0.377715 21.5397 0.398095 21.7025 0.377715C21.8704 0.357334 22.0179 0.173909 22.1858 0.158624C22.3537 0.143338 22.5317 0.250336 22.6945 0.235051C22.8624 0.219765 23.0303 0.240147 23.1982 0.229956C23.366 0.219766 23.5237 0.0669118 23.6916 0.0567216C23.8595 0.0465313 24.0274 0.0618167 24.1953 0.0567216C24.3631 0.0465313 24.5259 0.00576989 24.6938 0.000674756C24.8617 -0.00442038 25.0296 0.0210557 25.1974 0.0159605C25.3653 0.0159606 25.5332 0.128053 25.696 0.128053C25.8639 0.128053 26.0318 0.00577007 26.1946 0.00577008C26.3624 0.00577009 26.5252 0.153529 26.6931 0.158624C26.861 0.158624 27.0238 0.128054 27.1917 0.138244C27.3595 0.143339 27.5274 0.0923878 27.6953 0.102578C27.8632 0.112768 28.0209 0.245242 28.1837 0.255432C28.3516 0.265622 28.5245 0.138243 28.6924 0.153529C28.8603 0.168814 29.018 0.265622 29.1808 0.280907C29.3487 0.296193 29.5115 0.316573 29.6793 0.331859C29.8421 0.352239 30.0202 0.260527 30.1881 0.280907C30.3509 0.301288 30.5137 0.37262 30.6765 0.393001C30.8392 0.413382 30.9969 0.489809 31.1648 0.515284C31.3276 0.54076 31.5057 0.479618 31.6685 0.505094C31.8313 0.530569 31.9991 0.556045 32.1619 0.581521C32.3247 0.606996 32.4824 0.688519 32.6452 0.71909C32.8131 0.749661 32.9759 0.810802 33.1438 0.851563C33.3116 0.892325 33.4744 0.933086 33.6372 0.984037C33.8 1.03499 33.9832 1.0248 34.146 1.08594C34.3088 1.14199 34.4665 1.21332 34.6242 1.27956C34.787 1.3407 34.9243 1.45279 35.082 1.51903C35.2397 1.58526 35.3873 1.68207 35.545 1.74321C35.7027 1.80435 35.9163 1.74321 36.074 1.80435C36.2318 1.87059 36.3844 1.95211 36.5421 2.01835C36.6998 2.08459 36.8575 2.15082 37.0152 2.21706C37.1729 2.28839 37.3306 2.35463 37.4832 2.42596C37.6409 2.49729 37.7885 2.58391 37.9411 2.66034C38.0937 2.73167 38.1751 2.95586 38.3277 3.03228C38.4803 3.10871 38.7143 3.03228 38.8619 3.10871C39.0145 3.18514 39.1213 3.34818 39.2739 3.4297C39.4215 3.51123 39.5588 3.61822 39.7064 3.70484C39.8539 3.78636 39.976 3.91374 40.1235 4.00546C40.271 4.09207 40.4949 4.05131 40.6322 4.14302C40.7747 4.23474 40.8306 4.45892 40.968 4.55064C41.1054 4.64744 41.3546 4.59649 41.4869 4.6933C41.6243 4.7952 41.7515 4.9073 41.8837 5.01429C42.016 5.12129 42.0312 5.37095 42.1584 5.47795C42.2856 5.59004 42.5298 5.56966 42.6519 5.68176C42.774 5.79385 42.8961 5.91613 43.0182 6.03332C43.1403 6.15051 43.2013 6.32884 43.3234 6.45112C43.4404 6.57341 43.5625 6.69059 43.6795 6.81288C43.7965 6.93516 43.8983 7.07273 44.0102 7.20011C44.1221 7.32749 44.2442 7.44468 44.351 7.57715C44.4579 7.70453 44.6359 7.78095 44.7428 7.90833C44.8496 8.04081 44.8801 8.23442 44.9819 8.36689C45.0836 8.49937 45.2718 8.5707 45.3736 8.70827C45.4753 8.84584 45.4804 9.04964 45.5771 9.18721C45.6585 9.29931 45.7551 9.47764 45.8976 9.67125C46.0095 9.54897 46.1418 9.33497 46.2588 9.21269C46.3758 9.0955 46.4877 8.96812 46.5996 8.85093C46.7166 8.73375 46.854 8.63694 46.971 8.51975C47.088 8.40256 47.2508 8.32613 47.3627 8.20385C47.4746 8.08157 47.5408 7.91343 47.6476 7.79114C47.7544 7.66377 47.8714 7.54148 47.9681 7.40901C48.0648 7.27654 48.1512 7.13387 48.253 7.00649C48.3598 6.87911 48.3903 6.6804 48.5023 6.56322C48.6142 6.44603 48.8279 6.42055 48.9449 6.30846C49.067 6.19637 49.1687 6.06899 49.2959 5.96199C49.4231 5.85499 49.5757 5.78876 49.708 5.69195C49.8402 5.59514 49.9776 5.50852 50.1098 5.41171C50.2472 5.32 50.3337 5.16205 50.4761 5.07034C50.6135 4.98372 50.7203 4.83596 50.8628 4.75444C51.0052 4.67292 51.2087 4.6933 51.3511 4.61687C51.4936 4.53535 51.6055 4.39269 51.7479 4.31626C51.8955 4.23983 52.0786 4.23474 52.2211 4.16341C52.3686 4.08698 52.4653 3.91884 52.6128 3.84751C52.7603 3.77108 52.9892 3.84751 53.1419 3.77617C53.2945 3.70484 53.4471 3.63351 53.5997 3.56218C53.7523 3.49085 53.8541 3.30233 54.0118 3.23609C54.1695 3.16985 54.3272 3.10871 54.4798 3.04757C54.6375 2.98643 54.8257 3.0119 54.9835 2.95076C55.1412 2.88962 55.2582 2.72658 55.421 2.67053C55.5787 2.61448 55.7415 2.56353 55.8992 2.51258C56.0569 2.45653 56.2298 2.43615 56.3926 2.3852C56.5554 2.33425 56.6979 2.23744 56.8607 2.18649C57.0235 2.13554 57.2168 2.19668 57.3796 2.15082C57.5424 2.09987 57.6848 1.99797 57.8476 1.94702C58.0104 1.90116 58.1579 1.79926 58.3207 1.7534C58.4733 1.70755 58.6463 1.72283 58.804 1.68207C58.9617 1.64131 59.1296 1.6566 59.2822 1.61584C59.4399 1.58017 59.5824 1.48846 59.7401 1.45789C59.8978 1.42222 60.0453 1.3356 60.203 1.30503C60.3607 1.27446 60.5235 1.25408 60.6812 1.2286C60.8389 1.20313 61.0068 1.21841 61.1645 1.19294C61.3222 1.16746 61.4748 1.10632 61.6376 1.08594C61.7953 1.06556 61.9581 1.07066 62.1209 1.05027C62.2786 1.02989 62.4516 1.11142 62.6093 1.09613C62.767 1.08085 62.9145 0.938182 63.0773 0.922896C63.2401 0.907611 63.3927 0.831184 63.5504 0.815899C63.7132 0.800614 63.8811 0.917802 64.0388 0.907612C64.1965 0.897421 64.3542 0.82609 64.517 0.82609C64.6747 0.82609 64.8426 0.790423 65.0003 0.800613C65.158 0.810804 65.3106 0.948372 65.4683 0.963658C65.626 0.978943 65.7888 0.978943 65.9465 0.999323C66.1042 1.0197 66.262 1.06047 66.4197 1.08594C66.5875 1.11142 66.7656 1.09613 66.9335 1.12161C67.1013 1.14708 67.2794 1.13689 67.4473 1.16237C67.6152 1.18784 67.783 1.22351 67.9509 1.24899C68.1188 1.27446 68.2867 1.32032 68.4546 1.34579C68.6224 1.37127 68.8005 1.3407 68.9735 1.36617C69.1413 1.39675 69.2838 1.58017 69.4517 1.61074C69.6196 1.64131 69.818 1.50374 69.9858 1.53941C70.1537 1.56998 70.3114 1.6566 70.4793 1.68717C70.6472 1.72283 70.7998 1.81964 70.9677 1.8604C71.1356 1.90116 71.3085 1.91645 71.4713 1.95721C71.6341 1.99797 71.7918 2.04383 71.9546 2.08968C72.1174 2.13554 72.2955 2.12535 72.4532 2.1763C72.6109 2.22725 72.7635 2.30877 72.9212 2.36482C73.0789 2.42087 73.2264 2.4973 73.3841 2.56353C73.5368 2.62467 73.6843 2.71129 73.8369 2.77753C73.9895 2.84377 74.1167 2.96095 74.2693 3.03229C74.4219 3.10362 74.6254 3.05776 74.7781 3.13419C74.9256 3.21061 75.0629 3.31252 75.2105 3.38894C75.358 3.46537 75.475 3.60804 75.6175 3.68956C75.765 3.77108 75.882 3.89846 76.0244 3.97998C76.1669 4.0615 76.3958 4.00546 76.5383 4.09207C76.6807 4.17869 76.7977 4.31117 76.9401 4.39778C77.0826 4.4844 77.225 4.57102 77.3675 4.66273C77.5048 4.74935 77.632 4.85125 77.7643 4.93787C77.8965 5.02449 78.0288 5.12129 78.1662 5.21301C78.2984 5.30472 78.3849 5.46267 78.5172 5.55438C78.6495 5.64609 78.797 5.71742 78.9293 5.80914C79.0615 5.90085 79.2243 5.9518 79.3566 6.04351C79.4889 6.14032 79.5855 6.27789 79.7127 6.3747C79.8399 6.47151 80.0434 6.4766 80.1706 6.57341C80.2978 6.67531 80.3283 6.8944 80.4555 6.9963C80.5826 7.09821 80.7861 7.1033 80.9082 7.2052C81.0303 7.30711 81.1524 7.41411 81.2745 7.5211C81.3966 7.6281 81.539 7.70962 81.6611 7.81662C81.7781 7.92362 81.8443 8.09176 81.9664 8.20385C82.0834 8.31595 82.1597 8.4688 82.2767 8.58089C82.3937 8.69298 82.5107 8.79998 82.6226 8.91717C82.7346 9.02926 82.8566 9.13626 82.9686 9.25345C83.0805 9.37064 83.1771 9.49802 83.284 9.61521C83.3908 9.73239 83.5078 9.84449 83.6146 9.96677C83.7215 10.0891 83.9046 10.1451 84.0064 10.2674C84.1081 10.3897 84.2353 10.4967 84.337 10.624C84.4388 10.7463 84.5507 10.8686 84.6525 10.996C84.7542 11.1234 84.7796 11.3017 84.8814 11.4342C84.978 11.5615 85.1256 11.6533 85.2222 11.7857C85.3189 11.9233 85.4308 12.0507 85.5224 12.1883C85.6139 12.3258 85.6953 12.4736 85.7818 12.6162C85.8683 12.7589 85.8022 12.9882 85.8836 13.1359C85.965 13.2786 86.1888 13.3448 86.2702 13.4926C86.3516 13.6404 86.4076 13.7983 86.489 13.941C86.5704 14.0836 86.5551 14.2874 86.6416 14.4301C86.7128 14.5524 86.7891 14.6696 86.8502 14.8021C86.9112 14.9345 87.0791 15.0008 87.1554 15.1231C87.2419 15.2606 87.1757 15.4899 87.2571 15.6275C87.3385 15.7701 87.4148 15.9077 87.4912 16.0504C87.5675 16.193 87.6794 16.3153 87.7557 16.458C87.832 16.6006 88.0304 16.6822 88.1016 16.8299C88.1729 16.9777 88.1881 17.1509 88.2593 17.2987C88.3255 17.4464 88.2644 17.6502 88.3306 17.798C88.3967 17.9458 88.5188 18.068 88.5798 18.2209C88.6409 18.3738 88.6663 18.5368 88.7223 18.6846C88.7782 18.8374 88.9614 18.9444 89.0173 19.0973C89.0682 19.2501 89.0275 19.4335 89.0784 19.5915C89.1293 19.7494 89.1089 19.9227 89.1496 20.0755C89.1954 20.2284 89.3785 20.3507 89.4192 20.5035C89.4599 20.6615 89.5159 20.8143 89.5515 20.9723C89.5871 21.1302 89.6126 21.2933 89.6431 21.4512C89.6736 21.6092 89.6787 21.7773 89.7041 21.9353C89.7296 22.0932 89.7041 22.2613 89.7296 22.4244C89.755 22.5823 89.8364 22.7352 89.8567 22.8982C89.8771 23.0562 89.9076 23.2192 89.9229 23.3823C89.9381 23.5504 89.9076 23.7186 89.9127 23.8867C89.9178 24.0548 89.8924 24.223 89.8924 24.3911C89.8924 24.5593 89.989 24.7274 89.9839 24.8955C89.9839 25.0637 90.0043 25.2318 89.9992 25.3999C89.9941 25.5681 89.9992 25.7362 89.989 25.9044C89.9788 26.0725 89.9076 26.2355 89.8974 26.4037C89.8873 26.5718 89.7753 26.7349 89.7652 26.8979C89.7601 27.061 89.8517 27.2342 89.8415 27.3972C89.8313 27.5603 89.7346 27.7233 89.7245 27.8864C89.7143 28.0494 89.6889 28.2125 89.6787 28.3806C89.6685 28.5487 89.811 28.722 89.8008 28.885C89.7906 29.0481 89.6329 29.2009 89.6176 29.3691C89.6024 29.5321 89.5617 29.6952 89.5464 29.8582C89.5312 30.0212 89.6075 30.1945 89.5871 30.3575C89.5668 30.5206 89.6482 30.6989 89.6278 30.8619C89.6075 31.025 89.5668 31.188 89.5413 31.3511C89.521 31.5141 89.3277 31.6517 89.3022 31.8147C89.2768 31.9778 89.3429 32.1561 89.3124 32.3141C89.287 32.4771 89.2768 32.6452 89.2463 32.8032C89.2157 32.9662 89.2056 33.1344 89.175 33.2923C89.1394 33.4554 89.1038 33.6133 89.0631 33.7764C89.0275 33.9394 88.9919 34.0974 88.9512 34.2604C88.9105 34.4183 88.9054 34.5916 88.8596 34.7495C88.8139 34.9075 88.5951 35.0145 88.5493 35.1724C88.4984 35.3304 88.4577 35.4934 88.4069 35.6514C88.356 35.8093 88.4527 36.0182 88.4069 36.1762C88.356 36.3341 88.1678 36.4462 88.1118 36.6042C88.0609 36.7621 88.1525 36.971 88.1016 37.129C88.0457 37.2869 87.9185 37.4194 87.8574 37.5773C87.8015 37.7353 87.8117 37.9187 87.7557 38.0716C87.6946 38.2295 87.6285 38.3824 87.5675 38.5403C87.5064 38.6932 87.364 38.8205 87.2978 38.9734C87.2368 39.1263 87.2012 39.2944 87.1351 39.4472C87.0689 39.6001 86.9926 39.7479 86.9214 39.9007C86.8552 40.0536 86.6925 40.1606 86.6212 40.3134C86.55 40.4663 86.5856 40.665 86.5093 40.8178C86.4381 40.9656 86.3058 41.0879 86.2295 41.2356C86.1532 41.3834 86.1125 41.5515 86.0311 41.6993C85.9497 41.8471 85.7767 41.9388 85.6953 42.0865C85.614 42.2343 85.6597 42.4534 85.5733 42.596C85.4868 42.7387 85.2884 42.81 85.1968 42.9527C85.1052 43.0954 85.034 43.2431 84.9373 43.3807C84.8458 43.5183 84.7339 43.6355 84.6423 43.773C84.5507 43.9106 84.4947 44.0634 84.4032 44.201C84.3116 44.3386 84.332 44.5475 84.2404 44.6851C84.1488 44.8226 84.0522 44.9551 83.9606 45.0876C83.869 45.2251 83.7266 45.3219 83.635 45.4595C83.5434 45.592 83.4722 45.7448 83.3756 45.8773C83.284 46.0098 83.1008 46.0862 83.0093 46.2187C82.9126 46.3512 82.8312 46.4938 82.7345 46.6212C82.6379 46.7537 82.5565 46.8963 82.4598 47.0288C82.3581 47.1562 82.2869 47.309 82.1851 47.4364C82.0834 47.5638 81.9155 47.6402 81.8138 47.7625C81.7069 47.8899 81.651 48.0529 81.5441 48.1752C81.4373 48.2975 81.2592 48.3586 81.1473 48.4758C81.0354 48.5981 80.9998 48.7866 80.8879 48.9038C80.7759 49.021 80.5979 49.0771 80.4809 49.1892C80.3639 49.3013 80.2316 49.3981 80.1095 49.5101C79.9874 49.6171 79.8806 49.7394 79.7534 49.8464C79.6262 49.9534 79.5397 50.1114 79.4176 50.2184C79.2905 50.3254 79.1785 50.4477 79.0514 50.5547C78.9242 50.6617 78.8326 50.8094 78.7054 50.9164C78.5782 51.0234 78.4409 51.1202 78.3137 51.2221C78.1865 51.3291 78.0593 51.4361 77.9271 51.538C77.7948 51.6399 77.5811 51.6297 77.4489 51.7316C77.3166 51.8335 77.2352 52.0017 77.1029 52.0985C76.9707 52.1953 76.8893 52.3736 76.7519 52.4653C76.6146 52.557 76.3907 52.5112 76.2483 52.5978C76.1058 52.6844 75.999 52.8271 75.8515 52.9086C75.7039 52.985 75.5208 53.0003 75.3733 53.0869C75.2308 53.1685 75.1342 53.3417 74.9917 53.4283C74.8493 53.5149 74.656 53.52 74.5135 53.6117C74.3711 53.6984 74.2184 53.7697 74.076 53.8563C73.9336 53.9429 73.8725 54.1671 73.7352 54.2537C73.5927 54.3403 73.3841 54.3251 73.2417 54.4117C73.0992 54.4983 73.0077 54.6715 72.8652 54.753C72.7024 54.8448 72.5346 54.9467 72.3616 55.0333C72.1886 55.1148 72.0207 55.2218 71.8478 55.2931C71.6697 55.3645 71.4611 55.3492 71.278 55.4001C71.1254 55.4409 70.9524 55.395 70.7998 55.4358C70.6472 55.4766 70.5353 55.6498 70.3826 55.6906C70.23 55.7313 70.0774 55.7568 69.9248 55.7976C69.7722 55.8383 69.6145 55.8536 69.4618 55.8893C69.3092 55.9249 69.177 56.0472 69.0243 56.0829C68.8717 56.1185 68.6937 56.0472 68.541 56.0778C68.3884 56.1084 68.2358 56.1491 68.0832 56.1797C67.9306 56.2052 67.7729 56.2306 67.6203 56.2561C67.4676 56.2765 67.3048 56.2255 67.1471 56.2408C66.9894 56.2561 66.8419 56.2918 66.6842 56.302C66.5265 56.3122 66.3739 56.3886 66.2111 56.4039C66.0534 56.4192 65.8855 56.358 65.7278 56.3733C65.5701 56.3937 65.4124 56.4344 65.2547 56.4548C65.097 56.4752 64.9443 56.5465 64.7866 56.5669C64.6289 56.5873 64.4712 56.623 64.3135 56.6433C64.1558 56.6637 63.9981 56.6739 63.8404 56.6943C63.6827 56.7147 63.5352 56.8166 63.3775 56.837C63.2147 56.8573 63.0264 56.6994 62.8636 56.7147C62.7009 56.73 62.5431 56.8064 62.3753 56.8217C62.2125 56.837 62.0548 56.9592 61.8869 56.9694C61.719 56.9796 61.546 56.8268 61.3832 56.837C61.2154 56.8421 61.0577 57 60.8949 57C60.727 57 60.5642 56.9847 60.3963 56.9847C60.2335 56.9847 60.0656 56.9287 59.8978 56.9287C59.7299 56.9287 59.5671 56.893 59.4043 56.8828C59.2415 56.8777 59.0736 56.9287 58.9057 56.9185C58.743 56.9083 58.5802 56.8472 58.4123 56.837C58.2495 56.8268 58.0765 56.8981 57.9086 56.8828C57.7458 56.8675 57.578 56.8573 57.4152 56.837C57.2524 56.8166 57.0998 56.6892 56.937 56.6688C56.7742 56.6484 56.6012 56.6943 56.4333 56.6688C56.2705 56.6433 56.1128 56.5924 55.95 56.5618C55.7872 56.5313 55.6143 56.5567 55.4515 56.5211C55.2887 56.4905 55.1208 56.4803 54.958 56.4446C54.7952 56.409 54.6528 56.2969 54.49 56.2612C54.3272 56.2204 54.1949 56.0778 54.0372 56.0319C53.8693 55.9861 53.6913 55.9963 53.5285 55.9504C53.3606 55.9046 53.2131 55.8077 53.0452 55.7619C52.8773 55.716 52.7196 55.6651 52.5517 55.6192C52.3889 55.5734 52.1804 55.6753 52.0176 55.6192C51.8548 55.5683 51.7022 55.4715 51.5445 55.4154C51.3817 55.3594 51.2087 55.339 51.0459 55.2778C50.8831 55.2167 50.7661 55.0486 50.6084 54.9823C50.4507 54.9161 50.3082 54.8295 50.1505 54.7581C49.9979 54.6868 49.8351 54.641 49.6825 54.5594C49.5299 54.483 49.3875 54.3964 49.2348 54.3098C49.0924 54.2232 48.9652 54.1212 48.8279 54.0295C48.6905 53.9378 48.4768 53.9531 48.3446 53.8563C48.2072 53.7595 48.0597 53.678 47.9274 53.5761C47.7951 53.4742 47.729 53.2958 47.6018 53.1837C47.4746 53.0767 47.3678 52.9494 47.2457 52.8373C47.1236 52.7252 46.9099 52.7048 46.7929 52.5876C46.6759 52.4704 46.7014 52.2208 46.5895 52.0985C46.4775 51.9762 46.3147 51.8998 46.2079 51.7724C46.1011 51.645 45.923 51.5737 45.8264 51.4412C45.7246 51.3087 45.745 51.0896 45.6534 50.9521C45.5669 50.8247 45.455 50.7177 45.3838 50.5852C45.3125 50.4477 45.1243 50.3661 45.0582 50.2235C44.9971 50.0808 45.0785 49.8821 45.0226 49.7394C44.9666 49.5968 44.9259 49.4439 44.87 49.3012C44.814 49.1586 44.7733 49.0006 44.7122 48.8631C44.6461 48.7102 44.5342 48.5726 44.4528 48.3892C44.3867 48.2466 44.2493 48.1854 44.1628 47.9969" fill="#EBE8DC"/>
</svg>
