<svg width="115" height="113" viewBox="0 0 115 113" fill="none" xmlns="http://www.w3.org/2000/svg">
<path d="M13.2203 100.57C13.2003 100.12 13.2903 99.73 13.2703 99.29C13.2503 98.85 13.2103 98.39 13.1903 97.95C13.1703 97.51 12.9403 97.07 12.9203 96.62C12.9003 96.17 12.9203 95.72 12.8903 95.28C12.8603 94.84 12.8003 94.39 12.7703 93.95C12.7403 93.51 12.9203 93.05 12.9003 92.6C12.8803 92.15 12.7103 91.72 12.6903 91.27C12.6703 90.82 12.7803 90.37 12.7603 89.93C12.7403 89.49 12.4403 89.05 12.4303 88.6C12.4203 88.15 12.6203 87.7 12.6103 87.26C12.6003 86.82 12.4203 86.37 12.4103 85.93C12.4003 85.49 12.5603 85.04 12.5703 84.59C12.5703 84.15 12.6703 83.71 12.6703 83.28C12.6703 82.85 12.5003 82.4 12.5103 81.96C12.5203 81.52 12.5803 81.08 12.5803 80.65C12.5803 80.22 12.6003 79.77 12.6003 79.34C12.6003 78.91 12.4803 78.46 12.4803 78.02C12.4803 77.58 12.6203 77.15 12.6303 76.71C12.6403 76.27 12.4703 75.83 12.4703 75.39C12.4703 74.95 12.7003 74.52 12.7003 74.08C12.7003 73.64 12.8003 73.21 12.8003 72.77C12.8003 72.33 12.6203 71.89 12.6303 71.45C12.6403 71.01 12.6203 70.57 12.6303 70.14C12.6403 69.71 12.6603 69.26 12.6703 68.83C12.6803 68.4 12.6703 67.95 12.6703 67.52C12.6703 67.09 12.8803 66.65 12.8803 66.21C12.8803 65.77 12.8203 65.33 12.8303 64.89C12.8403 64.45 12.7503 64.01 12.7603 63.57C12.7703 63.13 12.7203 62.69 12.7303 62.26C12.7403 61.83 12.7303 61.38 12.7403 60.95C12.7503 60.52 12.8903 60.08 12.8903 59.64C12.8903 59.2 12.9503 58.76 12.9503 58.33C12.9503 57.9 12.9503 57.45 12.9603 57.02C12.9703 56.59 12.9903 56.14 13.0003 55.71C13.0103 55.28 12.9503 54.83 12.9603 54.39C12.9703 53.95 12.8803 53.51 12.8803 53.07C12.8803 52.63 13.0903 52.2 13.1003 51.76C13.1103 51.32 13.0303 50.88 13.0403 50.44C13.0503 50 13.0403 49.56 13.0503 49.13C13.0603 48.7 12.9103 48.25 12.9103 47.81C12.9103 47.37 12.9803 46.93 12.9903 46.5C13.0003 46.07 13.1003 45.63 13.1103 45.19C13.1203 44.75 13.2303 44.32 13.2403 43.88C13.2503 43.44 13.1503 43 13.1503 42.56C13.1503 42.12 13.0503 41.68 13.0603 41.24C13.0703 40.8 12.9803 40.36 12.9803 39.93C12.9803 39.5 13.2703 39.06 13.2803 38.62C13.2903 38.18 13.0903 37.74 13.1003 37.3C13.1103 36.86 13.2903 36.43 13.2903 35.99C13.2903 35.55 13.2603 35.11 13.2603 34.68C13.2603 34.25 13.1303 33.8 13.1303 33.37C13.1303 32.94 13.2903 32.51 13.2903 32.08C13.2903 31.65 13.2903 31.22 13.2903 30.79C13.2903 30.36 12.9503 29.94 12.9303 29.52C12.9103 29.1 13.2103 28.65 13.1803 28.22C13.1503 27.79 13.1203 27.36 13.1003 26.94C13.0803 26.52 13.0103 26.09 12.9803 25.66C12.9503 25.23 12.7903 24.81 12.7603 24.39C12.7303 23.97 12.6803 23.54 12.6503 23.11C12.6203 22.68 12.5603 22.26 12.5203 21.83C12.4803 21.4 12.4403 20.98 12.4003 20.55C12.3603 20.12 12.4803 19.68 12.4503 19.26C12.4203 18.84 12.3003 18.41 12.2603 17.99C12.2203 17.57 12.2803 17.13 12.2603 16.7C12.2403 16.27 12.2603 15.84 12.2203 15.41C12.1803 14.98 11.9003 14.57 11.8803 14.15C11.8503 13.75 12.1203 13.35 12.1303 12.93C12.1303 12.54 12.0303 12.16 12.0303 11.73C12.4403 11.59 12.8003 11.32 13.2003 11.32C13.6303 11.32 14.0503 11.14 14.4803 11.13C14.9103 11.12 15.3403 11.23 15.7703 11.22C16.2003 11.21 16.6303 11.22 17.0503 11.2C17.4703 11.18 17.9103 11.26 18.3403 11.25C18.7703 11.24 19.2003 11.34 19.6303 11.32C20.0603 11.3 20.4803 11.13 20.9103 11.12C21.3403 11.11 21.7703 11.26 22.2003 11.24C22.6303 11.22 23.0503 11.17 23.4803 11.15C23.9103 11.13 24.3403 11.1 24.7603 11.09C25.1803 11.08 25.6103 10.95 26.0403 10.93C26.4703 10.91 26.8903 10.74 27.3203 10.72C27.7503 10.7 28.1803 10.78 28.6103 10.77C29.0403 10.76 29.4603 10.67 29.8903 10.66C30.3203 10.65 30.7503 10.64 31.1803 10.63C31.6103 10.62 32.0403 10.7 32.4703 10.69C32.9003 10.68 33.3303 10.92 33.7603 10.92C34.1903 10.92 34.6203 10.8 35.0403 10.8C35.4603 10.8 35.9003 10.57 36.3303 10.57C36.7603 10.57 37.1803 10.91 37.6103 10.92C38.0403 10.93 38.4703 10.84 38.9003 10.85C39.3303 10.86 39.7503 10.97 40.1803 10.98C40.6103 10.99 41.0503 10.73 41.4803 10.75C41.9103 10.77 42.3303 10.85 42.7603 10.87C43.1903 10.89 43.6103 11.03 44.0403 11.04C44.4703 11.05 44.9003 10.82 45.3303 10.83C45.7603 10.84 46.1803 10.95 46.6103 10.95C47.0403 10.95 47.4603 10.99 47.8903 10.98C48.3203 10.97 48.7403 10.88 49.1703 10.87C49.6003 10.86 50.0303 11.04 50.4603 11.04C50.8903 11.04 51.3103 10.99 51.7403 10.98C52.1703 10.97 52.5903 10.89 53.0203 10.88C53.4503 10.87 53.8703 10.73 54.3003 10.72C54.7303 10.71 55.1603 10.87 55.5903 10.85C56.0203 10.83 56.4403 10.7 56.8703 10.69C57.3003 10.68 57.7303 10.83 58.1603 10.81C58.5903 10.79 59.0103 10.78 59.4403 10.76C59.8703 10.74 60.3003 10.86 60.7303 10.84C61.1603 10.82 61.5803 10.77 62.0103 10.76C62.4403 10.75 62.8603 10.56 63.2903 10.54C63.7203 10.52 64.1503 10.67 64.5803 10.66C65.0103 10.65 65.4403 10.68 65.8603 10.67C66.2803 10.66 66.7103 10.38 67.1403 10.37C67.5703 10.36 68.0003 10.58 68.4303 10.57C68.8703 10.57 69.3003 10.53 69.7403 10.53C70.1803 10.53 70.6103 10.38 71.0503 10.38C71.4903 10.38 71.9203 10.36 72.3603 10.36C72.8003 10.36 73.2303 10.35 73.6703 10.34C74.1103 10.33 74.5403 10.24 74.9803 10.24C75.4203 10.24 75.8503 10.42 76.2903 10.42C76.7303 10.42 77.1603 10.46 77.6003 10.46C78.0403 10.46 78.4703 10.41 78.9103 10.41C79.3503 10.41 79.7803 10.44 80.2203 10.44C80.6603 10.44 81.0903 10.37 81.5303 10.37C81.9703 10.37 82.4003 10.29 82.8403 10.3C83.2803 10.31 83.7103 10.58 84.1503 10.58C84.5903 10.58 85.0203 10.49 85.4603 10.5C85.9003 10.51 86.3403 10.38 86.7703 10.39C87.2003 10.4 87.6503 10.33 88.0803 10.34C88.5103 10.35 88.9503 10.48 89.3903 10.5C89.8403 10.51 90.2903 10.48 90.7403 10.5C91.1903 10.52 91.6403 10.56 92.0903 10.6C92.5403 10.64 92.9803 10.79 93.4203 10.84C93.8603 10.89 94.3003 11.09 94.7403 11.14C95.1803 11.19 95.6603 11.09 96.1003 11.14C96.5403 11.19 97.0103 11.14 97.4503 11.2C97.8903 11.26 98.3303 11.4 98.7703 11.45C99.2103 11.5 99.6303 11.6 100.08 11.65C100.18 11.99 100.24 12.39 100.34 12.9C100.42 13.29 100.62 13.69 100.7 14.17C100.77 14.57 100.85 15 100.92 15.46C100.98 15.87 100.86 16.33 100.92 16.78C100.97 17.2 100.99 17.63 101.04 18.08C101.09 18.5 101.19 18.93 101.24 19.38C101.29 19.8 101.35 20.24 101.4 20.68C101.45 21.12 101.63 21.53 101.68 21.97C101.73 22.41 101.85 22.82 101.89 23.27C101.93 23.72 101.76 24.15 101.8 24.6C101.84 25.05 101.86 25.47 101.9 25.91C101.94 26.35 102.18 26.76 102.22 27.2C102.26 27.64 102.24 28.07 102.27 28.52C102.3 28.97 102.11 29.41 102.14 29.85C102.17 30.29 102.28 30.71 102.31 31.16C102.34 31.61 102.54 32.02 102.58 32.46C102.62 32.9 102.42 33.35 102.45 33.79C102.48 34.23 102.74 34.64 102.77 35.08C102.8 35.52 102.9 35.94 102.93 36.38C102.96 36.82 102.83 37.26 102.86 37.7C102.89 38.14 102.93 38.57 102.96 39.01C102.99 39.45 103.14 39.87 103.17 40.31C103.2 40.75 103.11 41.19 103.14 41.63C103.17 42.07 103.09 42.51 103.11 42.95C103.13 43.39 103.26 43.82 103.28 44.26C103.3 44.7 103.4 45.13 103.42 45.57C103.44 46.01 103.49 46.44 103.52 46.88C103.55 47.32 103.37 47.77 103.39 48.21C103.41 48.65 103.64 49.07 103.66 49.51C103.68 49.95 103.66 50.39 103.69 50.82C103.72 51.25 103.63 51.7 103.65 52.14C103.67 52.58 103.65 53.02 103.67 53.46C103.69 53.9 103.99 54.32 104.01 54.76C104.03 55.2 103.98 55.64 104.01 56.08C104.04 56.52 103.84 56.97 103.86 57.41C103.88 57.85 104.08 58.28 104.1 58.72C104.12 59.16 104.19 59.6 104.21 60.04C104.23 60.48 104.09 60.93 104.11 61.37C104.13 61.81 104.03 62.26 104.04 62.69C104.05 63.12 104.36 63.56 104.38 64C104.4 64.44 104.39 64.88 104.41 65.32C104.43 65.76 104.29 66.21 104.3 66.65C104.31 67.09 104.41 67.53 104.43 67.97C104.45 68.41 104.5 68.85 104.51 69.29C104.52 69.73 104.61 70.17 104.62 70.61C104.63 71.05 104.39 71.5 104.41 71.94C104.43 72.38 104.68 72.81 104.7 73.25C104.72 73.69 104.65 74.13 104.67 74.57C104.69 75.01 104.63 75.45 104.64 75.89C104.65 76.33 104.77 76.77 104.78 77.21C104.79 77.65 104.53 78.1 104.54 78.54C104.55 78.98 104.66 79.42 104.67 79.86C104.68 80.3 104.68 80.74 104.69 81.18C104.7 81.62 104.9 82.06 104.91 82.49C104.92 82.92 104.94 83.37 104.95 83.81C104.96 84.25 105.01 84.69 105.02 85.13C105.03 85.57 104.74 86.02 104.75 86.45C104.76 86.88 104.91 87.33 104.91 87.77C104.91 88.21 104.93 88.65 104.93 89.09C104.93 89.53 105 89.98 105 90.41C105 90.84 104.85 91.3 104.85 91.73C104.85 92.16 104.79 92.61 104.79 93.05C104.79 93.49 105.05 93.94 105.05 94.37C105.05 94.8 104.7 95.25 104.69 95.68C104.69 96.13 104.87 96.57 104.86 97C104.85 97.45 104.67 97.89 104.66 98.31C104.65 98.76 104.76 99.21 104.74 99.62C104.72 100.08 104.59 100.41 104.56 100.83C104.13 100.89 103.79 100.99 103.36 101.05C102.93 101.11 102.51 101.28 102.08 101.33C101.65 101.38 101.21 101.4 100.78 101.45C100.35 101.5 99.9203 101.66 99.4903 101.71C99.0603 101.76 98.6103 101.72 98.1803 101.77C97.7503 101.82 97.2903 101.61 96.8503 101.65C96.4103 101.69 95.9803 101.76 95.5503 101.8C95.1203 101.84 94.7003 102.13 94.2703 102.16C93.8403 102.19 93.4103 102.31 92.9703 102.34C92.5303 102.37 92.0703 102.05 91.6403 102.09C91.2103 102.13 90.7803 102.28 90.3403 102.31C89.9003 102.34 89.4803 102.48 89.0403 102.51C88.6003 102.54 88.1703 102.66 87.7403 102.68C87.3103 102.7 86.8603 102.67 86.4303 102.68C86.0003 102.69 85.5603 102.72 85.1203 102.74C84.6803 102.76 84.2503 102.86 83.8203 102.88C83.3903 102.9 82.9503 102.92 82.5103 102.94C82.0703 102.96 81.6303 102.69 81.1903 102.71C80.7503 102.73 80.3203 102.73 79.8803 102.75C79.4403 102.77 79.0103 102.9 78.5803 102.92C78.1503 102.94 77.7003 102.78 77.2703 102.79C76.8403 102.8 76.4003 102.97 75.9703 102.98C75.5403 102.99 75.1003 103.11 74.6603 103.12C74.2203 103.13 73.7803 102.93 73.3503 102.94C72.9203 102.95 72.4803 103.14 72.0403 103.15C71.6003 103.16 71.1703 103.2 70.7303 103.21C70.2903 103.22 69.8603 102.95 69.4203 102.95C68.9803 102.95 68.5503 103.03 68.1103 103.03C67.6703 103.03 67.2403 103.15 66.8003 103.14C66.3603 103.13 65.9303 102.91 65.4903 102.91C65.0503 102.91 64.6203 103.16 64.1803 103.16C63.7403 103.16 63.3103 102.94 62.8703 102.94C62.4303 102.94 62.0003 102.97 61.5603 102.97C61.1203 102.97 60.6903 102.93 60.2503 102.92C59.8103 102.91 59.3803 102.88 58.9403 102.87C58.5003 102.86 58.0703 102.9 57.6303 102.89C57.1903 102.88 56.7603 102.94 56.3203 102.93C55.8803 102.92 55.4503 102.78 55.0203 102.77C54.5903 102.76 54.1403 103 53.7003 102.98C53.2603 102.96 52.8303 102.84 52.4003 102.83C51.9703 102.82 51.5303 102.68 51.1003 102.67C50.6703 102.66 50.2203 102.88 49.7803 102.86C49.3403 102.84 48.9103 102.86 48.4703 102.85C48.0303 102.84 47.6103 102.58 47.1703 102.56C46.7303 102.54 46.2903 102.74 45.8503 102.72C45.4103 102.7 44.9903 102.41 44.5503 102.39C44.1103 102.37 43.6703 102.6 43.2303 102.58C42.7903 102.56 42.3603 102.42 41.9303 102.4C41.5003 102.38 41.0603 102.31 40.6303 102.29C40.2003 102.27 39.7603 102.31 39.3203 102.29C38.8803 102.27 38.4503 102.29 38.0103 102.26C37.5703 102.23 37.1403 102.27 36.7003 102.25C36.2603 102.23 35.8403 102.06 35.4003 102.04C34.9603 102.02 34.5203 102.13 34.0903 102.11C33.6603 102.09 33.2303 101.88 32.7903 101.85C32.3503 101.82 31.9103 101.96 31.4803 101.93C31.0503 101.9 30.6103 101.88 30.1703 101.85C29.7303 101.82 29.3003 101.78 28.8703 101.76C28.4403 101.74 28.0103 101.59 27.5703 101.57C27.1303 101.55 26.6903 101.68 26.2503 101.65C25.8103 101.62 25.3803 101.56 24.9503 101.53C24.5203 101.5 24.0903 101.31 23.6503 101.29C23.2103 101.27 22.7703 101.35 22.3403 101.32C21.9103 101.29 21.4703 101.25 21.0303 101.22C20.5903 101.19 20.1703 100.94 19.7403 100.92C19.3103 100.9 18.8603 100.95 18.4303 100.92C18.0003 100.89 17.5603 100.79 17.1303 100.76C16.7003 100.73 16.2403 100.99 15.8003 100.96C15.3603 100.93 14.9403 100.72 14.5003 100.69C14.0603 100.66 13.6903 100.62 13.2503 100.6L13.2203 100.57Z" fill="#082C4C"/>
<path d="M2.4903 4.70007C2.8203 4.98007 3.12028 5.25007 3.46028 5.52007C3.80028 5.79007 4.06029 6.16007 4.40029 6.43007C4.74029 6.70007 5.24029 6.78007 5.58029 7.05007C5.92029 7.32007 6.10029 7.78007 6.43028 8.06007C6.76028 8.34007 7.3103 8.38007 7.6303 8.67007C7.9503 8.96007 8.2103 9.33007 8.5203 9.63007C8.8403 9.94007 9.09029 10.4401 9.22029 10.9501C9.34029 11.4301 9.4303 11.9501 9.4903 12.4001C9.5503 12.8301 9.51028 13.2801 9.57028 13.7201C9.63028 14.1601 9.70029 14.5901 9.75029 15.0201C9.80029 15.4501 9.89029 15.8901 9.94029 16.3201C9.99029 16.7501 9.85029 17.2101 9.89029 17.6501C9.93029 18.0901 9.86029 18.5301 9.90029 18.9701C9.94029 19.4101 10.2303 19.8201 10.2603 20.2601C10.2903 20.7001 10.1903 21.1401 10.2203 21.5801C10.2503 22.0201 10.2603 22.4501 10.2903 22.8901C10.3203 23.3301 10.4003 23.7601 10.4203 24.2001C10.4403 24.6401 10.3203 25.0801 10.3403 25.5201C10.3603 25.9601 10.3703 26.3901 10.3803 26.8301C10.3903 27.2701 10.6403 27.7001 10.6503 28.1401C10.6603 28.5801 10.4803 29.0201 10.4903 29.4601C10.5003 29.9001 10.6103 30.3301 10.6203 30.7701C10.6303 31.2101 10.7903 31.6401 10.7903 32.0801C10.7903 32.5201 10.5703 32.9601 10.5703 33.4001C10.5703 33.8401 10.4803 34.2801 10.4803 34.7101C10.4803 35.1401 10.7503 35.5901 10.7503 36.0301C10.7503 36.4701 10.4803 36.9001 10.4803 37.3401C10.4803 37.7801 10.7403 38.2201 10.7403 38.6601C10.7403 39.1001 10.4703 39.5301 10.4603 39.9701C10.4603 40.4101 10.6303 40.8501 10.6203 41.2901C10.6103 41.7301 10.6903 42.1701 10.6803 42.6101C10.6703 43.0501 10.7203 43.4901 10.7103 43.9301C10.7003 44.3701 10.6703 44.8101 10.6703 45.2501C10.6703 45.6901 10.5303 46.1301 10.5203 46.5701C10.5103 47.0101 10.5703 47.4501 10.5603 47.8901C10.5503 48.3301 10.6003 48.7701 10.5903 49.2101C10.5803 49.6501 10.4903 50.0901 10.4803 50.5301C10.4703 50.9701 10.4003 51.4101 10.3903 51.8501C10.3803 52.2901 10.4303 52.7301 10.4303 53.1701C10.4303 53.6101 10.2303 54.0501 10.2303 54.4901C10.2303 54.9301 10.3703 55.3701 10.3603 55.8101C10.3503 56.2501 10.5303 56.6901 10.5303 57.1301C10.5303 57.5701 10.4403 58.0101 10.4303 58.4501C10.4203 58.8901 10.4303 59.3301 10.4303 59.7701C10.4303 60.2101 10.1503 60.6501 10.1403 61.0901C10.1303 61.5301 10.2103 61.9701 10.2003 62.4101C10.1903 62.8501 10.0703 63.2901 10.0703 63.7301C10.0703 64.1701 10.0303 64.6101 10.0303 65.0501C10.0303 65.4901 10.3103 65.9301 10.3003 66.3701C10.2903 66.8101 10.1603 67.2501 10.1503 67.6901C10.1403 68.1301 10.0203 68.5701 10.0103 69.0101C10.0003 69.4501 10.3003 69.8901 10.2903 70.3301C10.2803 70.7701 10.2003 71.2101 10.1903 71.6501C10.1803 72.0901 10.2303 72.5301 10.2303 72.9701C10.2303 73.4101 10.2603 73.8501 10.2503 74.2901C10.2403 74.7301 9.8903 75.1601 9.8803 75.6001C9.8703 76.0401 10.0603 76.4801 10.0503 76.9201C10.0403 77.3601 9.91029 77.8001 9.90029 78.2401C9.89029 78.6801 9.84029 79.1201 9.83029 79.5601C9.83029 80.0001 10.0403 80.4501 10.0303 80.8901C10.0203 81.3301 9.93029 81.7801 9.92029 82.2201C9.91029 82.6601 10.0603 83.1101 10.0603 83.5501C10.0603 83.9901 9.86029 84.4401 9.86029 84.8801C9.86029 85.3201 10.0403 85.7701 10.0403 86.2101C10.0403 86.6501 9.82028 87.1001 9.82028 87.5401C9.82028 87.9801 9.95028 88.4201 9.96028 88.8701C9.97028 89.3201 10.1403 89.7501 10.1603 90.1901C10.1803 90.6301 9.90029 91.0901 9.92029 91.5301C9.94029 91.9701 9.92029 92.4201 9.95029 92.8601C9.98029 93.3001 10.1603 93.7401 10.1903 94.1801C10.2203 94.6201 10.0503 95.0801 10.0803 95.5201C10.1103 95.9601 10.3103 96.3901 10.3503 96.8301C10.3903 97.2701 10.6603 97.6901 10.7103 98.1301C10.7603 98.5701 10.4803 99.0501 10.5403 99.4901C10.6003 99.9301 10.5903 100.3 10.5603 100.67C10.5203 101.1 10.4703 101.44 10.3003 101.8C10.1303 102.16 10.0803 102.59 9.7703 102.9C9.5103 103.17 9.1203 103.33 8.7403 103.57C8.3703 103.81 8.03029 104.11 7.67029 104.36C7.31029 104.61 6.8503 104.73 6.4903 104.99C6.1303 105.25 5.86029 105.62 5.50029 105.89C5.14029 106.16 4.86029 106.49 4.50029 106.76C4.14029 107.03 3.6603 107.1 3.3003 107.38C2.9403 107.66 2.65029 108.12 2.28029 108.39C2.20029 107.91 2.14028 107.42 2.07028 107.05C1.99028 106.59 2.0103 106.19 1.9903 105.79C1.9703 105.36 1.7603 104.95 1.7403 104.52C1.7203 104.09 1.72029 103.67 1.70029 103.24C1.68029 102.81 1.73029 102.39 1.70029 101.96C1.67029 101.53 1.8203 101.1 1.8003 100.68C1.7803 100.26 1.52029 99.8401 1.50029 99.4201C1.48029 99.0001 1.38029 98.5701 1.36029 98.1501C1.34029 97.7301 1.46029 97.2901 1.44029 96.8701C1.42029 96.4501 1.44028 96.0201 1.43028 95.5901C1.42028 95.1601 1.50029 94.7301 1.47029 94.3101C1.44029 93.8901 1.46029 93.4601 1.44029 93.0301C1.42029 92.6001 1.35029 92.1801 1.33029 91.7601C1.31029 91.3401 1.2903 90.9101 1.2703 90.4801C1.2503 90.0501 1.13029 89.6301 1.11029 89.2101C1.09029 88.7901 1.13029 88.3601 1.11029 87.9301C1.09029 87.5001 0.890297 87.0901 0.880297 86.6601C0.870297 86.2301 0.790297 85.8101 0.770297 85.3801C0.750297 84.9501 0.890297 84.5201 0.880297 84.1001C0.870297 83.6801 0.870293 83.2501 0.860293 82.8201C0.850293 82.3901 0.810295 81.9701 0.800295 81.5401C0.790295 81.1101 0.770287 80.6801 0.760287 80.2601C0.750287 79.8401 0.630287 79.4101 0.620287 78.9801C0.610287 78.5501 0.800295 78.1201 0.800295 77.6901C0.800295 77.2601 0.740298 76.8301 0.740298 76.4101C0.740298 75.9901 0.860298 75.5501 0.850298 75.1201C0.840298 74.6901 0.530291 74.2701 0.530291 73.8401C0.530291 73.4101 0.560295 72.9801 0.550295 72.5601C0.540295 72.1401 0.620287 71.7001 0.620287 71.2801C0.620287 70.8601 0.520297 70.4201 0.520297 70.0001C0.520297 69.5801 0.620287 69.1401 0.620287 68.7201C0.620287 68.3001 0.590289 67.8601 0.590289 67.4401C0.590289 67.0201 0.550295 66.5801 0.550295 66.1601C0.550295 65.7401 0.820284 65.3001 0.820284 64.8801C0.820284 64.4601 0.570284 64.0301 0.570284 63.6001C0.570284 63.1701 0.470293 62.7401 0.470293 62.3201C0.470293 61.9001 0.550295 61.4601 0.550295 61.0401C0.550295 60.6201 0.750298 60.1801 0.740298 59.7501C0.730298 59.3201 0.81029 58.8901 0.81029 58.4701C0.81029 58.0501 0.650286 57.6201 0.650286 57.1901C0.650286 56.7601 0.610293 56.3301 0.610293 55.9101C0.610293 55.4901 0.660286 55.0501 0.650286 54.6301C0.650286 54.1901 0.520287 53.7501 0.510287 53.3001C0.500287 52.8501 0.670286 52.4101 0.650286 51.9701C0.630286 51.5301 0.610289 51.0801 0.590289 50.6401C0.570289 50.2001 0.460285 49.7601 0.430285 49.3201C0.400285 48.8801 0.390287 48.4401 0.370287 47.9901C0.350287 47.5401 0.0802953 47.1201 0.0502953 46.6801C0.0202953 46.2401 0.370298 45.7801 0.350298 45.3401C0.330298 44.9001 0.0102923 44.4701 0.000292276 44.0201C-0.00970772 43.5701 0.240288 43.1301 0.230288 42.6901C0.220288 42.2501 0.320284 41.8101 0.320284 41.3601C0.320284 40.9201 0.320284 40.4801 0.320284 40.0301C0.320284 39.5801 0.120292 39.1401 0.140292 38.7001C0.160292 38.2601 0.220298 37.8201 0.240298 37.3701C0.260298 36.9201 0.240287 36.4801 0.260287 36.0401C0.280287 35.6001 0.53029 35.1701 0.56029 34.7301C0.59029 34.2901 0.450288 33.8401 0.480288 33.3901C0.510288 32.9401 0.680289 32.5101 0.700289 32.0701C0.720289 31.6301 0.440284 31.1701 0.460284 30.7201C0.480284 30.2701 0.750297 29.8501 0.770297 29.4101C0.790297 28.9701 0.620292 28.5201 0.640292 28.0701C0.660292 27.6501 0.850287 27.2301 0.870287 26.8101C0.890287 26.3901 1.01029 25.9701 1.03029 25.5401C1.05029 25.1101 0.870292 24.6801 0.890292 24.2601C0.910292 23.8401 0.990287 23.4201 1.01029 22.9901C1.03029 22.5601 1.05028 22.1401 1.07028 21.7201C1.09028 21.3001 0.960288 20.8701 0.980288 20.4401C1.00029 20.0101 1.16028 19.6001 1.18028 19.1801C1.20028 18.7601 1.02029 18.3301 1.04029 17.9001C1.06029 17.4701 1.32029 17.0601 1.34029 16.6401C1.36029 16.2201 1.4703 15.8001 1.4903 15.3701C1.5103 14.9401 1.31029 14.5101 1.33029 14.0901C1.35029 13.6701 1.33029 13.2401 1.36029 12.8201C1.39029 12.4001 1.42029 11.9701 1.44029 11.5501C1.46029 11.1301 1.46029 10.7001 1.48029 10.2801C1.50029 9.86007 1.73029 9.44007 1.75029 9.02007C1.77029 8.60007 1.71029 8.17007 1.73029 7.75007C1.75029 7.33007 1.66028 6.90007 1.68028 6.48007C1.70028 6.05007 1.68029 5.59007 1.70029 5.16007C1.93029 4.98007 2.21029 4.89007 2.44029 4.70007H2.4903Z" fill="#FFD100"/>
<path d="M110.39 109.81C110.01 109.9 109.71 109.83 109.23 109.91C108.83 109.98 108.41 110.11 107.94 110.18C107.53 110.24 107.1 110.34 106.65 110.4C106.23 110.45 105.82 110.7 105.37 110.75C104.95 110.79 104.5 110.69 104.05 110.74C103.63 110.78 103.18 110.65 102.73 110.69C102.3 110.73 101.9 111.16 101.45 111.2C101 111.24 100.58 111.18 100.13 111.21C99.6803 111.24 99.2503 111.03 98.8003 111.06C98.3503 111.09 97.9303 111.04 97.4803 111.06C97.0303 111.08 96.6103 111.12 96.1703 111.15C95.7303 111.18 95.3103 111.36 94.8703 111.38C94.4303 111.4 93.9903 111.3 93.5503 111.32C93.1103 111.34 92.6903 111.52 92.2403 111.54C91.7903 111.56 91.3603 111.43 90.9203 111.46C90.4803 111.49 90.0603 111.74 89.6203 111.76C89.1803 111.78 88.7403 111.61 88.3003 111.63C87.8603 111.65 87.4303 111.81 86.9903 111.82C86.5503 111.83 86.1203 111.9 85.6803 111.91C85.2403 111.92 84.8003 111.67 84.3603 111.69C83.9203 111.71 83.4903 111.92 83.0503 111.94C82.6103 111.96 82.1703 111.77 81.7303 111.78C81.2903 111.79 80.8603 112.12 80.4203 112.13C79.9803 112.14 79.5503 112.21 79.1103 112.22C78.6703 112.23 78.2403 112.17 77.8003 112.18C77.3603 112.19 76.9203 112.07 76.4903 112.08C76.0603 112.09 75.6203 112.33 75.1803 112.34C74.7403 112.35 74.3103 112.3 73.8703 112.31C73.4303 112.32 72.9903 112.18 72.5503 112.19C72.1103 112.2 71.6803 112.35 71.2403 112.36C70.8003 112.37 70.3603 112.11 69.9203 112.11C69.4803 112.11 69.0503 112.16 68.6103 112.17C68.1703 112.18 67.7403 112.26 67.3003 112.26C66.8603 112.26 66.4203 112.11 65.9803 112.12C65.5403 112.13 65.1103 112.22 64.6703 112.23C64.2303 112.24 63.7903 112.27 63.3603 112.28C62.9303 112.29 62.4803 112.4 62.0503 112.4C61.6203 112.4 61.1703 112.56 60.7403 112.56C60.3103 112.56 59.8603 112.56 59.4203 112.56C58.9803 112.56 58.5403 112.22 58.1003 112.23C57.6603 112.24 57.2203 112.37 56.7803 112.37C56.3403 112.37 55.9003 112.27 55.4603 112.27C55.0203 112.27 54.5803 112.31 54.1403 112.31C53.7003 112.31 53.2603 112.54 52.8203 112.54C52.3803 112.54 51.9403 112.51 51.5003 112.52C51.0603 112.53 50.6203 112.22 50.1803 112.22C49.7403 112.22 49.3003 112.32 48.8603 112.32C48.4203 112.32 47.9803 112.5 47.5403 112.5C47.1003 112.5 46.6603 112.38 46.2203 112.38C45.7803 112.38 45.3403 112.36 44.9003 112.36C44.4603 112.36 44.0203 112.32 43.5803 112.31C43.1403 112.3 42.7003 112.23 42.2603 112.23C41.8203 112.23 41.3803 112.48 40.9403 112.48C40.5003 112.48 40.0603 112.59 39.6203 112.58C39.1803 112.57 38.7403 112.4 38.3003 112.39C37.8603 112.38 37.4203 112.2 36.9903 112.19C36.5603 112.18 36.1103 112.19 35.6703 112.19C35.2303 112.19 34.7903 112.38 34.3503 112.37C33.9103 112.36 33.4703 112.18 33.0403 112.17C32.6103 112.16 32.1603 112.17 31.7203 112.17C31.2803 112.17 30.8303 112.41 30.4003 112.4C29.9703 112.39 29.5203 112.15 29.0903 112.14C28.6603 112.13 28.2003 112.26 27.7703 112.25C27.3403 112.24 26.8903 111.99 26.4603 111.98C26.0303 111.97 25.5803 111.96 25.1403 111.95C24.7003 111.94 24.2503 112.04 23.8203 112.02C23.3903 112 22.9403 111.97 22.5003 111.95C22.0603 111.93 21.6103 112.14 21.1703 112.12C20.7303 112.1 20.3003 111.83 19.8603 111.81C19.4203 111.79 18.9703 111.92 18.5403 111.9C18.1103 111.88 17.6503 111.92 17.2203 111.9C16.7903 111.88 16.3503 111.58 15.9203 111.55C15.4903 111.52 15.0403 111.44 14.6103 111.41C14.1803 111.38 13.7203 111.38 13.2903 111.35C12.8403 111.32 12.4003 111.31 11.9803 111.27C11.5303 111.23 11.0803 111.35 10.6603 111.31C10.2103 111.27 9.78031 111.13 9.36031 111.08C8.90031 111.03 8.4403 111.22 8.0303 111.17C7.5603 111.11 7.1803 110.7 6.7803 110.64C6.3003 110.57 5.85031 110.63 5.47031 110.55C4.96031 110.45 4.4603 110.39 4.1203 110.28C4.4603 110.03 4.87031 109.76 5.19031 109.5C5.51031 109.24 5.87031 108.98 6.19031 108.71C6.51031 108.44 6.8103 108.12 7.1403 107.86C7.4703 107.6 7.7103 107.21 8.0403 106.95C8.3703 106.69 8.74031 106.45 9.08031 106.21C9.42031 105.97 9.9103 105.91 10.2603 105.69C10.6103 105.47 10.8603 105.04 11.2403 104.84C11.6203 104.64 12.0603 104.57 12.4503 104.41C12.8403 104.25 13.2603 104.19 13.6803 104.08C14.1003 103.97 14.4903 103.85 14.9103 103.79C15.3203 103.73 15.7303 103.53 16.1703 103.52C16.5803 103.5 17.0203 103.5 17.4603 103.52C17.9003 103.54 18.3303 103.83 18.7603 103.85C19.1903 103.87 19.6403 103.82 20.0803 103.85C20.5203 103.88 20.9603 103.96 21.4003 103.98C21.8403 104 22.2903 103.79 22.7303 103.81C23.1703 103.83 23.6103 103.89 24.0503 103.91C24.4903 103.93 24.9303 104.01 25.3703 104.03C25.8103 104.05 26.2603 103.96 26.7003 103.98C27.1403 104 27.5703 104.3 28.0103 104.32C28.4503 104.34 28.8903 104.3 29.3303 104.32C29.7703 104.34 30.2103 104.35 30.6503 104.37C31.0903 104.39 31.5303 104.49 31.9703 104.51C32.4103 104.53 32.8503 104.44 33.2903 104.46C33.7303 104.48 34.1703 104.6 34.6103 104.62C35.0503 104.64 35.5003 104.53 35.9403 104.54C36.3803 104.55 36.8203 104.47 37.2603 104.49C37.7003 104.51 38.1403 104.53 38.5803 104.55C39.0203 104.57 39.4503 104.87 39.8903 104.88C40.3303 104.89 40.7803 104.77 41.2203 104.79C41.6603 104.81 42.1003 104.73 42.5403 104.74C42.9803 104.75 43.4103 105.02 43.8503 105.04C44.2903 105.06 44.7303 105 45.1703 105.01C45.6103 105.02 46.0603 104.83 46.5003 104.85C46.9403 104.87 47.3803 105.03 47.8203 105.05C48.2603 105.07 48.7003 105.02 49.1403 105.03C49.5803 105.04 50.0303 104.87 50.4703 104.89C50.9103 104.91 51.3503 105.09 51.7903 105.1C52.2303 105.11 52.6703 105.3 53.1103 105.31C53.5503 105.32 53.9903 105.25 54.4303 105.27C54.8703 105.29 55.3103 105.25 55.7503 105.26C56.1903 105.27 56.6303 105.26 57.0703 105.27C57.5103 105.28 57.9503 105.24 58.3903 105.25C58.8303 105.26 59.2703 105.33 59.7103 105.34C60.1503 105.35 60.5903 105.44 61.0303 105.45C61.4703 105.46 61.9203 105.24 62.3603 105.25C62.8003 105.26 63.2303 105.58 63.6703 105.59C64.1103 105.6 64.5503 105.52 64.9903 105.52C65.4303 105.52 65.8703 105.45 66.3103 105.45C66.7503 105.45 67.1903 105.5 67.6303 105.51C68.0703 105.52 68.5103 105.7 68.9503 105.71C69.3903 105.71 69.8303 105.43 70.2703 105.43C70.7103 105.43 71.1403 105.4 71.5803 105.39C72.0203 105.38 72.4603 105.55 72.9003 105.54C73.3403 105.53 73.7803 105.54 74.2103 105.52C74.6403 105.5 75.0903 105.5 75.5203 105.49C75.9503 105.48 76.4003 105.57 76.8403 105.55C77.2803 105.53 77.7003 105.24 78.1403 105.22C78.5803 105.2 79.0303 105.41 79.4603 105.38C79.8903 105.35 80.3103 104.99 80.7503 104.96C81.1903 104.93 81.6303 105 82.0703 104.97C82.5103 104.94 82.9403 104.87 83.3803 104.84C83.8203 104.81 84.2503 104.76 84.6903 104.72C85.1303 104.68 85.5703 104.75 86.0103 104.72C86.4503 104.69 86.8803 104.64 87.3203 104.6C87.7603 104.56 88.1903 104.49 88.6303 104.46C89.0703 104.43 89.5203 104.58 89.9503 104.55C90.3803 104.52 90.8303 104.6 91.2703 104.57C91.7103 104.54 92.1303 104.25 92.5603 104.22C92.9903 104.19 93.4403 104.3 93.8803 104.28C94.3203 104.26 94.7503 104.24 95.1903 104.22C95.6303 104.2 96.0703 104.11 96.5103 104.09C96.9503 104.07 97.4003 104.19 97.8403 104.16C98.2803 104.13 98.7203 104.12 99.1703 104.11C99.6203 104.1 100.05 103.84 100.49 103.82C100.93 103.8 101.38 103.98 101.82 103.97C102.26 103.96 102.7 103.84 103.14 103.83C103.58 103.82 104.02 103.65 104.47 103.65C104.8 103.65 105.16 103.94 105.52 104.08C105.88 104.22 106.12 104.46 106.34 104.7C106.64 105.03 107.14 105.18 107.42 105.53C107.7 105.88 107.77 106.38 108.04 106.74C108.31 107.1 108.8 107.26 109.08 107.62C109.36 107.98 109.4 108.48 109.68 108.85C109.94 109.19 110.16 109.43 110.44 109.79L110.39 109.81Z" fill="#FFD100"/>
<path d="M109.29 5.16C108.87 5.39 108.54 5.74 108.14 5.96C107.74 6.18 107.26 6.29 106.86 6.51C106.46 6.73 106.02 6.92 105.62 7.13C105.22 7.34 104.83 7.61 104.42 7.82C104.01 8.03 103.65 8.36 103.24 8.55C102.77 8.77 102.17 8.75 101.63 8.87C101.09 8.99 100.54 9.14 100.04 9.05C99.6203 8.97 99.2203 8.73 98.7903 8.67C98.3603 8.61 97.9203 8.67 97.4903 8.6C97.0603 8.53 96.6103 8.69 96.1803 8.64C95.7503 8.59 95.3203 8.58 94.9003 8.53C94.4803 8.48 94.0603 8.26 93.6403 8.22C93.2203 8.18 92.7903 8.02 92.3603 7.98C91.9303 7.94 91.4903 8.14 91.0603 8.11C90.6303 8.08 90.2003 8.04 89.7703 8.02C89.3403 8 88.9103 7.94 88.4803 7.93C88.0503 7.92 87.6203 7.94 87.1903 7.93C86.7603 7.92 86.3303 7.73 85.9003 7.72C85.4703 7.71 85.0403 7.64 84.6103 7.64C84.1803 7.64 83.7503 7.57 83.3203 7.57C82.8903 7.57 82.4603 7.85 82.0303 7.85C81.6003 7.85 81.1703 7.62 80.7403 7.62C80.3103 7.62 79.8803 7.9 79.4503 7.9C79.0203 7.9 78.5903 7.94 78.1603 7.95C77.7303 7.96 77.3003 7.95 76.8703 7.95C76.4403 7.95 76.0103 7.62 75.5803 7.63C75.1503 7.64 74.7203 7.9 74.2903 7.91C73.8603 7.92 73.4303 7.83 73.0003 7.83C72.5703 7.83 72.1403 7.74 71.7103 7.75C71.2803 7.76 70.8503 7.99 70.4203 7.99C69.9903 7.99 69.5603 8.01 69.1303 8.01C68.7003 8.01 68.2703 8.1 67.8403 8.1C67.4103 8.1 66.9803 7.73 66.5503 7.73C66.1203 7.73 65.6903 7.79 65.2603 7.79C64.8303 7.79 64.4003 7.69 63.9703 7.69C63.5403 7.69 63.1103 8.03 62.6803 8.02C62.2503 8.01 61.8203 8.07 61.3903 8.06C60.9603 8.05 60.5303 7.8 60.1003 7.8C59.6703 7.8 59.2403 7.71 58.8103 7.71C58.3803 7.71 57.9503 7.95 57.5203 7.95C57.0903 7.95 56.6603 7.74 56.2303 7.74C55.8003 7.74 55.3703 7.69 54.9403 7.69C54.5103 7.69 54.0803 7.75 53.6503 7.75C53.2203 7.75 52.7903 7.68 52.3603 7.68C51.9303 7.68 51.5003 8.06 51.0703 8.06C50.6403 8.06 50.2103 7.82 49.7803 7.82C49.3503 7.82 48.9203 7.77 48.4903 7.77C48.0603 7.77 47.6303 7.75 47.2003 7.75C46.7703 7.75 46.3403 8.08 45.9103 8.08C45.4803 8.08 45.0503 7.72 44.6203 7.72C44.1903 7.72 43.7603 7.74 43.3303 7.75C42.9003 7.76 42.4703 7.83 42.0403 7.83C41.6103 7.83 41.1803 7.98 40.7503 7.99C40.3203 8 39.8903 7.91 39.4603 7.91C39.0303 7.91 38.6003 8.07 38.1703 8.07C37.7403 8.07 37.3103 7.82 36.8803 7.82C36.4503 7.82 36.0203 7.94 35.5903 7.95C35.1603 7.96 34.7303 8.1 34.3003 8.1C33.8803 8.1 33.4503 8.05 33.0303 8.05C32.6103 8.05 32.1803 7.78 31.7603 7.78C31.3403 7.78 30.9103 7.82 30.4903 7.83C30.0703 7.84 29.6503 7.9 29.2203 7.9C28.7903 7.9 28.3703 7.79 27.9503 7.79C27.5303 7.79 27.1103 8.12 26.6903 8.13C26.2703 8.14 25.8403 8.12 25.4203 8.13C25.0003 8.14 24.5803 8.24 24.1503 8.25C23.7203 8.26 23.3003 7.86 22.8803 7.87C22.4603 7.88 22.0403 8.28 21.6203 8.28C21.2003 8.28 20.7703 7.9 20.3403 7.9C19.9103 7.9 19.5003 7.97 19.0703 7.98C18.6403 7.99 18.2303 8.21 17.8103 8.22C17.3903 8.23 16.9603 8.01 16.5403 8.02C16.1203 8.03 15.7003 8.07 15.2703 8.08C14.8403 8.09 14.4303 8.18 14.0003 8.19C13.5403 8.2 13.1303 8.06 12.7203 8.01C12.2803 7.96 11.8403 8.05 11.4403 7.88C11.0603 7.72 10.7103 7.48 10.3503 7.17C10.0103 6.88 9.55029 6.75 9.20029 6.47C8.85029 6.19 8.54028 5.88 8.18028 5.61C7.82028 5.34 7.53029 5.01 7.17029 4.74C6.81029 4.47 6.58029 4.05 6.22029 3.78C5.86029 3.51 5.25029 3.4 4.89029 3.13C5.27029 3.01 5.85029 2.94 6.31029 2.83C6.71029 2.73 7.11028 2.53 7.57028 2.44C7.98028 2.36 8.4003 2.21 8.8503 2.13C9.2603 2.06 9.74029 2.29 10.1903 2.22C10.6103 2.16 11.0303 2.04 11.4803 1.98C11.9003 1.92 12.3403 1.94 12.7903 1.89C13.2403 1.84 13.6303 1.67 14.0803 1.62C14.5303 1.57 14.9303 1.39 15.3703 1.35C15.8103 1.31 16.2403 1.39 16.6903 1.35C17.1403 1.31 17.5403 1.15 17.9903 1.12C18.4403 1.09 18.8503 0.95 19.2903 0.91C19.7303 0.87 20.1803 1.16 20.6203 1.13C21.0603 1.1 21.4803 0.969999 21.9203 0.939999C22.3603 0.909999 22.7903 0.940002 23.2303 0.920002C23.6703 0.900002 24.1003 0.919999 24.5403 0.889999C24.9803 0.859999 25.4003 0.76 25.8403 0.73C26.2803 0.7 26.7003 0.52 27.1403 0.5C27.5803 0.48 28.0103 0.42 28.4503 0.41C28.8903 0.4 29.3303 0.510002 29.7703 0.490002C30.2103 0.470002 30.6403 0.449999 31.0803 0.439999C31.5203 0.429999 31.9603 0.630001 32.4003 0.610001C32.8403 0.590001 33.2703 0.520002 33.7103 0.510002C34.1503 0.500002 34.5703 0.17 35.0103 0.16C35.4503 0.15 35.8803 0.360002 36.3203 0.350002C36.7603 0.340002 37.1903 0.42 37.6303 0.41C38.0703 0.4 38.5003 0.199999 38.9303 0.189999C39.3603 0.179999 39.8003 0.410002 40.2403 0.400002C40.6803 0.390002 41.1103 0.340002 41.5503 0.330002C41.9903 0.320002 42.4203 0.389999 42.8603 0.389999C43.3003 0.389999 43.7303 0.250002 44.1703 0.240002C44.6103 0.230002 45.0403 0 45.4803 0C45.9203 0 46.3503 0.260002 46.7903 0.260002C47.2303 0.260002 47.6603 0.330002 48.1003 0.330002C48.5403 0.330002 48.9703 0.0800018 49.4103 0.0800018C49.8503 0.0800018 50.2803 0.139999 50.7203 0.139999C51.1603 0.139999 51.5903 0.31 52.0303 0.32C52.4703 0.33 52.9103 0.0499992 53.3403 0.0499992C53.7703 0.0499992 54.2103 0.380001 54.6503 0.380001C55.0903 0.380001 55.5203 0.420002 55.9603 0.420002C56.4003 0.420002 56.8403 0.17 57.2803 0.18C57.7203 0.19 58.1603 0.22 58.5903 0.23C59.0203 0.24 59.4603 0.410002 59.9003 0.420002C60.3403 0.430002 60.7803 0.4 61.2203 0.41C61.6603 0.42 62.1003 0.500002 62.5303 0.510002C62.9603 0.520002 63.4103 0.449999 63.8503 0.459999C64.2903 0.469999 64.7303 0.350001 65.1703 0.360001C65.6103 0.370001 66.0403 0.590001 66.4803 0.610001C66.9203 0.630001 67.3603 0.540001 67.8003 0.560001C68.2403 0.580001 68.6803 0.580002 69.1103 0.600002C69.5403 0.620002 69.9803 0.76 70.4203 0.77C70.8603 0.78 71.2903 0.82 71.7303 0.84C72.1703 0.86 72.6103 0.81 73.0403 0.82C73.4703 0.83 73.9203 0.81 74.3503 0.82C74.7803 0.83 75.2303 0.659999 75.6703 0.689999C76.1103 0.719999 76.5403 0.880002 76.9703 0.900002C77.4003 0.920002 77.8403 1.11 78.2703 1.13C78.7003 1.15 79.1703 0.790001 79.6003 0.810001C80.0303 0.830001 80.4703 0.950001 80.9003 0.970001C81.3303 0.990001 81.7603 1.26 82.1903 1.29C82.6203 1.32 83.0603 1.43 83.4903 1.45C83.9203 1.47 84.3703 1.5 84.8003 1.53C85.2303 1.56 85.6903 1.44 86.1203 1.47C86.5503 1.5 86.9903 1.66 87.4203 1.7C87.8503 1.74 88.3103 1.62 88.7403 1.65C89.1703 1.68 89.6003 1.87 90.0403 1.9C90.4803 1.93 90.9403 1.74 91.3703 1.78C91.8003 1.82 92.2303 2.05 92.6603 2.09C93.0903 2.13 93.5503 2.04 93.9803 2.09C94.4103 2.14 94.8603 2.14 95.2903 2.19C95.7203 2.24 96.1403 2.55 96.5603 2.6C96.9803 2.65 97.4603 2.5 97.8903 2.56C98.3203 2.62 98.7403 2.86 99.1703 2.92C99.6003 2.98 100.09 2.74 100.51 2.8C100.95 2.87 101.4 2.88 101.82 2.95C102.27 3.02 102.69 3.17 103.1 3.24C103.55 3.32 103.95 3.53 104.36 3.62C104.81 3.71 105.28 3.59 105.69 3.68C106.14 3.79 106.56 3.96 106.95 4.07C107.41 4.2 107.78 4.47 108.15 4.61C108.62 4.79 109.03 4.94 109.35 5.12L109.29 5.16Z" fill="#FFD100"/>
<path d="M110.36 7.56006C110.38 7.99006 110.47 8.34006 110.49 8.77006C110.51 9.20006 110.69 9.63006 110.71 10.0601C110.73 10.4901 110.62 10.9401 110.65 11.3701C110.68 11.8001 110.75 12.2401 110.77 12.6701C110.79 13.1001 110.78 13.5401 110.8 13.9701C110.82 14.4001 110.88 14.8401 110.91 15.2701C110.94 15.7001 110.82 16.1501 110.84 16.5801C110.86 17.0101 110.94 17.4501 110.97 17.8801C111 18.3101 111.06 18.7501 111.09 19.1801C111.12 19.6101 110.93 20.0601 110.96 20.4901C110.99 20.9201 110.98 21.3601 111.01 21.7901C111.04 22.2201 111.4 22.6401 111.43 23.0701C111.46 23.5001 111.43 23.9401 111.46 24.3801C111.49 24.8201 111.44 25.2501 111.46 25.6901C111.48 26.1301 111.54 26.5601 111.56 26.9901C111.58 27.4201 111.59 27.8601 111.61 28.2901C111.63 28.7201 111.77 29.1501 111.8 29.5901C111.83 30.0301 111.71 30.4701 111.74 30.9001C111.77 31.3301 111.94 31.7601 111.96 32.1901C111.98 32.6201 111.79 33.0701 111.82 33.5101C111.85 33.9501 112.07 34.3701 112.1 34.8001C112.13 35.2301 111.95 35.6801 111.98 36.1101C112.01 36.5401 112.22 36.9701 112.24 37.4001C112.26 37.8301 112.06 38.2801 112.08 38.7201C112.1 39.1601 112.37 39.5701 112.4 40.0101C112.43 40.4501 112.15 40.9001 112.18 41.3301C112.21 41.7601 112.45 42.1901 112.47 42.6201C112.49 43.0501 112.38 43.5001 112.4 43.9301C112.42 44.3601 112.52 44.7901 112.54 45.2301C112.56 45.6701 112.79 46.0901 112.81 46.5201C112.83 46.9501 112.57 47.4001 112.59 47.8401C112.61 48.2801 112.8 48.7001 112.82 49.1301C112.84 49.5601 112.99 49.9901 113.02 50.4201C113.05 50.8501 112.74 51.3001 112.76 51.7401C112.78 52.1801 112.92 52.6001 112.94 53.0401C112.96 53.4801 112.89 53.9101 112.92 54.3501C112.95 54.7901 113.13 55.2101 113.15 55.6401C113.17 56.0701 113.27 56.5001 113.29 56.9401C113.31 57.3801 113.29 57.8101 113.32 58.2401C113.35 58.6701 113.37 59.1101 113.39 59.5401C113.41 59.9701 113.39 60.4101 113.4 60.8401C113.41 61.2701 113.33 61.7101 113.35 62.1501C113.37 62.5901 113.54 63.0101 113.56 63.4501C113.58 63.8901 113.62 64.3201 113.64 64.7501C113.66 65.1801 113.46 65.6301 113.48 66.0601C113.5 66.4901 113.75 66.9201 113.76 67.3501C113.77 67.7801 113.81 68.2201 113.82 68.6501C113.83 69.0801 113.76 69.5201 113.78 69.9501C113.8 70.3801 113.94 70.8101 113.96 71.2501C113.98 71.6901 113.94 72.1201 113.96 72.5501C113.98 72.9801 113.84 73.4201 113.85 73.8601C113.86 74.3001 114.02 74.7201 114.03 75.1601C114.04 75.6001 113.79 76.0301 113.8 76.4701C113.81 76.9101 113.98 77.3301 113.99 77.7701C114 78.2101 113.83 78.6401 113.84 79.0801C113.85 79.5201 113.85 79.9501 113.86 80.3801C113.87 80.8101 113.88 81.2501 113.89 81.6801C113.9 82.1101 114.02 82.5501 114.02 82.9801C114.02 83.4101 113.91 83.8501 113.91 84.2801C113.91 84.7101 114.09 85.1501 114.09 85.5801C114.09 86.0101 114.22 86.4501 114.22 86.8801C114.22 87.3101 114.13 87.7501 114.13 88.1801C114.13 88.6101 114.18 89.0501 114.17 89.4801C114.16 89.9101 114.06 90.3501 114.05 90.7801C114.04 91.2101 114.01 91.6501 114 92.0801C113.99 92.5101 114.19 92.9501 114.18 93.3801C114.17 93.8101 113.81 94.2401 113.8 94.6801C113.79 95.1201 114.02 95.5501 114.01 95.9901C114 96.4301 113.99 96.8601 113.99 97.2901C113.99 97.7201 114.05 98.1601 114.04 98.5901C114.03 99.0201 113.96 99.4601 113.94 99.8901C113.92 100.32 113.66 100.75 113.64 101.18C113.62 101.61 113.78 102.05 113.76 102.49C113.74 102.93 113.69 103.36 113.67 103.79C113.65 104.22 113.65 104.66 113.63 105.09C113.61 105.52 113.56 105.96 113.54 106.39C113.52 106.82 113.47 107.26 113.44 107.69C113.41 108.12 113.5 108.57 113.48 109.01C113.14 108.7 112.8 108.38 112.48 108.08C112.16 107.78 111.96 107.31 111.65 107C111.34 106.69 110.83 106.53 110.53 106.2C110.23 105.87 109.9 105.54 109.62 105.18C109.34 104.82 109.27 104.32 109.03 103.94C108.79 103.56 108.48 103.22 108.29 102.82C108.1 102.42 107.72 102.07 107.58 101.64C107.44 101.21 107.39 100.75 107.3 100.3C107.21 99.8501 107.31 99.4001 107.27 98.9401C107.23 98.5101 106.99 98.0601 107.01 97.5901C107.02 97.1501 107.32 96.7201 107.33 96.2801C107.34 95.84 107.06 95.4001 107.07 94.9601C107.08 94.5201 107.23 94.0901 107.23 93.6501C107.23 93.2101 107.24 92.7701 107.25 92.3401C107.26 91.9101 107.39 91.4701 107.39 91.0301C107.39 90.59 107.29 90.1501 107.29 89.7101C107.29 89.2701 107.22 88.8301 107.22 88.3901C107.22 87.9501 107.39 87.5101 107.39 87.0801C107.39 86.6501 107.48 86.2001 107.48 85.7701C107.48 85.3401 107.19 84.8901 107.19 84.4601C107.19 84.0301 107.27 83.5801 107.27 83.1501C107.27 82.7201 107.14 82.2701 107.14 81.8401C107.14 81.4101 107.15 80.9601 107.14 80.5301C107.13 80.1001 107.46 79.6501 107.45 79.2101C107.44 78.7701 107.23 78.3401 107.22 77.9001C107.21 77.4601 107.22 77.0201 107.22 76.5901C107.22 76.1601 107.11 75.7201 107.1 75.2801C107.09 74.8401 107.32 74.4001 107.31 73.9601C107.3 73.5201 107.23 73.0801 107.22 72.6501C107.21 72.2201 107.22 71.7701 107.21 71.3301C107.2 70.8901 106.86 70.4601 106.85 70.0301C106.84 69.5901 107.04 69.1401 107.02 68.6901C107 68.2401 106.98 67.8001 106.97 67.3601C106.96 66.9201 106.88 66.4801 106.86 66.0301C106.84 65.5801 106.98 65.1401 106.96 64.6901C106.94 64.2401 106.64 63.8201 106.62 63.3701C106.6 62.9201 106.78 62.4701 106.76 62.0301C106.74 61.5901 106.61 61.1501 106.59 60.7101C106.57 60.2701 106.59 59.8201 106.56 59.3801C106.53 58.9401 106.65 58.4901 106.63 58.0401C106.61 57.5901 106.27 57.1701 106.25 56.7301C106.23 56.2901 106.46 55.8301 106.43 55.3901C106.4 54.9501 106.12 54.5201 106.09 54.0801C106.06 53.6401 106.08 53.1901 106.05 52.7501C106.02 52.3101 106.07 51.8601 106.04 51.4201C106.01 50.9801 105.85 50.5401 105.82 50.1001C105.79 49.6601 105.93 49.2001 105.9 48.7601C105.87 48.3201 106.04 47.8601 106.01 47.4201C105.98 46.9801 105.61 46.5601 105.58 46.1201C105.55 45.6801 105.74 45.2201 105.71 44.7801C105.68 44.3401 105.65 43.9001 105.62 43.4501C105.59 43.0001 105.47 42.5701 105.44 42.1301C105.41 41.7001 105.24 41.2801 105.21 40.8501C105.18 40.4201 105.29 39.9801 105.26 39.5501C105.23 39.1201 105.25 38.6801 105.22 38.2501C105.19 37.8201 105.11 37.3901 105.08 36.9601C105.05 36.5301 104.88 36.1101 104.85 35.6801C104.82 35.2501 105.01 34.8001 104.97 34.3701C104.93 33.9401 104.81 33.5201 104.77 33.0801C104.73 32.6401 104.87 32.2001 104.84 31.7701C104.81 31.3401 104.65 30.9201 104.62 30.4901C104.59 30.0601 104.35 29.6401 104.31 29.2101C104.27 28.7801 104.2 28.3501 104.17 27.9201C104.14 27.4901 104.28 27.0401 104.24 26.6101C104.2 26.1801 104.29 25.7401 104.25 25.3101C104.21 24.8801 103.96 24.4701 103.92 24.0401C103.88 23.6101 103.86 23.1801 103.82 22.7501C103.78 22.3201 103.78 21.8901 103.74 21.4601C103.7 21.0301 103.62 20.6001 103.58 20.1701C103.54 19.7401 103.67 19.2901 103.63 18.8601C103.59 18.4301 103.61 17.9901 103.56 17.5601C103.51 17.1301 103.53 16.6901 103.49 16.2601C103.45 15.8301 103.13 15.4301 103.08 15.0001C103.03 14.5301 103.25 14.1001 103.27 13.7001C103.3 13.2301 103.12 12.7601 103.25 12.3801C103.39 11.9601 103.58 11.5301 103.84 11.1801C104.1 10.8301 104.43 10.5201 104.79 10.2401C105.11 9.99006 105.65 10.0301 106.06 9.80006C106.41 9.61006 106.66 9.20006 107.04 9.02006C107.39 8.85006 107.8 8.76006 108.19 8.57006C108.54 8.41006 108.95 8.32006 109.35 8.14006C109.7 7.98006 109.96 7.77006 110.36 7.58006V7.56006Z" fill="#FFD100"/>
<path d="M24.9003 27.8301C25.1203 27.6101 25.5303 27.4701 26.0603 27.3301C26.4403 27.2301 26.8603 27.0601 27.3203 26.9901C27.7403 26.9301 28.1803 26.9101 28.6203 26.8701C29.0603 26.8301 29.5103 26.8001 29.9203 26.7701C30.4003 26.7401 30.8403 26.6601 31.2203 26.6401C31.8103 26.6101 32.2203 26.5401 32.5503 26.3701C32.9603 26.1601 33.2303 25.8501 33.5203 25.4301C33.7403 25.1001 33.9903 24.7201 34.2903 24.2801C34.4903 23.9301 34.6603 23.5601 34.8203 23.1701C34.9803 22.7801 35.1403 22.4201 35.2803 22.0301C35.4203 21.6401 35.5403 21.2501 35.6803 20.8701C35.8203 20.4901 36.0303 20.1201 36.2203 19.7701C36.4103 19.4001 36.5903 19.0401 36.8503 18.7401C37.3303 18.2001 37.6903 17.8601 38.0503 17.8301C38.4303 17.8001 38.8503 18.0601 39.2903 18.6801C39.5503 19.0501 39.8203 19.4601 40.0403 19.9001C40.2503 20.3101 40.4003 20.7801 40.5803 21.2301C40.7603 21.6801 40.9003 22.1301 41.0703 22.5701C41.2403 23.0101 41.4403 23.4501 41.6203 23.8801C41.8203 24.3301 41.9903 24.7801 42.2103 25.1701C42.5103 25.6901 42.9103 25.9201 43.3803 26.0301C43.8103 26.1301 44.3203 26.0501 44.8603 26.0901C45.3603 26.1301 45.8603 26.2301 46.3603 26.2901C46.8603 26.3501 47.3503 26.4801 47.8503 26.5501C48.3503 26.6201 48.8603 26.6301 49.3503 26.7201C49.7003 26.7801 50.1903 26.8901 50.6503 27.0101C51.2603 27.1701 51.8003 27.4101 51.8603 27.5401C51.8603 28.0201 51.5303 28.3701 51.3103 28.5901C51.0003 28.9001 50.6503 29.1801 50.3103 29.4801C49.9703 29.7801 49.6303 30.0501 49.2903 30.3401C48.9503 30.6301 48.6803 30.9901 48.3303 31.2801C47.9803 31.5701 47.5903 31.7801 47.2403 32.0701C46.8903 32.3601 46.6003 32.7001 46.2703 32.9901C45.9403 33.2801 45.6103 33.5901 45.2803 33.8901C44.9503 34.2001 44.7903 34.5301 44.7803 34.9101C44.7803 35.2701 44.9303 35.6501 44.9603 36.0601C44.9903 36.5101 44.9603 36.9601 44.9703 37.4101C44.9803 37.8601 45.0803 38.3101 45.0803 38.7601C45.0803 39.2101 45.1303 39.6701 45.1203 40.1201C45.1103 40.5701 45.0203 41.0201 44.9903 41.4701C44.9503 42.1001 44.7403 42.4901 44.4103 42.6301C44.1003 42.7601 43.6803 42.6501 43.1303 42.3601C42.6603 42.1101 42.1403 41.9001 41.7003 41.6001C41.2603 41.3001 40.9103 40.8501 40.4603 40.5501C40.0803 40.2901 39.6003 39.9901 39.1303 39.6601C38.6803 39.3501 38.2003 39.0401 37.7803 38.7501C37.4503 39.0001 37.1003 39.2201 36.7503 39.4501C36.4303 39.6601 36.1103 39.9101 35.7603 40.1701C35.4603 40.4001 35.1803 40.6801 34.8503 40.9901C34.4803 41.2201 34.1603 41.4401 33.8703 41.6501C33.5503 41.8901 33.2303 42.1001 32.8903 42.3001C32.5803 42.4901 32.2403 42.6501 31.8303 42.8001C31.2303 43.0201 30.7903 43.0001 30.4503 42.8001C30.1103 42.6001 29.9603 42.2001 29.9503 41.5601C29.9503 41.1601 29.8403 40.7501 29.8603 40.3401C29.8803 39.9301 29.9403 39.5301 29.9803 39.1301C30.0203 38.7301 30.1403 38.3301 30.2003 37.9301C30.2603 37.5301 30.2803 37.1201 30.3703 36.7201C30.4703 36.2301 30.6303 35.7401 30.7203 35.3001C30.8203 34.8001 30.8103 34.3601 30.3903 33.9701C30.0303 33.6301 29.6503 33.3001 29.2603 32.9801C28.8703 32.6601 28.5003 32.3201 28.1303 31.9901C27.7603 31.6601 27.3703 31.3301 27.0603 30.9501C26.8603 30.7101 26.5603 30.3401 26.2203 29.9601C25.9303 29.6301 25.6203 29.2901 25.3703 28.9701C24.9903 28.4701 24.7503 28.0401 24.8503 27.8501L24.9003 27.8301Z" fill="white"/>
<path d="M49.2203 77.21C49.3303 76.92 49.6403 76.6 50.0603 76.24C50.3603 75.99 50.7303 75.74 51.1203 75.48C51.4703 75.25 51.8503 75.02 52.2303 74.79C52.6103 74.56 52.9603 74.28 53.3303 74.07C53.7503 73.84 54.1403 73.62 54.4703 73.44C54.9903 73.17 55.3003 72.91 55.5303 72.61C55.8103 72.24 55.9903 71.88 56.0703 71.38C56.1303 70.99 56.2303 70.55 56.3103 70.01C56.3503 69.61 56.3303 69.19 56.3103 68.78C56.2903 68.37 56.2003 67.97 56.1603 67.56C56.1203 67.15 56.0403 66.74 56.0103 66.34C55.9803 65.94 55.9503 65.5 55.9703 65.11C55.9903 64.69 56.0803 64.28 56.1903 63.9C56.4003 63.2 56.6603 62.82 56.9703 62.64C57.3103 62.45 57.7703 62.44 58.4303 62.81C58.8303 63.03 59.2103 63.34 59.5903 63.65C59.9503 63.94 60.2603 64.32 60.6203 64.65C60.9803 64.98 61.3403 65.27 61.6903 65.6C62.0403 65.93 62.3403 66.31 62.6903 66.61C63.0603 66.94 63.4103 67.27 63.7803 67.53C64.2703 67.87 64.7803 67.87 65.2503 67.78C65.6803 67.69 66.1403 67.48 66.6503 67.29C67.1203 67.11 67.6103 66.99 68.0903 66.84C68.5703 66.69 69.0303 66.47 69.5103 66.33C69.9903 66.19 70.5003 66.13 70.9903 66C71.3303 65.91 71.7903 65.68 72.2603 65.59C72.8803 65.48 73.3903 65.51 73.5003 65.59C73.7003 66.02 73.6103 66.42 73.5003 66.71C73.3503 67.12 73.2803 67.58 73.1103 67.99C72.9403 68.4 72.6503 68.76 72.4703 69.17C72.2903 69.58 72.1903 70.02 72.0003 70.43C71.8103 70.84 71.5803 71.22 71.3903 71.62C71.2003 72.02 71.0403 72.44 70.8503 72.84C70.6603 73.24 70.4703 73.65 70.3003 74.05C70.1303 74.47 70.1803 74.81 70.3403 75.16C70.4903 75.48 70.7303 75.79 70.9303 76.15C71.1503 76.55 71.3203 76.96 71.5303 77.37C71.7403 77.78 72.0003 78.14 72.2003 78.55C72.4003 78.96 72.5103 79.4 72.6903 79.81C72.8703 80.22 73.0903 80.62 73.2503 81.04C73.4803 81.63 73.4103 82.02 73.1703 82.29C72.9403 82.54 72.5603 82.65 71.9503 82.61C71.4103 82.58 70.8803 82.51 70.3503 82.42C69.8203 82.33 69.2903 82.22 68.7603 82.13C68.3003 82.06 67.7403 82.05 67.1603 81.95C66.6303 81.86 66.0903 81.77 65.5903 81.68C65.4003 82.04 65.1103 82.31 64.8903 82.66C64.6903 82.99 64.6103 83.41 64.4103 83.79C64.2403 84.12 63.9803 84.44 63.8203 84.86C63.5803 85.22 63.4403 85.58 63.2603 85.9C63.0703 86.25 62.9003 86.59 62.6803 86.92C62.4803 87.22 62.2303 87.5 61.9203 87.81C61.4703 88.26 61.0403 88.36 60.6603 88.32C60.2803 88.28 59.9003 88.06 59.6203 87.48C59.4503 87.11 59.2403 86.76 59.0803 86.38C58.9203 86 58.8403 85.6 58.7103 85.22C58.5803 84.84 58.4703 84.44 58.3603 84.06C58.2503 83.68 58.0603 83.3 57.9703 82.9C57.8503 82.41 57.8603 81.89 57.7503 81.45C57.6303 80.95 57.4203 80.54 56.8803 80.36C56.4103 80.2 55.9103 80.13 55.4203 80.01C54.9303 79.89 54.4503 79.75 53.9803 79.61C53.5103 79.47 53.0303 79.29 52.5803 79.08C52.3003 78.94 51.8703 78.74 51.4003 78.53C51.0003 78.35 50.5803 78.17 50.2203 77.98C49.6603 77.68 49.2403 77.39 49.2503 77.17L49.2203 77.21Z" fill="white"/>
<path d="M60.8603 37.93C61.1303 38.05 61.4303 38.45 61.6703 38.91C61.8703 39.29 62.0203 39.74 62.1703 40.09C62.2903 40.38 62.5803 40.92 62.7703 41.12C63.1403 41.12 63.5303 41.12 64.0303 41.11C64.4603 41.1 64.7703 41.05 65.0603 41.09C65.3503 41.13 65.6503 41.22 66.0603 41.36C66.7203 41.6 66.8503 41.84 66.4503 42.38C66.2403 42.66 65.9503 42.95 65.6503 43.25C65.3703 43.52 65.0703 43.79 64.7803 44.06C64.4703 44.35 64.2203 44.66 63.9903 44.91C64.1503 45.25 64.2903 45.67 64.4403 46.11C64.5903 46.55 64.7103 46.97 64.8103 47.35C64.9703 48 65.0603 48.53 64.9303 48.63C64.7203 48.71 64.2003 48.48 64.0603 48.42C63.5003 48.18 63.1003 48.06 62.7003 47.92C62.3003 47.78 61.9103 47.66 61.3603 47.4C60.9903 47.23 60.7003 47.46 60.3303 47.61C59.9403 47.78 59.5303 47.93 59.1303 48.07C58.7303 48.21 58.3203 48.34 57.9003 48.46C57.3403 48.62 57.1203 48.4 57.2103 47.84C57.2903 47.36 57.4203 46.89 57.5503 46.43C57.6603 46.04 57.8603 45.49 57.9903 45.04C57.5503 44.77 57.1903 44.44 56.5403 44.14C56.0403 43.77 55.6403 43.66 55.2303 43.2C54.8403 42.76 54.9203 42.4 55.4803 42.2C55.8403 42.07 56.2103 41.93 56.5803 41.84C56.9503 41.75 57.3403 41.69 57.7203 41.64C58.2303 41.56 58.7603 41.66 58.9703 41.22C59.1103 40.91 59.2103 40.58 59.3303 40.26C59.4503 39.94 59.5903 39.63 59.7803 39.34C60.0203 38.96 60.6003 37.88 60.8503 37.91L60.8603 37.93Z" fill="#FFD100"/>
<path d="M91.3803 75.4801C91.6503 75.6001 91.9103 76.0201 92.1503 76.4801C92.3503 76.8601 92.5603 77.2801 92.7103 77.6301C92.8303 77.9201 93.1203 78.4401 93.3003 78.6301C93.6703 78.6301 94.0503 78.6301 94.5503 78.6101C94.9803 78.6001 95.2903 78.5901 95.5803 78.6301C95.8703 78.6701 96.1603 78.7701 96.5803 78.9201C97.2403 79.1601 97.3703 79.3801 96.9703 79.9301C96.7603 80.2101 96.4903 80.5201 96.1903 80.8201C95.9103 81.0901 95.6103 81.3601 95.3203 81.6301C95.0103 81.9201 94.7403 82.2101 94.5103 82.4601C94.6703 82.8001 94.8103 83.2201 94.9603 83.6601C95.1103 84.1001 95.2603 84.5101 95.3503 84.9001C95.5103 85.5501 95.5603 86.0601 95.4303 86.1701C95.2203 86.2501 94.7203 86.0101 94.5903 85.9501C94.0303 85.7101 93.6003 85.6501 93.2103 85.5101C92.8203 85.3701 92.4203 85.2401 91.8703 84.9801C91.5003 84.8101 91.2203 85.0001 90.8503 85.1501C90.4603 85.3201 90.0503 85.4601 89.6403 85.6001C89.2303 85.7401 88.8403 85.9001 88.4203 86.0201C87.8603 86.1801 87.6003 85.9501 87.7003 85.3801C87.7803 84.9001 87.9403 84.4401 88.0703 83.9701C88.1803 83.5801 88.3703 83.0301 88.5003 82.5801C88.0603 82.3101 87.6903 81.9901 87.0403 81.7001C86.5403 81.3301 86.1503 81.2101 85.7303 80.7501C85.3403 80.3101 85.4303 79.9501 85.9903 79.7401C86.3503 79.6101 86.7203 79.4801 87.0903 79.3801C87.4603 79.2801 87.8503 79.1901 88.2303 79.1301C88.7403 79.0501 89.2803 79.1901 89.4803 78.7501C89.6203 78.4401 89.7703 78.1301 89.8903 77.8101C90.0103 77.4901 90.1403 77.1801 90.3303 76.9001C90.5703 76.5201 91.1203 75.4201 91.3603 75.4501L91.3803 75.4801Z" fill="#FFD100"/>
</svg>
