<svg width="101" height="104" viewBox="0 0 101 104" fill="none" xmlns="http://www.w3.org/2000/svg">
<g clip-path="url(#clip0_70_879)">
<path d="M93.977 44.0031C93.8747 43.7212 93.8401 43.4008 93.7931 43.0967C93.7355 42.7503 93.8196 42.3747 93.7292 42.0377C93.6602 41.7851 93.5912 41.5326 93.5222 41.28C93.4532 41.0275 93.3842 40.7749 93.32 40.5217C93.2558 40.2685 93.1677 40.0186 93.0987 39.766C93.0297 39.5135 92.9137 39.2723 92.8447 39.0197C92.7757 38.7672 92.7722 38.4959 92.7032 38.2433C92.6342 37.9907 92.5509 37.7402 92.4819 37.4876C92.4129 37.2351 92.3112 36.9919 92.2374 36.74C92.1704 36.5017 92.1409 36.2534 92.065 36.0212C91.9891 35.7891 91.8334 35.5776 91.748 35.3468C91.6626 35.1159 91.5635 34.8918 91.4733 34.6616C91.3831 34.4314 91.3898 34.1635 91.2907 33.9394C91.1916 33.7153 91.0646 33.4999 90.9607 33.2764C90.8568 33.0529 90.7714 32.8221 90.6628 32.5993C90.5542 32.3765 90.3691 32.1982 90.2516 31.9815C90.1341 31.7648 90.0391 31.5353 89.9222 31.3233C89.7865 31.08 89.6999 30.8056 89.5641 30.5623C89.4284 30.319 89.2878 30.0764 89.1473 29.8337C89.0067 29.5911 88.7269 29.4308 88.5864 29.1881C88.4458 28.9455 88.3865 28.6576 88.246 28.415C88.1055 28.1723 87.8707 27.9864 87.7302 27.7438C87.5964 27.5147 87.5746 27.2168 87.4353 26.9837C87.2961 26.7506 87.0592 26.5844 86.9207 26.356C86.7821 26.1276 86.6838 25.8743 86.5405 25.6466C86.3972 25.4189 86.3344 25.1412 86.187 24.9189C86.0395 24.6966 85.7446 24.5676 85.5978 24.3501C85.451 24.1326 85.4225 23.821 85.2662 23.6048C85.1099 23.3886 84.8517 23.2448 84.6913 23.034C84.5309 22.8232 84.4224 22.5664 84.2524 22.357C84.0825 22.1475 83.8612 21.9888 83.683 21.7902C83.4987 21.5828 83.2742 21.4003 83.0899 21.1928C82.9056 20.9854 82.7767 20.7217 82.5966 20.5088C82.4164 20.2959 82.2793 20.0431 82.1032 19.8247C81.9272 19.6064 81.773 19.3705 81.6017 19.1515C81.4304 18.9326 81.1792 18.7683 81.012 18.5439C80.8631 18.3461 80.706 18.1592 80.5489 17.9722C80.3917 17.7852 80.1997 17.6274 80.0378 17.4411C79.8759 17.2548 79.8008 16.9934 79.6348 16.8125C79.4688 16.6316 79.2645 16.49 79.0896 16.3152C78.9147 16.1404 78.711 16.0036 78.5279 15.8396C78.3448 15.6757 78.1665 15.5111 77.9792 15.3526C77.792 15.194 77.576 15.0735 77.3847 14.9204C77.1933 14.7673 77.0314 14.581 76.8353 14.4285C76.6392 14.2761 76.4527 14.1223 76.2572 13.9746C76.0618 13.827 75.8745 13.6684 75.675 13.5262C75.4598 13.3764 75.2604 13.2001 75.0404 13.051C74.8205 12.9018 74.63 12.7195 74.4107 12.5751C74.1914 12.4308 73.9316 12.3454 73.7082 12.2064C73.4848 12.0675 73.2058 12.0187 72.9824 11.8798C72.759 11.7408 72.583 11.5225 72.3602 11.3883C72.1375 11.2541 71.8702 11.1843 71.6427 11.0508C71.4152 10.9173 71.2542 10.6677 71.0274 10.539C70.8005 10.4102 70.5256 10.356 70.2947 10.2327C70.0637 10.1093 69.8128 10.0179 69.5819 9.8945C69.3509 9.77116 69.1275 9.6322 68.8918 9.50952C68.656 9.38683 68.4594 9.19563 68.2244 9.0777C67.9893 8.95978 67.7356 8.88326 67.4958 8.76599C67.2553 8.64397 66.9886 8.57895 66.7447 8.46711C66.5007 8.35527 66.2382 8.28483 65.9901 8.17841C65.742 8.072 65.5346 7.87259 65.283 7.77636C65.0315 7.68012 64.769 7.60969 64.514 7.52364C64.2591 7.43759 63.9903 7.39229 63.7319 7.31642C63.4734 7.24056 63.2351 7.09882 62.9725 7.02839C62.71 6.95795 62.4481 6.89227 62.1876 6.83612C61.9073 6.77785 61.6144 6.80384 61.3334 6.7408C61.0525 6.67777 60.7888 6.56381 60.5085 6.50553C60.2282 6.44726 59.9485 6.39375 59.6689 6.34024C59.3893 6.28673 59.1118 6.21351 58.8321 6.16C58.5879 6.11616 58.3295 6.18105 58.0859 6.14197C57.8423 6.10288 57.6266 5.91432 57.383 5.87524C57.1394 5.83616 56.89 5.86097 56.6464 5.82189C56.4028 5.78281 56.1543 5.77838 55.912 5.74883C55.6697 5.71927 55.4269 5.65095 55.1846 5.62139C54.9423 5.59184 54.7071 5.50791 54.4668 5.49264C54.2265 5.47737 53.9752 5.62865 53.7356 5.61814C53.4959 5.60764 53.2592 5.54818 53.0161 5.54786C52.773 5.54754 52.531 5.44999 52.2892 5.45919C52.0474 5.46839 51.8037 5.46331 51.5632 5.48204C51.3227 5.50077 51.081 5.50997 50.8412 5.53346C50.587 5.55893 50.3395 5.63203 50.0861 5.66226C49.8326 5.6925 49.5752 5.69416 49.3278 5.73326C49.0805 5.77235 48.8488 5.95975 48.6021 6.00361C48.3554 6.04748 48.1045 6.09676 47.8531 6.14128C47.6016 6.1858 47.3242 6.07859 47.0741 6.13263C46.8239 6.18668 46.6078 6.38162 46.3624 6.43501C46.1171 6.4884 45.8569 6.505 45.6115 6.55839C45.3661 6.61178 45.0993 6.58076 44.8491 6.6348C44.599 6.68885 44.3689 6.81778 44.1235 6.87116C43.8699 6.9354 43.6316 7.07517 43.378 7.1394C43.1244 7.20363 42.8319 7.12763 42.5783 7.19187C42.3247 7.2561 42.0624 7.29242 41.804 7.35731C41.5456 7.4222 41.3014 7.51911 41.0471 7.57858C40.7928 7.63805 40.5552 7.78258 40.2962 7.84271C40.0603 7.89478 39.8031 7.86244 39.5685 7.92403C39.334 7.98562 39.0988 8.04245 38.8656 8.11357C38.6324 8.18468 38.4039 8.25514 38.1714 8.33102C37.9388 8.4069 37.7117 8.48688 37.4859 8.57638C37.2601 8.66589 37.0343 8.7554 36.8146 8.85377C36.5948 8.95214 36.3832 9.07366 36.1648 9.18156C35.9689 9.27663 35.8047 9.45954 35.596 9.53212C35.3873 9.6047 35.1591 9.60716 34.9498 9.67497C34.7404 9.74278 34.56 9.8794 34.3574 9.96084C34.1138 10.0625 33.8811 10.1724 33.6382 10.2788C33.3953 10.3853 33.0945 10.3541 32.8617 10.464C32.629 10.5739 32.4286 10.7763 32.2026 10.8998C31.963 11.0301 31.7565 11.2237 31.5223 11.3581C31.2881 11.4924 30.962 11.489 30.7291 11.6329C30.4962 11.7768 30.3378 12.0365 30.1049 12.1804C29.872 12.3243 29.627 12.4504 29.3996 12.5984C29.1899 12.7342 28.9741 12.8612 28.759 12.9929C28.5439 13.1246 28.3464 13.2781 28.1313 13.4098C27.9162 13.5416 27.712 13.6815 27.4969 13.8132C27.2818 13.9449 27.0458 14.0309 26.8313 14.1674C26.6169 14.3039 26.3998 14.4213 26.1956 14.5612C25.9913 14.7011 25.7945 14.8594 25.597 15.013C25.3995 15.1665 25.2128 15.3283 25.0214 15.4907C24.8389 15.647 24.674 15.8251 24.4867 15.9821C24.2994 16.1391 24.0634 16.2252 23.8754 16.3774C23.6875 16.5296 23.4867 16.6593 23.2926 16.8027C23.0986 16.946 22.9411 17.1426 22.7409 17.2771C22.5319 17.4176 22.279 17.4866 22.0856 17.6348C21.8922 17.7829 21.6662 17.9064 21.4748 18.0688C21.2834 18.2312 21.1259 18.4277 20.9454 18.5983C20.7648 18.7689 20.5849 18.9443 20.4098 19.119C20.2347 19.2937 20.0318 19.4432 19.8573 19.6227C19.6828 19.8021 19.5857 20.0486 19.416 20.2274C19.2463 20.4062 19.0942 20.6068 18.9245 20.7856C18.7548 20.9645 18.4909 21.0592 18.3212 21.2381C18.1515 21.4169 18.0774 21.6892 17.9029 21.8687C17.7326 22.0428 17.5772 22.2196 17.4171 22.3971C17.2569 22.5746 17.0859 22.7439 16.9318 22.9302C16.7778 23.1166 16.6339 23.3064 16.4853 23.4968C16.3366 23.6873 16.188 23.8778 16.0387 24.0635C15.8894 24.2492 15.7191 24.4232 15.5704 24.6137C15.4218 24.8041 15.2067 24.9358 15.0526 25.1222C14.902 25.2984 14.7853 25.5087 14.6191 25.6773C14.4528 25.8459 14.2459 25.9668 14.0892 26.1341C13.9325 26.3014 13.7405 26.4591 13.6061 26.6475C13.4519 26.8679 13.314 27.1005 13.1598 27.3209C13.0055 27.5413 12.8574 27.7705 12.708 27.9902C12.5585 28.2099 12.4749 28.4836 12.3315 28.7121C12.1882 28.9407 12.0122 29.1446 11.8743 29.3773C11.7364 29.6099 11.5719 29.8269 11.4442 30.063C11.3165 30.2991 11.2675 30.5777 11.15 30.8172C11.0325 31.0567 10.936 31.3079 10.8293 31.5557C10.7522 31.7362 10.5814 31.8715 10.5091 32.0514C10.382 32.2923 10.3222 32.5627 10.2006 32.8076C10.0789 33.0526 9.96204 33.2969 9.84517 33.5412C9.72829 33.7855 9.52308 33.9887 9.41229 34.2419C9.30151 34.495 9.19483 34.7428 9.09359 34.9946C8.99234 35.2465 8.8707 35.4915 8.77965 35.7468C8.6886 36.002 8.67915 36.2849 8.59353 36.5443C8.51136 36.7935 8.49516 37.0627 8.41299 37.3119C8.33082 37.5611 8.23846 37.8069 8.16106 38.0554C8.08366 38.304 8.00692 38.5573 7.92952 38.8058C7.85213 39.0544 7.71963 39.2912 7.64766 39.5438C7.57569 39.7965 7.59008 40.076 7.51268 40.3245C7.47604 40.4461 7.37886 40.5518 7.36196 40.6755C7.33078 40.9419 7.33432 41.2132 7.29837 41.4803C7.26243 41.7474 7.27139 42.0228 7.23002 42.2858C7.18865 42.5488 7.08329 42.806 7.02761 43.071C6.97193 43.3359 6.91082 43.5968 6.84494 43.8583C6.77906 44.1198 6.66762 44.3683 6.59088 44.6216C6.51414 44.8749 6.45846 45.1398 6.36741 45.3951C6.29773 45.5941 6.24433 45.8053 6.22022 46.0174C6.19184 46.2689 6.26758 46.535 6.23919 46.7865C6.21081 47.038 6.05923 47.2774 6.03151 47.5336C6.00379 47.7899 6.08364 48.0506 6.06003 48.3014C6.03133 48.6209 5.89375 48.9263 5.86506 49.2458C5.83637 49.5653 5.87578 49.885 5.87637 50.2053C5.87579 50.482 5.93788 50.7549 5.9373 51.0317C5.93672 51.3084 5.81493 51.5874 5.81912 51.8635C5.82331 52.1396 5.80843 52.4183 5.82216 52.6931C5.83589 52.9678 6.00966 53.2399 6.02339 53.5146C6.03713 53.7894 6.00184 54.0612 6.02512 54.3347C6.04839 54.6081 6.01376 54.8847 6.04658 55.1569C6.07939 55.429 6.10266 55.7024 6.14501 55.9732C6.18736 56.244 6.22494 56.5155 6.27206 56.7856C6.31918 57.0558 6.37107 57.3253 6.42773 57.5941C6.48439 57.8629 6.66375 58.105 6.72452 58.3684C6.77377 58.6189 6.80872 58.8713 6.85731 59.117C6.9059 59.3626 6.85088 59.6323 6.89537 59.8834C6.93985 60.1345 7.0743 60.3683 7.0997 60.622C7.12511 60.8758 7.0436 61.1298 7.04038 61.3875C7.03651 61.6404 7.194 61.9001 7.2773 62.1507C7.38677 62.485 7.59855 62.7857 7.68895 63.1227C7.7553 63.3562 7.8312 63.5884 7.89755 63.8219C7.9639 64.0554 8.02072 64.2902 8.08707 64.5237C8.15343 64.7572 8.16863 65.0075 8.23976 65.2404C8.31088 65.4732 8.45634 65.6812 8.53224 65.9134C8.60813 66.1456 8.63698 66.3891 8.72242 66.62C8.80785 66.8508 8.94311 67.0554 9.03266 67.2808C9.1222 67.5063 9.23493 67.7236 9.32859 67.9437C9.42224 68.1637 9.48449 68.4026 9.58834 68.6261C9.69219 68.8495 9.71349 69.1087 9.82079 69.3219C9.94159 69.5625 10.1491 69.7619 10.2699 70.0024C10.3907 70.2429 10.5026 70.4896 10.6288 70.7342C10.755 70.9788 10.9209 71.1937 11.0465 71.4336C11.172 71.6734 11.3112 71.9065 11.4368 72.1464C11.5624 72.3863 11.6204 72.6646 11.7459 72.9045C11.8053 73.0176 11.9152 73.1092 11.9931 73.2149C12.1285 73.3855 12.2906 73.5378 12.4219 73.7137C12.5532 73.8897 12.5773 74.1339 12.7038 74.3105C12.78 74.4747 12.8781 74.6213 12.9543 74.7855C13.0642 75.0178 13.2056 75.2313 13.3148 75.4588C13.4241 75.6864 13.5068 75.9322 13.6208 76.1591C13.7349 76.386 13.8537 76.6122 13.9773 76.8378C14.1009 77.0634 14.2238 77.2842 14.3467 77.505C14.4697 77.7258 14.5803 77.9629 14.7121 78.1777C14.8439 78.3924 14.99 78.6051 15.1314 78.8186C15.2727 79.032 15.4762 79.2028 15.6265 79.4101C15.7767 79.6175 15.8736 79.8613 16.0328 80.0625C16.1919 80.2638 16.39 80.4305 16.5573 80.6209C16.7246 80.8113 16.8961 80.9963 17.0729 81.1854C17.2607 81.3827 17.514 81.5272 17.6983 81.7347C17.8826 81.9421 17.9397 82.2497 18.1192 82.4578C18.2987 82.666 18.5261 82.8335 18.7056 83.0416C18.8851 83.2498 19.0605 83.4633 19.2394 83.6667C19.4182 83.8701 19.5724 84.106 19.7601 84.3033C19.9479 84.5005 20.1835 84.6572 20.3801 84.8484C20.5699 85.026 20.8022 85.1589 20.9968 85.3358C21.1915 85.5127 21.2712 85.8075 21.4651 85.9796C21.6591 86.1518 21.9085 86.2677 22.1025 86.4399C22.2965 86.612 22.5534 86.7123 22.7521 86.8838C22.9509 87.0553 23.1195 87.2553 23.3176 87.422C23.5157 87.5887 23.6562 87.8314 23.8632 87.992C24.0702 88.1527 24.3094 88.2652 24.5204 88.4204C24.7315 88.5756 24.9138 88.7688 25.1283 88.9138C25.3429 89.0589 25.6342 89.0913 25.8528 89.231C26.0389 89.346 26.1721 89.5362 26.3459 89.6675C26.5196 89.7988 26.7098 89.9083 26.8787 90.0403C27.0477 90.1722 27.2303 90.2974 27.4034 90.4239C27.6043 90.5757 27.7517 90.798 27.9519 90.945C28.1521 91.092 28.4229 91.1516 28.6279 91.2979C28.8329 91.4443 29.0495 91.5696 29.2545 91.716C29.4595 91.8624 29.6803 91.9823 29.8887 92.1184C30.0971 92.2546 30.298 92.4064 30.5112 92.5419C30.7244 92.6774 30.9246 92.8244 31.1413 92.9498C31.3579 93.0751 31.5169 93.3103 31.737 93.4255C31.9571 93.5406 32.2362 93.5554 32.4605 93.6651C32.6847 93.7748 32.8903 93.9259 33.1275 94.0241C33.3593 94.1182 33.5829 94.2232 33.8112 94.3275C34.0395 94.4318 34.3002 94.454 34.5286 94.5582C34.7569 94.6625 34.9358 94.8659 35.1641 94.9702C35.3924 95.0745 35.6613 95.0858 35.8849 95.1908C36.1601 95.3177 36.4278 95.4602 36.7092 95.562C36.9492 95.6453 37.1596 95.7958 37.3949 95.8797C37.6301 95.9636 37.877 96.0265 38.1122 96.1104C38.3475 96.1944 38.5978 96.2471 38.8331 96.331C39.0683 96.4149 39.3221 96.4574 39.5608 96.5312C39.7995 96.6049 40.0332 96.7133 40.2754 96.7769C40.5175 96.8404 40.7734 96.8632 41.0156 96.9268C41.2577 96.9904 41.4652 97.1898 41.7121 97.2527C41.959 97.3155 42.2248 97.269 42.4704 97.3224C42.7159 97.3758 42.9553 97.4543 43.2071 97.4825C43.4542 97.5114 43.7047 97.5301 43.9573 97.5291C44.2249 97.5309 44.484 97.6115 44.7523 97.6181C45.0206 97.6246 45.2866 97.5101 45.5508 97.5221C45.815 97.5341 46.0782 97.6093 46.343 97.626C46.6078 97.6427 46.8741 97.635 47.1396 97.6565C47.405 97.678 47.6579 97.7837 47.924 97.81C48.1902 97.8362 48.4515 97.8632 48.7135 97.8948C48.9756 97.9265 49.2438 97.9331 49.5065 97.9695C49.7638 98.0018 50.0284 97.9118 50.2885 97.9292C50.5485 97.9466 50.803 97.9939 51.061 97.997C51.3191 98.0001 51.5789 98.0855 51.8404 98.0784C52.1114 98.07 52.3868 98.0222 52.6606 97.9988C52.9345 97.9755 53.1912 97.8283 53.4644 97.8002C53.7376 97.7721 54.0106 97.778 54.2851 97.7594C54.5304 97.74 54.7873 97.8403 55.0319 97.8162C55.2765 97.792 55.5113 97.6624 55.7552 97.6335C55.9991 97.6046 56.2556 97.6662 56.4982 97.6277C56.7408 97.5893 56.9621 97.4324 57.2047 97.394C57.4473 97.3556 57.6899 97.3171 57.9312 97.2692C58.1725 97.2212 58.4317 97.2678 58.6723 97.2151C58.9129 97.1624 59.1335 97.0348 59.3728 96.9725C59.6121 96.9103 59.8427 96.8201 60.0813 96.7531C60.3199 96.6861 60.5531 96.615 60.7911 96.5432C61.0291 96.4714 61.2529 96.3676 61.4909 96.2958C61.7289 96.2241 61.9695 96.1713 62.2021 96.0955C62.4346 96.0196 62.6813 95.9757 62.9173 95.8897C63.1533 95.8036 63.3543 95.6399 63.5855 95.5545C63.8168 95.4691 64.0944 95.5083 64.3257 95.4229C64.5569 95.3375 64.7733 95.2153 65.0039 95.1251C65.2345 95.035 65.4347 94.8665 65.6606 94.777C65.8632 94.6955 66.1055 94.7251 66.3081 94.6436C66.5107 94.5622 66.687 94.431 66.8842 94.3455C67.0814 94.2599 67.2994 94.22 67.496 94.1297C67.691 94.0639 67.8793 93.9844 68.0785 93.9132C68.2777 93.8419 68.4531 93.7399 68.6462 93.6598C68.8809 93.5642 69.1391 93.5333 69.3745 93.4425C69.6098 93.3517 69.8317 93.2336 70.067 93.1428C70.3024 93.052 70.5316 92.9523 70.7724 92.8655C71.0132 92.7788 71.2498 92.6975 71.4858 92.6114C71.7723 92.5038 72.0703 92.4092 72.3433 92.2743C72.5706 92.1603 72.7513 91.9557 72.984 91.8458C73.2167 91.736 73.4871 91.7228 73.7198 91.6129C73.9525 91.5031 74.1143 91.2671 74.3416 91.1531C74.5689 91.0391 74.863 91.0567 75.0896 90.9379C75.3162 90.8192 75.5367 90.6916 75.7566 90.5592C75.9771 90.4316 76.1855 90.2863 76.406 90.1587C76.6266 90.0311 76.816 89.8544 77.0359 89.722C77.2557 89.5896 77.4648 89.4491 77.6738 89.3085C77.8828 89.1679 78.144 89.0881 78.3456 88.9291C78.5472 88.7701 78.6858 88.5422 78.865 88.3621C79.0524 88.1711 79.2331 87.9665 79.426 87.7796C79.6189 87.5928 79.8226 87.4141 80.021 87.2313C80.2193 87.0485 80.4467 86.9006 80.6498 86.7171C80.8529 86.5337 81.064 86.3734 81.2684 86.1995C81.4728 86.0256 81.6596 85.8299 81.8688 85.6553C82.0779 85.4807 82.3013 85.3382 82.5111 85.1683C82.7209 84.9985 82.8549 84.7373 83.0701 84.5716C83.2765 84.412 83.4775 84.2482 83.6717 84.0709C83.8659 83.8935 84.0329 83.6957 84.221 83.5095C84.4091 83.3232 84.6379 83.1848 84.8151 82.9904C85.0054 82.7844 85.1474 82.5464 85.3268 82.3322C85.5062 82.1181 85.7792 81.9832 85.9538 81.7697C86.1284 81.5563 86.297 81.3339 86.477 81.1246C86.64 80.9321 86.8083 80.7438 86.9611 80.5479C87.1138 80.352 87.2055 80.1015 87.3576 79.9008C87.5097 79.7002 87.6461 79.492 87.7982 79.2914C87.9503 79.0907 88.173 78.9434 88.3142 78.7346C88.4554 78.5257 88.5328 78.2772 88.6693 78.069C88.8057 77.8608 88.947 77.6519 89.078 77.4396C89.209 77.2273 89.2871 76.9836 89.412 76.7624C89.537 76.5412 89.7095 76.3475 89.8344 76.1263C89.9593 75.9052 90.0843 75.684 90.199 75.4594C90.3138 75.2348 90.3864 74.9869 90.4957 74.7582C90.605 74.5295 90.662 74.2741 90.7713 74.0454C90.8806 73.8167 91.1354 73.6552 91.2447 73.4265C91.354 73.1978 91.4062 72.9431 91.5053 72.7109C91.6045 72.4788 91.6567 72.224 91.7558 71.9919C91.8549 71.7597 92.0573 71.5715 92.1565 71.3394C92.2556 71.1072 92.2201 70.8161 92.3192 70.5839C92.4142 70.3572 92.5921 70.1675 92.6871 69.9408C92.7821 69.7141 92.7949 69.4551 92.8804 69.2297C92.9658 69.0043 93.0656 68.7769 93.145 68.5426C93.2243 68.3084 93.4166 68.1167 93.4912 67.8831C93.5658 67.6495 93.4731 67.3663 93.5423 67.1286C93.6115 66.8909 93.7269 66.671 93.7865 66.4346C93.8461 66.1983 93.9105 65.9612 93.96 65.7214C94.0094 65.4816 94.0439 65.239 94.0831 64.9957C94.1224 64.7524 94.2167 64.5209 94.241 64.2749C94.2652 64.0288 94.3242 63.7877 94.339 63.543C94.3517 63.284 94.2705 63.0137 94.3119 62.7507C94.352 62.4782 94.5105 62.2184 94.5553 61.9452C94.6001 61.6721 94.5252 61.3767 94.57 61.1035C94.6148 60.8303 94.744 60.5698 94.7841 60.2973C94.8241 60.0247 94.7791 59.7349 94.8192 59.4624C94.8593 59.1899 94.8939 58.9133 94.9237 58.6373C94.9536 58.3614 94.9494 58.0853 94.9697 57.8107C94.9886 57.5605 95.0115 57.305 95.0256 57.0555C95.0396 56.806 95.1116 56.5533 95.1203 56.2997C95.1289 56.0461 95.162 55.794 95.1761 55.5445C95.1902 55.295 95.252 55.0389 95.2613 54.7901C95.2706 54.5413 95.1764 54.2825 95.1803 54.0295C95.1842 53.7766 95.2657 53.5226 95.26 53.271C95.2543 53.0194 95.1853 52.7669 95.1749 52.5159C95.1645 52.2649 95.1683 52.012 95.1525 51.757C95.1366 51.5019 95.1357 51.2496 95.111 51.0007C95.0842 50.7374 95.082 50.4756 95.0607 50.2164C95.0394 49.9573 94.9787 49.6939 94.9526 49.4354C94.9265 49.1769 94.8951 48.9143 94.8683 48.651C94.8416 48.3878 94.8919 48.1187 94.8658 47.8602C94.8397 47.6017 94.7026 47.3489 94.6718 47.0911C94.641 46.8332 94.6763 46.5614 94.6305 46.3007C94.5847 46.0401 94.5491 45.783 94.4937 45.5237C94.4384 45.2644 94.3926 45.0037 94.3188 44.7518C94.245 44.5 94.0826 44.2749 93.9952 44.0297L93.977 44.0031Z" fill="#FF8792"/>
<g opacity="0.55">
<path d="M71.8238 64.2574C71.7948 63.9071 71.7152 63.5783 71.6847 63.2525C71.6563 62.907 71.649 62.5731 71.6178 62.2425C71.5866 61.9119 71.6788 61.5593 71.6422 61.2246C71.6089 60.9138 71.5033 60.608 71.4694 60.2924C71.4354 59.9767 71.4164 59.6639 71.3831 59.353C71.3497 59.0421 71.2872 58.7304 71.2538 58.4195C71.2205 58.1086 71.115 57.8029 71.081 57.4872C71.047 57.1716 71.1623 56.845 71.1289 56.5341C71.0956 56.2232 70.9227 55.922 70.8893 55.6111C70.856 55.3002 70.961 54.9702 70.9277 54.6593C70.8944 54.3484 70.8652 54.0321 70.8319 53.7212C70.7986 53.4103 70.6549 53.1099 70.6209 52.7942C70.5869 52.4786 70.5972 52.1665 70.5632 51.8509C70.5293 51.5352 70.4769 51.227 70.4435 50.9161C70.4102 50.6052 70.3333 50.2955 70.3 49.9846C70.2667 49.6737 70.2184 49.3601 70.1899 49.0485C70.162 48.7417 70.1532 48.4323 70.1212 48.131C70.0933 47.8242 70.032 47.522 69.9993 47.2159C69.9667 46.9098 69.9872 46.6011 69.9545 46.295C69.9218 45.9889 69.9375 45.6809 69.9049 45.3748C69.8722 45.0687 69.7823 44.7705 69.7449 44.465C69.7075 44.1596 69.6605 43.8554 69.6183 43.5506C69.5761 43.2458 69.5578 42.9377 69.5204 42.6323C69.4829 42.3268 69.5361 42.0088 69.4939 41.704C69.4517 41.3992 69.3714 41.0997 69.3244 40.7955C69.2774 40.4914 69.1357 40.2052 69.084 39.9017C69.0323 39.5983 69.0991 39.2735 69.0426 38.9707C68.9861 38.6679 68.826 38.3891 68.7647 38.0869C68.7334 37.9311 68.711 37.7692 68.6797 37.6133C68.5643 37.0954 68.5398 36.7784 68.3375 36.6511C68.1351 36.5238 67.8252 36.5327 67.3012 36.6101C67.0055 36.6511 66.6973 36.7423 66.3749 36.8015C66.0526 36.8606 65.76 36.9594 65.4526 37.0214C65.1452 37.0833 64.8294 37.1902 64.5376 37.2597C64.2411 37.3298 63.926 37.3007 63.6335 37.3654C63.3411 37.4302 63.0605 37.5806 62.7627 37.6413C62.4648 37.7019 62.1571 37.6912 61.8579 37.7423C61.5587 37.7934 61.2676 37.8677 60.9678 37.9141C60.6679 37.9604 60.3609 37.9544 60.0651 37.9953C59.7694 38.0363 59.4754 38.1595 59.179 38.1957C58.8826 38.2318 58.5775 38.2401 58.2763 38.277C57.9752 38.3138 57.6748 38.3214 57.3737 38.3582C57.0725 38.3951 56.7839 38.5224 56.4821 38.5545C56.1803 38.5865 55.872 38.537 55.575 38.5684C55.2779 38.5998 54.9839 38.723 54.6875 38.7592C54.3911 38.7954 54.088 38.8179 53.7868 38.8548C53.4857 38.8916 53.1801 38.8611 52.8789 38.898C52.5778 38.9348 52.2779 38.9812 51.9774 39.0228C51.6769 39.0644 51.3654 38.991 51.0649 39.0326C50.7453 39.0768 50.4257 39.1211 50.1116 39.1694C49.7975 39.2178 49.4871 39.3287 49.1682 39.3777C48.8493 39.4267 48.5483 39.5703 48.2342 39.6186C47.92 39.667 47.5998 39.7065 47.2816 39.7602C46.9633 39.814 46.6272 39.7392 46.309 39.7929C45.9907 39.8467 45.6898 39.9903 45.3756 40.0386C45.0615 40.087 44.7492 40.1836 44.4309 40.2374C44.1127 40.2911 43.7766 40.2163 43.4625 40.2647C43.1483 40.313 42.8426 40.4573 42.523 40.5015C42.2034 40.5457 41.8926 40.6179 41.5724 40.6574C41.2521 40.6969 40.9182 40.6023 40.6021 40.6364C40.2955 40.6691 40.0039 40.8454 39.6932 40.8836C39.3825 40.9217 39.0689 40.8681 38.7588 40.911C38.4488 40.9539 38.1442 41.0009 37.8396 41.0479C37.535 41.095 37.2256 41.1427 36.921 41.1897C36.6164 41.2367 36.307 41.2844 36.0024 41.3314C35.6978 41.3784 35.3852 41.4023 35.0805 41.4493C34.7759 41.4963 34.4806 41.61 34.1712 41.6577C33.8618 41.7054 33.5585 41.762 33.2533 41.8042C32.948 41.8465 32.6413 41.9132 32.336 41.9555C32.0307 41.9977 31.7077 41.9114 31.397 41.9496C31.0863 41.9877 30.7889 42.0871 30.4824 42.1199C30.094 42.1591 29.7482 42.2943 29.2207 42.3819C29.2779 42.6895 29.2187 42.9646 29.2752 43.2674C29.3317 43.5703 29.4795 43.8653 29.536 44.1681C29.5925 44.4709 29.5645 44.7952 29.6169 45.1034C29.6693 45.4117 29.7783 45.7072 29.8259 46.0161C29.8783 46.3244 30.0064 46.6173 30.054 46.9262C30.1016 47.2351 30.0968 47.5513 30.139 47.8561C30.1812 48.1609 30.1484 48.4857 30.1906 48.7906C30.2327 49.0954 30.4092 49.3864 30.452 49.696C30.4949 50.0056 30.5043 50.3197 30.5418 50.6252C30.5792 50.9307 30.5553 51.2495 30.5934 51.5597C30.6314 51.8699 30.6981 52.1762 30.7356 52.4816C30.773 52.7871 30.7825 53.1013 30.8206 53.4115C30.8586 53.7217 30.9056 54.0259 30.9437 54.3361C30.9818 54.6463 30.9715 54.9584 31.0048 55.2693C31.0381 55.5802 31.1478 55.8805 31.1804 56.1866C31.2131 56.4927 31.1892 56.8115 31.2225 57.1224C31.2558 57.4333 31.3559 57.7349 31.3892 58.0458C31.4225 58.3567 31.417 58.6681 31.4456 58.9797C31.4741 59.2912 31.5068 59.5973 31.5353 59.9089C31.5639 60.2204 31.5584 60.5318 31.5869 60.8434C31.6155 61.1549 31.629 61.4637 31.6576 61.7752C31.6861 62.0868 31.8435 62.3805 31.872 62.692C31.9005 63.0036 31.8562 63.3155 31.8848 63.627C31.9133 63.9386 31.9943 64.2429 32.0175 64.5503C32.0406 64.8578 31.9826 65.1764 32.0112 65.488C32.0397 65.7995 32.1207 66.1038 32.1486 66.4106C32.1765 66.7174 32.205 67.0289 32.2336 67.3405C32.2621 67.652 32.194 67.9672 32.2225 68.2788C32.2511 68.5903 32.2987 68.8992 32.3266 69.206C32.3545 69.5128 32.4231 69.8333 32.4565 70.1442C32.7637 70.1162 33.0825 70.1012 33.3897 70.0733C33.6969 70.0453 34.0095 70.0554 34.3174 70.0322C34.6253 70.009 34.9325 69.981 35.2391 69.9483C35.5457 69.9156 35.8496 69.8638 36.161 69.8304C36.4723 69.797 36.773 69.7214 37.0795 69.6886C37.3861 69.6559 37.6986 69.666 38.0052 69.6333C38.3118 69.6006 38.6237 69.6059 38.9302 69.5732C39.2368 69.5405 39.5317 69.388 39.8383 69.3553C40.1449 69.3225 40.4626 69.3708 40.7692 69.338C41.0758 69.3053 41.3857 69.2964 41.6923 69.2636C41.9989 69.2309 42.2969 69.1362 42.6076 69.0981C42.9183 69.0599 43.222 69.0421 43.528 69.0046C43.8339 68.9671 44.1312 68.8677 44.4419 68.8296C44.7526 68.7914 45.0571 68.7784 45.363 68.7409C45.6689 68.7034 45.9808 68.7088 46.2867 68.6713C46.5926 68.6338 46.8999 68.6058 47.2058 68.5683C47.5117 68.5308 47.8044 68.3981 48.1097 68.3558C48.415 68.3135 48.7301 68.3427 49.0354 68.3004C49.3407 68.2582 49.6453 68.2112 49.9505 68.1689C50.2558 68.1266 50.5551 68.0415 50.8604 67.9993C51.1656 67.957 51.4709 67.9147 51.7762 67.8725C52.0814 67.8302 52.3907 67.8165 52.6953 67.7695C52.9999 67.7225 53.315 67.7517 53.6244 67.704C53.9338 67.6563 54.2191 67.5052 54.5237 67.4581C54.8283 67.4111 55.1375 67.3974 55.4421 67.3504C55.7467 67.3034 56.0586 67.3087 56.368 67.2611C56.6773 67.2134 56.9765 67.1623 57.2805 67.1105C57.5844 67.0587 57.8851 66.9831 58.189 66.9313C58.4929 66.8795 58.7903 66.7801 59.0942 66.7283C59.3982 66.6765 59.7028 66.6295 60.0061 66.573C60.3094 66.5164 60.6253 66.5164 60.9293 66.4646C61.2332 66.4128 61.5398 66.38 61.8431 66.3235C62.1464 66.267 62.4245 66.0634 62.7277 66.0069C63.031 65.9503 63.347 65.9503 63.6503 65.8937C63.9536 65.8372 64.2621 65.8187 64.5661 65.7669C64.87 65.7152 65.1606 65.6021 65.4639 65.5456C65.7672 65.489 66.0725 65.4468 66.3751 65.3855C66.6777 65.3241 66.9817 65.2724 67.2843 65.211C67.5869 65.1497 67.8902 65.0932 68.1928 65.0319C68.4954 64.9706 68.8121 64.9753 69.114 64.9092C69.416 64.8431 69.6959 64.6879 69.9985 64.6266C70.3012 64.5653 70.6184 64.5747 70.9204 64.5087C71.2224 64.4426 71.5117 64.32 71.8143 64.2587L71.8238 64.2574Z" fill="white"/>
</g>
<path d="M75.7615 32.5508C75.7152 32.2514 75.7684 31.9334 75.662 31.6909C75.5426 31.4259 75.2197 31.3056 75.0266 31.1042C74.8334 30.9028 74.6792 30.6669 74.4183 30.538C74.1785 30.4207 73.9064 30.3516 73.6152 30.2851C73.3547 30.229 73.0818 30.1891 72.7823 30.1675C72.4786 30.1513 72.176 30.2126 71.8737 30.2059C71.5714 30.1992 71.2678 30.0082 70.9627 30.0165C70.6576 30.0248 70.3666 30.2398 70.0675 30.2569C69.7685 30.2741 69.4636 30.2483 69.1611 30.2756C68.8586 30.3029 68.5458 30.2201 68.2446 30.2569C67.9434 30.2937 67.6436 30.3401 67.3431 30.3817C67.0426 30.4233 66.75 30.522 66.4556 30.5725C66.1612 30.623 65.8785 30.7932 65.5841 30.8436C65.2897 30.8941 64.9831 30.9268 64.6887 30.9773C64.3848 31.0291 64.0723 31.019 63.7731 31.0701C63.4739 31.1212 63.1647 31.1349 62.8614 31.1914C62.5581 31.248 62.2828 31.4366 61.9796 31.4931C61.6763 31.5497 61.3585 31.5014 61.0593 31.5526C60.7601 31.6037 60.4615 31.6936 60.1629 31.7495C59.8644 31.8053 59.5684 31.9143 59.2692 31.9654C58.97 32.0165 58.6383 31.9023 58.3343 31.9541C58.0304 32.0059 57.7345 32.0808 57.436 32.1367C57.1375 32.1926 56.8574 32.3818 56.5535 32.4336C56.2495 32.4854 55.9477 32.5175 55.6438 32.5692C55.3398 32.621 55.0194 32.5537 54.7154 32.6055C54.4115 32.6573 54.1395 32.8697 53.8356 32.9215C53.5316 32.9733 53.2151 32.9346 52.916 32.9857C52.6263 33.0355 52.3459 33.152 52.0597 33.1916C51.7736 33.2312 51.4706 33.2198 51.1837 33.2546C50.8969 33.2895 50.5934 33.2393 50.3011 33.27C50.0089 33.3008 49.7364 33.4744 49.4441 33.5052C49.1518 33.5359 48.8407 33.3606 48.5491 33.3961C48.2384 33.4343 47.9389 33.5534 47.6283 33.5915C47.3176 33.6297 47.0161 33.7345 46.7054 33.7727C46.3947 33.8108 46.0649 33.7109 45.7542 33.749C45.4435 33.7872 45.1559 33.992 44.8452 34.0302C44.5345 34.0684 44.2179 34.0637 43.9072 34.1018C43.5965 34.14 43.2838 34.1638 42.9738 34.2068C42.6638 34.2497 42.3458 34.2355 42.0358 34.2784C41.7258 34.3213 41.4236 34.4214 41.1136 34.4643C40.8036 34.5072 40.5021 34.612 40.1921 34.655C39.882 34.6979 39.5608 34.6598 39.2514 34.7075C38.942 34.7552 38.6452 34.8934 38.3358 34.9411C38.0264 34.9888 37.7191 35.0507 37.4097 35.0984C37.1003 35.1461 36.7624 35.023 36.453 35.0707C36.1437 35.1183 35.8376 35.1898 35.5282 35.2375C35.2188 35.2852 34.9174 35.39 34.6087 35.4425C34.3 35.4949 34.0066 35.6229 33.6978 35.6754C33.3891 35.7278 33.0824 35.7945 32.7737 35.847C32.465 35.8994 32.1477 35.89 31.8396 35.9472C31.5316 36.0044 31.2382 36.1324 30.9295 36.1848C30.6207 36.2373 30.3094 36.2707 30.0013 36.3279C29.6933 36.3851 29.3786 36.3947 29.0706 36.4519C28.7625 36.5091 28.4358 36.4669 28.1278 36.5241C27.8197 36.5813 27.5277 36.7189 27.2196 36.7761C26.9115 36.8333 26.5943 36.8238 26.2862 36.881C25.9782 36.9382 25.6681 36.9811 25.3607 37.0431C25.0533 37.1051 24.7407 37.129 24.4326 37.1862C24.1245 37.2434 23.8517 37.485 23.5443 37.547C23.1797 37.6169 22.8682 37.6843 22.5996 37.7457C22.2042 37.8393 21.9024 37.8714 21.6765 37.9949C21.3652 38.169 21.2239 38.3779 21.1617 38.7359C21.1183 38.9846 21.0066 39.301 21.0429 39.7037C21.0716 39.9813 21.0824 40.305 21.1386 40.6758C21.1821 40.9901 21.3592 41.286 21.4074 41.5996C21.4557 41.9133 21.5231 42.2243 21.5714 42.538C21.6197 42.8517 21.5487 43.1818 21.597 43.4955C21.6453 43.8092 21.6793 44.1248 21.7275 44.4385C21.7758 44.7521 21.9904 45.0379 22.0387 45.3516C22.087 45.6653 22.1543 45.9763 22.2026 46.29C22.2509 46.6036 22.1704 46.9351 22.2187 47.2488C22.267 47.5625 22.3534 47.8708 22.3969 48.1852C22.4404 48.4995 22.5698 48.8019 22.6133 49.1163C22.6568 49.4306 22.6383 49.7535 22.6771 50.0685C22.7145 50.3739 22.7621 50.6829 22.7948 50.989C22.8275 51.2951 22.9132 51.5987 22.9459 51.9048C22.9786 52.211 22.8293 52.5374 22.8626 52.8483C22.8959 53.1592 22.9667 53.46 22.9994 53.7661C23.0321 54.0723 23.0695 54.3777 23.1028 54.6886C23.1361 54.9995 23.3166 55.2851 23.35 55.596C23.3833 55.9069 23.3676 56.2149 23.4002 56.521C23.4329 56.8271 23.4853 57.1354 23.5179 57.4415C23.5506 57.7476 23.4926 58.0663 23.5253 58.3724C23.5579 58.6785 23.6199 58.9854 23.6525 59.2916C23.6852 59.5977 23.6749 59.9098 23.7076 60.2159C23.7402 60.522 23.8165 60.8269 23.8444 61.1337C23.8723 61.4405 23.9723 61.7421 24.005 62.0483C24.0377 62.3544 23.917 62.6769 23.9503 62.9878C23.9837 63.2986 24.0783 63.5962 24.111 63.9023C24.1436 64.2084 24.1095 64.5238 24.1422 64.8299C24.1748 65.136 24.3417 65.4284 24.375 65.7393C24.407 66.0407 24.4009 66.3473 24.4383 66.6528C24.4757 66.9582 24.5125 67.2589 24.554 67.559C24.5955 67.859 24.5519 68.1757 24.5934 68.4758C24.635 68.7758 24.6485 69.0846 24.6948 69.3839C24.7412 69.6833 24.831 69.9815 24.8774 70.2809C24.9176 70.5714 24.9537 70.8673 24.9993 71.162C25.0395 71.4525 25.1424 71.7392 25.1874 72.029C25.2324 72.3189 25.2542 72.6168 25.2999 72.9114C25.3455 73.206 25.3476 73.5018 25.3932 73.7964C25.4389 74.091 25.6167 74.3576 25.6624 74.6523C25.708 74.9469 25.7292 75.24 25.7748 75.5347C25.8205 75.8293 25.7326 76.1424 25.7776 76.4322C25.8225 76.7221 26.0535 76.9862 26.0992 77.2808C26.1256 77.4713 26.0774 77.7207 26.1436 77.9882C26.4557 77.9595 26.7908 77.7821 27.1028 77.7534C27.4148 77.7248 27.7275 77.7009 28.0395 77.6723C28.3515 77.6437 28.6766 77.7443 28.9886 77.7156C29.3006 77.687 29.6192 77.706 29.9312 77.6774C30.2432 77.6487 30.5442 77.5051 30.8562 77.4765C31.1682 77.4479 31.4888 77.4812 31.796 77.4532C32.1033 77.4252 32.4227 77.415 32.7293 77.3822C33.0359 77.3495 33.346 77.2726 33.6581 77.2439C33.9701 77.2153 34.2709 77.1057 34.5829 77.0771C34.8949 77.0485 35.2021 77.0205 35.5135 76.9871C35.8105 76.9557 36.1239 77.0773 36.4209 77.0459C36.718 77.0145 37.0079 76.8967 37.305 76.8653C37.602 76.8339 37.907 76.8596 38.204 76.8282C38.5011 76.7968 38.7857 76.6409 39.0828 76.6094C39.3798 76.578 39.6742 76.5276 39.9719 76.5009C40.2696 76.4743 40.5621 76.4095 40.8591 76.3781C41.1561 76.3467 41.4585 76.3534 41.7555 76.3219C42.0525 76.2905 42.3516 76.2734 42.6479 76.2372C42.9443 76.2011 43.2513 76.2411 43.5483 76.2097C43.8454 76.1782 44.1307 76.0271 44.4271 75.9909C44.7234 75.9548 45.0335 76.0526 45.3299 76.0164C45.6263 75.9802 45.9129 75.8386 46.2093 75.8024C46.5057 75.7663 46.8173 75.8396 47.1143 75.8082C47.4113 75.7768 47.6998 75.6835 47.9962 75.6473C48.3117 75.6085 48.6197 75.5513 48.9358 75.5172C49.252 75.4831 49.5719 75.5117 49.8867 75.4681C50.2015 75.4245 50.5142 75.4006 50.829 75.3571C51.1438 75.3135 51.4578 75.2991 51.7719 75.2508C52.086 75.2024 52.3756 75.0119 52.6898 74.9635C53.0039 74.9152 53.3232 74.9389 53.6373 74.8906C53.9515 74.8423 54.2781 74.8844 54.5875 74.8367C54.8969 74.789 55.2044 74.6931 55.5179 74.64C55.8314 74.5869 56.1554 74.61 56.4642 74.5575C56.7729 74.5051 57.0817 74.4186 57.3952 74.3655C57.7087 74.3124 58.0281 74.3022 58.3368 74.2497C58.6456 74.1973 58.9472 74.0584 59.2552 74.0012C59.5633 73.944 59.8801 73.9147 60.1936 73.8616C60.507 73.8085 60.8177 73.7704 61.1306 73.7125C61.4434 73.6546 61.7269 73.4552 62.0397 73.3973C62.3525 73.3395 62.6772 73.3673 62.9901 73.3094C63.3029 73.2516 63.6315 73.308 63.9444 73.2501C64.2572 73.1923 64.5479 73.0452 64.8608 72.9874C65.1736 72.9295 65.477 72.839 65.7899 72.7811C66.0884 72.7252 66.4062 72.7734 66.7095 72.7169C67.0127 72.6603 67.2979 72.5432 67.5971 72.4921C67.8963 72.4409 68.1888 72.3422 68.488 72.2911C68.7872 72.2399 69.1037 72.2786 69.4028 72.2275C69.702 72.1764 70.0019 72.13 70.3058 72.0782C70.6097 72.0265 70.9028 71.9665 71.2068 71.9147C71.5107 71.8629 71.7834 71.6553 72.0832 71.6089C72.383 71.5625 72.6876 71.5155 72.9868 71.4644C73.286 71.4133 73.5845 71.3574 73.8891 71.3104C74.1937 71.2633 74.4949 71.2265 74.794 71.1754C75.0932 71.1242 75.4011 71.101 75.7003 71.0499C75.9995 70.9988 76.3199 71.0661 76.6191 71.0149C77.0607 70.9392 77.4977 70.8302 77.9292 70.7171C78.3097 70.6207 78.5871 70.4124 78.8548 70.2395C79.1622 70.0367 79.432 69.8441 79.5873 69.5265C79.7276 69.2401 79.7536 68.9016 79.7718 68.5059C79.7853 68.2177 79.7744 67.9279 79.7832 67.6404C79.792 67.3528 79.9519 67.0685 79.956 66.7816C79.96 66.4947 79.8762 66.2053 79.8748 65.9143C79.8734 65.6233 79.7861 65.3441 79.7704 65.055C79.7547 64.766 79.754 64.4797 79.724 64.1927C79.6913 63.8865 79.8215 63.5627 79.7834 63.2525C79.7453 62.9423 79.6077 62.6507 79.575 62.3446C79.5424 62.0384 79.524 61.7303 79.4866 61.4249C79.4492 61.1194 79.3736 60.8192 79.3355 60.509C79.2974 60.1988 79.1598 59.9072 79.1176 59.6024C79.0754 59.2976 79.2431 58.9637 79.2057 58.6583C79.1683 58.3528 78.9346 58.0696 78.8972 57.7642C78.8598 57.4587 79.0084 57.1275 78.9662 56.8227C78.924 56.5179 78.8913 56.2118 78.8539 55.9063C78.8165 55.6009 78.6257 55.3118 78.5883 55.0063C78.5461 54.7015 78.5707 54.3875 78.5285 54.0827C78.4863 53.7779 78.4203 53.4764 78.3822 53.1661C78.3441 52.8559 78.2399 52.5597 78.2025 52.2542C78.1663 51.9583 78.1057 51.6609 78.0696 51.365C78.0335 51.069 78.0308 50.7685 77.994 50.4678C77.9573 50.1671 77.883 49.8764 77.8469 49.5805C77.8108 49.2845 77.8462 48.9787 77.8094 48.678C77.7727 48.3773 77.804 48.0769 77.7727 47.7803C77.7413 47.4837 77.6283 47.1936 77.5921 46.8976C77.556 46.6017 77.505 46.303 77.4689 46.007C77.4327 45.7111 77.4205 45.4118 77.3885 45.1105C77.3565 44.8091 77.4546 44.4995 77.4233 44.2029C77.3919 43.9063 77.3075 43.6122 77.2713 43.3162C77.2352 43.0203 77.0745 42.7368 77.0431 42.4402C77.0118 42.1436 77.1378 41.8252 77.1065 41.5286C77.0752 41.232 76.8953 40.9511 76.8592 40.6552C76.8231 40.3592 76.7911 40.0579 76.755 39.7619C76.7189 39.466 76.7877 39.1555 76.7516 38.8596C76.7148 38.5589 76.6971 38.2556 76.6556 37.9555C76.6141 37.6555 76.5248 37.362 76.4874 37.0566C76.45 36.7511 76.3471 36.4644 76.3056 36.1644C76.264 35.8644 76.1748 35.5709 76.1332 35.2709C76.0917 34.9708 76.1783 34.6482 76.1368 34.3482C76.0952 34.0481 75.9201 33.7666 75.8738 33.4672C75.8275 33.1678 75.8194 32.8632 75.7683 32.5644L75.7615 32.5508ZM28.0486 65.0269C28.0647 65.5295 27.8664 65.7122 27.5005 65.9134C27.2609 66.0436 26.9791 66.3253 26.4733 66.4293C25.9587 66.5394 25.6152 66.4462 25.4055 66.3005C25.1957 66.1548 25.0718 65.8564 25.004 65.3319C24.9605 65.0176 24.9137 64.6794 24.9689 64.3757C25.017 64.1264 25.1812 63.6619 25.3598 63.6178C25.6993 63.5417 26.0917 63.6378 26.4386 63.5801C26.7855 63.5223 27.1678 63.2995 27.4998 63.3798C27.8562 63.4615 27.9915 63.8068 28.0303 64.1218C28.0705 64.4123 28.0397 64.7515 28.0486 65.0269ZM26.5618 49.9675C26.5796 50.0961 26.1952 50.1639 25.701 50.2809C25.4372 50.3416 25.1555 50.5894 24.8183 50.6118C24.5247 50.633 24.2099 50.5358 23.8906 50.5121C23.5824 50.147 23.8087 50.0963 23.7355 49.5676C23.6933 49.2628 23.6465 48.9247 23.6037 48.6151C23.5463 48.2008 23.4247 47.8487 23.4009 47.6773C23.3686 47.4439 23.5118 47.1086 23.4906 46.8155C23.4637 46.4454 23.3342 46.0362 23.5129 45.9581C23.6637 45.8887 24.1611 45.8295 24.6218 45.7512C25.1397 45.6649 25.5876 45.7049 25.6526 45.7881C25.7772 45.9504 26.0385 46.5744 26.0973 46.8235C26.1201 46.9174 26.2176 47.3407 26.2703 47.8625C26.3028 48.2026 26.4653 48.5684 26.4978 48.9086C26.5506 49.4303 26.5486 49.8723 26.5618 49.9675ZM71.0502 43.8863C71.087 44.187 70.9752 44.5034 71.0072 44.8047C71.0392 45.1061 71.2722 45.3845 71.309 45.6852C71.3457 45.9859 71.2721 46.297 71.3041 46.5984C71.3361 46.8997 71.3967 47.1971 71.4287 47.4985C71.4607 47.7998 71.4927 48.1012 71.5247 48.4026C71.5567 48.7039 71.6603 48.9954 71.6923 49.2967C71.7243 49.5981 71.56 49.9218 71.592 50.2231C71.624 50.5245 71.8523 50.8035 71.8843 51.1049C71.9163 51.4062 71.8958 51.7149 71.923 52.0169C71.9502 52.3189 71.8671 52.6313 71.8943 52.9334C71.9216 53.2354 71.9583 53.5361 71.9903 53.8374C72.0223 54.1388 72.102 54.4336 72.134 54.7349C72.166 55.0363 72.3179 55.3259 72.3499 55.6273C72.3819 55.9286 72.3901 56.2333 72.4221 56.5346C72.4541 56.836 72.4186 57.1418 72.4506 57.4432C72.4826 57.7446 72.4717 58.0519 72.5037 58.3532C72.5344 58.6451 72.704 58.9225 72.7299 59.215C72.7558 59.5075 72.6809 59.8091 72.7116 60.1009C72.7423 60.3928 72.8016 60.6806 72.8275 60.9731C72.8534 61.2656 72.9372 61.555 72.9583 61.8481C72.9795 62.1413 72.8324 62.448 72.8583 62.7405C72.8842 63.033 72.9244 63.3235 72.9503 63.616C72.9747 63.933 73.1008 64.2116 73.0392 64.4337C72.9651 64.7061 72.7747 64.946 72.5499 65.113C72.3647 65.2503 72.0678 65.2477 71.7644 65.3383C71.5121 65.412 71.3061 65.6444 71.049 65.7188C70.792 65.7932 70.5115 65.7689 70.2559 65.8189C69.9479 65.8761 69.6504 66.0095 69.343 66.0715C69.0356 66.1334 68.7162 66.1437 68.4081 66.2009C68.1 66.2581 67.7712 66.2357 67.4639 66.2977C67.1565 66.3596 66.8729 66.559 66.5649 66.6162C66.2568 66.6735 65.9068 66.5326 65.5987 66.5898C65.2907 66.647 64.9945 66.79 64.6871 66.8519C64.3797 66.9139 64.0809 67.0378 63.7735 67.0998C63.4661 67.1617 63.1287 67.0774 62.8213 67.1394C62.5139 67.2013 62.233 67.4198 61.9297 67.4764C61.6265 67.5329 61.3023 67.5438 60.9949 67.6058C60.6875 67.6678 60.3714 67.7018 60.064 67.7638C59.7566 67.8258 59.4311 67.8271 59.1278 67.8837C58.8245 67.9402 58.5196 68.0552 58.2163 68.1118C57.913 68.1683 57.604 68.2888 57.3007 68.3453C56.9974 68.4019 56.6638 68.3801 56.3606 68.4367C56.0573 68.4932 55.7529 68.647 55.4543 68.7029C55.1491 68.7451 54.8553 68.8004 54.5596 68.8413C54.2639 68.8822 53.9349 68.753 53.6439 68.7933C53.353 68.8336 53.0456 68.8956 52.7499 68.9365C52.4541 68.9775 52.1561 69.0721 51.8604 69.113C51.5647 69.154 51.2706 69.2772 50.9797 69.3175C50.6887 69.3578 50.3806 69.415 50.0897 69.4553C49.7987 69.4955 49.4801 69.4765 49.1892 69.5168C48.8982 69.5571 48.5987 69.6762 48.3078 69.7165C48.0168 69.7568 47.7042 69.7806 47.4132 69.8209C47.1223 69.8612 46.8111 69.8606 46.5147 69.8968C46.2183 69.933 45.9046 69.8793 45.6082 69.9155C45.3118 69.9517 45.0226 70.0742 44.7262 70.1104C44.4298 70.1466 44.1242 70.1161 43.823 70.1529C43.5219 70.1898 43.2187 70.2123 42.9169 70.2444C42.6151 70.2765 42.31 70.2847 42.0082 70.3168C41.7064 70.3489 41.4255 70.5673 41.1244 70.6042C40.8232 70.641 40.5214 70.6731 40.2148 70.7058C39.9082 70.7386 39.6026 70.7081 39.3008 70.7401C38.999 70.7722 38.6985 70.8138 38.396 70.8411C38.0935 70.8684 37.7807 70.7856 37.4741 70.8183C37.1675 70.851 36.8665 70.8539 36.564 70.8812C36.2616 70.9085 35.9735 71.0746 35.6716 71.1067C35.3698 71.1387 35.0707 71.1898 34.7641 71.2226C34.4575 71.2553 34.1481 71.1623 33.8456 71.1896C33.5431 71.2169 33.2387 71.2299 32.9369 71.262C32.5772 71.2972 32.2999 71.4715 32.0856 71.4332C31.7623 71.3809 31.5085 71.1976 31.3846 70.8993C31.3031 70.697 31.3671 70.3872 31.3231 70.0341C31.2803 69.7245 31.2047 69.4244 31.1666 69.1141C31.1285 68.8039 31.0046 68.5056 30.9671 68.2001C30.9297 67.8946 30.9489 67.5765 30.9155 67.2656C30.8822 66.9547 30.8353 66.6506 30.8019 66.3397C30.7686 66.0288 30.6835 65.73 30.6502 65.4191C30.6169 65.1082 30.7709 64.7811 30.7328 64.4709C30.6947 64.1606 30.6287 63.8591 30.5906 63.5489C30.5525 63.2387 30.5151 62.9332 30.477 62.623C30.4396 62.3175 30.2536 62.0278 30.2155 61.7176C30.1774 61.4073 30.1877 61.0953 30.1503 60.7898C30.1129 60.4843 30.0509 60.1774 30.0135 59.872C29.9761 59.5665 30.0245 59.2491 29.9864 58.9389C29.9483 58.6287 29.8775 58.3279 29.8401 58.0224C29.8027 57.7169 29.8027 57.4014 29.7653 57.096C29.7279 56.7905 29.6469 56.4862 29.6094 56.1808C29.572 55.8753 29.4672 55.5743 29.4297 55.2689C29.3923 54.9634 29.5027 54.6375 29.4646 54.3272C29.4266 54.017 29.3271 53.7201 29.2897 53.4147C29.2523 53.1092 29.2762 52.7904 29.2388 52.4849C29.2013 52.1795 29.0297 51.8877 28.9923 51.5823C28.9549 51.2768 28.9597 50.9607 28.9223 50.6552C28.8848 50.3497 28.8468 50.0395 28.8046 49.7347C28.7624 49.4299 28.8156 49.1119 28.7775 48.8017C28.7394 48.4915 28.7306 48.182 28.6932 47.8766C28.6557 47.5711 28.5652 47.2681 28.5277 46.9627C28.4903 46.6572 28.4665 46.345 28.4291 46.0396C28.3816 45.6967 28.281 45.3563 28.224 45.0147C28.167 44.6731 28.1332 44.3234 28.081 43.9812C28.0287 43.639 28.0242 43.2901 27.9862 42.9459C27.9397 42.5398 27.7982 42.2196 27.8272 41.9729C27.8773 41.5971 28.0868 41.3545 28.4265 41.2104C28.6565 41.1155 28.9919 41.1855 29.4027 41.1335C29.7134 41.0953 30.0032 40.8708 30.3132 40.8278C30.6232 40.7849 30.9565 40.8747 31.2652 40.8223C31.5739 40.7698 31.8615 40.565 32.1702 40.5125C32.479 40.4601 32.7883 40.4124 33.1012 40.3545C33.414 40.2966 33.7405 40.3728 34.0547 40.3244C34.3688 40.2761 34.6841 40.2713 34.9928 40.2188C35.3015 40.1664 35.5957 40.0092 35.9058 39.9662C36.2158 39.9233 36.5351 39.9471 36.8505 39.9083C37.1571 39.8755 37.4657 39.8571 37.7716 39.8196C38.0775 39.7821 38.3769 39.697 38.6828 39.6595C38.9887 39.622 39.2834 39.5035 39.5893 39.466C39.8953 39.4285 40.2005 39.3862 40.5058 39.344C40.8111 39.3017 41.1368 39.4071 41.442 39.3648C41.7473 39.3226 42.04 39.1898 42.3453 39.1476C42.6505 39.1053 42.9631 39.1154 43.2677 39.0684C43.5723 39.0214 43.8556 38.856 44.1602 38.8089C44.4648 38.7619 44.7675 38.7006 45.0721 38.6536C45.3767 38.6066 45.6773 38.531 45.9772 38.4846C46.277 38.4382 46.5916 38.4287 46.8962 38.3816C47.2008 38.3346 47.5068 38.2971 47.812 38.2549C48.1173 38.2126 48.4305 38.2275 48.7351 38.1805C49.0397 38.1334 49.323 37.968 49.6276 37.921C49.9322 37.874 50.2546 37.9555 50.5593 37.9085C50.8639 37.8615 51.1533 37.7049 51.4538 37.6633C51.7543 37.6217 52.0788 37.6836 52.3834 37.6366C52.688 37.5895 52.986 37.4949 53.2913 37.4526C53.5966 37.4104 53.8992 37.3491 54.2045 37.3068C54.524 37.2626 54.8541 37.2945 55.1792 37.2544C55.5042 37.2142 55.8216 37.1897 56.1466 37.1496C56.4716 37.1094 56.7904 37.0944 57.1154 37.0543C57.4404 37.0141 57.7341 36.8182 58.0584 36.7733C58.3828 36.7284 58.7061 36.7467 59.025 36.6977C59.344 36.6487 59.6795 36.6847 59.9971 36.6262C60.3147 36.5677 60.625 36.4568 60.9413 36.3887C61.2296 36.3294 61.5278 36.3415 61.8175 36.2917C62.1071 36.2419 62.3874 36.1594 62.6777 36.1144C62.968 36.0693 63.2648 36.0719 63.5565 36.0364C63.8481 36.0009 64.1272 35.8749 64.4188 35.8393C64.7104 35.8038 65.0053 35.7921 65.2969 35.7566C65.5885 35.7211 65.8821 35.6999 66.1737 35.6643C66.4653 35.6288 66.7352 35.4361 67.0255 35.3911C67.3158 35.3461 67.6173 35.382 67.9069 35.3322C68.2484 35.2703 68.5101 35.37 68.7394 35.4111C69.034 35.4674 69.2653 35.5227 69.4501 35.769C69.5929 35.9579 69.7429 36.1992 69.86 36.5179C69.9548 36.7815 69.9133 37.0785 69.9563 37.354C70.0039 37.6629 70.119 37.9673 70.1714 38.2756C70.2238 38.5838 70.315 38.8916 70.3674 39.1998C70.4198 39.508 70.3774 39.8343 70.4305 40.1473C70.4835 40.4603 70.5264 40.7698 70.574 41.0787C70.6216 41.3876 70.6842 41.6993 70.7319 42.0082C70.7795 42.3171 70.9804 42.6097 71.0185 42.9199C71.0566 43.2301 71.0524 43.551 71.0911 43.866L71.0502 43.8863ZM76.6829 57.7115C76.4048 57.7743 76.1133 57.4943 75.8374 57.2219C75.5899 56.9795 75.2267 56.7434 75.1927 56.4277C75.1561 56.093 75.3481 55.7946 75.5472 55.5826C75.7286 55.3828 75.9935 55.2248 76.3363 55.1725C76.6504 55.1241 76.9974 55.2071 77.2724 55.3681C77.5638 55.5413 77.867 55.8003 77.9276 56.0977C77.9803 56.3379 77.7416 56.7204 77.4887 57.0709C77.3009 57.3299 77.1074 57.6528 76.6829 57.7115Z" fill="#ECEAED"/>
<g opacity="0.55">
<path d="M51.013 47.893C51.1565 47.6305 51.2319 47.5084 51.2959 47.3733C52.3673 45.2107 54.2382 44.2576 56.5249 43.9556C59.1216 43.6107 61.7043 45.9033 61.734 48.5057C61.7536 50.3328 61.2708 51.9723 60.2792 53.5172C58.2443 56.6918 56.0646 59.5223 53.6715 62.4262C53.4886 62.6505 53.0362 63.315 52.8311 63.3434C52.3422 63.3237 51.6119 62.6482 50.929 62.3156C50.4962 62.1037 47.1376 59.5787 45.5773 58.7366C43.4397 57.0959 42.2893 56.0902 40.8061 54.155C40.0467 52.8477 39.9175 51.458 40.3375 49.9971C41.0978 47.3776 42.758 45.711 45.4736 45.2768C46.1919 45.1628 47.0191 45.3444 47.7242 45.5914C48.9459 46.0241 50.0144 46.7547 51.013 47.893Z" fill="white"/>
</g>
</g>
<defs>
<clipPath id="clip0_70_879">
<rect width="89" height="92" fill="white" transform="translate(0.112305 12.5369) rotate(-7.88188)"/>
</clipPath>
</defs>
</svg>
