<svg width="78" height="38" viewBox="0 0 78 38" fill="none" xmlns="http://www.w3.org/2000/svg">
<path d="M61.92 14.1076C62.49 13.9576 63.03 14.0076 63.55 13.8676C64.12 13.7176 64.63 13.4476 65.16 13.3076C65.72 13.1576 66.29 13.1476 66.83 13.0076C67.37 12.8676 67.95 12.6176 68.5 12.4776C68.34 11.8576 68.01 11.3076 67.87 10.7776C67.73 10.2476 67.64 9.63763 67.49 9.02763C68.01 8.79763 68.56 8.81763 69.01 8.74763C69.55 8.66763 70.05 8.45763 70.51 8.55763C71.01 8.66763 71.42 8.99763 71.87 9.23763C72.32 9.47763 72.73 9.72763 73.15 10.0376C73.57 10.3476 74.03 10.5276 74.45 10.8276C74.87 11.1276 75.19 11.5276 75.64 11.7776C76.09 12.0276 76.65 12.1676 77.14 12.3176C76.79 12.6876 76.32 13.0476 76.01 13.4176C75.7 13.7876 75.45 14.2576 75.14 14.6376C74.83 15.0176 74.46 15.3676 74.13 15.7376C73.8 16.1076 73.46 16.4576 73.1 16.7976C72.74 17.1376 72.35 17.4176 71.93 17.6976C71.51 17.9776 71.21 18.4276 70.75 18.6276C70.32 18.8176 69.87 18.7176 69.36 18.8376C69.27 18.3176 69.24 17.9476 69.16 17.5076C69.07 17.0076 68.78 16.6176 68.7 16.1576C68.52 16.1076 68.44 16.0376 68.28 16.0476C67.71 16.0976 67.13 15.9576 66.59 16.0476C66.05 16.1376 65.51 16.4276 64.98 16.5676C64.45 16.7076 63.9 16.8776 63.39 17.0776C62.88 17.2776 62.29 17.3776 61.8 17.6276C61.31 17.8776 60.93 18.3476 60.47 18.6576C60.01 18.9676 59.4 19.0876 58.98 19.4476C58.56 19.8076 58.16 20.2076 57.77 20.6176C57.38 21.0276 57.19 21.5776 56.84 22.0276C56.49 22.4776 56.14 22.8776 55.83 23.3576C55.52 23.8376 55.23 24.2776 54.95 24.7776C54.68 25.2576 54.44 25.7776 54.13 26.2376C53.82 26.6976 53.32 27.0176 52.98 27.4576C52.64 27.8976 52.44 28.4476 52.07 28.8676C51.7 29.2876 51.31 29.6776 50.93 30.0876C50.55 30.4976 50.04 30.7776 49.66 31.1676C49.28 31.5576 48.93 32.0076 48.54 32.3976C48.15 32.7876 47.87 33.2976 47.48 33.6876C47.09 34.0776 46.75 34.5176 46.37 34.9276C45.99 35.3376 45.49 35.6276 45.12 36.0376C44.71 36.5176 44.35 36.9576 43.93 37.2276C43.42 37.5576 42.85 37.6176 42.32 37.6476C41.79 37.6776 41.3 37.5276 40.75 37.2776C40.29 37.0676 39.87 36.7576 39.39 36.3676C38.99 36.0476 38.5 35.8176 38.09 35.4976C37.68 35.1776 37.21 34.9476 36.8 34.6276C36.39 34.3076 35.97 34.0076 35.56 33.6876C35.15 33.3676 34.79 32.9976 34.38 32.6776C33.97 32.3576 33.51 32.1076 33.11 31.7876C32.71 31.4676 32.29 31.1476 31.89 30.8276C31.49 30.5076 31.13 30.1176 30.73 29.7876C30.33 29.4576 30.04 28.9976 29.63 28.6676C29.22 28.3376 28.71 28.1576 28.31 27.8276C27.82 27.4276 27.43 26.9676 26.96 26.7176C26.41 26.4276 25.81 26.2976 25.28 26.2176C24.7 26.1276 24.15 26.3076 23.59 26.4876C23.08 26.6576 22.53 26.8176 22.04 27.2176C21.63 27.5476 21.14 27.8976 20.74 28.3976C20.42 28.7976 20.16 29.2276 19.83 29.6476C19.52 30.0376 19.3 30.5076 18.96 30.9376C18.66 31.3176 18.34 31.7176 18 32.1476C17.7 32.5276 17.35 32.8876 17.01 33.3276C16.79 32.7776 16.5 32.3576 16.33 31.9276C16.11 31.3976 15.99 30.9176 15.8 30.4576C15.61 29.9976 15.44 29.6176 15.23 29.0976C14.92 29.5376 14.6 29.8576 14.3 30.2776C14 30.6976 13.72 31.1676 13.42 31.5876C13.12 32.0076 12.7 32.3576 12.4 32.7876C12.1 33.2176 11.97 33.7576 11.66 34.1976C11.35 34.6376 11.02 34.8876 10.7 35.3376C10.31 34.7376 10.05 34.2276 9.72998 33.7276C9.35998 33.1476 8.94999 32.5476 8.60999 32.0176C8.12999 32.2276 7.72001 32.7776 7.38 33.2276C7.06 33.6476 6.71002 34.0776 6.40002 34.5076C6.07002 34.9676 5.72002 35.3476 5.27002 35.6076C4.85002 35.8576 4.38 36.0576 3.75 35.9576C3.31 35.8876 2.75999 35.7176 2.17999 35.4076C2.34999 34.8976 2.42998 34.3176 2.59998 33.7976C2.76998 33.2776 2.98998 32.8176 3.16998 32.2776C3.32998 31.7876 3.46 31.3376 3.63 30.7876C3.22 30.4876 2.89001 30.1676 2.45001 29.8376C2.04001 29.5276 1.63 29.1876 1.19 28.8576C0.750002 28.5276 0.44 28.2176 0 27.8876C0.37 27.2476 0.590032 26.7376 0.970032 26.5076C1.51003 26.1776 2.10003 26.4476 2.66003 26.6076C3.18003 26.7476 3.76999 26.8476 4.29999 27.0876C4.82999 27.3276 5.37003 27.5976 5.91003 27.6376C6.45003 27.6776 6.93001 27.5076 7.45001 27.0476C7.28001 26.6976 7.02 26.3776 6.81 25.9376C6.64 25.5776 6.64 25.1676 6.44 24.7376C6.96 24.2376 7.39001 24.0076 7.88 23.9076C8.47001 23.7776 9.00001 23.9076 9.57001 24.1076C10.14 24.3076 10.65 24.5476 11.18 24.7976C11.71 25.0476 12.32 25.3276 12.89 25.3676C13.15 24.9776 13.03 24.1776 13.11 23.5176C13.19 22.7776 13.45 22.1176 14.05 22.0876C14.41 22.0676 14.96 22.2276 15.72 22.7676C16.22 23.1176 16.66 23.4476 17.13 23.6476C17.68 23.8876 18.22 23.9976 18.74 24.0476C19.3 24.0976 19.83 24.0076 20.38 23.8876C20.9 23.7676 21.43 23.6476 21.96 23.3876C22.43 23.1576 22.8 22.8276 23.29 22.5076C23.08 22.0976 22.89 21.7776 22.67 21.3676C22.45 20.9576 22.26 20.5376 22.06 20.1276C21.86 19.7176 21.67 19.2876 21.51 18.8576C21.33 18.3776 21.13 17.8976 20.95 17.4176C20.77 16.9376 20.64 16.4276 20.48 15.9376C20.32 15.4476 20.22 14.9376 20.1 14.4376C19.98 13.9376 19.99 13.4176 19.94 12.9076C19.89 12.3576 19.78 11.8476 19.79 11.3276C19.79 10.7776 19.79 10.2476 19.86 9.73763C19.93 9.19763 20.12 8.69763 20.26 8.19763C20.4 7.66763 20.39 7.09763 20.6 6.62763C20.81 6.15763 21.05 5.62763 21.35 5.19763C21.65 4.76763 22.06 4.37762 22.43 4.00763C22.8 3.63763 23.23 3.29763 23.67 2.99763C24.11 2.69763 24.61 2.51763 25.1 2.29763C25.59 2.07763 26.04 1.79763 26.57 1.66763C27.1 1.53763 27.62 1.62762 28.17 1.57762C28.68 1.53762 29.21 1.39763 29.76 1.42763C30.27 1.45763 30.79 1.58763 31.33 1.67763C31.84 1.76763 32.39 1.74763 32.92 1.89763C33.4 2.03763 33.87 2.22763 34.33 2.40763C34.79 2.58763 35.27 2.74763 35.73 2.94763C36.19 3.14763 36.62 3.40763 37.07 3.61763C37.52 3.82763 38.02 3.94763 38.47 4.15763C38.92 4.36763 39.32 4.62763 39.76 4.81763C40.21 4.59763 40.66 4.45763 41.11 4.21763C41.56 3.97763 41.99 3.71763 42.43 3.47763C42.87 3.23763 43.29 2.92763 43.73 2.69763C44.17 2.46763 44.72 2.40763 45.17 2.18763C45.62 1.96763 46 1.57763 46.46 1.37763C46.92 1.17763 47.47 1.17763 47.94 1.00763C48.41 0.837625 48.89 0.687628 49.37 0.557628C49.94 0.407628 50.49 0.287626 51.05 0.227626C51.61 0.167626 52.21 -0.0423749 52.78 0.00762511C53.35 0.0576251 53.95 0.157627 54.5 0.337627C55.05 0.517627 55.6 0.737627 56.12 1.01763C56.64 1.29763 57.07 1.66763 57.54 2.03763C57.98 2.37763 58.4 2.78763 58.81 3.22763C59.21 3.64763 59.57 4.07763 59.87 4.51763C60.19 4.98763 60.34 5.53763 60.57 6.02763C60.8 6.51763 61.02 7.02763 61.17 7.56763C61.32 8.10763 61.33 8.64763 61.42 9.20763C61.51 9.76763 61.67 10.2676 61.71 10.8276C61.75 11.3876 61.92 11.9076 61.94 12.4776C61.96 13.0176 61.92 13.5176 61.92 14.0876V14.1076ZM41.31 34.0976C41.74 33.7676 42.25 33.6176 42.67 33.2776C43.09 32.9376 43.42 32.4876 43.82 32.1276C44.22 31.7676 44.71 31.4976 45.1 31.1276C45.49 30.7576 45.84 30.3276 46.21 29.9476C46.58 29.5676 46.82 29.0376 47.18 28.6376C47.54 28.2376 47.94 27.8776 48.29 27.4676C48.64 27.0576 49.13 26.7576 49.46 26.3376C49.79 25.9176 49.93 25.3376 50.25 24.9076C50.57 24.4776 51 24.1176 51.3 23.6776C51.6 23.2376 51.87 22.7676 52.16 22.3076C52.45 21.8476 52.61 21.3276 52.89 20.8576C53.17 20.3876 53.56 20.0076 53.83 19.5376C54.1 19.0676 54.23 18.5376 54.49 18.0576C54.75 17.5776 55.14 17.1776 55.38 16.6976C55.62 16.2176 55.76 15.6876 55.99 15.1976C56.22 14.7076 56.51 14.2476 56.73 13.7576C56.95 13.2576 57.14 12.7276 57.25 12.1976C57.36 11.6676 57.46 11.1076 57.47 10.5576C57.48 10.0076 57.2 9.48763 57.11 8.94763C57.02 8.40763 57.17 7.79763 56.99 7.28763C56.81 6.77763 56.55 6.24763 56.29 5.77763C56.01 5.28763 55.5 4.97763 55.14 4.58763C54.76 4.16763 54.38 3.80763 53.92 3.53763C53.48 3.27763 53.05 2.90763 52.53 2.81763C52.01 2.72763 51.5 2.89763 50.97 2.95763C50.48 3.01763 49.98 3.12763 49.48 3.30763C49.01 3.46763 48.48 3.55763 48.01 3.81763C47.57 4.05763 47.26 4.52763 46.84 4.84763C46.44 5.14763 45.87 5.28763 45.5 5.66763C45.13 6.04763 44.8 6.43763 44.48 6.84763C44.27 7.11763 44.25 7.53763 44.04 7.81763C43.65 8.34763 43.26 8.76763 42.94 9.14763C42.48 9.67763 42.05 10.0576 41.65 10.2876C41.1 10.6076 40.53 10.7176 39.95 10.4876C39.52 10.3176 39.17 9.82763 38.64 9.36763C38.27 9.03763 37.72 8.78763 37.27 8.31763C36.79 7.82763 36.45 7.18762 35.92 6.75763C35.51 6.41762 35.19 5.97763 34.76 5.70763C34.31 5.42763 33.82 5.22763 33.35 5.02763C32.88 4.82763 32.34 4.80763 31.83 4.70763C31.32 4.60763 30.84 4.60763 30.31 4.62763C29.78 4.64763 29.29 4.53763 28.77 4.66763C28.29 4.78763 27.84 5.05763 27.35 5.28763C26.82 5.53763 26.28 5.77763 25.87 6.20763C25.48 6.61763 25.1 7.09763 24.84 7.64763C24.6 8.14763 24.36 8.72763 24.23 9.31763C24.11 9.86763 24.16 10.4776 24.14 11.0876C24.12 11.6476 24.26 12.2276 24.33 12.8276C24.4 13.3876 24.51 13.9276 24.63 14.4676C24.75 15.0076 24.83 15.5676 25.01 16.0876C25.19 16.6076 25.47 17.0976 25.71 17.5976C25.95 18.0976 26.21 18.5776 26.51 19.0476C26.81 19.5176 27.05 20.0176 27.4 20.4576C27.75 20.8976 28.04 21.4576 28.44 21.8576C28.95 21.8576 29.51 21.6576 30.01 21.5876C30.51 21.5176 31.04 21.5776 31.54 21.4576C32.04 21.3376 32.51 21.1276 33 20.9976C33.49 20.8676 33.94 20.5876 34.43 20.4576C34.92 20.3276 35.44 20.3276 35.94 20.2176C36.44 20.1076 36.94 20.1376 37.45 20.0976C37.96 20.0576 38.44 19.9776 38.95 20.0176C39.46 20.0576 39.96 20.0176 40.46 20.1476C40.93 20.2676 41.44 20.4676 41.92 20.6976C41.57 21.1976 41.14 21.6076 40.73 21.9376C40.28 22.3076 39.84 22.6876 39.33 22.9076C38.82 23.1276 38.24 23.2476 37.69 23.3776C37.14 23.5076 36.6 23.6776 36.05 23.7976C35.5 23.9176 34.91 23.9076 34.38 24.0576C33.85 24.2076 33.32 24.4476 32.82 24.7176C32.32 24.9876 31.75 25.2876 31.34 25.7176C31.74 26.1476 32.27 26.5076 32.61 26.8876C32.98 27.3076 33.22 27.8376 33.62 28.1776C34.04 28.5176 34.44 28.8876 34.86 29.2276C35.28 29.5676 35.69 29.9176 36.12 30.2576C36.55 30.5976 37.08 30.7876 37.51 31.1276C37.94 31.4676 38.3 31.8576 38.74 32.1976C39.18 32.5376 39.57 32.8876 40 33.2276C40.42 33.5576 40.89 33.7676 41.33 34.1076L41.31 34.0976Z" fill="#E33500"/>
</svg>
