<svg width="115" height="295" viewBox="0 0 115 295" fill="none" xmlns="http://www.w3.org/2000/svg">
<path d="M93.6775 60.0355C94.2114 60.0832 94.7548 60.188 95.2887 60.312C95.8322 60.4264 96.2231 60.5599 96.5091 60.5694C96.9953 60.5885 97.2432 60.3978 97.4053 59.8448C97.4911 59.5493 97.5864 59.1584 97.6913 58.6245C97.7676 58.2145 97.758 57.7855 97.8534 57.3755C97.9487 56.9655 98.0155 56.546 98.1203 56.1456C98.2252 55.7452 98.435 55.3638 98.5589 54.9634C98.6828 54.563 98.8163 54.1625 98.9498 53.7716C99.0833 53.3807 99.1214 52.9422 99.2835 52.5513C99.4456 52.1604 99.7125 51.8172 99.8841 51.4453C100.056 51.0735 100.227 50.6826 100.428 50.3108C100.628 49.939 100.799 49.5671 101.019 49.2049C101.238 48.8426 101.505 48.5184 101.734 48.1752C101.963 47.832 102.125 47.422 102.382 47.0883C102.649 46.7451 102.906 46.44 103.173 46.2112C103.498 45.9347 103.869 45.7726 104.213 45.6677C104.556 45.5629 104.966 45.458 105.385 45.5152C105.795 45.5724 106.215 45.8012 106.701 46.0205C107.101 46.1921 107.454 46.4114 107.797 46.6307C108.141 46.85 108.474 47.1169 108.779 47.4029C109.084 47.689 109.351 47.994 109.599 48.3373C109.847 48.6805 110.133 48.9856 110.314 49.3669C110.495 49.7483 110.677 50.1201 110.801 50.5396C110.915 50.9496 110.924 51.3786 111.01 51.7886C111.096 52.1985 111.239 52.6085 111.287 53.0185C111.334 53.4284 111.334 53.867 111.354 54.2769C111.373 54.6869 111.277 55.1159 111.249 55.5354C111.22 55.9549 111.296 56.384 111.239 56.8035C111.182 57.223 111.039 57.6234 110.953 58.0333C110.867 58.4433 110.839 58.8723 110.715 59.2728C110.591 59.6732 110.429 60.0641 110.276 60.455C110.124 60.8459 109.923 61.2177 109.752 61.5991C109.58 61.9804 109.428 62.3713 109.237 62.7431C109.046 63.1054 108.865 63.4773 108.684 63.8586C108.503 64.24 108.36 64.6118 108.198 65.0122C108.036 65.4127 107.921 65.7845 107.778 66.1849C107.635 66.5853 107.549 66.9762 107.416 67.3767C107.283 67.7771 107.054 68.1299 106.93 68.5303C106.806 68.9307 106.796 69.3502 106.672 69.7506C106.548 70.1511 106.424 70.542 106.32 70.9424C106.215 71.3428 106.1 71.7432 105.995 72.1437C105.891 72.5441 105.69 72.9255 105.585 73.3259C105.481 73.7263 105.414 74.1458 105.309 74.5462C105.204 74.9467 105.185 75.3757 105.09 75.7857C104.994 76.1956 104.918 76.6056 104.823 77.006C104.727 77.4064 104.613 77.8164 104.518 78.2168C104.422 78.6172 104.26 79.0177 104.165 79.4086C104.07 79.7995 104.031 80.238 103.936 80.6385C103.841 81.0389 103.745 81.4584 103.641 81.8493C103.536 82.2402 103.335 82.5929 103.231 82.9838C102.878 82.7741 102.563 82.5834 102.21 82.3641C101.858 82.1448 101.495 81.9542 101.152 81.7253C100.809 81.4965 100.428 81.3344 100.084 81.0961C99.7411 80.8577 99.417 80.6099 99.0737 80.381C98.7305 80.1522 98.3968 79.9139 98.0536 79.6851C97.7104 79.4562 97.3481 79.2656 96.9953 79.0463C96.6426 78.827 96.3279 78.56 95.9752 78.3503C95.6224 78.1405 95.2983 77.8831 94.936 77.6829C94.5737 77.4827 94.1923 77.3111 93.83 77.1299C93.9349 76.7581 93.9826 76.3672 94.0779 75.9954C94.1733 75.6236 94.3639 75.2708 94.4593 74.899C94.5546 74.5272 94.5832 74.1363 94.6786 73.7644C94.7739 73.3926 94.8883 73.0303 94.9836 72.6585C95.079 72.2962 95.1743 71.9339 95.2697 71.5716C95.365 71.2093 95.4794 70.847 95.5843 70.4943C95.6892 70.1415 95.8036 69.7792 95.918 69.4169C96.0324 69.0546 96.1373 68.7019 96.2707 68.3491C96.4328 67.9201 96.5758 67.5387 96.6426 67.1669C96.7188 66.7188 96.7665 66.3089 96.6998 65.9275C96.633 65.508 96.4137 65.1552 96.204 64.8025C95.9942 64.4688 95.794 64.1065 95.4699 63.8109C95.1839 63.544 94.812 63.3533 94.4402 63.115C94.1065 62.8957 93.8586 62.5906 93.5917 62.3332C93.3057 62.0567 93.0959 61.7707 92.9529 61.4084C92.8194 61.0842 92.6573 60.6933 92.6955 60.2548C93.0959 60.1499 93.4201 60.026 93.6679 60.0546L93.6775 60.0355Z" fill="#FF8792"/>
<g opacity="0.55">
<path d="M86.6318 13.1951C86.2505 13.2332 85.85 13.1569 85.4591 13.176C85.0683 13.1951 84.6774 13.3095 84.296 13.2904C83.9146 13.2713 83.5047 13.3095 83.1233 13.2523C82.6657 13.1855 82.2653 13.0616 81.8934 13.0521C81.4263 13.0425 81.0068 13.0044 80.6445 13.0997C80.225 13.2046 79.939 13.5097 79.6243 13.7957C79.3479 14.0436 79.0237 14.2915 78.7853 14.6919C78.5947 15.0065 78.4517 15.4069 78.2705 15.8264C78.1275 16.1697 78.0036 16.551 77.7557 16.7608C77.4315 17.0277 77.2027 17.371 76.9453 17.6665C76.6879 17.9621 76.4686 18.3148 76.2588 18.658C76.0491 19.0013 75.8298 19.335 75.6582 19.7068C75.4866 20.0786 75.3912 20.46 75.2482 20.8413C75.1052 21.2227 74.9431 21.585 74.8192 21.9759C74.6953 22.3668 74.4474 22.7005 74.3234 23.0818C74.1995 23.4632 74.1423 23.8731 73.9993 24.245C73.8563 24.6168 73.6465 24.9696 73.4749 25.3318C73.2938 25.7037 73.1794 26.1136 73.0077 26.4855C72.8361 26.8573 72.7313 27.2673 72.5596 27.6486C72.388 28.03 72.1687 28.3827 72.0067 28.7641C71.8446 29.1359 71.7492 29.5363 71.5967 29.9082C71.4442 30.28 71.1391 30.5946 70.9865 30.9664C70.834 31.3383 70.7768 31.7578 70.6242 32.1296C70.4717 32.5014 70.3478 32.8923 70.1857 33.2641C70.0236 33.636 69.8425 33.9983 69.6804 34.3701C69.6422 34.4464 69.5278 34.5036 69.299 34.7705C68.9463 34.7038 68.5935 34.6084 68.2121 34.5417C67.8689 34.475 67.5066 34.4273 67.1348 34.351C66.7916 34.2843 66.4102 34.3033 66.0289 34.2271C65.6856 34.1603 65.3996 33.9601 65.0182 33.8934C65.1517 33.5025 65.2852 33.1688 65.4091 32.7779C65.5331 32.387 65.5903 31.9675 65.7142 31.5766C65.8382 31.1857 65.9144 30.7758 66.0479 30.3849C66.1814 29.994 66.4388 29.6508 66.5723 29.2599C66.7058 28.869 66.8678 28.4876 66.9918 28.1062C67.1157 27.7249 67.1443 27.2959 67.2778 26.905C67.4113 26.5141 67.5638 26.1327 67.6878 25.7513C67.8117 25.37 67.9452 24.9696 68.0787 24.5882C68.2121 24.2068 68.3742 23.8255 68.4982 23.4346C68.6221 23.0437 68.6507 22.6242 68.7842 22.2333C68.9177 21.8424 69.1941 21.5087 69.3276 21.1178C69.4611 20.7269 69.4516 20.2979 69.5755 19.907C69.709 19.5066 69.995 19.1634 70.1285 18.7725C70.262 18.3816 70.3478 17.9621 70.4812 17.5712C70.6147 17.1803 70.7005 16.7608 70.834 16.3699C70.9675 15.979 71.0628 15.569 71.1963 15.1686C71.3298 14.7682 71.6062 14.4249 71.7397 14.0245C71.8732 13.6241 71.959 13.2141 72.0925 12.8232C72.226 12.4323 72.2641 12.0033 72.3976 11.6029C72.531 11.2025 72.6264 10.802 72.7599 10.4016C72.8933 10.0012 73.1412 9.64842 73.2747 9.24799C73.4082 8.84756 73.6084 8.47574 73.7419 8.07531C73.8753 7.67488 73.8849 7.23631 74.0183 6.84541C74.1518 6.45452 74.333 6.06363 74.4664 5.67274C74.5999 5.28184 74.6857 4.86234 74.8192 4.46191C74.9527 4.06149 75.1148 3.68013 75.2482 3.27971C75.3817 2.87928 75.5057 2.44071 75.6391 2.04028C76.0491 2.11656 76.4686 2.33583 76.8785 2.42164C77.2885 2.50744 77.7271 2.40258 78.1466 2.48838C78.5661 2.57419 78.9665 2.66953 79.3765 2.7458C79.7864 2.82208 80.1868 2.96508 80.5968 3.05089C81.0068 3.13669 81.4358 3.10808 81.8458 3.19389C82.2557 3.2797 82.6657 3.36551 83.0852 3.44178C83.5047 3.51805 83.8765 3.68013 84.296 3.76594C84.2674 4.24264 84.2674 4.66214 84.3437 5.05303C84.4295 5.51066 84.7155 5.85388 84.9157 6.19711C85.135 6.56893 85.3829 6.88355 85.7166 7.16004C86.0503 7.43652 86.3267 7.77975 86.7272 7.97043C87.1085 8.15158 87.5376 8.25646 87.9571 8.38993C88.3575 8.51387 88.7674 8.58061 89.1679 8.71409C89.5683 8.84756 89.9401 9.01917 90.3406 9.15264C90.741 9.28612 91.1605 9.31472 91.5609 9.43866C91.9613 9.56261 92.3236 9.80097 92.7145 9.92491C93.1054 10.0488 93.5058 10.1823 93.9063 10.3063C94.3067 10.4302 94.7357 10.4302 95.1362 10.5541C95.5366 10.6781 95.8893 10.945 96.2802 11.069C96.6711 11.1929 97.0716 11.3455 97.4625 11.4694C97.8534 11.5934 98.2919 11.6124 98.6923 11.7364C99.0928 11.8603 99.4741 12.0224 99.8746 12.1463C100.275 12.2703 100.666 12.3942 101.066 12.5182C101.467 12.6421 101.858 12.7756 102.258 12.8995C102.658 13.0235 103.049 13.1665 103.44 13.2904C103.831 13.4144 104.279 13.4144 104.67 13.5288C105.013 13.6336 105.347 13.7576 105.7 13.8052C106.053 13.8529 106.415 13.8434 106.768 13.872C107.12 13.9006 107.511 14.0722 107.864 14.1199C108.083 13.7004 108.198 13.2618 108.398 12.8804C108.598 12.4991 108.827 12.1845 109.056 11.7554C109.409 11.8698 109.752 11.9366 110.105 12.0415C110.457 12.1463 110.781 12.3179 111.134 12.4323C111.487 12.5467 111.859 12.5563 112.221 12.6707C112.583 12.7851 112.888 12.9758 113.241 13.0902C113.737 13.2523 114.176 13.4811 114.719 13.6527C114.624 14.0627 114.595 14.4059 114.5 14.8158C114.404 15.2258 114.261 15.6167 114.166 16.0267C114.071 16.4366 114.109 16.8752 114.023 17.2756C113.937 17.676 113.785 18.0765 113.689 18.4864C113.594 18.8964 113.403 19.2778 113.308 19.6877C113.213 20.0977 113.174 20.5172 113.079 20.9176C112.984 21.318 112.984 21.7566 112.888 22.157C112.793 22.5575 112.564 22.9388 112.469 23.3488C112.374 23.7587 112.355 24.1782 112.259 24.5882C112.164 24.9982 112.097 25.4081 112.002 25.8181C111.906 26.2281 111.783 26.6189 111.687 27.0289C111.592 27.4389 111.535 27.8488 111.439 28.2588C111.344 28.6688 111.21 29.0597 111.115 29.4696C111.02 29.8796 111.01 30.2991 110.915 30.709C110.82 31.119 110.619 31.5003 110.524 31.9008C110.429 32.3012 110.4 32.7302 110.305 33.1307C110.209 33.5311 110.114 33.9411 110.019 34.351C109.923 34.761 109.733 35.1423 109.637 35.5428C109.542 35.9432 109.571 36.3818 109.475 36.7822C109.38 37.1826 109.132 37.5544 109.037 37.9644C108.941 38.3744 109.008 38.8129 108.913 39.2134C108.817 39.6138 108.713 40.0237 108.617 40.4242C108.522 40.8246 108.427 41.2346 108.341 41.6445C108.255 42.0545 108.15 42.4549 108.055 42.8649C107.959 43.2748 107.864 43.7325 107.769 44.1424C107.406 44.1043 106.987 43.9613 106.634 43.9231C106.281 43.885 105.919 43.8183 105.547 43.7801C105.109 43.7325 104.651 43.7706 104.193 43.7229C103.764 43.6848 103.374 43.5799 102.906 43.5418C102.973 43.1604 102.935 42.8363 102.992 42.4644C103.049 42.0926 103.173 41.7113 103.231 41.3299C103.288 40.9485 103.231 40.5481 103.288 40.1763C103.345 39.8045 103.459 39.4231 103.526 39.0513C103.602 38.6127 103.707 38.1837 103.803 37.7547C103.898 37.3256 103.974 36.8871 104.07 36.458C104.165 36.029 104.336 35.6095 104.432 35.1805C104.527 34.7514 104.651 34.3224 104.718 33.8838C104.785 33.4453 104.88 33.0067 104.918 32.5682C104.956 32.1296 104.851 31.6815 104.842 31.2334C104.832 30.7853 104.765 30.3658 104.708 29.9177C104.67 29.6126 104.956 29.2122 105.185 28.9834C105.528 28.6211 105.786 28.2207 105.948 27.8298C106.129 27.4007 106.053 26.924 106.091 26.4664C106.129 26.0088 106.253 25.5607 106.215 25.0935C106.177 24.6263 106.11 24.1782 106.081 23.7301C106.053 23.3488 105.957 22.996 105.852 22.6623C105.738 22.3096 105.643 21.9473 105.442 21.6422C105.242 21.3371 104.899 21.156 104.632 20.8985C104.375 20.6602 104.089 20.4504 103.774 20.2502C103.45 20.0405 103.154 19.7735 102.83 19.5542C102.506 19.335 102.125 19.2015 101.8 18.9822C101.476 18.7629 101.228 18.4388 100.904 18.2195C100.58 18.0002 100.275 17.7523 99.9508 17.533C99.6267 17.3138 99.3121 17.0754 98.9974 16.8561C98.6828 16.6368 98.3587 16.3985 98.044 16.1697C97.7294 15.9409 97.3385 15.8074 97.0239 15.5786C96.6902 15.3307 96.3279 15.1591 95.9847 14.9589C95.6415 14.7586 95.3364 14.444 94.9741 14.2724C94.6118 14.1008 94.1923 14.0436 93.8109 13.9101C93.4296 13.7766 93.0577 13.6241 92.6669 13.5288C92.276 13.4334 91.8946 13.2332 91.4942 13.176C91.0937 13.1188 90.6742 13.2046 90.2738 13.176C89.8734 13.1474 89.473 13.033 89.063 13.033C88.653 13.033 88.2621 13.1379 87.8522 13.1665C87.4422 13.1951 87.0418 13.1855 86.6414 13.2332L86.6318 13.1951Z" fill="white"/>
</g>
<path d="M94.4688 79.8378C94.7739 80.0952 95.1743 80.2477 95.4889 80.4956C95.8036 80.7435 96.1087 81.02 96.4328 81.2488C96.757 81.4776 97.0907 81.7064 97.4244 81.9353C97.758 82.1641 98.1871 82.2308 98.5303 82.4406C98.8735 82.6503 99.1119 83.0317 99.4551 83.2319C99.7983 83.4321 100.227 83.4893 100.58 83.68C100.933 83.8707 101.219 84.1948 101.572 84.376C101.924 84.5571 102.344 84.6334 102.706 84.805C103.068 84.9766 103.383 85.2531 103.755 85.4152C104.089 85.5582 104.48 85.5772 104.813 85.7107C105.147 85.8442 105.49 85.9777 105.824 86.1111C106.157 86.2446 106.482 86.4448 106.825 86.5688C107.168 86.6927 107.549 86.769 107.902 86.8929C107.788 87.2743 107.759 87.7033 107.664 88.0752C107.569 88.447 107.406 88.8283 107.292 89.1906C107.178 89.5529 106.892 89.8771 106.73 90.2298C106.548 90.6207 106.386 91.0212 106.196 91.4121C106.005 91.803 105.976 92.2701 105.776 92.6515C105.576 93.0328 105.395 93.4333 105.175 93.8051C104.956 94.1769 104.537 94.4248 104.289 94.7776C104.05 95.1208 103.984 95.5784 103.764 95.9216C103.545 96.2649 103.164 96.5318 102.954 96.8846C102.744 97.2373 102.668 97.6759 102.468 98.0382C102.268 98.4005 101.972 98.7151 101.791 99.0869C101.61 99.4587 101.4 99.821 101.228 100.193C101.057 100.565 101.066 101.022 100.904 101.404C100.742 101.785 100.58 102.166 100.428 102.548C100.275 102.929 100.075 103.291 99.9223 103.682C99.7697 104.073 99.7602 104.502 99.6172 104.893C99.4742 105.284 99.2167 105.627 99.0737 106.009C98.9307 106.39 98.8545 106.809 98.7114 107.2C98.5684 107.582 98.2347 107.887 98.0822 108.268C97.9297 108.65 97.8534 109.05 97.7008 109.431C97.5483 109.813 97.4434 110.204 97.2813 110.575C97.1193 110.947 96.9286 111.31 96.757 111.681C96.5854 112.053 96.347 112.387 96.1659 112.749C95.9847 113.111 95.8226 113.483 95.6224 113.846C95.4222 114.208 95.1267 114.494 94.9169 114.847C94.7072 115.199 94.7453 115.695 94.5355 116.038C94.3258 116.382 94.0589 116.706 93.83 117.039C93.6012 117.373 93.3343 117.688 93.0959 118.021C92.8576 118.355 92.5048 118.593 92.2569 118.918C92.009 119.242 91.7326 119.537 91.4751 119.852C91.2177 120.167 91.17 120.653 90.8936 120.958C90.6171 121.263 90.2166 121.444 89.9402 121.74C89.6637 122.035 89.3491 122.293 89.0535 122.579C88.777 122.846 88.491 123.113 88.2336 123.389C87.9762 123.666 87.7473 123.98 87.4995 124.276C87.2516 124.571 87.0228 124.876 86.7749 125.172C86.527 125.468 86.2219 125.706 85.974 126.011C85.7261 126.316 85.6594 126.745 85.421 127.041C85.0969 127.441 84.9443 127.822 84.8204 128.28C84.706 128.69 84.6679 129.109 84.706 129.662C84.7251 130.072 84.7441 130.501 84.7155 130.911C84.6869 131.321 84.4581 131.722 84.4009 132.141C84.3437 132.561 84.2007 132.952 84.1244 133.362C84.0482 133.772 84.0767 134.201 83.9909 134.611C83.9051 135.021 83.867 135.44 83.7907 135.841C83.7145 136.25 83.7335 136.679 83.6477 137.08C83.5619 137.48 83.2664 137.852 83.1901 138.262C83.1138 138.672 83.0089 139.073 82.9231 139.483C82.8373 139.892 82.7229 140.293 82.6371 140.693C82.5513 141.094 82.7229 141.561 82.6276 141.971C82.5322 142.381 82.1795 142.715 82.0746 143.124C81.9697 143.534 82.0651 143.983 81.9507 144.383C81.8363 144.783 81.7314 145.184 81.617 145.584C81.5026 145.985 81.331 146.366 81.2165 146.766C81.1021 147.167 80.8543 147.52 80.7208 147.92C80.5873 148.321 80.5301 148.73 80.3966 149.121C80.2631 149.512 80.2631 149.96 80.1106 150.351C79.9581 150.742 79.7388 151.104 79.5862 151.486C79.4337 151.867 79.2811 152.258 79.1095 152.639C78.9379 153.021 78.6424 153.259 78.4708 153.631C78.0703 153.564 77.7557 153.545 77.3743 153.459C76.993 153.374 76.6212 153.192 76.2398 153.078C75.8584 152.964 75.3913 153.097 75.0194 152.964C74.6476 152.83 74.333 152.535 73.9612 152.382C73.5893 152.229 73.1985 152.125 72.8457 151.953C72.4834 151.772 72.1878 151.457 71.8351 151.257C71.4823 151.057 71.0914 150.933 70.7387 150.723C70.3859 150.513 70.0618 150.275 69.7281 150.056C69.3944 149.836 68.9749 149.732 68.6412 149.493C68.3075 149.255 68.1168 148.835 67.7927 148.597C67.4685 148.359 66.9632 148.349 66.6391 148.101C66.3149 147.853 66.1814 147.377 65.8573 147.119C65.5331 146.862 65.2185 146.623 64.8943 146.376C64.5416 146.09 64.2174 145.823 63.9409 145.508C63.6644 145.193 63.4261 144.822 63.2068 144.45C62.9875 144.078 62.8159 143.697 62.6824 143.277C62.549 142.858 62.2153 142.495 62.1581 142.047C62.1009 141.599 62.0913 141.16 62.1199 140.712C62.1485 140.302 62.3488 139.892 62.3774 139.483C62.406 139.073 62.3964 138.653 62.425 138.234C62.4536 137.814 62.3583 137.395 62.3869 136.985C62.4155 136.575 62.5108 136.165 62.5394 135.745C62.568 135.326 62.6157 134.916 62.6443 134.506C62.6729 134.096 62.7206 133.676 62.7492 133.266C62.7778 132.856 62.9113 132.446 62.9399 132.027C62.9685 131.607 62.9875 131.197 63.0161 130.787C63.0447 130.378 62.9494 129.949 62.978 129.539C63.0066 129.129 63.0638 128.709 63.0924 128.299C63.121 127.889 63.264 127.479 63.2926 127.06C63.3212 126.64 63.3689 126.23 63.407 125.82C63.4452 125.41 63.264 124.981 63.2926 124.562C63.3212 124.142 63.4547 123.742 63.4928 123.322C63.531 122.903 63.3784 122.483 63.4166 122.064C63.4547 121.644 63.4928 121.234 63.5214 120.824C63.55 120.414 63.7884 120.014 63.8265 119.595C63.8647 119.175 63.7884 118.756 63.8265 118.346C63.8551 117.993 63.9886 117.659 64.0267 117.306C64.0649 116.954 64.0935 116.61 64.1411 116.258C64.1984 115.838 64.1984 115.409 64.2746 114.999C64.3509 114.589 64.5702 114.198 64.6465 113.779C64.7227 113.359 64.7132 112.93 64.7895 112.52C64.8657 112.11 64.942 111.691 65.0183 111.271C65.0946 110.852 65.2852 110.461 65.371 110.051C65.4473 109.632 65.371 109.183 65.4854 108.793C65.5999 108.402 65.8573 108.03 66.0193 107.658C66.1814 107.286 66.4388 106.962 66.6963 106.628C66.9537 106.295 67.1825 105.99 67.5257 105.723C67.9738 105.379 68.4791 105.093 69.1179 104.884C69.5279 104.75 69.8234 104.435 70.1666 104.226C70.5099 104.016 70.8817 103.825 71.1868 103.549C71.4919 103.272 71.8923 103.072 72.1592 102.758C72.4262 102.443 72.5501 102.014 72.8076 101.69C73.065 101.366 73.2271 100.965 73.4845 100.65C73.7419 100.336 74.1042 100.088 74.3902 99.7924C74.5046 99.678 74.6953 99.6399 74.8097 99.5255C75.1053 99.249 75.2483 98.82 75.5343 98.5339C75.8203 98.2479 76.2017 98.0573 76.4781 97.7617C76.7546 97.4661 76.9739 97.1229 77.2409 96.8178C77.5078 96.5128 77.8796 96.303 78.1371 95.9979C78.3945 95.6928 78.5661 95.3019 78.8235 94.9873C79.0809 94.6727 79.3002 94.339 79.5576 94.0244C79.8151 93.7097 80.1106 93.4333 80.3585 93.1186C80.635 92.785 80.8447 92.3941 81.1117 92.0508C81.3786 91.7076 81.6932 91.4025 81.9602 91.0593C82.2272 90.7161 82.6466 90.4968 82.9136 90.1536C83.1806 89.8103 83.3522 89.3908 83.6096 89.0476C83.867 88.7044 84.2102 88.4088 84.4676 88.0656C84.7251 87.7224 84.9062 87.3029 85.1732 86.9597C85.4401 86.6164 85.6117 86.197 85.8787 85.8537C86.1456 85.5105 86.4888 85.2245 86.7558 84.8813C87.0228 84.538 87.2134 84.1376 87.4804 83.7944C87.7664 83.4321 88.2336 83.2319 88.5291 82.8791C88.8247 82.5264 88.9963 82.0783 89.3014 81.735C89.6065 81.3918 89.8639 81.0105 90.169 80.6672C90.4741 80.324 90.8078 80.0094 91.1033 79.6662C91.4847 79.2181 91.9423 78.9702 92.3809 78.8939C92.8194 78.8176 93.2771 78.9797 93.7824 79.3229C94.0112 79.4755 94.2114 79.6376 94.4211 79.8092L94.4688 79.8378Z" fill="#E33500"/>
<path d="M77.136 272.663C77.2504 273.025 77.3552 273.378 77.4696 273.712C77.5841 274.045 77.6985 274.417 77.8033 274.77C77.9082 275.123 78.0512 275.456 78.1656 275.819C78.2705 276.152 78.3563 276.505 78.4707 276.877C78.0322 276.934 77.6031 276.991 77.1741 277.058C76.7451 277.125 76.3065 277.172 75.8775 277.239C75.4484 277.306 75.0194 277.401 74.5904 277.468C74.1614 277.535 73.7228 277.554 73.2938 277.611C72.8647 277.668 72.4357 277.764 72.0067 277.821C71.5776 277.878 71.1486 277.945 70.71 278.002C70.2715 278.059 69.8425 278.069 69.4134 278.116C68.9844 278.164 68.5554 278.25 68.1168 278.297C67.6687 278.345 67.2873 278.317 66.9536 278.269C66.5437 278.212 66.1814 278.088 65.8954 277.84C65.638 277.621 65.4568 277.287 65.2566 276.886C65.085 276.524 64.8943 276.105 64.7322 275.59C64.6083 275.189 64.4748 274.722 64.3509 274.217C64.7799 274.274 65.228 274.331 65.6666 274.369C66.1051 274.408 66.5342 274.436 66.9632 274.455C67.3922 274.474 67.8308 274.512 68.2693 274.503C68.7079 274.493 69.1369 274.474 69.5755 274.446C70.0141 274.417 70.4431 274.36 70.8721 274.303C71.3012 274.245 71.7397 274.207 72.1592 274.131C72.5787 274.055 73.0077 273.94 73.4272 273.845C73.8467 273.75 74.2662 273.645 74.6857 273.521C75.1052 273.397 75.5152 273.263 75.9251 273.13C76.3351 272.997 76.7355 272.844 77.1455 272.682L77.136 272.663Z" fill="#FF8792"/>
<path d="M86.8226 28.4303C87.2611 28.4685 87.7283 28.5161 88.1669 28.6592C88.6054 28.8022 89.044 28.9738 89.4253 29.1835C89.7972 29.3933 90.169 29.5744 90.5408 29.7556C90.9126 29.9367 91.2559 30.2037 91.6372 30.3753C92.0186 30.5469 92.4381 30.6327 92.829 30.7757C93.2199 30.9187 93.6108 31.0808 94.0112 31.2047C94.4116 31.3287 94.8311 31.3954 95.2316 31.5003C95.632 31.6052 96.0419 31.7005 96.4519 31.7863C96.8619 31.8721 97.2623 32.0151 97.6818 32.0628C98.1013 32.1105 98.5208 32.0914 98.9403 32.12C99.3598 32.1486 99.7697 32.2439 100.199 32.2439C100.628 32.2439 101.038 32.2344 101.457 32.2153C101.715 32.2058 102.001 32.2535 102.544 32.3774C102.468 32.7492 102.315 33.1401 102.249 33.512C102.182 33.8838 102.191 34.2747 102.125 34.6465C102.058 35.0183 102.01 35.3902 101.934 35.762C101.858 36.1338 101.743 36.4961 101.667 36.8679C101.591 37.2398 101.467 37.5925 101.381 37.9643C101.286 38.3838 101.228 38.8129 101.143 39.2228C101.057 39.6328 101.028 40.0714 100.933 40.4909C100.838 40.9103 100.628 41.3012 100.532 41.7207C100.437 42.1402 100.447 42.5788 100.342 42.9983C100.237 43.4178 100.056 43.8087 99.9413 44.2186C99.8269 44.6286 99.7411 45.0481 99.6172 45.4581C99.4933 45.868 99.3121 46.2589 99.1691 46.6594C99.0261 47.0598 98.9117 47.4793 98.7496 47.8702C98.5875 48.2611 98.3873 48.6424 98.2062 49.0333C98.025 49.4242 97.8915 49.8246 97.6913 50.206C97.5006 50.5588 97.3386 50.9306 97.1765 51.3024C97.0144 51.6742 96.8714 52.0461 96.7379 52.4274C96.6044 52.8088 96.3852 53.1615 96.2612 53.5524C96.1373 53.9433 96.1373 54.3533 96.0229 54.7442C95.9085 55.1351 95.7559 55.5069 95.651 55.8978C95.5462 56.2887 95.4985 56.6987 95.3841 57.08C95.2697 57.4614 95.0885 57.8332 94.9551 58.2146C94.5737 58.2146 94.1542 58.186 93.6775 58.1383C93.2771 58.1001 92.8481 58.0906 92.3904 58.0239C91.99 57.9667 91.58 57.8046 91.1319 57.7283C90.722 57.6616 90.3025 57.5758 89.8639 57.4995C89.4539 57.4232 89.0058 57.4518 88.5768 57.366C88.1478 57.2802 87.7664 57.0896 87.3374 56.9847C86.9084 56.8798 86.4889 56.8607 86.0598 56.7559C85.6308 56.651 85.2304 56.5175 84.8109 56.4126C84.3914 56.3078 83.9624 56.2696 83.5429 56.1552C83.1234 56.0408 82.7325 55.8406 82.313 55.7262C81.9221 55.6213 81.5312 55.545 81.1498 55.4306C80.7685 55.3162 80.368 55.259 79.9867 55.1446C79.6053 55.0302 79.2144 54.9158 78.8331 54.8014C78.4517 54.687 78.0989 54.4486 77.7271 54.3247C77.3553 54.2007 76.9549 54.0959 76.583 53.9719C76.1921 53.8385 75.8108 53.724 75.4485 53.5906C75.0576 53.4475 74.6762 53.3236 74.3235 53.1901C73.9231 53.0376 73.5512 52.8946 73.208 52.7516C72.798 52.58 72.4358 52.4084 72.1211 52.2463C71.673 52.0175 71.3489 51.7791 71.1391 51.5884C71.1773 51.1689 71.2345 50.759 71.2821 50.3395C71.3298 49.92 71.387 49.5005 71.4347 49.081C71.4824 48.6615 71.4823 48.242 71.53 47.8225C71.5777 47.403 71.6063 46.9835 71.654 46.564C71.7016 46.1445 71.7493 45.725 71.7874 45.3055C71.8256 44.886 71.8446 44.4665 71.8828 44.047C71.9209 43.6275 71.9686 43.2176 72.0067 42.7981C72.0449 42.3786 72.0353 41.9591 72.0639 41.5396C72.0925 41.1201 72.2165 40.7101 72.2451 40.2906C72.2737 39.8711 72.226 39.4421 72.1688 39.0226C72.1116 38.6031 71.9781 38.2027 71.9019 37.7927C71.8256 37.3828 71.7112 36.9728 71.654 36.5533C71.6158 36.2577 71.5682 35.9336 71.53 35.619C71.4919 35.2853 71.53 34.9707 71.6254 34.6942C71.7493 34.3414 71.9019 33.9982 72.0258 33.6454C72.1497 33.2927 72.2451 32.9304 72.3786 32.5776C72.512 32.2249 72.636 31.8721 72.7694 31.5289C72.9029 31.1857 73.0364 30.8234 73.1699 30.4801C73.3033 30.1369 73.3796 29.7556 73.5226 29.4028C73.6752 29.031 73.9135 28.6973 74.0756 28.335C74.2377 27.9727 74.4093 27.6104 74.5904 27.2481C74.7716 26.8858 74.9623 26.5426 75.1434 26.1803C75.3246 25.818 75.439 25.4271 75.6392 25.0744C75.8394 24.7216 76.0873 24.4642 76.297 24.121C76.6116 24.4356 76.9358 24.6549 77.26 24.9314C77.5936 25.2174 77.9464 25.4557 78.2992 25.6941C78.6519 25.9324 78.9761 26.2471 79.3479 26.4473C79.7197 26.6475 80.1583 26.7524 80.5492 26.924C80.9401 27.0956 81.331 27.3053 81.7314 27.4388C82.1318 27.5723 82.5704 27.6199 82.9899 27.7248C83.4094 27.8297 83.8003 28.0299 84.2293 28.1062C84.6583 28.1824 85.0874 28.1729 85.5164 28.2301C85.9454 28.2873 86.3649 28.3731 86.794 28.4113L86.8226 28.4303Z" fill="#ECEAED"/>
<path d="M48.6674 218.577C48.8486 218.977 49.3062 219.225 49.535 219.568C49.7638 219.911 50.0784 220.216 50.3645 220.512C50.6505 220.807 50.7649 221.38 51.1176 221.618C51.4704 221.856 52.0043 221.799 52.3952 221.98C52.7861 222.161 53.1961 222.171 53.6156 222.285C54.035 222.4 54.3592 222.886 54.7978 222.943C55.2173 222.991 55.6749 222.791 56.1135 222.791C56.552 222.791 56.9906 222.972 57.4196 222.924C57.8487 222.876 58.2395 222.571 58.659 222.466C59.0785 222.362 59.4218 222.076 59.8222 221.913C60.2226 221.751 60.7184 221.789 61.0711 221.561C61.4239 221.332 61.8529 221.113 62.139 220.798C62.425 220.483 62.7873 220.14 62.9684 219.74C63.14 219.358 63.2735 218.958 63.4165 218.577C63.5595 218.195 63.6453 217.776 63.7693 217.385C63.8932 216.994 63.7407 216.517 63.8455 216.126C63.9504 215.735 64.2841 215.383 64.3699 214.982C64.4557 214.582 64.2936 214.134 64.3699 213.724C64.4462 213.314 64.4176 212.904 64.4652 212.494C64.5129 212.084 64.532 211.683 64.5797 211.273C64.6273 210.864 64.8561 210.482 64.8943 210.072C64.9324 209.662 64.9419 209.252 64.9706 208.842C64.9991 208.432 65.2089 207.956 65.247 207.546C64.8371 207.384 64.3699 207.183 63.979 206.993C63.5881 206.802 63.0447 206.897 62.6538 206.716C62.2629 206.535 62.0055 205.973 61.5955 205.839C61.1665 205.696 60.6802 205.982 60.2512 205.954C59.8317 205.925 59.4313 205.753 59.0118 205.744C58.5923 205.734 58.1728 205.658 57.7533 205.648C57.3338 205.639 56.9143 205.591 56.4948 205.591C56.0753 205.591 55.6654 205.381 55.2459 205.372C54.8264 205.362 54.4164 205.343 53.9969 205.324C53.5774 205.305 53.1579 205.353 52.748 205.315C52.338 205.277 51.8804 205.486 51.4704 205.42C51.0604 205.353 50.7077 204.972 50.2977 204.876C49.8878 204.781 49.5064 204.676 49.0964 204.552C48.6865 204.428 48.3146 204.657 47.9142 204.495C47.7807 204.895 47.5615 205.115 47.4661 205.505C47.3708 205.896 47.428 206.335 47.3612 206.735C47.2945 207.136 47.0371 207.527 46.999 207.927C46.9608 208.327 47.1229 208.757 47.1134 209.157C47.1038 209.557 47.161 209.967 47.1706 210.377C47.1801 210.787 47.2468 211.188 47.2754 211.588C47.304 211.989 46.9608 212.427 46.999 212.837C47.0371 213.228 47.3803 213.59 47.4566 213.981C47.5329 214.372 47.5138 214.782 47.6187 215.163C47.7235 215.545 48.0096 215.869 48.1335 216.25C48.2574 216.632 48.3433 217.013 48.4958 217.385C48.6483 217.757 48.5339 218.243 48.696 218.596L48.6674 218.577ZM19.6173 220.95C20.0082 221.122 20.5135 220.979 20.9425 221.046C21.3716 221.113 21.772 221.094 22.2106 221.084C22.6491 221.074 23.1163 221.38 23.5453 221.294C23.9743 221.208 24.308 220.779 24.7085 220.617C25.1089 220.455 25.4235 220.159 25.7763 219.93C26.1481 219.682 26.7487 219.721 27.0252 219.406C27.3112 219.072 27.3684 218.557 27.5115 218.167C27.6545 217.795 27.9691 217.48 28.0835 217.099C28.1979 216.717 28.0644 216.269 28.1502 215.888C28.236 215.507 28.1312 215.087 28.1884 214.706C28.2456 214.324 28.5411 213.962 28.5793 213.571C28.6174 213.18 28.7318 212.789 28.7413 212.389C28.7509 211.989 28.8558 211.598 28.8462 211.197C28.8367 210.797 28.789 210.406 28.7604 210.005C28.7318 209.605 28.646 209.214 28.6079 208.823C28.5697 208.432 28.2456 208.07 28.1884 207.679C28.1216 207.202 28.1312 206.649 27.807 206.354C27.4829 206.058 27.0062 206.135 26.4627 206.268C26.0432 206.363 25.6237 206.526 25.2042 206.583C24.7847 206.64 24.3366 206.726 23.9171 206.745C23.4976 206.764 23.0495 206.592 22.6205 206.583C22.1915 206.573 21.7625 206.583 21.3334 206.554C20.9044 206.526 20.504 206.287 20.0749 206.24C19.6459 206.192 19.2264 206.182 18.7974 206.116C18.3683 206.049 17.9012 206.316 17.4817 206.249C17.0622 206.182 16.7094 205.706 16.2899 205.629C15.8704 205.553 15.5177 205.849 15.0887 205.782C14.8789 206.144 14.6882 206.335 14.5452 206.726C14.4022 207.117 14.2211 207.489 14.1353 207.898C14.0494 208.308 13.9446 208.709 13.9064 209.128C13.8683 209.548 13.6586 209.958 13.6586 210.387C13.6586 210.816 13.6967 211.235 13.7444 211.655C13.792 212.074 13.935 212.484 14.0208 212.894C14.1067 213.304 14.4594 213.647 14.5834 214.038C14.7073 214.429 14.5452 214.944 14.6978 215.325C14.8503 215.707 15.0314 216.117 15.2221 216.479C15.4128 216.841 15.9562 217.023 16.1851 217.366C16.4139 217.709 16.4902 218.176 16.7571 218.491C17.0241 218.805 17.4149 219.015 17.72 219.292C18.0251 219.568 18.2253 220.007 18.5686 220.235C18.9118 220.464 19.2645 220.76 19.6459 220.922L19.6173 220.95ZM44.1102 275.027C44.2055 275.495 44.5392 275.857 44.5678 276.219C44.5964 276.724 44.5964 277.182 44.4724 277.506C44.3104 277.916 43.8337 277.916 43.3951 278.05C43.0709 278.155 42.7277 278.488 42.2224 278.46C41.8601 278.441 41.412 278.498 40.9544 278.412C40.9544 278.412 41.0307 278.002 41.0211 278.002C40.5254 277.907 40.001 277.992 39.5243 277.849C39.0476 277.706 38.59 277.373 38.0942 277.316C37.627 277.258 37.1217 277.43 36.645 277.382C36.1683 277.335 35.6916 277.478 35.2149 277.459C34.7382 277.439 34.2615 277.201 33.7944 277.239C33.3653 277.277 32.9554 277.192 32.5549 277.173C32.1259 277.153 31.7636 277.001 31.3632 276.906C30.9628 276.81 30.61 276.705 30.2382 276.505C29.8664 276.305 29.5613 276.133 29.2466 275.828C28.9702 275.552 28.4935 275.409 28.2456 275.037C28.0168 274.684 27.9977 274.207 27.7784 273.855C27.5591 273.502 27.1396 273.264 26.9299 272.911C26.7201 272.558 26.4437 272.215 26.2625 271.843C26.0814 271.471 25.8621 271.099 25.7 270.718C25.5379 270.337 25.5665 269.869 25.4426 269.469C25.3186 269.069 25.1756 268.678 25.0803 268.268C24.9849 267.858 25.1089 267.429 25.0517 267.009C24.9945 266.58 24.8896 266.161 24.8038 265.751C24.718 265.341 24.2985 264.998 24.1841 264.597C24.0697 264.197 24.3366 263.663 24.1841 263.262C24.0315 262.862 23.5262 262.614 23.3546 262.223C23.183 261.832 23.1449 261.394 22.9447 261.012C22.7445 260.631 22.6014 260.24 22.3822 259.868C22.1629 259.506 21.9817 259.115 21.7625 258.753C21.5432 258.391 21.4955 257.914 21.2762 257.552C21.0569 257.189 20.8377 256.817 20.6184 256.446C20.3991 256.074 20.1131 255.75 19.9033 255.378C19.6936 255.025 19.2741 254.806 19.0739 254.453C18.8737 254.1 18.9499 253.585 18.7497 253.233C18.5495 252.88 18.3588 252.518 18.1681 252.165C17.9775 251.812 17.4436 251.631 17.2529 251.278C17.0622 250.925 17.0622 250.458 16.8715 250.096C16.6808 249.734 16.3662 249.438 16.1851 249.076C16.0039 248.714 16.0135 248.256 15.8323 247.884C15.6512 247.512 15.3079 247.226 15.1459 246.854C14.9838 246.483 14.7645 246.13 14.612 245.748C14.4594 245.367 14.2687 244.995 14.1257 244.614C13.9827 244.233 14.2115 243.718 14.078 243.336C13.9446 242.955 13.5537 242.64 13.4488 242.249C13.3439 241.859 13.3439 241.43 13.2486 241.039C13.1533 240.648 12.8958 240.276 12.8196 239.875C12.7433 239.475 12.7338 239.056 12.6765 238.655C12.6193 238.255 12.8863 237.816 12.8482 237.406C12.81 236.996 12.5049 236.615 12.4859 236.205C12.4668 235.795 12.7338 235.395 12.7338 234.985C12.7338 234.575 12.6765 234.174 12.7052 233.774C12.7338 233.373 12.4573 232.935 12.5049 232.525C12.5526 232.115 12.9626 231.772 13.0293 231.362C13.096 230.952 12.8291 230.494 12.9149 230.094C13.0007 229.693 13.0102 229.264 13.1151 228.873C13.22 228.482 13.5251 228.139 13.649 227.748C13.7825 227.357 14.078 227.014 14.1257 226.642C14.1829 226.251 14.078 225.832 14.0208 225.441C13.9636 225.05 13.649 224.783 13.4774 224.402C13.3344 224.068 13.649 223.553 13.5155 223.21C13.3821 222.867 12.8577 222.676 12.7242 222.342C12.5907 222.009 12.7433 221.542 12.5812 221.217C12.4001 220.855 12.1045 220.56 11.9424 220.197C11.7804 219.835 11.7708 219.396 11.6183 219.034C11.4657 218.672 11.1702 218.357 11.0272 217.976C10.8842 217.595 10.8937 217.175 10.7602 216.803C10.6267 216.431 10.2835 216.117 10.1691 215.735C10.0547 215.354 9.91169 214.973 9.81635 214.582C9.72101 214.191 9.61614 213.8 9.53033 213.409C9.44452 213.018 9.72101 212.551 9.64474 212.16C9.56847 211.769 9.06316 211.445 9.00596 211.054C8.94875 210.663 9.08223 210.234 9.02503 209.834C8.96782 209.433 8.6818 209.062 8.64367 208.661C8.60553 208.261 8.86295 207.841 8.83435 207.441C8.80575 207.04 8.77714 206.64 8.76761 206.24C8.74854 205.839 8.55786 205.439 8.54833 205.038C8.53879 204.638 8.87248 204.218 8.86295 203.808C8.85342 203.398 8.83435 202.998 8.82481 202.598C8.81528 202.197 8.33858 201.797 8.33858 201.387C8.33858 200.977 8.72947 200.576 8.73901 200.166C8.74854 199.756 8.50066 199.346 8.51973 198.936C8.53879 198.527 8.71041 198.136 8.74854 197.735C8.78668 197.335 8.58646 196.887 8.6532 196.486C8.71994 196.086 9.16804 195.762 9.26338 195.361C9.36825 194.942 9.32058 194.494 9.39685 194.084C9.47313 193.674 9.32058 193.226 9.35872 192.806C9.39685 192.387 9.38732 191.977 9.38732 191.557C9.38732 191.138 9.82588 190.699 9.79728 190.28C9.76868 189.86 9.62567 189.441 9.56847 189.021C9.51126 188.621 9.37779 188.23 9.30151 187.829C9.22524 187.429 9.05363 187.057 8.94876 186.657C8.84388 186.247 8.71041 185.837 8.64367 185.427C8.57693 185.017 8.51019 184.578 8.50066 184.168C8.49112 183.758 8.63413 183.329 8.69134 182.919C8.74854 182.509 8.91062 182.138 9.04409 181.728C9.17757 181.346 9.41592 181.032 9.6352 180.65C9.87355 180.24 9.86402 179.735 9.86402 179.335C9.86402 178.934 9.74008 178.486 9.59707 178.067C9.45406 177.647 9.32058 177.256 9.14897 176.856C8.97736 176.455 8.73901 176.122 8.6246 175.788C8.47206 175.368 8.41485 174.978 8.35765 174.634C8.28138 174.196 8.12883 173.786 8.22417 173.433C8.31951 173.08 8.80575 172.937 9.11083 172.613C9.33965 172.356 9.56847 172.089 9.93076 171.822C10.2168 171.612 10.4456 171.25 10.8174 171.021C11.1988 170.792 11.4848 170.468 11.828 170.22C12.1712 169.972 12.5621 169.762 12.8768 169.486C13.1914 169.209 13.6395 169.028 13.935 168.723C14.2306 168.418 14.6024 168.142 14.8694 167.808C15.1363 167.474 15.2984 167.036 15.5368 166.683C15.7751 166.33 16.0135 165.958 16.2232 165.587C16.4329 165.215 16.6236 164.814 16.7952 164.423C16.9669 164.033 16.862 163.527 17.005 163.127C17.148 162.726 17.5961 162.421 17.72 162.011C17.844 161.601 17.9775 161.191 18.0823 160.772C18.1872 160.352 18.3493 159.952 18.4351 159.523C18.5209 159.094 18.2444 158.617 18.3207 158.188C18.3969 157.759 18.8641 157.406 18.9213 156.977C18.9785 156.548 18.7306 156.081 18.7783 155.652C18.826 155.271 18.7783 154.899 18.7974 154.518C18.8164 154.136 19.1978 153.783 19.2169 153.402C19.2359 153.021 18.8546 152.639 18.8641 152.248C18.8737 151.858 19.112 151.505 19.1215 151.114C19.1311 150.723 19.0071 150.141 19.0262 149.751C19.4171 149.903 19.8747 150.466 20.2656 150.59C20.6565 150.714 21.1427 150.59 21.5432 150.704C21.9436 150.818 22.3822 150.799 22.7826 150.895C23.183 150.99 23.5644 151.19 23.9743 151.266C24.3843 151.343 24.7943 151.448 25.2042 151.495C25.6142 151.543 26.0051 151.877 26.4246 151.905C26.8441 151.934 27.2731 151.915 27.6926 151.934C28.1121 151.953 28.5316 151.762 28.9511 151.753C29.3706 151.743 29.7996 151.924 30.2191 151.896C30.6386 151.867 31.0295 151.581 31.4395 151.524C31.8494 151.467 32.2689 151.486 32.6789 151.429C33.0889 151.371 33.4988 151.305 33.8992 151.247C34.2997 151.19 34.6715 150.837 35.0815 150.78C35.4914 150.723 35.9491 151.028 36.359 150.961C36.769 150.895 37.1408 150.571 37.5412 150.513C37.9417 150.456 38.3993 150.685 38.8092 150.628C39.2192 150.571 39.6006 150.323 40.0105 150.265C40.4205 150.208 40.8591 150.37 41.269 150.313C41.679 150.256 42.0508 149.96 42.4608 149.894C42.8707 149.827 43.2807 149.77 43.6811 149.712C44.0816 149.655 44.5201 149.722 44.9301 149.665C45.34 149.608 45.7309 149.426 46.1409 149.36C46.5509 149.293 46.9418 149.112 47.3422 149.045C47.7426 148.978 48.1716 149.026 48.5816 148.959C48.9916 148.893 49.4397 149.121 49.8496 149.064C50.2596 149.007 50.66 148.912 51.07 148.845C51.4799 148.778 51.8422 148.406 52.2427 148.349C52.6431 148.292 53.053 148.168 53.4535 148.111C53.8539 148.054 54.3306 148.359 54.731 148.301C55.1315 148.244 55.4747 147.825 55.8751 147.748C56.2755 147.672 56.7332 147.93 57.1431 147.844C57.5531 147.758 57.8868 147.443 58.2872 147.358C58.6876 147.272 59.1262 147.405 59.5266 147.31C59.9271 147.215 60.3275 147.205 60.7375 147.11C61.1474 147.014 61.5002 146.614 61.9101 146.528C62.2534 146.785 62.6252 147.081 62.9875 147.367C63.3212 147.634 63.6072 147.987 63.9599 148.273C64.3127 148.559 64.7989 148.616 65.1612 148.893C65.5235 149.169 65.7237 149.598 66.086 149.865C66.4483 150.132 66.8773 150.275 67.2396 150.523C67.6019 150.771 67.7926 151.314 68.174 151.543C68.4886 151.734 68.889 151.791 69.2132 151.972C69.5373 152.153 69.9187 152.21 70.2524 152.372C70.5861 152.535 70.9007 152.725 71.2344 152.878C71.5681 153.03 71.8636 153.288 72.1973 153.431C72.6264 153.621 73.084 153.764 73.5226 153.955C73.9611 154.146 74.3043 154.537 74.7429 154.727C75.1815 154.918 75.8107 154.661 76.2493 154.87C76.6688 155.061 77.0501 155.347 77.4696 155.547C77.8891 155.747 78.2609 156.014 78.69 156.224C79.0904 156.415 79.3097 156.739 79.7387 156.949C79.5194 157.425 79.3002 157.692 79.1381 158.064C78.9379 158.531 79.1858 159.161 78.9474 159.513C78.7281 159.847 78.2705 160.028 78.137 160.362C77.9845 160.724 77.7938 161.096 77.7366 161.468C77.6794 161.84 77.6126 162.269 77.6317 162.65C77.6508 163.031 77.7842 163.422 77.8796 163.804C77.9749 164.166 78.1465 164.528 78.2991 164.891C78.4421 165.224 78.4326 165.615 78.566 165.958C78.6995 166.302 79.1858 166.483 79.3478 166.807C79.5385 167.198 79.7864 167.579 79.9008 167.97C80.0247 168.38 80.101 168.828 80.1487 169.238C80.1964 169.648 80.225 170.115 80.1868 170.535C80.1487 170.954 79.7578 171.307 79.6529 171.726C79.548 172.117 79.3097 172.461 79.1476 172.861C78.9951 173.242 79.0427 173.7 78.9379 174.091C78.833 174.482 78.8044 174.892 78.7377 175.292C78.6709 175.693 78.7949 176.093 78.7853 176.503C78.7758 176.913 78.3944 177.323 78.4421 177.733C78.4898 178.143 78.547 178.553 78.6518 178.953C78.7567 179.335 78.8425 179.754 79.0046 180.155C79.1476 180.507 79.7387 180.688 79.8722 181.051C80.0057 181.413 79.7006 181.928 79.8245 182.29C79.9485 182.652 80.4061 182.9 80.53 183.263C80.654 183.625 80.7589 183.997 80.8733 184.359C81.0067 184.769 81.0449 185.198 81.1688 185.608C81.2928 186.018 81.207 186.485 81.3309 186.895C81.4548 187.305 81.7027 187.677 81.8171 188.087C81.9315 188.497 82.3034 188.84 82.4178 189.25C82.5322 189.66 82.5227 190.108 82.6371 190.518C82.7515 190.928 82.8945 191.338 83.0089 191.748C83.1233 192.148 82.8659 192.635 82.9326 193.064C82.9994 193.493 83.1614 193.883 83.1614 194.303C83.1614 194.722 82.9994 195.123 82.9421 195.542C82.8849 195.943 83.3044 196.41 83.2472 196.81C83.19 197.211 82.8754 197.583 82.8373 197.983C82.7991 198.384 82.8849 198.803 82.8563 199.203C82.8277 199.604 82.5322 199.995 82.5131 200.405C82.494 200.815 82.618 201.225 82.6085 201.625C82.5989 202.026 82.5417 202.435 82.5417 202.845C82.5417 203.255 82.8087 203.646 82.8182 204.056C82.8277 204.466 82.4273 204.886 82.4464 205.286C82.4654 205.687 83.0184 206.058 83.047 206.468C83.0756 206.878 82.5989 207.317 82.6371 207.727C82.6752 208.137 82.7515 208.537 82.7991 208.938C82.8468 209.338 82.9517 209.739 83.0184 210.139C83.0852 210.539 83.1042 210.949 83.171 211.35C83.2377 211.75 83.314 212.151 83.3902 212.551C83.4665 212.951 83.9718 213.257 84.0672 213.647C84.1625 214.038 84.2578 214.429 84.3532 214.82C84.4485 215.221 84.2197 215.678 84.2674 216.069C84.315 216.46 84.3723 216.87 84.3627 217.27C84.3532 217.671 84.5153 218.109 84.4485 218.51C84.3818 218.91 84.1434 219.282 84.0195 219.663C83.8955 220.045 83.7144 220.407 83.5428 220.779C83.3616 221.16 83.1519 221.523 82.9803 221.913C82.8087 222.304 82.475 222.619 82.3224 223.01C82.1699 223.401 82.0269 223.811 81.8934 224.202C81.7599 224.592 81.8267 225.069 81.7027 225.47C81.5788 225.87 81.3976 226.261 81.2832 226.661C81.1688 227.062 80.8733 227.424 80.7684 227.834C80.6635 228.244 80.53 228.644 80.4347 229.054C80.3394 229.464 80.6063 229.951 80.5205 230.361C80.4347 230.771 80.1868 231.152 80.1105 231.571C80.0343 231.991 80.2822 232.449 80.2154 232.868C80.1487 233.287 80.0819 233.697 80.0247 234.107C79.9675 234.517 79.5671 234.899 79.5194 235.318C79.4718 235.738 79.6243 236.176 79.5862 236.596C79.548 237.015 79.3478 237.416 79.3192 237.835C79.2906 238.255 79.3002 238.674 79.2811 239.094C79.262 239.513 79.3669 239.942 79.3478 240.362C79.3288 240.781 79.0523 241.191 79.0427 241.611C79.0332 242.03 79.1953 242.459 79.1858 242.879C79.1858 243.279 79.1953 243.689 79.1858 244.09C79.1762 244.49 78.9665 244.89 78.9569 245.3C78.9474 245.71 79.243 246.12 79.2239 246.521C79.2048 246.921 78.9855 247.322 78.9665 247.722C78.9474 248.122 78.833 248.523 78.8139 248.923C78.7949 249.324 78.8616 249.734 78.8425 250.134C78.8235 250.535 78.8235 250.944 78.8044 251.345C78.7853 251.745 79.0427 252.165 79.0237 252.575C79.0046 252.985 78.8425 253.376 78.8235 253.776C78.8044 254.177 78.4993 254.567 78.4802 254.977C78.4612 255.387 78.7377 255.797 78.7091 256.198C78.6805 256.598 78.8521 257.018 78.833 257.418C78.8139 257.818 78.5756 258.219 78.547 258.619C78.5184 259.02 78.3086 259.42 78.2896 259.821C78.2705 260.221 78.4707 260.841 78.4516 261.251C77.994 260.993 77.6126 260.564 77.2694 260.374C76.9262 260.183 76.583 260.097 76.1253 259.849C76.1539 260.335 75.9823 260.736 76.0014 261.184C76.0205 261.661 76.2779 262.109 76.2969 262.557C76.316 263.005 76.4304 263.472 76.4686 263.93C76.4972 264.321 76.4495 264.712 76.4781 265.093C76.5067 265.474 76.6878 265.846 76.726 266.237C76.7641 266.628 76.7069 267.019 76.7546 267.4C76.8022 267.782 76.5067 268.211 76.5448 268.592C76.602 269.078 76.7832 269.459 76.6688 269.812C76.5353 270.222 76.1921 270.432 75.8584 270.708C75.5628 270.947 75.3054 271.309 74.8668 271.481C74.4855 271.633 74.1613 271.957 73.7704 272.072C73.3795 272.186 72.9314 272.139 72.5406 272.234C72.1497 272.329 71.7683 272.577 71.3679 272.634C70.9674 272.692 70.5098 272.339 70.1094 272.367C69.709 272.396 69.3181 272.711 68.9081 272.711C68.4981 272.711 68.0882 272.796 67.6782 272.777C67.2682 272.758 66.8678 272.625 66.4674 272.577C66.067 272.529 65.6761 272.377 65.2756 272.31C64.8752 272.243 64.4939 272.091 64.103 271.996C63.7502 271.91 63.3593 271.805 62.997 271.605C62.6633 271.414 62.1676 271.376 61.872 271.118C61.5764 270.861 61.586 270.27 61.3572 269.965C61.1951 269.755 61.0711 269.574 60.9567 269.364C60.7661 268.983 60.3656 268.697 60.194 268.306C60.0224 267.915 59.6887 267.581 59.5362 267.181C59.3836 266.78 59.5552 266.247 59.4122 265.846C59.2692 265.446 59.2025 265.017 59.0595 264.607C58.9165 264.197 58.497 263.892 58.3635 263.482C58.23 263.072 58.1442 262.652 58.0107 262.242C57.8773 261.832 57.7247 261.432 57.5817 261.031C57.4864 260.755 57.5054 260.402 57.4864 260.078C57.4673 259.754 57.2385 259.296 57.3529 259.029C57.5245 258.638 58.0107 258.391 58.0393 258.038C58.0679 257.647 57.6389 257.313 57.5436 256.951C57.4482 256.589 57.7056 256.093 57.5436 255.731C57.3815 255.368 57.0955 255.101 56.9334 254.749C56.7427 254.348 56.4472 254.005 56.2565 253.604C56.0658 253.204 55.7893 252.851 55.6082 252.441C55.427 252.031 55.6082 251.469 55.4365 251.068C55.2649 250.668 54.9789 250.306 54.8073 249.896C54.6357 249.486 54.2257 249.181 54.0637 248.771C53.9016 248.361 53.6442 247.979 53.4916 247.569C53.3391 247.159 53.4916 246.626 53.3486 246.216C53.2056 245.815 53.2247 245.348 53.0721 244.967C52.9196 244.585 52.4143 244.337 52.2236 243.975C52.0329 243.613 51.9185 243.193 51.6802 242.85C51.4418 242.507 51.0795 242.278 50.7935 241.963C50.5075 241.649 50.2787 241.325 49.945 241.048C49.6494 240.81 49.2871 240.638 48.9916 240.39C48.696 240.142 48.6769 239.589 48.3909 239.332C48.1049 239.075 47.5043 239.17 47.2182 238.913C46.9322 238.655 46.6843 238.369 46.3888 238.121C46.0932 237.873 45.9216 237.492 45.6165 237.254C45.2924 236.996 44.8157 236.92 44.5106 236.653C44.2055 236.386 43.9195 236.071 43.6239 235.785C43.3284 235.499 43.214 235.032 42.9279 234.727C42.6419 234.422 42.4226 234.079 42.1557 233.764C41.8887 233.45 41.3358 233.383 41.0688 233.059C40.8019 232.735 40.6112 232.363 40.3633 232.039C40.1154 231.714 40.2107 231.133 39.9724 230.799C39.734 230.465 39.3813 230.208 39.162 229.865C38.9427 229.522 38.5709 229.264 38.3612 228.911C38.1514 228.559 38.0561 228.139 37.8559 227.777C37.6556 227.415 37.2266 227.186 37.0264 226.833C36.8262 226.48 36.8929 225.975 36.7022 225.603C36.5116 225.231 36.3304 224.879 36.1493 224.507C35.9681 224.135 35.4723 223.925 35.3007 223.553C35.1291 223.181 35.3007 222.648 35.1291 222.276C34.9575 221.904 34.8526 221.503 34.681 221.122C34.4808 220.674 34.109 220.274 34.0232 219.778C33.9374 219.282 33.966 218.758 33.823 218.291C33.6609 217.795 33.2319 217.347 32.9268 216.889C32.7361 217.28 32.5359 217.661 32.4405 218.033C32.3357 218.443 32.2117 218.853 32.2117 219.244C32.2117 219.654 32.5931 220.016 32.6694 220.398C32.7456 220.779 32.7266 221.198 32.86 221.58C32.9935 221.961 33.2605 222.285 33.4035 222.657C33.556 223.058 33.3558 223.591 33.5179 223.992C33.68 224.392 34.1281 224.659 34.2997 225.05C34.4713 225.441 34.5094 225.889 34.6906 226.27C34.8717 226.652 35.1863 226.976 35.377 227.357C35.5677 227.739 35.644 228.177 35.8537 228.549C36.0635 228.921 36.5116 229.15 36.7308 229.522C36.9501 229.893 36.9597 230.38 37.1885 230.732C37.4173 231.085 37.4459 231.59 37.6842 231.943C37.9226 232.296 38.3516 232.525 38.5995 232.868C38.8474 233.211 39.019 233.621 39.2859 233.955C39.5529 234.289 40.1059 234.374 40.3824 234.699C40.6588 235.023 40.84 235.423 41.1355 235.728C41.4502 236.062 41.4692 236.529 41.6504 236.863C41.8411 237.235 42.0794 237.53 42.0985 237.969C42.1175 238.341 42.3273 238.789 42.2224 239.246C42.1175 239.713 41.6599 240.123 41.5836 240.61C41.5074 241.096 41.6599 241.601 41.6313 242.087C41.5932 242.593 41.6599 243.108 41.6599 243.613C41.6599 244.118 41.5836 244.633 41.6218 245.138C41.6504 245.558 41.7743 245.968 41.8029 246.378C41.8315 246.788 41.7362 247.217 41.7553 247.627C41.7743 248.037 42.0031 248.456 42.0127 248.866C42.0222 249.276 41.7267 249.705 41.7267 250.115C41.7267 250.525 41.8983 250.954 41.8792 251.364C41.8601 251.774 41.8315 252.203 41.8029 252.613C41.7743 253.023 41.4597 253.414 41.412 253.824C41.3644 254.234 41.6122 254.701 41.536 255.111C41.4597 255.521 40.9639 255.835 40.8686 256.245C40.7637 256.684 41.0974 257.199 41.0307 257.628C40.9639 258.057 40.8877 258.495 40.8686 258.934C40.8495 259.373 40.8495 259.811 40.8686 260.25C40.8877 260.688 40.9067 261.127 40.9544 261.565C41.0021 262.004 41.1451 262.414 41.2309 262.852C41.3167 263.291 41.0497 263.787 41.1546 264.225C41.2595 264.664 41.269 265.112 41.3834 265.541C41.4978 265.941 41.8029 266.294 41.9173 266.695C42.0317 267.095 41.9269 267.562 42.0413 267.963C42.1557 268.363 42.5656 268.678 42.6896 269.078C42.8135 269.479 42.7754 269.917 42.8993 270.318C43.0233 270.718 43.4523 271.023 43.5762 271.424C43.7002 271.824 43.6907 272.263 43.8051 272.663C43.9195 273.063 43.9957 273.473 44.1102 273.874C44.2055 274.217 44.0911 274.627 44.1578 274.98L44.1102 275.027Z" fill="#007257"/>
<path d="M78.1752 290.711C77.7939 290.883 77.3839 290.959 77.0025 291.064C76.6212 291.169 76.2112 291.283 75.8108 291.321C75.4104 291.359 75.0099 291.321 74.6 291.254C74.2186 291.188 73.8182 291.102 73.4273 290.94C73.0936 290.806 72.7599 290.663 72.4071 290.558C72.0544 290.454 71.7016 290.396 71.3393 290.32C70.977 290.244 70.6243 290.196 70.262 290.139C69.833 290.063 69.4325 289.948 69.0512 289.805C68.6698 289.662 68.298 289.462 67.9452 289.224C67.6115 289.004 67.316 288.718 67.0014 288.413C66.7153 288.137 66.4484 287.86 66.1624 287.517C66.5819 287.546 66.9728 287.546 67.3827 287.574C67.8118 287.593 68.2217 287.593 68.6221 287.603C69.0512 287.612 69.4611 287.66 69.8616 287.66C70.2906 287.66 70.7101 287.66 71.1105 287.66C71.5395 287.651 71.959 287.641 72.3595 287.612C72.7885 287.584 73.1985 287.469 73.5894 287.422C74.0184 287.364 74.4283 287.317 74.8097 287.241C75.2387 287.155 75.6487 287.107 76.0301 287.002C76.4496 286.878 76.85 286.754 77.2027 286.602C77.6032 286.43 77.9369 286.173 78.261 285.953C78.6233 285.715 78.957 285.486 79.2335 285.2C79.5195 284.895 79.7388 284.581 79.9295 284.218C79.5195 284.361 79.1191 284.457 78.7091 284.581C78.2992 284.705 77.8797 284.848 77.4697 284.952C77.0597 285.057 76.6307 285.172 76.2112 285.267C75.7917 285.362 75.3531 285.391 74.9336 285.467C74.5142 285.543 74.0851 285.61 73.6561 285.667C73.2271 285.725 72.798 285.791 72.369 285.83C71.94 285.868 71.5109 285.925 71.0819 285.944C70.6529 285.963 70.2239 285.944 69.7853 285.944C69.3467 285.944 68.9177 285.963 68.4887 285.944C68.0596 285.925 67.6401 285.81 67.2016 285.772C66.763 285.734 66.3435 285.725 65.9145 285.658C65.4855 285.591 65.0755 285.505 64.656 285.429C64.6179 284.981 64.5797 284.533 64.5416 284.075C64.5035 283.618 64.4749 283.17 64.4367 282.712C64.3986 282.254 64.3128 281.816 64.2746 281.339C64.2365 280.891 64.1888 280.414 64.1412 279.947C64.5607 280.004 64.9897 280.033 65.3996 280.071C65.8096 280.109 66.2291 280.138 66.6391 280.157C67.049 280.176 67.4685 280.214 67.8785 280.214C68.2885 280.214 68.7079 280.262 69.1179 280.243C69.5279 280.224 69.9474 280.147 70.3573 280.119C70.7673 280.09 71.1868 280.1 71.5967 280.052C72.0067 280.004 72.4167 279.938 72.8266 279.871C73.2366 279.804 73.6466 279.766 74.0565 279.69C74.4665 279.613 74.8574 279.489 75.2673 279.404C75.6773 279.318 76.0777 279.261 76.4877 279.156C76.8691 279.06 77.2409 278.908 77.6032 278.812C77.9941 278.708 78.3564 278.584 78.69 278.422C79.0523 278.25 79.3479 278.031 79.5862 277.726C79.7865 277.468 79.9581 277.182 80.0343 276.801C80.0915 276.505 80.1106 276.153 80.082 275.752C80.4824 275.866 80.8352 276.029 81.1784 276.191C81.5502 276.362 81.9125 276.524 82.2272 276.744C82.5609 276.982 82.8564 277.239 83.1138 277.525C83.3712 277.811 83.5429 278.174 83.724 278.526C83.9051 278.879 84.0768 279.222 84.1626 279.613C84.2484 279.985 84.3151 280.376 84.3342 280.786C84.3437 281.158 84.2674 281.549 84.2198 281.968C84.1721 282.388 84.1435 282.798 84.0577 283.198C83.9719 283.599 83.8479 284.009 83.724 284.399C83.6001 284.79 83.4952 285.2 83.3331 285.582C83.171 285.963 83.0089 286.354 82.7992 286.707C82.5895 287.059 82.332 287.393 82.0746 287.717C81.8172 288.041 81.5407 288.347 81.2452 288.633C80.9496 288.919 80.635 289.176 80.2918 289.424C79.9485 289.672 79.6244 289.901 79.2621 290.11C78.8998 290.32 78.5756 290.558 78.1847 290.73L78.1752 290.711Z" fill="#FFD100"/>
<path d="M68.9653 38.0501C69.1655 38.4219 69.3943 38.7746 69.5564 39.1655C69.7185 39.5564 69.8234 39.9664 69.9282 40.3668C70.0331 40.7673 70.1666 41.1772 70.1857 41.6062C70.2047 42.0353 70.1094 42.4357 70.0426 42.8552C69.9759 43.2556 69.9473 43.6751 69.7852 44.0851C69.6518 44.4283 69.4611 44.7429 69.3467 45.0862C69.2323 45.4294 69.1751 45.7917 69.0797 46.1444C68.9844 46.4972 68.8604 46.8404 68.7556 47.1836C68.6507 47.5269 68.4886 47.8605 68.3647 48.2038C68.2121 48.6137 68.1454 49.0332 68.0977 49.4051C68.0405 49.8341 68.0405 50.2536 68.1454 50.6349C68.2503 51.0163 68.5267 51.3214 68.8128 51.6455C69.0606 51.922 69.3276 52.2176 69.7185 52.4559C70.1094 52.6943 70.4621 52.9708 70.71 53.3235C70.9579 53.6763 71.1486 54.0576 71.2153 54.5439C71.263 54.9252 71.2058 55.3638 71.1105 55.8596C70.71 56.0217 70.3096 56.1551 69.8996 56.3172C69.4897 56.4793 69.0988 56.6604 68.6984 56.832C68.2979 57.0037 67.8975 57.1848 67.5161 57.3755C67.1348 57.5662 66.7153 57.7378 66.3625 57.9761C66.0098 58.2145 65.657 58.491 65.3519 58.8056C65.0468 59.1202 64.7894 59.4634 64.5701 59.8543C64.3604 60.2071 64.2174 60.6266 64.0839 61.0651C63.96 61.456 63.9028 61.8755 63.8455 62.3427C63.7979 62.7431 63.7502 63.1817 63.7502 63.6584C63.4737 63.3247 63.2258 63.0196 63.0066 62.7527C62.7301 62.4094 62.4727 62.1425 62.2534 61.866C61.9864 61.5418 61.8053 61.2177 61.5669 60.9412C61.3 60.6361 61.0139 60.3406 60.747 60.0259C60.48 59.7113 60.2322 59.3872 59.9652 59.0725C59.6983 58.7579 59.3741 58.5005 59.0976 58.2049C58.8211 57.9094 58.5351 57.6138 58.23 57.3373C57.8868 57.0323 57.6008 56.6986 57.3434 56.3744C57.0573 56.0217 56.7809 55.6784 56.5806 55.3066C56.3709 54.9157 56.2183 54.4962 56.1039 54.0863C55.9895 53.6763 55.9895 53.2282 55.9609 52.7896C55.9323 52.3511 55.8561 51.922 55.9037 51.4835C55.9514 51.0449 56.0372 50.6254 56.1421 50.1868C56.2374 49.7864 56.3328 49.3765 56.4376 48.976C56.5425 48.5756 56.6664 48.1752 56.7809 47.7747C56.8953 47.3743 57.0001 46.9739 57.1241 46.5735C57.248 46.173 57.372 45.7821 57.5054 45.3912C57.6389 45.0004 57.7724 44.5999 57.9154 44.209C58.0584 43.8181 58.2014 43.4272 58.354 43.0459C58.5065 42.6645 58.6877 42.2832 58.8593 41.9018C59.0213 41.53 59.1834 41.1486 59.3932 40.7863C59.6029 40.424 59.8985 40.138 60.1368 39.8043C60.3752 39.4706 60.5945 39.1274 60.8709 38.8223C61.1474 38.5172 61.4525 38.2503 61.7576 37.9738C62.0627 37.6973 62.3678 37.4303 62.7015 37.192C63.0352 36.9536 63.3974 36.7725 63.7693 36.5818C64.1792 36.3625 64.5511 36.1623 64.9134 36.0479C65.3519 35.9049 65.7714 35.8096 66.1623 35.8096C66.5913 35.8096 67.0108 35.943 67.3827 36.1528C67.7163 36.3435 68.031 36.6295 68.3265 36.9822C68.5649 37.2778 68.7556 37.6496 68.9748 38.0596L68.9653 38.0501Z" fill="#FF8792"/>
<path d="M65.8763 81.5823C66.0766 82.0304 66.1242 82.0114 66.353 82.4404C66.5819 82.8694 66.6009 82.8599 66.8679 83.2699C67.1348 83.5273 67.3446 83.8133 67.5925 84.0421C67.8594 84.29 68.1264 84.5093 68.3743 84.7476C68.6317 84.9955 68.8986 85.2243 69.156 85.4532C69.4993 85.7678 69.8234 86.0633 70.0427 86.4066C70.2811 86.7784 70.3859 87.2074 70.5099 87.6174C70.6338 88.0273 70.7864 88.4373 70.8054 88.8854C70.8245 89.3049 70.8054 89.7434 70.7578 90.1915C70.7101 90.6396 70.5385 91.0782 70.5099 91.5263C70.4813 91.9744 70.4813 92.432 70.4527 92.8801C70.4241 93.3282 70.5003 93.7859 70.4813 94.234C70.4622 94.6821 70.4717 95.1397 70.4431 95.5878C70.4145 96.0454 70.3001 96.4935 70.2811 96.9512C70.262 97.4088 70.3478 97.876 70.2811 98.3241C70.2143 98.715 70.1476 99.1058 70.0522 99.4777C69.9569 99.8495 69.8139 100.24 69.6709 100.593C69.5279 100.946 69.28 101.27 69.0798 101.604C68.8796 101.937 68.6793 102.271 68.4124 102.567C68.1645 102.843 67.8308 103.062 67.5162 103.32C67.2206 103.549 66.887 103.739 66.5342 103.94C66.191 104.14 65.905 104.426 65.5617 104.636C65.2185 104.845 64.9039 105.074 64.5702 105.293C64.2365 105.513 63.8837 105.703 63.5596 105.923C63.2354 106.142 62.8541 106.294 62.5204 106.523C62.1867 106.752 61.853 106.962 61.5288 107.191C61.2047 107.419 60.9187 107.706 60.5945 107.934C60.2704 108.163 59.9271 108.363 59.603 108.592C59.2788 108.821 58.9737 109.078 58.6496 109.307C58.3254 109.536 58.0489 109.832 57.7248 110.06C57.4006 110.289 57.0669 110.509 56.7428 110.737C56.4186 110.966 56.0373 111.119 55.7131 111.347C55.4366 111.538 55.1601 111.729 54.8932 111.891C54.5976 112.072 54.3402 112.272 54.0733 112.434C53.9684 111.996 53.8254 111.586 53.7205 111.166C53.6156 110.747 53.4535 110.318 53.3487 109.898C53.2438 109.479 53.1866 109.021 53.0817 108.602C52.9768 108.182 52.9387 107.734 52.8434 107.305C52.748 106.876 52.6718 106.447 52.5955 106.018C52.5192 105.637 52.4143 105.255 52.4143 104.845C52.4143 104.473 52.3762 104.083 52.3953 103.654C52.4143 103.282 52.5383 102.862 52.5383 102.443C52.1855 102.328 51.5086 102.071 50.8412 101.918C50.4599 101.833 50.0976 101.737 49.7353 101.632C49.373 101.527 49.0107 101.384 48.6579 101.241C48.3052 101.098 47.9238 100.994 47.5901 100.812C47.2564 100.631 46.9704 100.364 46.6653 100.136C46.3602 99.9067 46.0266 99.716 45.7405 99.4395C45.4164 99.1154 45.1971 98.715 44.9683 98.3527C44.7204 97.9713 44.4916 97.5899 44.3486 97.18C44.2056 96.77 44.1388 96.3124 44.1007 95.8833C44.0626 95.4543 44.1007 94.9967 44.1674 94.5677C44.2342 94.1386 44.3772 93.7191 44.5583 93.3092C44.7395 92.8992 44.8729 92.4797 45.1494 92.1174C45.4259 91.7551 45.8073 91.5454 46.1696 91.2689C46.5033 91.0019 46.8369 90.7159 47.2469 90.5157C47.5711 90.3632 47.9524 90.0771 48.2766 90.1057C48.7628 90.1439 49.1728 90.1153 49.5637 90.0581C50.0308 89.9818 50.4694 89.9437 50.8222 89.7435C51.2035 89.5242 51.5467 89.2381 51.8232 88.9045C52.0997 88.5708 52.3285 88.1989 52.5287 87.808C52.729 87.4171 52.8338 86.9977 52.9959 86.5877C53.158 86.1777 53.3773 85.8059 53.5298 85.4055C53.6919 84.9955 53.8158 84.5951 54.0161 84.0993C54.4546 84.1947 54.8074 84.0993 55.1601 84.0612C55.5796 84.0135 55.9515 83.9372 56.2661 83.718C56.5807 83.4987 56.8286 83.1936 57.0479 82.8408C57.2385 82.5262 57.4388 82.1735 57.5722 81.7826C57.7057 81.3726 57.8583 80.9722 57.9917 80.5622C58.1252 80.1522 58.1824 79.7232 58.3159 79.3037C58.4494 78.8842 58.6305 78.4838 58.7545 78.0643C58.8784 77.6448 58.9261 77.2062 59.0595 76.7772C59.193 76.3482 59.4314 75.9764 59.5553 75.5569C59.6792 75.1374 59.7079 74.6893 59.8413 74.2602C59.9748 73.8312 60.1845 73.488 60.318 73.0685C60.6994 73.2592 61.0903 73.4117 61.5098 73.6215C61.9007 73.8217 62.3011 74.0505 62.7111 74.2602C63.121 74.47 63.4833 74.7369 63.8837 74.9658C64.1602 75.1183 64.4081 75.4424 64.4939 75.7571C64.5988 76.1384 64.6655 76.5293 64.7609 76.9202C64.8562 77.3111 65.085 77.6543 65.1804 78.0452C65.2757 78.4361 65.2948 78.8365 65.3901 79.2179C65.4855 79.5993 65.5999 79.9806 65.6952 80.3715C65.7905 80.7624 65.8001 81.1724 65.8954 81.5633L65.8763 81.5823Z" fill="#FF8792"/>
<path d="M60.2608 207.269C60.7661 207.269 61.2142 207.374 61.5765 207.555C62.0055 207.765 62.3202 208.079 62.4822 208.508C62.6253 208.88 62.6348 209.328 62.5394 209.843C62.4632 210.263 62.3964 210.673 62.3106 211.092C62.2248 211.512 62.1676 211.931 62.0818 212.341C61.996 212.751 61.9007 213.171 61.8053 213.581C61.71 213.991 61.6051 214.401 61.5002 214.81C61.3954 215.22 61.2524 215.621 61.1379 216.031C61.0235 216.441 60.9187 216.851 60.7947 217.251C60.6517 217.718 60.4515 218.128 60.2227 218.491C59.9748 218.891 59.6888 219.244 59.3456 219.53C59.0023 219.816 58.621 220.073 58.2015 220.264C57.782 220.455 57.3529 220.579 56.8953 220.664C56.4663 220.75 56.0087 220.76 55.532 220.769C55.0553 220.779 54.6358 220.788 54.2258 220.712C53.7777 220.626 53.3773 220.464 52.9959 220.283C52.6146 220.102 52.2523 219.844 51.9186 219.549C51.5849 219.253 51.337 218.929 51.0796 218.557C50.8412 218.214 50.5838 217.861 50.3931 217.442C50.2024 217.041 50.0785 216.631 49.9355 216.231C49.7925 215.831 49.6781 215.411 49.5732 214.992C49.4683 214.572 49.373 214.153 49.3158 213.724C49.2586 213.295 49.1918 212.866 49.1632 212.436C49.1346 212.007 49.1156 211.578 49.1156 211.14C49.1156 210.701 49.1251 210.282 49.1442 209.843C49.1632 209.405 49.1823 208.985 49.2109 208.556C49.2395 208.127 49.2872 207.717 49.3158 207.279C49.7257 207.279 50.1166 207.269 50.5171 207.269C50.9175 207.269 51.337 207.25 51.7374 207.25C52.1378 207.25 52.5573 207.288 52.9578 207.288C53.3582 207.288 53.7777 207.288 54.1781 207.288C54.5786 207.288 54.998 207.269 55.3985 207.269C55.7989 207.269 56.2184 207.288 56.6188 207.288C57.0193 207.288 57.4292 207.279 57.8392 207.279C58.2491 207.279 58.6496 207.279 59.0595 207.279C59.4695 207.279 59.8699 207.279 60.2704 207.279L60.2608 207.269Z" fill="#FFD100"/>
<path d="M40.6302 279.918C41.0211 280.071 41.4216 280.233 41.8125 280.433C41.5074 280.738 41.1641 280.986 40.84 281.215C40.4872 281.463 40.1345 281.663 39.7722 281.825C39.3908 281.997 38.9999 282.111 38.5995 282.207C38.1991 282.302 37.7891 282.388 37.3791 282.407C36.9692 282.426 36.5592 282.426 36.1397 282.407C35.7202 282.388 35.3198 282.34 34.9098 282.273C34.4999 282.207 34.0995 282.14 33.6895 282.064C33.4797 282.025 33.27 281.94 33.0507 281.882C32.6598 281.778 32.2689 281.654 31.9543 281.425C31.6397 281.196 31.4109 280.891 31.2869 280.462C31.1916 280.138 31.163 279.747 31.2392 279.27C31.6397 279.251 32.0401 279.213 32.431 279.194C32.8219 279.175 33.2223 279.194 33.6227 279.165C34.0232 279.137 34.4141 279.127 34.805 279.118C35.1959 279.108 35.5963 279.079 35.9872 279.089C36.3781 279.098 36.7785 279.127 37.1694 279.156C37.5603 279.184 37.9512 279.232 38.3421 279.289C38.733 279.346 39.1143 279.451 39.4957 279.556C39.8771 279.661 40.2489 279.766 40.6207 279.918H40.6302Z" fill="#FF8792"/>
<path d="M54.6167 115.094C54.8932 114.789 55.1888 114.503 55.4843 114.217C55.7799 113.931 56.1708 113.75 56.4854 113.493C56.8 113.235 57.0765 112.921 57.4006 112.673C57.7248 112.425 58.0204 112.139 58.354 111.9C58.6877 111.662 59.05 111.462 59.3837 111.243C59.7174 111.023 60.0511 110.766 60.3943 110.547C60.7375 110.327 61.0903 110.118 61.4335 109.898C61.7768 109.679 62.12 109.46 62.4727 109.25C62.692 109.116 63.0352 109.155 63.2927 109.088C63.245 109.469 63.2259 109.87 63.1782 110.261C63.1306 110.651 62.9971 111.023 62.9494 111.405C62.9018 111.786 62.8064 112.167 62.7492 112.558C62.692 112.949 62.7492 113.34 62.692 113.731C62.6348 114.122 62.5109 114.484 62.4537 114.875C62.3965 115.266 62.4155 115.657 62.3583 116.038C62.3011 116.467 62.2058 116.896 62.1486 117.325C62.0914 117.754 61.9579 118.174 61.9007 118.603C61.8435 119.032 61.9007 119.48 61.8435 119.909C61.7863 120.338 61.7005 120.767 61.6433 121.196C61.5861 121.625 61.5003 122.054 61.4526 122.483C61.4049 122.912 61.3191 123.341 61.2714 123.77C61.2238 124.199 61.2714 124.638 61.2142 125.076C61.157 125.515 61.0998 125.934 61.0617 126.363C61.0236 126.783 60.9473 127.202 60.9092 127.622C60.871 128.041 60.8424 128.461 60.8138 128.88C60.7852 129.3 60.7185 129.719 60.6899 130.139C60.6613 130.558 60.6708 130.978 60.6422 131.397C60.6136 131.817 60.6231 132.236 60.6041 132.656C60.585 133.075 60.6041 133.495 60.585 133.924C60.5659 134.353 60.4801 134.763 60.4611 135.182C60.442 135.602 60.4897 136.021 60.4706 136.441C60.4515 136.86 60.3943 137.28 60.3753 137.699C60.3562 138.119 60.3562 138.538 60.3371 138.958C60.318 139.377 60.1846 139.797 60.1655 140.216C60.1464 140.636 60.2322 141.065 60.2132 141.484C60.1941 141.904 60.0988 142.323 60.0797 142.743C60.0606 143.162 60.0797 143.591 60.0606 144.011C59.6983 144.125 59.3646 144.345 58.9833 144.478C58.6019 144.612 58.211 144.65 57.8297 144.707C57.4102 144.774 57.0002 144.898 56.5807 144.964C56.1612 145.031 55.7513 145.126 55.3318 145.203C54.9123 145.279 54.4832 145.269 54.0637 145.336C53.6442 145.403 53.2247 145.479 52.8148 145.555C52.4048 145.632 51.9949 145.794 51.5754 145.87C51.1559 145.946 50.7364 145.994 50.3169 146.07C49.8974 146.147 49.4779 146.194 49.0584 146.27C48.6389 146.347 48.2099 146.366 47.7999 146.442C47.3899 146.518 46.9704 146.623 46.5509 146.7C46.1315 146.776 45.731 146.938 45.3115 147.005C44.892 147.071 44.4725 147.129 44.053 147.205C43.6335 147.281 43.214 147.3 42.7946 147.376C42.3751 147.453 41.9556 147.51 41.5361 147.577C41.1166 147.643 40.678 147.739 40.2585 147.796C39.9725 147.262 40.0202 147.195 40.1346 146.604C40.5636 146.509 40.821 146.032 41.1356 145.26C41.2691 144.917 41.3644 144.573 41.4217 144.221C41.4884 143.801 41.5933 143.382 41.6695 142.962C41.7458 142.543 41.7935 142.114 41.8793 141.704C41.9651 141.294 42.1748 140.893 42.2702 140.483C42.3655 140.073 42.3751 139.635 42.4799 139.215C42.5848 138.796 42.7469 138.405 42.8518 137.995C42.9566 137.585 43.0234 137.156 43.1378 136.746C43.2522 136.336 43.4143 135.936 43.5287 135.526C43.6431 135.116 43.6717 134.677 43.7956 134.267C43.9196 133.857 44.0912 133.466 44.2151 133.056C44.3391 132.646 44.4725 132.246 44.606 131.836C44.7395 131.426 44.8158 131.007 44.9492 130.606C45.0827 130.206 45.2257 129.796 45.3592 129.395C45.4927 128.995 45.6548 128.594 45.7882 128.194C45.9217 127.794 46.1219 127.412 46.2649 127.002C46.4079 126.592 46.4461 126.163 46.5891 125.763C46.7321 125.362 46.98 125 47.1135 124.59C47.2469 124.18 47.3613 123.77 47.5043 123.37C47.6474 122.969 47.8094 122.569 47.9429 122.169C48.0764 121.768 48.105 121.33 48.248 120.92C48.3624 120.567 48.5054 120.205 48.6675 119.852C48.8296 119.499 48.9917 119.156 49.1919 118.832C49.3921 118.507 49.6114 118.183 49.8688 117.897C50.1262 117.611 50.4885 117.449 50.8031 117.23C51.1177 117.011 51.4038 116.772 51.7756 116.629C52.1188 116.505 52.5002 116.467 52.9006 116.42C53.2343 116.372 53.5394 116.124 53.854 115.876C54.14 115.647 54.3784 115.342 54.6072 115.094H54.6167Z" fill="#007257"/>
<path d="M37.4746 144.316C37.6271 144.593 37.7987 144.86 37.9894 145.117C38.1801 145.374 38.3708 145.632 38.59 145.861C39.1621 146.461 39.6483 146.709 40.0774 146.604C40.3729 147.129 40.411 147.195 40.2966 147.777C39.8771 147.844 39.4386 147.91 39.0095 147.968C38.5805 148.025 38.161 148.101 37.7415 148.158C37.322 148.215 36.893 148.292 36.4735 148.339C36.054 148.387 35.625 148.444 35.1959 148.492C34.7669 148.54 34.3474 148.606 33.9184 148.654C33.4894 148.702 33.0603 148.683 32.6313 148.721C32.2023 148.759 31.7828 148.797 31.3537 148.826C30.9247 148.854 30.4957 148.864 30.0762 148.883C29.6567 148.902 29.2277 148.959 28.7986 148.978C28.3696 148.997 27.9406 148.95 27.5115 148.959C27.0539 148.959 26.5867 149.026 26.1196 148.997C25.6524 148.969 25.2138 148.854 24.7467 148.797C24.2795 148.74 23.8314 148.721 23.3642 148.664C22.8971 148.606 22.4776 148.521 22.0104 148.473C21.9151 148.101 21.7435 147.796 21.6481 147.434C21.5528 147.071 21.5146 146.69 21.4193 146.328C21.324 145.965 21.2 145.603 21.1142 145.25C21.0284 144.898 21.0093 144.507 20.9426 144.144C20.8663 143.725 20.7615 143.315 20.6852 142.896C20.6089 142.476 20.5326 142.057 20.4564 141.637C20.3801 141.218 20.2752 140.808 20.2085 140.388C20.1418 139.969 20.1036 139.54 20.0464 139.12C19.9892 138.701 19.9892 138.272 19.932 137.852C19.8748 137.433 19.7318 137.023 19.6841 136.594C19.6364 136.165 19.6841 135.735 19.646 135.316C19.6078 134.896 19.4934 134.477 19.4648 134.048C19.4362 133.619 19.3886 133.199 19.3695 132.77C19.3504 132.341 19.3123 131.922 19.3028 131.493C19.2932 131.064 19.3028 130.644 19.3028 130.215C19.3028 129.786 19.2837 129.367 19.2837 128.938C19.2837 128.509 19.3409 128.089 19.3504 127.66C19.36 127.231 19.3504 126.812 19.3886 126.383C19.4267 125.954 19.5125 125.544 19.5506 125.115C19.5888 124.657 19.6078 124.209 19.7127 123.751C19.8176 123.294 19.9892 122.893 20.1227 122.445C20.2466 122.016 20.3992 121.587 20.5422 121.129C20.6757 120.71 20.7233 120.214 20.8473 119.747C21.2286 119.852 21.6481 119.947 22.0104 120.052C22.3918 120.157 22.735 120.357 23.0973 120.462C23.4596 120.567 23.86 120.615 24.2223 120.719C24.5846 120.824 24.966 120.939 25.3282 121.044C25.6905 121.148 26.0814 121.225 26.4437 121.33C26.806 121.434 27.1874 121.577 27.5592 121.682C27.6259 122.045 27.7022 122.416 27.7594 122.769C27.8166 123.122 27.8071 123.503 27.8738 123.856C27.9406 124.209 28.0931 124.543 28.2171 124.886C28.3601 125.277 28.4554 125.677 28.5984 126.068C28.7414 126.459 28.894 126.84 29.0274 127.231C29.1609 127.622 29.3135 128.003 29.4565 128.394C29.5995 128.785 29.6948 129.186 29.8378 129.577C29.9904 129.977 30.1715 130.358 30.3241 130.759C30.4766 131.159 30.6673 131.541 30.8294 131.931C30.9914 132.322 31.1631 132.713 31.3347 133.104C31.5063 133.495 31.6016 133.924 31.7923 134.305C31.9734 134.687 32.2118 135.049 32.412 135.43C32.6122 135.812 32.841 136.165 33.0413 136.536C33.2415 136.908 33.4226 137.299 33.6324 137.671C33.8421 138.043 34.0709 138.395 34.2807 138.767C34.4904 139.139 34.7002 139.511 34.9195 139.873C35.1387 140.236 35.358 140.607 35.5678 140.97C35.7775 141.332 35.9587 141.723 36.1779 142.095C36.3972 142.466 36.6356 142.81 36.8453 143.182C37.0551 143.553 37.2458 143.935 37.465 144.297L37.4746 144.316Z" fill="#007257"/>
<path d="M63.0829 68.4064C63.2449 68.8831 63.3784 69.3884 63.5405 69.8746C63.693 70.3322 63.9695 70.7517 63.9886 71.238C64.0077 71.6861 63.8837 72.1151 63.693 72.6109C63.2545 72.4869 62.8636 72.3439 62.4822 72.1246C62.1009 71.9053 61.7481 71.6289 61.3763 71.3714C61.0044 71.114 60.6994 70.7708 60.318 70.542C59.9366 70.3132 59.4409 70.3608 59.0023 70.2178C58.6019 70.0939 58.1538 69.8174 57.6675 69.7983C57.6389 70.2273 57.7057 70.7231 57.6866 71.1617C57.6675 71.6002 57.5531 72.0198 57.5341 72.4488C57.515 72.8778 57.5341 73.3164 57.5055 73.7359C57.4769 74.1554 57.5722 74.613 57.5245 75.0325C57.4769 75.452 57.4483 75.9001 57.372 76.3196C57.2957 76.7391 57.0002 77.1204 56.8953 77.5399C56.7904 77.9594 56.7809 78.398 56.6379 78.808C56.4758 79.2942 56.1421 79.7137 55.9038 80.1808C55.6654 80.648 55.5415 81.1914 55.2364 81.63C54.8073 81.5633 54.3497 81.4489 53.9398 81.2963C53.5012 81.1438 53.1198 81.0961 52.8338 81.1438C52.4524 81.2105 52.2046 81.5156 52.0139 81.8588C51.8613 82.1353 51.6325 82.469 51.5467 82.8694C51.4609 83.3175 51.3942 83.7656 51.2988 84.2137C51.2035 84.6618 51.2607 85.1385 51.1177 85.5771C50.9556 86.0633 50.7268 86.4924 50.4789 86.8737C50.212 87.2741 49.8115 87.4934 49.373 87.7413C49.0011 87.9511 48.6102 88.2275 48.0668 88.3038C47.6664 88.361 47.2374 88.3038 46.8751 88.4182C46.4937 88.5422 46.1505 88.771 45.8073 88.9521C45.464 89.1333 45.2543 89.5337 44.9492 89.7721C44.6441 90.0104 44.2055 90.1057 43.9291 90.3918C43.6526 90.6778 43.3856 90.9638 43.1473 91.2784C42.9089 91.5931 42.804 91.9935 42.5943 92.3272C42.3845 92.6609 42.2415 93.0231 42.0508 93.3664C41.8506 93.7382 41.4788 94.0433 41.3835 94.4246C41.2881 94.806 41.4883 95.2636 41.4979 95.6736C41.5074 96.0836 41.5646 96.4554 41.66 96.8653C41.7553 97.2562 41.7648 97.6662 41.946 98.0571C42.1271 98.448 42.4036 98.7721 42.6134 99.1154C42.8231 99.4586 42.9184 99.9353 43.1759 100.259C43.4333 100.584 43.8051 100.841 44.1007 101.127C44.3962 101.413 44.7013 101.718 45.0445 101.966C45.3878 102.214 45.7882 102.347 46.16 102.567C46.5318 102.786 46.9132 102.91 47.2946 103.082C47.6759 103.253 48.0382 103.444 48.4386 103.596C48.8391 103.749 49.249 103.901 49.659 104.025C49.659 104.426 49.659 104.855 49.7829 105.246C49.9069 105.637 50.1452 105.951 50.3073 106.323C50.4694 106.695 50.4884 107.114 50.6219 107.486C50.7554 107.858 50.8984 108.239 50.927 108.63C50.9556 109.021 50.8507 109.374 50.7077 109.784C50.5933 110.118 50.6219 110.509 50.3454 110.871C50.5075 111.271 50.517 111.662 50.6791 112.053C50.8412 112.444 50.9461 112.892 51.1082 113.273C51.2893 113.702 51.6039 114.084 51.7565 114.446C51.48 114.713 51.1272 114.923 50.8698 115.161C50.5933 115.419 50.3168 115.666 50.0594 115.905C49.7829 116.162 49.4778 116.362 49.2204 116.61C48.963 116.858 48.8581 117.268 48.6102 117.535C48.3052 117.859 47.9905 118.164 47.6664 118.412C47.3232 118.67 46.8846 118.727 46.4651 118.832C46.0933 118.927 45.6833 119.08 45.2161 118.994C44.8634 118.937 44.463 118.937 44.053 119.013C43.643 119.089 43.2045 119.175 42.9471 119.413C42.6038 119.728 42.2225 119.89 41.8697 120.062C41.4693 120.262 41.0975 120.433 40.6875 120.472C40.2775 120.51 39.8199 120.615 39.4004 120.519C38.8856 120.405 38.3612 120.166 37.8559 119.899C37.4936 119.709 37.2076 119.404 36.8644 119.289C36.483 119.156 36.0921 119.003 35.7203 118.994C35.3484 118.984 35.0148 119.308 34.6429 119.47C34.3188 119.604 33.966 119.709 33.6323 119.985C33.3272 120.233 33.0412 120.538 32.7171 120.653C32.3643 120.777 31.9543 120.758 31.5921 120.758C31.2298 120.758 30.8675 120.586 30.5052 120.529C30.1429 120.472 29.7615 120.472 29.4088 120.395C29.0179 120.3 28.646 120.147 28.2647 120.052C27.8833 119.957 27.4829 119.88 27.1015 119.785C26.7202 119.69 26.3484 119.509 25.967 119.413C25.5856 119.318 25.1661 119.337 24.7848 119.242C24.4034 119.146 24.0221 119.013 23.6407 118.908C23.2593 118.803 22.8875 118.651 22.5061 118.536C22.1248 118.422 21.7434 118.326 21.3621 118.193C20.9807 118.059 20.5517 118.088 20.1799 117.935C20.0368 117.878 19.9034 117.773 19.7508 117.716C19.3885 117.554 19.0167 117.392 18.6639 117.201C18.3112 117.011 18.0252 116.725 17.6819 116.515C17.3387 116.305 16.9478 116.191 16.6141 115.981C16.2804 115.771 16.004 115.466 15.6703 115.247C15.3366 115.028 15.0792 114.703 14.7455 114.494C14.4118 114.284 14.04 114.112 13.6967 113.912C13.3344 113.693 12.934 113.474 12.5622 113.254C12.1904 113.035 11.7518 112.902 11.3323 112.854C10.8461 112.787 10.4838 112.482 10.1119 112.301C9.69245 112.091 9.19668 111.996 8.88206 111.662C8.56744 111.328 8.39582 110.89 8.13841 110.489C7.90959 110.127 7.6331 109.784 7.44242 109.412C7.25174 109.04 7.14687 108.602 7.00386 108.211C6.86085 107.82 6.61297 107.439 6.50809 107.029C6.40322 106.619 6.35555 106.18 6.27928 105.77C6.203 105.36 6.30788 104.912 6.26021 104.483C6.21254 104.054 6.203 103.644 6.18394 103.215C6.16487 102.786 6.10766 102.376 6.1172 101.947C6.12673 101.518 6.01232 101.098 6.03139 100.669C6.05046 100.24 6.13627 99.8209 6.16487 99.4014C6.19347 98.9628 6.26974 98.5433 6.38415 97.9522C5.93605 97.8569 5.58329 97.6757 5.221 97.5327C4.80151 97.3707 4.37248 97.2753 4.04832 97.056C3.68603 96.8082 3.30467 96.5603 3.04725 96.2456C2.78983 95.931 2.61822 95.4925 2.43707 95.1111C2.25593 94.7297 2.15105 94.3198 2.03665 93.9098C1.92224 93.4999 1.95084 93.0804 1.89364 92.6609C1.83643 92.2414 1.60762 91.8505 1.57901 91.431C1.55041 91.0115 1.47414 90.592 1.46461 90.1725C1.44554 89.7625 1.59808 89.3526 1.59808 88.9426C1.59808 88.5326 1.45507 88.1227 1.47414 87.7127C1.49321 87.3027 1.55041 86.9023 1.57901 86.4924C1.60762 86.0824 1.71249 85.682 1.74109 85.2815C1.76969 84.8811 1.76969 84.4711 1.80783 84.0612C1.84597 83.6512 1.76969 83.2413 1.80783 82.8313C1.84597 82.4213 2.02711 82.04 2.06525 81.63C2.10338 81.2201 2.21779 80.8196 2.25593 80.4097C2.29406 79.9997 2.21779 79.5897 2.25593 79.1798C1.81736 79.0654 1.436 78.9128 1.20719 78.6459C0.978371 78.3789 0.978371 77.9404 0.921167 77.5209C0.873497 77.1776 0.682817 76.7867 0.730487 76.3577C0.778157 75.9287 0.987905 75.5283 1.05464 75.1183C1.12138 74.7083 1.25486 74.2984 1.34066 73.8884C1.42647 73.4784 1.44554 73.0399 1.55995 72.6395C1.67435 72.239 1.8555 71.8481 1.99851 71.4572C2.14152 71.0663 2.09385 70.5801 2.26546 70.1988C2.43707 69.8174 2.71356 69.4646 2.90424 69.0928C3.09492 68.721 3.37141 68.3873 3.59069 68.025C3.80997 67.6627 3.99112 67.2718 4.239 66.9286C4.48688 66.5854 4.76337 66.2612 5.03986 65.9466C5.31634 65.632 5.50702 65.2315 5.81211 64.9264C6.1172 64.6214 6.52716 64.4498 6.85132 64.1637C7.1564 63.8968 7.5473 63.7252 7.85239 63.4582C8.15747 63.1913 8.44349 62.8957 8.74858 62.6383C9.05367 62.3809 9.21575 61.9328 9.53037 61.6754C9.84499 61.4179 10.274 61.3035 10.5886 61.0461C10.9033 60.7887 11.0939 60.3787 11.4086 60.1213C11.7232 59.8639 12.0473 59.616 12.362 59.3586C12.6766 59.1012 13.077 58.9486 13.3916 58.6912C13.7063 58.4338 13.9446 58.0906 14.2592 57.8332C14.5739 57.5757 14.9075 57.3374 15.2222 57.0704C15.2222 57.0704 15.3366 56.9179 15.2603 56.7749C15.041 56.3458 14.8789 55.9454 14.7455 55.5927C14.5643 55.116 14.5739 54.7155 14.5739 54.3532C14.5739 53.9051 14.5834 53.5047 14.898 53.1806C15.1459 52.9231 15.5463 52.7897 16.004 52.5609C16.3376 52.3988 16.6523 52.0365 17.1099 51.8744C17.5008 51.7314 17.8917 51.617 18.2826 51.5121C18.6735 51.4072 19.112 51.4835 19.5125 51.4168C19.9129 51.35 20.3038 51.188 20.7042 51.1594C21.1046 51.1308 21.5146 51.2452 21.9246 51.2642C22.325 51.2833 22.7254 51.2642 23.1259 51.331C23.5263 51.3977 23.879 51.5693 24.2699 51.6837C24.6608 51.7981 25.0899 51.7505 25.4712 51.903C25.7763 52.0365 26.0909 52.1032 26.4342 52.2081C26.7297 52.3034 27.0634 52.6371 27.4162 52.7515C27.6164 52.3988 27.8738 52.0174 28.1026 51.7028C28.3314 51.3882 28.5126 51.0163 28.7795 50.7208C29.0465 50.4252 29.3039 50.1201 29.5994 49.8532C29.895 49.5862 30.181 49.3002 30.4956 49.0714C30.8103 48.8426 31.163 48.6328 31.5062 48.4326C31.8495 48.2324 32.2213 48.0989 32.5836 47.9273C32.9459 47.7557 33.2986 47.6032 33.6705 47.4506C34.0423 47.2981 34.3664 47.0597 34.7478 46.9263C35.1292 46.7928 35.501 46.6879 35.8824 46.564C36.2637 46.44 36.6355 46.3065 37.0169 46.1921C37.3983 46.0777 37.8368 45.9347 38.2277 45.8298C38.2659 46.2684 38.3707 46.6498 38.5137 46.9358C38.6853 47.2981 38.9428 47.4792 39.2479 47.6604C39.5529 47.8415 39.8199 48.0703 40.2203 48.1466C40.554 48.2133 40.9258 48.2515 41.3263 48.2801C41.7458 48.3182 42.1557 48.4136 42.5752 48.4708C42.9947 48.528 43.4238 48.5089 43.8337 48.5947C44.2437 48.6805 44.6155 48.9189 45.0255 49.0333C45.4354 49.1477 45.8835 49.0809 46.284 49.224C46.6844 49.367 47.0181 49.6625 47.409 49.8151C47.7999 49.9676 48.2098 50.0725 48.5912 50.2536C48.9725 50.4348 49.2776 50.7303 49.6495 50.9401C50.0213 51.1498 50.5075 51.1498 50.8603 51.3786C51.213 51.6074 51.4609 51.9793 51.8041 52.2367C52.1474 52.4941 52.5097 52.6943 52.8338 52.9613C53.1484 53.2282 53.301 53.5905 53.5012 53.867C53.7491 54.1912 53.9398 54.4486 53.9398 54.8204C53.9398 55.1446 53.8635 55.4973 53.6251 55.8787C53.9398 56.1456 54.3497 56.3363 54.6548 56.6033C54.9599 56.8702 55.2268 57.2039 55.5319 57.4709C55.837 57.7378 56.0372 58.1287 56.3328 58.4147C56.6283 58.7007 57.105 58.8056 57.3911 59.1012C57.6771 59.3967 57.7915 59.8544 58.068 60.1594C58.3445 60.4645 58.7544 60.6552 59.0118 60.9698C59.2693 61.2845 59.5553 61.5895 59.8032 61.9137C60.051 62.2379 60.318 62.562 60.5564 62.8957C60.7947 63.2294 60.9377 63.6298 61.157 63.9826C61.3763 64.3353 61.6051 64.669 61.8053 65.0313C62.0055 65.3936 62.0913 65.8036 62.2725 66.1754C62.4536 66.5472 62.6729 66.8904 62.8254 67.2813C62.978 67.6722 63.0161 68.0822 63.1496 68.4731L63.0829 68.4064Z" fill="#FFD100"/>
<path d="M39.8866 121.52C40.3824 121.663 40.84 121.816 41.2881 121.825C41.7744 121.825 42.2511 121.73 42.7087 121.578C43.1663 121.425 43.5668 121.206 43.9958 120.939C44.3104 120.748 44.6632 120.605 45.1303 120.481C45.464 120.386 45.8454 120.319 46.303 120.167C46.1791 120.567 46.0647 120.958 45.9407 121.349C45.8168 121.74 45.6833 122.14 45.5594 122.54C45.4354 122.941 45.3401 123.341 45.2161 123.742C45.0922 124.142 45.0255 124.552 44.9015 124.953C44.7776 125.353 44.606 125.734 44.482 126.135C44.3581 126.535 44.2151 126.926 44.1007 127.327C43.9862 127.727 43.9195 128.137 43.7956 128.537C43.6716 128.938 43.5095 129.319 43.3951 129.72C43.2807 130.12 43.1663 130.52 43.0424 130.921C42.9184 131.321 42.7945 131.712 42.6706 132.113C42.5466 132.513 42.4799 132.923 42.3655 133.323C42.2511 133.724 42.1176 134.115 42.0032 134.515C41.8888 134.916 41.7744 135.316 41.6504 135.707C41.5265 136.098 41.4121 136.498 41.2881 136.899C41.1642 137.299 41.0116 137.68 40.8877 138.081C40.7638 138.481 40.6493 138.872 40.5254 139.273C40.4015 139.673 40.3443 140.083 40.2203 140.483C40.0964 140.884 39.9057 141.256 39.7818 141.656C39.6578 142.057 39.572 142.457 39.4481 142.857C39.3241 143.258 39.2192 143.677 39.0953 144.078C38.8951 143.725 38.6949 143.363 38.4851 143.01C38.2754 142.657 38.0847 142.304 37.8845 141.961C37.6843 141.618 37.4841 141.265 37.2743 140.913C37.0646 140.56 36.8262 140.236 36.626 139.892C36.4258 139.549 36.2542 139.177 36.054 138.825C35.8537 138.472 35.6821 138.11 35.4819 137.757C35.2817 137.404 35.0338 137.08 34.8431 136.727C34.6525 136.374 34.5285 135.983 34.3378 135.631C34.1472 135.278 33.9088 134.944 33.7277 134.582C33.5465 134.22 33.4035 133.838 33.2319 133.486C33.0603 133.133 32.8505 132.78 32.6789 132.408C32.5073 132.036 32.3452 131.674 32.1927 131.302C32.0401 130.93 31.8781 130.559 31.7351 130.187C31.592 129.815 31.449 129.434 31.306 129.062C31.163 128.661 31.0772 128.242 30.9437 127.832C30.8103 127.422 30.6196 127.041 30.5052 126.631C30.3908 126.221 30.3431 125.792 30.2382 125.382C30.1333 124.972 30.0475 124.552 29.9617 124.133C29.8759 123.713 29.8187 123.322 29.752 122.903C30.1524 122.779 30.4956 122.607 30.877 122.483C31.2584 122.359 31.6683 122.235 32.0401 122.102C32.412 121.968 32.8124 121.816 33.1938 121.692C33.5751 121.568 33.9755 121.454 34.3664 121.358C34.7573 121.263 35.1673 121.206 35.5677 121.149C35.9586 121.091 36.359 120.986 36.769 120.996C37.179 121.006 37.5699 121.12 37.9703 121.177C38.3707 121.234 38.7711 121.282 39.162 121.377C39.4004 121.435 39.6387 121.463 39.858 121.53L39.8866 121.52Z" fill="#E33500"/>
<path d="M48.3147 284.495C48.3624 284.933 48.391 285.343 48.3719 285.734C48.3433 286.163 48.2671 286.573 48.1717 286.954C48.0668 287.364 47.9334 287.755 47.7617 288.127C47.5901 288.499 47.3518 288.832 47.1134 289.185C46.8751 289.538 46.6177 289.834 46.3507 290.148C46.0933 290.453 45.8454 290.787 45.5594 291.102C45.2734 291.407 44.9969 291.721 44.7013 291.988C44.4058 292.255 44.034 292.484 43.7193 292.732C43.4047 292.98 43.0901 293.275 42.7469 293.495C42.4036 293.714 42.0032 293.857 41.6314 294.029C41.2596 294.2 40.8782 294.353 40.4968 294.486C40.1155 294.62 39.7151 294.744 39.3146 294.82C38.9142 294.896 38.5042 294.953 38.0943 294.982C37.6843 295.011 37.2839 295.001 36.8644 294.982C36.4544 294.963 36.0349 294.915 35.6154 294.839C35.1959 294.763 34.7955 294.696 34.3855 294.581C33.9756 294.467 33.5942 294.343 33.1938 294.191C32.822 294.048 32.4883 293.866 32.1737 293.657C31.859 293.447 31.5349 293.218 31.287 292.923C31.0391 292.627 30.877 292.284 30.7436 291.912C30.6578 291.645 30.5624 291.378 30.5243 291.073C30.5243 291.073 30.5243 291.092 30.5243 291.102C30.5529 291.13 30.591 291.102 30.6196 291.13C30.6196 291.13 30.6196 291.168 30.6196 291.159C30.6196 291.14 30.6196 291.111 30.6196 291.092C30.9914 291.245 31.3537 291.435 31.7351 291.55C32.1165 291.664 32.5264 291.712 32.9173 291.798C33.3082 291.883 33.6991 291.998 34.09 292.055C34.4809 292.112 34.8908 292.141 35.2913 292.169C35.6917 292.198 36.0921 292.236 36.4926 292.246C36.893 292.255 37.2934 292.217 37.6938 292.217C38.0943 292.217 38.4947 292.255 38.8951 292.236C39.2956 292.217 39.696 292.217 40.0964 292.198C40.4778 292.179 40.8496 292.103 41.2024 292.017C41.5551 291.931 41.9174 291.807 42.2225 291.569C42.4894 291.359 42.7373 291.083 42.9375 290.701C43.0901 290.415 43.1664 290.062 43.2617 289.643C42.8517 289.786 42.4704 289.919 42.0604 290.034C41.6505 290.148 41.2214 290.205 40.8115 290.291C40.4015 290.377 39.9725 290.434 39.553 290.491C39.1335 290.549 38.7044 290.577 38.285 290.606C37.8655 290.634 37.4364 290.682 37.0074 290.673C36.5784 290.663 36.1589 290.615 35.7394 290.568C35.3199 290.52 34.9004 290.453 34.4809 290.377C34.0614 290.301 33.6514 290.205 33.2415 290.1C32.8315 289.996 32.4311 289.862 32.0211 289.729C31.6112 289.595 31.2012 289.471 30.7912 289.319C30.7054 290.101 30.6673 290.625 30.6005 291.13C30.591 291.13 30.5624 291.121 30.5433 291.111C30.3622 290.72 30.1811 290.329 30.0285 289.938C29.876 289.548 29.752 289.128 29.6281 288.718C29.5041 288.308 29.3611 287.898 29.2658 287.488C29.1704 287.078 29.1323 286.64 29.0942 286.22C29.056 285.801 29.037 285.372 29.037 284.943C29.037 284.514 29.0179 284.085 29.0751 283.656C29.1323 283.226 29.2753 282.855 29.3897 282.426C29.7616 282.521 30.1048 282.588 30.4671 282.683C30.8294 282.778 31.1917 282.912 31.5444 283.007C31.8972 283.103 32.2785 283.188 32.6313 283.284C33.0603 283.408 33.4703 283.56 33.8993 283.665C34.3283 283.77 34.7669 283.846 35.1959 283.942C35.625 284.027 36.0445 284.046 36.464 284.065C36.8835 284.085 37.322 284.142 37.7415 284.113C38.161 284.085 38.59 283.999 39 283.913C39.41 283.827 39.8199 283.694 40.2299 283.57C40.6398 283.446 41.0212 283.274 41.4216 283.122C41.8221 282.969 42.2225 282.826 42.6039 282.645C42.9947 282.464 43.338 282.159 43.6621 281.825C43.9863 281.491 44.2818 281.167 44.5965 280.862C44.8825 280.586 45.1494 280.28 45.4545 279.956C45.7215 279.68 45.9884 279.337 46.303 279.003C46.5223 279.356 46.713 279.727 46.8942 280.061C47.0848 280.423 47.2374 280.776 47.3899 281.129C47.5425 281.482 47.7236 281.844 47.838 282.216C47.9524 282.588 48.0096 282.969 48.0859 283.36C48.1622 283.751 48.2385 284.113 48.2766 284.523L48.3147 284.495Z" fill="#FFD100"/>
<path d="M26.4246 208.451C26.5295 208.842 26.6344 209.214 26.6916 209.595C26.7488 209.977 26.7774 210.387 26.7869 210.778C26.7964 211.168 26.7869 211.569 26.7583 211.96C26.7297 212.351 26.6534 212.742 26.5676 213.132C26.4818 213.523 26.3865 213.905 26.2625 214.276C26.1386 214.648 26.0242 215.03 25.8716 215.392C25.7191 215.754 25.538 216.107 25.3473 216.46C25.1566 216.813 24.9564 217.146 24.7466 217.489C24.5178 217.842 24.2509 218.128 23.9648 218.376C23.6598 218.643 23.3165 218.843 22.9638 218.986C22.611 219.129 22.2106 219.215 21.8197 219.225C21.4288 219.234 21.0379 219.187 20.6566 219.072C20.2943 218.967 19.932 218.805 19.5887 218.586C19.2646 218.386 18.95 218.147 18.6639 217.852C18.3684 217.547 18.111 217.213 17.8536 216.87C17.5961 216.527 17.3673 216.183 17.1576 215.811C16.9478 215.44 16.7953 215.049 16.6427 214.658C16.4902 214.267 16.3376 213.867 16.2328 213.457C16.1279 213.047 16.0421 212.637 15.9944 212.208C15.9468 211.779 15.9182 211.369 15.9182 210.94C15.9182 210.511 15.9182 210.101 15.9563 209.672C15.9944 209.243 16.0707 208.842 16.1565 208.423C16.5855 208.423 17.0146 208.423 17.4436 208.423C17.8726 208.423 18.3017 208.423 18.7307 208.423C19.1597 208.423 19.5887 208.423 20.0178 208.423C20.4468 208.423 20.8758 208.413 21.3049 208.413C21.7339 208.413 22.1629 208.413 22.5824 208.413C23.0019 208.413 23.4405 208.413 23.86 208.413C24.2795 208.413 24.7085 208.432 25.1375 208.432C25.5666 208.432 25.9861 208.432 26.4151 208.432L26.4246 208.451Z" fill="#FFD100"/>
<path d="M17.0051 152.334C17.0337 152.754 17.0623 153.164 17.0623 153.583C17.0623 154.003 17.0623 154.422 17.0241 154.832C16.986 155.242 16.9765 155.671 16.9193 156.081C16.8621 156.491 16.7572 156.901 16.6809 157.311C16.6046 157.721 16.4044 158.102 16.3091 158.503C16.2137 158.903 16.2233 159.342 16.0993 159.742C15.9754 160.143 15.6989 160.486 15.5559 160.877C15.4129 161.268 15.2699 161.649 15.1173 162.04C14.9648 162.431 14.8313 162.812 14.6692 163.203C14.4881 163.622 14.3927 164.032 14.1925 164.385C13.9828 164.776 13.6777 165.081 13.4298 165.415C13.1819 165.748 12.9531 166.12 12.6576 166.425C12.362 166.731 12.0474 166.988 11.6946 167.255C11.38 167.503 11.0272 167.77 10.6459 168.008C10.4552 167.646 10.2455 167.264 10.0834 166.902C9.9213 166.54 9.73062 166.158 9.58761 165.787C9.4446 165.415 9.28252 165.024 9.15858 164.643C9.03464 164.261 9.01557 163.832 8.92023 163.441C8.82489 163.05 8.65328 162.669 8.57701 162.269C8.50073 161.868 8.44353 161.468 8.40539 161.058C8.36726 160.648 8.33866 160.247 8.32912 159.837C8.31959 159.427 8.39586 159.027 8.41493 158.617C8.434 158.217 8.41493 157.816 8.45306 157.416C8.4912 157.015 8.61514 156.624 8.66281 156.234C8.71048 155.843 8.66281 155.423 8.72002 155.032C8.77722 154.641 8.9107 154.25 8.95837 153.85C9.00604 153.45 8.9393 153.04 8.9679 152.649C8.9965 152.277 9.12044 151.905 9.15858 151.524C9.19672 151.142 9.19672 150.761 9.22532 150.389C9.25392 150.017 9.31112 149.636 9.32066 149.255C9.33019 148.873 9.32066 148.492 9.29206 148.12C9.26345 147.748 9.14905 147.376 9.09184 147.005C8.98697 146.375 9.03464 145.756 8.97743 145.146C8.9393 144.726 8.95837 144.307 8.94883 143.887C8.9393 143.468 8.90116 143.048 8.9107 142.629C8.92023 142.209 8.9393 141.79 8.97743 141.37C9.01557 140.951 9.00604 140.522 9.06324 140.102C9.12044 139.683 9.19672 139.273 9.27299 138.853C9.34926 138.434 9.39693 138.014 9.48274 137.604C9.56854 137.194 9.81643 136.822 9.93083 136.412C10.0452 136.002 10.112 135.592 10.2359 135.182C10.3599 134.773 10.4171 134.343 10.541 133.934C10.665 133.524 10.7603 133.104 10.8938 132.704C11.0272 132.303 11.1703 131.893 11.3228 131.493C11.4753 131.092 11.647 130.702 11.809 130.301C11.9711 129.901 12.2571 129.567 12.4287 129.176C12.6004 128.785 12.629 128.328 12.8196 127.946C13.0103 127.565 13.201 127.174 13.3917 126.793C13.5824 126.411 13.8874 126.087 14.0877 125.715C14.2879 125.343 14.4023 124.914 14.6216 124.543C14.8408 124.171 15.1745 123.875 15.3938 123.513C15.6131 123.151 15.737 122.722 15.9754 122.359C16.2137 121.997 16.5284 121.701 16.7667 121.349C17.0051 120.996 17.2911 120.681 17.5485 120.338C17.7201 120.1 17.9585 119.919 18.3398 119.652C18.5782 119.49 18.8261 119.27 19.1597 119.013C19.0358 119.413 19.0072 119.823 18.9023 120.224C18.7975 120.624 18.5877 121.005 18.4924 121.415C18.397 121.825 18.4256 122.254 18.3398 122.664C18.254 123.074 18.1205 123.475 18.0633 123.885C18.0061 124.295 17.8345 124.695 17.7773 125.115C17.7201 125.534 17.7582 125.954 17.7201 126.373C17.682 126.793 17.682 127.212 17.6534 127.622C17.6248 128.032 17.6248 128.451 17.6152 128.871C17.6057 129.29 17.5962 129.7 17.5866 130.12C17.5771 130.539 17.4913 130.959 17.5008 131.369C17.5104 131.779 17.5485 132.208 17.5676 132.618C17.5866 133.028 17.539 133.457 17.5676 133.876C17.5962 134.296 17.7392 134.696 17.7773 135.116C17.8155 135.535 17.7773 135.955 17.8155 136.365C17.8536 136.775 17.9108 137.194 17.9585 137.604C18.0061 138.014 17.9966 138.443 18.0443 138.853C18.0919 139.263 18.1682 139.683 18.2254 140.092C18.2826 140.502 18.4733 140.893 18.54 141.313C18.6068 141.732 18.664 142.133 18.7307 142.552C18.7975 142.972 18.8737 143.372 18.95 143.782C19.0263 144.192 19.0072 144.621 19.0835 145.031C19.1597 145.441 19.217 145.851 19.2932 146.271C19.3695 146.69 19.4553 147.071 19.5316 147.481C19.1311 147.643 18.7975 147.834 18.5114 148.063C18.1873 148.32 17.9108 148.616 17.701 148.94C17.4913 149.264 17.4246 149.665 17.3102 150.056C17.2053 150.427 17.0813 150.79 17.0432 151.209C17.0146 151.59 16.9955 151.991 17.0241 152.401L17.0051 152.334Z" fill="#E33500"/>
<path d="M77.0788 22.6718C77.2027 21.9948 77.1646 22.0521 77.3362 21.3179C77.441 20.8794 77.5936 20.4122 77.7366 19.9927C77.9463 19.3825 78.1561 18.8963 78.404 18.8391C78.7949 18.7438 78.8902 18.1431 79.0332 17.5139C79.1572 16.9895 79.2906 16.4175 79.6148 16.0933C79.939 15.7692 80.3298 15.4068 80.6921 15.0827C81.0926 14.7109 81.5121 14.4439 81.9506 14.3772C82.1699 14.3486 82.5894 14.3772 83.1138 14.3867C83.4665 14.3962 83.867 14.3676 84.2865 14.3867C84.6678 14.4058 85.0682 14.4725 85.4591 14.4821C85.85 14.4916 86.2695 14.4439 86.6318 14.4439C87.0895 14.4344 87.4803 14.3676 87.7854 14.3009C88.1191 14.2342 88.5958 14.2628 89.1297 14.3486C89.5302 14.4153 89.9783 14.5297 90.4359 14.6537C90.8649 14.7681 91.2749 14.9969 91.6944 15.1399C92.1425 15.2925 92.6096 15.3592 92.991 15.4927C93.5249 15.6833 93.9635 15.8645 94.24 15.9694C94.4592 16.0552 94.8406 16.3316 95.3745 16.6367C95.7082 16.8274 96.0896 17.0562 96.4995 17.3041C96.8523 17.5234 97.2718 17.695 97.6531 17.9334C98.0345 18.1717 98.3873 18.4196 98.7591 18.6484C99.1309 18.8772 99.5123 19.1251 99.865 19.3539C100.265 19.6114 100.618 19.8974 100.942 20.1071C101.476 20.4599 101.877 20.7268 102.029 20.8412C102.239 21.0033 102.563 21.3275 102.945 21.7088C103.221 21.9853 103.526 22.2904 103.803 22.6336C104.079 22.9769 104.308 23.3296 104.499 23.6824C104.737 24.1019 104.909 24.4832 104.909 24.8455C104.909 25.2078 104.851 25.6654 104.718 26.1517C104.603 26.5616 104.47 27.0002 104.317 27.4292C104.165 27.8583 103.984 28.2777 103.831 28.6686C103.65 29.1549 103.517 29.603 103.431 29.9271C103.316 30.3657 103.135 30.6327 103.021 30.8329C102.821 31.1761 102.62 31.2905 102.22 31.2905C102.086 31.2905 101.619 31.2428 100.942 31.1189C100.58 31.0522 100.142 30.9759 99.6743 30.8805C99.2739 30.8043 98.8544 30.6899 98.4159 30.5945C98.0059 30.5087 97.5959 30.3466 97.1669 30.2513C96.7379 30.156 96.3279 30.0606 95.9084 29.9557C95.4889 29.8509 95.0408 29.8413 94.6309 29.7269C94.2018 29.6125 93.8014 29.4218 93.4105 29.2979C92.9624 29.1644 92.5429 29.0309 92.1806 28.8975C91.6753 28.7163 91.2749 28.5447 91.0175 28.3731C90.6552 28.1347 90.2738 27.925 89.8925 27.7438C89.5111 27.5627 89.0916 27.4292 88.6816 27.2958C88.2717 27.1623 87.8617 27.0383 87.4422 26.9525C87.0227 26.8667 86.5937 26.8381 86.1647 26.8191C85.7356 26.8 85.3066 26.8191 84.8776 26.8763C84.5534 26.9144 84.1339 26.9239 83.6667 26.8763C83.2949 26.8381 82.8945 26.7523 82.475 26.657C82.0936 26.5712 81.7123 26.4186 81.3214 26.2947C80.9305 26.1707 80.5301 26.1135 80.1582 25.961C79.7864 25.8084 79.4432 25.551 79.1 25.3603C78.7281 25.1506 78.3944 24.9313 78.1084 24.693C77.7747 24.4165 77.4982 24.1305 77.3171 23.8063C77.1169 23.444 77.0311 23.0722 77.1074 22.6622L77.0788 22.6718Z" fill="#FFD100"/>
<path d="M84.9634 5.42472C84.7441 4.90035 85.1541 4.89081 85.3638 4.35691C85.5736 3.823 85.5545 3.82301 85.7642 3.2891C85.974 2.7552 85.974 2.7552 86.1837 2.23083C86.3935 1.70646 86.4221 1.70646 86.6318 1.17255C86.8416 0.638648 86.527 0.34309 87.0418 0.0952055C87.6138 -0.181281 87.671 0.219152 88.2908 0.352628C88.9105 0.486104 88.9009 0.524247 89.5206 0.657723C90.1404 0.791199 90.1499 0.743525 90.7696 0.877001C91.3893 1.01048 91.3798 1.05815 91.9995 1.19162C92.6192 1.3251 92.6287 1.30603 93.2484 1.4395C93.8682 1.57298 93.8777 1.54438 94.4974 1.67785C95.1171 1.81133 95.1266 1.79227 95.7463 1.92575C96.3661 2.05922 96.3661 2.05922 96.9858 2.1927C97.6055 2.32617 97.5959 2.38337 98.2157 2.51685C98.8354 2.65033 98.8354 2.65033 99.4551 2.77427C100.075 2.89821 100.084 2.87915 100.704 3.01262C101.324 3.1461 101.324 3.1461 101.943 3.27957C102.563 3.41305 102.563 3.41305 103.192 3.54652C103.822 3.68 103.822 3.66093 104.441 3.7944C105.061 3.92788 105.061 3.93742 105.681 4.0709C106.3 4.20437 106.31 4.17577 106.93 4.30925C107.549 4.44272 107.549 4.48085 108.169 4.61433C108.789 4.7478 108.903 4.50946 109.428 4.87175C109.952 5.23404 109.304 5.40564 109.132 6.15883C109.046 6.53066 108.922 6.95969 108.817 7.41733C108.722 7.82729 108.608 8.24678 108.512 8.67581C108.417 9.10484 108.331 9.53387 108.236 9.94383C108.121 10.4015 108.055 10.84 107.959 11.2119C107.807 11.8125 107.626 12.2511 107.549 12.4417C107.464 12.6515 107.035 12.7373 106.386 12.661C106.024 12.6134 105.605 12.4703 105.147 12.375C104.746 12.2892 104.327 12.2129 103.907 12.1081C103.488 12.0032 103.078 11.8697 102.687 11.7553C102.239 11.6314 101.829 11.4979 101.467 11.3835C100.752 11.1642 100.847 11.25 100.246 11.0689C99.6458 10.8877 99.6648 10.8305 99.0642 10.6494C98.4635 10.4682 98.4445 10.5349 97.8343 10.3538C97.2241 10.1727 97.2432 10.1441 96.6425 9.95337C96.0419 9.7627 96.0514 9.74363 95.4413 9.55295C94.8311 9.36227 94.8311 9.39087 94.2304 9.20972C93.6298 9.02858 93.6298 8.99997 93.0292 8.81883C92.4285 8.63768 92.419 8.65675 91.8183 8.46607C91.2177 8.27539 91.2082 8.31353 90.598 8.12285C89.9878 7.93217 89.9687 7.9989 89.3776 7.76055C88.7865 7.5222 88.8437 7.4364 88.2908 7.14085C87.7378 6.84529 87.7473 6.84528 87.1943 6.54973C86.6414 6.25417 86.689 6.13024 86.0884 5.95863C85.4496 5.77748 85.2113 5.99676 84.9634 5.42472Z" fill="#FFD100"/>
<path d="M64.8085 82.1639C64.5606 81.8397 64.265 81.6014 63.9409 81.4488C63.5881 81.2772 63.2163 81.2105 62.8349 81.2581C62.4536 81.3058 62.1294 81.4488 61.8053 81.6967C61.4716 81.9446 61.2332 82.2783 61.0902 82.6692C60.9472 83.0601 60.8995 83.4605 60.9663 83.88C61.0235 84.2709 61.176 84.6618 61.4239 85.0145C61.6527 85.3387 61.9483 85.5771 62.2724 85.7582C62.6156 85.9393 62.9875 86.0442 63.3593 86.0442C63.7311 86.0442 64.1125 85.9394 64.4271 85.7201C64.7894 85.4627 65.0468 85.0908 65.1994 84.6809C65.3519 84.2709 65.39 83.8323 65.3233 83.3842C65.2566 82.9361 65.104 82.5452 64.8275 82.1829L64.8085 82.1639Z" fill="#082C4C"/>
</svg>
