<svg width="32" height="38" viewBox="0 0 32 38" fill="none" xmlns="http://www.w3.org/2000/svg">
<path d="M31.9568 22.7718C31.9568 22.8493 31.9999 22.9296 31.9999 23.0071C31.9999 23.0846 31.9488 23.1649 31.9488 23.2424C31.9488 23.3199 31.9353 23.4002 31.9353 23.4777C31.9353 23.5552 31.9273 23.6355 31.9299 23.713C31.9326 23.7905 31.9568 23.8708 31.9595 23.9483C31.9622 24.0258 31.981 24.1061 31.981 24.1836C31.981 24.2611 31.9353 24.3414 31.9353 24.4189C31.9353 24.4964 31.9568 24.5767 31.9568 24.6542C31.9568 24.7317 31.9111 24.812 31.9111 24.8895C31.9111 24.967 31.9138 25.0473 31.9111 25.1248C31.9084 25.2023 31.9541 25.2826 31.9515 25.3601C31.9515 25.4431 31.9488 25.5234 31.9461 25.6065C31.9434 25.6895 31.981 25.7726 31.9783 25.8528C31.9757 25.9331 31.9165 26.0162 31.9138 26.0964C31.9111 26.1767 31.9434 26.2625 31.9407 26.3428C31.938 26.4231 31.9111 26.5061 31.9057 26.5892C31.9004 26.6722 31.9138 26.7553 31.9111 26.8356C31.9084 26.9158 31.8923 26.9989 31.8896 27.0819C31.8869 27.165 31.86 27.2453 31.86 27.3283C31.86 27.4114 31.8923 27.4944 31.8923 27.5747C31.8923 27.655 31.8869 27.738 31.8869 27.8211C31.8869 27.9041 31.8654 27.9844 31.8654 28.0674C31.8654 28.1477 31.8762 28.228 31.8762 28.311C31.8762 28.3941 31.8547 28.4744 31.8547 28.5546C31.8547 28.6349 31.9273 28.7152 31.9299 28.7955C31.9326 28.8758 31.9165 28.956 31.9219 29.0391C31.9273 29.1221 31.9192 29.1996 31.9219 29.2799C31.9246 29.3602 31.9595 29.4405 31.9622 29.5208C31.9649 29.601 31.9703 29.6813 31.973 29.7616C31.9757 29.8419 31.9246 29.9249 31.9246 30.0052C31.9246 30.0855 31.9246 30.1658 31.9246 30.246C31.9246 30.3263 31.9649 30.4066 31.9649 30.4841C31.9649 30.5616 31.9004 30.6419 31.8977 30.7222C31.895 30.8025 31.9326 30.8827 31.9299 30.963C31.9273 31.0433 31.895 31.1208 31.895 31.2011C31.895 31.2814 31.8842 31.3617 31.8842 31.4392C31.8842 31.5167 31.9622 31.5997 31.9595 31.68C31.9568 31.7603 31.9138 31.8378 31.9138 31.9181C31.9138 31.9984 31.8977 32.0759 31.8977 32.1561C31.8977 32.2364 31.9111 32.3167 31.9111 32.397C31.9111 32.4773 31.9326 32.5575 31.9326 32.6378C31.9326 32.7181 31.9057 32.7956 31.9031 32.8759C31.9031 32.9534 31.8842 33.0281 31.8815 33.1056C31.8789 33.1832 31.852 33.2579 31.8493 33.3354C31.8466 33.4129 31.8789 33.4904 31.8762 33.5679C31.8735 33.6455 31.8305 33.7202 31.8278 33.7977C31.8251 33.8752 31.8735 33.9527 31.8708 34.0302C31.8681 34.1078 31.8762 34.1853 31.8735 34.2628C31.8708 34.3403 31.817 34.415 31.8143 34.4925C31.8116 34.5701 31.782 34.6448 31.7794 34.7223C31.7767 34.7998 31.8116 34.8773 31.8089 34.9548C31.8062 35.0323 31.8009 35.1099 31.7982 35.1846C31.7955 35.2593 31.8143 35.3396 31.8116 35.4171C31.8089 35.4946 31.7686 35.5694 31.7659 35.6469C31.7632 35.7244 31.8062 35.8019 31.8036 35.8794C31.8009 35.9569 31.7713 36.0317 31.7686 36.1092C31.7659 36.1867 31.7471 36.2615 31.7444 36.339C31.7417 36.4165 31.7148 36.4912 31.7121 36.5687C31.7094 36.6518 31.696 36.721 31.6852 36.7846C31.6745 36.8677 31.6664 36.9286 31.6395 36.9895C31.61 37.0587 31.5804 37.1058 31.5212 37.1556C31.4728 37.1971 31.4325 37.2636 31.3572 37.2968C31.298 37.3217 31.2362 37.366 31.1582 37.3909C31.0883 37.413 30.9995 37.3743 30.9296 37.3964C30.8597 37.4186 30.8086 37.5044 30.7414 37.5265C30.6742 37.5487 30.5935 37.5487 30.5236 37.5708C30.4537 37.593 30.3757 37.5874 30.3058 37.6096C30.2439 37.629 30.1767 37.6262 30.1122 37.64C30.0476 37.6539 29.9885 37.7037 29.9212 37.7065C29.8459 37.7092 29.7707 37.7009 29.6954 37.7065C29.6201 37.712 29.5448 37.7092 29.4695 37.712C29.3942 37.7148 29.3189 37.7203 29.2436 37.7231C29.1683 37.7259 29.093 37.7508 29.0177 37.7535C28.9424 37.7563 28.8671 37.7951 28.7918 37.7978C28.7166 37.8006 28.6386 37.7452 28.5633 37.748C28.488 37.7508 28.4127 37.7369 28.3374 37.7397C28.2621 37.7425 28.1868 37.7812 28.1115 37.784C28.0362 37.7868 27.9609 37.8006 27.8856 37.8061C27.8103 37.8117 27.7351 37.8283 27.6598 37.8338C27.5845 37.8394 27.5092 37.8283 27.4339 37.8338C27.3586 37.8394 27.2833 37.8366 27.208 37.8421C27.1327 37.8477 27.0547 37.8227 26.9794 37.8283C26.9041 37.8338 26.8288 37.8255 26.7536 37.8283C26.6783 37.831 26.603 37.8283 26.5277 37.8338C26.4524 37.8394 26.3771 37.8587 26.3018 37.867C26.2265 37.8726 26.1512 37.8587 26.0732 37.867C25.9952 37.8753 25.9226 37.8864 25.8473 37.8919C25.7721 37.8975 25.6968 37.8919 25.6215 37.8947C25.5462 37.8975 25.4709 37.9086 25.3956 37.9113C25.3203 37.9141 25.245 37.9695 25.1697 37.9722C25.0944 37.975 25.0191 37.9612 24.9438 37.9612C24.8685 37.9612 24.7932 37.9003 24.718 37.9003C24.6427 37.9003 24.5674 37.9722 24.4894 37.9722C24.4114 37.9722 24.3388 37.8919 24.2635 37.8919C24.1882 37.8919 24.1129 37.9141 24.0376 37.9113C23.9623 37.9086 23.8844 37.9501 23.8091 37.9501C23.7338 37.9501 23.6585 37.9362 23.5832 37.9362C23.5079 37.9362 23.4326 37.939 23.3573 37.9362C23.282 37.9335 23.2067 37.9362 23.1314 37.9307C23.0561 37.9252 22.9835 37.8698 22.9055 37.867C22.8276 37.8643 22.755 37.8532 22.6797 37.8504C22.6044 37.8477 22.5264 37.9141 22.4511 37.9113C22.3758 37.9086 22.3005 37.9141 22.2252 37.9113C22.1499 37.9086 22.0746 37.8947 21.9993 37.8947C21.924 37.8947 21.8488 37.8283 21.7735 37.8283C21.6982 37.8283 21.6229 37.8366 21.5476 37.8338C21.4723 37.831 21.397 37.8809 21.3217 37.8809C21.2464 37.8809 21.1711 37.8394 21.0931 37.8394C21.0152 37.8394 20.9399 37.867 20.8646 37.8643C20.7893 37.8615 20.714 37.8366 20.636 37.8338C20.558 37.831 20.4827 37.8643 20.4074 37.8615C20.3321 37.8587 20.2542 37.867 20.1789 37.8615C20.1036 37.856 20.0256 37.8698 19.9503 37.867C19.875 37.8643 19.7997 37.8393 19.7244 37.8366C19.6491 37.8338 19.5738 37.8144 19.4985 37.8117C19.4232 37.8089 19.348 37.7895 19.2727 37.7868C19.1974 37.784 19.1221 37.7508 19.0468 37.748C18.9715 37.7452 18.8935 37.7757 18.8182 37.7729C18.7429 37.7701 18.6676 37.7591 18.5896 37.7563C18.5117 37.7535 18.4364 37.7951 18.3611 37.7951C18.2858 37.7951 18.2105 37.7591 18.1325 37.7591C18.0572 37.7591 17.9819 37.7591 17.9066 37.7591C17.8313 37.7591 17.756 37.7342 17.6808 37.7342C17.6055 37.7342 17.5302 37.7701 17.4549 37.7701C17.3796 37.7701 17.3043 37.7923 17.229 37.7923C17.1537 37.7923 17.0784 37.7978 17.0031 37.7978C16.9278 37.7978 16.8525 37.7951 16.7772 37.7978C16.7019 37.8006 16.6267 37.784 16.5514 37.784C16.4761 37.784 16.4008 37.7674 16.3255 37.7674C16.2502 37.7674 16.1749 37.7535 16.0996 37.7535C16.0243 37.7535 15.949 37.7535 15.8737 37.7535C15.7984 37.7535 15.7231 37.7951 15.6478 37.7951C15.5726 37.7951 15.4973 37.7369 15.422 37.7397C15.3467 37.7425 15.2714 37.784 15.1961 37.784C15.1208 37.784 15.0455 37.7757 14.9702 37.7757C14.8949 37.7757 14.8196 37.7591 14.7443 37.7591C14.669 37.7591 14.5937 37.7591 14.5184 37.7591C14.4432 37.7591 14.3679 37.7701 14.2926 37.7701C14.2173 37.7701 14.142 37.7535 14.0667 37.7535C13.9914 37.7535 13.9161 37.7646 13.8408 37.7646C13.7655 37.7646 13.6902 37.8061 13.6149 37.8061C13.5396 37.8061 13.4643 37.8144 13.3891 37.8144C13.3138 37.8144 13.2385 37.7757 13.1632 37.7757C13.0879 37.7757 13.0126 37.7618 12.9373 37.7618C12.862 37.7618 12.7867 37.7618 12.7114 37.7618C12.6361 37.7618 12.5581 37.7397 12.4829 37.7397C12.4076 37.7397 12.3296 37.7785 12.2543 37.7785C12.179 37.7785 12.101 37.7314 12.0257 37.7314C11.9504 37.7314 11.8724 37.7591 11.7971 37.7591C11.7219 37.7591 11.6439 37.7701 11.5686 37.7701C11.4933 37.7701 11.4153 37.7978 11.34 37.8006C11.2647 37.8034 11.1867 37.7369 11.1088 37.7369C11.0308 37.7369 10.9555 37.748 10.8802 37.7508C10.8049 37.7535 10.7296 37.8117 10.6516 37.8144C10.5736 37.8172 10.4983 37.8227 10.423 37.8283C10.3478 37.8338 10.2725 37.856 10.1945 37.8587C10.1165 37.8615 10.0412 37.8587 9.96591 37.8643C9.89062 37.8698 9.81264 37.8726 9.73734 37.8753C9.66205 37.8781 9.58138 37.8366 9.50609 37.8394C9.4308 37.8421 9.3555 37.8919 9.28021 37.8947C9.20492 37.8975 9.12425 37.856 9.04895 37.8587C8.97366 37.8615 8.89837 37.8975 8.82038 37.9003C8.7424 37.903 8.6698 37.9335 8.59182 37.939C8.51383 37.9445 8.43585 37.8864 8.36056 37.8919C8.28527 37.8975 8.20997 37.9473 8.13468 37.9529C8.05939 37.9584 7.97872 37.9003 7.90342 37.903C7.82813 37.9058 7.75284 37.9584 7.67754 37.9612C7.60225 37.9639 7.52427 37.9473 7.44898 37.9501C7.37368 37.9529 7.29839 37.9445 7.2231 37.9501C7.1478 37.9556 7.07251 37.9944 6.99722 37.9944C6.92193 37.9944 6.84663 37.9473 6.76865 37.9501C6.69067 37.9529 6.61806 37.9999 6.54277 37.9999C6.46748 37.9999 6.39219 37.9445 6.31689 37.9418C6.2416 37.939 6.16362 38.0027 6.08833 37.9999C6.01303 37.9971 5.93774 37.9833 5.86245 37.9805C5.78715 37.9778 5.71186 37.9805 5.63657 37.9778C5.56127 37.975 5.48598 37.9612 5.41069 37.9556C5.3354 37.9501 5.26279 37.8975 5.1875 37.8919C5.11221 37.8864 5.03691 37.8781 4.96162 37.8726C4.88633 37.867 4.80834 37.8975 4.73305 37.8892C4.65776 37.8809 4.58784 37.8338 4.51255 37.8255C4.43726 37.8172 4.3539 37.8781 4.2786 37.8698C4.20331 37.8615 4.13071 37.8421 4.05542 37.8283C3.98012 37.8144 3.91559 37.7397 3.84298 37.7286C3.77038 37.7175 3.68971 37.7231 3.6171 37.7092C3.5445 37.6954 3.47189 37.6622 3.39929 37.6483C3.32669 37.6345 3.24333 37.6622 3.16803 37.6483C3.09274 37.6345 3.02283 37.6041 2.95022 37.5847C2.87762 37.5653 2.81039 37.5238 2.7351 37.5044C2.65712 37.485 2.5872 37.4629 2.51729 37.438C2.44468 37.4103 2.35326 37.4241 2.28603 37.3881C2.21612 37.3494 2.14082 37.3162 2.07898 37.2719C2.01713 37.2276 1.98755 37.1334 1.93377 37.0781C1.87999 37.0227 1.85847 36.9424 1.81276 36.8788C1.76705 36.8151 1.72402 36.757 1.68638 36.6878C1.64873 36.6186 1.55192 36.5826 1.52235 36.5078C1.49277 36.4331 1.54655 36.3334 1.52235 36.2559C1.49814 36.1812 1.42016 36.1258 1.39865 36.0483C1.37714 35.9708 1.3368 35.9016 1.32067 35.8268C1.30453 35.7521 1.32605 35.6635 1.3126 35.5888C1.29916 35.514 1.27226 35.4365 1.25882 35.359C1.24537 35.2815 1.24537 35.2012 1.23462 35.1237C1.22386 35.0462 1.2158 34.9687 1.20773 34.8912C1.19966 34.8137 1.22386 34.7334 1.2158 34.6559C1.20773 34.5756 1.17277 34.4981 1.1647 34.4178C1.15664 34.3375 1.16739 34.2545 1.16201 34.1742C1.15664 34.0939 1.11092 34.0164 1.10286 33.9361C1.09479 33.8558 1.1405 33.77 1.13244 33.6897C1.12437 33.6095 1.07328 33.5347 1.06521 33.4544C1.05714 33.3742 1.09748 33.2884 1.08941 33.2081C1.08134 33.1278 1.03563 33.0503 1.02756 32.97C1.0195 32.8897 1.02756 32.8067 1.01681 32.7264C1.00605 32.6461 1.01681 32.5631 1.01143 32.4828C1.00605 32.4025 1.00605 32.3222 0.997983 32.242C0.989916 32.1617 0.984538 32.0814 0.97916 32.0011C0.973782 31.9208 0.938825 31.8433 0.933447 31.763C0.928069 31.6828 0.879666 31.6053 0.871599 31.525C0.863532 31.4447 0.860843 31.3644 0.852776 31.2841C0.844708 31.2039 0.817818 31.1236 0.81244 31.0433C0.807062 30.963 0.876977 30.8772 0.86891 30.7942C0.860843 30.7111 0.782861 30.6391 0.777483 30.5589C0.772105 30.4786 0.777483 30.3955 0.772105 30.3153C0.766726 30.235 0.764037 30.1547 0.758659 30.0744C0.753281 29.9941 0.782861 29.9111 0.777483 29.8308C0.772105 29.7505 0.798995 29.6703 0.793617 29.5927C0.788239 29.5152 0.696812 29.4405 0.694123 29.3602C0.691434 29.2799 0.694123 29.2024 0.694123 29.1221C0.694123 29.0419 0.696812 28.9643 0.694123 28.8841C0.691434 28.8038 0.72908 28.7235 0.723702 28.646C0.718324 28.5685 0.688744 28.4882 0.686055 28.4107C0.683366 28.3332 0.680677 28.2529 0.677988 28.1726C0.675299 28.0924 0.686055 28.0148 0.683366 27.9346C0.680677 27.8543 0.656476 27.7768 0.653787 27.6993C0.651098 27.6217 0.61883 27.5415 0.61614 27.464C0.613451 27.3864 0.691433 27.3006 0.688744 27.2231C0.686055 27.1456 0.651098 27.0653 0.64572 26.9878C0.640342 26.9103 0.594628 26.8328 0.58925 26.7525C0.583872 26.6722 0.600006 26.592 0.594628 26.5145C0.58925 26.4342 0.602695 26.3511 0.597317 26.2708C0.591939 26.1906 0.61883 26.1075 0.613451 26.0272C0.608073 25.947 0.524713 25.8722 0.519335 25.7919C0.513957 25.7117 0.575805 25.6258 0.570427 25.5456C0.565049 25.4653 0.570427 25.385 0.567738 25.3047C0.565049 25.2244 0.538158 25.1442 0.53278 25.0639C0.527402 24.9836 0.479 24.9061 0.473622 24.8258C0.468244 24.7455 0.457487 24.6653 0.44942 24.585C0.441353 24.5047 0.444042 24.4244 0.435975 24.3441C0.427908 24.2639 0.444042 24.1808 0.435975 24.1005C0.427908 24.0203 0.387573 23.9427 0.382195 23.8625C0.376816 23.7822 0.435975 23.6964 0.427908 23.6161C0.419841 23.5358 0.33917 23.4611 0.331103 23.3808C0.323036 23.3005 0.328414 23.2202 0.320347 23.14C0.31228 23.0597 0.333792 22.9766 0.328414 22.8964C0.323036 22.8161 0.293456 22.7386 0.285389 22.6583C0.277322 22.578 0.263877 22.4977 0.258499 22.4174C0.253121 22.3372 0.298834 22.2513 0.293456 22.1711C0.288078 22.0908 0.25581 22.0133 0.250432 21.933C0.245054 21.8527 0.236987 21.7724 0.231609 21.6922C0.226231 21.6119 0.258499 21.5288 0.250432 21.4486C0.242365 21.3683 0.245054 21.288 0.239676 21.2077C0.234298 21.1274 0.177828 21.0499 0.169761 20.9697C0.161694 20.8894 0.134803 20.8119 0.126736 20.7316C0.118669 20.6513 0.126736 20.571 0.121358 20.4907C0.11598 20.4132 0.0944678 20.3357 0.0890898 20.2582C0.0837117 20.1807 0.0783336 20.1004 0.0756446 20.0229C0.0729556 19.9454 0.132114 19.8624 0.129425 19.7848C0.126736 19.7073 0.107913 19.6298 0.105224 19.5523C0.102535 19.4748 0.0783336 19.3973 0.0756446 19.3198C0.0729556 19.2423 0.0998459 19.162 0.0971569 19.0845C0.0944678 19.007 0.118669 18.9267 0.11598 18.8492C0.113291 18.7717 0.0998459 18.6942 0.0971569 18.6139C0.0944678 18.5336 0.0702665 18.4589 0.0675775 18.3786C0.0648885 18.2983 0.027242 18.2236 0.024553 18.146C0.0218639 18.0685 0.00304067 17.991 0.00035164 17.9107C-0.00233739 17.836 0.0111078 17.7613 0.0164858 17.6893C0.0218639 17.6173 0.0837117 17.5536 0.0971569 17.4817C0.110602 17.4097 0.105224 17.3349 0.129425 17.2657C0.153627 17.1965 0.223541 17.155 0.25581 17.0886C0.288078 17.0221 0.266566 16.9308 0.306902 16.8699C0.347237 16.809 0.360682 16.7315 0.403707 16.6706C0.44942 16.6069 0.567738 16.5958 0.613451 16.5322C0.659165 16.4685 0.640342 16.3522 0.688744 16.2885C0.737147 16.2249 0.844708 16.2083 0.893111 16.1446C0.941514 16.0809 0.944203 15.9813 0.989916 15.9176C1.03563 15.8539 1.12168 15.8207 1.17008 15.757C1.21848 15.6934 1.21311 15.5854 1.26151 15.5245C1.30991 15.4636 1.38252 15.4193 1.43361 15.3556C1.4847 15.292 1.52503 15.2255 1.57613 15.1646C1.62722 15.1037 1.67831 15.0428 1.72671 14.9819C1.77511 14.921 1.84503 14.874 1.89343 14.8131C1.94183 14.7522 1.96335 14.6636 2.01175 14.6027C2.06015 14.5418 2.11662 14.4836 2.16771 14.4227C2.2188 14.3618 2.26183 14.2954 2.31292 14.2345C2.36401 14.1736 2.4662 14.1598 2.51729 14.0989C2.56838 14.038 2.5872 13.9494 2.63829 13.8885C2.68939 13.8276 2.74317 13.7694 2.79426 13.7085C2.84535 13.6476 2.91795 13.6061 2.96905 13.548C3.02014 13.4898 3.04434 13.4013 3.09543 13.3431C3.14652 13.285 3.2245 13.2462 3.2756 13.1881C3.32669 13.13 3.39122 13.0774 3.44232 13.0192C3.49341 12.9611 3.54181 12.8947 3.5929 12.8338C3.64399 12.7729 3.65475 12.676 3.70853 12.6151C3.75962 12.5569 3.83223 12.5182 3.88332 12.4601C3.93441 12.4019 4.02046 12.3742 4.07155 12.3161C4.12264 12.258 4.17911 12.2026 4.2302 12.1445C4.28129 12.0863 4.3055 12.0005 4.35659 11.9424C4.40768 11.8843 4.49911 11.8649 4.5502 11.8068C4.60129 11.7486 4.60129 11.6407 4.65507 11.5853C4.70885 11.5299 4.78145 11.4912 4.83524 11.433C4.88902 11.3749 4.90515 11.2863 4.95624 11.2282C5.00733 11.1701 5.10414 11.1562 5.15523 11.0981C5.20632 11.0399 5.24397 10.968 5.29506 10.9098C5.34615 10.8517 5.40262 10.7991 5.45371 10.741C5.5048 10.6828 5.58279 10.6496 5.63657 10.5915C5.69035 10.5334 5.7011 10.4392 5.7522 10.3811C5.80329 10.323 5.87051 10.2787 5.92429 10.2233C5.97808 10.1679 5.99421 10.0766 6.04799 10.0185C6.10177 9.96033 6.16631 9.91881 6.22009 9.86067C6.27387 9.80254 6.33841 9.76102 6.39219 9.70288C6.44597 9.64475 6.50244 9.59492 6.55353 9.53679C6.60462 9.47866 6.67453 9.43713 6.72563 9.379C6.77672 9.32087 6.77134 9.21013 6.82512 9.152C6.8789 9.09387 6.92461 9.03297 6.9784 8.97483C7.03218 8.9167 7.08596 8.8641 7.13705 8.80597C7.18814 8.74784 7.26343 8.71185 7.31453 8.65372C7.36562 8.59558 7.41671 8.53745 7.4678 8.47932C7.51889 8.42119 7.5915 8.38243 7.64528 8.3243C7.69906 8.26616 7.70712 8.16928 7.75822 8.11114C7.80931 8.05301 7.86309 7.99764 7.91687 7.93951C7.96527 7.88415 8.01367 7.82878 8.06208 7.77065C8.11048 7.71251 8.18577 7.68206 8.23417 7.6267C8.28258 7.57133 8.35518 7.53535 8.40358 7.47721C8.45199 7.41908 8.47888 7.34711 8.52728 7.28897C8.57568 7.23084 8.59719 7.15333 8.64291 7.0952C8.68862 7.03706 8.78005 7.01492 8.82576 6.95955C8.87148 6.90419 8.92795 6.85159 8.97635 6.79346C9.02475 6.73532 9.014 6.63013 9.0624 6.572C9.1108 6.51386 9.14576 6.44743 9.19416 6.39206C9.24256 6.3367 9.30172 6.28964 9.35012 6.2315C9.40122 6.17337 9.45769 6.12354 9.50878 6.06541C9.55987 6.00727 9.6002 5.94084 9.6513 5.8827C9.70239 5.82457 9.74541 5.7609 9.7965 5.70277C9.8476 5.64463 9.9202 5.60865 9.97129 5.55051C10.0224 5.49238 10.0869 5.44809 10.138 5.39272C10.1891 5.33736 10.2536 5.29307 10.3047 5.23493C10.3558 5.1768 10.38 5.09375 10.4311 5.03839C10.4822 4.98302 10.5548 4.94427 10.6059 4.8889C10.657 4.83354 10.6543 4.72281 10.7054 4.66744C10.7565 4.61208 10.856 4.59824 10.9044 4.5401C10.9528 4.48197 10.9609 4.38231 11.0119 4.32418C11.063 4.26605 11.1249 4.21899 11.1733 4.16085C11.2217 4.10272 11.2701 4.04182 11.3185 3.98368C11.3669 3.92555 11.418 3.86742 11.4691 3.80929C11.5202 3.75115 11.5901 3.7124 11.6385 3.65426C11.6896 3.59613 11.7837 3.57398 11.8348 3.51308C11.8859 3.45218 11.8886 3.34976 11.9424 3.29162C11.9961 3.23349 12.0418 3.16982 12.0929 3.11169C12.144 3.05355 12.1978 2.99265 12.2489 2.93452C12.3 2.87639 12.3618 2.82656 12.4129 2.76566C12.464 2.70475 12.5044 2.63555 12.5555 2.57741C12.6065 2.51928 12.6791 2.47776 12.7302 2.41686C12.7813 2.35596 12.8082 2.27568 12.8593 2.21477C12.9104 2.15387 13.0072 2.13726 13.0583 2.07636C13.1094 2.01546 13.1686 1.96286 13.2196 1.90473C13.2707 1.8466 13.3165 1.78016 13.3675 1.72203C13.4186 1.66389 13.424 1.5587 13.4751 1.50057C13.5262 1.44243 13.6257 1.42582 13.6768 1.36492C13.7279 1.30402 13.7521 1.21821 13.8032 1.16007C13.8543 1.10194 13.8785 1.01336 13.9295 0.955222C13.9806 0.897089 14.0801 0.880479 14.1312 0.819578C14.185 0.758676 14.2522 0.717153 14.3114 0.661788C14.3706 0.606423 14.3867 0.503998 14.4485 0.451401C14.5104 0.398804 14.5884 0.368354 14.6502 0.318525C14.7121 0.268697 14.7578 0.193954 14.8196 0.144126C14.8868 0.0915289 14.9756 0.0859923 15.0482 0.0583098C15.1235 0.0278591 15.1961 0.00294483 15.2768 0.000176579C15.3574 -0.00259167 15.4273 0.0278593 15.508 0.0444688C15.5833 0.0610782 15.6505 0.0970653 15.7258 0.130284C15.8253 0.171808 15.9356 0.177344 16.0378 0.19949C16.1104 0.2161 16.1803 0.252087 16.2502 0.271465C16.3201 0.290843 16.3981 0.299148 16.468 0.321294C16.5379 0.343439 16.5944 0.409877 16.6643 0.434792C16.7342 0.459706 16.8283 0.423718 16.8982 0.451401C16.9682 0.479083 17.0246 0.537217 17.0919 0.570436C17.1591 0.603655 17.2048 0.678397 17.2693 0.714384C17.3339 0.750372 17.4414 0.708848 17.506 0.747604C17.5705 0.786359 17.6324 0.830651 17.6969 0.872175C17.7614 0.913698 17.8179 0.963527 17.8797 1.00782C17.9416 1.05211 17.9712 1.14069 18.033 1.18499C18.0949 1.22928 18.189 1.22651 18.2481 1.2708C18.3073 1.31509 18.3423 1.39537 18.4014 1.44243C18.4606 1.48949 18.5009 1.5587 18.5574 1.60576C18.6138 1.65282 18.6891 1.6805 18.7456 1.73033C18.8021 1.78016 18.8343 1.86044 18.8881 1.91027C18.9392 1.95733 19.0387 1.9684 19.1006 2.0293C19.1543 2.0819 19.192 2.15664 19.2511 2.21477C19.3049 2.27014 19.348 2.33935 19.4044 2.40025C19.4582 2.45561 19.5254 2.4999 19.5819 2.56081C19.6384 2.62171 19.6895 2.67707 19.7459 2.73521C19.8024 2.79334 19.8643 2.84317 19.918 2.9013C19.9718 2.95943 20.0148 3.03141 20.0659 3.08954C20.117 3.14767 20.1654 3.21965 20.2165 3.27778C20.273 3.33868 20.3483 3.37744 20.3994 3.43557C20.4558 3.49924 20.4854 3.57952 20.5338 3.63765C20.593 3.70409 20.7005 3.71793 20.7436 3.77053C20.8215 3.86465 20.8753 3.93939 20.8915 3.96708C20.9318 4.03628 20.9318 4.13594 20.9775 4.20238C21.0232 4.26881 21.0824 4.32695 21.1308 4.39339C21.1792 4.45982 21.2572 4.49858 21.3083 4.56225C21.3594 4.62592 21.3809 4.71173 21.4346 4.77264C21.4884 4.83354 21.5046 4.93043 21.5583 4.99133C21.6121 5.05223 21.6632 5.1159 21.7197 5.17403C21.7762 5.23216 21.8595 5.26538 21.9133 5.32352C21.9671 5.38165 21.994 5.47023 22.0477 5.53114C22.1015 5.59204 22.201 5.60865 22.2548 5.66678C22.3086 5.72491 22.3462 5.80242 22.4 5.86333C22.4538 5.92423 22.5345 5.96021 22.5882 6.02111C22.642 6.08202 22.6689 6.16506 22.7227 6.22873C22.7765 6.2924 22.8545 6.32839 22.9055 6.39206C22.9566 6.45573 23.0158 6.51109 23.0669 6.572C23.118 6.6329 23.1234 6.73809 23.1745 6.80176C23.2255 6.86543 23.2928 6.91526 23.3439 6.97616C23.395 7.03706 23.4487 7.10073 23.4998 7.16163C23.5509 7.22253 23.6235 7.26959 23.6746 7.3305C23.7284 7.3914 23.7445 7.48552 23.7956 7.54919C23.8467 7.61286 23.8844 7.6876 23.9354 7.75127C23.9865 7.81494 24.078 7.83985 24.1317 7.90076C24.1855 7.96166 24.2554 8.00595 24.3092 8.06685C24.363 8.12775 24.4249 8.18035 24.4813 8.23848C24.5378 8.29661 24.5566 8.3935 24.6131 8.45164C24.6722 8.50977 24.7448 8.54852 24.8013 8.60666C24.8578 8.66479 24.9089 8.72846 24.9627 8.78659C25.0164 8.84473 25.0917 8.88902 25.1428 8.95269C25.1939 9.01636 25.2047 9.11325 25.2558 9.17692C25.3069 9.24059 25.3499 9.30702 25.401 9.37069C25.4521 9.43436 25.5327 9.47035 25.5838 9.53679C25.6349 9.60323 25.686 9.66136 25.7344 9.7278C25.7828 9.79424 25.8124 9.87451 25.8608 9.93818C25.9092 10.0019 25.9576 10.0683 26.006 10.1347C26.0544 10.2012 26.0921 10.2731 26.1405 10.3396C26.1889 10.406 26.2884 10.4309 26.3368 10.4946C26.3852 10.5583 26.3663 10.6745 26.4147 10.7382C26.4631 10.8019 26.5411 10.8406 26.5895 10.9043C26.6379 10.968 26.7052 11.015 26.7536 11.0787C26.802 11.1424 26.8504 11.206 26.8988 11.2697C26.9472 11.3334 26.9687 11.4192 27.0171 11.4829C27.0655 11.5465 27.122 11.6019 27.1704 11.6656C27.2188 11.7292 27.2698 11.7901 27.3209 11.8538C27.372 11.9175 27.4285 11.9728 27.4769 12.0365C27.5253 12.1002 27.5872 12.1528 27.6356 12.2165C27.684 12.2801 27.7189 12.3549 27.7673 12.4185C27.8157 12.4822 27.848 12.5597 27.8964 12.6234C27.9421 12.6843 27.9717 12.7618 28.0201 12.8227C28.0685 12.8836 28.1035 12.9556 28.1492 13.0165C28.1949 13.0774 28.2809 13.1106 28.3266 13.1743C28.3724 13.2379 28.3858 13.3265 28.4315 13.3874C28.4772 13.4483 28.5525 13.4898 28.6009 13.5507C28.6493 13.6116 28.6708 13.6919 28.7192 13.7556C28.7676 13.8193 28.851 13.8497 28.8967 13.9134C28.9424 13.9771 28.9371 14.0795 28.9828 14.1432C29.0285 14.2068 29.1495 14.2096 29.1952 14.2733C29.2409 14.3369 29.2678 14.4144 29.3135 14.4753C29.3592 14.5362 29.3646 14.6331 29.4103 14.694C29.456 14.7549 29.5528 14.7798 29.5986 14.8435C29.6443 14.9072 29.6577 14.9958 29.7034 15.0567C29.7491 15.1176 29.8433 15.1453 29.889 15.2089C29.9347 15.2726 29.932 15.3723 29.9777 15.4332C30.0234 15.4941 30.0987 15.5356 30.1444 15.5992C30.1901 15.6629 30.2143 15.7432 30.2601 15.8041C30.3058 15.865 30.373 15.9121 30.4187 15.9757C30.4644 16.0394 30.4617 16.1391 30.5074 16.2C30.5505 16.2609 30.6634 16.2692 30.7037 16.3301C30.7441 16.391 30.7737 16.4629 30.814 16.5266C30.8543 16.5903 30.8732 16.6678 30.9108 16.7315C30.9484 16.7951 31.0211 16.8367 31.0587 16.9003C31.0963 16.964 31.099 17.0526 31.1367 17.1163C31.1743 17.1799 31.2174 17.2436 31.2523 17.3073C31.2873 17.3709 31.2873 17.4595 31.3249 17.5259C31.3626 17.5924 31.411 17.6478 31.4486 17.7114C31.4943 17.7917 31.5562 17.8637 31.5831 17.955C31.61 18.0464 31.5992 18.1433 31.61 18.2374C31.6207 18.3177 31.6718 18.3896 31.6826 18.4699C31.6933 18.5502 31.6826 18.6305 31.6933 18.7108C31.7041 18.791 31.7363 18.8658 31.7444 18.9461C31.7525 19.0263 31.7605 19.1066 31.7686 19.1841C31.7767 19.2616 31.7525 19.3475 31.7605 19.4277C31.7686 19.508 31.7632 19.5883 31.7713 19.6686C31.7794 19.7489 31.8089 19.8264 31.8143 19.9066C31.8197 19.9869 31.8708 20.0617 31.8762 20.1419C31.8815 20.2222 31.8143 20.308 31.8197 20.3883C31.8251 20.4686 31.8708 20.5461 31.8762 20.6236C31.8815 20.7011 31.8573 20.7842 31.8627 20.8645C31.8681 20.9447 31.86 21.025 31.8627 21.1053C31.8654 21.1856 31.9057 21.2631 31.9111 21.3434C31.9165 21.4236 31.9353 21.5012 31.938 21.5814C31.9407 21.6617 31.9299 21.742 31.9353 21.8223C31.9407 21.9026 31.9084 21.9828 31.9111 22.0631C31.9138 22.1434 31.9111 22.2237 31.9138 22.3039C31.9165 22.3842 31.9972 22.4617 31.9999 22.542C32.0026 22.6223 31.9649 22.7026 31.9649 22.7829L31.9568 22.7718Z" fill="#0096D8"/>
</svg>
