<svg width="35" height="40" viewBox="0 0 35 40" fill="none" xmlns="http://www.w3.org/2000/svg">
<path d="M20.5406 39.7711C20.4633 39.7711 20.386 39.7247 20.3087 39.7247C20.2315 39.7247 20.1542 39.7874 20.0796 39.7874C20.0049 39.7874 19.925 39.7629 19.8477 39.7629C19.7704 39.7629 19.6932 39.7465 19.6159 39.7465C19.5386 39.7465 19.4613 39.7874 19.3867 39.7874C19.3121 39.7874 19.2321 39.7166 19.1549 39.7166C19.0776 39.7166 19.0003 39.7166 18.9257 39.7166C18.8511 39.7166 18.7711 39.7356 18.6965 39.7356C18.6219 39.7356 18.542 39.7765 18.4673 39.7765C18.3927 39.7765 18.3128 39.7683 18.2355 39.7683C18.1582 39.7683 18.0809 39.7847 18.0037 39.7847C17.9264 39.7847 17.8491 39.7329 17.7745 39.7329C17.6999 39.7329 17.6199 39.7193 17.5453 39.7193C17.4707 39.7193 17.3907 39.7956 17.3135 39.7956C17.2362 39.7956 17.1589 39.7057 17.0843 39.7057C17.0097 39.7057 16.9297 39.7275 16.8524 39.7275C16.7752 39.7275 16.6979 39.7711 16.6206 39.7711C16.5433 39.7711 16.466 39.7493 16.3888 39.7493C16.3115 39.7493 16.2342 39.7302 16.1569 39.7302C16.0796 39.7302 16.0024 39.7656 15.9251 39.7656C15.8478 39.7656 15.7705 39.7438 15.6932 39.7438C15.616 39.7438 15.5387 39.7602 15.4614 39.7602C15.3841 39.7602 15.3068 39.7193 15.2296 39.7193C15.1523 39.7193 15.075 39.7738 14.9977 39.7738C14.9204 39.7738 14.8432 39.7656 14.7659 39.7656C14.6886 39.7656 14.6113 39.7438 14.534 39.7438C14.4568 39.7438 14.3795 39.7738 14.3022 39.7711C14.2249 39.7683 14.1476 39.7711 14.0704 39.7711C13.9931 39.7711 13.9158 39.7275 13.8385 39.7275C13.7612 39.7275 13.6839 39.7193 13.6067 39.7193C13.5294 39.7193 13.4521 39.7547 13.3748 39.7547C13.2975 39.7547 13.2203 39.7029 13.143 39.7029C13.0657 39.7029 12.9884 39.7792 12.9111 39.7792C12.8339 39.7792 12.7566 39.7602 12.6793 39.7602C12.602 39.7602 12.5221 39.7629 12.4448 39.7656C12.3675 39.7683 12.2876 39.7574 12.2103 39.7602C12.133 39.7629 12.0531 39.722 11.9758 39.722C11.8985 39.722 11.8212 39.7629 11.7413 39.7656C11.6613 39.7683 11.5841 39.7302 11.5041 39.7329C11.4242 39.7356 11.3496 39.7711 11.2696 39.7738C11.1897 39.7765 11.115 39.8065 11.0351 39.8092C10.9552 39.8119 10.8779 39.7683 10.7979 39.7711C10.718 39.7738 10.6407 39.7929 10.5634 39.7956C10.4861 39.7983 10.4089 39.8228 10.3289 39.8256C10.249 39.8283 10.1717 39.8119 10.0944 39.8147C10.0171 39.8174 9.93985 39.8419 9.85991 39.8446C9.77996 39.8473 9.70268 39.8256 9.6254 39.8283C9.54812 39.831 9.47084 39.861 9.39089 39.8637C9.31095 39.8664 9.23367 39.8119 9.15372 39.8147C9.07378 39.8174 8.99916 39.8991 8.92188 39.9018C8.8446 39.9018 8.76732 39.8691 8.69004 39.8719C8.61276 39.8746 8.53548 39.88 8.4582 39.8828C8.38092 39.8855 8.30364 39.8882 8.22636 39.8909C8.14908 39.8937 8.07446 39.9318 7.99718 39.9345C7.9199 39.9373 7.84262 39.9482 7.768 39.9509C7.69339 39.9536 7.61345 39.9182 7.53617 39.9209C7.45888 39.9236 7.38161 39.9073 7.30433 39.91C7.22705 39.9127 7.15243 39.9482 7.07515 39.9509C6.99787 39.9536 6.92059 39.9645 6.84331 39.9672C6.76603 39.97 6.68875 39.9318 6.61147 39.9345C6.53419 39.9373 6.4569 39.9618 6.38229 39.9618C6.30767 39.9618 6.22773 39.9127 6.15045 39.9127C6.07317 39.9127 5.99589 39.989 5.91594 39.989C5.836 39.989 5.75872 39.9236 5.68144 39.9236C5.60416 39.9236 5.52421 39.9291 5.44693 39.9318C5.36965 39.9345 5.29237 39.9945 5.21243 39.9945C5.13248 39.9945 5.0552 39.989 4.97792 39.989C4.90064 39.989 4.82069 39.9454 4.74341 39.9454C4.66613 39.9454 4.58619 39.9563 4.50891 39.9563C4.43163 39.9563 4.35169 39.9209 4.2744 39.9209C4.19712 39.9209 4.11718 39.9318 4.0399 39.9318C3.96262 39.9318 3.88267 40.0026 3.80539 39.9999C3.72811 39.9972 3.64816 39.9536 3.57088 39.9536C3.4936 39.9536 3.41366 39.9345 3.33638 39.9345C3.2591 39.9345 3.17915 39.9591 3.10187 39.9563C3.02459 39.9536 2.94465 39.9863 2.86737 39.9836C2.79009 39.9809 2.71281 39.8964 2.63553 39.8964C2.55558 39.8964 2.4783 39.8991 2.40102 39.8937C2.32374 39.8882 2.2358 39.9536 2.15852 39.9427C2.08124 39.9318 2.01462 39.8364 1.93467 39.8228C1.85473 39.8092 1.76679 39.8773 1.68951 39.8664C1.61223 39.8555 1.53495 39.8283 1.45767 39.8147C1.38039 39.801 1.30311 39.7738 1.22583 39.7602C1.14855 39.7465 1.0766 39.6866 0.999315 39.6757C0.911375 39.6621 0.836758 39.6566 0.764808 39.6321C0.682198 39.6021 0.620909 39.564 0.559618 39.5149C0.492997 39.4632 0.437033 39.4141 0.394395 39.346C0.351758 39.2779 0.319782 39.2071 0.293134 39.1253C0.266486 39.0436 0.197199 38.9809 0.183875 38.8965C0.17055 38.812 0.234506 38.7248 0.229176 38.6404C0.223847 38.5668 0.202529 38.4959 0.1972 38.4224C0.19187 38.3488 0.1972 38.2752 0.1972 38.2044C0.1972 38.1336 0.127913 38.06 0.125248 37.9892C0.122583 37.9183 0.143901 37.842 0.141236 37.7685C0.138571 37.6949 0.117255 37.6241 0.11459 37.5505C0.111925 37.4769 0.119918 37.4034 0.117254 37.3298C0.114589 37.2562 0.135907 37.1827 0.133242 37.1091C0.133242 37.0328 0.143901 36.9565 0.141236 36.883C0.138571 36.8094 0.106593 36.7331 0.103929 36.6568C0.101264 36.5805 0.0959358 36.507 0.093271 36.4307C0.0906062 36.3544 0.0746166 36.2808 0.0719518 36.2046C0.069287 36.1283 0.0532974 36.0547 0.0506326 35.9784C0.0479678 35.9021 0.0985992 35.8258 0.0959344 35.7495C0.0932695 35.6733 0.0959344 35.5997 0.0959344 35.5234C0.0959344 35.4471 0.0293149 35.3763 0.02665 35.3C0.0239852 35.2237 0.0133265 35.1501 0.0106616 35.0738C0.00799679 34.9975 0 34.924 0 34.8477C0 34.7714 0.0506326 34.6951 0.0506326 34.6188C0.0506326 34.5425 0 34.469 0 34.3927C0 34.3164 0.0346442 34.2401 0.0346442 34.1665C0.0346442 34.093 0.013325 34.0167 0.013325 33.9404C0.013325 33.8641 0.013325 33.7906 0.013325 33.7143C0.013325 33.6353 0.00266338 33.559 0.00266338 33.4799C0.00266338 33.4009 0.0319768 33.3246 0.0319768 33.2456C0.0319768 33.1666 0.0586279 33.0903 0.0639576 33.014C0.0692873 32.9378 0.00533196 32.856 0.0106616 32.777C0.0159913 32.698 0.0852753 32.6244 0.0879402 32.5454C0.090605 32.4664 0.0746163 32.3874 0.079946 32.3111C0.0852757 32.2348 0.10393 32.1558 0.109259 32.0795C0.114589 32.0032 0.125246 31.9242 0.127911 31.8452C0.130576 31.7662 0.0799471 31.6872 0.0852768 31.6081C0.0906065 31.5291 0.117252 31.4528 0.119917 31.3766C0.122582 31.3003 0.175882 31.224 0.181211 31.145C0.186541 31.0659 0.170548 30.9869 0.173213 30.9106C0.175878 30.8344 0.151896 30.7526 0.154561 30.6763C0.157226 30.6 0.151896 30.521 0.154561 30.442C0.154561 30.3657 0.146566 30.2894 0.14923 30.2131C0.151895 30.1369 0.213188 30.0606 0.213188 29.9843C0.213188 29.908 0.194532 29.8317 0.194532 29.7554C0.194532 29.6791 0.159892 29.6028 0.159892 29.5265C0.159892 29.4503 0.183875 29.374 0.183875 29.2977C0.183875 29.2214 0.183875 29.1451 0.183875 29.0688C0.183875 28.9925 0.221182 28.9162 0.221182 28.8399C0.221182 28.7637 0.194532 28.6874 0.194532 28.6111C0.194532 28.5348 0.186538 28.4585 0.186538 28.3822C0.186538 28.3059 0.205194 28.2296 0.205194 28.1533C0.205194 28.0771 0.213188 28.0008 0.213188 27.9245C0.213188 27.8482 0.223846 27.7719 0.223846 27.6956C0.223846 27.6193 0.141236 27.543 0.141236 27.4667C0.141236 27.3905 0.199864 27.3142 0.1972 27.2379C0.194535 27.1616 0.173213 27.0853 0.173213 27.009C0.173213 26.93 0.149232 26.851 0.146567 26.772C0.143902 26.693 0.151898 26.6139 0.151898 26.5322C0.151898 26.4505 0.159892 26.3742 0.159892 26.2924C0.159892 26.2107 0.194532 26.1317 0.194532 26.0527C0.194532 25.9737 0.135907 25.8946 0.133242 25.8156C0.130577 25.7366 0.181211 25.6549 0.181211 25.5759C0.181211 25.4969 0.181211 25.4178 0.181211 25.3361C0.181211 25.2544 0.151895 25.1781 0.14923 25.0991C0.146566 25.02 0.170551 24.9383 0.167886 24.8593C0.165221 24.7803 0.130576 24.7013 0.127911 24.6223C0.125246 24.5432 0.117255 24.4642 0.11459 24.3852C0.111925 24.3062 0.0985992 24.2272 0.0959344 24.1482C0.0932695 24.0692 0.111924 23.9901 0.109259 23.9084C0.106595 23.8267 0.119918 23.7504 0.117254 23.6686C0.114589 23.5869 0.0985992 23.5106 0.0959344 23.4316C0.0932695 23.3526 0.141236 23.2709 0.141236 23.1918C0.141236 23.1128 0.117255 23.0338 0.11459 22.9548C0.111925 22.8758 0.130579 22.7968 0.130579 22.715C0.130579 22.636 0.117254 22.557 0.117254 22.478C0.117254 22.399 0.0506326 22.32 0.0506326 22.241C0.0506326 22.1619 0.0772826 22.0829 0.0772826 22.0039C0.0772826 21.9249 0.0852753 21.8459 0.0879402 21.7669C0.090605 21.6879 0.141236 21.6088 0.141236 21.5298C0.141236 21.4508 0.111923 21.3718 0.111923 21.2928C0.111923 21.2138 0.122584 21.1348 0.122584 21.0557C0.122584 20.9767 0.0586268 20.8977 0.0586268 20.8187C0.0586268 20.7397 0.0879402 20.6607 0.0879402 20.5817C0.0879402 20.5027 0.135905 20.4236 0.135905 20.3446C0.135905 20.2656 0.117254 20.1866 0.117254 20.1076C0.117254 20.0286 0.117254 19.9496 0.117254 19.8705C0.117254 19.7915 0.0612902 19.7125 0.0612902 19.6335C0.0612902 19.5545 0.0906036 19.4755 0.0906036 19.3965C0.0906036 19.3556 0.0959344 19.2766 0.0959344 19.1676C0.0959344 19.1022 0.127911 19.0259 0.127911 18.9387C0.127911 18.8679 0.053296 18.7943 0.053296 18.7099C0.053296 18.639 0.11459 18.56 0.11459 18.481C0.11459 18.4074 0.109259 18.3311 0.109259 18.2521C0.109259 18.1786 0.119917 18.1023 0.119917 18.0233C0.119917 17.9497 0.127911 17.8734 0.127911 17.7944C0.127911 17.7154 0.138573 17.6445 0.138573 17.5655C0.138573 17.4865 0.0932695 17.413 0.0959344 17.3367C0.0985992 17.2604 0.130579 17.1868 0.130579 17.1078C0.130579 17.0288 0.0959329 16.9552 0.0985978 16.8789C0.101263 16.8026 0.0746178 16.7263 0.0772826 16.6501C0.0799475 16.5738 0.127914 16.5002 0.130579 16.4239C0.133243 16.3476 0.135908 16.2713 0.138573 16.1951C0.141238 16.1188 0.159889 16.0425 0.165219 15.9662C0.170548 15.8899 0.130576 15.8109 0.135905 15.7346C0.141235 15.6583 0.213189 15.5847 0.218519 15.5085C0.223848 15.4322 0.186539 15.3531 0.191869 15.2769C0.197198 15.2006 0.199864 15.1243 0.205194 15.048C0.210523 14.9717 0.197199 14.8927 0.205194 14.8164C0.213188 14.7401 0.26382 14.6693 0.271815 14.593C0.279809 14.5167 0.277144 14.4377 0.287803 14.3641C0.298462 14.2906 0.33044 14.2143 0.341099 14.1407C0.351758 14.0671 0.365083 13.9881 0.378407 13.9146C0.391731 13.8383 0.391731 13.7593 0.40772 13.6884C0.423709 13.6121 0.381073 13.5222 0.397063 13.4514C0.415716 13.3751 0.500992 13.3179 0.52231 13.2498C0.546294 13.1762 0.522308 13.089 0.548956 13.0182C0.575605 12.9473 0.647555 12.8901 0.668873 12.8165C0.690192 12.743 0.668874 12.6558 0.690192 12.5822C0.711511 12.5087 0.756817 12.4433 0.7808 12.3724C0.804784 12.3016 0.834095 12.228 0.858079 12.1572C0.882062 12.0863 0.916704 12.0155 0.940688 11.9447C0.964671 11.8738 0.991322 11.8003 1.01797 11.7294C1.04462 11.6586 1.04728 11.5768 1.07393 11.506C1.10058 11.4352 1.17786 11.3834 1.20451 11.3126C1.23116 11.2417 1.25514 11.1682 1.28179 11.0973C1.30844 11.0265 1.34042 10.9584 1.36706 10.8848C1.39371 10.8112 1.3564 10.7159 1.38572 10.645C1.41503 10.5742 1.463 10.5115 1.49231 10.4407C1.52162 10.3698 1.55893 10.3045 1.58825 10.2336C1.61756 10.1628 1.59624 10.0701 1.62822 10.002C1.6602 9.93391 1.7508 9.89032 1.78011 9.81948C1.80943 9.74864 1.83341 9.6778 1.86539 9.60696C1.89737 9.53612 1.89204 9.45165 1.92401 9.38081C1.95599 9.30997 2.03061 9.26366 2.06259 9.19554C2.09457 9.12743 2.07591 9.03206 2.11055 8.96395C2.1452 8.89583 2.2358 8.85769 2.26778 8.78957C2.29975 8.72146 2.28377 8.6261 2.31841 8.55798C2.35305 8.48987 2.37704 8.4163 2.41434 8.35091C2.45165 8.28552 2.54226 8.24738 2.57957 8.18199C2.61687 8.11387 2.67283 8.05393 2.71014 7.98582C2.74745 7.9177 2.78742 7.84686 2.82473 7.77875C2.86204 7.71063 2.84339 7.6071 2.88336 7.53898C2.92333 7.47087 2.98729 7.4191 3.02726 7.35098C3.06723 7.28287 3.09388 7.20658 3.13385 7.13846C3.17382 7.07035 3.24577 7.02403 3.28841 6.95592C3.33105 6.8878 3.35503 6.81151 3.39767 6.7434C3.44031 6.67528 3.51226 6.63169 3.55489 6.5663C3.59753 6.50091 3.58154 6.39465 3.62685 6.32926C3.67215 6.26387 3.77341 6.24207 3.81872 6.17668C3.86402 6.11129 3.86668 6.01593 3.91465 5.95326C3.96262 5.8906 4.00259 5.82248 4.05055 5.75981C4.09852 5.69715 4.1385 5.62631 4.18646 5.56637C4.23443 5.50643 4.29572 5.45193 4.34635 5.39199C4.39698 5.33205 4.48492 5.30753 4.53822 5.24759C4.59152 5.18765 4.62883 5.11681 4.68212 5.05959C4.73542 5.00237 4.81003 4.96695 4.86333 4.91246C4.91663 4.85797 4.98058 4.80893 5.03388 4.75444C5.08718 4.69994 5.11916 4.62093 5.17512 4.56644C5.23108 4.51195 5.30037 4.4738 5.35633 4.41931C5.41229 4.36482 5.44693 4.2858 5.50289 4.23404C5.55885 4.18227 5.6388 4.15502 5.69743 4.10326C5.75605 4.05149 5.82534 4.01334 5.88397 3.9643C5.94259 3.91526 5.97724 3.83352 6.03853 3.78448C6.09982 3.73543 6.13979 3.66187 6.20108 3.61555C6.26237 3.56923 6.35564 3.56378 6.41693 3.51746C6.47822 3.47115 6.55284 3.44118 6.61413 3.39758C6.67542 3.35399 6.72605 3.2886 6.79001 3.245C6.85397 3.20141 6.91792 3.15509 6.98188 3.11422C7.04583 3.07335 7.10446 3.01614 7.16842 2.97527C7.23237 2.9344 7.31232 2.91533 7.37894 2.87446C7.44556 2.83359 7.49086 2.75458 7.55748 2.71643C7.62411 2.67829 7.72803 2.70826 7.79465 2.67284C7.86128 2.63742 7.90125 2.54751 7.96787 2.51481C8.03449 2.48212 8.10644 2.45759 8.17306 2.42217C8.23968 2.38675 8.29298 2.32409 8.3596 2.28867C8.42622 2.25325 8.52215 2.27777 8.58878 2.24507C8.6554 2.21238 8.71402 2.15789 8.78064 2.12247C8.84727 2.08705 8.93254 2.0925 8.99916 2.05708C9.06578 2.02166 9.12974 1.97806 9.19636 1.94537C9.26298 1.91267 9.32427 1.86363 9.39089 1.83093C9.45752 1.79824 9.53479 1.78189 9.60142 1.7492C9.66804 1.7165 9.73732 1.68653 9.80661 1.65656C9.8759 1.62659 9.94518 1.60207 10.0145 1.56937C10.0838 1.53668 10.1477 1.49853 10.2143 1.46584C10.281 1.43314 10.3582 1.42224 10.4275 1.39227C10.4995 1.3623 10.5528 1.28874 10.6247 1.26149C10.6967 1.23425 10.7713 1.21245 10.8432 1.1852C10.9152 1.15796 10.9898 1.13616 11.0617 1.10891C11.1337 1.08167 11.1977 1.0299 11.2723 1.00538C11.3469 0.980858 11.4268 0.978133 11.4988 0.953612C11.5707 0.92909 11.648 0.910018 11.72 0.888221C11.7919 0.866424 11.8639 0.831005 11.9385 0.809208C12.0131 0.787411 12.0877 0.773788 12.1623 0.751991C12.2369 0.730194 12.3116 0.711122 12.3862 0.69205C12.4608 0.672977 12.5354 0.65663 12.6127 0.640282C12.69 0.623935 12.7672 0.623935 12.8419 0.607587C12.9165 0.591239 12.9938 0.58579 13.071 0.572167C13.1483 0.558544 13.2176 0.523124 13.2949 0.509501C13.3722 0.495878 13.4468 0.48498 13.5241 0.474081C13.6013 0.463183 13.6706 0.408691 13.7479 0.397792C13.8252 0.386894 13.9025 0.365097 13.9824 0.354199C14.0624 0.3433 14.1503 0.411415 14.2276 0.400517C14.3049 0.389618 14.3768 0.324228 14.4541 0.31333C14.5314 0.302431 14.6086 0.269736 14.6859 0.258837C14.7632 0.247939 14.8512 0.302431 14.9284 0.291533C15.0057 0.280634 15.0777 0.212519 15.1549 0.201621C15.2322 0.190722 15.3095 0.158027 15.3868 0.147129C15.4641 0.13623 15.5467 0.149853 15.624 0.141679C15.7012 0.133506 15.7892 0.190722 15.8665 0.179824C15.9437 0.168926 16.0157 0.0926366 16.093 0.0844628C16.1702 0.0762889 16.2529 0.10626 16.3328 0.0980858C16.4127 0.089912 16.4874 0.0463183 16.5673 0.0408691C16.6473 0.0354199 16.7272 0.0735643 16.8071 0.0708397C16.8871 0.0681151 16.9644 0.0190722 17.0416 0.0163476C17.1189 0.013623 17.1989 0 17.2788 0C17.3588 0 17.436 0.0299707 17.516 0.0299707C17.5959 0.0299707 17.6732 0.0163476 17.7532 0.0163476C17.8331 0.0163476 17.9157 0.013623 17.9957 0.013623C18.0783 0.013623 18.1609 0.0217968 18.2435 0.0245214C18.3261 0.0272461 18.406 0.0490429 18.4887 0.0544921C18.5713 0.0599413 18.6539 0.0381445 18.7338 0.0408691C18.8138 0.0435937 18.8937 0.089912 18.9763 0.0926366C19.0589 0.0953612 19.1389 0.0653905 19.2215 0.0653905C19.2961 0.0653905 19.3707 0.133506 19.4453 0.13623C19.5199 0.138955 19.5946 0.119883 19.6692 0.122607C19.7438 0.125332 19.8211 0.0708397 19.8957 0.0735643C19.9703 0.0762889 20.0423 0.138955 20.1169 0.144404C20.1915 0.149853 20.2661 0.141679 20.3407 0.147129C20.4153 0.152578 20.4926 0.119883 20.5672 0.128056C20.6418 0.13623 20.7165 0.147129 20.7911 0.155302C20.8657 0.163476 20.9296 0.24249 21.0043 0.253388C21.0789 0.264287 21.1562 0.24249 21.2308 0.253388C21.3054 0.264287 21.38 0.27246 21.452 0.286083C21.5239 0.299707 21.6012 0.30788 21.6731 0.321503C21.7451 0.335126 21.817 0.362372 21.889 0.37872C21.9609 0.395068 22.0436 0.375995 22.1155 0.392343C22.1875 0.408691 22.2461 0.493153 22.318 0.512226C22.39 0.531298 22.4593 0.563993 22.5312 0.583065C22.6032 0.602138 22.6804 0.599413 22.7524 0.62121C22.8244 0.643007 22.9123 0.604862 22.9842 0.629384C23.0562 0.653905 23.1122 0.724745 23.1814 0.749266C23.2507 0.773788 23.336 0.743817 23.4053 0.768339C23.4746 0.79286 23.5199 0.888221 23.5892 0.910018C23.6584 0.931815 23.7277 0.961785 23.797 0.983582C23.8663 1.00538 23.9462 0.997205 24.0155 1.019C24.0848 1.0408 24.1461 1.08712 24.2181 1.11164C24.29 1.13616 24.3566 1.15796 24.4259 1.18248C24.4952 1.207 24.5805 1.18248 24.6498 1.207C24.719 1.23152 24.7777 1.28329 24.847 1.30781C24.9162 1.33233 24.9802 1.36775 25.0495 1.39227C25.1188 1.41679 25.1987 1.4059 25.268 1.43042C25.3373 1.45494 25.4012 1.49308 25.4705 1.5176C25.5452 1.54485 25.6331 1.54213 25.705 1.5721C25.777 1.60207 25.8196 1.7056 25.8916 1.7383C25.9635 1.77099 26.0568 1.76009 26.1261 1.79551C26.1954 1.83093 26.2647 1.87453 26.3339 1.91267C26.4032 1.95082 26.4858 1.96444 26.5551 2.00531C26.6244 2.04618 26.6884 2.09522 26.755 2.13609C26.8216 2.17696 26.8669 2.25597 26.9335 2.29957C27.0002 2.34316 27.0534 2.4031 27.1201 2.44942C27.1867 2.49574 27.2533 2.53661 27.3173 2.58293C27.3812 2.62924 27.4532 2.66739 27.5171 2.71371C27.5811 2.76002 27.6477 2.80362 27.7117 2.84994C27.7756 2.89626 27.8529 2.92623 27.9169 2.97527C27.9755 3.02159 28.0314 3.07063 28.0901 3.11695C28.1487 3.16327 28.2047 3.21231 28.2606 3.26135C28.3166 3.3104 28.3805 3.34854 28.4392 3.39758C28.4978 3.44663 28.5644 3.48205 28.6204 3.53109C28.6763 3.58013 28.7456 3.61555 28.8016 3.66459C28.8575 3.71364 28.8762 3.80627 28.9322 3.85532C28.9881 3.90436 29.0201 3.98065 29.0734 4.03242C29.1267 4.08418 29.188 4.12778 29.2413 4.17954C29.2946 4.23131 29.4012 4.22586 29.4545 4.27763C29.5078 4.3294 29.5531 4.38934 29.6064 4.44383C29.6597 4.49832 29.6756 4.58551 29.7289 4.64C29.7822 4.69449 29.8515 4.72991 29.9022 4.78168C29.9528 4.83345 29.9661 4.92609 30.0168 4.98058C30.0674 5.03507 30.1367 5.07321 30.1873 5.12771C30.2379 5.1822 30.2912 5.23669 30.3392 5.29118C30.3898 5.3484 30.4485 5.39744 30.4964 5.45738C30.5444 5.51732 30.6297 5.5473 30.675 5.60996C30.7203 5.67263 30.7203 5.76799 30.7656 5.83065C30.8109 5.89332 30.9041 5.92057 30.9468 5.98323C30.9894 6.0459 30.9947 6.13853 31.0374 6.2012C31.08 6.26387 31.152 6.31018 31.1946 6.37285C31.2372 6.43552 31.2692 6.50908 31.3119 6.57175C31.3545 6.63441 31.3625 6.72432 31.4051 6.78699C31.4504 6.85238 31.5064 6.91232 31.5517 6.97771C31.597 7.0431 31.6823 7.08125 31.7276 7.14664C31.7729 7.21203 31.7542 7.32374 31.7995 7.39185C31.8448 7.45997 31.9434 7.48721 31.9887 7.55533C32.034 7.62344 32.0873 7.68339 32.1326 7.74878C32.1779 7.81417 32.1619 7.92315 32.2046 7.99127C32.2472 8.05938 32.3405 8.09208 32.3858 8.16019C32.4311 8.22831 32.4444 8.31549 32.4871 8.38361C32.5297 8.45172 32.543 8.53346 32.583 8.60158C32.623 8.66969 32.6683 8.73508 32.7029 8.8032C32.7376 8.87131 32.7988 8.93126 32.8335 9.0021C32.8681 9.07293 32.9241 9.1356 32.9561 9.20644C32.988 9.27728 33.0094 9.35629 33.0387 9.42986C33.068 9.50342 33.1026 9.57699 33.1293 9.65055C33.1559 9.72411 33.1799 9.8004 33.2066 9.87669C33.2332 9.95298 33.2652 10.0238 33.2918 10.1001C33.3185 10.1764 33.3451 10.25 33.3718 10.3235C33.3984 10.3971 33.4091 10.4788 33.4357 10.5524C33.4571 10.6123 33.4251 10.705 33.4517 10.7922C33.4704 10.8603 33.5263 10.9229 33.5477 11.0047C33.5663 11.0755 33.5557 11.1573 33.577 11.2363C33.593 11.3071 33.6489 11.3752 33.6676 11.4542C33.6836 11.5278 33.7422 11.5932 33.7608 11.6722C33.7768 11.7458 33.7262 11.8357 33.7449 11.9147C33.7608 11.9883 33.7715 12.0646 33.7875 12.1436C33.8035 12.2226 33.8355 12.2907 33.8488 12.367C33.8621 12.4433 33.8488 12.525 33.8621 12.6013C33.8754 12.6776 33.9314 12.743 33.9474 12.822C33.9634 12.901 33.9687 12.9746 33.982 13.0536C33.9954 13.1326 34.054 13.198 34.0673 13.2743C34.0806 13.3506 34.0673 13.4323 34.0806 13.5086C34.094 13.5849 34.07 13.6666 34.0833 13.7429C34.0966 13.8192 34.1819 13.8819 34.1952 13.9582C34.2085 14.0344 34.1739 14.1189 34.1872 14.1952C34.2006 14.2715 34.2592 14.3396 34.2725 14.4159C34.2858 14.4922 34.2458 14.5766 34.2592 14.6529C34.2725 14.7292 34.3231 14.8001 34.3365 14.8763C34.3498 14.9526 34.3365 15.0344 34.3498 15.1107C34.3631 15.1869 34.4057 15.2605 34.4164 15.3368C34.4271 15.4131 34.4084 15.4976 34.4191 15.5738C34.4297 15.6501 34.4404 15.7291 34.451 15.8054C34.4617 15.8817 34.5017 15.9553 34.5123 16.0316C34.523 16.1079 34.4857 16.1951 34.4963 16.2713C34.507 16.3476 34.5177 16.4266 34.531 16.5029C34.5443 16.5792 34.6296 16.6446 34.6402 16.7209C34.6509 16.7972 34.5949 16.8871 34.6056 16.9634C34.6163 17.0397 34.6323 17.1187 34.6429 17.1923C34.6536 17.2658 34.7069 17.3394 34.7175 17.4157C34.7282 17.492 34.7628 17.5683 34.7735 17.6445C34.7841 17.7208 34.7229 17.8107 34.7335 17.887C34.7442 17.9633 34.8028 18.0369 34.8135 18.1104C34.8241 18.184 34.8508 18.263 34.8614 18.3393C34.8721 18.4183 34.8215 18.5028 34.8321 18.5791C34.8428 18.6581 34.8748 18.7344 34.8827 18.8079C34.8907 18.8897 34.8614 18.9714 34.8694 19.045C34.8774 19.1267 34.8907 19.203 34.8961 19.2739C34.9041 19.3583 34.9334 19.4346 34.936 19.5027C34.9414 19.5954 35 19.6744 35 19.7343C35 19.8161 34.944 19.8978 34.9414 19.9823C34.9387 20.0667 34.9334 20.1485 34.9334 20.2302C34.9334 20.3119 34.96 20.3964 34.9574 20.4781C34.9547 20.5599 34.976 20.6443 34.9734 20.7261C34.9707 20.8078 34.9334 20.8923 34.9334 20.974C34.9334 21.0557 34.9707 21.1402 34.968 21.2219C34.9654 21.3037 34.9227 21.3881 34.9227 21.4699C34.9227 21.5489 34.936 21.6252 34.9334 21.7042C34.9307 21.7832 34.9174 21.8595 34.9147 21.9385C34.9121 22.0175 34.8907 22.0938 34.8881 22.1728C34.8854 22.2519 34.9547 22.3309 34.9547 22.4072C34.9547 22.4834 34.9281 22.5625 34.9281 22.6415C34.9281 22.7205 34.9174 22.7968 34.9174 22.8758C34.9174 22.9548 34.9254 23.0311 34.9254 23.1101C34.9254 23.1891 34.8614 23.2654 34.8614 23.3444C34.8614 23.4234 34.9094 23.5024 34.9094 23.5787C34.9094 23.655 34.8641 23.734 34.8614 23.813C34.8588 23.8921 34.8561 23.9683 34.8534 24.0474C34.8508 24.1264 34.8481 24.2027 34.8481 24.2817C34.8481 24.3607 34.8987 24.4397 34.8987 24.516C34.8987 24.5923 34.9014 24.6713 34.8987 24.7503C34.8961 24.8293 34.9201 24.9056 34.9174 24.9846C34.9147 25.0636 34.8694 25.1399 34.8668 25.2189C34.8641 25.298 34.8881 25.3742 34.8881 25.4533C34.8881 25.5323 34.8641 25.6086 34.8641 25.6876C34.8641 25.7666 34.9174 25.8456 34.9174 25.9219C34.9174 25.9982 34.8561 26.0772 34.8534 26.1562C34.8508 26.2352 34.8801 26.3115 34.8801 26.3905C34.8801 26.4695 34.8561 26.5458 34.8561 26.6248C34.8561 26.7039 34.8614 26.7801 34.8614 26.8592C34.8614 26.9382 34.8801 27.0145 34.8801 27.0935C34.8801 27.1698 34.8854 27.2488 34.8827 27.3251C34.8801 27.4014 34.8188 27.4804 34.8188 27.5567C34.8188 27.6329 34.8801 27.712 34.8801 27.791C34.8801 27.87 34.8508 27.9463 34.8508 28.0226C34.8508 28.0989 34.8108 28.1779 34.8108 28.2542C34.8108 28.3304 34.8614 28.4095 34.8588 28.4857C34.8561 28.562 34.8668 28.641 34.8641 28.7173C34.8614 28.7936 34.8748 28.8726 34.8748 28.9489C34.8748 29.0252 34.8668 29.1042 34.8641 29.1805C34.8614 29.2568 34.8641 29.3358 34.8641 29.4121C34.8641 29.4884 34.8641 29.5674 34.8641 29.6437C34.8641 29.72 34.8748 29.799 34.8748 29.8753C34.8748 29.9516 34.8534 30.0306 34.8534 30.1069C34.8534 30.1832 34.8481 30.2622 34.8454 30.3385C34.8428 30.4148 34.7921 30.4938 34.7921 30.5701C34.7921 30.6464 34.7815 30.7254 34.7815 30.8017C34.7815 30.8779 34.8135 30.957 34.8108 31.0333C34.8081 31.1095 34.8694 31.1886 34.8668 31.2676C34.8641 31.3466 34.8108 31.4229 34.8081 31.4992C34.8055 31.5754 34.8374 31.6545 34.8348 31.7308C34.8321 31.807 34.8428 31.8861 34.8401 31.9623C34.8374 32.0386 34.7735 32.1149 34.7735 32.1939C34.7735 32.2729 34.7841 32.3492 34.7841 32.4255C34.7841 32.5018 34.8081 32.5808 34.8081 32.6571C34.8081 32.7334 34.7522 32.8097 34.7495 32.8887C34.7468 32.9677 34.7788 33.044 34.7762 33.123C34.7735 33.202 34.7388 33.2756 34.7362 33.3546C34.7362 33.4336 34.7868 33.5126 34.7841 33.5917C34.7815 33.6707 34.8081 33.7497 34.8055 33.8287C34.8028 33.9077 34.8001 33.9867 34.7975 34.063C34.7948 34.1393 34.7388 34.2156 34.7335 34.2946C34.7282 34.3736 34.7149 34.4499 34.7095 34.5289C34.7042 34.6079 34.7175 34.6869 34.7149 34.766C34.7122 34.845 34.6935 34.9213 34.6882 35.0003C34.6829 35.0793 34.7255 35.161 34.7202 35.2373C34.7149 35.3136 34.7095 35.3926 34.7042 35.4716C34.6989 35.5506 34.6829 35.6269 34.6776 35.7059C34.6722 35.785 34.6829 35.864 34.6776 35.943C34.6722 36.022 34.5736 36.0928 34.5683 36.1691C34.563 36.2454 34.5576 36.3244 34.5523 36.4034C34.547 36.4825 34.5869 36.5642 34.5816 36.6432C34.5763 36.7222 34.5496 36.7985 34.5443 36.8748C34.539 36.9511 34.5257 37.0301 34.5177 37.1091C34.5097 37.1881 34.5416 37.2699 34.5363 37.3462C34.531 37.417 34.5017 37.4878 34.491 37.5587C34.4804 37.6295 34.459 37.6976 34.4457 37.7685C34.4324 37.8393 34.459 37.9183 34.4457 37.9892C34.4324 38.06 34.3791 38.1199 34.3604 38.1881C34.3418 38.2562 34.2832 38.3134 34.2618 38.3815C34.2405 38.4496 34.2832 38.5395 34.2618 38.6077C34.2379 38.6867 34.1739 38.7739 34.1073 38.8447C34.0407 38.9155 33.9474 38.951 33.8754 38.9891C33.8115 39.0218 33.7662 39.0845 33.7022 39.1172C33.6383 39.1498 33.5743 39.1798 33.513 39.2098C33.4517 39.2398 33.3585 39.2125 33.2945 39.2452C33.2305 39.2779 33.1746 39.3188 33.1106 39.3515C33.0467 39.3842 32.9721 39.3923 32.9108 39.4278C32.8468 39.4632 32.8042 39.534 32.7376 39.564C32.6709 39.594 32.5963 39.5994 32.5297 39.6267C32.4631 39.6539 32.3911 39.6648 32.3218 39.6866C32.2526 39.7084 32.1939 39.7602 32.122 39.7765C32.05 39.7929 31.9834 39.831 31.9115 39.8392C31.8395 39.8473 31.7649 39.8201 31.6929 39.8228C31.6157 39.8228 31.5384 39.8419 31.4611 39.8419C31.3838 39.8419 31.3065 39.8501 31.2293 39.8501C31.152 39.8501 31.0747 39.8937 30.9974 39.8937C30.9201 39.8937 30.8429 39.8746 30.7656 39.8746C30.6883 39.8746 30.611 39.8746 30.5337 39.8746C30.4564 39.8746 30.3792 39.8637 30.3019 39.8664C30.2246 39.8691 30.1473 39.8855 30.07 39.8855C29.9928 39.8855 29.9155 39.8937 29.8382 39.8964C29.7609 39.8991 29.6836 39.8637 29.6064 39.8637C29.5291 39.8637 29.4518 39.8719 29.3745 39.8746C29.2972 39.8773 29.22 39.8528 29.1427 39.8528C29.0654 39.8528 28.9881 39.9182 28.9108 39.9182C28.8336 39.9182 28.7563 39.8582 28.679 39.8582C28.6017 39.8582 28.5244 39.861 28.4472 39.8637C28.3699 39.8664 28.2926 39.8746 28.2153 39.8746C28.138 39.8746 28.0608 39.9046 27.9835 39.9046C27.9062 39.9046 27.8289 39.8473 27.7516 39.8473C27.6744 39.8473 27.5971 39.8828 27.5198 39.8828C27.4425 39.8828 27.3652 39.9318 27.288 39.9318C27.2107 39.9318 27.1334 39.8855 27.0561 39.8855C26.9788 39.8855 26.9016 39.8746 26.8243 39.8746C26.747 39.8746 26.6697 39.8991 26.5924 39.8991C26.5152 39.8991 26.4379 39.91 26.3606 39.91C26.2833 39.91 26.2087 39.8364 26.1314 39.8364C26.0541 39.8364 25.9769 39.861 25.8996 39.861C25.8223 39.861 25.745 39.8964 25.6677 39.8964C25.5905 39.8964 25.5132 39.9018 25.4359 39.8991C25.3586 39.8964 25.2813 39.8664 25.2041 39.8637C25.1268 39.861 25.0495 39.8473 24.9722 39.8446C24.8949 39.8419 24.8176 39.8364 24.7404 39.8337C24.6631 39.831 24.5858 39.8501 24.5085 39.8473C24.4312 39.8446 24.3566 39.7956 24.2794 39.7901C24.2021 39.7847 24.1221 39.861 24.0448 39.8555C23.9676 39.8528 23.8876 39.8446 23.8103 39.8419C23.7331 39.8392 23.6558 39.7574 23.5785 39.7547C23.5012 39.752 23.4213 39.7493 23.344 39.7465C23.2667 39.7438 23.1868 39.7629 23.1095 39.7602C23.0322 39.7574 22.9523 39.8065 22.8723 39.8038C22.7924 39.801 22.7151 39.7956 22.6378 39.7929C22.5605 39.7901 22.4833 39.7302 22.4033 39.7275C22.3234 39.7247 22.2461 39.7384 22.1688 39.7356C22.0915 39.7329 22.0116 39.7384 21.9343 39.7356C21.857 39.7329 21.7771 39.7629 21.6998 39.7629C21.6225 39.7629 21.5452 39.7275 21.4653 39.7247C21.3853 39.722 21.3081 39.7738 21.2281 39.7711C21.1482 39.7683 21.0736 39.6893 20.9963 39.6866C20.919 39.6839 20.839 39.7547 20.7591 39.752C20.6792 39.7493 20.6019 39.7002 20.5246 39.6975C20.5246 39.7084 20.5246 39.7384 20.5246 39.7493L20.5406 39.7711Z" fill="#007257"/>
</svg>
