<svg width="25" height="24" viewBox="0 0 25 24" fill="none" xmlns="http://www.w3.org/2000/svg">
<path fill-rule="evenodd" clip-rule="evenodd" d="M21.4558 20.4853C26.1421 15.799 26.1421 8.20101 21.4558 3.51472C16.7696 -1.17157 9.17157 -1.17157 4.48528 3.51472C-0.20101 8.20101 -0.20101 15.799 4.48528 20.4853C9.17157 25.1716 16.7696 25.1716 21.4558 20.4853ZM12.9863 17.0195C12.434 17.0195 11.9863 16.5718 11.9863 16.0195L11.9863 10.9669C11.9863 10.8589 12.0034 10.7549 12.0351 10.6574L10.5515 12.141C10.161 12.5315 9.52783 12.5315 9.1373 12.141C8.74678 11.7505 8.74678 11.1173 9.1373 10.7268L12.2792 7.58492C12.6697 7.19439 13.3029 7.19439 13.6934 7.58492L16.8353 10.7268C17.2258 11.1173 17.2258 11.7505 16.8353 12.141C16.4447 12.5315 15.8116 12.5315 15.4211 12.141L13.9375 10.6574C13.9692 10.7549 13.9863 10.8589 13.9863 10.9669L13.9863 16.0195C13.9863 16.5718 13.5386 17.0195 12.9863 17.0195ZM13.2958 10.0157L12.9863 9.70624L12.6768 10.0157C12.7743 9.98402 12.8783 9.9669 12.9863 9.9669C13.0943 9.9669 13.1983 9.98402 13.2958 10.0157Z" fill="white"/>
</svg>
