<svg width="129" height="129" viewBox="0 0 129 129" fill="none" xmlns="http://www.w3.org/2000/svg">
<path d="M101.786 128.468C99.8718 127.746 99.0558 126.709 98.742 125.483C98.5851 124.949 98.4596 123.912 98.2713 122.592C98.1457 121.744 98.1144 120.77 97.9888 119.701C97.8633 118.79 97.675 117.816 97.5494 116.811C97.4553 115.868 97.3925 114.894 97.267 113.888C97.1415 112.883 97.0787 111.94 96.9845 110.966C96.8904 109.992 96.7335 109.018 96.6393 108.044C96.5452 107.069 96.5138 106.064 96.4197 105.121C96.3255 104.084 96.1058 103.142 96.0431 102.23C95.9489 101.162 96.0431 100.156 95.9803 99.308C95.8861 97.894 95.8861 96.857 95.9489 96.4171C96.0744 95.223 95.9489 94.0604 95.7606 92.9292C95.5723 91.7979 95.1957 90.6667 94.6936 89.5983C94.2542 88.6871 93.4696 88.6556 92.6851 89.1898C92.1202 89.5983 91.5553 90.2896 91.1473 91.0124C90.551 92.0493 90.2372 92.3635 89.8606 93.5262C89.5154 94.5946 88.3228 95.5058 87.8834 96.9827C87.5696 96.7627 86.8164 96.04 85.7494 95.0345C85.1217 94.4374 84.3371 93.8404 83.5525 93.0548C82.8935 92.4264 82.1717 91.7351 81.4185 91.0124C80.7281 90.3525 80.0376 89.6612 79.3158 88.9385C78.594 88.2157 77.9977 87.4302 77.3073 86.7703C76.6169 86.1104 75.7695 85.5134 75.0791 84.8221C74.3259 84.0993 73.6041 83.4395 72.945 82.811C72.1604 82.0568 71.5014 81.3341 70.8737 80.7371C69.8381 79.763 68.9907 79.1345 68.6141 78.8831C67.6726 78.2233 66.9194 77.2491 66.1663 76.3379C65.4131 75.4266 64.5971 74.5782 63.8125 73.7298C63.1221 72.9756 62.5572 72.0958 61.8668 71.3417C61.1763 70.5875 60.4545 69.8648 59.7641 69.0792C59.0736 68.2936 58.4146 67.5395 57.7556 66.7539C57.0965 65.9683 56.4375 65.1828 55.7784 64.3972C55.1194 63.6116 54.3975 62.8889 53.7699 62.0719C53.1736 61.2863 52.6401 60.5008 52.1066 59.6524C51.5731 58.8039 51.1337 57.9555 50.7257 57.0757C50.3177 56.1958 49.9725 55.2846 49.6901 54.3419C49.4076 53.3992 49.0938 52.4879 48.9369 51.5138C48.7486 50.3512 48.5917 49.1571 48.4661 47.9631C48.3406 46.769 48.3092 45.5749 48.1837 44.4123C48.0581 43.2496 47.964 42.0556 47.8698 40.8615C47.7757 40.0131 48.0268 39.1018 48.2778 38.2534C48.5603 37.2479 48.9055 36.3052 49.1879 35.2996C49.4704 34.2941 49.7528 33.3514 50.0981 32.3773C50.4433 31.4032 50.7257 30.4291 51.2278 29.5178C51.6986 28.638 52.3576 27.8524 53.0167 27.0669C53.6757 26.2813 54.3662 25.5586 55.1507 24.9301C55.9353 24.3016 56.8141 23.736 57.6928 23.2647C58.5715 22.7933 59.5444 22.4791 60.5173 22.1963C61.4902 21.9135 62.463 21.5993 63.4673 21.4736C64.4716 21.3479 65.4758 21.4736 66.5115 21.5679C67.5471 21.6621 68.4886 21.8507 69.4615 22.1649C70.403 22.4477 71.3131 22.8562 72.2232 23.359C73.0706 23.8303 73.8865 24.3959 74.7025 25.0872C75.5184 25.7471 76.3972 26.3127 77.1504 27.004C77.9036 27.6953 78.594 28.4809 79.3158 29.2665C80.0376 30.052 80.6653 30.8376 81.2616 31.686C81.8578 32.5344 82.5169 33.3514 83.0504 34.2313C83.5839 35.1111 83.9919 36.0538 84.4313 37.0279C84.7137 37.6564 85.2159 38.3162 85.7494 38.7562C87.0988 39.9502 88.5111 39.5732 89.3898 38.002C89.8919 37.0907 90.3627 36.1481 90.8648 35.2054C91.367 34.2627 91.9946 33.4143 92.4654 32.4716C92.9675 31.4975 93.4383 30.4605 94.0032 29.5493C94.5681 28.638 95.2585 27.7267 95.9803 26.9097C96.7021 26.0927 97.4239 25.2443 98.2713 24.553C98.9931 23.956 99.7463 23.3904 100.531 22.919C101.315 22.4477 102.226 22.1335 103.104 21.8192C103.983 21.505 104.862 21.3165 105.803 21.0965C106.745 20.8766 107.623 20.8137 108.565 20.7194C109.601 20.6252 110.605 20.4995 111.578 20.5623C112.551 20.6252 113.618 20.6252 114.591 20.8137C115.563 21.0022 116.536 21.3165 117.478 21.6621C118.419 22.0078 119.329 22.4477 120.208 22.9819C121.087 23.5161 121.871 24.0817 122.656 24.7101C123.441 25.3386 124.131 26.0613 124.759 26.7841C125.386 27.5068 125.983 28.3552 126.453 29.235C126.924 30.1149 127.426 30.9633 127.677 31.9374C127.928 32.9115 127.96 33.8856 128.023 34.8911C128.054 35.8653 128.023 36.8079 127.991 37.7506C127.96 38.6933 127.897 39.6674 127.771 40.6101C127.646 41.5528 127.552 42.5269 127.363 43.4696C127.175 44.4123 126.924 45.3235 126.642 46.2662C126.359 47.2089 126.077 48.0887 125.763 49C125.418 49.9427 125.073 50.8854 124.665 51.7966C124.257 52.7079 123.817 53.6192 123.346 54.499C122.876 55.3788 122.374 56.2587 121.903 57.1385C121.432 58.0184 120.899 58.8668 120.396 59.7466C119.894 60.6265 119.518 61.5377 119.016 62.4176C118.608 63.1403 117.917 63.7059 117.321 64.3344C116.725 64.9628 116.097 65.5284 115.532 66.1255C114.936 66.7853 114.434 67.5395 113.837 68.1994C113.178 68.9221 112.802 69.9276 112.582 71.1217C112.394 72.1272 112.3 73.1956 112.3 74.3268C112.3 75.458 112.394 76.5264 112.456 77.5634C112.551 78.7574 112.613 79.8887 112.645 80.7685C112.676 81.7426 112.77 82.7167 112.802 83.6908C112.833 84.6649 112.927 85.6391 112.959 86.6132C112.99 87.5873 112.959 88.5614 112.959 89.5355C112.959 90.5096 112.896 91.4837 112.927 92.4578C112.959 93.4319 113.116 94.406 113.116 95.3801C113.116 96.3542 112.99 97.3284 113.021 98.3025C113.021 99.088 112.864 99.905 112.551 100.596C112.237 101.256 112.237 102.387 111.138 102.356C109.914 102.356 109.224 101.476 108.91 100.408C108.69 99.6536 108.596 98.8995 108.408 98.1453C108.22 97.3912 107.937 96.6685 107.78 95.9143C107.592 94.7517 107.561 93.589 107.529 92.4264C107.498 91.2637 107.592 90.1325 107.372 88.9699C107.247 88.3728 106.964 87.273 106.839 86.1732C106.651 84.9163 106.651 83.6594 106.651 83.3452C106.588 81.2713 106.023 80.36 104.046 80.4543C102.571 81.3027 103.073 82.7482 103.01 84.225C103.01 85.2934 102.979 86.2675 102.947 87.2102C102.916 88.2471 102.822 89.2213 102.79 90.1954C102.759 91.1695 102.728 92.175 102.728 93.1491C102.728 94.1232 102.634 95.0973 102.79 96.1029C102.916 97.077 103.198 98.0196 103.293 98.9938C103.387 99.9679 103.449 100.942 103.481 101.916C103.512 102.89 103.481 103.864 103.481 104.838C103.512 105.844 103.669 106.818 103.732 107.792C103.795 108.766 103.638 109.772 103.732 110.777C103.826 111.783 103.857 112.757 103.889 113.731C103.92 114.705 104.077 115.711 104.109 116.685C104.14 117.659 103.983 118.664 103.952 119.639C103.92 120.613 103.857 121.587 103.732 122.592C103.638 123.504 103.732 124.698 103.575 125.797C103.418 126.897 103.01 127.809 101.943 128.311L101.786 128.468Z" fill="#0096D8"/>
<path d="M34.9714 23.8616C35.4422 25.0556 35.9757 26.0926 36.4151 27.1924C36.8858 28.355 37.2624 29.4863 37.639 30.6175C37.9215 31.4345 38.2039 32.2201 38.3922 33.037C38.5805 33.854 38.8316 34.7025 38.9885 35.5194C39.1768 36.6192 39.3337 37.719 39.6475 38.7874C39.9614 39.8558 40.338 40.8928 40.7146 41.9611C41.0912 43.0295 41.4991 44.035 41.8757 45.1034C42.221 46.0461 42.472 46.9888 42.7231 47.9315C42.9741 48.8742 43.1625 49.8483 43.3194 50.8224C43.4763 51.7965 43.6646 52.7706 43.7587 53.7447C43.8529 54.7188 43.8529 55.6929 43.8529 56.6984C43.8529 57.704 43.8529 58.6467 43.7901 59.6522C43.7273 60.6577 43.6332 61.6004 43.5077 62.5745C43.4135 63.2972 43.0997 64.3028 42.7545 65.4654C42.5034 66.3453 42.1896 67.3194 41.813 68.2935C41.4678 69.2047 41.1225 70.1789 40.7146 71.0901C40.3066 72.0014 39.8358 72.9441 39.3651 73.7611C38.8316 74.7352 38.2667 75.5522 37.6704 76.2435C36.8544 77.1861 36.0385 77.7832 35.2225 77.7518C33.873 77.8775 32.7746 77.9089 31.6762 77.7832C30.5778 77.6575 29.5108 77.469 28.1927 77.0605C27.4709 76.8405 26.6235 76.3063 25.8075 75.5522C25.1171 74.9237 24.4895 74.1696 23.9246 73.4154C23.2655 72.5041 22.7006 71.6243 22.5437 70.9644C22.2926 69.9903 22.1357 68.9848 21.9788 67.9793C21.8219 66.9737 21.7277 65.9682 21.665 64.9627C21.6022 63.9571 21.5708 62.9516 21.6336 61.9146C21.6963 60.8777 21.6963 59.9036 21.8533 58.8666C21.9788 57.8611 22.1985 56.8556 22.3554 55.85C22.5123 54.8445 22.7634 53.8704 22.9517 52.8649C23.14 51.8593 23.3283 50.8538 23.548 49.8797C23.7676 48.9998 24.0815 48.12 24.4267 47.2402C24.7719 46.3603 25.1171 45.5433 25.4623 44.6635C25.8389 43.6894 26.3411 42.7781 26.7177 41.804C27.0943 40.8299 27.4709 39.8558 27.8788 38.9131C28.2868 37.9704 28.6006 36.9649 29.04 36.0222C29.4794 35.0481 29.9501 34.1368 30.3895 33.1627C30.8289 32.1886 31.2996 31.2774 31.739 30.3347C32.1783 29.392 32.6491 28.4493 33.0884 27.5066C33.5278 26.5639 33.9672 25.5898 34.4065 24.6471C34.5321 24.4272 34.6576 24.2386 34.9401 23.8616H34.9714Z" fill="#0096D8"/>
<path d="M11.591 0.200195C11.6538 1.23715 11.7165 2.2741 11.8735 3.24821C12.0304 4.22232 12.25 5.22785 12.4697 6.20196C12.6894 7.17607 12.9719 8.15018 13.2857 9.12429C13.7251 10.4755 14.133 11.8267 14.6038 13.1778C15.0745 14.529 15.5767 15.8488 16.016 17.2C16.3612 18.2369 16.5182 19.3367 16.7065 20.4051C16.9889 21.8505 17.1772 23.3274 17.4283 24.8043C17.6166 25.8727 17.7735 26.941 17.8676 28.0094C17.9618 29.0778 18.1187 30.1462 18.1187 31.2146C18.1187 32.2829 18.1187 33.3827 18.0559 34.4511C17.9932 35.5195 17.8676 36.5879 17.6793 37.6562C17.491 38.7246 17.2086 39.7301 16.8948 40.7985C16.5809 41.8669 16.2671 42.841 15.8277 43.8465C15.357 45.0092 14.7921 45.8576 14.1017 46.4232C13.2543 47.1459 12.25 47.4602 11.2144 47.523C10.1788 47.5859 9.17449 47.3659 8.13885 47.0831C6.88352 46.7374 5.78511 46.109 4.875 45.292C3.96488 44.475 3.21169 43.5009 2.58402 42.3382C2.01913 41.3013 1.57976 40.2329 1.20316 39.196C0.826566 38.159 0.481351 36.9964 0.293052 35.8651C0.104752 34.7339 0.0419856 33.5713 0.0106024 32.44C-0.0207808 31.3088 0.0106022 30.1462 0.198901 28.9835C0.387201 27.8209 0.66965 26.7525 0.952099 25.6213C1.23455 24.5843 1.42285 23.5474 1.70529 22.5104C1.98774 21.4735 2.39573 20.4994 2.70956 19.4624C3.02339 18.4255 3.27446 17.3885 3.61967 16.383C3.96489 15.3774 4.3101 14.3719 4.6867 13.3664C5.0633 12.3608 5.50266 11.3553 5.94203 10.3812C6.38139 9.40709 6.97767 8.49583 7.44842 7.52172C7.91917 6.54761 8.35853 5.5735 8.82928 4.5994C9.26864 3.71956 9.77078 2.90256 10.2729 2.05414C10.6495 1.42569 11.1203 0.797229 11.5282 0.200195H11.591Z" fill="#0096D8"/>
</svg>
