<svg width="32" height="36" viewBox="0 0 32 36" fill="none" xmlns="http://www.w3.org/2000/svg">
<path d="M20.7179 10.1934C20.9736 10.2026 21.1934 10.2743 21.3621 10.3726C21.563 10.4822 21.7487 10.6032 21.8947 10.766C22.0332 10.9344 22.0884 11.1654 22.2344 11.3281C22.4032 11.5211 22.5511 11.6706 22.6782 11.8238C22.8508 12.0377 23.0138 12.1757 23.1371 12.3082C23.3135 12.4955 23.4707 12.5313 23.6886 12.5689C23.861 12.5934 24.0542 12.6613 24.3269 12.5985C24.5087 12.5566 24.6999 12.4484 24.946 12.3819C25.1297 12.3267 25.3702 12.3473 25.6107 12.2731C25.8228 12.2085 26.0367 12.1306 26.2431 12.0584C26.4494 11.9862 26.6729 11.984 26.8945 11.9478C27.1028 11.9097 27.3054 11.864 27.5346 11.8694C27.7429 11.8786 27.9796 11.831 28.2221 11.8857C28.1201 12.0809 27.965 12.2686 27.8856 12.4467C27.7969 12.6438 27.6872 12.7973 27.5567 12.9547C27.4091 13.1367 27.3791 13.3962 27.2581 13.5819C27.1295 13.7734 26.9195 13.9195 26.8307 14.1165C26.74 14.3269 26.6683 14.5467 26.6098 14.7684C26.5514 14.99 26.5857 15.2248 26.567 15.4522C26.5559 15.6738 26.5581 15.8973 26.5868 16.1245C26.6097 16.3442 26.6536 16.5601 26.7087 16.7911C26.7601 17.0013 26.8816 17.1943 26.9652 17.4158C27.0601 17.6525 27.0264 17.9385 27.0702 18.2017C27.1103 18.4441 27.1238 18.6828 27.1734 18.9536C26.9613 18.9708 26.7908 18.9805 26.6033 18.9675C26.3949 18.9582 26.2055 18.9111 26.016 18.864C25.8133 18.815 25.6144 18.7868 25.4362 18.7074C25.2449 18.6262 25.0497 18.5715 24.8886 18.4675C24.6517 18.3257 24.4809 18.0986 24.2668 18.0345C24.0073 17.9571 23.7402 17.9802 23.5073 18.0013C23.2668 18.0281 23.0586 18.1609 22.8258 18.2767C22.6213 18.383 22.4492 18.548 22.2429 18.7149C22.082 18.8476 21.8738 18.9331 21.694 19.0564C21.5275 19.1816 21.3609 19.3068 21.1698 19.415C20.9937 19.5118 20.7969 19.6124 20.6019 19.6998C20.4145 19.7814 20.2137 19.8139 19.9998 19.8918C20.0431 19.6815 20.1584 19.4881 20.1942 19.2835C20.2375 19.0733 20.1956 18.8441 20.2389 18.6338C20.2897 18.3705 20.2762 18.1319 20.293 17.9178C20.3192 17.6375 20.3511 17.412 20.3054 17.2094C20.2503 16.9784 20.1591 16.7626 19.9752 16.581C19.8329 16.4391 19.6453 16.284 19.4008 16.1479C19.2131 16.0402 18.9763 15.9931 18.73 15.8703C18.4893 15.755 18.2486 15.6397 18.0098 15.5112C17.7786 15.377 17.6155 15.1916 17.3824 15.0706C17.4541 14.8508 17.5525 14.7768 17.6755 14.6725C17.8231 14.5379 17.9556 14.462 18.143 14.4277C18.3248 14.3858 18.518 14.359 18.6979 14.3304C18.9687 14.2809 19.228 14.1688 19.5102 14.1344C19.7791 14.0981 20.012 14.0297 20.2942 13.9952C20.3186 13.7755 20.4017 13.6182 20.3996 13.3947C20.3898 13.1769 20.3877 12.9534 20.3704 12.7413C20.3607 12.5235 20.2354 12.3096 20.2314 12.0994C20.2217 11.8816 20.2536 11.6561 20.2837 11.444C20.3081 11.2242 20.4613 11.0498 20.5387 10.8376C20.6067 10.6443 20.6083 10.3943 20.7501 10.2047" fill="#FFD400"/>
<path d="M1.97266 9.73892C2.22053 9.51703 2.39258 9.25734 2.6689 9.0733C2.8203 8.95948 2.98495 8.84755 3.14204 8.7413C3.29912 8.63506 3.42582 8.45688 3.5886 8.3582C3.75137 8.25952 3.94448 8.18543 4.11295 8.09432C4.30981 7.99371 4.51618 7.9215 4.65431 7.8058C4.82272 7.66734 5.01196 7.52507 5.09131 7.34694C5.17634 7.17638 5.17607 6.93963 5.17392 6.71613C5.17371 6.52673 5.08635 6.33174 5.02171 6.11968C4.94945 5.86596 4.83553 5.61987 4.79923 5.35095C4.76675 5.10287 4.89902 4.83755 4.91196 4.55532C4.92683 4.30718 4.88484 4.03071 4.95839 3.7503C5.16116 3.84667 5.34697 4.01502 5.54405 4.10382C5.74683 4.20018 5.95336 4.27003 6.15045 4.35882C6.34753 4.44761 6.58052 4.47386 6.7776 4.56265C6.97469 4.65145 7.13966 4.82361 7.34432 4.90671C7.5414 4.99551 7.7366 5.09757 7.94125 5.18067C8.13834 5.26946 8.37692 5.20858 8.574 5.29737C8.80689 5.22892 9.05696 5.27788 9.27654 5.1602C9.48854 5.04821 9.69105 4.90782 9.90681 4.76931C10.1074 4.64218 10.2929 4.47908 10.5011 4.34626C10.7017 4.21912 10.87 4.03331 11.0839 3.90806C11.2959 3.79607 11.5155 3.67838 11.7446 3.5891C11.9661 3.50551 12.2349 3.42186 12.4792 3.36855C12.4019 3.62812 12.3416 3.91041 12.2755 4.13777C12.1982 4.39734 12.0658 4.61531 11.9922 4.84836C11.9168 5.09467 11.8678 5.34474 11.7677 5.57404C11.6713 5.77681 11.5579 5.95687 11.5032 6.15202C11.4466 6.36043 11.3825 6.57454 11.3808 6.77721C11.3791 6.97987 11.5422 7.1653 11.6088 7.3641C11.6771 7.54964 11.6566 7.7902 11.8007 7.96618C11.9145 8.11757 12.1079 8.23289 12.2842 8.37285C12.4358 8.49579 12.5667 8.62253 12.6862 8.7815C12.8 8.93289 12.9725 9.05202 13.0712 9.21479C13.1699 9.37757 13.2212 9.58775 13.335 9.73914C13.142 9.90793 12.9263 10.0464 12.7237 10.1395C12.506 10.2439 12.258 10.2764 12.0345 10.3259C11.7978 10.3735 11.5591 10.3397 11.3281 10.3475C11.0894 10.3611 10.849 10.4352 10.6198 10.4298C10.3622 10.4339 10.1216 10.366 9.91897 10.4117C9.67469 10.465 9.44754 10.5883 9.26963 10.6984C9.07658 10.8198 8.90822 11.0057 8.76638 11.1952C8.63969 11.3734 8.57935 11.6083 8.47922 11.8376C8.37722 12.0802 8.33208 12.3511 8.20356 12.5899C8.08449 12.8097 7.91237 13.0221 7.78197 13.2741C7.6629 13.494 7.52117 13.7782 7.3832 14.036C7.26745 13.8505 7.07595 13.6746 6.99246 13.5478C6.85588 13.3661 6.80075 13.1824 6.7608 13.0347C6.68472 12.7602 6.76015 12.4665 6.71247 12.1825C6.67049 11.906 6.56601 11.6409 6.4975 11.3607C6.44231 11.1297 6.27545 10.9708 6.21656 10.8137C6.12727 10.5846 6.14215 10.3364 5.98672 10.24C5.84456 10.1455 5.61725 10.1268 5.37099 10.0987C5.19861 10.0742 4.99589 10.0252 4.76101 10.0123C4.53183 10.0068 4.3028 10.1435 4.07362 10.138C3.84443 10.1326 3.619 10.1007 3.38982 10.0953C3.16063 10.0898 2.93327 10.0238 2.70409 10.0184C2.4749 10.013 2.21554 10.125 1.98635 10.1196C1.94265 9.99843 1.99929 9.83737 1.94989 9.70863" fill="#FFD400"/>
<path d="M22.8938 26.4494C23.1193 26.5287 23.3447 26.5607 23.5702 26.64C23.7956 26.7192 24.0211 26.7985 24.2466 26.8778C24.4721 26.9571 24.7372 26.9473 24.9514 27.0588C25.1731 27.1647 25.3287 27.4031 25.5314 27.4521C25.7664 27.5125 26.0049 27.4042 26.2227 27.3945C26.4481 27.3791 26.6887 27.447 26.9102 27.3634C27.1109 27.2837 27.3399 27.1944 27.5368 27.0464C27.6806 26.9383 27.8282 26.851 28.0099 26.7618C28.1633 26.682 28.3014 26.519 28.4906 26.4241C28.6497 26.3519 28.8276 26.2892 29.0169 26.1943C28.9831 26.433 28.9909 26.6167 28.9797 26.791C28.9611 27.0183 28.8457 27.1642 28.7815 27.331C28.6965 27.5489 28.6949 27.7989 28.6516 28.0092C28.6121 28.2403 28.5252 28.4715 28.5406 28.6969C28.556 28.9222 28.7456 29.1114 28.8311 29.3197C28.9109 29.5204 28.9301 29.7666 29.08 29.9501C29.2052 30.1166 29.442 30.2111 29.6297 30.3662C29.7624 30.4797 29.8081 30.6823 29.9371 30.8696C30.0263 31.004 30.087 31.1005 30.2236 31.2822C29.9357 31.3091 29.7521 31.4115 29.504 31.444C29.2276 31.486 28.9775 31.4844 28.7313 31.4563C28.4585 31.4244 28.2142 31.4304 28.0116 31.476C27.7673 31.5294 27.5951 31.6943 27.4116 31.8442C27.2356 31.9883 27.0407 32.123 26.9008 32.3467C26.7873 32.5267 26.7402 32.7636 26.6268 32.9436C26.5134 33.1237 26.2995 33.2489 26.1728 33.4271C26.0594 33.6072 25.9553 33.721 25.8343 33.9067C25.552 33.7991 25.4193 33.7329 25.3433 33.5531C25.2446 33.343 25.233 33.0911 25.1873 32.8885C25.132 32.6101 25.0503 32.3753 24.9213 32.188C24.7676 31.9836 24.5781 31.8417 24.3298 31.7322C24.1195 31.6415 23.8901 31.494 23.6022 31.4735C23.3957 31.451 23.1912 31.4626 22.9676 31.4174C22.7763 31.3836 22.5528 31.3857 22.3293 31.3405C22.1322 31.2991 21.8935 31.2652 21.6567 31.2182C21.8724 30.9849 22.0464 30.7594 22.2053 30.5925C22.4058 30.3707 22.6291 30.2265 22.8089 30.0558C23.0435 29.832 23.2403 29.6841 23.3538 29.5513C23.541 29.3276 23.5787 29.1098 23.4912 28.8201C23.4418 28.644 23.3582 28.4225 23.2309 28.1272C23.1246 27.8754 23.0163 27.6369 22.9308 27.3813C22.8453 27.1257 22.7257 26.872 22.6402 26.6164C22.7177 26.5462 22.8219 26.5272 22.8938 26.4494Z" fill="#FFD400"/>
</svg>
