<svg width="228" height="96" viewBox="0 0 228 96" fill="none" xmlns="http://www.w3.org/2000/svg">
<path d="M47.0876 81.0717C43.2324 81.0717 40.0781 84.2508 40.0781 88.1365C40.0781 92.0221 43.2324 95.2012 47.0876 95.2012C50.9428 95.2012 54.0971 92.0221 54.0971 88.1365C54.0971 84.2508 50.9428 81.0717 47.0876 81.0717ZM209.177 0.20018L18.8227 0.201167C8.4733 0.201167 -3.72536e-07 8.74124 -8.27501e-07 19.1721L-1.9486e-06 44.8752C-2.40356e-06 55.3061 8.47329 63.8462 18.8227 63.8462L40.0781 63.8462L40.0781 69.9967C40.0781 73.8615 43.2117 77.0199 47.0464 77.0199L47.1082 77.0199C50.9429 77.0199 54.0766 73.8615 54.0766 69.9967L54.0766 63.8462L209.177 63.8452C219.527 63.8452 228 55.3052 228 44.8743L228 19.1711C228 8.74021 219.527 0.20018 209.177 0.20018Z" fill="#0096D8"/>
</svg>
