<svg width="105" height="109" viewBox="0 0 105 109" fill="none" xmlns="http://www.w3.org/2000/svg">
<path d="M99.4878 48.7028C99.3454 48.5375 99.1161 48.4046 99.0063 48.2145C98.8633 47.9669 98.833 47.6602 98.6706 47.4297C98.5082 47.1993 98.2804 47.0183 98.103 46.8025C97.9255 46.5866 97.8685 46.254 97.669 46.0509C97.4695 45.8477 97.2142 45.7004 97.0066 45.5137C96.799 45.327 96.6183 45.0953 96.3931 44.9188C96.1678 44.7423 95.8363 44.7274 95.6004 44.5629C95.3646 44.3985 95.172 44.1972 94.9325 44.0467C94.6929 43.8961 94.4515 43.7525 94.21 43.609C93.9807 43.4761 93.8062 43.2349 93.5687 43.1185C93.3313 43.0022 93.095 42.8674 92.8556 42.758C92.6163 42.6486 92.3682 42.5443 92.127 42.4418C91.8858 42.3394 91.5363 42.4763 91.2951 42.3739C91.0609 42.2733 90.8931 41.9929 90.6464 41.9113C90.3997 41.8297 90.1211 41.8963 89.8669 41.8426C89.6058 41.787 89.3459 41.7131 89.0848 41.6575C88.8237 41.6019 88.5504 41.6064 88.2867 41.5464C88.0231 41.4864 87.7706 41.3846 87.5095 41.329C87.2484 41.2734 86.9922 41.1856 86.7311 41.13C86.47 41.0744 86.2334 40.8985 85.9679 40.8455C85.7025 40.7925 85.4506 40.702 85.1851 40.649C84.9197 40.596 84.6214 40.7505 84.361 40.7063C84.112 40.6614 83.8923 40.464 83.6396 40.4331C83.3868 40.4021 83.1226 40.5547 82.8706 40.5351C82.6186 40.5156 82.3749 40.5207 82.1211 40.5081C81.8672 40.4955 81.6271 40.2627 81.3739 40.2615C81.3625 40.2622 81.3162 40.3243 81.3023 40.3205C81.3956 40.0957 81.6642 39.9406 81.755 39.7114C81.8513 39.4612 81.7445 39.1338 81.8364 38.8862C81.9283 38.6386 81.9664 38.369 82.0514 38.1196C82.1363 37.8701 82.3117 37.645 82.3941 37.3911C82.4765 37.1372 82.6076 36.8965 82.6812 36.6477C82.7548 36.3988 82.686 36.0966 82.7615 35.8409C82.8369 35.5851 83.0098 35.3556 83.0738 35.1005C83.1379 34.8454 83.2342 34.5952 83.3001 34.3332C83.3661 34.0711 83.2866 33.7809 83.3456 33.517C83.4046 33.253 83.4617 32.996 83.5093 32.7327C83.557 32.4694 83.6116 32.208 83.6478 31.9454C83.6841 31.6828 83.805 31.4243 83.8299 31.1624C83.8548 30.9004 84.0021 30.6267 84.0087 30.3635C84.0152 30.1003 83.85 29.8243 83.8313 29.5581C83.8126 29.2918 83.794 29.0255 83.7481 28.7631C83.7161 28.5753 83.8265 28.3701 83.8146 28.1765C83.8017 27.9305 83.6228 27.6918 83.6169 27.4477C83.611 27.2035 83.5754 26.9588 83.5695 26.7146C83.5635 26.4704 83.8214 26.2154 83.8111 25.9738C83.8008 25.7322 83.7033 25.4819 83.6816 25.241C83.6599 25 83.5132 24.7663 83.4732 24.5241C83.4362 24.2567 83.5052 23.9693 83.4638 23.7043C83.4224 23.4394 83.4616 23.1514 83.4132 22.8846C83.3649 22.6178 83.1677 22.3779 83.1105 22.1162C83.0533 21.8544 83.0585 21.5685 82.99 21.3074C82.9215 21.0463 82.9197 20.7585 82.8354 20.5006C82.7511 20.2428 82.5036 20.0378 82.4061 19.7876C82.3061 19.5329 82.3395 19.2247 82.2438 18.9675C82.1482 18.7103 81.8604 18.5169 81.7647 18.2597C81.6691 18.0025 81.5022 17.7746 81.3908 17.5206C81.2794 17.2666 81.3103 16.954 81.1857 16.7076C81.061 16.4612 80.91 16.2301 80.7545 16.0015C80.5991 15.773 80.5674 15.4434 80.3811 15.2327C80.2412 15.0717 80.0965 14.9431 79.9981 14.7523C79.8887 14.5324 79.753 14.3279 79.6198 14.1277C79.4746 13.9168 79.4167 13.6437 79.2715 13.4328C79.1262 13.2219 78.8954 13.0663 78.7502 12.8554C78.605 12.6445 78.5559 12.3663 78.4081 12.1509C78.2603 11.9356 78.0956 11.7419 77.946 11.5335C77.7963 11.3252 77.6095 11.1441 77.4599 10.9358C77.2931 10.7079 77.1891 10.426 77.0072 10.2127C76.8253 9.99936 76.602 9.81588 76.4025 9.61272C76.203 9.40957 75.9652 9.25207 75.7576 9.06539C75.5501 8.8787 75.3274 8.70661 75.1022 8.53009C74.877 8.35358 74.6425 8.21189 74.411 8.04488C74.2011 7.89489 74.0839 7.62066 73.874 7.47067C73.6641 7.32068 73.2935 7.4109 73.0817 7.26788C72.87 7.12485 72.6851 6.93683 72.4777 6.79127C72.2704 6.6457 72.1668 6.33411 71.9551 6.19109C71.7433 6.04807 71.412 6.07429 71.1959 5.9338C70.9797 5.79333 70.7698 5.64334 70.5537 5.50286C70.3375 5.36238 70.1445 5.19084 69.924 5.0529C69.7034 4.91496 69.4449 4.86378 69.2137 4.73789C68.9825 4.612 68.875 4.27322 68.6444 4.15872C68.4139 4.04422 68.123 4.05894 67.8836 3.94953C67.6443 3.84011 67.3617 3.87945 67.1213 3.78838C66.8669 3.69355 66.6815 3.42331 66.4315 3.32594C66.1815 3.22857 65.8711 3.2604 65.623 3.15607C65.3749 3.05173 65.2064 2.75994 64.9601 2.64864C64.7139 2.53734 64.4027 2.55781 64.1627 2.43701C63.9132 2.3099 63.671 2.15495 63.409 2.04685C63.147 1.93876 62.8701 1.88636 62.6 1.79474C62.3298 1.70312 62.1025 1.49246 61.8243 1.4173C61.546 1.34215 61.2754 1.28027 60.9935 1.21904C60.7115 1.15782 60.4324 1.14213 60.1555 1.08975C59.8787 1.03737 59.6041 0.948283 59.321 0.905408C59.0379 0.86253 58.7359 1.031 58.4535 0.999506C58.1825 0.967351 57.9156 0.891538 57.6401 0.861923C57.3647 0.832313 57.1091 0.643867 56.8318 0.621218C56.5545 0.598569 56.2869 0.511355 56.0122 0.493127C55.7374 0.4749 55.4492 0.71798 55.177 0.704178C54.9048 0.690372 54.6406 0.436161 54.364 0.424899C54.0874 0.413633 53.8122 0.537108 53.5338 0.532808C53.2554 0.528508 52.9861 0.489397 52.7103 0.489518C52.4344 0.48964 52.1617 0.393596 51.8858 0.393717C51.6099 0.393838 51.3378 0.491988 51.06 0.499075C50.7823 0.506158 50.512 0.597368 50.2343 0.604451C49.9452 0.612202 49.659 0.594645 49.3706 0.613779C49.0822 0.632913 48.7836 0.522388 48.4977 0.545943C48.2119 0.569498 47.9456 0.799851 47.6579 0.830372C47.3702 0.860889 47.0495 0.651112 46.7625 0.693016C46.4755 0.73492 46.2022 0.851437 45.9184 0.909145C45.6347 0.966854 45.3665 1.09221 45.0809 1.15688C44.8155 1.21581 44.5215 1.14386 44.2604 1.20024C43.9994 1.25662 43.7977 1.60891 43.5348 1.67226C43.2719 1.7356 42.9558 1.5644 42.6929 1.62774C42.4301 1.69109 42.1821 1.8107 41.9173 1.88101C41.6299 1.95265 41.3392 2.00847 41.0587 2.08199C40.7782 2.1555 40.5245 2.36686 40.2421 2.44734C39.9598 2.52782 39.6684 2.57226 39.3816 2.65528C39.0949 2.7383 38.7803 2.70184 38.4979 2.78232C38.2269 2.86214 37.929 2.87498 37.6657 2.96806C37.4024 3.06114 37.2284 3.42093 36.9633 3.52098C36.6981 3.62102 36.418 3.6648 36.158 3.77369C35.8979 3.88257 35.5501 3.78863 35.2907 3.9089C35.0314 4.02917 34.8736 4.35603 34.6212 4.47818C34.3688 4.60033 34.1011 4.69595 33.8513 4.82252C33.6014 4.94909 33.2768 4.93606 33.0276 5.07402C32.7785 5.21197 32.5855 5.44719 32.3407 5.58261C32.096 5.71802 31.8953 5.93999 31.6531 6.07983C31.4109 6.21966 31.1311 6.30455 30.8915 6.44881C30.6518 6.59306 30.3618 6.66029 30.1196 6.80013C29.8774 6.93996 29.5798 6.99391 29.3332 7.13629C29.0866 7.27867 28.9943 7.66796 28.7477 7.81034C28.5256 7.94443 28.2883 8.05199 28.0662 8.18608C27.8442 8.32016 27.5138 8.2869 27.2918 8.42099C27.0697 8.55508 26.8707 8.72896 26.6486 8.86305C26.4266 8.99713 26.2914 9.28154 26.0693 9.41563C25.8473 9.54971 25.5213 9.5139 25.2993 9.64799C25.0527 9.79037 24.829 9.97255 24.5875 10.1238C24.346 10.275 24.1702 10.5298 23.9382 10.6873C23.7062 10.8448 23.3731 10.878 23.1436 11.0399C22.9142 11.2019 22.6811 11.3777 22.4593 11.5529C22.2375 11.7281 22.1665 12.0934 21.9498 12.2774C21.7049 12.4837 21.4022 12.6407 21.1331 12.8256C20.8641 13.0104 20.5465 13.1112 20.292 13.3112C20.0897 13.4692 19.902 13.6425 19.6997 13.8005C19.4974 13.9586 19.2359 14.0447 19.0431 14.2091C18.8503 14.3735 18.7809 14.6906 18.5932 14.8638C18.3967 15.0421 18.0947 15.0986 17.9051 15.2788C17.7155 15.459 17.519 15.6372 17.3295 15.8174C17.1399 15.9976 16.897 16.1261 16.7126 16.3151C16.5281 16.5041 16.3678 16.7146 16.1808 16.8992C15.9831 17.0958 15.8732 17.3833 15.673 17.5755C15.4728 17.7678 15.2192 17.9083 15.019 18.1005C14.8188 18.2927 14.6796 18.5499 14.4794 18.7422C14.2791 18.9344 14.0186 19.073 13.8254 19.2671C13.6321 19.4612 13.4929 19.7184 13.3073 19.9258C13.1217 20.1332 12.9482 20.3513 12.7747 20.5694C12.5861 20.802 12.4267 21.065 12.2381 21.2977C12.0495 21.5304 11.8591 21.77 11.654 21.9945C11.4489 22.219 11.2172 22.4177 11.007 22.6333C10.827 22.8198 10.598 22.952 10.4319 23.1422C10.2657 23.3325 10.014 23.466 9.85301 23.6651C9.69198 23.8642 9.63881 24.1483 9.4873 24.3537C9.33578 24.5591 9.22484 24.7941 9.07588 25.0039C8.92691 25.2137 8.72786 25.3876 8.58586 25.5993C8.44385 25.8109 8.3779 26.073 8.23845 26.2891C8.09899 26.5052 8.00198 26.744 7.85812 26.9626C7.71426 27.1813 7.39089 27.2618 7.24192 27.4716C7.09551 27.6859 7.07712 27.9795 6.93767 28.1956C6.79821 28.4117 6.68218 28.6378 6.55223 28.8602C6.42229 29.0826 6.32272 29.3169 6.19533 29.5438C6.06793 29.7706 5.94239 29.9904 5.81244 30.2128C5.6825 30.4352 5.41758 30.5764 5.28508 30.7944C5.12571 31.0573 5.00067 31.3594 4.82044 31.6168C4.6402 31.8741 4.31944 32.0711 4.1879 32.3416C4.07257 32.5791 3.94333 32.8129 3.828 33.0504C3.71267 33.288 3.74111 33.6017 3.63018 33.8367C3.51925 34.0717 3.39952 34.3118 3.2937 34.5556C3.18787 34.7994 3.1333 35.0609 3.03699 35.311C2.94067 35.5611 2.77849 35.7786 2.69609 36.0325C2.61369 36.2864 2.53825 36.5421 2.47416 36.7973C2.43784 36.9479 2.52488 37.1394 2.48416 37.2926C2.3948 37.5446 2.19089 37.7507 2.10594 38.0002C2.02098 38.2497 1.90125 38.4898 1.82766 38.7386C1.75407 38.9874 1.78551 39.2758 1.72143 39.5309C1.65734 39.786 1.5193 40.0249 1.46657 40.2793C1.41385 40.5338 1.36623 40.7971 1.32741 41.0553C1.29045 41.3065 1.20294 41.5516 1.16598 41.8028C1.12902 42.0541 1.13125 42.3122 1.09429 42.5634C1.05732 42.8147 0.944547 43.0566 0.907586 43.3079C0.870625 43.5591 0.934749 43.8228 0.90034 44.0784C0.885786 44.1753 1.08012 44.2576 1.08829 44.3531C1.11604 44.6554 0.916576 44.971 0.928563 45.2765C0.940549 45.582 1.07053 45.8783 1.0642 46.1826C1.05787 46.4869 0.888557 46.7733 0.859507 47.079C0.830457 47.3846 0.78168 47.6662 0.720401 47.9669C0.689187 48.1264 0.807761 48.3114 0.82639 48.4657C0.852737 48.7453 0.987583 49.0093 1.01833 49.2863C1.04908 49.5633 1.0956 49.8371 1.12635 50.1141C1.15174 50.3412 1.16136 50.5714 1.1893 50.8028C1.21725 51.0343 1.03516 51.2986 1.08768 51.5218C1.1511 51.774 1.20572 52.0313 1.27611 52.2854C1.34649 52.5396 1.44144 52.7854 1.51367 53.0325C1.5859 53.2797 1.7861 53.4942 1.8697 53.7407C1.95725 54.0144 1.93772 54.3263 2.04543 54.5942C2.15315 54.8622 2.20546 55.1562 2.32639 55.4165C2.44731 55.6768 2.73444 55.8588 2.87298 56.109C3.01152 56.3591 3.20291 56.5787 3.35466 56.8212C3.46768 57.0272 3.53922 57.2629 3.65479 57.4733C3.77036 57.6836 3.76817 57.9442 3.86358 58.1603C3.95898 58.3764 4.03977 58.5774 4.09553 58.8163C4.13829 58.9921 4.27332 59.1853 4.39164 59.3292C4.54939 59.5211 4.83715 59.6025 4.97729 59.8046C5.12694 60.0129 5.17856 60.2956 5.33261 60.5014C5.48666 60.7072 5.64768 60.9149 5.81054 61.1156C5.9734 61.3163 6.17959 61.4802 6.34685 61.6784C6.51411 61.8766 6.84266 61.9168 7.02058 62.103C7.19851 62.2891 7.3456 62.493 7.54113 62.669C7.73667 62.8449 7.84995 63.092 8.05359 63.2515C8.24333 63.4072 8.52386 63.4457 8.71544 63.5944C8.90702 63.7432 9.10116 63.8964 9.29274 64.0452C9.48433 64.1939 9.60455 64.4429 9.79613 64.5916C9.98771 64.7404 10.1649 64.9152 10.3591 65.0683C10.4333 65.1257 10.5078 65.2242 10.597 65.267C10.8978 65.4116 11.1828 65.5595 11.4748 65.7093C11.5713 65.7951 11.7987 65.7109 11.8977 65.8011C12.1002 65.979 12.2388 66.2291 12.4501 66.4019C12.6614 66.5746 12.8933 66.7119 13.1064 66.8777C13.3196 67.0435 13.4695 67.2929 13.6933 67.4467C13.9171 67.6004 14.2171 67.6217 14.4516 67.7634C14.6861 67.9051 14.7961 68.2483 15.0431 68.371C15.2901 68.4937 15.5681 68.5277 15.8232 68.634C16.0783 68.7402 16.3083 68.8844 16.5689 68.9697C16.7739 69.04 17.059 68.8931 17.2622 68.9704C17.4653 69.0476 17.5726 69.3453 17.7713 69.4251C17.9564 69.5422 18.1952 69.5694 18.403 69.6853C18.5848 69.7866 18.8514 69.8213 19.1424 69.9186C19.3727 69.9919 19.6157 70.0874 19.8775 70.1544C20.1254 70.2176 20.3913 70.2409 20.641 70.2972C20.8908 70.3535 21.122 70.5913 21.3623 70.6413C21.6101 70.7045 21.8881 70.6265 22.1403 70.6872C22.3926 70.7479 22.6072 70.9364 22.8613 70.9902C23.1154 71.0439 23.389 70.9685 23.638 71.0133C23.887 71.0582 24.1434 71.0752 24.3987 71.1106C24.654 71.1459 24.9046 71.1427 25.1617 71.1711C25.4189 71.1995 25.6543 71.3937 25.9151 71.4082C26.2152 71.4295 26.5021 71.3876 26.7878 71.4349C26.685 71.6534 26.5261 71.8867 26.4212 72.183C26.3337 72.4281 26.4387 72.7624 26.3514 73.0486C26.2716 73.3069 26.0811 73.5466 26.0001 73.8232C25.9191 74.0999 25.8671 74.3657 25.793 74.6443C25.719 74.9228 25.459 75.1437 25.3912 75.4127C25.3234 75.6818 25.4075 76.0105 25.3485 76.2745C25.2822 76.5663 25.3623 76.8678 25.3077 77.1292C25.2446 77.4368 25.027 77.6804 24.985 77.9228C24.9161 78.3221 25.005 78.6186 25.0179 78.7526C25.033 78.962 25.0814 79.2288 25.0795 79.5306C25.0759 79.7685 24.9525 80.0225 24.9422 80.2996C24.9323 80.547 24.7697 80.7941 24.7587 81.0598C24.7445 81.3097 24.9595 81.5806 24.946 81.8419C24.9325 82.1032 24.9801 82.3586 24.9684 82.6129C24.9567 82.8673 24.9205 83.1299 24.9132 83.3817C24.9092 83.6493 24.9044 83.9055 24.906 84.1522C24.907 84.4287 24.7546 84.6935 24.7782 84.9275C24.8034 85.2254 24.8264 85.4892 24.8845 85.6914C24.9046 85.9805 25.119 86.2399 25.1446 86.508C25.1691 86.7945 25.0207 87.0866 25.0533 87.3566C25.0859 87.6266 25.0088 87.9305 25.0484 88.2024C25.0879 88.4743 25.1351 88.7595 25.1861 89.0308C25.237 89.302 25.4481 89.5456 25.5085 89.8232C25.5689 90.1007 25.7137 90.3413 25.7855 90.6182C25.8541 90.8793 25.9724 91.1352 26.0556 91.4114C26.1227 91.6497 26.1604 91.9286 26.3219 92.2185C26.4598 92.4573 26.6423 92.682 26.8131 92.9371C26.9693 93.177 26.9621 93.5408 27.1296 93.7801C27.2971 94.0194 27.5684 94.2046 27.7239 94.4332C27.9118 94.7079 27.9938 95.0025 28.1138 95.2103C28.2363 95.4225 28.4708 95.5642 28.6021 95.7713C28.7335 95.9785 28.8887 96.1659 29.0219 96.3661C29.155 96.5663 29.2009 96.8287 29.3322 97.0358C29.4584 97.2341 29.6048 97.4266 29.7336 97.6294C29.8624 97.8321 30.1061 97.9389 30.2587 98.122C30.4337 98.3334 30.4786 98.6553 30.6535 98.8667C30.8284 99.0782 31.0555 99.2477 31.2348 99.4567C31.4141 99.6656 31.4961 99.9601 31.6799 100.166C31.8636 100.373 32.1509 100.484 32.3365 100.683C32.5221 100.883 32.6136 101.184 32.8035 101.381C32.9935 101.577 33.2099 101.759 33.4087 101.951C33.6488 102.184 33.9447 102.36 34.1999 102.579C34.455 102.797 34.7646 102.936 35.0448 103.117C35.2653 103.255 35.4215 103.495 35.6464 103.63C35.8714 103.765 36.1582 103.794 36.3806 103.925C36.603 104.056 36.7499 104.331 36.9811 104.457C37.2124 104.583 37.5452 104.508 37.7783 104.627C38.0114 104.746 38.1571 105.039 38.3876 105.154C38.6181 105.268 38.8899 105.312 39.1292 105.421C39.3685 105.531 39.5791 105.692 39.8203 105.795C40.0874 105.912 40.4136 105.877 40.6826 105.987C40.9516 106.096 41.1907 106.277 41.4634 106.373C41.7361 106.469 41.9693 106.7 42.2457 106.782C42.5221 106.864 42.864 106.714 43.1466 106.786C43.4223 106.857 43.6936 106.93 43.9686 106.99C44.2436 107.049 44.5015 107.201 44.7809 107.258C45.0603 107.314 45.3378 107.378 45.6165 107.424C45.8952 107.469 46.1619 107.616 46.4425 107.654C46.723 107.693 47.0361 107.482 47.3141 107.516C47.5921 107.55 47.8478 107.851 48.132 107.875C48.4163 107.9 48.7203 107.654 49.0002 107.681C49.28 107.708 49.553 107.845 49.8391 107.862C50.1252 107.88 50.4004 107.98 50.684 107.994C50.9675 108.007 51.2549 107.823 51.5403 107.829C51.8257 107.836 52.101 108.048 52.3864 108.054C52.6718 108.06 52.96 108 53.2465 107.988C53.5331 107.976 53.8206 108.016 54.1065 107.993C54.3923 107.969 54.657 107.787 54.9396 107.747C55.2221 107.708 55.4964 107.644 55.7776 107.582C56.0342 107.528 56.2811 107.427 56.5377 107.373C56.7943 107.319 57.099 107.491 57.3557 107.437C57.6123 107.383 57.8189 107.111 58.073 107.052C58.3271 106.994 58.6141 107.064 58.8682 107.006C59.1223 106.948 59.3821 106.91 59.6406 106.849C59.8991 106.788 60.1488 106.732 60.4072 106.671C60.6657 106.611 60.9386 106.636 61.1926 106.578C61.4467 106.519 61.6755 106.346 61.9314 106.281C62.1873 106.216 62.4504 106.193 62.7063 106.128C62.9579 106.065 63.168 105.85 63.417 105.783C63.666 105.716 63.9748 105.844 64.2213 105.772C64.4677 105.701 64.7127 105.606 64.9635 105.532C65.2143 105.458 65.4008 105.191 65.6516 105.117C65.9024 105.043 66.1663 105.032 66.4145 104.954C66.6628 104.876 66.9085 104.793 67.1542 104.71C67.3999 104.627 67.6649 104.598 67.9106 104.515C68.1563 104.432 68.4245 104.418 68.6702 104.335C68.916 104.253 69.1148 104.038 69.3605 103.955C69.6062 103.872 69.886 103.899 70.1317 103.816C70.3573 103.739 70.5327 103.514 70.7557 103.432C70.9786 103.351 71.2613 103.423 71.4817 103.337C71.7022 103.251 71.8418 102.964 72.0641 102.871C72.2864 102.778 72.5261 102.746 72.7389 102.647C72.9718 102.542 73.2565 102.536 73.4895 102.431C73.7224 102.326 73.97 102.237 74.2004 102.127C74.4308 102.018 74.6259 101.817 74.8563 101.707C75.0867 101.598 75.3451 101.537 75.5799 101.425C75.8147 101.313 76.0036 101.121 76.2358 101.005C76.4681 100.889 76.7943 100.966 77.024 100.845C77.2537 100.724 77.4272 100.506 77.6544 100.381C77.8903 100.25 78.0963 100.078 78.3323 99.9479C78.5682 99.8176 78.7309 99.5704 78.9643 99.4356C79.1976 99.3009 79.4266 99.1687 79.6556 99.0365C79.8846 98.9043 80.1793 98.8756 80.4075 98.732C80.6358 98.5885 80.8546 98.4386 81.0855 98.2994C81.3163 98.1602 81.5479 98.0324 81.7761 97.8888C82.0044 97.7452 82.2411 97.6263 82.4719 97.4871C82.7134 97.3359 82.9619 97.1866 83.1983 97.0265C83.4347 96.8664 83.5806 96.57 83.8144 96.4055C84.0483 96.241 84.2719 96.0589 84.5032 95.8899C84.7345 95.721 85.0326 95.6374 85.2664 95.4729C85.4544 95.3408 85.6996 95.2876 85.8876 95.1555C86.0755 95.0234 86.2456 94.8604 86.4266 94.7264C86.6076 94.5924 86.8318 94.4925 87.0026 94.3408C87.1979 94.1809 87.3042 93.9073 87.497 93.7429C87.6898 93.5785 87.9907 93.5404 88.1835 93.376C88.3763 93.2117 88.4826 92.9381 88.6754 92.7737C88.8682 92.6093 89.1983 92.6015 89.3911 92.4371C89.584 92.2727 89.6979 92.0124 89.8907 91.848C90.0835 91.6837 90.2343 91.4669 90.4271 91.3026C90.6199 91.1382 90.8025 90.9561 90.9953 90.7917C91.1881 90.6274 91.4127 90.4977 91.6029 90.3289C91.7825 90.1722 91.8986 89.946 92.0705 89.776C92.2425 89.606 92.5339 89.5616 92.7058 89.3916C92.8777 89.2215 92.9576 88.9632 93.1321 88.7976C93.3429 88.5934 93.6707 88.5102 93.8841 88.3104C94.0976 88.1105 94.2105 87.7977 94.4188 87.589C94.6058 87.4044 94.8195 87.2457 94.9996 87.0592C95.1796 86.8727 95.2815 86.6017 95.459 86.4108C95.6045 86.256 95.8611 86.2022 96.0066 86.0474C96.1521 85.8927 96.1467 85.6188 96.2706 85.447C96.4284 85.2321 96.6216 85.038 96.7794 84.8231C96.9372 84.6082 97.0924 84.3889 97.2527 84.1785C97.413 83.968 97.6615 83.8187 97.8218 83.6082C97.9821 83.3977 98.2471 83.2566 98.4048 83.0417C98.5626 82.8268 98.7463 82.6264 98.8946 82.4052C99.0429 82.184 99.11 81.9036 99.2418 81.6742C99.378 81.4423 99.4052 81.1437 99.5414 80.9118C99.6776 80.6799 99.8777 80.4876 100.014 80.2557C100.15 80.0238 100.196 79.7378 100.333 79.5059C100.469 79.274 100.723 79.1151 100.86 78.8832C101.008 78.6323 101.025 78.3046 101.171 78.0492C101.317 77.7939 101.698 77.6505 101.8 77.3795C101.904 77.1129 101.974 76.8368 102.081 76.5746C102.188 76.3125 102.11 75.9742 102.219 75.7051C102.328 75.4359 102.423 75.1744 102.523 74.9103C102.623 74.6463 102.961 74.4688 103.061 74.2048C103.161 73.9407 103.161 73.6345 103.249 73.3597C103.329 73.1128 103.433 72.8759 103.507 72.6271C103.58 72.3783 103.744 72.1539 103.814 71.9076C103.883 71.6613 103.748 71.3562 103.81 71.108C103.872 70.8599 103.879 70.5967 103.938 70.3441C103.998 70.0915 104.035 69.8403 104.088 69.5858C104.141 69.3314 104.231 69.0908 104.279 68.8388C104.332 68.5547 104.473 68.2905 104.512 68.0025C104.552 67.7146 104.55 67.4268 104.571 67.1376C104.592 66.8484 104.741 66.5678 104.75 66.2793C104.76 65.9908 104.651 65.7001 104.654 65.4097C104.656 65.1194 104.743 64.8332 104.739 64.5409C104.735 64.2487 104.612 63.9656 104.615 63.6752C104.615 63.3804 104.706 63.0803 104.69 62.7887C104.675 62.4972 104.654 62.1967 104.624 61.9014C104.595 61.606 104.391 61.3346 104.355 61.0374C104.318 60.7401 104.341 60.444 104.302 60.1537C104.262 59.8704 104.127 59.6064 104.08 59.3212C104.033 59.036 104.085 58.7405 104.029 58.4604C103.973 58.1803 103.837 57.9232 103.765 57.6463C103.693 57.3694 103.783 57.0465 103.691 56.7754C103.599 56.5043 103.584 56.1943 103.475 55.9334C103.367 55.6768 103.076 55.4973 102.969 55.2408C102.862 54.9842 102.793 54.7118 102.69 54.4527C102.587 54.1936 102.614 53.8835 102.514 53.6289C102.414 53.3742 102.082 53.2062 101.979 52.9471C101.859 52.6571 101.754 52.3638 101.594 52.0967C101.461 51.8668 101.445 51.5638 101.312 51.3339C101.179 51.104 101.073 50.8588 100.942 50.622C100.811 50.3851 100.499 50.2708 100.355 50.0416C100.211 49.8123 100.151 49.5462 99.9961 49.329C99.8414 49.1118 99.7175 48.8768 99.5407 48.6723L99.4878 48.7028Z" fill="#EBE8DC"/>
</svg>
