<svg width="97" height="86" viewBox="0 0 97 86" fill="none" xmlns="http://www.w3.org/2000/svg">
<path d="M56.1817 37.0662C57.834 37.1086 59.2919 37.1267 60.7558 37.1813C62.73 37.254 64.6981 37.3873 66.6723 37.4237C67.796 37.4418 68.9259 37.3934 70.0436 37.2601C73.0808 36.9147 76.112 37.1874 79.1492 37.2358C81.7733 37.2843 84.3975 37.4661 87.0277 37.1934C87.9024 37.1086 88.8014 37.1934 89.6822 37.2964C91.462 37.5085 93.2783 37.6054 94.967 38.2901C95.6959 38.587 96.2244 39.0172 96.437 39.9201C97.0323 42.5013 96.8501 45.1189 96.9715 47.7183C97.1173 50.7842 96.6618 53.832 96.5342 56.8858C96.4127 59.7761 96.3945 62.6663 96.3337 65.5626C96.3034 67.0895 96.3034 68.6225 96.2608 70.1555C96.1697 73.3184 96.0725 76.4874 95.9389 79.6503C95.8964 80.6197 95.9024 81.6195 95.216 82.4557C95.0581 82.6374 95.0702 82.9646 95.0156 83.2312C94.7483 84.6006 93.904 85.352 92.5311 85.5459C88.4916 86.1215 84.4278 86.0185 80.3641 85.9337C77.4301 85.8731 74.4961 85.7337 71.5683 85.6004C67.5774 85.4247 63.5926 85.2065 59.6017 85.0187C58.5447 84.9702 57.4817 84.9642 56.4247 84.9399C53.3146 84.8672 50.2106 84.8006 47.1005 84.7218C44.9197 84.6612 42.7269 84.7036 40.5583 84.4855C38.1346 84.2431 35.7231 84.4491 33.3115 84.4552C30.8574 84.4552 28.3973 84.4128 25.9432 84.4249C24.5097 84.431 23.0761 84.5582 21.6486 84.54C18.5081 84.5037 15.3676 84.4431 12.2271 84.3279C10.1193 84.2552 7.99935 84.1462 5.90975 83.8796C4.7799 83.7402 3.67436 83.2918 2.61133 82.8495C2.23471 82.692 1.89455 82.1891 1.76091 81.771C1.18992 79.9593 0.606762 78.1476 0.722172 76.1965C0.776845 75.2876 0.564252 74.3666 0.564252 73.4456C0.546033 68.6467 0.51566 63.8418 0.582479 59.0429C0.606771 57.5523 0.703962 56.0678 0.582479 54.5712C0.539953 54.1046 0.582471 53.632 0.618925 53.1594C0.65537 52.7171 0.691816 52.2687 0.661443 51.8325C0.400244 47.6577 0.582479 43.4647 0.108671 39.296C-0.00673843 38.2538 0.0114806 37.1934 0.0296997 36.1391C0.0418533 35.6604 0.0479187 35.1817 0.0418457 34.7091C0.0418457 34.594 0.0418457 34.4789 0.0418457 34.3638C0.0418457 34.1699 0.0479187 33.982 0.0418458 33.7881C-0.134317 30.5404 0.272666 27.3411 0.75862 24.1358C1.33569 20.367 1.53617 16.5618 1.72447 12.7566C1.82774 10.5935 2.13753 8.41825 2.57489 6.29147C2.83002 5.04933 3.37671 3.81324 4.03275 2.72259C4.87103 1.32897 6.40177 0.910882 7.91431 0.807876C10.3987 0.638218 12.8893 0.63823 15.3737 0.535223C18.5446 0.40798 21.7215 0.195907 24.8923 0.117137C28.6099 0.0262491 32.3335 0.0201945 36.0572 0.00807627C41.0746 -0.0101011 46.0921 0.00807671 51.1157 0.00807693C51.2189 0.00807694 51.3222 -0.00404147 51.4255 0.00807695C51.9965 0.0626098 52.7801 -0.0949443 53.0899 0.220134C53.6912 0.819996 54.2258 1.54711 54.4627 2.44387C54.979 4.40705 55.0883 6.41264 55.1734 8.41824C55.2888 11.0358 55.2463 13.6534 55.3252 16.271C55.386 18.1675 55.5439 20.0701 55.6472 21.9666C55.6836 22.6453 55.7079 23.3239 55.714 24.0086C55.7626 27.0018 55.7505 29.9951 56.0846 32.9762C56.1453 33.5215 56.1271 34.0729 56.1089 34.6243C56.0967 34.9273 56.0906 35.2242 56.0906 35.5271C56.0906 35.9937 56.1332 36.4602 56.1635 37.0722" fill="#EBE8DC"/>
</svg>
