<svg width="101" height="86" viewBox="0 0 101 86" fill="none" xmlns="http://www.w3.org/2000/svg">
<path d="M11.9086 17.6748C11.8186 17.7765 11.7379 18.0351 11.5867 18.4292C11.4971 18.6568 11.3284 18.9033 11.2242 19.2071C11.1396 19.4589 10.9656 19.704 10.871 19.9931C10.7903 20.2517 10.6787 20.5192 10.5976 20.8006C10.514 21.0699 10.5887 21.3873 10.5023 21.6672C10.4159 21.9472 10.2326 22.184 10.1529 22.46C10.0733 22.7361 9.92442 22.9936 9.84618 23.2643C9.76794 23.535 9.72799 23.8331 9.65651 24.0999C9.5793 24.388 9.67526 24.7111 9.60378 24.9779C9.52514 25.2714 9.41886 25.5403 9.35024 25.7964C9.26731 26.1059 8.95347 26.3191 8.88381 26.5578C8.75268 27.026 8.84006 27.3811 8.81512 27.4316C8.69144 27.7015 8.62917 27.9765 8.55872 28.2607C8.48827 28.545 8.28865 28.8003 8.24092 29.0849C8.19318 29.3695 8.15998 29.6637 8.11225 29.9483C8.06697 30.245 7.94044 30.5256 7.8792 30.818C7.81796 31.1104 7.88056 31.4303 7.81932 31.7227C7.75808 32.0151 7.80328 32.3361 7.73672 32.627C7.67016 32.918 7.58764 33.2047 7.51964 33.5011C7.45165 33.7974 7.38652 34.083 7.32528 34.3754C7.2422 34.7707 7.10058 35.1502 7.02957 35.5429C6.97286 35.8823 6.88136 36.2238 6.82997 36.5646C6.77858 36.9054 6.68318 37.2401 6.59843 37.5777C6.5333 37.8634 6.53204 38.1661 6.46015 38.4557C6.38827 38.7452 6.30717 39.0266 6.23672 39.3108C6.16627 39.5951 6.23951 39.9178 6.17438 40.2034C6.10925 40.4891 5.7858 40.717 5.71924 41.0079C5.65267 41.2989 5.72202 41.6149 5.65014 41.9044C5.57826 42.194 5.61568 42.5014 5.54911 42.7924C5.48255 43.0834 5.30566 43.3391 5.23378 43.6286C5.16189 43.9182 5.05951 44.1939 4.98905 44.4781C4.9186 44.7623 4.86268 45.0562 4.79755 45.3418C4.73242 45.6275 4.71908 45.9327 4.64863 46.2169C4.57817 46.5012 4.44775 46.775 4.38119 47.066C4.31462 47.357 4.27078 47.6484 4.20033 47.9326C4.12988 48.2168 4.16054 48.5281 4.09398 48.8191C4.02742 49.1101 3.87181 49.3715 3.79993 49.6611C3.72519 49.9613 3.56918 50.2455 3.49444 50.5457C3.4197 50.8459 3.52058 51.1932 3.44584 51.4935C3.3711 51.7937 3.27364 52.0935 3.1989 52.3938C3.12415 52.694 2.96283 52.9768 2.88809 53.277C2.81334 53.5772 2.76521 53.8846 2.68904 54.1901C2.61287 54.4957 2.39975 54.7589 2.32501 55.0591C2.26353 55.2885 2.25527 55.5322 2.20444 55.7645C2.1536 55.9968 2.17339 56.2423 2.11191 56.4718C2.03327 56.7652 2.03304 57.0854 1.9544 57.3789C1.87577 57.6724 1.81699 57.9769 1.73304 58.2689C1.64908 58.561 1.53176 58.8498 1.45313 59.1432C1.37449 59.4367 1.18409 59.7002 1.10403 59.999C1.02396 60.2978 0.897432 60.5785 0.824118 60.8734C0.736905 61.1989 0.741597 61.5432 0.77798 61.8332C0.823183 62.1542 1.02717 62.4147 1.21805 62.6603C1.40115 62.8924 1.62762 63.0903 1.93121 63.2345C2.1089 63.3165 2.34459 63.5226 2.6713 63.6444C2.91039 63.7314 3.2178 63.7337 3.49558 63.8253C3.75739 63.9126 4.0088 64.06 4.27593 64.1488C4.55903 64.2418 4.83721 64.3106 5.08448 64.3883C5.41548 64.4941 5.72003 64.5071 5.90631 64.557C6.20291 64.6422 6.45805 64.8821 6.75609 64.962C7.05412 65.0419 7.36788 65.063 7.67124 65.1443C7.9746 65.2256 8.24832 65.3962 8.54636 65.476C8.84439 65.5559 9.16816 65.5397 9.4662 65.6195C9.76423 65.6994 10.078 65.7206 10.3775 65.7951C10.6769 65.8696 10.9517 66.0576 11.2511 66.1321C11.4427 66.1835 11.7291 66.243 12.091 66.34C12.3358 66.4056 12.6508 66.3585 12.958 66.4465C13.2188 66.5164 13.4598 66.7239 13.7578 66.8038C14.0239 66.8751 14.3203 66.8973 14.6077 66.9743C14.8791 67.0471 15.1444 67.1639 15.4304 67.2462C15.7163 67.3286 16.0125 67.2878 16.2999 67.3648C16.5872 67.4418 16.8676 67.4598 17.155 67.5368C17.4424 67.6138 17.7124 67.6919 17.9877 67.7714C18.2631 67.8508 18.508 68.0652 18.7833 68.1446C19.0586 68.2241 19.3703 68.2104 19.647 68.2846C19.9238 68.3587 20.1615 68.5997 20.4383 68.6739C20.715 68.748 21.041 68.681 21.3178 68.7551C21.5945 68.8293 21.8976 68.8476 22.1744 68.9218C22.4618 68.9988 22.7238 69.149 22.9899 69.2203C23.2826 69.2988 23.5379 69.453 23.804 69.5243C24.1021 69.6041 24.3956 69.637 24.651 69.7055C24.965 69.7896 25.2585 69.8225 25.5019 69.8934C25.8798 69.9947 26.1757 70.0397 26.346 70.0853C26.5855 70.1495 26.8415 70.3439 27.1661 70.4309C27.4322 70.5022 27.7125 70.6058 28.0105 70.6857C28.2872 70.7599 28.5993 70.7234 28.8921 70.8018C29.1848 70.8803 29.4172 71.1198 29.706 71.1915C29.9948 71.2631 30.2861 71.3469 30.5629 71.4211C30.8609 71.5009 31.1812 71.4552 31.4487 71.5212C31.7627 71.6053 32.034 71.7638 32.2788 71.8294C32.7099 71.9449 33.0704 71.8127 33.1875 71.8441C33.2301 71.8555 33.5547 71.9425 34.0603 72.078C34.3104 72.145 34.5928 72.2836 34.9213 72.3773C35.1927 72.45 35.4869 72.5231 35.7994 72.6126C36.0815 72.6882 36.3656 72.7986 36.6676 72.8853C36.9535 72.9676 37.2662 72.9713 37.5614 73.0619C37.8566 73.1524 38.0633 73.488 38.3531 73.5771C38.643 73.6662 39.0107 73.5074 39.3005 73.5965C39.5904 73.6856 39.8613 73.8668 40.1405 73.9531C40.441 74.045 40.7294 74.1395 41.0072 74.2311C41.3116 74.3298 41.5518 74.5829 41.8121 74.6755C42.135 74.7906 42.453 74.7958 42.696 74.8895C42.9071 74.9746 43.2423 74.9157 43.5772 75.0283C43.8283 75.1128 44.0297 75.447 44.3355 75.5404C44.5988 75.6223 44.8923 75.6552 45.1928 75.7472C45.4628 75.8252 45.7849 75.7514 46.0761 75.8352C46.3476 75.9079 46.5753 76.1863 46.8613 76.2686C47.1472 76.3509 47.4444 76.3276 47.7318 76.4046C48.0192 76.4816 48.3278 76.4156 48.6152 76.4926C48.9025 76.5696 49.1482 76.7384 49.4356 76.8154C49.723 76.8924 49.9812 77.036 50.2632 77.1115C50.5453 77.1871 50.8388 77.22 51.1209 77.2956C51.4029 77.3712 51.7118 77.3681 51.9953 77.4384C52.2788 77.5086 52.5333 77.7084 52.8154 77.7839C53.0974 77.8595 53.4063 77.8565 53.6883 77.9321C53.9704 78.0076 54.2406 78.1487 54.5227 78.2243C54.8048 78.2998 55.1061 78.3463 55.3828 78.4204C55.6596 78.4946 55.9376 78.6491 56.2157 78.7179C56.5085 78.7964 56.7962 78.8506 57.0677 78.9233C57.3657 79.0032 57.7021 78.876 57.9696 78.942C58.273 79.0233 58.5003 79.3244 58.7625 79.3889C59.0872 79.4759 59.4064 79.4128 59.6474 79.4716C60.1877 79.6049 60.0678 79.5842 60.4964 79.6877C60.925 79.7911 60.9375 79.7658 61.37 79.876C61.8025 79.9862 61.8211 79.9168 62.2551 80.0216C62.689 80.1265 62.6747 80.1798 63.1072 80.29C63.5397 80.4002 63.5026 80.5389 63.9404 80.6505C64.3783 80.7621 64.4001 80.6593 64.8326 80.7695C65.2651 80.8796 65.2694 80.8636 65.7034 80.9685C66.1373 81.0733 66.1101 81.1747 66.5427 81.2849C66.9752 81.395 66.9566 81.4644 67.3891 81.5746C67.8216 81.6847 67.8173 81.7008 68.2513 81.8056C68.6852 81.9104 68.7167 81.793 69.1439 81.9018C69.5711 82.0105 69.5535 82.0973 69.9913 82.2089C70.4292 82.3205 70.4582 82.1911 70.8921 82.2959C71.3261 82.4007 71.3361 82.3634 71.7686 82.4736C72.2011 82.5837 72.1535 82.7826 72.586 82.8928C73.0185 83.0029 73.0429 82.9122 73.4754 83.0224C73.9079 83.1326 73.9479 82.9832 74.3804 83.0933C74.8129 83.2035 74.7725 83.3757 75.205 83.4859C75.6376 83.596 75.649 83.5533 76.0883 83.6596C76.5275 83.7659 76.4294 83.6424 76.9635 83.7569C77.2058 83.8104 77.4903 83.898 77.8125 83.9729C78.0776 84.0268 78.3478 84.1678 78.6555 84.2331C78.9259 84.2884 79.2384 84.2292 79.5354 84.2916C79.8111 84.3483 80.0842 84.4787 80.3758 84.5397C80.6675 84.6007 80.9418 84.6627 81.2335 84.7237C81.5252 84.7847 81.7929 84.9137 82.0793 84.9732C82.3656 85.0328 82.6663 85.039 82.9488 85.0918C83.2312 85.1446 83.5354 85.1804 83.8164 85.2385C84.1148 85.2956 84.4173 85.2737 84.693 85.3304C84.9968 85.389 85.2566 85.5901 85.5284 85.6401C85.8443 85.6961 86.1274 85.7891 86.3832 85.8348C86.7324 85.8941 87.0265 85.9672 87.248 85.9922C87.5749 86.0283 87.9099 85.9064 88.1451 85.7522C88.3804 85.5979 88.4332 85.2518 88.597 84.9811C88.7469 84.741 89.0323 84.5487 89.1375 84.2624C89.2428 83.976 89.1976 83.6551 89.2613 83.3748C89.3336 83.0625 89.4775 82.7808 89.5128 82.5214C89.5872 82.0095 89.5098 81.6171 89.5098 81.6171C89.5969 81.3773 89.6055 81.1109 89.6912 80.8764C89.7768 80.642 89.9727 80.4429 90.0651 80.2046C90.1575 79.9663 90.3559 79.7792 90.4536 79.5424C90.5848 79.2229 90.7001 78.8993 90.81 78.5741C90.9199 78.249 91.0618 77.9325 91.1505 77.6016C91.2391 77.2708 91.3064 76.9343 91.3844 76.6006C91.4567 76.2883 91.4158 75.9514 91.4881 75.639C91.5604 75.3267 91.5901 75.003 91.6609 74.696C91.7318 74.389 91.8108 74.0727 91.8884 73.7618C91.966 73.4509 92.017 73.1329 92.0946 72.822C92.1747 72.5232 92.2987 72.2305 92.3788 71.9317C92.4589 71.6329 92.5404 71.3287 92.6258 71.0313C92.7111 70.734 92.7128 70.4084 92.7929 70.1096C92.8729 69.8108 92.9012 69.4924 92.9813 69.1936C93.0613 68.8948 93.2904 68.6359 93.3772 68.3332C93.464 68.0305 93.6438 67.7641 93.7306 67.4614C93.8174 67.1587 93.8443 66.8456 93.9244 66.5468C94.0044 66.248 94.1271 65.9606 94.2086 65.6565C94.2886 65.3577 94.3208 65.046 94.4076 64.7433C94.4944 64.4406 94.5213 64.1275 94.6066 63.8302C94.6974 63.5342 94.6564 63.1973 94.7539 62.8974C94.8514 62.5975 95.1787 62.3764 95.2641 62.0791C95.337 61.8069 95.3475 61.5124 95.4204 61.2402C95.4933 60.9681 95.5822 60.7003 95.6565 60.4228C95.7309 60.1453 95.6974 59.8447 95.7862 59.5768C95.8751 59.309 95.9456 59.0248 96.0558 58.7626C96.1674 58.4951 96.2843 58.2291 96.3813 57.952C96.4784 57.6749 96.5048 57.3846 96.5913 57.1047C96.6777 56.8247 96.8106 56.5629 96.8863 56.2801C96.955 56.024 97.1286 55.8018 97.2132 55.5499C97.2978 55.2981 97.4448 55.0687 97.5241 54.8154C97.6034 54.5622 97.7228 54.3082 97.7754 54.0478C97.8281 53.7874 97.654 53.5006 97.6694 53.2302C97.6732 53.0882 97.8133 52.9485 97.8771 52.8169C97.9979 52.5576 98.1187 52.2983 98.2129 52.0319C98.3071 51.7655 98.4826 51.5151 98.5502 51.2415C98.6178 50.968 98.6442 50.6777 98.7065 50.4027C98.7687 50.1277 98.7405 49.8285 98.8028 49.5535C98.8665 49.2732 98.877 48.9786 98.9475 48.6944C99.0179 48.4102 99.055 48.1228 99.124 47.8439C99.1931 47.565 99.2475 47.2765 99.3166 46.9976C99.3856 46.7187 99.5891 46.4701 99.6581 46.1912C99.7271 45.9123 99.8615 45.6452 99.9252 45.3649C99.9889 45.0846 99.9514 44.7772 100.015 44.4969C100.079 44.2166 100.121 43.9306 100.18 43.6488C100.238 43.3671 100.204 43.0664 100.258 42.7833C100.311 42.5001 100.614 42.2612 100.657 41.9752C100.699 41.6891 100.599 41.3821 100.636 41.0946C100.677 40.7912 100.626 40.4916 100.63 40.2009C100.634 39.9102 100.817 39.5877 100.788 39.2938C100.758 38.9999 100.498 38.7358 100.435 38.4387C100.372 38.1416 100.458 37.8214 100.365 37.5278C100.283 37.2599 100.014 37.0506 99.9264 36.7812C99.8389 36.5118 99.969 36.175 99.8801 35.9109C99.7911 35.6469 99.7306 35.3619 99.6416 35.0979C99.5526 34.8338 99.3965 34.5861 99.3023 34.3207C99.2041 34.0485 98.9915 33.8199 98.888 33.5463C98.7845 33.2726 98.724 32.9876 98.6123 32.7232C98.5006 32.4588 98.3054 32.2292 98.1884 31.9634C98.0714 31.6976 98.0123 31.4072 97.8885 31.1453C97.7531 30.8631 97.7011 30.5461 97.5643 30.2692C97.4274 29.9924 97.3566 29.6817 97.2144 29.4034C97.0722 29.1252 96.8963 28.8664 96.758 28.5949C96.6197 28.3233 96.3198 28.1229 96.1761 27.8499C96.0325 27.577 96.0751 27.2052 95.9315 26.9322C95.7879 26.6593 95.4542 26.4784 95.3105 26.2054C95.1669 25.9325 95.0894 25.6257 94.9486 25.3421C94.8259 25.0976 94.8308 24.7387 94.6634 24.4479C94.5194 24.1977 94.2895 23.9702 94.1217 23.7023C93.9617 23.4478 93.66 23.2754 93.4893 23.0181C93.3187 22.7608 93.1467 22.5088 92.9746 22.2568C92.8025 22.0048 92.6348 21.7368 92.4613 21.4902C92.2761 21.2233 92.2882 20.8376 92.1225 20.6045C91.9228 20.3279 91.7198 20.0848 91.5658 19.872C91.2617 19.4531 90.9169 19.2921 90.8829 19.2487C90.6984 19.0219 90.4787 18.8201 90.2927 18.5987C90.1068 18.3773 90.073 18.0137 89.875 17.7948C89.6769 17.5759 89.4177 17.4149 89.2183 17.2013C89.0188 16.9878 88.7255 16.8691 88.5125 16.6634C88.2996 16.4576 88.0876 16.2693 87.8665 16.0728C87.6453 15.8763 87.5142 15.5781 87.282 15.4015C87.059 15.2331 86.7389 15.1931 86.5159 15.0247C86.293 14.8562 86.1301 14.6125 85.9072 14.444C85.6842 14.2756 85.5078 14.0397 85.2834 13.8766C85.059 13.7135 84.8485 13.5199 84.6241 13.3568C84.3997 13.1937 84.1878 13.0054 83.9634 12.8423C83.739 12.6793 83.3982 12.6738 83.1685 12.5093C82.9388 12.3448 82.7692 12.1049 82.538 11.9457C82.3069 11.7866 82.1387 11.5413 81.9076 11.3822C81.6764 11.223 81.378 11.1659 81.1468 11.0068C80.9157 10.8476 80.6913 10.6846 80.4587 10.5307C80.2275 10.3716 80.0761 10.0851 79.8436 9.93127C79.611 9.77745 79.3731 9.6222 79.1337 9.47228C78.8944 9.32237 78.523 9.3887 78.2822 9.24412C78.0414 9.09954 77.853 8.86605 77.6123 8.72147C77.3715 8.5769 77.1528 8.39248 76.9121 8.24791C76.6713 8.10333 76.4608 7.90967 76.22 7.7651C75.9793 7.62052 75.7467 7.4667 75.5059 7.32212C75.2705 7.17897 74.9608 7.07882 74.648 6.92638C74.3855 6.79887 74.0562 6.75066 73.7604 6.61992C73.4858 6.49489 73.2078 6.34034 72.9159 6.21637C72.624 6.0924 72.3484 5.94993 72.0604 5.83272C71.7724 5.71552 71.4598 5.62604 71.1796 5.52236C70.8741 5.40621 70.599 5.24098 70.3226 5.14405C69.9959 5.0222 69.6562 5.03411 69.4011 4.94289C68.9268 4.77577 68.6269 4.5753 68.5471 4.55391C68.2969 4.48689 68.0096 4.5586 67.7609 4.48624C67.5122 4.41388 67.2635 4.34152 67.0148 4.26916C66.7661 4.1968 66.576 3.90567 66.3259 3.83865C66.0757 3.77162 65.7913 3.83266 65.545 3.7724C65.2761 3.71176 65.0035 3.70735 64.7331 3.65205C64.4627 3.59676 64.2441 3.3266 63.9738 3.27131C63.7034 3.21602 63.4279 3.22227 63.1575 3.16697C62.8871 3.11168 62.5959 3.17662 62.3308 3.12275C62.0658 3.06889 61.804 2.98158 61.5336 2.92628C61.2632 2.87099 61.0314 2.67163 60.7624 2.611C60.4668 2.54324 60.1498 2.55551 59.8528 2.49309C59.5558 2.43066 59.2631 2.35223 58.9633 2.30048C58.6634 2.24873 58.3711 2.14752 58.0698 2.10111C57.7685 2.05469 57.4474 2.14595 57.15 2.10629C56.8526 2.06663 56.5564 1.95867 56.2576 1.92435C55.9588 1.89003 55.6441 2.00015 55.337 1.97507C55.0968 1.95644 54.8157 1.89829 54.5048 1.86646C54.2447 1.83678 53.9553 1.87363 53.6618 1.84073C53.391 1.80821 53.1179 1.67784 52.8365 1.64247C52.555 1.60709 52.2632 1.63183 51.9924 1.59931C51.7003 1.56108 51.4279 1.47092 51.1639 1.43448C50.8558 1.39197 50.5837 1.27904 50.3424 1.24298C49.8971 1.18082 49.5843 1.17709 49.5108 1.17456C49.2329 1.16872 48.9631 1.00491 48.6827 0.986968C48.4023 0.969024 48.1235 1.00872 47.8431 0.990773C47.5627 0.972829 47.2844 0.989753 47.0079 0.97857C46.7314 0.967388 46.4574 1.11702 46.1738 1.13251C45.8901 1.14801 45.6148 1.06852 45.3361 1.10821C45.2999 1.11566 45.2568 0.978312 45.222 0.980428C44.9398 0.990589 44.6533 1.01676 44.3725 1.02158C44.0917 1.02641 43.8017 1.02305 43.5155 1.02645C43.2294 1.02985 42.9505 1.15528 42.663 1.16401C42.3754 1.17275 42.1029 1.31704 41.8178 1.33788C41.5327 1.35871 41.2279 1.13405 40.9452 1.16698C40.6626 1.19991 40.3866 1.31467 40.105 1.36503C39.877 1.40689 39.6588 1.58288 39.4287 1.58986C39.1987 1.59685 38.9715 1.59317 38.7425 1.61759C38.4787 1.64413 38.203 1.58741 37.9339 1.61252C37.6647 1.63763 37.395 1.62254 37.1318 1.68928C36.9908 1.72584 36.6748 1.75555 36.2547 1.85458C36.0036 1.91884 35.7346 2.09266 35.4164 2.17325C35.1479 2.23856 34.8778 2.39495 34.5731 2.46771C34.2926 2.53551 33.9827 2.52111 33.6833 2.5953C33.3839 2.66949 33.0738 2.59212 32.7812 2.6624C32.4886 2.73268 32.1959 2.80296 31.914 2.87609C31.632 2.94923 31.3533 3.13763 31.0781 3.20686C30.7719 3.28496 30.4881 3.38619 30.2182 3.45684C29.8933 3.54134 29.6281 3.72192 29.3824 3.78761C28.9096 3.91258 28.582 3.922 28.5173 3.95043C28.2597 4.08157 27.9837 4.19633 27.7179 4.33671C27.4521 4.47709 27.2427 4.68404 26.9794 4.83652C26.716 4.989 26.3494 4.93081 26.0968 5.08614C25.8441 5.24147 25.6342 5.47119 25.3816 5.62652C25.1289 5.78185 24.8957 5.97099 24.6469 6.13309C24.3981 6.29518 24.1688 6.49109 23.92 6.65318C23.6712 6.81528 23.3846 6.92719 23.1411 7.09071C22.8976 7.25423 22.715 7.53127 22.4769 7.69622C22.2387 7.86117 21.9439 7.98232 21.7057 8.14727C21.4527 8.32537 21.1426 8.39671 20.9098 8.56308C20.6553 8.74652 20.4235 8.93033 20.1907 9.0967C19.9348 9.28548 19.7526 9.53975 19.5318 9.70364C19.261 9.90557 19.0734 10.1584 18.873 10.3106C18.4652 10.6188 18.2398 10.8215 18.2003 10.8624C17.9788 11.0718 17.6233 11.1424 17.3965 11.3504C17.1696 11.5584 16.952 11.7746 16.7251 11.9826C16.4371 12.2486 16.1414 12.4152 15.9146 12.6232C15.6564 12.8629 15.4646 13.1318 15.2064 13.3714C14.9796 13.5794 14.7771 13.8454 14.4983 14.1196C14.297 14.3173 14.1656 14.5737 13.9833 14.828C13.8271 15.0492 13.5794 15.2287 13.401 15.4897C13.2501 15.7124 13.0406 15.9193 12.857 16.1789C12.7008 16.4001 12.7089 16.7741 12.5122 17.0187C12.34 17.2356 12.1107 17.4316 11.8994 17.6666L11.9086 17.6748Z" fill="#EBE8DC"/>
</svg>
