<svg width="57" height="90" viewBox="0 0 57 90" fill="none" xmlns="http://www.w3.org/2000/svg">
<path d="M8.97254 44.1832C8.85025 44.0662 8.75854 44.0356 8.64135 43.9288C8.51907 43.8118 8.43245 43.6693 8.31527 43.5574C8.19298 43.4455 8.06561 43.3387 7.95351 43.2318C7.83632 43.1199 7.7548 42.9673 7.64271 42.8554C7.52552 42.7384 7.34209 42.6926 7.23 42.5756C7.09753 42.4382 7.07714 42.2042 6.94977 42.0618C6.82239 41.9193 6.7052 41.7769 6.58801 41.6294C6.47083 41.4818 6.22116 41.4309 6.10907 41.2834C6.00717 41.1461 5.92564 40.9934 5.82374 40.851C5.72694 40.7086 5.73713 40.4949 5.64032 40.3524C5.54351 40.21 5.41104 40.093 5.31933 39.9505C5.22761 39.8081 5.07476 39.6962 4.98814 39.5537C4.89643 39.4062 4.83529 39.2332 4.74867 39.0857C4.66205 38.9331 4.54996 38.7957 4.46844 38.638C4.38692 38.4854 4.38691 38.287 4.31049 38.1293C4.23406 37.9716 4.16273 37.8139 4.09139 37.6562C4.02006 37.4985 3.95892 37.3306 3.89778 37.1678C3.83664 37.005 3.72455 36.8626 3.6634 36.6947C3.60227 36.5319 3.47998 36.3895 3.42393 36.2216C3.36789 36.0537 3.36279 35.8705 3.30674 35.7078C3.25579 35.5501 3.20484 35.3974 3.15389 35.2397C3.09784 35.0871 2.99085 34.9497 2.9348 34.7971C2.87875 34.6445 2.87366 34.4716 2.81761 34.3138C2.76156 34.1561 2.76157 33.9883 2.72081 33.8306C2.68004 33.683 2.65457 33.5304 2.6189 33.3829C2.57814 33.2353 2.59852 33.0725 2.56285 32.925C2.52719 32.7775 2.45076 32.635 2.42019 32.4875C2.38452 32.34 2.27753 32.2026 2.24186 32.0551C2.21129 31.9025 2.27243 31.7346 2.24186 31.582C2.2062 31.4141 2.18072 31.2513 2.15015 31.0834C2.11448 30.9155 1.97691 30.7731 1.94125 30.6052C1.91068 30.4373 1.94125 30.2593 1.90558 30.0914C1.87501 29.9235 1.81897 29.7607 1.79349 29.5929C1.76292 29.425 1.68649 29.2673 1.66102 29.0994C1.63554 28.9315 1.60497 28.7636 1.57949 28.5958C1.55402 28.4279 1.48778 28.2651 1.4623 28.0972C1.43683 27.9293 1.40626 27.7614 1.38078 27.5936C1.3604 27.4257 1.45211 27.2425 1.43173 27.0746C1.41135 26.9068 1.39607 26.7389 1.37569 26.571C1.3604 26.4031 1.30945 26.2353 1.29416 26.0674C1.27888 25.8995 1.18717 25.7367 1.17698 25.5688C1.16169 25.4009 1.1566 25.228 1.14641 25.0601C1.13622 24.8922 1.26359 24.7142 1.2585 24.5412C1.24831 24.3733 1.22283 24.2054 1.21774 24.0325C1.21264 23.8646 1.23303 23.6916 1.22793 23.5237C1.22793 23.3559 1.24322 23.188 1.24322 23.0252C1.24322 22.8573 1.05979 22.6894 1.06489 22.5215C1.06489 22.3537 1.23812 22.1909 1.24831 22.0281C1.2585 21.8602 1.22283 21.6923 1.23812 21.5244C1.2534 21.3565 1.27378 21.1938 1.28907 21.0259C1.30945 20.858 1.35531 20.6952 1.37569 20.5324C1.40117 20.3696 1.42155 20.2017 1.44702 20.039C1.47759 19.8762 1.48778 19.7083 1.52345 19.5455C1.55911 19.3827 1.65082 19.2301 1.69159 19.0724C1.72725 18.9096 1.65592 18.7213 1.70178 18.5586C1.74254 18.3958 1.86992 18.2584 1.91577 18.1007C1.96163 17.9379 2.01258 17.7853 2.06353 17.6225C2.11449 17.4648 2.18072 17.3122 2.23677 17.1545C2.29281 16.9968 2.36924 16.8492 2.43038 16.6915C2.49153 16.5338 2.44057 16.3354 2.50681 16.1828C2.57305 16.0302 2.59852 15.8572 2.66985 15.7046C2.73609 15.552 2.88385 15.435 2.95518 15.2823C3.02651 15.1348 3.18446 15.028 3.26089 14.8754C3.33732 14.7278 3.41884 14.5803 3.49526 14.4379C3.57679 14.2903 3.49527 14.0512 3.57679 13.9088C3.65831 13.7663 3.87231 13.6951 3.96402 13.5527C4.05064 13.4102 4.00988 13.1864 4.10159 13.0439C4.1933 12.9015 4.44296 12.871 4.53467 12.7336C4.62639 12.5963 4.68244 12.4335 4.77415 12.2961C4.87096 12.1588 4.99833 12.0519 5.10024 11.9196C5.19704 11.7874 5.25819 11.6246 5.36009 11.4923C5.46199 11.36 5.58427 11.2532 5.69127 11.121C5.79827 10.9938 5.86961 10.8411 5.9766 10.714C6.0836 10.5868 6.22626 10.4952 6.33836 10.3731C6.45045 10.251 6.53197 10.1035 6.64407 9.9814C6.75616 9.85929 6.88863 9.75756 7.00582 9.64055C7.12301 9.52355 7.18415 9.35566 7.30643 9.23865C7.42362 9.12165 7.50005 8.95886 7.61724 8.84694C7.73442 8.72993 7.8618 8.6231 7.98408 8.51118C8.10637 8.39926 8.27451 8.3382 8.40189 8.23136C8.52417 8.12454 8.62098 7.97701 8.74836 7.87017C8.87573 7.76334 9.0184 7.67686 9.14578 7.57003C9.27316 7.46319 9.39544 7.35128 9.52282 7.24445C9.6502 7.1427 9.82343 7.09183 9.95081 6.99009C10.0833 6.88834 10.2259 6.80185 10.3584 6.70518C10.4909 6.60852 10.6336 6.52204 10.7711 6.42539C10.9036 6.32873 11.0106 6.19138 11.1482 6.09472C11.2857 5.99807 11.459 5.95737 11.6016 5.86071C11.7392 5.76914 11.8258 5.59108 11.9685 5.4995C12.1111 5.40793 12.2232 5.27058 12.371 5.18409C12.5137 5.09761 12.6971 5.07217 12.8448 4.99077C12.9926 4.90429 13.1353 4.81781 13.283 4.73641C13.4308 4.65502 13.5633 4.54818 13.7161 4.47187C13.8639 4.39557 14.0626 4.41084 14.2154 4.33453C14.3683 4.25822 14.5212 4.19717 14.674 4.12595C14.8269 4.05472 14.944 3.91227 15.102 3.84613C15.2548 3.77491 15.4128 3.71388 15.5657 3.64774C15.7185 3.58161 15.8663 3.49513 16.0242 3.42899C16.1822 3.36286 16.3197 3.25602 16.4777 3.19497C16.6356 3.13392 16.7783 3.03727 16.9362 2.98131C17.0942 2.92535 17.3082 3.01182 17.4661 2.95586C17.6241 2.89991 17.7769 2.83378 17.94 2.77782C18.0979 2.72186 18.2151 2.54379 18.3782 2.49292C18.5412 2.44204 18.7552 2.56924 18.9183 2.51837C19.0813 2.4675 19.2393 2.42679 19.4023 2.381C19.5653 2.33522 19.6927 2.16735 19.8558 2.12156C20.0137 2.07577 20.1971 2.12155 20.3551 2.08085C20.513 2.03507 20.6761 2.01471 20.834 1.96893C20.992 1.92823 21.155 1.9028 21.313 1.85701C21.4709 1.81631 21.6187 1.74 21.7817 1.69931C21.9397 1.6586 22.1078 1.64843 22.2658 1.60774C22.4237 1.56704 22.5613 1.45004 22.7243 1.40934C22.8823 1.36864 23.0198 1.24145 23.1829 1.20584C23.3408 1.16514 23.5345 1.25671 23.6924 1.2211C23.8503 1.18549 23.9981 1.09393 24.1612 1.05832C24.3191 1.02271 24.4669 0.920964 24.6248 0.885358C24.7879 0.849744 24.9611 0.89552 25.1241 0.859906C25.2872 0.8243 25.4553 0.844648 25.6184 0.814122C25.7814 0.783605 25.9343 0.727636 26.0973 0.69711C26.2604 0.666585 26.4234 0.651326 26.5813 0.620809C26.7444 0.590284 26.9074 0.585195 27.0705 0.55467C27.2386 0.524144 27.3813 0.351186 27.5443 0.32575C27.7125 0.300313 27.8908 0.381711 28.0589 0.361364C28.2271 0.341016 28.3799 0.203657 28.5481 0.183309C28.7162 0.162961 28.8844 0.152784 29.0525 0.137525C29.2206 0.122266 29.3939 0.193479 29.562 0.183309C29.7301 0.173131 29.8932 0.101903 30.0613 0.0917259C30.2295 0.0815483 30.4027 0.162946 30.5708 0.157865C30.739 0.152776 30.9071 0.00524674 31.0753 0.000157951C31.2434 -0.00493084 31.4115 0.11717 31.5797 0.11717C31.7478 0.11717 31.916 0.0764672 32.0841 0.081556C32.2522 0.0866449 32.4204 0.132437 32.5885 0.137525C32.7567 0.147703 32.9248 0.137518 33.0929 0.147695C33.2611 0.157865 33.4343 0.117178 33.6024 0.137525C33.7706 0.152784 33.9387 0.162962 34.1069 0.183309C34.275 0.203657 34.4279 0.34609 34.596 0.366445C34.7641 0.386793 34.9323 0.39189 35.1004 0.422415C35.2686 0.447851 35.4265 0.519072 35.5896 0.549597C35.7577 0.580114 35.9564 0.442747 36.1194 0.473272C36.2927 0.508886 36.4557 0.580122 36.629 0.615729C36.8022 0.651343 36.9754 0.661505 37.1487 0.697111C37.3219 0.732725 37.4748 0.844649 37.648 0.875174C37.8212 0.91078 37.9741 1.02778 38.1473 1.0634C38.3205 1.09901 38.5244 0.971831 38.6976 1.00744C38.8708 1.04306 39.0084 1.22111 39.1816 1.26181C39.3498 1.3025 39.5332 1.29742 39.7013 1.34321C39.8695 1.38899 40.0223 1.49073 40.1905 1.5416C40.3484 1.58739 40.5624 1.4704 40.7153 1.52127C40.8732 1.57213 40.9751 1.79088 41.1331 1.84685C41.291 1.9028 41.4744 1.87737 41.6273 1.93333C41.7801 1.99438 41.9687 1.98421 42.1215 2.04526C42.2744 2.1063 42.3916 2.25892 42.5444 2.33014C42.6973 2.39628 42.8094 2.54381 42.9571 2.61503C43.1049 2.68625 43.324 2.62012 43.4717 2.69643C43.6195 2.77273 43.7061 2.96096 43.8488 3.04236C43.9965 3.12376 44.1901 3.10341 44.3379 3.18989C44.4806 3.27128 44.6385 3.33742 44.7761 3.4239C44.9188 3.51038 44.9748 3.72914 45.1124 3.82071C45.2499 3.91228 45.3977 3.98859 45.5353 4.08017C45.6728 4.17174 45.8868 4.15647 46.0193 4.25313C46.1518 4.34979 46.2282 4.52784 46.3607 4.62958C46.4932 4.73133 46.646 4.79746 46.7785 4.89921C46.9059 5.00095 47.0893 5.04674 47.2167 5.14848C47.344 5.25532 47.4154 5.42319 47.5428 5.53003C47.665 5.63686 47.7618 5.77932 47.8841 5.89123C48.0064 6.00316 48.1083 6.13032 48.2306 6.24734C48.3529 6.35925 48.4701 6.47627 48.5873 6.58819C48.7044 6.7052 48.9235 6.71536 49.0407 6.83237C49.1579 6.94938 49.2547 7.08674 49.3719 7.20375C49.484 7.32075 49.5808 7.4632 49.6929 7.58529C49.805 7.70739 49.8458 7.89562 49.9578 8.01771C50.0699 8.13981 50.2585 8.19577 50.3655 8.32295C50.4725 8.45013 50.6304 8.53661 50.7374 8.66379C50.8444 8.79098 50.8138 9.03008 50.9157 9.16235C51.0176 9.29462 51.1195 9.4218 51.2214 9.55407C51.3233 9.68633 51.5373 9.73213 51.6392 9.86439C51.736 9.99667 51.843 10.1289 51.9399 10.2612C52.0367 10.3935 52.0876 10.5664 52.1844 10.7038C52.2761 10.8412 52.2863 11.0345 52.378 11.1718C52.4698 11.3092 52.6685 11.3804 52.7551 11.5228C52.8468 11.6653 52.8315 11.8688 52.9181 12.0112C53.0047 12.1537 53.1984 12.23 53.285 12.3724C53.3716 12.5149 53.4837 12.6421 53.5652 12.7896C53.6467 12.932 53.5754 13.166 53.6569 13.3085C53.7384 13.456 53.9524 13.5272 54.0289 13.6748C54.1053 13.8223 54.2072 13.9597 54.2836 14.1072C54.36 14.2547 54.2836 14.4786 54.355 14.6312C54.4314 14.7787 54.6097 14.8754 54.681 15.028C54.7524 15.1755 54.8186 15.3332 54.8899 15.4807C54.9613 15.6334 55.053 15.7707 55.1243 15.9233C55.1906 16.076 55.1855 16.2591 55.2517 16.4117C55.3179 16.5643 55.4046 16.7068 55.4708 16.8594C55.537 17.012 55.5115 17.2053 55.5727 17.3579C55.6338 17.5157 55.8529 17.6072 55.909 17.7649C55.965 17.9226 55.8835 18.1261 55.9344 18.2889C55.9854 18.4466 56.1332 18.5789 56.179 18.7366C56.2249 18.8994 56.286 19.0571 56.3268 19.2199C56.3675 19.3827 56.337 19.5608 56.3675 19.7235C56.4032 19.8863 56.4491 20.0491 56.4796 20.2119C56.5102 20.3747 56.6019 20.5324 56.6274 20.6952C56.6529 20.858 56.5764 21.0411 56.6019 21.2039C56.6223 21.3718 56.6019 21.5397 56.6223 21.7025C56.6427 21.8704 56.8261 22.0179 56.8414 22.1858C56.8567 22.3537 56.7497 22.5317 56.765 22.6945C56.7802 22.8624 56.7599 23.0303 56.77 23.1982C56.7802 23.366 56.9331 23.5237 56.9433 23.6916C56.9535 23.8595 56.9382 24.0274 56.9433 24.1953C56.9535 24.3631 56.9942 24.5259 56.9993 24.6938C57.0044 24.8617 56.9789 25.0296 56.984 25.1974C56.984 25.3653 56.8719 25.5332 56.8719 25.696C56.8719 25.8639 56.9942 26.0318 56.9942 26.1946C56.9942 26.3624 56.8465 26.5252 56.8414 26.6931C56.8414 26.861 56.8719 27.0238 56.8618 27.1917C56.8567 27.3595 56.9076 27.5274 56.8974 27.6953C56.8872 27.8632 56.7548 28.0209 56.7446 28.1837C56.7344 28.3516 56.8618 28.5245 56.8465 28.6924C56.8312 28.8603 56.7344 29.018 56.7191 29.1808C56.7038 29.3487 56.6834 29.5115 56.6681 29.6793C56.6478 29.8421 56.7395 30.0202 56.7191 30.1881C56.6987 30.3509 56.6274 30.5137 56.607 30.6765C56.5866 30.8392 56.5102 30.9969 56.4847 31.1648C56.4592 31.3276 56.5204 31.5057 56.4949 31.6685C56.4694 31.8313 56.444 31.9991 56.4185 32.1619C56.393 32.3247 56.3115 32.4824 56.2809 32.6452C56.2503 32.8131 56.1892 32.9759 56.1484 33.1438C56.1077 33.3116 56.0669 33.4744 56.016 33.6372C55.965 33.8 55.9752 33.9832 55.9141 34.146C55.858 34.3088 55.7867 34.4665 55.7204 34.6242C55.6593 34.787 55.5472 34.9243 55.481 35.082C55.4147 35.2397 55.3179 35.3873 55.2568 35.545C55.1956 35.7027 55.2568 35.9163 55.1956 36.074C55.1294 36.2318 55.0479 36.3844 54.9817 36.5421C54.9154 36.6998 54.8492 36.8575 54.7829 37.0152C54.7116 37.1729 54.6454 37.3306 54.574 37.4832C54.5027 37.6409 54.4161 37.7885 54.3397 37.9411C54.2683 38.0937 54.0441 38.1751 53.9677 38.3277C53.8913 38.4803 53.9677 38.7143 53.8913 38.8619C53.8149 39.0145 53.6518 39.1213 53.5703 39.2739C53.4888 39.4215 53.3818 39.5588 53.2952 39.7064C53.2136 39.8539 53.0863 39.976 52.9945 40.1235C52.9079 40.271 52.9487 40.4949 52.857 40.6322C52.7653 40.7747 52.5411 40.8306 52.4494 40.968C52.3526 41.1054 52.4035 41.3546 52.3067 41.4869C52.2048 41.6243 52.0927 41.7515 51.9857 41.8837C51.8787 42.016 51.629 42.0312 51.5221 42.1584C51.41 42.2856 51.4303 42.5298 51.3182 42.6519C51.2062 42.774 51.0839 42.8961 50.9667 43.0182C50.8495 43.1403 50.6712 43.2013 50.5489 43.3234C50.4266 43.4404 50.3094 43.5625 50.1871 43.6795C50.0648 43.7965 49.9273 43.8983 49.7999 44.0102C49.6725 44.1221 49.5553 44.2442 49.4229 44.351C49.2955 44.4579 49.219 44.6359 49.0917 44.7428C48.9592 44.8496 48.7656 44.8801 48.6331 44.9819C48.5006 45.0836 48.4293 45.2718 48.2917 45.3736C48.1542 45.4753 47.9504 45.4804 47.8128 45.5771C47.7007 45.6585 47.5224 45.7551 47.3288 45.8976C47.451 46.0095 47.665 46.1418 47.7873 46.2588C47.9045 46.3758 48.0319 46.4877 48.1491 46.5996C48.2663 46.7166 48.3631 46.854 48.4803 46.971C48.5974 47.088 48.6739 47.2508 48.7962 47.3627C48.9184 47.4746 49.0866 47.5408 49.2089 47.6476C49.3362 47.7544 49.4585 47.8714 49.591 47.9681C49.7235 48.0648 49.8661 48.1512 49.9935 48.253C50.1209 48.3598 50.3196 48.3903 50.4368 48.5023C50.554 48.6142 50.5794 48.8278 50.6915 48.9449C50.8036 49.067 50.931 49.1687 51.038 49.2959C51.145 49.4231 51.2112 49.5757 51.3081 49.708C51.4049 49.8402 51.4915 49.9776 51.5883 50.1098C51.68 50.2472 51.8379 50.3337 51.9297 50.4761C52.0163 50.6135 52.164 50.7203 52.2456 50.8628C52.3271 51.0052 52.3067 51.2087 52.3831 51.3511C52.4647 51.4936 52.6073 51.6055 52.6837 51.7479C52.7602 51.8955 52.7653 52.0786 52.8366 52.2211C52.913 52.3686 53.0812 52.4653 53.1525 52.6128C53.2289 52.7603 53.1525 52.9892 53.2238 53.1419C53.2952 53.2945 53.3665 53.4471 53.4378 53.5997C53.5092 53.7523 53.6977 53.8541 53.7639 54.0118C53.8301 54.1695 53.8913 54.3272 53.9524 54.4798C54.0136 54.6375 53.9881 54.8257 54.0492 54.9835C54.1104 55.1412 54.2734 55.2582 54.3295 55.421C54.3855 55.5787 54.4365 55.7415 54.4874 55.8992C54.5435 56.0569 54.5638 56.2298 54.6148 56.3926C54.6658 56.5554 54.7626 56.6979 54.8135 56.8607C54.8645 57.0235 54.8033 57.2168 54.8492 57.3796C54.9001 57.5424 55.002 57.6848 55.053 57.8476C55.0988 58.0104 55.2007 58.1579 55.2466 58.3207C55.2925 58.4733 55.2772 58.6463 55.3179 58.804C55.3587 58.9617 55.3434 59.1296 55.3842 59.2822C55.4198 59.4399 55.5115 59.5824 55.5421 59.7401C55.5778 59.8978 55.6644 60.0453 55.695 60.203C55.7255 60.3607 55.7459 60.5235 55.7714 60.6812C55.7969 60.8389 55.7816 61.0068 55.8071 61.1645C55.8325 61.3222 55.8937 61.4748 55.9141 61.6376C55.9344 61.7953 55.9293 61.9581 55.9497 62.1209C55.9701 62.2786 55.8886 62.4516 55.9039 62.6093C55.9192 62.767 56.0618 62.9145 56.0771 63.0773C56.0924 63.2401 56.1688 63.3927 56.1841 63.5504C56.1994 63.7132 56.0822 63.8811 56.0924 64.0388C56.1026 64.1965 56.1739 64.3542 56.1739 64.517C56.1739 64.6747 56.2096 64.8426 56.1994 65.0003C56.1892 65.158 56.0516 65.3106 56.0363 65.4683C56.0211 65.626 56.0211 65.7888 56.0007 65.9465C55.9803 66.1042 55.9395 66.262 55.9141 66.4197C55.8886 66.5875 55.9039 66.7656 55.8784 66.9335C55.8529 67.1013 55.8631 67.2794 55.8376 67.4473C55.8122 67.6152 55.7765 67.783 55.751 67.9509C55.7255 68.1188 55.6797 68.2867 55.6542 68.4546C55.6287 68.6224 55.6593 68.8005 55.6338 68.9735C55.6033 69.1413 55.4198 69.2838 55.3893 69.4517C55.3587 69.6196 55.4963 69.818 55.4606 69.9858C55.43 70.1537 55.3434 70.3114 55.3128 70.4793C55.2772 70.6472 55.1804 70.7998 55.1396 70.9677C55.0988 71.1356 55.0836 71.3085 55.0428 71.4713C55.002 71.6341 54.9562 71.7918 54.9103 71.9546C54.8645 72.1174 54.8747 72.2955 54.8237 72.4532C54.7727 72.6109 54.6912 72.7635 54.6352 72.9212C54.5791 73.0789 54.5027 73.2264 54.4365 73.3841C54.3753 73.5368 54.2887 73.6843 54.2225 73.8369C54.1562 73.9895 54.039 74.1167 53.9677 74.2693C53.8964 74.4219 53.9422 74.6254 53.8658 74.7781C53.7894 74.9256 53.6875 75.0629 53.6111 75.2105C53.5346 75.358 53.392 75.475 53.3104 75.6175C53.2289 75.765 53.1015 75.882 53.02 76.0244C52.9385 76.1669 52.9945 76.3958 52.9079 76.5383C52.8213 76.6807 52.6888 76.7977 52.6022 76.9401C52.5156 77.0826 52.429 77.225 52.3373 77.3675C52.2507 77.5048 52.1487 77.632 52.0621 77.7643C51.9755 77.8965 51.8787 78.0288 51.787 78.1662C51.6953 78.2984 51.5373 78.3849 51.4456 78.5172C51.3539 78.6495 51.2826 78.797 51.1909 78.9293C51.0992 79.0615 51.0482 79.2243 50.9565 79.3566C50.8597 79.4889 50.7221 79.5855 50.6253 79.7127C50.5285 79.8399 50.5234 80.0434 50.4266 80.1706C50.3247 80.2977 50.1056 80.3283 50.0037 80.4555C49.9018 80.5826 49.8967 80.7861 49.7948 80.9082C49.6929 81.0303 49.5859 81.1524 49.4789 81.2745C49.3719 81.3966 49.2904 81.539 49.1834 81.6611C49.0764 81.7781 48.9082 81.8443 48.7961 81.9664C48.6841 82.0834 48.5312 82.1597 48.4191 82.2767C48.307 82.3937 48.2 82.5107 48.0828 82.6226C47.9707 82.7346 47.8637 82.8566 47.7465 82.9686C47.6294 83.0805 47.502 83.1771 47.3848 83.284C47.2676 83.3908 47.1555 83.5078 47.0332 83.6146C46.9109 83.7215 46.8549 83.9046 46.7326 84.0064C46.6103 84.1081 46.5033 84.2353 46.376 84.337C46.2537 84.4388 46.1314 84.5507 46.004 84.6525C45.8766 84.7542 45.6983 84.7796 45.5658 84.8814C45.4385 84.978 45.3467 85.1256 45.2143 85.2222C45.0767 85.3189 44.9493 85.4308 44.8117 85.5224C44.6742 85.6139 44.5264 85.6953 44.3838 85.7818C44.2411 85.8683 44.0118 85.8022 43.8641 85.8836C43.7214 85.965 43.6552 86.1888 43.5074 86.2702C43.3596 86.3516 43.2017 86.4076 43.059 86.489C42.9164 86.5704 42.7126 86.5551 42.5699 86.6416C42.4476 86.7128 42.3304 86.7891 42.1979 86.8502C42.0655 86.9112 41.9992 87.0791 41.8769 87.1554C41.7394 87.2419 41.5101 87.1757 41.3725 87.2571C41.2299 87.3385 41.0923 87.4148 40.9496 87.4912C40.807 87.5675 40.6847 87.6794 40.542 87.7557C40.3994 87.832 40.3178 88.0304 40.1701 88.1016C40.0223 88.1729 39.8491 88.1881 39.7013 88.2593C39.5536 88.3255 39.3498 88.2644 39.202 88.3306C39.0542 88.3967 38.932 88.5188 38.7791 88.5798C38.6262 88.6409 38.4632 88.6663 38.3154 88.7223C38.1626 88.7782 38.0556 88.9614 37.9027 89.0173C37.7499 89.0682 37.5665 89.0275 37.4085 89.0784C37.2506 89.1293 37.0773 89.1089 36.9245 89.1496C36.7716 89.1954 36.6493 89.3785 36.4965 89.4192C36.3385 89.4599 36.1857 89.5159 36.0277 89.5515C35.8698 89.5871 35.7067 89.6126 35.5488 89.6431C35.3908 89.6736 35.2227 89.6787 35.0647 89.7041C34.9068 89.7296 34.7387 89.7041 34.5756 89.7296C34.4177 89.755 34.2648 89.8364 34.1018 89.8567C33.9438 89.8771 33.7808 89.9076 33.6177 89.9229C33.4496 89.9381 33.2814 89.9076 33.1133 89.9127C32.9452 89.9178 32.777 89.8924 32.6089 89.8924C32.4407 89.8924 32.2726 89.989 32.1045 89.9839C31.9363 89.9839 31.7682 90.0043 31.6001 89.9992C31.4319 89.9941 31.2638 89.9992 31.0956 89.989C30.9275 89.9788 30.7645 89.9076 30.5963 89.8974C30.4282 89.8873 30.2651 89.7753 30.1021 89.7652C29.939 89.7601 29.7658 89.8517 29.6028 89.8415C29.4397 89.8313 29.2767 89.7346 29.1136 89.7245C28.9506 89.7143 28.7875 89.6889 28.6194 89.6787C28.4513 89.6685 28.278 89.811 28.115 89.8008C27.9519 89.7906 27.7991 89.6329 27.6309 89.6176C27.4679 89.6024 27.3048 89.5617 27.1418 89.5464C26.9788 89.5312 26.8055 89.6075 26.6425 89.5871C26.4794 89.5668 26.3011 89.6482 26.1381 89.6278C25.975 89.6075 25.812 89.5668 25.6489 89.5413C25.4859 89.521 25.3483 89.3277 25.1853 89.3022C25.0222 89.2768 24.8439 89.3429 24.6859 89.3124C24.5229 89.287 24.3548 89.2768 24.1968 89.2463C24.0338 89.2157 23.8656 89.2056 23.7077 89.175C23.5446 89.1394 23.3867 89.1038 23.2236 89.0631C23.0606 89.0275 22.9026 88.9919 22.7396 88.9512C22.5817 88.9105 22.4084 88.9054 22.2505 88.8596C22.0925 88.8138 21.9855 88.5951 21.8276 88.5493C21.6696 88.4984 21.5066 88.4577 21.3486 88.4069C21.1907 88.356 20.9818 88.4527 20.8238 88.4069C20.6659 88.356 20.5538 88.1678 20.3958 88.1118C20.2379 88.0609 20.029 88.1525 19.871 88.1016C19.7131 88.0457 19.5806 87.9185 19.4227 87.8574C19.2647 87.8015 19.0813 87.8116 18.9284 87.7557C18.7705 87.6946 18.6176 87.6285 18.4597 87.5675C18.3068 87.5064 18.1795 87.364 18.0266 87.2978C17.8737 87.2368 17.7056 87.2012 17.5528 87.135C17.3999 87.0689 17.2521 86.9926 17.0993 86.9214C16.9464 86.8552 16.8394 86.6925 16.6866 86.6212C16.5337 86.55 16.335 86.5856 16.1822 86.5093C16.0344 86.4381 15.9121 86.3058 15.7644 86.2295C15.6166 86.1532 15.4485 86.1125 15.3007 86.0311C15.1529 85.9497 15.0612 85.7767 14.9135 85.6953C14.7657 85.614 14.5466 85.6597 14.404 85.5732C14.2613 85.4868 14.19 85.2884 14.0473 85.1968C13.9046 85.1052 13.7569 85.034 13.6193 84.9373C13.4817 84.8458 13.3645 84.7338 13.227 84.6423C13.0894 84.5507 12.9366 84.4947 12.799 84.4032C12.6614 84.3116 12.4525 84.332 12.3149 84.2404C12.1774 84.1488 12.0449 84.0522 11.9124 83.9606C11.7749 83.869 11.6781 83.7266 11.5405 83.635C11.408 83.5434 11.2552 83.4722 11.1227 83.3756C10.9902 83.284 10.9138 83.1008 10.7813 83.0093C10.6488 82.9126 10.5062 82.8312 10.3788 82.7345C10.2463 82.6379 10.1037 82.5565 9.97118 82.4598C9.8438 82.3581 9.69095 82.2869 9.56357 82.1851C9.4362 82.0834 9.35976 81.9155 9.23748 81.8138C9.1101 81.7069 8.94706 81.651 8.82478 81.5441C8.70249 81.4373 8.64135 81.2592 8.52417 81.1473C8.40188 81.0354 8.21336 80.9998 8.09617 80.8879C7.97898 80.7759 7.92294 80.5979 7.81085 80.4809C7.69875 80.3639 7.60194 80.2316 7.48985 80.1095C7.38286 79.9874 7.26057 79.8806 7.15357 79.7534C7.04657 79.6262 6.88862 79.5397 6.78162 79.4176C6.67463 79.2905 6.55235 79.1785 6.44535 79.0514C6.33835 78.9242 6.19059 78.8326 6.08359 78.7054C5.97659 78.5782 5.87979 78.4409 5.77789 78.3137C5.67089 78.1865 5.56389 78.0593 5.46198 77.9271C5.36008 77.7948 5.37027 77.5811 5.26837 77.4489C5.16647 77.3166 4.99833 77.2352 4.90152 77.1029C4.80471 76.9707 4.62638 76.8893 4.53467 76.7519C4.44296 76.6146 4.48881 76.3907 4.4022 76.2483C4.31558 76.1058 4.17291 75.999 4.09139 75.8515C4.01497 75.7039 3.99968 75.5208 3.91306 75.3733C3.83154 75.2308 3.65831 75.1342 3.57169 74.9917C3.48507 74.8493 3.47998 74.6559 3.38827 74.5135C3.30164 74.3711 3.23031 74.2184 3.1437 74.076C3.05708 73.9336 2.83289 73.8725 2.74627 73.7352C2.65966 73.5927 2.67494 73.3841 2.58833 73.2417C2.50171 73.0992 2.32848 73.0077 2.24695 72.8652C2.15524 72.7024 2.05334 72.5346 1.96672 72.3616C1.8852 72.1886 1.7782 72.0207 1.70686 71.8478C1.63553 71.6697 1.65082 71.4611 1.59987 71.278C1.55911 71.1254 1.60496 70.9524 1.5642 70.7998C1.52344 70.6472 1.35021 70.5353 1.30945 70.3826C1.26869 70.23 1.24321 70.0774 1.20245 69.9248C1.16169 69.7722 1.1464 69.6145 1.11073 69.4618C1.07507 69.3092 0.952787 69.177 0.917124 69.0243C0.881456 68.8717 0.952787 68.6937 0.922216 68.541C0.891645 68.3884 0.850885 68.2358 0.820314 68.0832C0.794836 67.9306 0.769362 67.7729 0.743887 67.6202C0.723505 67.4676 0.774454 67.3048 0.759173 67.1471C0.743887 66.9894 0.708223 66.8419 0.698031 66.6842C0.687842 66.5265 0.61141 66.3739 0.596125 66.2111C0.580839 66.0534 0.641985 65.8855 0.6267 65.7278C0.606318 65.5701 0.565558 65.4124 0.545176 65.2547C0.524794 65.097 0.453463 64.9443 0.433081 64.7866C0.412703 64.6289 0.377039 64.4712 0.356657 64.3135C0.336279 64.1558 0.326083 63.9981 0.305704 63.8404C0.285323 63.6827 0.183421 63.5352 0.163039 63.3775C0.142661 63.2147 0.300612 63.0264 0.285326 62.8636C0.270041 62.7009 0.19361 62.5431 0.178324 62.3753C0.163039 62.2125 0.0407587 62.0548 0.0305696 61.8869C0.0203806 61.719 0.173232 61.546 0.163039 61.3832C0.157946 61.2154 -1.28448e-06 61.0577 -1.27025e-06 60.8949C-1.25557e-06 60.727 0.0152843 60.5642 0.0152843 60.3963C0.0152843 60.2335 0.0713336 60.0656 0.0713337 59.8978C0.0713337 59.7299 0.106997 59.5671 0.117186 59.4043C0.122283 59.2415 0.0713261 59.0736 0.0815152 58.9057C0.0917081 58.7429 0.15285 58.5802 0.163039 58.4123C0.173232 58.2495 0.101901 58.0765 0.117186 57.9086C0.132472 57.7458 0.142661 57.578 0.163039 57.4152C0.183421 57.2524 0.310802 57.0998 0.331183 56.937C0.351562 56.7742 0.305705 56.6012 0.331184 56.4333C0.356658 56.2705 0.407607 56.1128 0.438178 55.95C0.468749 55.7872 0.443275 55.6143 0.478942 55.4515C0.509513 55.2887 0.519702 55.1208 0.55537 54.958C0.591037 54.7952 0.703128 54.6528 0.738796 54.49C0.779556 54.3272 0.922218 54.1949 0.968074 54.0372C1.01393 53.8693 1.00374 53.6913 1.04959 53.5285C1.09545 53.3606 1.19226 53.2131 1.23812 53.0452C1.28397 52.8773 1.33492 52.7196 1.38078 52.5517C1.42664 52.3889 1.32473 52.1804 1.38078 52.0176C1.43173 51.8548 1.52854 51.7022 1.58459 51.5445C1.64063 51.3817 1.66101 51.2087 1.72215 51.0459C1.78329 50.8831 1.95143 50.7661 2.01767 50.6084C2.08391 50.4507 2.17053 50.3082 2.24186 50.1505C2.31319 49.9979 2.35905 49.8351 2.44057 49.6825C2.517 49.5299 2.60361 49.3875 2.69023 49.2348C2.77685 49.0924 2.87875 48.9652 2.97047 48.8278C3.06218 48.6905 3.04689 48.4768 3.1437 48.3446C3.24051 48.2072 3.32203 48.0597 3.42393 47.9274C3.52584 47.7951 3.70416 47.729 3.81626 47.6018C3.92326 47.4746 4.05063 47.3678 4.16273 47.2457C4.27482 47.1236 4.2952 46.9099 4.41239 46.7929C4.52958 46.6759 4.77924 46.7014 4.90152 46.5895C5.02381 46.4775 5.10023 46.3147 5.22761 46.2079C5.35499 46.1011 5.42632 45.923 5.5588 45.8264C5.69127 45.7246 5.91036 45.745 6.04793 45.6534C6.17531 45.5669 6.28231 45.455 6.41478 45.3838C6.55235 45.3125 6.63387 45.1243 6.77654 45.0582C6.9192 44.9971 7.11791 45.0785 7.26057 45.0226C7.40324 44.9666 7.55609 44.9259 7.69875 44.8699C7.84142 44.814 7.99937 44.7733 8.13694 44.7122C8.28979 44.6461 8.42736 44.5342 8.61079 44.4528C8.75345 44.3867 8.81459 44.2493 9.00311 44.1628" fill="#EBE8DC"/>
</svg>
