<svg width="107" height="116" viewBox="0 0 107 116" fill="none" xmlns="http://www.w3.org/2000/svg">
<path d="M105.402 76.4985C105.379 76.4388 105.135 76.1901 104.847 75.7905C104.701 75.5869 104.602 75.281 104.409 75.0208C104.246 74.8038 104.022 74.6075 103.835 74.3621C103.669 74.1377 103.52 73.8823 103.338 73.639C103.167 73.4126 102.843 73.3098 102.663 73.0739C102.484 72.838 102.421 72.5146 102.24 72.2842C102.058 72.0538 101.785 71.908 101.609 71.6796C101.433 71.4512 101.209 71.2548 101.026 71.0299C100.842 70.8051 100.735 70.4897 100.552 70.2778C100.356 70.0415 100.191 69.7986 100.011 69.5941C99.8022 69.3594 99.6324 69.1145 99.4531 68.923C99.2195 68.6783 98.8689 68.6414 98.6916 68.4888C98.4757 68.3019 98.4413 67.8756 98.2204 67.6868C97.9995 67.4979 97.6546 67.4759 97.4359 67.2816C97.2171 67.0872 96.9184 67.0073 96.7047 66.8149C96.491 66.6225 96.4155 66.2562 96.2017 66.0638C95.988 65.8714 95.7188 65.746 95.5072 65.5481C95.2956 65.3503 95.105 65.1289 94.8934 64.931C94.6818 64.7331 94.5927 64.3868 94.3861 64.1909C94.1795 63.995 93.8823 63.8966 93.6729 63.6933C93.4635 63.4899 93.28 63.265 93.0684 63.0671C92.8569 62.8693 92.7057 62.6064 92.4963 62.403C92.2869 62.1997 91.8925 62.2152 91.6881 62.0138C91.4837 61.8125 91.2513 61.6381 91.0441 61.4292C90.8368 61.2204 90.7764 60.86 90.5742 60.6531C90.3719 60.4462 90.2324 60.1689 90.0302 59.962C89.8279 59.7551 89.5631 59.6187 89.3609 59.4118C89.1586 59.205 88.7959 59.1696 88.5987 58.9647C88.3887 58.7484 88.416 58.283 88.2153 58.0577C88.0146 57.8323 87.6995 57.7205 87.5081 57.4862C87.3168 57.2519 87.1865 56.9655 87.0045 56.7222C86.8225 56.4788 86.6829 56.2015 86.5009 55.9581C86.3474 55.7451 86.0088 55.605 85.7781 55.3234C85.5868 55.089 85.3264 54.8973 85.1093 54.6401C84.8922 54.3829 84.7145 54.1285 84.5153 53.8848C84.3032 53.6295 84.1616 53.3133 83.9774 53.0754C83.7489 52.7883 83.5792 52.4991 83.433 52.2826C83.3267 52.1263 83.2259 51.8388 83.06 51.4813C82.9446 51.2452 82.6649 51.0585 82.534 50.7592C82.4201 50.5047 82.3121 50.2207 82.1962 49.9273C82.0867 49.6618 82.0455 49.3408 81.9353 49.0624C81.8251 48.7839 81.8492 48.4443 81.7412 48.1603C81.6332 47.8764 81.3865 47.6646 81.2863 47.3902C81.1862 47.1157 80.9288 46.887 80.8286 46.6125C80.725 46.3176 80.8977 45.9097 80.8026 45.6372C80.6982 45.3293 80.5736 45.0579 80.4964 44.7988C80.3871 44.4445 80.0738 44.2255 80.0258 44.0097C79.9644 43.7251 80.0408 43.3998 79.9794 43.1152C79.918 42.8307 79.9362 42.5204 79.8798 42.2378C79.8234 41.9553 79.6917 41.6873 79.6425 41.4012C79.5933 41.1151 79.6094 40.8104 79.5551 40.5223C79.5009 40.2342 79.3476 39.9769 79.2934 39.6888C79.2391 39.4007 79.1562 39.1267 79.102 38.8386C79.0477 38.5505 79.076 38.2442 79.0218 37.9562C78.9676 37.6681 78.998 37.3563 78.9416 37.0737C78.8852 36.7911 78.6544 36.5539 78.593 36.2694C78.5252 35.9569 78.4912 35.6323 78.4356 35.3183C78.3801 35.0043 78.3898 34.6717 78.3536 34.3526C78.3174 34.0336 78.2446 33.7191 78.2206 33.3985C78.1966 33.078 78.2479 32.7427 78.2289 32.4241C78.2099 32.1055 78.2247 31.7749 78.2129 31.4527C78.2011 31.1306 78.0989 30.8173 78.0943 30.4916C78.0896 30.166 78.2492 29.8354 78.2496 29.5118C78.25 29.1882 78.013 28.8787 78.0184 28.557C78.0238 28.2353 78.0141 27.9077 78.0145 27.5841C78.0149 27.2605 78.1573 26.9294 78.1577 26.6058C78.1579 26.3265 78.2243 25.9972 78.2599 25.6431C78.2932 25.3388 78.4069 25.0218 78.456 24.692C78.4987 24.3788 78.4002 24.0414 78.4522 23.7191C78.5042 23.3969 78.6873 23.0946 78.7393 22.7723C78.7913 22.4501 78.9294 22.13 78.977 21.8187C79.0284 21.4835 78.9542 21.1431 78.9926 20.8408C79.0354 20.4831 78.8787 20.1609 78.8911 19.8801C78.9087 19.5569 78.9608 19.2346 78.9784 18.9115C78.9959 18.5883 79.1684 18.2691 79.186 17.9459C79.2036 17.6227 79.0276 17.3056 79.0451 16.9824C79.0627 16.6592 79.0681 16.3375 79.0907 16.0163C79.1133 15.6951 79.4428 15.3745 79.4604 15.0513C79.478 14.7282 79.3902 14.4078 79.4128 14.0865C79.4354 13.7653 79.5168 13.442 79.5344 13.1188C79.552 12.7956 79.3831 12.4749 79.4057 12.1537C79.4283 11.8325 79.4094 11.5139 79.427 11.1907C79.4445 10.8675 79.4722 10.5483 79.4898 10.2251C79.5074 9.90191 79.7142 9.58368 79.7318 9.26049C79.7494 8.9373 79.61 8.61554 79.6254 8.29784C79.6385 8.03002 79.6738 7.76463 79.6719 7.49086C79.6699 7.2171 79.8731 6.9228 79.8518 6.65408C79.8305 6.38535 79.5904 6.15714 79.5497 5.89346C79.4991 5.58143 79.4751 5.26085 79.4346 4.95278C79.394 4.64472 79.4425 4.30199 79.407 3.9959C79.373 3.67136 79.3224 3.35934 79.2725 3.06027C79.2163 2.7333 79.2303 2.38968 79.1373 2.11168C79.033 1.80379 78.6613 1.68866 78.4849 1.46027C78.3086 1.23187 78.2678 0.777688 77.9814 0.651833C77.738 0.549294 77.378 0.756262 77.0411 0.743749C76.9378 0.741047 76.6019 0.652739 76.2005 0.817935C75.9506 0.922364 75.7245 1.20126 75.4437 1.32522C75.1629 1.44919 74.9155 1.64985 74.6713 1.76922C74.2835 1.95881 73.9613 2.04101 73.8714 2.10709C73.6062 2.29434 73.2233 2.29542 72.9559 2.48816C72.6885 2.68091 72.4696 2.95629 72.2179 3.16794C71.9662 3.37959 71.6609 3.551 71.4328 3.79101C71.2306 4.0095 71.0491 4.24888 70.8468 4.46737C70.6446 4.68586 70.5309 5.00284 70.3309 5.21583C70.1308 5.42883 69.895 5.615 69.6977 5.83547C69.5005 6.05594 69.2204 6.19287 69.0182 6.41136C68.816 6.62985 68.7223 6.95475 68.523 7.18071C68.3236 7.40668 68.0771 7.57593 67.8827 7.80387C67.6883 8.03181 67.4782 8.24085 67.2888 8.47077C67.0995 8.7007 66.9823 8.99724 66.8008 9.23661C66.6121 9.4795 66.442 9.74876 66.2483 9.98967C66.0546 10.2306 65.8223 10.4372 65.6264 10.6836C65.4305 10.93 65.234 11.1634 65.0403 11.4043C64.8466 11.6452 64.6764 11.9145 64.4827 12.1554C64.289 12.3963 64.1547 12.6924 63.9559 12.9313C63.7572 13.1703 63.4913 13.3446 63.2926 13.5835C63.0939 13.8224 62.8437 14.0156 62.6471 14.249C62.4506 14.4825 62.3605 14.8278 62.1618 15.0667C61.9631 15.3057 61.6765 15.4591 61.4777 15.698C61.279 15.9369 61.2068 16.2957 61.0031 16.5326C60.7994 16.7696 60.5721 16.9781 60.3705 17.2096C60.1689 17.441 59.7765 17.4955 59.575 17.727C59.3734 17.9584 59.3198 18.3436 59.1132 18.573C58.9066 18.8025 58.7158 19.0509 58.5092 19.2804C58.3026 19.5098 58.0181 19.6577 57.8116 19.8872C57.605 20.1167 57.2998 20.2437 57.0883 20.4712C56.8723 20.7097 56.7443 21.0337 56.5155 21.2607C56.2867 21.4878 55.9816 21.6148 55.7499 21.8344C55.5183 22.0539 55.4887 22.5248 55.2492 22.7349C55.0097 22.945 54.6253 22.9645 54.3859 23.1746C54.1766 23.3523 53.9426 23.6217 53.6592 23.8843C53.4276 24.1039 53.2844 24.4663 53.0319 24.7094C52.7794 24.9525 52.4827 25.1019 52.2396 25.336C51.9871 25.579 51.7103 25.7808 51.4737 25.9984C51.1903 26.261 51.017 26.6115 50.8027 26.7872C50.5532 26.9933 50.2716 27.1487 50.017 27.3529C49.7625 27.5571 49.5101 27.7557 49.2606 27.9619C49.0111 28.1681 48.7909 28.4175 48.5414 28.6237C48.2918 28.8298 48.0687 29.0718 47.8192 29.278C47.5697 29.4841 47.206 29.5246 46.9565 29.7307C46.707 29.9369 46.3911 30.047 46.1466 30.2551C45.9021 30.4632 45.7061 30.754 45.4566 30.9602C45.2071 31.1664 44.9868 31.4158 44.7373 31.622C44.4949 31.8246 44.2911 32.1059 44.038 32.2917C43.785 32.4774 43.4029 32.447 43.1392 32.6158C42.8755 32.7846 42.6196 32.9629 42.353 33.1242C42.0865 33.2855 41.8782 33.5778 41.6038 33.7297C41.5514 33.7598 41.4727 33.7096 41.4224 33.7342C41.1424 33.8268 40.8927 34.0773 40.6121 34.1569C40.3315 34.2365 40.0422 34.338 39.7609 34.4046C39.4796 34.4712 39.1847 34.5135 38.8977 34.5651C38.6107 34.6168 38.3169 34.5832 38.027 34.6274C37.7372 34.6716 37.4539 34.6994 37.1612 34.7361C36.8685 34.7728 36.5813 34.6784 36.2908 34.7096C36.0003 34.7409 35.7214 34.9481 35.433 34.9739C35.1447 34.9996 34.856 34.9236 34.5655 34.9549C34.275 34.9861 33.9992 35.112 33.7087 35.1433C33.4182 35.1745 33.1275 35.0596 32.837 35.0909C32.5464 35.1221 32.2582 35.1035 31.9706 35.1422C31.6607 35.1785 31.3572 35.4332 31.0474 35.4694C30.7375 35.5057 30.4187 35.4179 30.1066 35.4596C29.7946 35.5014 29.482 35.4858 29.1721 35.5221C28.8622 35.5584 28.5487 35.6186 28.2388 35.6549C28.1097 35.6737 27.8286 35.8864 27.4196 35.9534C27.1786 35.9915 26.9015 36.0915 26.5973 36.1427C26.3369 36.1859 26.0508 36.1617 25.7588 36.2114C25.4934 36.2526 25.1963 36.1098 24.9136 36.1505C24.631 36.1912 24.36 36.173 24.0774 36.2137C23.7947 36.2544 23.5199 36.3045 23.2444 36.3417C22.969 36.3789 22.696 36.7472 22.4227 36.7788C22.1372 36.8121 21.8463 36.7416 21.5823 36.7643C21.2868 36.7935 20.999 36.8766 20.7444 36.8903C20.426 36.9042 20.1305 36.9334 19.8989 36.9181C19.6946 36.9072 19.4275 36.5858 19.0625 36.6003C18.8101 36.6085 18.5198 36.7859 18.2042 36.8072C17.9374 36.8224 17.6496 36.9055 17.3491 36.9328C17.0729 36.957 16.7879 36.8571 16.4874 36.8844C16.2112 36.9086 15.9242 36.9602 15.6287 36.9895C15.3504 37.0192 15.0632 37.1153 14.7727 37.1465C14.4822 37.1777 14.2015 37.0668 13.9089 37.1036C13.6162 37.1403 13.3463 37.4273 13.0608 37.4605C12.7753 37.4937 12.4878 37.4881 12.2023 37.5213C11.9168 37.5545 11.6177 37.3728 11.3322 37.406C11.0467 37.4393 10.7589 37.5224 10.4734 37.5556C10.1879 37.5888 9.89995 37.7163 9.61947 37.7515C9.33899 37.7867 9.03876 37.7252 8.75326 37.7584C8.46777 37.7916 8.17508 37.8283 7.89459 37.8635C7.60192 37.9003 7.31342 37.9704 7.03795 38.0076C6.73809 38.0478 6.46218 38.2182 6.18671 38.2553C5.88184 38.2936 5.57923 38.0915 5.31596 38.1271C4.99889 38.1669 4.72115 38.4445 4.47007 38.4786C4.10206 38.53 3.80872 38.5538 3.61645 38.5857C3.35317 38.6214 3.0292 38.5759 2.71363 38.5972C2.39806 38.6186 2.092 38.5865 1.82356 38.6646C1.502 38.7597 1.10146 38.8935 0.979947 39.201C0.946273 39.4036 1.29886 39.6699 1.48708 39.9855C1.62181 40.2165 1.76006 40.468 1.92704 40.7054C2.10689 40.9542 2.31913 41.165 2.4597 41.3666C2.52104 41.4607 2.68301 41.6961 2.99955 42.0243C3.16817 42.1989 3.28038 42.5162 3.51335 42.7479C3.69986 42.9359 3.83944 43.2133 4.05954 43.4336C4.25106 43.6235 4.66421 43.59 4.8793 43.8083C5.07583 44.0002 5.27587 44.2126 5.49529 44.4199C5.69684 44.6138 5.88972 44.8297 6.10413 45.035C6.30568 45.229 6.35742 45.6113 6.57183 45.8166C6.78624 46.022 7.08716 46.0964 7.29656 46.2998C7.50596 46.5032 7.58944 46.8346 7.80386 47.0399C8.01827 47.2452 8.2983 47.3432 8.5077 47.5466C8.7171 47.7499 8.84733 48.0363 9.05673 48.2397C9.26613 48.443 9.58141 48.5105 9.79081 48.7138C10.0002 48.9172 10.1441 49.1836 10.3535 49.3869C10.5629 49.5903 10.7256 49.8387 10.9372 50.0366C11.1487 50.2344 11.3092 50.4883 11.5207 50.6862C11.7323 50.8841 11.9648 51.0584 12.1692 51.2598C12.3735 51.4612 12.7471 51.4691 12.9565 51.6725C13.1659 51.8759 13.204 52.2782 13.4105 52.4741C13.6171 52.67 13.82 52.8898 14.0265 53.0857C14.2331 53.2816 14.4893 53.44 14.6937 53.6414C14.898 53.8427 15.242 53.8961 15.4486 54.092C15.6551 54.2879 15.74 54.6452 15.9465 54.8411C16.1531 55.037 16.4762 55.1139 16.6827 55.3098C16.8893 55.5057 17.1246 55.6875 17.3312 55.8834C17.5377 56.0793 17.6391 56.4241 17.8456 56.62C18.0522 56.8159 18.2068 57.0992 18.4134 57.2951C18.6278 57.5005 18.9992 57.5139 19.2007 57.7078C19.4202 57.9151 19.6872 58.046 19.8837 58.2379C20.1031 58.4453 20.3103 58.6541 20.509 58.8406C20.7363 59.0574 20.9199 59.2822 21.1136 59.4667C21.3537 59.6949 21.4587 60.0158 21.6345 60.1868C21.9497 60.4891 22.0619 60.8064 22.1527 60.8994C22.3885 61.1386 22.756 61.2204 22.9919 61.4596C23.2277 61.6988 23.5376 61.853 23.7662 62.0957C23.9427 62.2797 24.1514 62.4701 24.3522 62.6954C24.5293 62.8924 24.5445 63.2794 24.7302 63.4987C24.908 63.7087 25.1211 63.8881 25.3017 64.1055C25.4824 64.3229 25.6135 64.5779 25.787 64.7988C25.9605 65.0197 26.0778 65.2946 26.2535 65.5101C26.4292 65.7255 26.84 65.7418 27.0106 65.9553C27.1869 66.1836 27.2856 66.4766 27.4541 66.6955C27.6333 66.9314 27.8255 67.1343 27.9839 67.3493C28.1709 67.5946 28.3329 67.83 28.4785 68.0336C28.6926 68.3277 28.756 68.6512 28.8623 68.8074C29.0058 69.0165 29.1505 69.2514 29.2592 69.5483C29.3487 69.8059 29.3232 70.1196 29.3975 70.4156C29.4683 70.6912 29.6819 70.928 29.7461 71.22C29.8104 71.5121 29.8402 71.8032 29.9016 72.0878C29.9637 72.3853 30.0639 72.6598 30.1296 72.9334C30.2046 73.2423 30.1274 73.5991 30.2184 73.8382C30.2269 73.8606 30.2696 74.1632 30.3566 74.7055C30.3995 74.9637 30.6166 75.2209 30.6685 75.5589C30.7149 75.8375 30.8911 76.1103 30.9395 76.4278C30.9815 76.7174 30.796 77.0695 30.8416 77.3795C30.8871 77.6896 31.1351 77.9272 31.1757 78.2353C31.2162 78.5434 30.9576 78.9046 31.0003 79.2072C31.043 79.5098 31.2629 79.7745 31.3006 80.0751C31.3383 80.3757 31.3717 80.6872 31.4044 80.9859C31.4406 81.3049 31.4589 81.6105 31.4837 81.8997C31.5156 82.2297 31.5999 82.5297 31.614 82.8019C31.6287 83.1315 31.6168 83.4696 31.6364 83.8012C31.6561 84.1328 31.6829 84.4608 31.6976 84.7904C31.7122 85.12 31.8223 85.4428 31.837 85.7724C31.8516 86.102 31.8103 86.4412 31.83 86.7728C31.8473 87.1542 31.8252 87.5327 31.8375 87.9122C31.8499 88.2916 31.6865 88.6906 31.706 89.0665C31.7193 89.3702 31.752 89.6688 31.7531 89.9739C31.7542 90.2791 32.0027 90.5742 31.9916 90.8809C31.9806 91.1876 31.8175 91.4977 31.8014 91.8025C31.7853 92.1072 31.762 92.4154 31.7387 92.7237C31.7154 93.0319 31.7287 93.3356 31.7005 93.6418C31.6722 93.9481 31.4618 94.2459 31.4285 94.5502C31.3951 94.8545 31.564 95.1751 31.5307 95.4794C31.5055 95.7044 31.4651 96.0122 31.458 96.3967C31.4549 96.6685 31.3069 96.9846 31.31 97.3286C31.3126 97.6154 31.5705 97.9014 31.5751 98.227C31.5806 98.5212 31.5745 98.8299 31.5885 99.1465C31.599 99.4427 31.3734 99.7789 31.3874 100.096C31.4028 100.394 31.5603 100.685 31.5743 101.001C31.5883 101.318 31.6791 101.601 31.6952 101.912C31.7114 102.223 31.6099 102.539 31.6333 102.847C31.6566 103.154 31.6405 103.459 31.6638 103.767C31.6872 104.074 31.8102 104.364 31.8336 104.672C31.8569 104.979 31.7339 105.305 31.7572 105.613C31.7805 105.92 31.7041 106.246 31.7296 106.548C31.7551 106.85 32.054 107.12 32.0816 107.417C32.1093 107.714 32.0601 108.044 32.0906 108.348C32.124 108.659 32.1717 108.964 32.2066 109.257C32.2428 109.576 32.1592 109.905 32.1962 110.192C32.2374 110.513 32.4595 110.773 32.5037 111.057C32.5528 111.387 32.3314 111.757 32.3821 112.025C32.4519 112.376 32.8349 112.565 32.9008 112.795C32.9477 112.94 32.9994 113.322 33.097 113.735C33.1691 114.037 33.2253 114.364 33.3211 114.649C33.4467 115.035 33.5168 115.298 33.6793 115.4C33.8721 115.426 34.1602 115.444 34.4672 115.21C34.6843 115.042 34.8232 114.691 35.0684 114.495C35.3135 114.3 35.553 114.09 35.7937 113.95C35.9058 113.887 36.0866 113.634 36.4362 113.322C36.6332 113.146 36.9083 113.007 37.1659 112.766C37.3694 112.573 37.7488 112.551 37.9898 112.323C38.1977 112.119 38.3022 111.767 38.536 111.542C38.7489 111.34 38.9398 111.092 39.1714 110.872C39.3865 110.665 39.5959 110.443 39.8225 110.222C40.0492 110 40.3092 109.855 40.5337 109.639C40.7581 109.423 41.0204 109.273 41.247 109.051C41.4736 108.83 41.6737 108.617 41.9003 108.395C42.1269 108.174 42.2692 107.887 42.4908 107.664C42.7124 107.44 42.9796 107.292 43.1991 107.074C43.4185 106.856 43.6801 106.692 43.8995 106.474C44.1189 106.256 44.2941 105.989 44.5135 105.771C44.733 105.553 44.8403 105.208 45.0597 104.99C45.2791 104.772 45.5507 104.612 45.7702 104.394C45.9896 104.176 46.3184 104.078 46.5328 103.858C46.7472 103.638 46.7988 103.214 47.0111 102.999C47.2233 102.785 47.4157 102.518 47.628 102.303C47.8496 102.08 48.2569 102.076 48.4691 101.861C48.6929 101.632 48.928 101.433 49.1381 101.224C49.3691 100.991 49.4507 100.624 49.6557 100.413C49.8889 100.175 50.0847 99.9281 50.2804 99.7261C50.5251 99.4736 50.8253 99.3446 51.0044 99.1551C51.3354 98.816 51.5128 98.5433 51.5984 98.4438C51.8237 98.1963 52.0854 97.9886 52.3057 97.7392C52.526 97.4897 52.7412 97.2383 52.9636 96.9833C53.1861 96.7284 53.4142 96.4884 53.6294 96.2369C53.8447 95.9855 54.14 95.8101 54.3603 95.5607C54.5805 95.3112 54.6143 94.8738 54.8395 94.6263C55.0785 94.3588 55.5018 94.2848 55.7436 94.0248C55.9855 93.7648 56.1337 93.4044 56.3755 93.1444C56.5986 92.9024 56.8845 92.736 57.1076 92.4941C57.3308 92.2521 57.5517 92.0156 57.7698 91.7716C57.9879 91.5276 58.0838 91.1529 58.2997 90.9144C58.5156 90.6759 58.793 90.4871 59.0161 90.2451C59.2393 90.0031 59.3795 89.6776 59.6004 89.4411C59.8214 89.2046 60.003 88.9209 60.2261 88.6789C60.4492 88.4369 60.8752 88.4147 61.0933 88.1708C61.3114 87.9268 61.4359 87.5824 61.6518 87.3439C61.6821 87.3114 61.7823 87.351 61.8176 87.3205C62.0161 87.1259 62.1026 86.8046 62.2983 86.6025C62.494 86.4005 62.8333 86.3632 63.029 86.1611C63.2247 85.9591 63.2876 85.6094 63.4912 85.4168C63.7355 85.2531 64.0363 85.137 64.3301 84.9801C64.6024 84.8337 64.928 84.8164 65.2109 84.6869C65.4939 84.5574 65.7202 84.2342 66.0038 84.1177C66.3018 83.9942 66.6528 84.0884 66.9299 83.9884C67.2501 83.8673 67.5119 83.6596 67.7724 83.5721C68.1874 83.4313 68.5046 83.3471 68.6496 83.3029C68.9008 83.2244 69.1683 82.9872 69.4862 82.916C69.7553 82.8509 70.083 83.0629 70.3966 83.0027C70.6735 82.9471 70.9412 82.6656 71.2454 82.6143C71.5274 82.5607 71.8382 82.6835 72.1374 82.6303C72.4366 82.5771 72.7137 82.4771 73.0107 82.4293C73.3077 82.3816 73.5811 82.1151 73.8759 82.0728C74.1708 82.0306 74.4855 82.2756 74.7782 82.2389C75.0708 82.2021 75.3542 81.9395 75.6469 81.9028C75.9396 81.8661 76.2423 81.8333 76.53 81.7946C76.8176 81.7559 77.136 81.9769 77.4214 81.9437C77.7242 81.9109 78.0126 81.6503 78.293 81.6151C78.6029 81.5788 78.8973 81.4792 79.1756 81.4495C79.4955 81.4172 79.7978 81.7081 80.0618 81.6854C80.3257 81.6627 80.6173 81.5113 80.9457 81.5014C81.2254 81.4976 81.5231 81.4628 81.835 81.4655C82.1197 81.4637 82.4096 81.6099 82.7071 81.6196C83.0046 81.6292 83.2944 81.6294 83.5919 81.639C83.8894 81.6487 84.2079 81.3999 84.5033 81.415C84.7987 81.4302 85.1019 81.4547 85.3872 81.4659C85.6948 81.4795 85.9925 81.4448 86.2778 81.4559C86.5976 81.468 86.87 81.7026 87.1453 81.7098C87.4894 81.7188 87.7897 81.7803 88.0277 81.7791C88.3368 81.7743 88.642 81.6472 88.936 81.6364C89.23 81.6256 89.5403 81.6911 89.8393 81.6823C90.1383 81.6734 90.4474 81.6686 90.7414 81.6578C91.0354 81.647 91.347 81.5478 91.646 81.539C91.9451 81.5302 92.2488 81.6121 92.545 81.5958C92.8412 81.5795 93.1477 81.2879 93.4489 81.2736C93.7501 81.2593 94.043 81.5592 94.3442 81.5449C94.6454 81.5306 94.9403 81.4883 95.2465 81.476C95.5527 81.4637 95.8467 81.2624 96.1507 81.2555C96.4548 81.2487 96.7453 81.2175 97.0543 81.2126C97.3634 81.2077 97.6509 81.2134 97.955 81.2066C98.0948 81.2047 98.3994 81.4457 98.8132 81.4251C99.0678 81.4114 99.3622 81.0769 99.6806 81.0631C99.9524 81.0498 100.246 81.1148 100.542 81.0985C100.826 81.0838 101.116 81.2874 101.407 81.2691C101.698 81.2509 101.989 81.1179 102.275 81.0976C102.573 81.0759 102.866 80.9504 103.137 80.9242C103.455 80.8973 103.755 81.0476 104.009 81.0209C104.421 80.9744 104.731 80.8494 104.871 80.8031C105.207 80.6879 105.438 80.4684 105.665 80.3485C106.017 80.1635 106.23 80.0193 106.367 79.8195C106.559 79.5397 106.715 79.246 106.622 78.9236C106.548 78.672 106.189 78.5239 106.025 78.2366C105.887 77.9982 105.778 77.7013 105.624 77.4309C105.481 77.1775 105.53 76.8034 105.415 76.5229L105.402 76.4985Z" fill="#EBE8DC"/>
</svg>
