<svg width="76" height="77" viewBox="0 0 76 77" fill="none" xmlns="http://www.w3.org/2000/svg">
<path d="M56.2336 0.653104C55.3706 0.190521 54.2865 0.272643 53.467 0.875526C53.467 0.875526 36.3807 13.4368 34.3411 14.9489C32.0618 14.1299 13.0085 7.2093 13.0085 7.2093C12.0764 6.87551 11.025 7.11725 10.2762 7.85278C10.0745 8.0526 9.8997 8.29051 9.75313 8.51986C9.40795 9.16383 9.29297 9.90752 9.50546 10.6136C9.50546 10.6136 15.0264 30.6976 15.7022 33.0968C14.1233 35.1164 0.975896 52.0154 0.975896 52.0154C0.888501 52.1344 0.791236 52.2718 0.722202 52.4005C0.307985 53.1733 0.25387 54.068 0.594895 54.843C0.996774 55.769 1.89378 56.3445 2.89181 56.3347C2.89181 56.3347 23.3918 56.1907 25.8635 56.1655C27.1828 58.2465 38.1173 75.5951 38.1173 75.5951C38.6519 76.45 39.6094 76.8685 40.6115 76.7188C41.464 76.5836 42.1975 76.053 42.6117 75.2803C42.6808 75.1515 42.7597 75.0043 42.792 74.8558C42.792 74.8558 49.918 54.6819 50.7907 52.26C53.1714 51.5228 73.0735 45.3502 73.0735 45.3502C73.7792 45.1362 74.3532 44.6386 74.6984 43.9946C74.8364 43.737 74.9279 43.4782 74.9925 43.1812C75.199 42.1787 74.8379 41.1324 74.044 40.5411C74.044 40.5411 57.9551 28.2222 56.0309 26.7408C56.1891 24.1965 57.5532 3.0421 57.5532 3.0421C57.6114 2.00744 57.1078 1.05065 56.2448 0.588066" fill="#EBE8DC"/>
</svg>
