<svg width="40" height="59" viewBox="0 0 40 59" fill="none" xmlns="http://www.w3.org/2000/svg">
<path d="M39.9603 19.9533C39.9603 19.7657 39.9603 19.2833 38.2718 18.2649C37.8698 18.0237 37.1998 17.6484 36.4226 17.3536C37.0792 16.831 37.6018 16.2816 37.8966 15.9198C39.183 14.4323 39.0357 13.9633 38.9687 13.7891C38.9151 13.6015 38.7811 13.2263 37.2132 12.7975C36.7308 12.6635 35.8329 12.4625 34.8011 12.4089C35.2567 11.712 35.5783 11.0152 35.7659 10.5864C36.5297 8.77732 36.235 8.37531 36.1278 8.2279C35.967 8.01349 35.6721 7.81249 34.6001 7.81249C33.8497 7.81249 32.7776 7.91969 31.7324 8.2011C31.9602 7.39707 32.054 6.63324 32.0942 6.16423C32.255 4.20775 31.8664 3.91294 31.7056 3.80574C31.5716 3.71194 31.3974 3.65833 31.1963 3.65833C30.4995 3.65833 28.8781 4.24796 27.5246 5.13239C27.4844 4.30156 27.337 3.53773 27.2298 3.08211C26.7876 1.16584 26.3186 1.01844 26.131 0.964835C26.064 0.938034 25.9836 0.924634 25.9032 0.924634C25.3404 0.924634 24.4291 1.66166 23.9333 2.10388C23.5983 2.39869 23.0623 2.89451 22.5665 3.52433C22.2717 2.7471 21.9098 2.07708 21.6552 1.67506C20.6368 1.59746e-07 20.1544 0 19.9668 0C19.7792 0 19.2967 1.59746e-07 18.2783 1.67506C18.0371 2.07708 17.6619 2.7471 17.3671 3.52433C16.2548 2.14408 14.7003 0.938034 14.0303 0.938034C13.9499 0.938034 13.8829 0.938034 13.8025 0.978236C13.6283 1.03184 13.1593 1.17924 12.7171 3.09551C12.6099 3.55113 12.4625 4.30156 12.4223 5.14579C11.0688 4.26136 9.44735 3.67173 8.75052 3.67173C8.53611 3.67173 8.37534 3.72534 8.24134 3.81914C8.09393 3.92634 7.69192 4.20775 7.86612 6.17763C7.90633 6.64664 8.0001 7.39707 8.21451 8.2145C7.18267 7.93309 6.11062 7.82589 5.3602 7.82589C4.28816 7.82589 3.99337 8.02689 3.83256 8.2413C3.72536 8.38871 3.43053 8.79072 4.19436 10.5998C4.38197 11.0286 4.70358 11.7254 5.1592 12.4223C4.12736 12.4625 3.22954 12.6769 2.74713 12.7975C1.17927 13.2263 1.05867 13.6149 0.991664 13.7891C0.938062 13.9633 0.77724 14.4323 2.06369 15.9198C2.3719 16.2816 2.89453 16.831 3.53775 17.3536C2.76052 17.6484 2.09049 18.0237 1.68848 18.2649C1.30992e-05 19.2833 0 19.7791 0 19.9667C0 20.1543 1.30992e-05 20.6368 1.68848 21.6552C2.09049 21.8964 2.76052 22.2716 3.53775 22.5664C2.88113 23.089 2.3585 23.6519 2.06369 24.0003C0.77724 25.4877 0.938062 25.9568 0.991664 26.131C1.05867 26.3186 1.17927 26.7072 2.74713 27.1226C3.22954 27.2566 4.12736 27.4576 5.1592 27.5112C4.70358 28.208 4.38197 28.9049 4.19436 29.3337C3.43053 31.1427 3.72536 31.5448 3.83256 31.6922C3.99337 31.9066 4.28816 32.1076 5.3602 32.1076C6.11062 32.1076 7.18268 32.0004 8.22792 31.719C8.01351 32.523 7.91973 33.2868 7.86612 33.7558C7.70532 35.7123 8.0939 36.0071 8.25471 36.1143C8.38871 36.2081 8.56293 36.2617 8.76393 36.2617C9.46076 36.2617 11.0822 35.6587 12.4357 34.7877C12.4759 35.6185 12.6233 36.3689 12.7305 36.838C13.1727 38.7542 13.6417 38.9016 13.8159 38.9552C13.8829 38.982 13.9633 38.9954 14.0437 38.9954C14.6066 38.9954 15.5178 38.2584 16.027 37.8162C16.362 37.5214 16.8846 37.0256 17.3939 36.4091C17.6887 37.1864 18.0505 37.8564 18.3051 38.2584C19.3235 39.9335 19.8193 39.9335 19.9936 39.9335C20.1678 39.9335 20.6636 39.9335 21.682 38.2584C21.9232 37.8564 22.2984 37.1864 22.5933 36.4091C23.7055 37.7894 25.2599 38.9954 25.93 38.9954C26.0104 38.9954 26.0774 38.9954 26.1578 38.9552C26.332 38.9016 26.801 38.7408 27.2432 36.838C27.3504 36.3823 27.4978 35.6319 27.538 34.7877C28.8915 35.6721 30.5129 36.2617 31.2098 36.2617C31.4242 36.2617 31.585 36.2081 31.719 36.1143C31.8664 36.0071 32.2684 35.7123 32.0942 33.7558C32.054 33.2868 31.9602 32.523 31.7458 31.719C32.7776 32.0004 33.8497 32.1076 34.6001 32.1076C35.6721 32.1076 35.967 31.9066 36.1278 31.6922C36.235 31.5448 36.5297 31.1427 35.7659 29.3337C35.5783 28.9049 35.2567 28.208 34.8011 27.5112C35.8329 27.4576 36.7308 27.2566 37.2132 27.1226C38.7811 26.6938 38.9017 26.3052 38.9687 26.131C39.0223 25.9568 39.183 25.4877 37.8966 24.0003C37.5884 23.6385 37.0658 23.089 36.4226 22.5664C37.1998 22.2716 37.8698 21.9098 38.2718 21.6552C39.9603 20.6368 39.9603 20.1409 39.9603 19.9667M9.35356 27.1896H9.25975C8.89793 26.6536 8.57632 26.0774 8.29491 25.4877H9.36697V27.1896H9.35356ZM9.35356 24.6301H7.9197C7.70529 24.0807 7.5311 23.5045 7.3971 22.9282H9.35356V24.6301ZM9.35356 22.0706H7.22289C7.12908 21.5078 7.07549 20.945 7.06209 20.3687H9.35356V22.0706ZM9.35356 19.5111H7.06209C7.07549 18.9349 7.1425 18.3587 7.2363 17.8093H9.35356V19.5111ZM9.35356 16.9516H7.3971C7.5311 16.362 7.7187 15.7992 7.93311 15.2498H9.35356V16.9516ZM9.35356 14.3921H8.30832C8.58973 13.8025 8.91136 13.2263 9.28657 12.6903H9.36697V14.3921H9.35356ZM11.9131 29.7491H11.5244C11.0554 29.3471 10.6132 28.9049 10.2112 28.4358V28.0472H11.9131V29.7491ZM11.9131 27.1896H10.2112V25.4877H11.9131V27.1896ZM11.9131 24.6301H10.2112V22.9282H11.9131V24.6301ZM11.9131 22.0706H10.2112V20.3687H11.9131V22.0706ZM11.9131 19.5111H10.2112V17.8093H11.9131V19.5111ZM11.9131 16.9516H10.2112V15.2498H11.9131V16.9516ZM11.9131 14.3921H10.2112V12.6903H11.9131V14.3921ZM11.9131 11.846H10.2112V11.4842C10.6266 11.0018 11.0822 10.5462 11.5646 10.1442H11.9265V11.846H11.9131ZM14.4726 31.6654C13.8829 31.3839 13.3067 31.0623 12.7707 30.7005V30.5933H14.4726V31.6654ZM14.4726 29.7491H12.7707V28.0472H14.4726V29.7491ZM14.4726 27.1896H12.7707V25.4877H14.4726V27.1896ZM14.4726 24.6301H12.7707V22.9282H14.4726V24.6301ZM14.4726 22.0706H12.7707V20.3687H14.4726V22.0706ZM14.4726 19.5111H12.7707V17.8093H14.4726V19.5111ZM14.4726 16.9516H12.7707V15.2498H14.4726V16.9516ZM14.4726 14.3921H12.7707V12.6903H14.4726V14.3921ZM14.4726 11.846H12.7707V10.1442H14.4726V11.846ZM14.4726 9.28654H12.7707V9.20614C13.3067 8.84432 13.8829 8.50931 14.4726 8.2413V9.28654ZM17.0321 32.5632C16.4424 32.4292 15.8796 32.255 15.3302 32.0272V30.5933H17.0321V32.5632ZM17.0321 29.7491H15.3302V28.0472H17.0321V29.7491ZM17.0321 27.1896H15.3302V25.4877H17.0321V27.1896ZM17.0321 24.6301H15.3302V22.9282H17.0321V24.6301ZM17.0321 22.0706H15.3302V20.3687H17.0321V22.0706ZM17.0321 19.5111H15.3302V17.8093H17.0321V19.5111ZM17.0321 16.9516H15.3302V15.2498H17.0321V16.9516ZM17.0321 14.3921H15.3302V12.6903H17.0321V14.3921ZM17.0321 11.846H15.3302V10.1442H17.0321V11.846ZM17.0321 9.28654H15.3302V7.87949C15.8796 7.66508 16.4424 7.49087 17.0321 7.34347V9.28654ZM19.5916 32.8982C19.0153 32.8714 18.4391 32.8178 17.8897 32.7374V30.5933H19.5916V32.8982ZM19.5916 29.7491H17.8897V28.0472H19.5916V29.7491ZM19.5916 27.1896H17.8897V25.4877H19.5916V27.1896ZM19.5916 24.6301H17.8897V22.9282H19.5916V24.6301ZM19.5916 22.0706H17.8897V20.3687H19.5916V22.0706ZM19.5916 19.5111H17.8897V17.8093H19.5916V19.5111ZM19.5916 16.9516H17.8897V15.2498H19.5916V16.9516ZM19.5916 14.3921H17.8897V12.6903H19.5916V14.3921ZM19.5916 11.846H17.8897V10.1442H19.5916V11.846ZM19.5916 9.28654H17.8897V7.16926C18.4525 7.07546 19.0153 7.02186 19.5916 7.00846V9.28654ZM22.151 32.7374C21.6016 32.8312 21.0254 32.8848 20.4492 32.8982V30.5933H22.151V32.7374ZM22.151 29.7491H20.4492V28.0472H22.151V29.7491ZM22.151 27.1896H20.4492V25.4877H22.151V27.1896ZM22.151 24.6301H20.4492V22.9282H22.151V24.6301ZM22.151 22.0706H20.4492V20.3687H22.151V22.0706ZM22.151 19.5111H20.4492V17.8093H22.151V19.5111ZM22.151 16.9516H20.4492V15.2498H22.151V16.9516ZM22.151 14.3921H20.4492V12.6903H22.151V14.3921ZM22.151 11.846H20.4492V10.1442H22.151V11.846ZM22.151 9.28654H20.4492V7.00846C21.0254 7.02186 21.6016 7.08886 22.151 7.16926V9.28654ZM24.7105 32.0406C24.1611 32.255 23.5849 32.4292 23.0087 32.5766V30.6067H24.7105V32.0406ZM24.7105 29.7491H23.0087V28.0472H24.7105V29.7491ZM24.7105 27.1896H23.0087V25.4877H24.7105V27.1896ZM24.7105 24.6301H23.0087V22.9282H24.7105V24.6301ZM24.7105 22.0706H23.0087V20.3687H24.7105V22.0706ZM24.7105 19.5111H23.0087V17.8093H24.7105V19.5111ZM24.7105 16.9516H23.0087V15.2498H24.7105V16.9516ZM24.7105 14.3921H23.0087V12.6903H24.7105V14.3921ZM24.7105 11.846H23.0087V10.1442H24.7105V11.846ZM24.7105 9.28654H23.0087V7.34347C23.5983 7.47747 24.1611 7.65168 24.7105 7.87949V9.28654ZM27.2566 30.7005C26.7206 31.0623 26.1444 31.3974 25.5547 31.6654V30.5933H27.2566V30.7005ZM27.2566 29.7491H25.5547V28.0472H27.2566V29.7491ZM27.2566 27.1896H25.5547V25.4877H27.2566V27.1896ZM27.2566 24.6301H25.5547V22.9282H27.2566V24.6301ZM27.2566 22.0706H25.5547V20.3687H27.2566V22.0706ZM27.2566 19.5111H25.5547V17.8093H27.2566V19.5111ZM27.2566 16.9516H25.5547V15.2498H27.2566V16.9516ZM27.2566 14.3921H25.5547V12.6903H27.2566V14.3921ZM27.2566 11.846H25.5547V10.1442H27.2566V11.846ZM27.2566 9.28654H25.5547V8.2413C26.1444 8.52271 26.7206 8.84432 27.2566 9.20614V9.28654ZM30.6737 12.6903H30.7541C31.116 13.2263 31.451 13.8025 31.7324 14.3921H30.6737V12.6903ZM30.6737 15.2498H32.0942C32.3086 15.7992 32.4828 16.3754 32.6302 16.9516H30.6737V15.2498ZM30.6737 17.8093H32.791C32.8848 18.3721 32.9384 18.9349 32.9652 19.5111H30.6737V17.8093ZM29.8161 28.4224C29.4141 28.8915 28.9719 29.3337 28.5029 29.7357H28.1142V28.0338H29.8161V28.4224ZM29.8161 27.1896H28.1142V25.4877H29.8161V27.1896ZM29.8161 24.6301H28.1142V22.9282H29.8161V24.6301ZM29.8161 22.0706H28.1142V20.3687H29.8161V22.0706ZM29.8161 19.5111H28.1142V17.8093H29.8161V19.5111ZM29.8161 16.9516H28.1142V15.2498H29.8161V16.9516ZM29.8161 14.3921H28.1142V12.6903H29.8161V14.3921ZM29.8161 11.846H28.1142V10.1442H28.476C28.9585 10.5596 29.4007 11.0152 29.8295 11.4842V11.846H29.8161ZM30.7676 27.1896H30.6737V25.4877H31.7458C31.4644 26.0774 31.1427 26.6536 30.7809 27.1896M32.1076 24.6301H30.6737V22.9282H32.6302C32.4962 23.5179 32.322 24.0807 32.1076 24.6301ZM32.8044 22.0706H30.6737V20.3687H32.9652C32.9518 20.945 32.8848 21.5078 32.8044 22.0706Z" fill="#FF6774"/>
<path d="M13.588 49.434C16.9917 52.8377 17.4339 57.9165 16.8577 58.4928C16.3083 59.0422 11.2027 58.6268 7.79894 55.223C4.39521 51.8193 4.154 46.5395 4.52921 46.1643C4.94463 45.7489 10.1842 46.0303 13.588 49.434Z" fill="#FF6774"/>
<path d="M26.4525 49.434C23.0488 52.8377 22.6066 57.9165 23.1828 58.4928C23.7322 59.0422 28.8378 58.6268 32.2549 55.223C35.6586 51.8193 35.8999 46.5395 35.5246 46.1643C35.1092 45.7489 29.8696 46.0303 26.4525 49.434Z" fill="#FF6774"/>
<path d="M18.5461 40.7907V57.3269C18.5461 58.1444 19.2027 58.801 20.0202 58.801C20.8376 58.801 21.4942 58.1444 21.4942 57.3269V40.7773" fill="#FF6774"/>
</svg>
