<svg width="91" height="79" viewBox="0 0 91 79" fill="none" xmlns="http://www.w3.org/2000/svg">
<path d="M47.0202 14.0596C47.3102 13.6596 47.7002 13.2996 47.9002 13.0396C48.2002 12.6496 48.2002 12.1996 48.4002 11.8996C48.7002 11.4596 49.1102 11.0996 49.4302 10.6796C49.7502 10.2596 50.1602 9.90961 50.5102 9.51961C50.8602 9.12961 51.2402 8.75961 51.6102 8.38961C51.9802 8.01961 52.2002 7.46961 52.5902 7.11961C52.9802 6.76961 53.4802 6.51961 53.8902 6.19961C54.3002 5.87961 54.6802 5.47962 55.1202 5.18962C55.5602 4.89962 56.1002 4.76962 56.5602 4.50962C57.0202 4.24962 57.4002 3.83961 57.8802 3.60961C58.3602 3.37961 58.8702 3.21961 59.3602 3.02961C59.8502 2.83961 60.3702 2.71961 60.8702 2.54961C61.3702 2.37961 61.8102 2.01961 62.3302 1.87961C62.8502 1.73961 63.3602 1.63961 63.8802 1.52961C64.4002 1.41961 64.9502 1.47962 65.4702 1.39962C65.9902 1.31962 66.5002 1.12961 67.0302 1.06961C67.5602 1.00961 68.0802 0.959614 68.6102 0.929614C69.1402 0.899614 69.6702 1.02961 70.2002 1.01961C70.7302 1.00961 71.2502 0.919616 71.7902 0.919616C72.3302 0.919616 72.8602 0.969613 73.3802 1.02961C73.9002 1.08961 74.4402 1.13961 74.9602 1.24961C75.4802 1.35961 76.0202 1.40962 76.5302 1.55962C77.0402 1.70962 77.5302 1.93961 78.0302 2.12961C78.5302 2.31961 79.0302 2.51962 79.5002 2.75962C79.9702 2.99962 80.3902 3.34961 80.8502 3.62961C81.3102 3.90961 81.7002 4.25961 82.1402 4.56961C82.5802 4.87961 83.0602 5.11961 83.4602 5.46961C83.8602 5.81961 84.1402 6.28962 84.5202 6.66962C84.9002 7.04962 85.3202 7.36961 85.6702 7.76961C86.0202 8.16961 86.3302 8.59961 86.6402 9.02961C86.9502 9.45961 87.2802 9.87962 87.5602 10.3296C87.8402 10.7796 88.0002 11.2996 88.2502 11.7696C88.5002 12.2396 88.8702 12.6496 89.0802 13.1396C89.2902 13.6296 89.4002 14.1496 89.5702 14.6596C89.7402 15.1696 90.0602 15.6296 90.1802 16.1396C90.3002 16.6496 90.2601 17.2096 90.3401 17.7396C90.4201 18.2696 90.5402 18.7896 90.5702 19.3196C90.6002 19.8496 90.5202 20.3796 90.5002 20.9096C90.4802 21.4396 90.5002 21.9696 90.4302 22.4996C90.3602 23.0196 90.2202 23.5196 90.1302 24.0296C90.0402 24.5396 89.9502 25.0596 89.8502 25.5596C89.7502 26.0596 89.6002 26.5696 89.4802 27.0696C89.3602 27.5696 89.4202 28.1296 89.2702 28.6296C89.1202 29.1296 88.7901 29.5696 88.6201 30.0596C88.4501 30.5496 88.3502 31.0696 88.1502 31.5496C87.9502 32.0296 87.7802 32.5196 87.5702 32.9996C87.3602 33.4796 87.0702 33.9096 86.8302 34.3796C86.5902 34.8496 86.5502 35.4096 86.3002 35.8696C86.0502 36.3296 85.5802 36.6596 85.3102 37.0996C85.0402 37.5396 84.7802 37.9896 84.4902 38.4296C84.2002 38.8696 83.8402 39.2396 83.5302 39.6596C83.2202 40.0796 82.8602 40.4496 82.5402 40.8596C82.2202 41.2696 81.9002 41.6696 81.5602 42.0696C81.2202 42.4696 81.1302 43.0896 80.7802 43.4896C80.4302 43.8896 80.0902 44.2896 79.7402 44.6796C79.3902 45.0696 78.9902 45.4296 78.6402 45.8196C78.2902 46.2096 77.9602 46.6196 77.6102 47.0196C77.2602 47.4196 76.8402 47.7496 76.4902 48.1396C76.1402 48.5296 75.7902 48.9296 75.4402 49.3196C75.0902 49.7096 74.7602 50.1196 74.4002 50.5096C74.0402 50.8996 73.5802 51.1896 73.2202 51.5796C72.8602 51.9696 72.5502 52.3996 72.1902 52.7796C71.8302 53.1596 71.5602 53.6296 71.1902 54.0096C70.8202 54.3896 70.2902 54.5996 69.9202 54.9796C69.5502 55.3596 69.2802 55.8296 68.9202 56.2096C68.5602 56.5896 68.0502 56.8296 67.6802 57.2096C67.3102 57.5896 67.1802 58.1996 66.8102 58.5696C66.4402 58.9396 65.9002 59.1496 65.5302 59.5296C65.1602 59.9096 64.8702 60.3596 64.5002 60.7296C64.1302 61.0996 63.6502 61.3596 63.2702 61.7296C62.8902 62.0996 62.6702 62.6196 62.3002 62.9896C61.9302 63.3596 61.4802 63.6596 61.1002 64.0196C60.7202 64.3796 60.2802 64.6796 59.9002 65.0496C59.5202 65.4196 59.1902 65.8296 58.8102 66.1896C58.4302 66.5496 58.1002 66.9696 57.7202 67.3296C57.3402 67.6896 56.9702 68.0596 56.5802 68.4296C56.1902 68.7996 55.8302 69.1696 55.4502 69.5296C55.0702 69.8896 54.6702 70.2296 54.2802 70.5896C53.9002 70.9496 53.4902 71.2896 53.1102 71.6496C52.7302 72.0096 52.3002 72.3296 51.9202 72.6896C51.5402 73.0496 51.1302 73.3896 50.7502 73.7496C50.3702 74.1096 50.1102 74.6196 49.7202 74.9796C49.4302 75.2496 48.8702 75.5896 48.3802 76.0696C47.9702 76.4696 47.4502 76.7996 47.0302 77.1596C46.4402 77.6696 46.0302 78.0296 45.7002 78.0296C45.2702 77.9496 44.8502 77.7996 44.3702 77.4996C43.9802 77.2596 43.4802 77.0996 43.0602 76.7596C42.6902 76.4596 42.2902 76.1396 41.9102 75.7996C41.5302 75.4596 41.2602 75.0296 40.8802 74.6996C40.5002 74.3696 40.0002 74.1896 39.6202 73.8796C39.2402 73.5696 38.9902 73.0196 38.5902 72.7496C38.3702 72.5996 37.8302 72.4296 37.2702 71.9196C36.9402 71.6196 36.4702 71.3496 36.0402 70.9496C35.6902 70.6196 35.4702 70.0896 35.0602 69.7096C34.7002 69.3696 34.1502 69.1996 33.7502 68.8296C33.3802 68.4896 33.0302 68.0996 32.6402 67.7296C32.2702 67.3796 31.8602 67.0596 31.4702 66.6996C31.0802 66.3396 30.8802 65.8196 30.4902 65.4496C30.1002 65.0796 29.8002 64.6696 29.4102 64.3096C29.0202 63.9496 28.4702 63.7996 28.0802 63.4396C27.6902 63.0796 27.2802 62.7696 26.9002 62.4096C26.5202 62.0496 26.1102 61.7196 25.7302 61.3696C25.3502 61.0196 24.9802 60.6396 24.5902 60.2896C24.2002 59.9396 23.9202 59.4496 23.5402 59.1096C23.1602 58.7696 22.6402 58.5396 22.2502 58.1996C21.8402 57.8496 21.4002 57.5596 21.0102 57.2396C20.5902 56.8896 20.3102 56.4096 19.9202 56.0996C19.4802 55.7496 18.9902 55.5196 18.6102 55.2396C18.2202 54.8496 17.9302 54.3796 17.5602 53.9996C17.1902 53.6196 16.7202 53.2996 16.3502 52.9196C15.9802 52.5396 15.7502 51.9896 15.3802 51.6096C15.0102 51.2296 14.5902 50.8596 14.2302 50.4796C13.8702 50.0996 13.5302 49.6496 13.1702 49.2596C12.8102 48.8696 12.3302 48.5596 11.9802 48.1596C11.6302 47.7596 11.4202 47.2096 11.0802 46.8096C10.7402 46.4096 10.2402 46.1096 9.90017 45.6996C9.56017 45.2896 9.32016 44.7896 8.99016 44.3696C8.66016 43.9496 8.16017 43.6496 7.84017 43.2296C7.52017 42.8096 7.37017 42.2396 7.06017 41.8096C6.75017 41.3796 6.24016 41.0796 5.93016 40.6396C5.62016 40.1996 5.39017 39.7096 5.09017 39.2596C4.79017 38.8096 4.50016 38.3696 4.21016 37.9096C3.92016 37.4496 3.69017 36.9796 3.40017 36.5196C3.11017 36.0596 2.73017 35.6796 2.45017 35.2096C2.17017 34.7396 2.04016 34.2196 1.77016 33.7396C1.56016 33.2296 1.33016 32.7496 1.16016 32.2396C0.99016 31.7296 0.890166 31.1896 0.760166 30.6696C0.630166 30.1496 0.530159 29.6096 0.440159 29.0896C0.350159 28.5696 0.0701605 28.0396 0.0201605 27.5096C-0.0298395 26.9796 0.0301605 26.4196 0.0201605 25.8796C0.0101605 25.3396 0.0301636 24.7896 0.0701636 24.2596C0.110164 23.7296 0.400167 23.2196 0.480167 22.6796C0.560167 22.1396 0.420165 21.5796 0.540165 21.0496C0.660165 20.5196 0.820167 20.0096 0.980167 19.4896C1.14017 18.9696 1.54017 18.5496 1.73017 18.0396C1.92017 17.5296 1.98017 16.9896 2.20017 16.4896C2.42017 15.9896 2.55017 15.4596 2.78017 14.9796C3.01017 14.4996 3.32017 14.0396 3.58017 13.5796C3.84017 13.1196 4.24016 12.7196 4.52016 12.2696C4.80016 11.8196 5.04016 11.3296 5.35016 10.8896C5.66016 10.4496 5.96016 9.99962 6.29016 9.57962C6.62016 9.15962 6.98017 8.74962 7.33017 8.34962C7.68017 7.94962 8.00017 7.49961 8.37017 7.11961C8.74017 6.73961 9.24017 6.46961 9.64017 6.11961C10.0402 5.76961 10.3102 5.23962 10.7302 4.91962C11.1502 4.59962 11.6002 4.27962 12.0502 3.98962C12.5002 3.69962 13.0102 3.49961 13.4802 3.22961C13.9502 2.95961 14.5002 2.88961 14.9902 2.65961C15.4802 2.42961 15.8802 2.03961 16.3902 1.83961C16.9002 1.63961 17.3902 1.45961 17.9102 1.29961C18.4302 1.13961 18.9102 0.899614 19.4402 0.769614C19.9702 0.639614 20.5202 0.719613 21.0602 0.619613C21.6002 0.519613 22.0902 0.279613 22.6302 0.209613C23.1702 0.139613 23.7002 0.0896131 24.2402 0.0496131C24.7802 0.00961311 25.3202 0.209615 25.8602 0.199615C26.3802 0.189615 26.9202 -0.050384 27.4502 0.00961601C27.9802 0.069616 28.4302 0.469614 28.9502 0.589614C29.4702 0.709614 29.9802 0.749615 30.4902 0.899615C31.0002 1.04962 31.4602 1.27962 31.9602 1.46962C32.4602 1.65962 32.9402 1.85961 33.4102 2.06961C33.8802 2.27961 34.3502 2.54961 34.8102 2.78961C35.3102 3.04961 35.7902 3.31962 36.2702 3.59962C36.7502 3.87962 37.2702 4.09961 37.7302 4.40961C38.1902 4.71961 38.7902 4.84962 39.2302 5.18962C39.6702 5.52962 39.9902 6.02961 40.4202 6.38961C40.8502 6.74961 41.2202 7.15961 41.6302 7.54961C42.0402 7.93961 42.5802 8.17962 42.9602 8.57962C43.3402 8.97962 43.6502 9.45961 44.0202 9.88961C44.3902 10.3196 44.7002 10.7596 45.0502 11.2096C45.4002 11.6596 45.6802 12.1196 46.0102 12.5796C46.3402 13.0396 46.6802 13.5896 46.9902 14.0696L47.0202 14.0596Z" fill="#FF6774"/>
</svg>
