<svg width="66" height="90" viewBox="0 0 66 90" fill="none" xmlns="http://www.w3.org/2000/svg">
<path d="M58.1847 35.5814C58.4807 35.0017 58.7397 34.4221 59.011 33.8425C59.2823 33.2629 59.5536 32.6709 59.788 32.0789C60.0223 31.487 60.1949 30.858 60.4169 30.2661C60.6389 29.6741 61.0212 29.1191 61.2185 28.5025C61.4158 27.8859 61.6502 27.2816 61.8228 26.665C61.9955 26.0484 62.2668 25.4441 62.4147 24.8274C62.5627 24.2108 62.4271 23.5079 62.5504 22.8789C62.6737 22.25 62.8957 21.6333 63.0067 21.0044C63.1177 20.3754 63.2657 19.7465 63.3397 19.1052C63.4137 18.4639 63.5617 17.8349 63.6233 17.1936C63.685 16.5523 63.4137 15.8987 63.4507 15.2451C63.4877 14.5915 63.7837 13.9749 63.796 13.3212C63.8083 12.6676 63.5247 12.0387 63.5124 11.3974C63.5 10.7561 63.648 10.0778 63.6233 9.42417C62.9574 9.15286 62.2668 8.99254 61.6625 8.89388C60.9719 8.78289 60.3059 8.85688 59.6769 8.91854C58.9986 8.98021 58.3327 9.0172 57.7038 9.22686C57.0748 9.43651 56.4705 9.73248 55.8785 10.0285C55.2866 10.3244 54.7439 10.7191 54.1643 11.0521C53.5847 11.385 53.0421 11.8167 52.4501 12.1497C51.8582 12.4826 51.2415 12.7539 50.6372 13.0869C50.033 13.4199 49.404 13.6419 48.7997 13.9749C48.1954 14.3078 47.6281 14.6408 47.0238 14.9738C46.4195 15.3068 45.9263 15.5288 45.3343 15.8741C45.0383 15.2698 44.878 14.7518 44.6066 14.1722C44.3353 13.5926 43.9407 13.0129 43.6694 12.4333C43.3981 11.8537 43.0898 11.237 42.8185 10.6451C42.5471 10.0531 42.2512 9.44884 41.9675 8.85688C41.6839 8.26492 41.3879 7.67296 41.0919 7.09334C40.7959 6.51371 40.315 6.02041 39.9943 5.45312C39.723 4.97215 39.5874 4.36786 39.279 3.84989C38.9707 3.33193 38.7241 2.7893 38.3911 2.333C38.0335 1.8397 37.5401 1.45739 37.1332 1.08742C36.6645 0.655781 36.1836 0.224147 35.6656 0.0884899C34.9133 -0.10883 34.2227 0.0514902 33.6924 0.29814C33.1128 0.557122 32.7305 1.11208 32.3235 1.66705C31.9535 2.17268 31.7316 2.80164 31.4233 3.39359C31.1149 3.98555 30.7819 4.57751 30.4613 5.10781C30.116 5.68743 29.7954 6.29173 29.4501 6.87135C29.1047 7.45098 28.7348 8.01827 28.3894 8.61023C28.0441 9.20219 27.6495 9.74482 27.3042 10.3368C26.9589 10.9287 26.6382 11.5084 26.2806 12.1003C25.923 12.6923 25.701 13.3212 25.3433 13.9132C24.9857 14.5052 24.4677 14.9615 24.1224 15.5657C23.7771 16.17 23.5058 16.8977 23.1605 17.5019C22.7165 17.021 22.2972 16.3674 21.8656 15.8987C21.434 15.4301 20.9653 14.9491 20.5337 14.4682C20.102 13.9872 19.769 13.3952 19.3374 12.9266C18.9058 12.458 18.3015 12.1003 17.8698 11.6317C17.4382 11.1631 17.1176 10.5464 16.6736 10.0778C16.2296 9.60916 15.6377 9.26385 15.1937 8.80755C14.7497 8.35125 14.2071 7.96894 13.7385 7.52497C13.2082 7.03167 12.7519 6.5877 12.2956 6.23006C11.7036 5.76143 11.235 5.30513 10.754 5.05848C10.0264 4.70083 9.38509 4.44185 8.84246 4.60218C8.29983 4.7625 8.01621 5.40379 7.5969 6.09441C7.31326 6.56304 6.86929 7.05634 6.63497 7.78395C6.44999 8.33891 6.19098 8.95554 6.03066 9.65849C5.895 10.2011 6.06765 10.8054 5.99366 11.3604C5.91966 12.0017 5.74702 12.6183 5.69769 13.2596C5.64836 13.9009 5.63605 14.5422 5.59905 15.1711C5.56205 15.8001 5.43872 16.4537 5.43872 17.0826C5.43872 17.7116 5.58669 18.3652 5.61136 18.9942C5.63602 19.6231 5.80869 20.2644 5.85802 20.8934C5.90735 21.5223 5.63604 22.2006 5.71004 22.8296C5.78403 23.4585 5.94434 24.0875 6.043 24.7288C6.14166 25.3701 6.22799 25.999 6.35131 26.628C6.47464 27.2569 6.8446 27.8242 6.99259 28.4532C7.14058 29.0821 7.05425 29.7604 7.22691 30.3771C7.39956 30.9937 7.76954 31.5486 7.96686 32.1653C8.16418 32.7819 8.17651 33.4355 8.38616 34.0398C8.59582 34.6441 8.94113 35.199 9.16312 35.8033C9.3851 36.4076 9.53309 37.0243 9.77974 37.6162C10.0264 38.2205 10.384 38.7755 10.6923 39.3551C11.0006 39.9347 11.2227 40.5637 11.568 41.1186C11.9133 41.6736 12.3079 42.2039 12.7149 42.7219C13.1218 43.2398 13.5288 43.7701 13.9851 44.2388C14.4414 44.7074 15.0211 45.0404 15.539 45.4597C16.057 45.879 16.5749 46.249 17.1299 46.6066C17.6478 46.9396 18.1042 47.3835 18.6221 47.7165C19.1401 48.0495 19.8184 48.1112 20.361 48.4441C20.9037 48.7771 21.3723 49.1471 21.9149 49.4677C22.4575 49.7884 22.8892 50.2323 23.4318 50.553C23.9744 50.8736 24.5541 51.0586 25.0967 51.3793C25.6393 51.6999 26.2066 51.8972 26.7492 52.2179C27.2919 52.5385 27.6372 53.1181 28.1921 53.4388C28.7471 53.7594 29.2527 53.9691 29.7954 54.3021C29.7954 54.9433 29.8447 55.56 29.8447 56.2136C29.8447 56.8672 29.8447 57.5085 29.857 58.1621C29.8693 58.8157 29.9927 59.457 30.005 60.1107C30.0173 60.7643 30.005 61.4056 30.005 62.0715C30.005 62.7375 29.8324 63.3788 29.8324 64.0324C29.8324 64.686 30.005 65.3273 30.005 65.9809C30.005 66.6345 29.8817 67.2882 29.8817 67.9418C29.8817 68.5954 30.153 69.2367 30.153 69.9026C30.153 70.5686 29.9433 71.2099 29.9433 71.8635C29.9433 72.5171 29.9927 73.1707 29.9927 73.8244C29.9927 74.478 30.1407 75.1316 30.1407 75.7852C30.1407 76.4389 29.9187 77.0925 29.9187 77.7461C29.9187 78.3997 30.005 79.0533 30.0173 79.707C30.0173 80.3606 29.9803 81.0142 29.9803 81.6678C29.9803 82.3214 29.9927 82.9751 30.0173 83.6287C30.042 84.2823 30.264 84.9236 30.3133 85.5772C30.3626 86.2308 30.3997 86.8721 30.486 87.5257C30.5353 87.9574 30.8066 88.426 31.1026 88.8823C31.4232 89.388 31.7069 89.8566 32.1015 89.9429C32.5208 90.0416 33.1251 90.0292 33.6554 89.7703C34.1487 89.5236 34.679 89.1783 34.975 88.8207C35.3573 88.352 35.715 87.7477 35.9616 87.1434C36.2083 86.5392 36.2576 85.8609 36.3439 85.2442C36.4426 84.6276 36.3439 83.9987 36.3686 83.3697C36.3932 82.7407 36.4919 82.1365 36.5042 81.5075C36.5166 80.8785 36.6522 80.2743 36.6892 79.6453C36.7262 79.004 36.5905 78.3504 36.6275 77.7091C36.6645 77.0678 36.8988 76.4265 36.9358 75.7852C36.9728 75.144 36.8742 74.4903 36.8988 73.849C36.9235 73.2078 36.8865 72.5541 36.9112 71.9128C36.9359 71.2716 37.0345 70.6303 37.0715 69.989C37.1085 69.3477 37.3058 68.7064 37.3428 68.0651C37.3798 67.4238 37.1948 66.7702 37.2318 66.1166C37.2688 65.463 37.3798 64.834 37.4045 64.1927C37.4291 63.5514 37.4785 62.9101 37.5155 62.2688C37.5525 61.6276 37.7005 60.9863 37.7375 60.345C37.7745 59.7037 37.7128 59.0501 37.7375 58.4088C37.7621 57.7675 37.5772 57.1015 37.6142 56.4602C37.6511 55.819 38.0211 55.19 38.0458 54.5364C38.0705 53.8828 37.7991 53.1058 37.8361 52.4645C38.5021 52.3535 39.279 52.3782 39.908 52.2302C40.5369 52.0822 41.1659 51.8109 41.7825 51.6013C42.3992 51.3916 43.1021 51.3299 43.6941 51.0833C44.286 50.8366 44.804 50.3433 45.3836 50.035C45.9632 49.7267 46.5305 49.4061 47.0855 49.0608C47.6404 48.7154 48.2324 48.4195 48.7627 48.0248C49.293 47.6302 49.885 47.3095 50.3659 46.8656C50.8469 46.4216 51.1552 45.7927 51.6115 45.3117C52.0678 44.8307 52.5241 44.3744 52.9434 43.8811C53.3627 43.3878 53.819 42.9069 54.2137 42.3889C54.6083 41.8709 55.0276 41.3653 55.3976 40.8103C55.7675 40.2554 56.2115 39.7744 56.5568 39.2071C56.9021 38.6398 57.1735 38.0479 57.4941 37.4682C57.8147 36.8886 57.9257 36.2226 58.2341 35.6307L58.1847 35.5814Z" fill="#007DD7"/>
<path d="M17.9314 70.1246C17.4628 69.6929 16.9695 69.286 16.4269 68.9407C15.8842 68.5953 15.3046 68.3487 14.7126 68.0897C14.1207 67.8307 13.5411 67.5964 12.9245 67.4238C12.3078 67.2511 11.6912 67.1154 11.0499 67.0168C10.4086 66.9181 9.77966 66.8811 9.13837 66.8565C8.49708 66.8318 7.8681 66.9058 7.22681 66.9551C6.58552 67.0045 5.94426 67.0415 5.32764 67.1524C4.71102 67.2634 4.06971 67.4238 3.46542 67.6087C2.86113 67.7937 2.25683 68.0404 1.6772 68.2994C1.09757 68.5584 0.530297 68.8913 0 69.2366C0.24665 69.8163 0.480962 70.4206 0.727612 71.0125C0.974261 71.6045 1.22091 72.1841 1.45522 72.7761C1.68954 73.368 1.92387 73.96 2.15818 74.5519C2.3925 75.1439 2.61447 75.7359 2.87345 76.3155C3.13243 76.8951 3.45309 77.4501 3.73674 78.0174C4.02039 78.5847 4.34104 79.1396 4.67402 79.6699C5.03166 80.2619 5.45096 80.8168 5.85793 81.3718C6.2649 81.9268 6.68419 82.4817 7.15282 82.9873C7.62146 83.493 8.07776 84.0356 8.58339 84.4919C9.08903 84.9482 9.68099 85.3305 10.2483 85.7252C10.8156 86.1198 11.3829 86.5144 11.9995 86.8351C12.6161 87.1557 13.2574 87.4024 13.9234 87.6367C14.5893 87.871 15.2429 88.0067 15.9335 88.1547C16.6365 88.2903 17.3025 88.389 17.9314 88.4013C18.6467 88.4013 19.3127 88.315 19.9293 88.167C20.6199 88.019 21.2612 87.8217 21.8285 87.501C22.4328 87.1681 22.9631 86.7364 23.3947 86.2431C23.8387 85.7375 24.1716 85.1579 24.4183 84.5166C24.6403 83.9123 24.8253 83.2587 24.8623 82.5434C24.8869 81.9021 24.7759 81.2361 24.628 80.5332C24.4923 79.9166 24.332 79.2506 24.0483 78.597C23.777 77.968 23.3947 77.3637 23.0617 76.7471C22.7287 76.1305 22.4081 75.5139 22.0258 74.9219C21.6435 74.3299 21.2489 73.7503 20.8172 73.1954C20.3856 72.6404 19.8923 72.1348 19.4237 71.6291C18.955 71.1235 18.4617 70.5932 17.9561 70.1246H17.9314Z" fill="#007DD7"/>
<path d="M65.1279 68.5091C64.5112 68.3365 63.8576 68.1638 63.1793 68.0775C62.5011 67.9912 61.8597 68.0528 61.1815 68.0528C60.5032 68.0528 59.8619 68.0035 59.1836 68.0775C58.5053 68.1515 57.8887 68.3118 57.2227 68.4351C56.5568 68.5585 55.9032 68.6325 55.2619 68.8051C54.6206 68.9778 53.9916 69.1997 53.3627 69.4217C52.7337 69.6437 52.1294 69.915 51.5251 70.1864C50.9208 70.4577 50.3289 70.7783 49.7493 71.099C49.1696 71.4196 48.553 71.7156 48.0104 72.0732C47.4677 72.4309 46.9375 72.8872 46.4442 73.3065C45.9139 73.7504 45.4082 74.1697 44.9766 74.6507C44.5203 75.1563 44.1627 75.7236 43.8297 76.2663C43.4967 76.7966 43.2254 77.3392 42.9787 77.8695C42.7198 78.4368 42.4854 78.9917 42.3374 79.5714C42.1894 80.151 42.0291 80.7553 42.0045 81.3596C41.9798 81.9639 42.0414 82.5682 42.1401 83.1724C42.2388 83.7767 42.3991 84.3317 42.6334 84.9237C42.8431 85.4663 43.1267 85.9719 43.472 86.5145C44.1133 86.6995 44.7423 86.8475 45.3836 86.9585C46.0248 87.0695 46.6908 87.1805 47.3444 87.2175C47.998 87.2545 48.664 87.2668 49.33 87.2545C49.9959 87.2422 50.6618 87.2545 51.3155 87.1558C51.9691 87.0572 52.6104 86.8722 53.2517 86.7119C53.893 86.5516 54.5466 86.3912 55.1632 86.1569C55.7799 85.9226 56.3841 85.6266 56.9638 85.3183C57.5434 85.01 58.1353 84.7017 58.678 84.3194C59.2206 83.9371 59.6892 83.4684 60.1825 83.0121C60.6758 82.5558 61.1075 82.0872 61.5391 81.5692C61.9707 81.0513 62.3901 80.558 62.7477 79.9907C63.1053 79.4234 63.426 78.8561 63.6973 78.2395C63.9686 77.6228 64.1536 77.0185 64.3509 76.3649C64.5482 75.7113 64.7456 75.1193 64.8689 74.4534C64.9922 73.8244 65.0662 73.1585 65.1279 72.4802C65.1895 71.8389 65.2019 71.1729 65.2019 70.4947C65.2019 69.8534 65.1772 69.1874 65.1155 68.5091H65.1279Z" fill="#007DD7"/>
</svg>
