<svg width="97" height="61" viewBox="0 0 97 61" fill="none" xmlns="http://www.w3.org/2000/svg">
<path d="M28.5946 38.0264C22.3355 38.0264 17.2793 43.103 17.2793 49.3417C17.2793 55.5804 22.3559 60.657 28.5946 60.657C34.8334 60.657 39.91 55.6008 39.91 49.3417C39.91 43.0826 34.8334 38.0264 28.5946 38.0264ZM28.5946 53.297C26.4131 53.297 24.6394 51.5232 24.6394 49.3417C24.6394 47.1602 26.4131 45.3864 28.5946 45.3864C30.7761 45.3864 32.5499 47.1602 32.5499 49.3417C32.5499 51.5232 30.7761 53.297 28.5946 53.297Z" fill="#007DD7"/>
<path d="M74.7124 38.0264C68.4533 38.0264 63.3971 43.103 63.3971 49.3417C63.3971 55.5804 68.4737 60.657 74.7124 60.657C80.9512 60.657 86.0277 55.6008 86.0277 49.3417C86.0277 43.0826 80.9512 38.0264 74.7124 38.0264ZM74.7124 53.297C72.5309 53.297 70.7572 51.5232 70.7572 49.3417C70.7572 47.1602 72.5309 45.3864 74.7124 45.3864C76.8939 45.3864 78.6677 47.1602 78.6677 49.3417C78.6677 51.5232 76.8939 53.297 74.7124 53.297Z" fill="#007DD7"/>
<path d="M91.1254 6.00988C91.1245 -0.147288 83.1529 0.218519 83.1529 0.218519L38.7886 0.211929C35.5265 0.211445 33.7733 1.39368 32.8153 2.57604L32.3668 3.20801C32.2649 3.3711 22.1348 21.7596 22.1348 21.7596L6.94626 25.2029C2.60362 25.2022 0.973408 30.8087 0.973408 30.8087L0.975394 44.2036C0.976466 51.4413 5.68611 51.6255 5.68611 51.6255L15.819 51.627C15.7169 50.9746 15.676 50.3018 15.6759 49.629C15.6749 42.4728 21.4642 36.7039 28.6204 36.7049C35.7766 36.706 41.5676 42.497 41.5687 49.6328C41.5688 50.3056 41.5077 50.9784 41.4059 51.6308L61.957 51.6339C61.8549 50.9814 61.7936 50.3086 61.7935 49.6358C61.7925 42.4796 67.5818 36.7107 74.738 36.7118C81.8942 36.7128 87.6853 42.5039 87.6863 49.6397C87.6864 50.3125 87.6253 50.9853 87.5235 51.6377C95.1486 51.5776 96.045 47.1128 96.045 47.1128L96.0418 25.5627L91.1458 6.00989L91.1254 6.00988ZM45.4986 16.0544C45.4988 17.3796 43.9698 18.4599 42.0942 18.4597L27.2925 18.4575L33.5703 6.95957L42.0925 6.96084C43.9681 6.96112 45.4974 8.04191 45.4976 9.36713L45.4986 16.034L45.4986 16.0544ZM79.2611 16.2837C79.2613 17.6293 77.9159 18.7096 76.2848 18.7094L62.1356 18.7073C60.4841 18.7071 59.1588 17.6263 59.1586 16.2807L59.1576 9.61382C59.1574 8.26821 60.4824 7.18784 62.1338 7.18808L76.2831 7.19019C77.9345 7.19043 79.2599 8.2712 79.2601 9.6168L79.2611 16.2837Z" fill="#007DD7"/>
</svg>
