<svg width="143" height="91" viewBox="0 0 143 91" fill="none" xmlns="http://www.w3.org/2000/svg">
<path d="M0.0900599 35.8301C0.41006 35.5201 0.94006 35.2901 1.47006 35.0201C1.89006 34.8101 2.34006 34.49 2.87006 34.3C3.33006 34.14 3.88006 34.12 4.41006 33.98C4.89006 33.85 5.40006 33.7601 5.93006 33.6501C6.42006 33.5401 6.91006 33.3001 7.43006 33.2001C7.95006 33.1001 8.44006 32.9801 8.96006 32.9001C9.48006 32.8201 9.99006 32.74 10.5101 32.67C11.0301 32.6 11.5501 32.6401 12.0701 32.5801C12.5901 32.5201 13.1101 32.53 13.6301 32.48C14.1501 32.43 14.6801 32.44 15.1901 32.39C15.7001 32.34 16.2201 32.13 16.7401 32.09C17.2601 32.05 17.8001 32.2 18.3101 32.17C18.8201 32.14 19.3601 32.06 19.8701 32.03C20.4101 32 20.9301 32.01 21.4301 31.99C21.9801 31.96 22.4901 31.84 22.9801 31.82C23.5801 31.79 24.1401 31.88 24.6401 31.81C25.2301 31.73 25.7601 31.53 26.2501 31.39C26.8201 31.23 27.2801 30.92 27.7401 30.68C28.2501 30.42 28.8301 30.3101 29.2401 29.9501C29.6501 29.5901 29.8801 29.0601 30.2401 28.6201C30.5701 28.2101 30.9301 27.8 31.2501 27.32C31.5401 26.89 31.9401 26.49 32.2501 26C32.5301 25.56 32.8401 25.1101 33.1501 24.6201C33.4301 24.1801 33.6401 23.66 33.9601 23.18C34.2301 22.73 34.3801 22.22 34.6201 21.75C34.8601 21.28 35.2001 20.87 35.4201 20.39C35.6401 19.91 35.6401 19.3501 35.8301 18.8601C36.0201 18.3701 36.4401 17.97 36.6201 17.48C36.8001 16.99 37.0301 16.5101 37.2101 16.0201C37.3901 15.5301 37.4401 14.99 37.6101 14.49C37.7801 13.99 38.0001 13.5101 38.1701 13.0201C38.3401 12.5301 38.3501 11.97 38.5301 11.48C38.7101 10.99 38.9601 10.51 39.1501 10.03C39.3401 9.55005 39.5801 9.06005 39.7901 8.59005C40.0001 8.12005 40.0901 7.56005 40.3201 7.10005C40.5501 6.64005 41.0601 6.30005 41.3201 5.85005C41.5801 5.40005 41.8001 4.92005 42.1001 4.49005C42.4001 4.06005 42.6901 3.62005 43.0401 3.23005C43.4101 2.81005 43.7401 2.39005 44.0801 2.05005C44.4901 1.64005 44.9001 1.31005 45.2801 1.03005C45.7601 0.670049 46.2701 0.590049 46.7101 0.430049C47.2401 0.240049 47.7301 -0.0699507 48.2301 0.0500493C48.6901 0.160049 49.1101 0.530049 49.5801 0.890049C49.9401 1.17005 50.3601 1.50005 50.7501 1.94005C51.0601 2.30005 51.3601 2.74005 51.6901 3.20005C52.0001 3.63005 52.4001 4.00005 52.6901 4.46005C52.9801 4.92005 53.1001 5.45005 53.3701 5.92005C53.6401 6.39005 53.9401 6.82005 54.1801 7.30005C54.4201 7.78005 54.4301 8.35005 54.6601 8.84005C54.8901 9.33005 55.0901 9.80005 55.3101 10.29C55.5301 10.78 55.7501 11.25 55.9601 11.74C56.1701 12.23 56.5801 12.63 56.7801 13.13C56.9801 13.63 57.2801 14.08 57.4801 14.57C57.6801 15.06 57.5501 15.6901 57.7401 16.1901C57.9301 16.6901 58.3201 17.1101 58.5101 17.6101C58.7001 18.1101 58.8101 18.64 59.0101 19.13C59.2101 19.62 59.4001 20.1301 59.6001 20.6201C59.8001 21.1101 60.0201 21.61 60.2301 22.09C60.4401 22.57 60.7701 23.02 60.9901 23.5C61.2101 23.98 61.3201 24.53 61.5601 25C61.8001 25.47 62.0201 25.98 62.2801 26.43C62.5501 26.91 62.8701 27.3501 63.1901 27.7001C63.5501 28.1001 64.0101 28.39 64.4201 28.66C64.8301 28.93 65.3501 29.1101 65.8301 29.2701C66.3101 29.4301 66.8001 29.5201 67.3201 29.6101C67.8001 29.6901 68.3101 29.6501 68.8301 29.7001C69.3201 29.7401 69.8101 29.96 70.3401 29.99C70.8301 30.02 71.3501 29.85 71.8701 29.9C72.4101 29.94 72.9401 30.08 73.4801 30.13C74.0201 30.18 74.5601 30.26 75.1001 30.32C75.6401 30.38 76.1901 30.3801 76.7301 30.4401C77.2701 30.5001 77.8101 30.53 78.3501 30.6C78.8901 30.67 79.4201 30.78 79.9601 30.85C80.5001 30.92 81.0201 31.08 81.5601 31.17C82.1001 31.26 82.6601 31.14 83.2001 31.23C83.7401 31.32 84.2601 31.48 84.8001 31.57C85.3401 31.66 85.8501 31.86 86.3901 31.96C86.9301 32.06 87.4401 32.24 87.9801 32.34C88.4401 32.42 88.9801 32.42 89.5501 32.55C90.0401 32.66 90.5301 32.9001 91.0601 33.0201C91.5901 33.1401 92.1701 32.96 92.6801 33.1C93.1901 33.24 93.6901 33.5 94.1801 33.64C94.7401 33.81 95.2701 33.94 95.7001 34.1C96.4401 34.38 96.9901 34.7 97.0901 34.92C97.0901 35.43 96.7601 35.85 96.6001 36.28C96.4301 36.75 96.2401 37.16 95.9701 37.53C95.6601 37.96 95.5201 38.5001 95.2301 38.7901C94.8601 39.1701 94.2801 39.34 93.9001 39.71C93.5201 40.08 93.2201 40.5401 92.8301 40.9001C92.4401 41.2601 91.9501 41.51 91.5501 41.87C91.1501 42.23 90.8501 42.6801 90.4501 43.0401C90.0501 43.4001 89.7801 43.8901 89.3801 44.2401C88.9801 44.5901 88.4101 44.74 88.0001 45.09C87.5901 45.44 87.2001 45.7901 86.7901 46.1301C86.3801 46.4701 85.9501 46.78 85.5401 47.12C85.1301 47.46 84.9301 48.05 84.5201 48.39C84.1101 48.73 83.6701 49.0401 83.2601 49.3801C82.8501 49.7201 82.4701 50.1 82.0601 50.44C81.6501 50.78 81.2101 51.09 80.8001 51.43C80.3901 51.77 79.8501 51.96 79.4401 52.3C79.0301 52.64 78.7501 53.14 78.3501 53.48C77.9501 53.82 77.4901 54.12 77.0901 54.46C76.6901 54.8 76.2301 55.1001 75.8301 55.4501C75.4301 55.8001 75.0101 56.13 74.6101 56.48C74.2101 56.83 73.8401 57.2201 73.4501 57.5801C73.0001 57.9901 72.8301 58.5201 72.6001 58.9701C72.3401 59.4701 71.9201 59.91 71.8501 60.46C71.7801 61.01 72.0701 61.55 72.1101 62.12C72.1501 62.65 72.2201 63.19 72.2901 63.75C72.3601 64.31 72.2701 64.85 72.3101 65.41C72.3501 65.95 72.3101 66.49 72.3301 67.03C72.3501 67.57 72.2801 68.11 72.3101 68.65C72.3401 69.19 72.4501 69.72 72.4701 70.26C72.4901 70.8 72.7701 71.33 72.7801 71.87C72.7901 72.41 72.4601 72.96 72.4701 73.5C72.4801 74.04 72.6601 74.58 72.6601 75.12C72.6601 75.66 72.5601 76.2 72.5501 76.74C72.5401 77.28 72.6901 77.82 72.6901 78.36C72.6901 78.9 72.5901 79.44 72.5801 79.98C72.5701 80.52 72.7301 81.07 72.7101 81.61C72.6901 82.15 72.5301 82.68 72.5001 83.22C72.4701 83.76 72.6101 84.31 72.5701 84.85C72.5301 85.45 72.3001 85.97 72.1901 86.44C72.0501 87.04 71.9301 87.59 71.6701 87.99C71.3501 88.48 70.9001 88.86 70.4201 89.06C69.9601 89.25 69.4201 89.06 68.8201 88.99C68.3401 88.94 67.8401 88.89 67.2801 88.68C66.8201 88.51 66.3201 88.33 65.8001 88.05C65.3101 87.79 64.8001 87.57 64.3301 87.29C63.8601 87.01 63.3401 86.79 62.8701 86.49C62.4001 86.19 62.0001 85.8 61.5401 85.49C61.0801 85.18 60.6601 84.82 60.2101 84.5C59.7601 84.18 59.2601 83.94 58.8101 83.62C58.3601 83.3 57.9301 82.95 57.4801 82.63C57.0301 82.31 56.5601 82.02 56.1001 81.71C55.6701 81.42 55.2501 81.06 54.7701 80.74C54.3301 80.44 53.7801 80.28 53.3101 79.96C52.8401 79.64 52.3901 79.38 51.9301 79.06C51.4801 78.75 51.1701 78.23 50.7201 77.91C50.2701 77.59 49.8001 77.29 49.3501 76.98C48.9001 76.67 48.2801 76.59 47.8301 76.28C47.3801 75.97 47.0001 75.4 46.5601 75.09C46.1201 75.42 45.6101 75.77 45.1601 76.08C44.7101 76.39 44.2301 76.65 43.7701 76.95C43.3101 77.25 43.0101 77.77 42.5401 78.07C42.0701 78.37 41.6301 78.66 41.1701 78.98C40.7101 79.3 40.2601 79.57 39.8101 79.9C39.3801 80.22 38.8401 80.41 38.4001 80.77C37.9901 81.1 37.6401 81.54 37.2101 81.92C36.8101 82.27 36.5301 82.79 36.1201 83.19C35.6501 83.48 35.1001 83.62 34.6701 83.9C34.2201 84.21 33.7301 84.44 33.3201 84.74C32.8801 85.06 32.5801 85.54 32.1701 85.85C31.7601 86.16 31.1401 86.24 30.7201 86.54C30.3001 86.84 29.9401 87.24 29.4901 87.53C29.0401 87.82 28.5901 88.04 28.1201 88.3C27.6701 88.55 27.1901 88.71 26.6901 88.94C26.2301 89.15 25.8401 89.58 25.3201 89.77C24.8201 89.95 24.3001 89.96 23.8501 90.06C23.3201 90.18 22.8501 90.4 22.3901 90.41C21.8501 90.41 21.3201 90.38 20.8801 90.24C20.3901 90.08 19.9201 89.79 19.5701 89.44C19.2301 89.11 19.0801 88.6 18.8601 88.11C18.6801 87.69 18.5201 87.23 18.4301 86.7C18.3501 86.25 18.3201 85.75 18.3201 85.22C18.3201 84.69 18.2701 84.16 18.2701 83.63C18.2701 83.1 18.1701 82.57 18.1901 82.04C18.2101 81.51 18.4801 80.99 18.5101 80.46C18.5401 79.93 18.6101 79.41 18.6401 78.88C18.6701 78.35 18.7301 77.83 18.7801 77.3C18.8301 76.77 18.5701 76.21 18.6201 75.69C18.6701 75.17 18.8401 74.65 18.9001 74.12C18.9601 73.59 19.0101 73.06 19.0901 72.54C19.1701 72.02 19.2701 71.49 19.3501 70.97C19.4301 70.45 19.4601 69.91 19.5501 69.39C19.6401 68.87 19.9601 68.39 20.0701 67.87C20.1701 67.38 20.0801 66.84 20.2201 66.36C20.3601 65.88 20.6601 65.44 20.8001 64.96C20.9401 64.48 21.1501 64.01 21.2701 63.53C21.4001 63.03 21.5801 62.5401 21.6401 62.0601C21.7001 61.5501 21.5601 61.0201 21.5001 60.5401C21.4401 60.0601 21.3501 59.54 21.1101 59.09C20.8901 58.68 20.5901 58.26 20.1901 57.89C19.8001 57.52 19.2701 57.3101 18.8601 56.9501C18.4501 56.5901 18.0301 56.27 17.6201 55.92C17.2101 55.57 16.8701 55.14 16.4601 54.8C16.0501 54.46 15.6001 54.16 15.1801 53.82C14.7601 53.48 14.5001 52.9501 14.0801 52.6101C13.6601 52.2701 13.1801 52.01 12.7701 51.66C12.3601 51.31 12.0401 50.87 11.6401 50.51C11.2401 50.15 10.8101 49.83 10.4201 49.46C10.0301 49.09 9.64006 48.7201 9.28006 48.3301C8.92006 47.9401 8.46006 47.6201 8.12006 47.2001C7.84006 46.8601 7.54006 46.42 7.16006 45.98C6.84006 45.62 6.36006 45.34 6.00006 44.93C5.67006 44.55 5.43006 44.07 5.08006 43.66C4.73006 43.25 4.29006 42.97 3.95006 42.57C3.61006 42.17 3.44006 41.63 3.12006 41.23C2.80006 40.83 2.36006 40.4801 2.06006 40.0801C1.73006 39.6401 1.53006 39.14 1.26006 38.73C0.93006 38.24 0.47006 37.8901 0.27006 37.4901C-0.0399401 36.8501 -0.0999402 36.17 0.0700599 35.85L0.0900599 35.8301Z" fill="#007DD7"/>
<path d="M121.7 44.6399C122.09 44.8099 122.45 45.2099 122.84 45.6599C123.14 46.0099 123.39 46.4599 123.68 46.9299C123.94 47.3399 124.32 47.7199 124.56 48.1899C124.8 48.6599 124.92 49.1499 125.14 49.6199C125.36 50.0899 125.64 50.5299 125.84 50.9799C126.06 51.4699 126.28 51.9399 126.47 52.3699C126.62 52.7199 126.77 53.1899 127.03 53.6499C127.25 54.0599 127.49 54.4799 127.74 54.8599C128.04 55.3199 128.36 55.7199 128.6 55.9799C129.09 55.9899 129.58 56.0199 130.1 56.0199C130.57 56.0199 131.06 55.8999 131.59 55.8899C132.06 55.8799 132.55 55.9099 133.08 55.8899C133.63 55.8699 134.12 55.8699 134.57 55.8699C135.11 55.8699 135.6 55.8499 136.06 55.8899C136.56 55.9299 137.02 56.0899 137.52 56.1899C137.97 56.2799 138.44 56.3799 138.96 56.5399C139.39 56.6699 139.86 56.8099 140.37 56.9999C141.02 57.2299 141.57 57.3899 141.93 57.6399C142.49 58.0299 142.63 58.5199 142.5 59.1099C142.41 59.5199 142.18 59.9999 141.75 60.5799C141.45 60.9799 141.14 61.4199 140.77 61.8399C140.43 62.2199 140.04 62.5899 139.66 62.9799C139.3 63.3499 138.98 63.7799 138.59 64.1599C138.2 64.5399 137.77 64.8399 137.39 65.2099C137.01 65.5799 136.67 65.9999 136.29 66.3699C135.91 66.7399 135.42 67.0199 135.05 67.3799C134.66 67.7599 134.37 68.2299 134.01 68.5899C133.62 68.9899 133.24 69.3299 132.91 69.6999C133.11 70.1399 133.29 70.6099 133.49 71.1099C133.68 71.5699 133.91 72.0399 134.09 72.5399C134.27 73.0399 134.34 73.5399 134.52 74.0399C134.7 74.5399 134.85 75.0199 135 75.5099C135.15 75.9999 135.46 76.4599 135.61 76.9499C135.76 77.4599 135.75 78.0099 135.87 78.4899C136 79.0199 136.14 79.5299 136.24 79.9999C136.35 80.5699 136.42 81.0899 136.45 81.5299C136.51 82.2999 136.49 82.7899 136.26 82.9699C135.89 83.0999 135.29 83.0899 134.7 82.9299C134.06 82.7599 133.47 82.4299 133.22 82.3299C132.64 82.0799 132.08 81.9399 131.59 81.7499C131.01 81.5299 130.5 81.2699 129.99 81.0999C129.42 80.9099 128.87 80.7999 128.33 80.6199C127.79 80.4399 127.26 80.2799 126.7 80.0699C126.2 79.8899 125.69 79.6399 125.12 79.3899C124.63 79.1799 124.12 78.9399 123.55 78.6699C122.87 78.3499 122.25 78.3899 121.64 78.5999C121.07 78.7999 120.53 79.2199 119.89 79.4899C119.42 79.6899 118.89 79.7599 118.41 79.9499C117.93 80.1399 117.46 80.3499 116.98 80.5299C116.5 80.7099 116.05 80.9799 115.57 81.1499C115.09 81.3199 114.59 81.4599 114.1 81.6299C113.61 81.7999 113.1 81.8699 112.61 82.0199C112.12 82.1699 111.65 82.3899 111.16 82.5399C110.57 82.7099 110.06 82.8299 109.67 82.7699C109.13 82.6799 108.82 82.2799 108.67 81.7499C108.56 81.3699 108.59 80.8899 108.69 80.2799C108.79 79.7099 108.79 79.1199 108.93 78.5499C109.07 77.9799 109.33 77.4599 109.5 76.8999C109.67 76.3399 109.73 75.7599 109.88 75.1999C110.02 74.7099 110.23 74.1499 110.41 73.5499C110.56 73.0099 110.76 72.4599 110.92 71.8999C111.08 71.3399 111.16 70.7899 111.31 70.2599C110.87 69.9999 110.55 69.6599 110.14 69.3699C109.73 69.0799 109.27 68.8799 108.83 68.5899C108.43 68.3299 108.04 67.9999 107.57 67.7399C107.16 67.5099 106.73 67.2399 106.23 67.0199C105.81 66.7099 105.4 66.4599 105.01 66.2199C104.58 65.9499 104.13 65.7799 103.73 65.5199C103.33 65.2599 102.92 64.9999 102.53 64.6899C102.18 64.4099 101.89 64.0199 101.54 63.6199C101.11 63.1399 100.81 62.7099 100.7 62.2799C100.55 61.7299 100.7 61.2299 101.1 60.8099C101.4 60.4899 101.84 60.1999 102.44 59.9799C102.96 59.7899 103.47 59.5599 104 59.3899C104.53 59.2199 105.1 59.2099 105.64 59.0599C106.18 58.9099 106.7 58.7199 107.24 58.5999C107.78 58.4799 108.33 58.3699 108.87 58.2699C109.41 58.1699 109.97 58.0799 110.51 57.9999C111.06 57.9199 111.63 57.9099 112.16 57.8699C112.75 57.8299 113.32 57.7599 113.79 57.5899C114.3 57.3999 114.74 57.0599 115.01 56.4999C115.22 56.0599 115.38 55.5999 115.56 55.1399C115.74 54.6799 115.85 54.1999 116.02 53.7399C116.19 53.2799 116.44 52.8499 116.62 52.3999C116.8 51.9499 117.05 51.5199 117.27 51.0899C117.49 50.6599 117.65 50.1899 117.92 49.7799C118.14 49.4399 118.43 48.9499 118.75 48.3999C119.01 47.9599 119.3 47.4799 119.59 47.0199C119.88 46.5599 120.17 46.0499 120.47 45.6599C120.94 45.0399 121.41 44.5899 121.71 44.6299L121.7 44.6399Z" fill="#007DD7"/>
</svg>
