<svg width="82" height="93" viewBox="0 0 82 93" fill="none" xmlns="http://www.w3.org/2000/svg">
<path d="M81.5258 67.59C81.5558 66.97 81.3458 66.35 81.2558 65.85C81.1558 65.24 81.0258 64.72 80.7858 64.26C80.5158 63.74 80.1958 63.29 79.7958 62.91C79.3958 62.53 78.9458 62.17 78.4658 61.88C77.9858 61.59 77.4758 61.33 76.9758 61.09C76.4758 60.85 75.9458 60.62 75.4658 60.36C74.9858 60.1 74.4358 59.81 74.0058 59.48C74.2858 59.06 74.7058 58.76 75.0758 58.44C75.4458 58.12 75.7658 57.73 76.1758 57.47C76.5858 57.21 77.1258 57.13 77.5358 56.87C77.9458 56.61 78.2858 56.22 78.6558 55.9C79.0258 55.58 79.4058 55.26 79.6758 54.83C79.9158 54.44 79.9758 53.98 80.0958 53.46C79.5658 53.32 79.1158 53.18 78.6458 53.18C78.1158 53.18 77.6558 53.42 77.1858 53.55C76.7158 53.68 76.1658 53.72 75.7258 53.96C75.2858 54.2 74.9858 54.68 74.5758 54.98C74.1658 55.28 73.5458 55.3 73.1458 55.6C72.6558 55.96 72.3358 56.51 71.8658 56.75C71.3258 57.03 70.7158 56.99 70.1858 57.11C69.6158 57.25 69.0858 57.42 68.5258 57.38C67.9658 57.34 67.3858 57.31 66.8358 57.1C66.3358 56.91 65.9558 56.42 65.4458 56.09C64.9958 55.8 64.3758 55.61 63.9258 55.21C64.3258 54.93 64.8758 54.76 65.2758 54.49C65.6758 54.22 66.0258 53.86 66.4258 53.59C66.8258 53.32 67.2758 53.1 67.6558 52.81C68.0358 52.52 68.2958 52.05 68.6558 51.73C69.0058 51.42 69.5658 51.34 70.0258 51.08C70.4858 50.82 70.9658 50.59 71.2958 50.24C71.6258 49.89 71.9058 49.38 71.9558 48.81C71.9858 48.4 71.8258 47.78 71.6358 47.2C71.0758 47.33 70.4758 47.61 69.9658 47.72C69.4158 47.84 68.8458 47.82 68.3558 48.03C67.8258 48.25 67.3858 48.66 66.8658 48.88C66.3458 49.1 65.8358 49.38 65.3158 49.61C64.7958 49.84 64.2858 50.1 63.7658 50.33C63.2458 50.56 62.7358 50.81 62.2058 51.04C61.6758 51.27 61.1358 51.43 60.6058 51.66C60.0758 51.89 59.4658 51.89 58.9358 52.11C58.4158 52.33 57.9258 52.41 57.4258 52.47C56.8758 52.53 56.3658 52.67 55.8558 52.56C55.3458 52.45 54.8258 52.26 54.3758 51.97C53.9258 51.68 53.4158 51.42 53.0858 50.99C52.7558 50.56 52.7158 49.99 52.5258 49.47C52.3558 48.99 52.0058 48.51 51.9758 47.94C51.9458 47.39 52.2258 46.83 52.2058 46.28C52.1858 45.73 51.8458 45.2 51.8258 44.65C51.8058 44.1 52.0058 43.55 51.9858 43C51.9658 42.45 51.7358 41.91 51.7058 41.37C51.6858 40.81 51.7058 40.31 51.7358 39.88C51.7858 39.28 52.1058 38.88 52.2958 38.53C52.5358 38.07 52.8058 37.81 53.3358 37.7C53.7258 37.62 54.1858 37.64 54.7758 37.73C55.1958 37.79 55.6758 37.87 56.2158 38.01C56.7158 38.14 57.2558 38.16 57.7558 38.31C58.2558 38.46 58.7058 38.76 59.2058 38.91C59.7058 39.06 60.2058 39.18 60.7058 39.34C61.2058 39.5 61.6758 39.7 62.1758 39.86C62.6758 40.02 63.1858 40.11 63.6858 40.27C64.3058 40.46 64.9058 40.56 65.4458 40.52C65.9858 40.48 66.4758 40.18 66.9458 39.69C67.2858 39.34 67.5158 38.97 67.7958 38.31C67.2558 38.13 66.9158 37.76 66.3758 37.59C65.8358 37.42 65.2758 37.31 64.7358 37.13C64.1958 36.95 63.6658 36.77 63.1258 36.59C62.5858 36.41 62.0458 36.27 61.5058 36.09C60.9658 35.91 60.4758 35.64 59.9258 35.46C59.3758 35.28 58.9558 35.24 58.4058 35.06C58.8758 34.75 59.1358 34.48 59.5158 34.23C59.9958 33.92 60.3458 33.56 60.7258 33.31C61.1858 33.01 61.6358 32.83 62.0158 32.52C62.4258 32.2 62.8358 31.9 63.2458 31.64C63.6858 31.36 64.1258 31.11 64.5758 30.91C65.0258 30.71 65.5158 30.5 65.9958 30.38C66.4758 30.26 66.9858 30.1 67.4958 30.07C68.0058 30.04 68.5058 30.18 69.0158 30.24C69.4958 30.3 70.0358 30.25 70.5358 30.4C70.9958 30.53 71.4358 30.85 71.9158 31.06C72.3758 31.26 72.8458 31.5 73.3558 31.58C73.8658 31.66 74.3858 31.56 74.8958 31.6C75.4058 31.64 75.8558 31.57 76.3558 31.64C76.4858 31.29 76.5558 31.13 76.6858 30.78C76.2458 30.51 75.8858 30.24 75.4458 29.97C75.0058 29.7 74.6158 29.35 74.1858 29.08C73.7558 28.81 73.2458 28.64 72.8058 28.36C72.3658 28.08 71.9058 27.72 71.4658 27.44C71.9258 27.07 72.5458 26.82 73.0358 26.51C73.5258 26.2 74.0858 25.89 74.5058 25.53C74.9658 25.14 75.3058 24.63 75.5258 24.08C75.7158 23.6 75.7658 23.02 75.6758 22.33C75.1758 22.08 74.6858 22.15 74.2458 22.12C73.7358 22.09 73.2958 22.05 72.8258 22.2C72.3558 22.35 71.8658 22.43 71.4158 22.65C70.9658 22.87 70.5358 23.08 70.0758 23.24C69.6158 23.4 69.2758 23.49 68.7658 23.52C68.8058 23 68.8158 22.59 68.8558 22.08C68.8958 21.57 68.9758 21.05 69.0158 20.54C69.0558 20.03 68.8158 19.48 68.8558 18.97C68.8958 18.46 69.2058 17.89 69.2458 17.38C68.6258 17.15 68.0258 17.3 67.5658 17.31C66.9358 17.32 66.3258 17.23 65.9658 17.61C65.6258 17.97 65.6958 18.63 65.5458 19.22C65.3958 19.79 65.0858 20.32 64.9858 20.91C64.8858 21.5 64.9858 22.11 64.9058 22.69C64.8258 23.27 64.4758 23.82 64.3658 24.4C64.2858 24.82 64.3958 25.35 64.2958 25.8C64.1858 26.32 63.9358 26.75 63.6158 26.99C63.1558 27.33 62.6358 27.58 62.1558 27.9C61.6758 28.22 61.2658 28.61 60.7758 28.93C60.2858 29.25 59.8858 29.64 59.3858 29.95C58.8858 30.26 58.4458 30.59 57.9458 30.9C57.4758 31.19 56.9258 31.31 56.4158 31.62C56.4958 31.06 56.3658 30.54 56.4358 30.03C56.5158 29.47 56.7158 28.95 56.7858 28.44C56.8658 27.88 56.8358 27.33 56.9058 26.81C56.9758 26.26 57.3358 25.76 57.3958 25.24C57.4558 24.72 57.3458 24.14 57.3858 23.61C57.4358 22.96 56.8058 21.63 56.4858 21.63C56.0758 21.63 55.5958 21.72 55.1758 21.89C54.7558 22.06 54.4358 22.42 54.1358 22.71C53.8558 22.98 53.7258 23.36 53.5658 23.76C53.4058 24.16 53.0358 24.47 52.9458 24.86C52.8158 25.39 52.7358 25.94 52.6158 26.47C52.4958 27 52.3558 27.53 52.2358 28.07C52.1158 28.61 52.2358 29.19 52.1158 29.72C51.9958 30.25 51.7658 30.76 51.6458 31.3C51.5258 31.84 51.4458 32.37 51.3258 32.91C51.2058 33.43 50.9158 33.83 50.7258 34.22C50.4958 34.71 50.2958 35.09 49.9658 35.39C49.5958 35.73 49.2158 35.95 48.7358 36.03C48.2958 36.11 47.8258 36.12 47.3158 35.98C46.8958 35.86 46.3558 35.84 45.8858 35.57C45.4658 35.33 45.2058 34.83 44.7958 34.58C44.3858 34.33 43.9158 34.16 43.5058 33.91C43.0958 33.66 42.6758 33.41 42.2758 33.16C41.8558 32.89 41.5758 32.54 41.1858 32.3C40.9958 31.78 40.7458 31.38 40.6458 30.9C40.5258 30.36 40.2358 29.86 40.2258 29.36C40.2158 28.82 40.4758 28.3 40.5758 27.81C40.6758 27.32 40.7058 26.74 40.9258 26.27C41.1458 25.8 41.5758 25.45 41.8958 25.03C42.2058 24.63 42.4558 24.16 42.8458 23.79C43.2058 23.44 43.5658 23.03 43.9858 22.7C44.4158 22.37 44.8758 22.08 45.2758 21.7C45.6758 21.32 46.1158 20.99 46.4758 20.58C46.8358 20.17 47.1058 19.67 47.4558 19.26C47.7758 18.88 47.9858 18.44 48.2358 17.86C48.4258 17.43 48.6658 17.01 48.9458 16.44C48.3958 16.38 47.9958 16.54 47.5358 16.62C47.0158 16.72 46.5558 16.81 46.1258 17.04C45.6958 17.27 45.2558 17.52 44.8658 17.85C44.4758 18.18 44.2058 18.61 43.8458 18.96C43.4858 19.31 42.9858 19.53 42.6058 19.85C42.2258 20.17 41.8758 20.59 41.4358 20.83C40.9958 21.07 40.5858 21 40.0658 21.08C40.0158 20.57 39.7258 20.21 39.6958 19.72C39.6658 19.23 39.6558 18.71 39.6058 18.22C39.5558 17.73 39.5758 17.21 39.4858 16.72C39.3958 16.21 39.3658 15.71 39.3658 15.25C39.3658 14.74 39.4858 14.26 39.5958 13.8C39.7058 13.34 39.7458 12.8 39.9858 12.36C40.2258 11.92 40.5158 11.52 40.8458 11.14C41.1558 10.79 41.5958 10.52 41.9958 10.2C42.3758 9.89 42.7758 9.59 43.1158 9.22C43.4558 8.85 43.6758 8.41 44.0058 8.02C44.3358 7.63 44.8958 7.31 45.2458 6.94C44.7058 6.46 44.0058 6.4 43.5758 6.29C42.9558 6.13 42.4958 6.15 42.0058 6.43C41.5158 6.71 41.0958 7.1 40.6558 7.44C40.1758 7.81 39.5758 8.2 39.0258 8.23C38.9358 7.69 38.9658 7.03 38.8858 6.49C38.8058 5.95 38.7258 5.41 38.6458 4.87C38.5658 4.33 38.3658 3.8 38.2858 3.27C38.2058 2.74 38.1658 2.19 38.0758 1.65C37.9858 1.11 37.9458 0.53 37.8658 0C37.2858 0.03 36.7658 0.07 36.3558 0.11C35.7058 0.16 35.2058 0.15 34.8658 0.28C34.3958 0.47 34.3058 0.93 34.1558 1.53C34.0558 1.9 33.7058 2.32 33.6158 2.93C33.5358 3.46 33.6958 4.03 33.6258 4.58C33.5558 5.1 33.3458 5.61 33.2758 6.17C33.2158 6.68 33.2758 7.41 33.2058 7.98C32.6658 7.52 32.0958 6.97 31.6458 6.57C31.1258 6.11 30.7358 5.58 30.1858 5.27C29.6158 4.95 28.6458 5.13 28.0258 5.41C27.7258 5.55 27.5658 6.63 27.8058 7.1C28.0658 7.61 28.3658 8.11 28.6158 8.64C28.8658 9.17 29.0858 9.7 29.3558 10.21C29.6258 10.72 29.9558 11.2 30.2758 11.68C30.5958 12.16 30.7758 12.77 31.1758 13.19C31.5558 13.59 31.9158 13.93 32.1658 14.33C32.4458 14.78 32.5658 15.26 32.7258 15.72C32.8958 16.21 33.0658 16.66 33.1258 17.16C33.1858 17.66 33.1258 18.15 33.1058 18.67C33.0858 19.19 33.1058 19.67 33.0358 20.18C32.9658 20.69 33.1058 21.35 33.0358 21.86C32.5158 21.69 31.8858 21.35 31.4358 21.04C30.9858 20.73 30.5158 20.42 30.0958 20.06C29.6758 19.7 29.3958 19.17 28.9558 18.87C28.5158 18.57 28.0358 18.19 27.5158 18.04C27.0258 17.9 26.4358 17.84 25.8358 17.94C25.3658 18.02 24.9758 18.35 24.4158 18.63C24.7858 19.06 25.1358 19.31 25.4358 19.66C25.7858 20.08 26.0458 20.47 26.4058 20.8C26.8358 21.19 27.1358 21.71 27.5658 22.09C27.9958 22.47 28.5858 22.67 29.0158 23.05C29.4458 23.43 29.8058 23.89 30.2358 24.27C30.6658 24.65 30.9358 25.21 31.3658 25.59C31.7958 25.97 32.3858 26.18 32.8058 26.56C33.1858 26.91 33.6258 27.21 33.8758 27.59C34.1658 28.01 34.0758 28.59 34.1958 29.04C34.3258 29.51 34.5658 29.97 34.5058 30.45C34.4458 30.93 34.3358 31.42 34.1058 31.87C33.8958 32.27 33.4958 32.61 33.1458 32.99C32.7858 33.37 32.3858 33.72 32.0158 34.08C31.6458 34.44 31.2758 34.83 30.9058 35.18C30.5158 35.55 30.1458 35.95 29.7858 36.29C29.2558 36.19 28.7658 35.94 28.2958 35.79C27.7758 35.62 27.3358 35.39 26.8858 35.16C26.4058 34.92 25.8358 34.85 25.4458 34.54C25.0558 34.23 24.7758 33.73 24.4558 33.33C24.1358 32.93 23.9258 32.47 23.7058 31.99C23.4958 31.54 23.1258 31.12 22.9958 30.6C22.8758 30.12 22.9958 29.57 22.9458 29.03C22.8758 28.35 22.7258 27.67 22.5858 27C22.4658 26.42 22.2158 25.98 21.9758 25.72C21.6558 25.36 21.1858 25.41 20.6758 25.51C20.2958 25.58 19.8158 25.64 19.3458 25.89C19.4058 26.37 19.3258 26.89 19.3858 27.36C19.4458 27.83 19.8258 28.27 19.8858 28.75C19.9458 29.23 19.8758 29.71 19.9358 30.2C19.9958 30.69 20.0458 31.2 20.1058 31.69C19.5558 31.49 19.0258 31.3 18.6058 31.15C18.0258 30.94 17.5258 30.81 17.1458 30.63C16.5858 30.37 16.3058 29.95 15.9858 29.61C15.6658 29.27 15.4158 28.91 15.1458 28.36C14.9558 27.97 14.7458 27.52 14.5158 26.96C14.3058 26.46 14.1958 25.91 13.9958 25.4C13.7958 24.89 13.4358 24.44 13.2258 23.94C13.0158 23.44 12.8258 22.92 12.5858 22.43C12.3158 21.88 12.0058 21.5 11.7558 21.18C11.3758 20.69 11.0458 20.52 10.5458 20.56C10.1658 20.59 9.68581 20.66 9.13581 20.99C8.77581 21.21 8.44581 21.55 7.97581 21.9C8.10581 22.47 8.06581 23.05 8.20581 23.65C8.33581 24.21 8.42581 24.79 8.56581 25.4C8.69581 25.95 8.92581 26.46 9.06581 27.08C8.58581 26.88 8.13581 26.79 7.69581 26.6C7.22581 26.39 6.81581 26.09 6.36581 25.9C5.89581 25.7 5.44581 25.48 4.99581 25.29C4.54581 25.1 4.01581 25.04 3.56581 24.85C3.11581 24.66 2.71581 24.28 2.25581 24.1C1.71581 23.9 0.735812 24.08 0.515812 24.4C0.125812 24.96 -0.17419 25.92 0.11581 26.43C0.36581 26.88 0.60581 27.38 1.00581 27.76C1.40581 28.14 1.94581 28.3 2.37581 28.6C2.79581 28.89 3.16581 29.25 3.59581 29.53C4.02581 29.81 4.46581 30.06 4.89581 30.35C5.32581 30.64 5.67581 31.01 6.11581 31.29C6.55581 31.57 7.00581 31.78 7.44581 32.06C7.88581 32.34 8.28581 32.64 8.71581 32.93C8.30581 33.17 7.99581 33.53 7.63581 33.75C7.22581 34 6.78582 34.12 6.42582 34.34C6.02582 34.57 5.69581 34.89 5.30581 35.1C4.78581 35.37 4.15581 35.51 3.86581 35.91C3.55581 36.33 3.38581 36.97 3.68581 37.59C4.04581 38.33 4.71581 38.57 5.27581 38.55C5.83581 38.53 6.48582 38.25 7.03582 37.96C7.51582 37.71 7.86581 37.21 8.33581 36.92C8.80581 36.63 9.35581 36.49 9.82581 36.21C10.2958 35.93 10.8358 35.81 11.3358 35.59C11.7858 35.39 12.2458 35.05 12.7758 34.98C13.3058 34.91 13.9158 34.83 14.3758 34.98C14.8558 35.14 15.2258 35.55 15.6958 35.75C16.1658 35.95 16.7058 35.94 17.1658 36.17C17.6258 36.4 18.0058 36.73 18.4558 36.96C18.9058 37.19 19.4158 37.42 19.8658 37.64C19.5058 38.09 19.1658 38.64 18.7658 39.01C18.3458 39.4 17.8758 39.73 17.4258 40.06C16.9758 40.39 16.3558 40.49 15.8758 40.78C15.3958 41.07 14.9258 41.39 14.4458 41.67C13.9658 41.95 13.5258 42.33 13.0558 42.63C12.5858 42.93 12.0158 43.12 11.5758 43.46C11.1358 43.8 10.8558 44.35 10.4558 44.75C10.0558 45.15 9.52581 45.54 9.19581 46.01C9.70581 46.28 10.3258 46.35 10.7858 46.49C11.2958 46.65 11.7558 46.82 12.2958 46.79C12.7658 46.76 13.2658 46.67 13.8158 46.47C14.2458 46.31 14.7058 46.08 15.2258 45.79C15.6358 45.56 16.0658 45.26 16.5458 44.94C16.9458 44.67 17.4858 44.54 17.9458 44.21C18.3458 43.92 18.6558 43.46 19.0958 43.13C19.4858 42.83 20.0158 42.66 20.4558 42.32C20.8458 42.02 21.2158 41.64 21.6458 41.3C22.0358 40.99 22.3558 40.54 22.7858 40.2C23.1758 39.88 23.6758 39.73 24.1058 39.39C24.6058 39.46 25.0458 39.36 25.3958 39.55C25.7958 39.77 26.0758 40.16 26.2558 40.6C26.4058 40.95 26.5658 41.4 26.5558 41.93C26.5358 42.45 26.2458 42.96 26.2358 43.48C26.2258 44 26.1858 44.52 26.1758 45.04C26.1658 45.56 26.5058 46.08 26.5158 46.6C26.5258 47.12 26.3658 47.64 26.3958 48.16C26.4258 48.68 26.5858 49.19 26.6358 49.7C26.6958 50.22 26.3958 50.67 26.3358 51.08C26.2558 51.57 26.2658 52.02 26.0458 52.42C25.8258 52.82 25.5158 53.15 25.1558 53.49C24.8358 53.79 24.4858 54.09 24.0758 54.38C23.5458 54.75 23.1058 55.15 22.6058 55.33C22.0558 55.53 21.4458 55.6 20.8558 55.57C20.3258 55.55 19.7758 55.32 19.1658 55.13C18.6858 54.99 18.2058 54.82 17.7358 54.64C17.2658 54.46 16.7958 54.28 16.3258 54.1C15.8558 53.92 15.4258 53.59 14.9458 53.44C14.4658 53.29 13.9458 53.2 13.4458 53.13C12.9458 53.06 12.4358 53.12 11.9158 53.16C11.4358 53.2 10.9458 53.32 10.4358 53.49C10.4558 54.07 10.4358 54.6 10.5658 55.01C10.7458 55.54 11.1158 55.92 11.4458 56.24C11.8058 56.59 12.2358 56.84 12.7158 57.02C13.1658 57.2 13.6258 57.44 14.1258 57.56C14.6258 57.68 15.0958 57.81 15.5758 57.94C16.0558 58.07 16.6158 58.01 17.0558 58.23C17.4958 58.45 17.9658 58.8 18.3158 59.18C17.8858 59.56 17.4758 60.03 17.0558 60.4C16.6358 60.77 15.9858 60.91 15.5758 61.28C15.1658 61.65 14.8758 62.21 14.4658 62.57C14.0558 62.93 13.5858 63.3 13.1758 63.67C12.5458 63.51 11.9758 63.36 11.4758 63.23C10.8258 63.06 10.2858 62.84 9.79581 62.74C9.07581 62.58 8.50581 62.56 8.05581 62.54C7.31581 62.5 6.84581 62.64 6.41581 63C6.05581 63.29 5.85581 63.74 5.40581 64.33C5.85581 64.57 6.23582 64.7 6.67582 64.93C7.11582 65.16 7.47581 65.57 7.91581 65.8C8.35581 66.03 8.69581 66.27 9.13581 66.5C8.86581 67 8.76581 67.5 8.39581 67.9C8.02581 68.3 7.54582 68.62 7.10582 68.97C6.66582 69.32 6.24581 69.67 5.80581 70C5.36581 70.33 4.93581 70.67 4.51581 71.03C4.09581 71.39 3.53581 71.62 3.18581 72.05C2.83581 72.48 2.69581 73.03 2.46581 73.56C2.26581 74.04 2.18582 74.46 2.10582 75.06C2.64582 75.1 3.07581 75.33 3.55581 75.27C4.08581 75.2 4.57581 74.95 5.04581 74.79C5.51581 74.63 5.97581 74.35 6.43581 74.12C6.89581 73.89 7.42581 73.78 7.86581 73.52C8.30581 73.26 8.67581 72.86 9.11581 72.6C9.55581 72.34 9.94581 71.95 10.4058 71.73C10.8658 71.51 11.4658 71.39 11.9658 71.24C11.9658 71.74 11.7758 72.27 11.7558 72.68C11.7358 73.18 11.8558 73.62 11.9858 74.02C12.1158 74.42 12.2158 74.86 12.4758 75.22C12.7358 75.58 13.0958 75.68 13.3258 76.03C13.7058 75.71 14.1258 75.58 14.5358 75.28C14.9758 74.96 15.4458 74.66 15.6458 74.23C15.8658 73.76 15.7658 73.16 15.7958 72.59C15.8258 72.02 15.9958 71.47 15.9558 70.95C15.9158 70.42 15.9258 69.94 15.9658 69.48C16.0158 68.96 15.9658 68.44 16.1258 67.99C16.3058 67.51 16.6758 67.15 16.9658 66.76C17.2558 66.37 17.6458 66.09 18.0358 65.77C18.4058 65.47 18.6958 65.03 19.1458 64.78C19.5658 64.55 19.9758 64.5 20.4558 64.31C20.7058 64.8 20.8058 65.18 20.7858 65.71C20.7658 66.24 20.8258 66.78 20.7058 67.31C20.5858 67.84 20.3358 68.32 20.2658 68.83C20.1958 69.34 20.0758 69.9 20.1858 70.41C20.2858 70.89 20.5258 71.37 20.9258 71.81C21.2258 72.15 21.6558 72.4 22.1958 72.71C22.5158 72.23 22.9258 71.85 23.2158 71.37C23.5058 70.89 23.5558 70.25 23.8158 69.75C24.0758 69.25 24.5658 68.84 24.7858 68.32C25.0058 67.8 24.9758 67.17 25.1558 66.63C25.3358 66.09 25.7558 65.62 25.8958 65.07C26.0358 64.52 25.8958 63.91 25.9758 63.34C26.0558 62.77 26.3158 62.24 26.3558 61.67C26.3958 61.06 26.5058 60.5 26.6258 59.95C26.7558 59.36 26.8158 58.77 27.0858 58.26C27.3558 57.75 27.7558 57.33 28.2058 56.91C28.6058 56.54 29.0558 56.11 29.6258 55.81C30.0158 56.1 30.2958 56.61 30.6858 56.9C31.0758 57.19 31.5358 57.37 31.9258 57.66C32.3158 57.95 32.7158 58.22 33.1058 58.51C33.4958 58.8 33.7958 59.21 34.1858 59.5C34.5758 59.79 34.9858 60.06 35.3658 60.36C35.8058 60.7 36.1258 61.05 36.4158 61.41C36.7658 61.84 37.2358 62.15 37.3858 62.6C37.5358 63.09 37.6258 63.65 37.5458 64.17C37.4658 64.64 37.1658 65.1 36.8958 65.59C36.6658 66 36.3758 66.42 36.0058 66.84C35.6658 67.22 35.4158 67.68 35.0758 68.06C34.7358 68.44 34.2258 68.67 33.8958 69.05C33.5658 69.43 33.2658 69.85 32.9258 70.23C32.5858 70.61 32.1758 70.92 31.8358 71.31C31.4958 71.7 31.1058 72.03 30.7758 72.41C30.4458 72.79 30.1258 73.19 29.7958 73.58C29.4658 73.97 29.1858 74.4 28.8658 74.79C28.5258 75.2 28.2158 75.66 27.9158 76.16C27.6458 76.59 27.5658 77.17 27.2658 77.69C27.0158 78.13 26.5358 78.59 26.2258 79.1C26.7758 79.16 27.3858 79.22 27.8558 79.19C28.3958 79.15 28.9358 79.12 29.3958 78.98C29.8958 78.82 30.3058 78.44 30.7258 78.18C31.1458 77.92 31.5658 77.6 31.9358 77.26C32.3058 76.92 32.6658 76.55 32.9958 76.16C33.3258 75.77 33.5758 75.33 33.8958 74.93C34.2158 74.53 34.5458 74.15 34.8858 73.78C35.2258 73.41 35.6058 73.07 35.9958 72.75C36.3858 72.43 36.7258 72.26 37.1958 72.05C37.3558 72.55 37.4258 72.96 37.5558 73.45C37.6858 73.94 37.9858 74.42 38.0558 74.93C38.1258 75.44 38.3058 75.97 38.3058 76.49C38.3058 77.01 38.1658 77.54 38.0358 78.05C37.9058 78.56 37.6858 79.02 37.4458 79.5C37.2258 79.93 36.8158 80.27 36.4658 80.7C36.1558 81.09 35.9758 81.59 35.7258 82.03C35.4758 82.47 35.2458 82.91 35.0358 83.37C34.8258 83.83 34.5958 84.29 34.4358 84.75C34.2558 85.27 34.0658 85.84 34.0258 86.42C33.9858 87 34.1258 87.57 34.0658 88.12C34.3858 88.28 34.7658 88.53 35.0858 88.69C35.4958 88.31 35.8858 87.86 36.2958 87.48C36.7058 87.1 37.1258 86.75 37.5458 86.36C37.9658 85.97 38.3258 85.52 38.7558 85.13C38.8958 85.72 38.9458 86.26 39.0558 86.75C39.1658 87.24 39.2358 87.73 39.3158 88.23C39.3958 88.73 39.4758 89.23 39.5858 89.71C39.6958 90.19 40.0558 90.6 40.2658 91.05C40.4558 91.45 40.5258 91.96 40.8358 92.3C41.1458 92.64 41.5858 92.77 42.0458 92.88C42.4358 92.98 42.8558 93.06 43.3658 92.89C44.1558 92.64 44.5458 92.22 44.6858 91.71C44.8358 91.16 44.8258 90.49 44.7458 89.86C44.6858 89.39 44.6458 88.92 44.5758 88.45C44.5058 87.98 44.4158 87.52 44.3458 87.06C44.2758 86.6 44.0958 86.15 44.0258 85.68C43.9558 85.21 43.9258 84.77 43.8558 84.3C44.3458 84.29 44.8258 84.28 45.2658 84.43C45.7058 84.58 46.1358 84.92 46.5858 85.01C47.0358 85.1 47.5258 85.13 48.0158 84.9C48.3658 84.73 48.7258 84.41 49.1058 83.95C48.7958 83.62 48.3458 83.39 48.0358 83.05C47.7258 82.71 47.4758 82.33 47.1558 82C46.8358 81.67 46.4758 81.41 46.1258 81.11C45.6558 80.72 45.4258 80.14 45.0458 79.76C44.6258 79.33 44.3258 78.87 44.0258 78.42C43.6958 77.93 43.2158 77.56 43.0158 77.04C42.8158 76.52 42.9258 75.92 42.8558 75.34C42.7958 74.8 42.5658 74.25 42.6058 73.65C42.6458 73.12 42.8958 72.59 43.0258 71.99C43.1358 71.47 43.1358 70.8 43.3058 70.22C43.7958 70.5 44.2958 70.94 44.7858 71.22C45.2758 71.5 45.8258 71.68 46.3158 71.95C46.8058 72.22 47.2558 72.58 47.7558 72.86C48.2558 73.14 48.7758 73.35 49.2758 73.63C49.7758 73.91 50.2658 74.17 50.7558 74.45C51.2458 74.73 51.8258 75.12 52.3258 75.4C52.4758 74.71 52.4658 74.05 52.5258 73.63C52.6358 72.86 52.6958 72.4 52.3558 72C52.0958 71.7 51.6558 71.39 51.0258 70.96C50.5958 70.66 50.1558 70.37 49.7158 70.08C49.2758 69.79 48.7058 69.7 48.2658 69.41C47.8258 69.12 47.5158 68.63 47.0758 68.35C46.6358 68.07 46.0958 67.92 45.6658 67.63C45.2358 67.34 44.9058 66.88 44.4758 66.58C44.0458 66.28 43.5758 66.04 43.1558 65.72C42.7258 65.41 42.4558 65.03 42.1758 64.67C41.8558 64.26 41.6658 63.87 41.5358 63.43C41.4058 62.96 41.1958 62.5 41.2958 62.01C41.3858 61.56 41.5458 61.07 41.8258 60.63C42.0758 60.25 42.4558 59.91 42.8458 59.56C43.2158 59.23 43.6658 58.99 44.0858 58.7C44.5058 58.41 44.9458 58.18 45.3558 57.89C45.7658 57.6 46.1658 57.28 46.5258 56.94C46.9158 56.57 47.1858 56.1 47.5758 55.84C48.0258 55.54 48.4758 55.26 48.9258 55.11C49.4158 54.94 49.9558 55.17 50.4458 55.17C50.9358 55.17 51.4858 54.92 51.9758 55.09C52.4158 55.25 52.8158 55.62 53.2658 55.91C53.6558 56.17 54.0658 56.49 54.4558 56.85C54.5358 57.33 54.5058 57.83 54.5758 58.32C54.6458 58.81 54.7458 59.28 54.8258 59.76C54.9058 60.24 54.8658 60.74 54.9458 61.22C55.0258 61.7 55.3458 62.14 55.4458 62.61C55.5458 63.08 55.5558 63.58 55.6758 64.05C55.8058 64.55 55.8358 65.07 55.8958 65.6C55.9558 66.13 56.1658 66.62 56.2358 67.14C56.3058 67.66 56.4758 68.14 56.6158 68.65C56.7558 69.16 56.7258 69.72 57.0058 70.18C57.2558 70.61 57.6558 70.94 58.0658 71.32C58.5258 71.01 58.9658 70.78 59.2758 70.45C59.6458 70.06 59.9058 69.61 60.1158 69.18C60.3458 68.72 60.5458 68.24 60.6258 67.75C60.7058 67.26 60.6258 66.74 60.6258 66.23C60.6258 65.72 60.6858 65.22 60.6458 64.72C60.6058 64.22 60.5358 63.72 60.4958 63.22C60.4558 62.72 60.2558 62.22 60.2658 61.72C60.2758 61.22 60.4658 60.81 60.5858 60.32C61.0858 60.47 61.4958 60.62 61.9558 60.8C62.4458 60.99 63.0058 60.99 63.4458 61.22C63.9158 61.46 64.2158 61.95 64.6158 62.24C65.0158 62.53 65.5058 62.77 65.8458 63.14C66.1858 63.51 66.4858 63.93 66.7358 64.38C66.9758 64.81 66.9858 65.33 67.1358 65.85C67.2758 66.31 67.4658 66.77 67.5258 67.31C67.5858 67.84 67.8958 68.34 68.0558 68.87C68.2158 69.4 68.3558 69.93 68.6358 70.38C68.8458 70.72 69.0858 71.15 69.4658 71.39C69.8458 71.63 70.3258 71.76 70.7158 71.84C71.0058 71.9 71.9358 70.68 72.0758 69.99C72.1758 69.48 71.8858 68.92 71.8658 68.39C71.8458 67.86 71.9658 67.32 71.9658 66.81C72.4958 66.85 73.0458 66.77 73.5658 66.81C74.0858 66.85 74.6058 67.11 75.1258 67.15C75.6458 67.19 76.1758 67.28 76.6958 67.31C77.2158 67.34 77.7658 67.08 78.2958 67.12C78.8258 67.16 79.3258 67.46 79.8558 67.5C80.3858 67.54 80.9958 67.52 81.5258 67.56V67.59ZM38.6558 56.39C38.1758 56.14 37.3958 56 36.7058 55.59C36.2058 55.3 35.7658 54.96 35.3458 54.69C34.8558 54.37 34.4258 54.03 34.0258 53.73C33.5558 53.38 33.1658 53.01 32.8058 52.66C32.3958 52.25 32.0458 51.85 31.7658 51.42C31.4658 50.96 31.2158 50.49 31.0558 49.96C30.9058 49.47 30.7658 48.95 30.7158 48.37C30.6758 47.87 30.7958 47.33 30.8258 46.74C30.8558 46.24 30.7658 45.69 30.8258 45.11C30.8858 44.6 31.1658 44.1 31.2658 43.52C31.3358 43.08 31.3958 42.64 31.6458 42.23C31.8958 41.82 32.2258 41.5 32.5058 41.15C32.8458 40.73 33.1158 40.23 33.5058 39.85C33.8958 39.47 34.3958 39.2 34.8258 38.88C35.2158 38.6 35.4458 38.08 35.7858 37.66C36.1258 37.24 36.5858 36.96 36.9358 36.61C37.3258 36.22 37.6758 35.7 38.1658 35.61C38.5958 35.53 39.0158 35.94 39.5858 36.27C40.0758 36.55 40.7158 36.6 41.1958 36.91C41.6758 37.22 41.9958 37.75 42.4458 38.1C42.8958 38.45 43.4058 38.71 43.8058 39.11C44.2058 39.51 44.6558 39.88 44.9858 40.35C45.3158 40.82 45.3558 41.42 45.5858 41.96C45.8058 42.46 46.2058 42.92 46.3258 43.5C46.3758 43.76 46.0358 44.11 46.0958 44.36C46.2258 44.9 46.4158 45.4 46.4758 45.91C46.5458 46.47 46.4858 46.99 46.4758 47.5C46.4558 48.05 46.6058 48.6 46.4958 49.11C46.3758 49.64 46.0358 50.08 45.8158 50.56C45.5958 51.04 45.2958 51.45 44.9858 51.89C44.6758 52.33 44.3458 52.68 43.9558 53.07C43.5858 53.43 43.2158 53.78 42.7758 54.11C42.3658 54.42 42.0358 54.88 41.5558 55.16C41.1158 55.42 40.5658 55.54 40.0758 55.78C39.6058 56.01 39.1658 56.2 38.6658 56.41L38.6558 56.39Z" fill="#FF6774"/>
</svg>
