<svg width="45" height="34" viewBox="0 0 45 34" fill="none" xmlns="http://www.w3.org/2000/svg">
<path d="M41.9134 4.52057C34.6608 -1.13763 24.5229 1.56502 24.5229 1.56502C24.5229 1.56502 25.6048 5.73162 23.2896 8.68951C22.8391 9.27306 22.335 9.77313 21.825 10.2181L14.3945 3.73134L15.5244 7.51361C15.5898 7.70735 15.5106 7.90541 15.3437 8.0125C15.1767 8.1196 14.9636 8.10898 14.8148 7.96879L11.8483 5.36456L14.6455 14.8232C14.0284 15.1012 13.3637 15.3508 12.6454 15.5169C8.97068 16.4011 5.65565 13.6669 5.65565 13.6669C5.65565 13.6669 -1.0284 21.7543 1.08996 30.7057C1.71157 33.2822 2.0939 33.8323 2.0939 33.8323C2.0939 33.8323 3.2928 29.823 6.8672 28.0016C9.41461 26.6917 12.1206 27.6955 12.1206 27.6955C12.1206 27.6955 13.6124 24.2348 16.6367 22.7957C20.126 21.1173 25.4847 24.1902 25.8659 24.417C25.8321 23.9969 25.2737 17.8449 28.2409 15.3525C30.8234 13.2247 34.5776 13.2911 34.5776 13.2911C34.5776 13.2911 34.7936 10.413 37.0465 8.64389C40.1717 6.16803 44.3366 6.73688 44.3366 6.73688C44.3366 6.73688 44.0169 6.14659 41.9134 4.52057Z" fill="#007DD7"/>
</svg>
