<svg width="72" height="84" viewBox="0 0 72 84" fill="none" xmlns="http://www.w3.org/2000/svg">
<path d="M36.4487 18.5875C36.4487 18.5875 25.5716 10.614 12.1594 21.6986C12.1594 21.6986 -7.05997 34.1658 4.18593 62.6032C4.18593 62.6032 7.80396 80.6243 34.2825 83.3896C34.2825 83.3896 61.4754 83.3896 67.6284 65.0229C67.6284 65.0229 77.7912 42.2315 65.8079 26.2614C65.8079 26.2614 53.4789 10.9136 36.4487 18.5875Z" fill="#FF6774"/>
<path d="M32.7847 17.9656C32.7847 17.9656 33.5912 5.10659 36.4027 3.67781C36.4027 3.67781 38.5228 2.17989 40.1821 3.33213C40.2742 3.40127 40.3895 3.49345 40.4816 3.58563C42.1639 5.19877 39.8594 5.77488 39.8594 5.77488L38.9837 6.78886L38.1772 9.41597L37.555 13.4719L36.9327 19.3944" fill="#FF6774"/>
<path d="M40.5049 11.1669C40.5049 11.1669 47.9945 -5.19493 65.739 1.69548C65.739 1.69548 51.2668 24.0029 40.5049 11.1669Z" fill="#FF6774"/>
</svg>
