<svg width="84" height="82" viewBox="0 0 84 82" fill="none" xmlns="http://www.w3.org/2000/svg">
<path d="M54.8019 27.264C57.5063 18.7078 54.5253 13.0193 52.6917 10.5641L49.624 14.4387L49.2116 9.75776C46.1844 10.8724 40.9151 13.9206 38.342 22.0616C34.6159 33.8505 41.6742 40.1589 41.6742 40.1589C41.6742 40.1589 51.0806 39.0381 54.8019 27.264Z" fill="#007DD7"/>
<path d="M19.8348 47.9519C12.6042 53.2834 11.6902 59.6328 11.7285 62.7112L16.4884 61.3776L14.0725 65.4092C17.1702 66.2904 23.23 66.9336 30.1006 61.8634C40.0394 54.5173 38.0405 45.2574 38.0405 45.2574C38.0405 45.2574 29.7836 40.6253 19.8301 47.9667" fill="#007DD7"/>
<path d="M38.0095 41.3821C38.0095 41.3821 39.8563 32.0819 29.794 24.9055C22.4919 19.6781 16.1593 20.7755 13.2578 21.7504L16.0026 25.8637L11.4267 24.8088C11.5508 28.0285 12.8145 33.9897 19.7583 38.9571C29.8159 46.1483 38.0095 41.3821 38.0095 41.3821Z" fill="#007DD7"/>
<path d="M41.7079 46.4C41.7079 46.4 34.7503 52.829 38.6616 64.5527C41.5147 73.0713 47.2547 75.913 50.1955 76.8262L50.4036 71.8848L53.4787 75.4174C55.2715 72.7383 57.7471 67.1761 55.0532 59.083C51.1419 47.3593 41.7079 46.4 41.7079 46.4Z" fill="#007DD7"/>
<path d="M70.8738 42.8802L75.1882 41.0471C73.2009 38.5106 68.6663 34.4351 60.1289 34.5095C47.7653 34.6141 43.9362 43.2715 43.9362 43.2715C43.9362 43.2715 47.9022 51.8809 60.2658 51.7763C69.2411 51.7099 73.7287 47.1098 75.4995 44.6032L70.8738 42.8802Z" fill="#007DD7"/>
</svg>
