<svg width="58" height="58" viewBox="0 0 58 58" fill="none" xmlns="http://www.w3.org/2000/svg">
<circle cx="29" cy="29" r="29" fill="#007257"/>
<path d="M16.6392 22.4718L12.1248 21.207C11.4109 21.031 10.9364 20.3793 11.0069 19.6716C11.1026 18.7117 12.1287 18.111 13.0552 18.4725L17.3052 20.5142C17.762 20.6924 18.0336 21.1485 17.9632 21.619C17.8723 22.2265 17.2555 22.6238 16.6392 22.4718Z" fill="white"/>
<path d="M22.8619 17.8605L23.7664 13.013C23.9376 12.3215 24.6055 11.8536 25.34 11.9105C26.3362 11.9877 26.9748 12.9683 26.6147 13.8678L24.901 18.4725C24.7235 18.9159 24.2551 19.1851 23.7664 19.1246C23.1355 19.0464 22.7141 18.4575 22.8619 17.8605Z" fill="white"/>
<path d="M15.3969 13.0131C16.6163 15.2507 17.8182 17.4488 18.9093 19.5757C19.2602 20.2596 20.2535 20.3956 20.7706 19.8181C21.0374 19.5202 21.1041 19.1014 20.9424 18.74L17.9633 11.829C17.4482 10.6777 15.7348 10.7401 15.3111 11.9256C15.1829 12.2843 15.2138 12.6773 15.3969 13.0131Z" fill="white"/>
<path d="M41.5289 28.2594C39.4386 27.0065 38.5249 29.3276 38.5249 29.3276C36.2839 27.772 34.7241 30.4797 34.7241 30.4797C31.6044 29.5089 30.8937 32.0742 30.8937 32.0742L25.9149 24.6007C25.3011 23.7174 24.0781 23.4932 23.1614 24.1035C22.2456 24.7142 21.9809 25.9292 22.5593 26.8359L28.2467 35.3721C27.4806 34.625 27.0438 36.7207 27.0438 36.7207C26.071 38.6806 26.5911 39.8508 28.4362 42.0544C30.487 44.504 35.3211 45.6043 37.4534 45.4472L37.8448 45.409L46.132 39.4238L46.2715 39.4647C46.824 38.2887 46.5516 36.8648 46.5516 36.8648L43.4278 29.9462C42.8118 29.021 41.53 28.2577 41.53 28.2577L41.5289 28.2594Z" fill="white"/>
<path d="M22.5577 24.7242C22.707 24.4842 22.9096 24.2711 23.1614 24.1035C24.0772 23.4927 25.3011 23.7174 25.9149 24.6007L30.8937 32.0742C30.8937 32.0742 30.9673 31.8079 31.1717 31.4794C31.6016 30.7886 32.6102 29.8215 34.7241 30.4797C34.7241 30.4797 34.7329 30.4656 34.7489 30.4399C34.9544 30.1096 36.4466 27.8856 38.5249 29.3276C38.5249 29.3276 38.5913 29.1576 38.7297 28.9353C39.1039 28.334 40.002 27.3449 41.5289 28.2594C41.5289 28.2594 42.8107 29.0228 43.4267 29.9479L46.5505 36.8666C46.5505 36.8666 46.8229 38.2905 46.2704 39.4665L46.7727 40.0476L46.1316 38.5032L37.3839 45.4092L37.4523 45.449C35.3205 45.6052 30.4864 44.5049 28.4351 42.0562C26.59 39.8526 26.0699 38.6824 27.0427 36.7225C27.0427 36.7225 27.1924 36.006 27.4697 35.5605C27.6664 35.2444 27.9282 35.0645 28.2451 35.3747L22.5579 26.8362C22.1381 26.1782 22.1616 25.3586 22.5562 24.7245M21.672 24.173C21.0674 25.1445 21.06 26.3845 21.6494 27.3484C21.6623 27.3711 21.6757 27.393 21.6906 27.4145L26.6661 34.8835C26.6381 34.9226 26.6107 34.9646 26.5837 35.008C26.29 35.48 26.1203 36.0882 26.052 36.3738C25.4972 37.5397 25.3799 38.5651 25.6824 39.5913C25.9837 40.6154 26.6819 41.5843 27.6366 42.7252C29.7848 45.2907 34.3366 46.4439 36.8541 46.5031C38.1614 46.7642 47.0524 40.3448 47.4622 39.2473C47.872 38.1499 47.6053 36.8239 47.576 36.6717C47.561 36.5912 47.536 36.5129 47.5026 36.4381L44.3789 29.5195C44.3556 29.4682 44.3279 29.4178 44.2963 29.3699C43.5698 28.2788 42.2159 27.4535 42.0641 27.3639C40.8487 26.6358 39.8737 26.8068 39.2706 27.0789C38.7811 27.2989 38.4104 27.642 38.1411 27.972C37.6055 27.7922 37.0579 27.7561 36.521 27.8667C35.502 28.0767 34.749 28.7617 34.2958 29.3003C32.6186 28.9925 31.5365 29.5784 30.8925 30.1888L26.7854 24.0232C26.7714 24.0022 26.7565 23.9807 26.7406 23.9609C26.2849 23.3309 25.6123 22.9074 24.8391 22.7678C24.054 22.6257 23.2528 22.7917 22.5849 23.2373C22.2119 23.4831 21.9052 23.7984 21.672 24.173Z" fill="white"/>
</svg>
