<svg width="86" height="97" viewBox="0 0 86 97" fill="none" xmlns="http://www.w3.org/2000/svg">
<path d="M37.0662 40.8183C37.1086 39.166 37.1268 37.7081 37.1813 36.2442C37.254 34.27 37.3873 32.3019 37.4237 30.3277C37.4418 29.2039 37.3934 28.0741 37.2601 26.9564C36.9147 23.9192 37.1874 20.888 37.2358 17.8508C37.2843 15.2267 37.4661 12.6025 37.1934 9.97229C37.1086 9.09757 37.1934 8.19856 37.2964 7.31777C37.5085 5.53796 37.6054 3.7217 38.2901 2.03301C38.587 1.30407 39.0172 0.775608 39.9201 0.563003C42.5013 -0.0322909 45.1189 0.149939 47.7183 0.0284504C50.7842 -0.117336 53.832 0.338247 56.8858 0.46581C59.7761 0.587299 62.6663 0.605514 65.5626 0.666258C67.0895 0.69663 68.6225 0.696646 70.1555 0.739167C73.3184 0.830284 76.4874 0.927474 79.6503 1.06111C80.6197 1.10363 81.6195 1.09756 82.4557 1.78397C82.6374 1.94191 82.9646 1.92975 83.2312 1.98442C84.6006 2.25169 85.352 3.09604 85.5459 4.46886C86.1215 8.50836 86.0185 12.5721 85.9337 16.6359C85.8731 19.5699 85.7337 22.5039 85.6004 25.4317C85.4247 29.4226 85.2065 33.4074 85.0187 37.3983C84.9702 38.4553 84.9642 39.5183 84.9399 40.5753C84.8672 43.6854 84.8006 46.7894 84.7218 49.8995C84.6612 52.0803 84.7036 54.2731 84.4855 56.4417C84.2431 58.8654 84.4492 61.2769 84.4552 63.6885C84.4552 66.1426 84.4128 68.6027 84.4249 71.0568C84.431 72.4903 84.5582 73.9239 84.54 75.3514C84.5037 78.4919 84.4431 81.6324 84.3279 84.7729C84.2552 86.8807 84.1462 89.0006 83.8796 91.0902C83.7402 92.2201 83.2918 93.3256 82.8495 94.3887C82.692 94.7653 82.1891 95.1054 81.771 95.2391C79.9593 95.8101 78.1476 96.3932 76.1965 96.2778C75.2876 96.2232 74.3666 96.4357 73.4456 96.4357C68.6467 96.454 63.8418 96.4843 59.0429 96.4175C57.5523 96.3932 56.0678 96.296 54.5712 96.4175C54.1046 96.46 53.632 96.4175 53.1594 96.3811C52.7171 96.3446 52.2687 96.3082 51.8325 96.3386C47.6577 96.5998 43.4647 96.4175 39.296 96.8913C38.2538 97.0067 37.1934 96.9885 36.1391 96.9703C35.6604 96.9581 35.1818 96.9521 34.7091 96.9582C34.594 96.9582 34.4789 96.9582 34.3638 96.9582C34.1699 96.9582 33.982 96.9521 33.7881 96.9582C30.5404 97.1343 27.3411 96.7273 24.1358 96.2414C20.367 95.6643 16.5618 95.4638 12.7566 95.2755C10.5935 95.1723 8.41825 94.8625 6.29147 94.4251C5.04933 94.17 3.81325 93.6233 2.72259 92.9672C1.32897 92.129 0.910886 90.5982 0.80788 89.0857C0.638222 86.6013 0.638233 84.1107 0.535227 81.6263C0.407983 78.4554 0.19591 75.2785 0.11714 72.1077C0.0262521 68.3901 0.0201973 64.6665 0.00807894 60.9428C-0.0100987 55.9254 0.00807894 50.9079 0.00807894 45.8843C0.00807894 45.7811 -0.00403947 45.6778 0.00807894 45.5745C0.0626118 45.0035 -0.0949423 44.2199 0.220136 43.9101C0.819998 43.3088 1.54711 42.7742 2.44387 42.5373C4.40705 42.021 6.41264 41.9117 8.41824 41.8266C11.0358 41.7112 13.6534 41.7537 16.271 41.6748C18.1675 41.614 20.0701 41.4561 21.9666 41.3528C22.6453 41.3164 23.3239 41.2921 24.0086 41.286C27.0018 41.2374 29.9951 41.2495 32.9762 40.9154C33.5215 40.8547 34.0729 40.8729 34.6243 40.8911C34.9273 40.9033 35.2242 40.9094 35.5271 40.9094C35.9937 40.9094 36.4602 40.8668 37.0722 40.8365" fill="#F8F6F1"/>
</svg>
