<svg width="91" height="88" viewBox="0 0 91 88" fill="none" xmlns="http://www.w3.org/2000/svg">
<path d="M0.202016 73.1986C0.202016 73.1024 0.160428 73.0122 0.118832 72.9219C0.0772444 72.8317 0.0356566 72.7415 0.0356566 72.6453C0.0356566 72.4528 0.160428 72.2664 0.166371 72.0739C0.166371 71.8875 0.190137 71.695 0.19608 71.5025C0.19608 71.4063 0.172307 71.3101 0.148541 71.2139C0.124776 71.1176 0.10101 71.0214 0.10101 70.9312C0.10101 70.7387 0.184186 70.5523 0.190129 70.3598C0.190129 70.2636 0.166364 70.1674 0.136662 70.0711C0.106953 69.9749 0.0831879 69.8787 0.0831879 69.7824C0.0831879 69.596 0.243611 69.4095 0.249547 69.2171C0.249547 69.0246 0.297086 68.8382 0.297086 68.6457C0.297086 68.5495 0.297078 68.4533 0.285199 68.357C0.279256 68.2608 0.27332 68.1646 0.27332 68.0744C0.27332 67.9781 0.261433 67.8819 0.249547 67.7857C0.237668 67.6894 0.225789 67.5932 0.225789 67.497C0.225789 67.4007 0.213902 67.3045 0.19608 67.2083C0.17825 67.1181 0.166371 67.0218 0.166371 66.9256C0.166371 66.7331 0.237668 66.5467 0.243611 66.3542C0.243611 66.1618 0.25549 65.9753 0.261434 65.7829C0.261434 65.6866 0.261426 65.5904 0.25549 65.4942C0.25549 65.398 0.249547 65.3017 0.249547 65.2115C0.249547 65.019 0.303021 64.8266 0.303021 64.6401C0.303021 64.4477 0.344609 64.2552 0.350553 64.0688C0.350553 63.8763 0.445623 63.6899 0.445623 63.4974C0.445623 63.3952 0.439679 63.2929 0.427793 63.1907C0.415914 63.0944 0.40997 62.9922 0.40997 62.896C0.40997 62.7937 0.368375 62.6915 0.320844 62.5952C0.279256 62.493 0.231725 62.3908 0.231725 62.2945C0.231725 62.09 0.350553 61.8916 0.350553 61.6931C0.350553 61.5908 0.326787 61.4946 0.297086 61.3924C0.273313 61.2901 0.243612 61.1939 0.243612 61.0916C0.243612 60.8932 0.398084 60.6947 0.404027 60.4902C0.404027 60.394 0.386205 60.2917 0.374326 60.1895C0.356504 60.0933 0.338674 59.991 0.344617 59.8888C0.344617 59.6903 0.392148 59.4918 0.392148 59.2873C0.392148 59.0828 0.451566 58.8904 0.457502 58.6919C0.457502 58.5897 0.445623 58.4874 0.427793 58.3912C0.415914 58.289 0.398084 58.1867 0.398084 58.0905C0.398084 57.892 0.415914 57.6875 0.415914 57.489C0.415914 57.2906 0.451558 57.0861 0.451558 56.8876C0.451558 56.7914 0.451566 56.6891 0.43968 56.5929C0.43968 56.4907 0.427793 56.3884 0.427793 56.2862C0.427793 56.1899 0.409971 56.0877 0.386205 55.9915C0.368375 55.8892 0.344617 55.787 0.344617 55.6847C0.344617 55.4923 0.36244 55.2938 0.36244 55.1013C0.36244 54.9029 0.451559 54.7104 0.451559 54.5119C0.451559 54.4157 0.433736 54.3195 0.415914 54.2172C0.398084 54.121 0.374319 54.0248 0.380262 53.9225C0.380262 53.7301 0.398084 53.5316 0.404028 53.3391C0.404028 53.2369 0.392141 53.1407 0.386205 53.0444C0.380262 52.9482 0.36244 52.8459 0.368375 52.7497C0.368375 52.5512 0.469381 52.3588 0.469381 52.1663C0.469381 52.0641 0.45751 51.9678 0.43968 51.8716C0.427801 51.7694 0.409971 51.6731 0.409971 51.5769C0.409971 51.3784 0.499097 51.186 0.505041 50.9875C0.505041 50.8913 0.463445 50.795 0.421858 50.6928C0.38027 50.5966 0.338667 50.5003 0.338667 50.3981C0.338667 50.2056 0.546621 50.0132 0.546621 49.8147C0.546621 49.6222 0.558508 49.4237 0.564451 49.2313C0.564451 49.129 0.522863 49.0328 0.475332 48.9306C0.427801 48.8343 0.386205 48.7381 0.386205 48.6359C0.386205 48.4434 0.415914 48.2449 0.415914 48.0525C0.415914 47.9562 0.404035 47.854 0.392149 47.7578C0.38027 47.6615 0.368376 47.5593 0.368376 47.4631C0.368376 47.2646 0.469389 47.0721 0.475332 46.8797C0.475332 46.7774 0.475324 46.6812 0.463446 46.585C0.451559 46.4887 0.451567 46.3865 0.457502 46.2903C0.457502 46.194 0.457502 46.0978 0.457502 46.0016C0.457502 45.8993 0.457502 45.8031 0.457502 45.7008C0.457502 45.5084 0.623861 45.3159 0.629805 45.1175C0.629805 45.0212 0.600103 44.925 0.576338 44.8228C0.546629 44.7265 0.51692 44.6243 0.522863 44.5281C0.522863 44.3356 0.522863 44.1371 0.528799 43.9386C0.528799 43.7462 0.534742 43.5477 0.540686 43.3552C0.540686 43.259 0.540686 43.1628 0.540686 43.0605C0.540686 42.9643 0.534742 42.8621 0.540686 42.7658C0.546629 42.5734 0.635748 42.3749 0.647627 42.1824C0.65357 41.984 0.701109 41.7915 0.707045 41.5991C0.707045 41.5028 0.695166 41.4066 0.677336 41.3104C0.659514 41.2081 0.641691 41.1119 0.647627 41.0096C0.659514 40.8172 0.796171 40.6307 0.80805 40.4383C0.813994 40.342 0.784285 40.2458 0.748633 40.1436C0.712988 40.0413 0.683279 39.9451 0.689223 39.8489C0.695166 39.7526 0.689223 39.6564 0.689223 39.5602C0.689223 39.4579 0.683279 39.3617 0.689223 39.2595C0.707052 39.067 0.909056 38.8926 0.932821 38.7001C0.950644 38.5077 0.96253 38.3152 0.986296 38.1227C1.01007 37.9303 1.06354 37.7378 1.0873 37.5454C1.09919 37.4491 1.0576 37.3469 1.01601 37.2446C0.974417 37.1424 0.932822 37.0401 0.944708 36.9439C0.968474 36.7515 1.18831 36.5831 1.21207 36.3906C1.22395 36.2884 1.20019 36.1921 1.17048 36.0899C1.14672 35.9876 1.12295 35.8914 1.12889 35.7952C1.14671 35.6027 1.24772 35.4163 1.26555 35.2238C1.28338 35.0313 1.33684 34.8389 1.35467 34.6464C1.36655 34.5442 1.32496 34.4359 1.28931 34.3277C1.25366 34.2194 1.21802 34.1172 1.22396 34.0149C1.23584 33.8044 1.31308 33.6059 1.32496 33.4015C1.3309 33.2932 1.32496 33.191 1.31902 33.0827C1.31308 32.9804 1.30714 32.8782 1.31309 32.776C1.32497 32.5715 1.49132 32.373 1.50321 32.1685C1.50321 32.0602 1.50321 31.952 1.50321 31.8497C1.50321 31.7475 1.50321 31.6453 1.50321 31.543C1.50321 31.4408 1.48539 31.3385 1.46162 31.2303C1.43786 31.128 1.41408 31.0258 1.42003 30.9175C1.42597 30.713 1.56856 30.5145 1.5745 30.304C1.5745 30.2018 1.53291 30.0996 1.48538 29.9913C1.44379 29.889 1.39626 29.7808 1.40221 29.6786C1.40221 29.4801 1.56262 29.2816 1.56856 29.0831C1.56856 28.9869 1.55073 28.8846 1.52697 28.7824C1.5032 28.6802 1.48538 28.5839 1.48538 28.4817C1.48538 28.3854 1.47945 28.2832 1.46756 28.181C1.45568 28.0847 1.44379 27.9825 1.44974 27.8863C1.44974 27.6818 1.46756 27.4833 1.46756 27.2848C1.46756 27.0863 1.65175 26.8879 1.65175 26.6894C1.65175 26.4909 1.65175 26.2864 1.65175 26.088C1.65175 25.9917 1.62204 25.8895 1.58639 25.7872C1.55074 25.691 1.52103 25.5888 1.52103 25.4865C1.52103 25.2881 1.69334 25.0896 1.69334 24.8911C1.69334 24.7949 1.68739 24.6926 1.67551 24.5964C1.66363 24.4941 1.65174 24.3919 1.65768 24.2897C1.65768 24.0912 1.65768 23.8927 1.66957 23.6942C1.66957 23.592 1.65175 23.4958 1.63392 23.3935C1.61015 23.2913 1.59233 23.189 1.59827 23.0928C1.59827 22.9966 1.59827 22.9003 1.59827 22.8101C1.59827 22.7079 1.59827 22.6056 1.59827 22.5034C1.61016 22.3049 1.77651 22.1185 1.7884 21.926C1.79434 21.8298 1.77652 21.7275 1.75275 21.6313C1.72898 21.5291 1.71116 21.4268 1.7171 21.3306C1.72899 21.1321 1.81811 20.9457 1.83593 20.7472C1.84187 20.651 1.84188 20.5547 1.84188 20.4585C1.84188 20.3562 1.84187 20.26 1.84782 20.1638C1.86564 19.9653 1.91317 19.7729 1.931 19.5804C1.94882 19.3819 1.94288 19.1834 1.95476 18.991C1.9607 18.8948 1.94288 18.7925 1.91911 18.6903C1.89535 18.594 1.87752 18.4918 1.88346 18.3956C1.89535 18.2031 1.96664 18.0107 1.97853 17.8182C1.99041 17.6197 2.06766 17.4273 2.07359 17.2348C2.08548 17.0423 2.16866 16.8499 2.1746 16.6574C2.18648 16.465 2.19836 16.2725 2.21025 16.08C2.21025 15.9838 2.18648 15.8876 2.15678 15.7853C2.12707 15.6891 2.09736 15.5929 2.09736 15.4966C2.1033 15.3042 2.10924 15.1117 2.11518 14.9193C2.12112 14.7268 2.1746 14.5343 2.18054 14.3419C2.18648 14.1494 2.23995 13.9569 2.24589 13.7645C2.24589 13.6683 2.24589 13.572 2.24589 13.4758C2.24589 13.3796 2.24589 13.2833 2.24589 13.1871C2.25184 12.9946 2.3053 12.8022 2.31719 12.6097C2.31719 12.5135 2.31719 12.4173 2.31126 12.321C2.31126 12.2248 2.29937 12.1286 2.30531 12.0263C2.30531 11.9301 2.2756 11.8339 2.23996 11.7316C2.20431 11.6354 2.1746 11.5332 2.1746 11.4369C2.18648 11.2445 2.26372 11.052 2.2756 10.8595C2.28749 10.6671 2.36473 10.4746 2.37067 10.2822C2.38255 10.0897 2.42415 9.89724 2.43603 9.70478C2.44197 9.60855 2.42414 9.51233 2.40632 9.4161C2.3885 9.31987 2.36472 9.21763 2.37661 9.1214C2.38849 8.92894 2.51326 8.74849 2.53108 8.56205C2.54891 8.36959 2.59645 8.18916 2.62022 7.99669C2.63209 7.90046 2.60833 7.80425 2.59051 7.70802C2.56673 7.60577 2.54891 7.50352 2.56079 7.4133C2.5905 7.22685 2.66775 7.04643 2.70339 6.85397C2.72122 6.76375 2.71527 6.66753 2.71527 6.57731C2.71527 6.47507 2.71528 6.37282 2.7331 6.27659C2.76875 6.09015 2.81628 5.9037 2.85787 5.71726C2.89946 5.53081 3.0183 5.3624 3.06583 5.18197C3.11336 4.99552 3.23219 4.83313 3.28566 4.6527C3.31537 4.56249 3.30943 4.46627 3.30348 4.36402C3.29754 4.26178 3.2916 4.15352 3.3213 4.0633C3.38667 3.88287 3.51144 3.72649 3.5768 3.55208C3.64809 3.37766 3.77881 3.22729 3.85605 3.05287C3.93329 2.87846 3.90358 2.65594 3.98676 2.48152C4.06994 2.31312 4.30165 2.21688 4.39078 2.04848C4.4799 1.88008 4.56902 1.71769 4.66409 1.5553C4.75916 1.39291 4.84827 1.2185 4.99087 1.07415C5.13346 0.923795 5.24635 0.74335 5.41866 0.665163C5.5969 0.580962 5.79297 0.550897 5.96527 0.484739C6.14946 0.412567 6.30394 0.268214 6.48219 0.214085C6.66637 0.159955 6.85651 0.0998239 7.04069 0.0577232C7.23082 0.0156225 7.43282 0.027641 7.617 0.00959791C7.80714 -0.00844523 7.99727 0.129899 8.18739 0.135913C8.37753 0.141928 8.58547 -0.0264759 8.76966 0.00359606C8.95384 0.033668 9.12615 0.159955 9.31033 0.214085C9.48858 0.268214 9.63712 0.406552 9.81537 0.484739C9.98767 0.562926 10.1719 0.605024 10.3382 0.707268C10.4986 0.803499 10.7363 0.791468 10.8908 0.911755C11.0393 1.02001 11.1344 1.21849 11.2889 1.34479C11.4374 1.47109 11.5919 1.58538 11.7404 1.71168C11.8889 1.83798 11.984 2.02441 12.1266 2.15072C12.2692 2.27702 12.4712 2.34318 12.6198 2.46948C12.7683 2.59578 12.9465 2.68 13.0951 2.8063C13.2436 2.9326 13.2793 3.1852 13.4278 3.31151C13.5763 3.43781 13.8318 3.43179 13.9804 3.55208C14.1289 3.67838 14.2358 3.84677 14.3844 3.97307C14.5329 4.09938 14.5983 4.31589 14.7468 4.44219C14.8953 4.5685 15.0974 4.62865 15.24 4.75495C15.3825 4.88126 15.5727 4.95944 15.7153 5.08574C15.8638 5.21204 16.0539 5.2782 16.2025 5.4045C16.351 5.5308 16.4045 5.76536 16.5471 5.89166C16.6956 6.01796 16.8323 6.15029 16.9808 6.27659C17.1293 6.40289 17.373 6.4089 17.5215 6.53521C17.67 6.66151 17.7235 6.89607 17.8661 7.02237C18.0146 7.14867 18.1453 7.29302 18.2879 7.41932C18.4305 7.54562 18.6147 7.62982 18.7633 7.75612C18.9118 7.88243 19.0306 8.0388 19.1732 8.1651C19.3218 8.2914 19.5059 8.3696 19.6485 8.4959C19.7911 8.6222 19.9575 8.73046 20.106 8.85677C20.2486 8.98307 20.4031 9.10935 20.5457 9.23566C20.6883 9.36196 20.7893 9.52435 20.9319 9.65065C21.0686 9.77695 21.2112 9.89724 21.3478 10.0296C21.4845 10.1559 21.5676 10.3483 21.7043 10.4746C21.841 10.6009 22.0251 10.6791 22.1618 10.8054C22.2985 10.9317 22.5005 10.9919 22.6371 11.1182C22.7738 11.2505 22.7857 11.5091 22.9164 11.6414C23.053 11.7737 23.1837 11.906 23.3145 12.0384C23.4511 12.1707 23.5699 12.315 23.7066 12.4413C23.8432 12.5736 24.1284 12.5436 24.2651 12.6699C24.4017 12.8022 24.4493 13.0187 24.5859 13.151C24.7226 13.2833 24.8533 13.4157 24.984 13.548C25.1207 13.6743 25.3405 13.7164 25.4772 13.8427C25.6198 13.975 25.7208 14.1434 25.8574 14.2757C26 14.408 26.1307 14.5464 26.2733 14.6787C26.4159 14.811 26.5288 14.9674 26.6714 15.0997C26.814 15.232 26.9744 15.3403 27.1111 15.4726C27.2537 15.6049 27.42 15.7071 27.5567 15.8395C27.6933 15.9718 27.8419 16.0981 27.9785 16.2304C28.1152 16.3627 28.1271 16.6394 28.2637 16.7717C28.4004 16.904 28.543 17.0303 28.6856 17.1626C28.8222 17.2949 28.9826 17.4092 29.1252 17.5415C29.2619 17.6739 29.4877 17.7159 29.6303 17.8483C29.7729 17.9806 29.9452 18.0768 30.0818 18.2091C30.2185 18.3414 30.3254 18.5159 30.4621 18.6482C30.5987 18.7805 30.6344 19.0211 30.771 19.1594C30.9077 19.2917 31.1572 19.3097 31.2939 19.4421C31.4305 19.5804 31.5197 19.7668 31.6563 19.8992C31.793 20.0315 32.0069 20.0916 32.1435 20.2239C32.2802 20.3563 32.3752 20.5367 32.5119 20.669C32.6485 20.8073 32.7139 21.0178 32.8506 21.1502C32.9872 21.2825 33.1179 21.4268 33.2546 21.5651C33.3912 21.6975 33.6408 21.7155 33.7774 21.8478C33.9141 21.9861 33.9438 22.2328 34.0804 22.3711C34.2171 22.5034 34.3656 22.6297 34.5023 22.762C34.6389 22.9003 34.8231 22.9845 34.9598 23.1169C35.0964 23.2552 35.1796 23.4416 35.3163 23.58C35.4529 23.7183 35.6965 23.7424 35.8332 23.8747C35.9698 24.013 36.0887 24.1634 36.2253 24.3017C36.362 24.434 36.3857 24.6806 36.5224 24.8189C36.6591 24.9573 36.7779 25.1076 36.9145 25.246C37.0512 25.3783 37.2473 25.4504 37.3839 25.5888C37.5206 25.7271 37.6572 25.8594 37.7879 25.9978C37.9246 26.1361 38.1088 26.2203 38.2454 26.3526C38.3821 26.4909 38.5484 26.5932 38.6851 26.7315C38.8218 26.8698 38.9525 27.0082 39.0891 27.1465C39.2258 27.2788 39.3208 27.4592 39.4575 27.5976C39.5942 27.7299 39.7368 27.8622 39.8734 27.9945C40.0101 28.1328 40.0992 28.3133 40.2358 28.4516C40.3725 28.5899 40.5864 28.6441 40.723 28.7824C40.8597 28.9207 40.8716 29.1793 41.0082 29.3117C41.1449 29.45 41.2756 29.5943 41.4122 29.7267C41.5489 29.865 41.8163 29.865 41.9529 30.0033C42.0896 30.1356 42.2084 30.292 42.3391 30.4303C42.4758 30.5687 42.5055 30.8093 42.6421 30.9416C42.7788 31.0799 42.9511 31.1761 43.0878 31.3145C43.2244 31.4528 43.4145 31.531 43.5512 31.6693C43.6878 31.8016 43.7889 31.97 43.9255 32.1083C44.0622 32.2467 44.2226 32.3549 44.3592 32.4933C44.4959 32.6316 44.5553 32.8421 44.692 32.9744C44.8227 33.1128 44.9593 33.2451 45.096 33.3834C45.2267 33.5157 45.3574 33.6601 45.4881 33.7984C45.6188 33.9307 45.7971 34.0269 45.9278 34.1653C46.0585 34.3036 46.2486 34.3818 46.3793 34.5201C46.5101 34.6585 46.5992 34.8389 46.7358 34.9772C46.8665 35.1095 46.9973 35.2539 47.128 35.3922C47.2587 35.5305 47.431 35.6268 47.5676 35.7651C47.6984 35.8974 47.7875 36.0839 47.9182 36.2222C48.0489 36.3605 48.138 36.541 48.2687 36.6793C48.3995 36.8176 48.5183 36.968 48.649 37.1063C48.7797 37.2446 48.8629 37.4311 48.9936 37.5694C49.1243 37.7077 49.2907 37.816 49.4214 37.9543C49.5521 38.0927 49.7482 38.1648 49.8789 38.3092C50.0096 38.4475 50.0571 38.664 50.1819 38.8024C50.3126 38.9467 50.4374 39.0911 50.5622 39.2294C50.6929 39.3677 50.9186 39.4218 51.0434 39.5602C51.1741 39.6985 51.2514 39.891 51.3761 40.0293C51.5069 40.1736 51.6554 40.2939 51.7861 40.4323C51.9168 40.5706 52.0832 40.6728 52.2139 40.8172C52.3446 40.9555 52.4694 41.0938 52.6001 41.2382C52.7249 41.3765 52.8912 41.4848 53.0219 41.6291C53.1467 41.7675 53.2893 41.8998 53.4141 42.0441C53.5389 42.1824 53.5686 42.417 53.6993 42.5613C53.824 42.6997 53.9548 42.844 54.0795 42.9884C54.2102 43.1267 54.3647 43.247 54.4895 43.3853C54.6143 43.5297 54.8044 43.6139 54.9351 43.7582C55.0658 43.9026 55.1787 44.0529 55.3035 44.1973C55.4282 44.3416 55.4282 44.5942 55.553 44.7385C55.6778 44.8829 55.8144 45.0152 55.9392 45.1596C56.064 45.3039 56.165 45.4723 56.2838 45.6167C56.4027 45.761 56.5155 45.9234 56.6403 46.0677C56.7651 46.2121 57.0503 46.2181 57.175 46.3624C57.2998 46.5128 57.2761 46.7834 57.4008 46.9278C57.5256 47.0721 57.692 47.1864 57.8108 47.3308C57.9356 47.4751 58.0544 47.6255 58.1732 47.7698C58.298 47.9202 58.399 48.0826 58.5178 48.2329C58.6426 48.3773 58.7674 48.5216 58.8921 48.666C59.0169 48.8103 59.1536 48.9426 59.2783 49.087C59.4031 49.2373 59.4744 49.4298 59.5932 49.5741C59.718 49.7185 59.9438 49.7726 60.0686 49.9169C60.1933 50.0613 60.2409 50.2718 60.3716 50.4161C60.5023 50.5605 60.6211 50.7048 60.7459 50.8492C60.8707 50.9935 60.9895 51.1439 61.1143 51.2882C61.245 51.4326 61.3579 51.595 61.4886 51.7393C61.6193 51.8776 61.857 51.9257 61.9877 52.0701C62.1184 52.2084 62.2847 52.3167 62.4214 52.461C62.558 52.5994 62.6175 52.8099 62.7541 52.9482C62.8908 53.0925 62.9442 53.309 63.0809 53.4474C63.2175 53.5917 63.3483 53.7301 63.4849 53.8684C63.6216 54.0127 63.9127 53.9947 64.0494 54.133C64.186 54.2714 64.1979 54.53 64.3346 54.6743C64.4712 54.8126 64.7326 54.8187 64.8693 54.957C65.0059 55.0953 64.9822 55.396 65.1188 55.5344C65.2555 55.6727 65.4337 55.7689 65.5704 55.9073C65.707 56.0516 65.808 56.22 65.9447 56.3644C66.0814 56.5027 66.2537 56.5989 66.3903 56.7433C66.527 56.8816 66.6339 57.044 66.7706 57.1883C66.9072 57.3267 67.0736 57.4349 67.2102 57.5793C67.3469 57.7236 67.436 57.904 67.5727 58.0484C67.7093 58.1867 67.8757 58.301 68.0064 58.4453C68.1431 58.5837 68.25 58.7521 68.3867 58.8964C68.5233 59.0347 68.7134 59.1189 68.8501 59.2633C68.9867 59.4076 69.1709 59.4979 69.3076 59.6422C69.4442 59.7865 69.569 59.9309 69.7057 60.0752C69.8364 60.2196 69.9136 60.4181 70.0503 60.5624C70.1869 60.7067 70.3592 60.809 70.4899 60.9533C70.6207 61.0977 70.7335 61.2601 70.8702 61.4044C71.0069 61.5488 71.1495 61.6811 71.2861 61.8254C71.4228 61.9698 71.5 62.1622 71.6367 62.3066C71.7733 62.4449 71.8921 62.6073 72.0229 62.7456C72.1595 62.89 72.2724 63.0524 72.409 63.1907C72.5457 63.335 72.718 63.4373 72.8547 63.5816C72.9913 63.726 73.0686 63.9184 73.2052 64.0628C73.3419 64.2071 73.5558 64.2673 73.6924 64.4116C73.8291 64.5559 74.0073 64.6522 74.144 64.7965C74.2806 64.9348 74.3519 65.1393 74.4826 65.2837C74.6193 65.428 74.7559 65.5664 74.8867 65.7047C75.0233 65.849 75.1837 65.9693 75.3144 66.1077C75.4511 66.252 75.4927 66.4805 75.6293 66.6249C75.766 66.7632 75.8848 66.9196 76.0215 67.0639C76.1581 67.2023 76.3542 67.2804 76.4909 67.4248C76.6216 67.5631 76.7523 67.7075 76.883 67.8458C77.0137 67.9841 77.1622 68.1044 77.293 68.2428C77.4237 68.3871 77.59 68.4893 77.7207 68.6277C77.8515 68.772 78.0119 68.8803 78.1367 69.0246C78.2614 69.169 78.2614 69.4336 78.3862 69.5779C78.511 69.7163 78.6476 69.8486 78.7783 69.9929C78.9031 70.1373 79.1467 70.1734 79.2774 70.3177C79.4081 70.4621 79.3665 70.7508 79.4913 70.8951C79.6161 71.0395 79.7349 71.1898 79.8597 71.3341C79.9845 71.4785 80.2221 71.5266 80.3409 71.671C80.4657 71.8213 80.5014 72.0378 80.6261 72.1822C80.7509 72.3325 80.8519 72.4949 80.9767 72.6393C81.1015 72.7896 81.2025 72.946 81.3272 73.0964C81.452 73.2407 81.6005 73.367 81.7194 73.5114C81.8382 73.6617 81.9333 73.8301 82.0521 73.9805C82.1709 74.1308 82.367 74.215 82.4858 74.3654C82.5987 74.5037 82.7948 74.5699 82.9136 74.7022C83.0324 74.8405 83.0443 75.0751 83.1632 75.2074C83.2879 75.3337 83.4602 75.4179 83.585 75.5442C83.7098 75.6705 83.894 75.7427 84.0187 75.869C84.1494 75.9953 84.2089 76.1877 84.3396 76.314C84.4643 76.4404 84.5475 76.6088 84.6782 76.7351C84.809 76.8734 84.9634 76.9877 85.0941 77.12C85.2249 77.2583 85.3496 77.4027 85.4803 77.535C85.617 77.6733 85.7299 77.8237 85.8606 77.956C85.9913 78.0883 86.2527 78.1003 86.3835 78.2326C86.5201 78.365 86.5617 78.5935 86.6984 78.7258C86.835 78.8581 87.0608 78.8942 87.1974 79.0265C87.3282 79.1649 87.4589 79.3032 87.5896 79.4355C87.7203 79.5738 87.7856 79.7783 87.9164 79.9107C88.0471 80.049 88.2313 80.1332 88.362 80.2655C88.4927 80.4038 88.558 80.6083 88.6888 80.7406C88.8195 80.879 89.075 80.891 89.2057 81.0293C89.3601 81.1917 89.4077 81.4564 89.5443 81.6308C89.681 81.8112 89.8533 81.9616 89.9899 82.142C90.1207 82.3224 90.2157 82.5329 90.3524 82.7073C90.4712 82.8637 90.59 83.0081 90.6673 83.1705C90.7505 83.3389 90.8812 83.5012 90.9228 83.6817C90.9703 83.8681 91 84.0726 91 84.253C91 84.4395 90.8336 84.6139 90.7861 84.7943C90.7386 84.9687 90.697 85.1432 90.6079 85.3116C90.5187 85.4679 90.3821 85.5822 90.2573 85.7266C90.1385 85.8649 90.1385 86.1416 89.9899 86.2558C89.8414 86.3761 89.6513 86.4543 89.4909 86.5566C89.3304 86.6588 89.176 86.7851 89.0096 86.8753C88.8432 86.9655 88.6293 86.9595 88.4511 87.0377C88.2788 87.1099 88.0708 87.0798 87.8867 87.1339C87.7084 87.1941 87.5718 87.4346 87.3876 87.4707C87.2034 87.5068 86.9895 87.3745 86.7994 87.3925C86.6152 87.4106 86.4369 87.4888 86.2527 87.5068C86.0686 87.5249 85.8784 87.4768 85.6883 87.4948C85.5041 87.5128 85.3377 87.7354 85.1536 87.7534C84.9694 87.7715 84.7674 87.579 84.5772 87.597C84.393 87.6151 84.2148 87.7293 84.0306 87.7474C83.8464 87.7594 83.6682 87.8677 83.484 87.8797C83.2998 87.8917 83.1037 87.7955 82.9196 87.8075C82.7354 87.8196 82.5452 87.7293 82.3551 87.7414C82.1709 87.7474 81.9927 87.9399 81.8085 87.9459C81.6243 87.9579 81.4342 87.8135 81.2441 87.8196C81.0599 87.8256 80.8757 87.9579 80.6915 87.9639C80.5073 87.9699 80.3172 88 80.133 88C79.9488 88 79.7646 87.8136 79.5745 87.8136C79.3844 87.8136 79.2061 87.8316 79.016 87.8316C78.8259 87.8256 78.6357 87.982 78.4456 87.9759C78.2555 87.9699 78.0713 87.8496 77.8812 87.8436C77.691 87.8376 77.5009 87.8737 77.3108 87.8677C77.1207 87.8617 76.9305 87.9519 76.7404 87.9459C76.5503 87.9338 76.3661 87.8316 76.176 87.8256C75.9858 87.8196 75.7957 87.7594 75.6056 87.7534C75.4154 87.7474 75.2253 87.7053 75.0411 87.6993C74.851 87.6933 74.6609 87.6812 74.4707 87.6752C74.2806 87.6632 74.0846 87.8316 73.8944 87.8196C73.7043 87.8135 73.5142 87.7775 73.324 87.7715C73.1339 87.7654 72.9438 87.7233 72.7537 87.7173C72.5635 87.7113 72.3793 87.591 72.1892 87.585C71.9991 87.573 71.803 87.6933 71.6129 87.6872C71.4109 87.6812 71.2029 87.7474 71.0009 87.7414C70.7989 87.7354 70.5969 87.5249 70.3949 87.5188C70.1929 87.5188 69.9849 87.5128 69.7829 87.5068C69.5809 87.5068 69.3729 87.6692 69.165 87.6692C68.963 87.6632 68.755 87.6692 68.553 87.6632C68.351 87.6572 68.149 87.591 67.941 87.585C67.739 87.573 67.537 87.4467 67.335 87.4347C67.133 87.4286 66.9191 87.567 66.7171 87.5549C66.527 87.5429 66.3428 87.3865 66.1527 87.3745C65.9625 87.3625 65.7605 87.5008 65.5644 87.4888C65.3684 87.4768 65.1782 87.4948 64.9881 87.4828C64.798 87.4707 64.6197 87.2482 64.4296 87.2302C64.2395 87.2181 64.0315 87.3805 63.8414 87.3685C63.6513 87.3565 63.4552 87.3685 63.2651 87.3504C63.075 87.3384 62.8967 87.1159 62.7066 87.1039C62.5165 87.0858 62.3144 87.2121 62.1184 87.2001C61.9282 87.182 61.7381 87.158 61.542 87.146C61.346 87.1339 61.1559 87.152 60.9657 87.1339C60.7756 87.1219 60.5914 87.0136 60.3953 86.9956C60.2052 86.9836 60.0091 86.9956 59.819 86.9836C59.6289 86.9715 59.4447 86.8452 59.2486 86.8332C59.0585 86.8152 58.8624 87.0016 58.6723 86.9896C58.4822 86.9836 58.3039 86.8031 58.1197 86.7911C57.9296 86.7851 57.7395 86.8994 57.5494 86.8934C57.3592 86.8813 57.175 86.8994 56.9849 86.8934C56.7948 86.8873 56.6106 86.7971 56.4264 86.7911C56.2422 86.7851 56.0521 86.7971 55.862 86.7851C55.6718 86.7791 55.4817 86.8512 55.2975 86.8392C55.1074 86.8332 54.9292 86.7069 54.739 86.6949C54.537 86.6828 54.341 86.6227 54.1449 86.6107C53.9429 86.5987 53.7349 86.7911 53.5329 86.7791C53.3309 86.7671 53.1408 86.6107 52.9447 86.5986C52.7427 86.5806 52.5466 86.5325 52.3505 86.5205C52.1485 86.5084 51.9406 86.6648 51.7386 86.6468C51.5366 86.6347 51.3405 86.5926 51.1444 86.5806C50.9424 86.5686 50.7404 86.5986 50.5443 86.5866C50.3423 86.5746 50.1463 86.5265 49.9442 86.5144C49.7422 86.5024 49.5521 86.3521 49.356 86.34C49.16 86.328 48.9461 86.4603 48.75 86.4543C48.548 86.4423 48.3579 86.2618 48.1618 86.2498C47.9717 86.2378 47.7756 86.2739 47.5855 86.2679C47.3953 86.2558 47.1993 86.316 47.0091 86.31C46.819 86.2979 46.6348 86.1476 46.4447 86.1355C46.2546 86.1295 46.0526 86.2799 45.8624 86.2739C45.6723 86.2618 45.4822 86.1536 45.292 86.1476C45.1019 86.1355 44.9118 86.1295 44.7217 86.1175C44.5315 86.1115 44.3355 86.2318 44.1453 86.2197C43.9552 86.2137 43.7651 86.1476 43.575 86.1416C43.3848 86.1355 43.1947 86.0634 43.0046 86.0573C42.8144 86.0513 42.6184 86.1476 42.4282 86.1416C42.2381 86.1355 42.048 86.1416 41.8579 86.1355C41.6677 86.1295 41.4776 86.0634 41.2875 86.0634C41.0974 86.0574 40.9072 86.0213 40.7171 86.0213C40.527 86.0152 40.3368 86.0213 40.1467 86.0213C39.9566 86.0152 39.7665 86.0934 39.5763 86.0874C39.3862 86.0874 39.1961 86.0694 39.0059 86.0694C38.8158 86.0634 38.6257 86.0032 38.4356 85.9972C38.2454 85.9912 38.0553 85.9491 37.8652 85.9431C37.675 85.9371 37.4849 86.0995 37.2948 86.0995C37.1047 86.0934 36.9145 86.0754 36.7244 86.0694L36.154 86.0694C35.9639 86.0634 35.7738 86.0634 35.5836 86.0573C35.3935 86.0573 35.2034 86.0333 35.0133 86.0333C34.8231 86.0333 34.633 85.8348 34.4488 85.8288C34.2587 85.8288 34.0686 86.0333 33.8784 86.0333C33.6883 86.0333 33.4982 85.925 33.308 85.925C33.1179 85.925 32.9278 85.8829 32.7377 85.8829C32.5475 85.8829 32.3574 85.8288 32.1673 85.8288C31.9772 85.8228 31.787 86.0032 31.5969 86.0032C31.4068 86.0032 31.2166 85.8228 31.0265 85.8228C30.8364 85.8228 30.6522 86.0453 30.4621 86.0453C30.2719 86.0453 30.0818 86.0333 29.8976 86.0333C29.7134 86.0333 29.5174 85.8168 29.3272 85.8168C29.1371 85.8228 28.9529 86.0213 28.7628 86.0273C28.5727 86.0273 28.3825 86.0152 28.1984 86.0152C28.0082 86.0213 27.8181 85.919 27.6339 85.919C27.4438 85.919 27.2537 85.9311 27.0695 85.9311C26.8853 85.9311 26.6892 85.913 26.505 85.919C26.3149 85.919 26.1248 85.9371 25.9406 85.9371C25.7564 85.9371 25.5663 86.0453 25.3761 86.0453C25.186 86.0513 24.9959 85.9371 24.8058 85.9371C24.6156 85.9371 24.4314 86.0634 24.2413 86.0694C24.0512 86.0694 23.8611 85.9311 23.6709 85.9311C23.4808 85.9371 23.2907 85.8829 23.1006 85.8829C22.9104 85.8829 22.7262 86.0092 22.5361 86.0092C22.346 86.0153 22.1558 86.0273 21.9717 86.0273C21.7815 86.0333 21.5914 85.9972 21.4072 85.9972C21.2171 85.9972 21.027 85.925 20.8428 85.925C20.6527 85.9311 20.4685 86.0032 20.2783 86.0092C20.0882 86.0092 19.8981 85.9912 19.7139 85.9972C19.5238 85.9972 19.3336 86.0273 19.1495 86.0333C18.9593 86.0333 18.7751 86.1716 18.585 86.1716C18.3949 86.1716 18.2048 86.0213 18.0146 86.0273C17.8245 86.0273 17.6403 86.0694 17.4502 86.0694C17.2601 86.0694 17.0699 86.0213 16.8857 86.0273C16.6956 86.0273 16.5055 86.0213 16.3213 86.0273C16.1193 86.0273 15.9232 86.1295 15.7212 86.1355C15.5192 86.1355 15.3231 86.2258 15.1211 86.2318C14.9191 86.2318 14.7171 86.0934 14.5151 86.0995C14.3131 86.1055 14.117 86.1957 13.915 86.2017C13.713 86.2077 13.511 86.1175 13.309 86.1235C13.1069 86.1295 12.9109 86.2558 12.7148 86.2618C12.5128 86.2678 12.3108 86.0694 12.1088 86.0754C11.9068 86.0814 11.7107 86.0874 11.5087 86.0934C11.3067 86.0994 11.1106 86.2618 10.9145 86.2679C10.7125 86.2679 10.5165 86.2679 10.3144 86.2739C10.1124 86.2739 9.91043 86.1716 9.71436 86.1716C9.51235 86.1776 9.31627 86.31 9.11426 86.31C8.93602 86.31 8.75183 86.2979 8.56765 86.2979C8.3894 86.2919 8.20521 86.2438 8.02697 86.2378C7.84872 86.2318 7.66454 86.2739 7.48035 86.2679C7.3021 86.2558 7.12387 86.1115 6.94562 86.0995C6.76738 86.0874 6.57724 86.1476 6.39901 86.1355C6.22076 86.1235 6.03657 86.1776 5.85238 86.1656C5.6682 86.1536 5.49589 86.0754 5.31171 86.0634C5.22853 86.0574 5.01464 86.0092 4.72944 86.0273C4.55714 86.0333 4.36701 86.1055 4.15312 86.1175C3.96893 86.1235 3.7788 86.1897 3.57084 86.1897C3.38072 86.1897 3.18465 86.1776 2.98858 86.1716C2.79251 86.1656 2.60238 86.0995 2.41225 86.0814C2.21618 86.0634 2.01417 86.0814 1.82999 86.0453C1.63392 86.0092 1.44379 85.9371 1.26554 85.8829C1.06948 85.8168 0.944706 85.6424 0.790226 85.5521C0.611981 85.4439 0.374317 85.4379 0.267368 85.2875C0.160427 85.1311 0.00594721 84.9387 3.92607e-06 84.7222C3.93001e-06 84.6319 0.0297128 84.5357 0.065365 84.4335C0.101009 84.3372 0.130718 84.241 0.130718 84.1388C0.130718 83.9523 0.0475427 83.7599 0.0475427 83.5554C0.0475427 83.3689 3.9939e-06 83.1704 4.00257e-06 82.972C4.01099e-06 82.7795 0.148541 82.587 0.148541 82.3886C0.148541 82.2984 0.148548 82.2021 0.142605 82.1059C0.142605 82.0097 0.130718 81.9074 0.136662 81.8052C0.136662 81.6127 0.166363 81.4203 0.172306 81.2218C0.172306 81.1256 0.166363 81.0293 0.154484 80.9331C0.142597 80.8369 0.130719 80.7406 0.136662 80.6384C0.136662 80.5422 0.130726 80.4459 0.124783 80.3497C0.11884 80.2535 0.106953 80.1572 0.112896 80.055C0.112896 79.8625 0.136662 79.6701 0.142605 79.4716C0.142605 79.2791 0.172314 79.0807 0.17825 78.8882C0.17825 78.792 0.166371 78.6897 0.148541 78.5935C0.130719 78.4973 0.118832 78.4011 0.118832 78.3048C0.118832 78.1063 0.3149 77.9139 0.320843 77.7214C0.320843 77.6252 0.279255 77.5229 0.231724 77.4267C0.184193 77.3245 0.136662 77.2282 0.142605 77.132C0.142605 76.9335 0.213902 76.7411 0.213902 76.5486C0.213902 76.3501 0.297085 76.1577 0.297085 75.9652C0.297085 75.863 0.297078 75.7607 0.285199 75.6585C0.285199 75.5623 0.27332 75.472 0.27332 75.3818C0.27332 75.1773 0.27332 74.9849 0.27332 74.7984C0.27332 74.5939 0.190129 74.4015 0.190129 74.2211C0.190129 74.0526 0.213894 73.8782 0.219838 73.7098C0.219838 73.5414 0.243611 73.373 0.243611 73.2046L0.207966 73.1806" fill="#F8F6F1"/>
</svg>
